<svg width="168" height="84" viewBox="0 0 168 84" fill="none" xmlns="http://www.w3.org/2000/svg">
<g filter="url(#filter0_d_321_1521)">
<circle cx="42" cy="38" r="24" fill="#2F2E41"/>
</g>
<path d="M42.127 38.127C45.2596 38.127 47.799 35.5876 47.799 32.455C47.799 29.3225 45.2596 26.7831 42.127 26.7831C38.9945 26.7831 36.4551 29.3225 36.4551 32.455C36.4551 35.5876 38.9945 38.127 42.127 38.127Z" fill="white"/>
<path d="M53.471 48.0529V49.4708C53.471 49.8469 53.3216 50.2076 53.0557 50.4735C52.7898 50.7394 52.4291 50.8888 52.053 50.8888H32.2012C31.8251 50.8888 31.4644 50.7394 31.1985 50.4735C30.9326 50.2076 30.7832 49.8469 30.7832 49.4708V48.0529C30.7832 45.7964 31.6796 43.6324 33.2751 42.0368C34.8707 40.4413 37.0347 39.5449 39.2911 39.5449H44.9631C47.2195 39.5449 49.3836 40.4413 50.9791 42.0368C52.5747 43.6324 53.471 45.7964 53.471 48.0529V48.0529Z" fill="white"/>
<path d="M81.976 39L89.584 22.2H91.96L99.592 39H97.072L90.28 23.544H91.24L84.448 39H81.976ZM85.216 34.8L85.864 32.88H95.32L96.016 34.8H85.216ZM101.738 39V22.2H108.818C110.61 22.2 112.186 22.552 113.546 23.256C114.922 23.96 115.986 24.944 116.738 26.208C117.506 27.472 117.89 28.936 117.89 30.6C117.89 32.264 117.506 33.728 116.738 34.992C115.986 36.256 114.922 37.24 113.546 37.944C112.186 38.648 110.61 39 108.818 39H101.738ZM104.138 36.912H108.674C110.066 36.912 111.266 36.648 112.274 36.12C113.298 35.592 114.09 34.856 114.65 33.912C115.21 32.952 115.49 31.848 115.49 30.6C115.49 29.336 115.21 28.232 114.65 27.288C114.09 26.344 113.298 25.608 112.274 25.08C111.266 24.552 110.066 24.288 108.674 24.288H104.138V36.912ZM121.206 39V22.2H123.174L130.71 34.896H129.654L137.094 22.2H139.062L139.086 39H136.782L136.758 25.824H137.31L130.686 36.96H129.582L122.91 25.824H123.51V39H121.206ZM143.768 39V22.2H146.168V39H143.768ZM150.838 39V22.2H152.806L163.918 36H162.886V22.2H165.286V39H163.318L152.206 25.2H153.238V39H150.838Z" fill="#447DBF"/>
<path d="M83.68 57V45.8H85.28V57H83.68ZM92.6971 48.44C93.3905 48.44 93.9985 48.5733 94.5211 48.84C95.0545 49.1067 95.4705 49.512 95.7691 50.056C96.0678 50.6 96.2171 51.288 96.2171 52.12V57H94.6811V52.296C94.6811 51.4747 94.4785 50.856 94.0731 50.44C93.6785 50.024 93.1185 49.816 92.3931 49.816C91.8491 49.816 91.3745 49.9227 90.9691 50.136C90.5638 50.3493 90.2491 50.664 90.0251 51.08C89.8118 51.496 89.7051 52.0133 89.7051 52.632V57H88.1691V48.52H89.6411V50.808L89.4011 50.2C89.6785 49.6453 90.1051 49.2133 90.6811 48.904C91.2571 48.5947 91.9291 48.44 92.6971 48.44ZM102.516 57.096C101.652 57.096 100.878 56.9093 100.196 56.536C99.5238 56.1627 98.9958 55.6507 98.6118 55C98.2278 54.3493 98.0358 53.6027 98.0358 52.76C98.0358 51.9173 98.2278 51.1707 98.6118 50.52C98.9958 49.8693 99.5238 49.3627 100.196 49C100.878 48.6267 101.652 48.44 102.516 48.44C103.284 48.44 103.966 48.5947 104.564 48.904C105.172 49.2027 105.641 49.6507 105.972 50.248L104.804 51C104.526 50.584 104.185 50.28 103.78 50.088C103.385 49.8853 102.958 49.784 102.5 49.784C101.945 49.784 101.449 49.9067 101.012 50.152C100.574 50.3973 100.228 50.744 99.9718 51.192C99.7158 51.6293 99.5878 52.152 99.5878 52.76C99.5878 53.368 99.7158 53.896 99.9718 54.344C100.228 54.792 100.574 55.1387 101.012 55.384C101.449 55.6293 101.945 55.752 102.5 55.752C102.958 55.752 103.385 55.656 103.78 55.464C104.185 55.2613 104.526 54.952 104.804 54.536L105.972 55.272C105.641 55.8587 105.172 56.312 104.564 56.632C103.966 56.9413 103.284 57.096 102.516 57.096ZM112.139 48.44C112.832 48.44 113.44 48.5733 113.963 48.84C114.496 49.1067 114.912 49.512 115.211 50.056C115.51 50.6 115.659 51.288 115.659 52.12V57H114.123V52.296C114.123 51.4747 113.92 50.856 113.515 50.44C113.12 50.024 112.56 49.816 111.835 49.816C111.291 49.816 110.816 49.9227 110.411 50.136C110.006 50.3493 109.691 50.664 109.467 51.08C109.254 51.496 109.147 52.0133 109.147 52.632V57H107.611V45.128H109.147V50.808L108.843 50.2C109.12 49.6453 109.547 49.2133 110.123 48.904C110.699 48.5947 111.371 48.44 112.139 48.44ZM123.526 57V55.208L123.446 54.872V51.816C123.446 51.1653 123.254 50.664 122.87 50.312C122.496 49.9493 121.931 49.768 121.174 49.768C120.672 49.768 120.182 49.8533 119.702 50.024C119.222 50.184 118.816 50.4027 118.486 50.68L117.846 49.528C118.283 49.176 118.806 48.9093 119.414 48.728C120.032 48.536 120.678 48.44 121.35 48.44C122.512 48.44 123.408 48.7227 124.038 49.288C124.667 49.8533 124.982 50.7173 124.982 51.88V57H123.526ZM120.742 57.096C120.112 57.096 119.558 56.9893 119.078 56.776C118.608 56.5627 118.246 56.2693 117.99 55.896C117.734 55.512 117.606 55.08 117.606 54.6C117.606 54.1413 117.712 53.7253 117.926 53.352C118.15 52.9787 118.507 52.68 118.998 52.456C119.499 52.232 120.171 52.12 121.014 52.12H123.702V53.224H121.078C120.31 53.224 119.792 53.352 119.526 53.608C119.259 53.864 119.126 54.1733 119.126 54.536C119.126 54.952 119.291 55.288 119.622 55.544C119.952 55.7893 120.411 55.912 120.998 55.912C121.574 55.912 122.075 55.784 122.502 55.528C122.939 55.272 123.254 54.8987 123.446 54.408L123.75 55.464C123.547 55.9653 123.19 56.3653 122.678 56.664C122.166 56.952 121.52 57.096 120.742 57.096ZM127.584 57V48.52H129.056V50.824L128.912 50.248C129.147 49.6613 129.541 49.2133 130.096 48.904C130.651 48.5947 131.333 48.44 132.144 48.44V49.928C132.08 49.9173 132.016 49.912 131.952 49.912C131.899 49.912 131.845 49.912 131.792 49.912C130.971 49.912 130.32 50.1573 129.84 50.648C129.36 51.1387 129.12 51.848 129.12 52.776V57H127.584ZM137.431 60.2C136.652 60.2 135.895 60.088 135.159 59.864C134.434 59.6507 133.842 59.3413 133.383 58.936L134.119 57.752C134.514 58.0933 134.999 58.36 135.575 58.552C136.151 58.7547 136.754 58.856 137.383 58.856C138.386 58.856 139.122 58.6213 139.591 58.152C140.06 57.6827 140.295 56.968 140.295 56.008V54.216L140.455 52.536L140.375 50.84V48.52H141.831V55.848C141.831 57.3413 141.458 58.44 140.711 59.144C139.964 59.848 138.871 60.2 137.431 60.2ZM137.239 56.648C136.418 56.648 135.682 56.4773 135.031 56.136C134.391 55.784 133.879 55.2987 133.495 54.68C133.122 54.0613 132.935 53.3467 132.935 52.536C132.935 51.7147 133.122 51 133.495 50.392C133.879 49.7733 134.391 49.2933 135.031 48.952C135.682 48.6107 136.418 48.44 137.239 48.44C137.964 48.44 138.626 48.5893 139.223 48.888C139.82 49.176 140.295 49.624 140.647 50.232C141.01 50.84 141.191 51.608 141.191 52.536C141.191 53.4533 141.01 54.216 140.647 54.824C140.295 55.432 139.82 55.8907 139.223 56.2C138.626 56.4987 137.964 56.648 137.239 56.648ZM137.415 55.304C137.98 55.304 138.482 55.1867 138.919 54.952C139.356 54.7173 139.698 54.392 139.943 53.976C140.199 53.56 140.327 53.08 140.327 52.536C140.327 51.992 140.199 51.512 139.943 51.096C139.698 50.68 139.356 50.36 138.919 50.136C138.482 49.9013 137.98 49.784 137.415 49.784C136.85 49.784 136.343 49.9013 135.895 50.136C135.458 50.36 135.111 50.68 134.855 51.096C134.61 51.512 134.487 51.992 134.487 52.536C134.487 53.08 134.61 53.56 134.855 53.976C135.111 54.392 135.458 54.7173 135.895 54.952C136.343 55.1867 136.85 55.304 137.415 55.304ZM148.302 57.096C147.395 57.096 146.595 56.9093 145.902 56.536C145.219 56.1627 144.686 55.6507 144.302 55C143.929 54.3493 143.742 53.6027 143.742 52.76C143.742 51.9173 143.923 51.1707 144.286 50.52C144.659 49.8693 145.166 49.3627 145.806 49C146.457 48.6267 147.187 48.44 147.998 48.44C148.819 48.44 149.545 48.6213 150.174 48.984C150.803 49.3467 151.294 49.8587 151.646 50.52C152.009 51.1707 152.19 51.9333 152.19 52.808C152.19 52.872 152.185 52.9467 152.174 53.032C152.174 53.1173 152.169 53.1973 152.158 53.272H144.942V52.168H151.358L150.734 52.552C150.745 52.008 150.633 51.5227 150.398 51.096C150.163 50.6693 149.838 50.3387 149.422 50.104C149.017 49.8587 148.542 49.736 147.998 49.736C147.465 49.736 146.99 49.8587 146.574 50.104C146.158 50.3387 145.833 50.6747 145.598 51.112C145.363 51.5387 145.246 52.0293 145.246 52.584V52.84C145.246 53.4053 145.374 53.912 145.63 54.36C145.897 54.7973 146.265 55.1387 146.734 55.384C147.203 55.6293 147.742 55.752 148.35 55.752C148.851 55.752 149.305 55.6667 149.71 55.496C150.126 55.3253 150.489 55.0693 150.798 54.728L151.646 55.72C151.262 56.168 150.782 56.5093 150.206 56.744C149.641 56.9787 149.006 57.096 148.302 57.096Z" fill="#2F2E41"/>
<defs>
<filter id="filter0_d_321_1521" x="0" y="0" width="84" height="84" filterUnits="userSpaceOnUse" color-interpolation-filters="sRGB">
<feFlood flood-opacity="0" result="BackgroundImageFix"/>
<feColorMatrix in="SourceAlpha" type="matrix" values="0 0 0 0 0 0 0 0 0 0 0 0 0 0 0 0 0 0 127 0" result="hardAlpha"/>
<feOffset dy="4"/>
<feGaussianBlur stdDeviation="9"/>
<feComposite in2="hardAlpha" operator="out"/>
<feColorMatrix type="matrix" values="0 0 0 0 0 0 0 0 0 0 0 0 0 0 0 0 0 0 0.25 0"/>
<feBlend mode="normal" in2="BackgroundImageFix" result="effect1_dropShadow_321_1521"/>
<feBlend mode="normal" in="SourceGraphic" in2="effect1_dropShadow_321_1521" result="shape"/>
</filter>
</defs>
</svg>
