<svg width="268" height="84" viewBox="0 0 268 84" fill="none" xmlns="http://www.w3.org/2000/svg">
<g filter="url(#filter0_d_93_34)">
<circle cx="42" cy="38" r="24" fill="#2F2E41"/>
</g>
<path d="M42.127 38.127C45.2596 38.127 47.799 35.5876 47.799 32.455C47.799 29.3225 45.2596 26.7831 42.127 26.7831C38.9945 26.7831 36.4551 29.3225 36.4551 32.455C36.4551 35.5876 38.9945 38.127 42.127 38.127Z" fill="white"/>
<path d="M53.471 48.0529V49.4709C53.471 49.847 53.3216 50.2077 53.0557 50.4736C52.7898 50.7395 52.4291 50.8889 52.053 50.8889H32.2012C31.8251 50.8889 31.4644 50.7395 31.1985 50.4736C30.9326 50.2077 30.7832 49.847 30.7832 49.4709V48.0529C30.7832 45.7965 31.6796 43.6324 33.2751 42.0369C34.8707 40.4414 37.0347 39.545 39.2911 39.545H44.9631C47.2195 39.545 49.3836 40.4414 50.9791 42.0369C52.5747 43.6324 53.471 45.7965 53.471 48.0529Z" fill="white"/>
<path d="M84.52 39V22.2H86.92V36.912H96.016V39H84.52ZM95.866 39L103.474 22.2H105.85L113.482 39H110.962L104.17 23.544H105.13L98.338 39H95.866ZM99.106 34.8L99.754 32.88H109.21L109.906 34.8H99.106ZM115.628 39V22.2H123.164C125.1 22.2 126.588 22.592 127.628 23.376C128.668 24.144 129.188 25.2 129.188 26.544C129.188 27.456 128.98 28.224 128.564 28.848C128.164 29.472 127.62 29.952 126.932 30.288C126.244 30.624 125.5 30.792 124.7 30.792L125.132 30.072C126.092 30.072 126.94 30.24 127.676 30.576C128.412 30.912 128.996 31.408 129.428 32.064C129.86 32.704 130.076 33.504 130.076 34.464C130.076 35.904 129.532 37.024 128.444 37.824C127.372 38.608 125.772 39 123.644 39H115.628ZM118.028 37.056H123.548C124.876 37.056 125.892 36.832 126.596 36.384C127.3 35.936 127.652 35.232 127.652 34.272C127.652 33.296 127.3 32.584 126.596 32.136C125.892 31.688 124.876 31.464 123.548 31.464H117.812V29.52H122.948C124.164 29.52 125.108 29.296 125.78 28.848C126.452 28.4 126.788 27.728 126.788 26.832C126.788 25.936 126.452 25.264 125.78 24.816C125.108 24.368 124.164 24.144 122.948 24.144H118.028V37.056ZM136.974 39L144.582 22.2H146.958L154.59 39H152.07L145.278 23.544H146.238L139.446 39H136.974ZM140.214 34.8L140.862 32.88H150.318L151.014 34.8H140.214ZM161.632 39.192C160.352 39.192 159.128 39 157.96 38.616C156.792 38.216 155.872 37.704 155.2 37.08L156.088 35.208C156.728 35.768 157.544 36.232 158.536 36.6C159.528 36.968 160.56 37.152 161.632 37.152C162.608 37.152 163.4 37.04 164.008 36.816C164.616 36.592 165.064 36.288 165.352 35.904C165.64 35.504 165.784 35.056 165.784 34.56C165.784 33.984 165.592 33.52 165.208 33.168C164.84 32.816 164.352 32.536 163.744 32.328C163.152 32.104 162.496 31.912 161.776 31.752C161.056 31.592 160.328 31.408 159.592 31.2C158.872 30.976 158.208 30.696 157.6 30.36C157.008 30.024 156.528 29.576 156.16 29.016C155.792 28.44 155.608 27.704 155.608 26.808C155.608 25.944 155.832 25.152 156.28 24.432C156.744 23.696 157.448 23.112 158.392 22.68C159.352 22.232 160.568 22.008 162.04 22.008C163.016 22.008 163.984 22.136 164.944 22.392C165.904 22.648 166.736 23.016 167.44 23.496L166.648 25.416C165.928 24.936 165.168 24.592 164.368 24.384C163.568 24.16 162.792 24.048 162.04 24.048C161.096 24.048 160.32 24.168 159.712 24.408C159.104 24.648 158.656 24.968 158.368 25.368C158.096 25.768 157.96 26.216 157.96 26.712C157.96 27.304 158.144 27.776 158.512 28.128C158.896 28.48 159.384 28.76 159.976 28.968C160.584 29.176 161.248 29.368 161.968 29.544C162.688 29.704 163.408 29.888 164.128 30.096C164.864 30.304 165.528 30.576 166.12 30.912C166.728 31.248 167.216 31.696 167.584 32.256C167.952 32.816 168.136 33.536 168.136 34.416C168.136 35.264 167.904 36.056 167.44 36.792C166.976 37.512 166.256 38.096 165.28 38.544C164.32 38.976 163.104 39.192 161.632 39.192ZM176.178 39.192C174.898 39.192 173.674 39 172.506 38.616C171.338 38.216 170.418 37.704 169.746 37.08L170.634 35.208C171.274 35.768 172.09 36.232 173.082 36.6C174.074 36.968 175.106 37.152 176.178 37.152C177.154 37.152 177.946 37.04 178.554 36.816C179.162 36.592 179.61 36.288 179.898 35.904C180.186 35.504 180.33 35.056 180.33 34.56C180.33 33.984 180.138 33.52 179.754 33.168C179.386 32.816 178.898 32.536 178.29 32.328C177.698 32.104 177.042 31.912 176.322 31.752C175.602 31.592 174.874 31.408 174.138 31.2C173.418 30.976 172.754 30.696 172.146 30.36C171.554 30.024 171.074 29.576 170.706 29.016C170.338 28.44 170.154 27.704 170.154 26.808C170.154 25.944 170.378 25.152 170.826 24.432C171.29 23.696 171.994 23.112 172.938 22.68C173.898 22.232 175.114 22.008 176.586 22.008C177.562 22.008 178.53 22.136 179.49 22.392C180.45 22.648 181.282 23.016 181.986 23.496L181.194 25.416C180.474 24.936 179.714 24.592 178.914 24.384C178.114 24.16 177.338 24.048 176.586 24.048C175.642 24.048 174.866 24.168 174.258 24.408C173.65 24.648 173.202 24.968 172.914 25.368C172.642 25.768 172.506 26.216 172.506 26.712C172.506 27.304 172.69 27.776 173.058 28.128C173.442 28.48 173.93 28.76 174.522 28.968C175.13 29.176 175.794 29.368 176.514 29.544C177.234 29.704 177.954 29.888 178.674 30.096C179.41 30.304 180.074 30.576 180.666 30.912C181.274 31.248 181.762 31.696 182.13 32.256C182.498 32.816 182.682 33.536 182.682 34.416C182.682 35.264 182.45 36.056 181.986 36.792C181.522 37.512 180.802 38.096 179.826 38.544C178.866 38.976 177.65 39.192 176.178 39.192ZM185.828 39V22.2H188.228V39H185.828ZM197.794 39.192C196.514 39.192 195.29 39 194.122 38.616C192.954 38.216 192.034 37.704 191.362 37.08L192.25 35.208C192.89 35.768 193.706 36.232 194.698 36.6C195.69 36.968 196.722 37.152 197.794 37.152C198.77 37.152 199.562 37.04 200.17 36.816C200.778 36.592 201.226 36.288 201.514 35.904C201.802 35.504 201.946 35.056 201.946 34.56C201.946 33.984 201.754 33.52 201.37 33.168C201.002 32.816 200.514 32.536 199.906 32.328C199.314 32.104 198.658 31.912 197.938 31.752C197.218 31.592 196.49 31.408 195.754 31.2C195.034 30.976 194.37 30.696 193.762 30.36C193.17 30.024 192.69 29.576 192.322 29.016C191.954 28.44 191.77 27.704 191.77 26.808C191.77 25.944 191.994 25.152 192.442 24.432C192.906 23.696 193.61 23.112 194.554 22.68C195.514 22.232 196.73 22.008 198.202 22.008C199.178 22.008 200.146 22.136 201.106 22.392C202.066 22.648 202.898 23.016 203.602 23.496L202.81 25.416C202.09 24.936 201.33 24.592 200.53 24.384C199.73 24.16 198.954 24.048 198.202 24.048C197.258 24.048 196.482 24.168 195.874 24.408C195.266 24.648 194.818 24.968 194.53 25.368C194.258 25.768 194.122 26.216 194.122 26.712C194.122 27.304 194.306 27.776 194.674 28.128C195.058 28.48 195.546 28.76 196.138 28.968C196.746 29.176 197.41 29.368 198.13 29.544C198.85 29.704 199.57 29.888 200.29 30.096C201.026 30.304 201.69 30.576 202.282 30.912C202.89 31.248 203.378 31.696 203.746 32.256C204.114 32.816 204.298 33.536 204.298 34.416C204.298 35.264 204.066 36.056 203.602 36.792C203.138 37.512 202.418 38.096 201.442 38.544C200.482 38.976 199.266 39.192 197.794 39.192ZM210.546 39V24.288H204.786V22.2H218.682V24.288H212.922V39H210.546ZM217.548 39L225.156 22.2H227.532L235.164 39H232.644L225.852 23.544H226.812L220.02 39H217.548ZM220.788 34.8L221.436 32.88H230.892L231.588 34.8H220.788ZM237.31 39V22.2H239.278L250.39 36H249.358V22.2H251.758V39H249.79L238.678 25.2H239.71V39H237.31ZM259.763 39V24.288H254.003V22.2H267.899V24.288H262.139V39H259.763Z" fill="#447DBF"/>
<path d="M83.68 57V45.8H84.992L90.016 54.264H89.312L94.272 45.8H95.584L95.6 57H94.064L94.048 48.216H94.416L90 55.64H89.264L84.816 48.216H85.216V57H83.68ZM102.129 57.096C101.276 57.096 100.519 56.9093 99.8573 56.536C99.1959 56.1627 98.6733 55.6507 98.2893 55C97.9053 54.3387 97.7133 53.592 97.7133 52.76C97.7133 51.9173 97.9053 51.1707 98.2893 50.52C98.6733 49.8693 99.1959 49.3627 99.8573 49C100.519 48.6267 101.276 48.44 102.129 48.44C102.972 48.44 103.724 48.6267 104.385 49C105.057 49.3627 105.58 49.8693 105.953 50.52C106.337 51.16 106.529 51.9067 106.529 52.76C106.529 53.6027 106.337 54.3493 105.953 55C105.58 55.6507 105.057 56.1627 104.385 56.536C103.724 56.9093 102.972 57.096 102.129 57.096ZM102.129 55.752C102.673 55.752 103.159 55.6293 103.585 55.384C104.023 55.1387 104.364 54.792 104.609 54.344C104.855 53.8853 104.977 53.3573 104.977 52.76C104.977 52.152 104.855 51.6293 104.609 51.192C104.364 50.744 104.023 50.3973 103.585 50.152C103.159 49.9067 102.673 49.784 102.129 49.784C101.585 49.784 101.1 49.9067 100.673 50.152C100.247 50.3973 99.9053 50.744 99.6493 51.192C99.3933 51.6293 99.2653 52.152 99.2653 52.76C99.2653 53.3573 99.3933 53.8853 99.6493 54.344C99.9053 54.792 100.247 55.1387 100.673 55.384C101.1 55.6293 101.585 55.752 102.129 55.752ZM112.942 48.44C113.635 48.44 114.243 48.5733 114.766 48.84C115.299 49.1067 115.715 49.512 116.014 50.056C116.312 50.6 116.462 51.288 116.462 52.12V57H114.926V52.296C114.926 51.4747 114.723 50.856 114.318 50.44C113.923 50.024 113.363 49.816 112.638 49.816C112.094 49.816 111.619 49.9227 111.214 50.136C110.808 50.3493 110.494 50.664 110.27 51.08C110.056 51.496 109.95 52.0133 109.95 52.632V57H108.414V48.52H109.886V50.808L109.646 50.2C109.923 49.6453 110.35 49.2133 110.926 48.904C111.502 48.5947 112.174 48.44 112.942 48.44ZM119.064 57V48.52H120.6V57H119.064ZM119.832 46.888C119.533 46.888 119.283 46.792 119.08 46.6C118.888 46.408 118.792 46.1733 118.792 45.896C118.792 45.608 118.888 45.368 119.08 45.176C119.283 44.984 119.533 44.888 119.832 44.888C120.131 44.888 120.376 44.984 120.568 45.176C120.771 45.3573 120.872 45.5867 120.872 45.864C120.872 46.152 120.776 46.3973 120.584 46.6C120.392 46.792 120.141 46.888 119.832 46.888ZM126.205 57.096C125.352 57.096 124.69 56.8667 124.221 56.408C123.752 55.9493 123.517 55.2933 123.517 54.44V46.664H125.053V54.376C125.053 54.8347 125.165 55.1867 125.389 55.432C125.624 55.6773 125.954 55.8 126.381 55.8C126.861 55.8 127.261 55.6667 127.581 55.4L128.061 56.504C127.826 56.7067 127.544 56.856 127.213 56.952C126.893 57.048 126.557 57.096 126.205 57.096ZM122.077 49.784V48.52H127.485V49.784H122.077ZM133.029 57.096C132.175 57.096 131.418 56.9093 130.757 56.536C130.095 56.1627 129.573 55.6507 129.189 55C128.805 54.3387 128.613 53.592 128.613 52.76C128.613 51.9173 128.805 51.1707 129.189 50.52C129.573 49.8693 130.095 49.3627 130.757 49C131.418 48.6267 132.175 48.44 133.029 48.44C133.871 48.44 134.623 48.6267 135.285 49C135.957 49.3627 136.479 49.8693 136.853 50.52C137.237 51.16 137.429 51.9067 137.429 52.76C137.429 53.6027 137.237 54.3493 136.853 55C136.479 55.6507 135.957 56.1627 135.285 56.536C134.623 56.9093 133.871 57.096 133.029 57.096ZM133.029 55.752C133.573 55.752 134.058 55.6293 134.485 55.384C134.922 55.1387 135.263 54.792 135.509 54.344C135.754 53.8853 135.877 53.3573 135.877 52.76C135.877 52.152 135.754 51.6293 135.509 51.192C135.263 50.744 134.922 50.3973 134.485 50.152C134.058 49.9067 133.573 49.784 133.029 49.784C132.485 49.784 131.999 49.9067 131.573 50.152C131.146 50.3973 130.805 50.744 130.549 51.192C130.293 51.6293 130.165 52.152 130.165 52.76C130.165 53.3573 130.293 53.8853 130.549 54.344C130.805 54.792 131.146 55.1387 131.573 55.384C131.999 55.6293 132.485 55.752 133.029 55.752ZM139.313 57V48.52H140.785V50.824L140.641 50.248C140.876 49.6613 141.27 49.2133 141.825 48.904C142.38 48.5947 143.062 48.44 143.873 48.44V49.928C143.809 49.9173 143.745 49.912 143.681 49.912C143.628 49.912 143.574 49.912 143.521 49.912C142.7 49.912 142.049 50.1573 141.569 50.648C141.089 51.1387 140.849 51.848 140.849 52.776V57H139.313Z" fill="#2F2E41"/>
<defs>
<filter id="filter0_d_93_34" x="0" y="0" width="84" height="84" filterUnits="userSpaceOnUse" color-interpolation-filters="sRGB">
<feFlood flood-opacity="0" result="BackgroundImageFix"/>
<feColorMatrix in="SourceAlpha" type="matrix" values="0 0 0 0 0 0 0 0 0 0 0 0 0 0 0 0 0 0 127 0" result="hardAlpha"/>
<feOffset dy="4"/>
<feGaussianBlur stdDeviation="9"/>
<feComposite in2="hardAlpha" operator="out"/>
<feColorMatrix type="matrix" values="0 0 0 0 0 0 0 0 0 0 0 0 0 0 0 0 0 0 0.25 0"/>
<feBlend mode="normal" in2="BackgroundImageFix" result="effect1_dropShadow_93_34"/>
<feBlend mode="normal" in="SourceGraphic" in2="effect1_dropShadow_93_34" result="shape"/>
</filter>
</defs>
</svg>
