<svg width="939" height="220" viewBox="0 0 939 220" fill="none" xmlns="http://www.w3.org/2000/svg">
<path d="M34.0664 17.2461V26.9229H33.1172C32.5547 24.6904 31.9307 23.0908 31.2451 22.124C30.5596 21.1396 29.6191 20.3574 28.4238 19.7773C27.7559 19.4609 26.5869 19.3027 24.917 19.3027H22.2539V46.8828C22.2539 48.7109 22.3506 49.8535 22.5439 50.3105C22.7549 50.7676 23.1504 51.1719 23.7305 51.5234C24.3281 51.8574 25.1367 52.0244 26.1562 52.0244H27.3428V53H8.62207V52.0244H9.80859C10.8457 52.0244 11.6807 51.8398 12.3135 51.4707C12.7705 51.2246 13.1309 50.8027 13.3945 50.2051C13.5879 49.7832 13.6846 48.6758 13.6846 46.8828V19.3027H11.1006C8.69238 19.3027 6.94336 19.8125 5.85352 20.832C4.32422 22.2559 3.35742 24.2861 2.95312 26.9229H1.95117V17.2461H34.0664ZM47.0992 17.2461V31.5107C48.4527 30.0869 49.692 29.085 50.817 28.5049C51.942 27.9072 53.1109 27.6084 54.3238 27.6084C55.8707 27.6084 57.189 28.0479 58.2789 28.9268C59.3863 29.8057 60.1158 30.8428 60.4673 32.0381C60.8365 33.2158 61.0211 35.2109 61.0211 38.0234V47.6475C61.0211 49.5283 61.1968 50.7061 61.5484 51.1807C61.9 51.6377 62.6119 51.9277 63.6841 52.0508V53H51.1861V52.0508C52.065 51.9277 52.7242 51.5762 53.1636 50.9961C53.48 50.5391 53.6382 49.4229 53.6382 47.6475V36.6523C53.6382 34.6133 53.5591 33.3389 53.4009 32.8291C53.2427 32.3018 52.9703 31.8975 52.5836 31.6162C52.2144 31.3174 51.7925 31.168 51.3179 31.168C50.6148 31.168 49.9293 31.4141 49.2613 31.9062C48.5933 32.3809 47.8726 33.2246 47.0992 34.4375V47.6475C47.0992 49.4053 47.231 50.5039 47.4947 50.9434C47.8287 51.541 48.5142 51.9102 49.5513 52.0508V53H37.0533V52.0508C38.0904 51.9453 38.8287 51.6113 39.2681 51.0488C39.567 50.6621 39.7164 49.5283 39.7164 47.6475V22.5986C39.7164 20.7354 39.5406 19.5752 39.189 19.1182C38.855 18.6611 38.1431 18.3623 37.0533 18.2217V17.2461H47.0992ZM79.881 49.3613C76.8751 52.0156 74.1769 53.3428 71.7862 53.3428C70.38 53.3428 69.2111 52.8857 68.2794 51.9717C67.3478 51.04 66.882 49.8799 66.882 48.4912C66.882 46.6104 67.6905 44.9229 69.3077 43.4287C70.9249 41.917 74.4493 39.9131 79.881 37.417V34.9385C79.881 33.0752 79.7755 31.9062 79.5646 31.4316C79.3712 30.9395 78.9933 30.5176 78.4308 30.166C77.8683 29.7969 77.2355 29.6123 76.5323 29.6123C75.3898 29.6123 74.4493 29.8672 73.7111 30.377C73.254 30.6934 73.0255 31.0625 73.0255 31.4844C73.0255 31.8535 73.2716 32.3105 73.7638 32.8555C74.4318 33.6113 74.7657 34.3408 74.7657 35.0439C74.7657 35.9053 74.4405 36.6436 73.7902 37.2588C73.1573 37.8564 72.3224 38.1553 71.2853 38.1553C70.1778 38.1553 69.2462 37.8213 68.4903 37.1533C67.7521 36.4854 67.3829 35.7031 67.3829 34.8066C67.3829 33.541 67.8839 32.3369 68.8859 31.1943C69.8878 30.0342 71.2853 29.1465 73.0782 28.5312C74.8712 27.916 76.7345 27.6084 78.6681 27.6084C81.006 27.6084 82.8517 28.1094 84.2052 29.1113C85.5763 30.0957 86.464 31.168 86.8683 32.3281C87.1144 33.0664 87.2374 34.7627 87.2374 37.417V46.9883C87.2374 48.1133 87.2814 48.8252 87.3693 49.124C87.4571 49.4053 87.589 49.6162 87.7648 49.7568C87.9405 49.8975 88.1427 49.9678 88.3712 49.9678C88.8282 49.9678 89.2941 49.6426 89.7687 48.9922L90.5597 49.625C89.6808 50.9258 88.7667 51.875 87.8175 52.4727C86.8859 53.0527 85.8224 53.3428 84.6271 53.3428C83.2208 53.3428 82.1222 53.0176 81.3312 52.3672C80.5402 51.6992 80.0568 50.6973 79.881 49.3613ZM79.881 47.4365V39.1836C77.754 40.4316 76.172 41.7676 75.1349 43.1914C74.4493 44.1406 74.1066 45.0986 74.1066 46.0654C74.1066 46.874 74.3966 47.5859 74.9767 48.2012C75.4161 48.6758 76.0314 48.9131 76.8224 48.9131C77.7013 48.9131 78.7208 48.4209 79.881 47.4365ZM102.538 28.3467V31.5371C103.803 30.166 105.016 29.1729 106.176 28.5576C107.337 27.9248 108.585 27.6084 109.921 27.6084C111.52 27.6084 112.847 28.0566 113.902 28.9531C114.957 29.832 115.66 30.9307 116.011 32.249C116.293 33.251 116.433 35.1758 116.433 38.0234V47.6211C116.433 49.5195 116.6 50.7061 116.934 51.1807C117.286 51.6377 118.007 51.9277 119.096 52.0508V53H106.625V52.0508C107.556 51.9277 108.224 51.541 108.629 50.8906C108.91 50.4512 109.05 49.3613 109.05 47.6211V36.6523C109.05 34.6309 108.971 33.3564 108.813 32.8291C108.655 32.3018 108.382 31.8975 107.996 31.6162C107.627 31.3174 107.214 31.168 106.757 31.168C105.245 31.168 103.839 32.249 102.538 34.4111V47.6211C102.538 49.4668 102.705 50.6357 103.039 51.1279C103.39 51.6201 104.032 51.9277 104.964 52.0508V53H92.4919V52.0508C93.529 51.9453 94.2673 51.6113 94.7067 51.0488C95.0055 50.6621 95.155 49.5195 95.155 47.6211V33.6992C95.155 31.8359 94.9792 30.6758 94.6276 30.2188C94.2936 29.7617 93.5817 29.4629 92.4919 29.3223V28.3467H102.538ZM131.734 17.2461V40.7656L137.455 35.1494C138.633 34.0068 139.363 33.1807 139.644 32.6709C139.943 32.1611 140.092 31.6689 140.092 31.1943C140.092 30.7197 139.899 30.3242 139.512 30.0078C139.125 29.6914 138.369 29.4629 137.244 29.3223V28.3467H148.292V29.3223C147.238 29.375 146.315 29.6299 145.524 30.0869C144.733 30.5264 143.186 31.8711 140.883 34.1211L138.194 36.7578L143.994 45.248C146.332 48.6934 147.721 50.627 148.16 51.0488C148.758 51.6465 149.514 51.9805 150.428 52.0508V53H137.693V52.0508C138.255 52.0508 138.659 51.9453 138.906 51.7344C139.169 51.5234 139.301 51.2949 139.301 51.0488C139.301 50.6445 138.932 49.8975 138.194 48.8076L133.316 41.6621L131.734 43.2178V47.6475C131.734 49.5283 131.909 50.7061 132.261 51.1807C132.613 51.6377 133.333 51.9277 134.423 52.0508V53H121.688V52.0508C122.725 51.9453 123.463 51.6113 123.903 51.0488C124.201 50.6621 124.351 49.5283 124.351 47.6475V22.5986C124.351 20.7354 124.175 19.5752 123.823 19.1182C123.489 18.6611 122.778 18.3623 121.688 18.2217V17.2461H131.734ZM198.22 17.2461V18.2217C197.042 18.3799 196.137 18.7227 195.504 19.25C194.625 19.9883 193.237 22.001 191.338 25.2881L183.586 38.2344V46.8828C183.586 48.7285 183.683 49.8799 183.876 50.3369C184.07 50.7764 184.448 51.1719 185.01 51.5234C185.59 51.8574 186.355 52.0244 187.304 52.0244H189.308V53H169.243V52.0244H171.115C172.169 52.0244 173.004 51.8398 173.619 51.4707C174.077 51.2246 174.437 50.8027 174.701 50.2051C174.894 49.7832 174.991 48.6758 174.991 46.8828V39.7109L166.579 24.3916C164.91 21.3682 163.732 19.5928 163.046 19.0654C162.361 18.5205 161.447 18.2393 160.304 18.2217V17.2461H177.443V18.2217H176.678C175.641 18.2217 174.911 18.3711 174.49 18.6699C174.085 18.9687 173.883 19.2852 173.883 19.6191C173.883 20.252 174.586 21.8428 175.993 24.3916L182.452 36.2305L188.886 25.4463C190.486 22.8096 191.286 21.0605 191.286 20.1992C191.286 19.7246 191.057 19.3291 190.6 19.0127C190.002 18.5732 188.904 18.3096 187.304 18.2217V17.2461H198.22ZM205.478 27.6084C207.623 27.6084 209.618 28.1621 211.464 29.2695C213.309 30.377 214.707 31.9502 215.656 33.9893C216.623 36.0283 217.106 38.2607 217.106 40.6865C217.106 44.1846 216.219 47.1113 214.443 49.4668C212.299 52.3145 209.337 53.7383 205.558 53.7383C201.849 53.7383 198.992 52.4375 196.988 49.8359C194.984 47.2344 193.982 44.2197 193.982 40.792C193.982 37.2588 195.002 34.1826 197.041 31.5635C199.098 28.9268 201.91 27.6084 205.478 27.6084ZM205.584 29.4805C204.687 29.4805 203.914 29.8232 203.264 30.5088C202.631 31.1768 202.209 32.5127 201.998 34.5166C201.805 36.5029 201.708 39.2715 201.708 42.8223C201.708 44.7031 201.831 46.4609 202.077 48.0957C202.27 49.3438 202.684 50.293 203.316 50.9434C203.949 51.5938 204.67 51.9189 205.478 51.9189C206.269 51.9189 206.929 51.6992 207.456 51.2598C208.142 50.6621 208.599 49.8271 208.827 48.7549C209.179 47.085 209.354 43.71 209.354 38.6299C209.354 35.6416 209.187 33.5938 208.853 32.4863C208.519 31.3613 208.027 30.5439 207.377 30.0342C206.92 29.665 206.322 29.4805 205.584 29.4805ZM243.85 28.3467V47.6475C243.85 49.5283 244.026 50.7061 244.377 51.1807C244.729 51.6377 245.441 51.9277 246.513 52.0508V53H236.467V49.7041C235.29 51.1104 234.112 52.1387 232.934 52.7891C231.756 53.4219 230.438 53.7383 228.979 53.7383C227.59 53.7383 226.351 53.3164 225.261 52.4727C224.189 51.6113 223.468 50.6094 223.099 49.4668C222.73 48.3242 222.545 46.3291 222.545 43.4814V33.6992C222.545 31.8359 222.37 30.6758 222.018 30.2188C221.684 29.7617 220.972 29.4629 219.882 29.3223V28.3467H229.928V45.1953C229.928 46.9531 230.007 48.0869 230.166 48.5967C230.341 49.1064 230.605 49.4932 230.957 49.7568C231.326 50.0205 231.748 50.1523 232.222 50.1523C232.855 50.1523 233.426 49.9854 233.936 49.6514C234.639 49.1943 235.483 48.2715 236.467 46.8828V33.6992C236.467 31.8359 236.291 30.6758 235.94 30.2188C235.606 29.7617 234.894 29.4629 233.804 29.3223V28.3467H243.85ZM269.757 41.3721H268.597C268.474 39.3682 268.07 36.9424 267.384 34.0947L266.013 28.3467C265.187 24.9014 264.774 22.4316 264.774 20.9375C264.774 19.584 265.178 18.4941 265.987 17.668C266.796 16.8418 267.85 16.4287 269.151 16.4287C270.417 16.4287 271.462 16.8506 272.289 17.6943C273.132 18.5205 273.554 19.5752 273.554 20.8584C273.554 22.1943 273.115 24.6904 272.236 28.3467L270.838 34.0947C270.346 36.1338 269.986 38.5596 269.757 41.3721ZM269.204 45.1426C270.381 45.1426 271.383 45.5645 272.21 46.4082C273.053 47.2344 273.475 48.2451 273.475 49.4404C273.475 50.6182 273.053 51.6289 272.21 52.4727C271.383 53.2988 270.381 53.7119 269.204 53.7119C268.026 53.7119 267.015 53.2988 266.171 52.4727C265.345 51.6289 264.932 50.6182 264.932 49.4404C264.932 48.2627 265.345 47.252 266.171 46.4082C266.998 45.5645 268.008 45.1426 269.204 45.1426ZM286.93 41.3721H285.77C285.647 39.3682 285.242 36.9424 284.557 34.0947L283.186 28.3467C282.36 24.9014 281.946 22.4316 281.946 20.9375C281.946 19.584 282.351 18.4941 283.159 17.668C283.968 16.8418 285.023 16.4287 286.323 16.4287C287.589 16.4287 288.635 16.8506 289.461 17.6943C290.305 18.5205 290.727 19.5752 290.727 20.8584C290.727 22.1943 290.287 24.6904 289.408 28.3467L288.011 34.0947C287.519 36.1338 287.158 38.5596 286.93 41.3721ZM286.376 45.1426C287.554 45.1426 288.556 45.5645 289.382 46.4082C290.226 47.2344 290.648 48.2451 290.648 49.4404C290.648 50.6182 290.226 51.6289 289.382 52.4727C288.556 53.2988 287.554 53.7119 286.376 53.7119C285.198 53.7119 284.188 53.2988 283.344 52.4727C282.518 51.6289 282.105 50.6182 282.105 49.4404C282.105 48.2627 282.518 47.252 283.344 46.4082C284.17 45.5645 285.181 45.1426 286.376 45.1426ZM38.3906 88.2461V89.2217C37.2129 89.3799 36.3076 89.7227 35.6748 90.25C34.7959 90.9883 33.4072 93.001 31.5088 96.2881L23.7568 109.234V117.883C23.7568 119.729 23.8535 120.88 24.0469 121.337C24.2402 121.776 24.6182 122.172 25.1807 122.523C25.7607 122.857 26.5254 123.024 27.4746 123.024H29.4785V124H9.41309V123.024H11.2852C12.3398 123.024 13.1748 122.84 13.79 122.471C14.2471 122.225 14.6074 121.803 14.8711 121.205C15.0645 120.783 15.1611 119.676 15.1611 117.883V110.711L6.75 95.3916C5.08008 92.3682 3.90234 90.5928 3.2168 90.0654C2.53125 89.5205 1.61719 89.2393 0.474609 89.2217V88.2461H17.6133V89.2217H16.8486C15.8115 89.2217 15.082 89.3711 14.6602 89.6699C14.2559 89.9688 14.0537 90.2852 14.0537 90.6191C14.0537 91.252 14.7568 92.8428 16.1631 95.3916L22.623 107.23L29.0566 96.4463C30.6563 93.8096 31.4561 92.0605 31.4561 91.1992C31.4561 90.7246 31.2275 90.3291 30.7705 90.0127C30.1729 89.5732 29.0742 89.3096 27.4746 89.2217V88.2461H38.3906ZM45.649 98.6084C47.7935 98.6084 49.7886 99.1621 51.6343 100.27C53.48 101.377 54.8775 102.95 55.8267 104.989C56.7935 107.028 57.2769 109.261 57.2769 111.687C57.2769 115.185 56.3892 118.111 54.6138 120.467C52.4693 123.314 49.5074 124.738 45.7281 124.738C42.0191 124.738 39.1627 123.438 37.1587 120.836C35.1548 118.234 34.1529 115.22 34.1529 111.792C34.1529 108.259 35.1724 105.183 37.2115 102.563C39.2681 99.9268 42.0806 98.6084 45.649 98.6084ZM45.7545 100.48C44.858 100.48 44.0845 100.823 43.4341 101.509C42.8013 102.177 42.3795 103.513 42.1685 105.517C41.9752 107.503 41.8785 110.271 41.8785 113.822C41.8785 115.703 42.0015 117.461 42.2476 119.096C42.441 120.344 42.8541 121.293 43.4869 121.943C44.1197 122.594 44.8404 122.919 45.649 122.919C46.44 122.919 47.0992 122.699 47.6265 122.26C48.3121 121.662 48.7691 120.827 48.9976 119.755C49.3492 118.085 49.525 114.71 49.525 109.63C49.525 106.642 49.358 104.594 49.024 103.486C48.69 102.361 48.1978 101.544 47.5474 101.034C47.0904 100.665 46.4927 100.48 45.7545 100.48ZM84.0206 99.3467V118.647C84.0206 120.528 84.1964 121.706 84.548 122.181C84.8995 122.638 85.6114 122.928 86.6837 123.051V124H76.6378V120.704C75.4601 122.11 74.2823 123.139 73.1046 123.789C71.9269 124.422 70.6085 124.738 69.1495 124.738C67.7609 124.738 66.5216 124.316 65.4318 123.473C64.3595 122.611 63.6388 121.609 63.2696 120.467C62.9005 119.324 62.7159 117.329 62.7159 114.481V104.699C62.7159 102.836 62.5402 101.676 62.1886 101.219C61.8546 100.762 61.1427 100.463 60.0529 100.322V99.3467H70.0988V116.195C70.0988 117.953 70.1779 119.087 70.3361 119.597C70.5118 120.106 70.7755 120.493 71.1271 120.757C71.4962 121.021 71.9181 121.152 72.3927 121.152C73.0255 121.152 73.5968 120.985 74.1066 120.651C74.8097 120.194 75.6534 119.271 76.6378 117.883V104.699C76.6378 102.836 76.462 101.676 76.1105 101.219C75.7765 100.762 75.0646 100.463 73.9747 100.322V99.3467H84.0206ZM112.38 99.3467V102.59C113.734 101.113 114.982 100.085 116.124 99.5049C117.284 98.9072 118.55 98.6084 119.921 98.6084C121.503 98.6084 122.83 98.9775 123.903 99.7158C124.975 100.454 125.801 101.579 126.381 103.091C127.787 101.509 129.132 100.366 130.415 99.6631C131.716 98.96 133.07 98.6084 134.476 98.6084C136.181 98.6084 137.534 99.0039 138.536 99.7949C139.556 100.568 140.259 101.562 140.646 102.774C141.05 103.97 141.252 105.886 141.252 108.522V118.621C141.252 120.52 141.419 121.697 141.753 122.154C142.105 122.611 142.825 122.91 143.915 123.051V124H131.18V123.051C132.182 122.963 132.92 122.576 133.395 121.891C133.711 121.416 133.869 120.326 133.869 118.621V108.021C133.869 105.824 133.781 104.427 133.606 103.829C133.43 103.231 133.149 102.792 132.762 102.511C132.393 102.212 131.953 102.062 131.444 102.062C130.688 102.062 129.923 102.344 129.15 102.906C128.376 103.451 127.594 104.277 126.803 105.385V118.621C126.803 120.396 126.952 121.513 127.251 121.97C127.656 122.62 128.429 122.98 129.572 123.051V124H116.81V123.051C117.495 123.016 118.031 122.849 118.418 122.55C118.823 122.233 119.086 121.864 119.209 121.442C119.35 121.003 119.42 120.062 119.42 118.621V108.021C119.42 105.789 119.332 104.392 119.156 103.829C118.981 103.267 118.682 102.827 118.26 102.511C117.856 102.194 117.416 102.036 116.942 102.036C116.239 102.036 115.597 102.221 115.017 102.59C114.191 103.135 113.312 104.066 112.38 105.385V118.621C112.38 120.361 112.547 121.513 112.881 122.075C113.233 122.62 113.953 122.945 115.043 123.051V124H102.334V123.051C103.371 122.945 104.11 122.611 104.549 122.049C104.848 121.662 104.997 120.52 104.997 118.621V104.699C104.997 102.836 104.822 101.676 104.47 101.219C104.136 100.762 103.424 100.463 102.334 100.322V99.3467H112.38ZM159.928 120.361C156.922 123.016 154.223 124.343 151.833 124.343C150.427 124.343 149.258 123.886 148.326 122.972C147.394 122.04 146.929 120.88 146.929 119.491C146.929 117.61 147.737 115.923 149.354 114.429C150.971 112.917 154.496 110.913 159.928 108.417V105.938C159.928 104.075 159.822 102.906 159.611 102.432C159.418 101.939 159.04 101.518 158.477 101.166C157.915 100.797 157.282 100.612 156.579 100.612C155.436 100.612 154.496 100.867 153.758 101.377C153.301 101.693 153.072 102.062 153.072 102.484C153.072 102.854 153.318 103.311 153.81 103.855C154.478 104.611 154.812 105.341 154.812 106.044C154.812 106.905 154.487 107.644 153.837 108.259C153.204 108.856 152.369 109.155 151.332 109.155C150.224 109.155 149.293 108.821 148.537 108.153C147.799 107.485 147.429 106.703 147.429 105.807C147.429 104.541 147.93 103.337 148.932 102.194C149.934 101.034 151.332 100.146 153.125 99.5312C154.918 98.916 156.781 98.6084 158.715 98.6084C161.053 98.6084 162.898 99.1094 164.252 100.111C165.623 101.096 166.511 102.168 166.915 103.328C167.161 104.066 167.284 105.763 167.284 108.417V117.988C167.284 119.113 167.328 119.825 167.416 120.124C167.504 120.405 167.636 120.616 167.811 120.757C167.987 120.897 168.189 120.968 168.418 120.968C168.875 120.968 169.341 120.643 169.815 119.992L170.606 120.625C169.727 121.926 168.813 122.875 167.864 123.473C166.932 124.053 165.869 124.343 164.674 124.343C163.267 124.343 162.169 124.018 161.378 123.367C160.587 122.699 160.103 121.697 159.928 120.361ZM159.928 118.437V110.184C157.801 111.432 156.219 112.768 155.181 114.191C154.496 115.141 154.153 116.099 154.153 117.065C154.153 117.874 154.443 118.586 155.023 119.201C155.463 119.676 156.078 119.913 156.869 119.913C157.748 119.913 158.767 119.421 159.928 118.437ZM183.824 125.002L175.861 106.729C174.665 103.97 173.778 102.273 173.198 101.641C172.635 101.008 171.95 100.568 171.141 100.322V99.3467H184.245V100.322C183.384 100.357 182.778 100.524 182.426 100.823C182.075 101.122 181.899 101.482 181.899 101.904C181.899 102.572 182.338 103.891 183.217 105.859L187.436 115.51L190.31 108.048C191.347 105.394 191.866 103.548 191.866 102.511C191.866 101.86 191.646 101.342 191.206 100.955C190.785 100.568 190.029 100.357 188.939 100.322V99.3467H197.192V100.322C196.383 100.41 195.724 100.727 195.214 101.271C194.704 101.799 193.852 103.618 192.657 106.729L185.617 125.002C183.841 129.572 182.523 132.385 181.661 133.439C180.449 134.916 178.928 135.654 177.1 135.654C175.641 135.654 174.454 135.232 173.54 134.389C172.644 133.562 172.196 132.561 172.196 131.383C172.196 130.363 172.503 129.52 173.119 128.852C173.751 128.184 174.525 127.85 175.439 127.85C176.318 127.85 177.021 128.131 177.548 128.693C178.093 129.256 178.374 130.126 178.392 131.304C178.41 131.972 178.489 132.402 178.629 132.596C178.77 132.789 178.972 132.886 179.236 132.886C179.658 132.886 180.106 132.631 180.58 132.121C181.284 131.383 182.11 129.695 183.059 127.059L183.824 125.002ZM221.464 99.3467V102.537C222.73 101.166 223.943 100.173 225.103 99.5576C226.263 98.9248 227.511 98.6084 228.847 98.6084C230.447 98.6084 231.774 99.0566 232.829 99.9531C233.883 100.832 234.586 101.931 234.938 103.249C235.219 104.251 235.36 106.176 235.36 109.023V118.621C235.36 120.52 235.527 121.706 235.861 122.181C236.212 122.638 236.933 122.928 238.023 123.051V124H225.551V123.051C226.483 122.928 227.151 122.541 227.555 121.891C227.836 121.451 227.977 120.361 227.977 118.621V107.652C227.977 105.631 227.898 104.356 227.74 103.829C227.582 103.302 227.309 102.897 226.922 102.616C226.553 102.317 226.14 102.168 225.683 102.168C224.171 102.168 222.765 103.249 221.464 105.411V118.621C221.464 120.467 221.631 121.636 221.965 122.128C222.317 122.62 222.958 122.928 223.89 123.051V124H211.418V123.051C212.456 122.945 213.194 122.611 213.633 122.049C213.932 121.662 214.082 120.52 214.082 118.621V104.699C214.082 102.836 213.906 101.676 213.554 101.219C213.22 100.762 212.508 100.463 211.418 100.322V99.3467H221.464ZM252.269 98.6084C254.413 98.6084 256.408 99.1621 258.254 100.27C260.1 101.377 261.497 102.95 262.446 104.989C263.413 107.028 263.897 109.261 263.897 111.687C263.897 115.185 263.009 118.111 261.233 120.467C259.089 123.314 256.127 124.738 252.348 124.738C248.639 124.738 245.782 123.438 243.778 120.836C241.774 118.234 240.773 115.22 240.773 111.792C240.773 108.259 241.792 105.183 243.831 102.563C245.888 99.9268 248.7 98.6084 252.269 98.6084ZM252.374 100.48C251.478 100.48 250.704 100.823 250.054 101.509C249.421 102.177 248.999 103.513 248.788 105.517C248.595 107.503 248.498 110.271 248.498 113.822C248.498 115.703 248.621 117.461 248.867 119.096C249.061 120.344 249.474 121.293 250.106 121.943C250.739 122.594 251.46 122.919 252.269 122.919C253.06 122.919 253.719 122.699 254.246 122.26C254.932 121.662 255.389 120.827 255.617 119.755C255.969 118.085 256.145 114.71 256.145 109.63C256.145 106.642 255.978 104.594 255.644 103.486C255.31 102.361 254.817 101.544 254.167 101.034C253.71 100.665 253.112 100.48 252.374 100.48ZM291.273 124.738L284.523 106.65L277.905 124.738H276.534L269.968 106.861C268.984 104.137 268.149 102.361 267.463 101.535C267.024 100.973 266.356 100.568 265.46 100.322V99.3467H277.905V100.322C277.061 100.322 276.481 100.445 276.165 100.691C275.848 100.938 275.69 101.219 275.69 101.535C275.69 101.834 275.971 102.73 276.534 104.225L280.146 113.849L283.627 104.225L283.363 103.592C282.836 102.273 282.37 101.438 281.965 101.087C281.579 100.718 280.972 100.463 280.146 100.322V99.3467H292.776V100.322C291.792 100.375 291.168 100.516 290.904 100.744C290.64 100.955 290.508 101.263 290.508 101.667C290.508 102.054 290.763 102.906 291.273 104.225L294.754 113.849L297.918 104.989C298.375 103.724 298.603 102.862 298.603 102.405C298.603 101.72 298.436 101.219 298.102 100.902C297.768 100.586 297.118 100.393 296.151 100.322V99.3467H303.455V100.322C302.646 100.428 302.004 100.718 301.53 101.192C301.055 101.649 300.44 102.968 299.684 105.147L292.776 124.738H291.273ZM338.617 110.79H325.091C325.249 114.06 326.119 116.644 327.701 118.542C328.914 120.001 330.373 120.73 332.078 120.73C333.133 120.73 334.091 120.44 334.952 119.86C335.813 119.263 336.736 118.199 337.72 116.67L338.617 117.25C337.281 119.975 335.804 121.908 334.187 123.051C332.57 124.176 330.698 124.738 328.571 124.738C324.915 124.738 322.146 123.332 320.265 120.52C318.754 118.252 317.998 115.439 317.998 112.082C317.998 107.969 319.105 104.699 321.32 102.273C323.552 99.8301 326.163 98.6084 329.151 98.6084C331.647 98.6084 333.809 99.6367 335.637 101.693C337.483 103.732 338.476 106.765 338.617 110.79ZM332.131 109.023C332.131 106.193 331.972 104.251 331.656 103.196C331.357 102.142 330.883 101.342 330.232 100.797C329.863 100.48 329.371 100.322 328.756 100.322C327.842 100.322 327.094 100.771 326.514 101.667C325.477 103.231 324.959 105.376 324.959 108.101V109.023H332.131ZM350.991 99.3467V102.537C352.256 101.166 353.469 100.173 354.629 99.5576C355.789 98.9248 357.037 98.6084 358.373 98.6084C359.973 98.6084 361.3 99.0566 362.355 99.9531C363.409 100.832 364.113 101.931 364.464 103.249C364.745 104.251 364.886 106.176 364.886 109.023V118.621C364.886 120.52 365.053 121.706 365.387 122.181C365.739 122.638 366.459 122.928 367.549 123.051V124H355.077V123.051C356.009 122.928 356.677 122.541 357.081 121.891C357.363 121.451 357.503 120.361 357.503 118.621V107.652C357.503 105.631 357.424 104.356 357.266 103.829C357.108 103.302 356.835 102.897 356.449 102.616C356.079 102.317 355.666 102.168 355.209 102.168C353.698 102.168 352.291 103.249 350.991 105.411V118.621C350.991 120.467 351.158 121.636 351.491 122.128C351.843 122.62 352.485 122.928 353.416 123.051V124H340.945V123.051C341.982 122.945 342.72 122.611 343.159 122.049C343.458 121.662 343.608 120.52 343.608 118.621V104.699C343.608 102.836 343.432 101.676 343.08 101.219C342.746 100.762 342.034 100.463 340.945 100.322V99.3467H350.991ZM377.734 87.4287C378.859 87.4287 379.808 87.8242 380.582 88.6152C381.373 89.3887 381.768 90.3291 381.768 91.4365C381.768 92.5615 381.373 93.5195 380.582 94.3105C379.791 95.1016 378.842 95.4971 377.734 95.4971C376.627 95.4971 375.678 95.1016 374.887 94.3105C374.096 93.5195 373.7 92.5615 373.7 91.4365C373.7 90.3291 374.087 89.3887 374.86 88.6152C375.651 87.8242 376.609 87.4287 377.734 87.4287ZM381.426 99.3467V124.87C381.426 127.261 381.276 129.027 380.977 130.17C380.538 131.822 379.659 133.149 378.341 134.151C377.04 135.153 375.317 135.654 373.173 135.654C371.011 135.654 369.411 135.215 368.374 134.336C367.354 133.457 366.845 132.394 366.845 131.146C366.845 130.372 367.117 129.695 367.662 129.115C368.189 128.553 368.813 128.271 369.534 128.271C370.202 128.271 370.729 128.465 371.116 128.852C371.503 129.256 371.696 129.854 371.696 130.645C371.696 130.855 371.687 131.102 371.67 131.383C371.635 131.752 371.617 132.007 371.617 132.147C371.617 132.763 371.758 133.22 372.039 133.519C372.32 133.817 372.681 133.967 373.12 133.967C373.524 133.967 373.867 133.791 374.148 133.439C374.447 133.088 374.597 132.587 374.597 131.937C374.597 131.585 374.544 130.873 374.438 129.801C374.263 127.85 374.166 126.672 374.148 126.268L374.069 120.019V104.778L374.096 103.407C374.096 102.3 373.902 101.544 373.515 101.14C373.146 100.718 372.355 100.445 371.142 100.322V99.3467H381.426ZM398.967 98.6084C401.112 98.6084 403.107 99.1621 404.953 100.27C406.798 101.377 408.196 102.95 409.145 104.989C410.112 107.028 410.595 109.261 410.595 111.687C410.595 115.185 409.707 118.111 407.932 120.467C405.788 123.314 402.826 124.738 399.046 124.738C395.337 124.738 392.481 123.438 390.477 120.836C388.473 118.234 387.471 115.22 387.471 111.792C387.471 108.259 388.491 105.183 390.53 102.563C392.586 99.9268 395.399 98.6084 398.967 98.6084ZM399.073 100.48C398.176 100.48 397.403 100.823 396.752 101.509C396.12 102.177 395.698 103.513 395.487 105.517C395.293 107.503 395.197 110.271 395.197 113.822C395.197 115.703 395.32 117.461 395.566 119.096C395.759 120.344 396.172 121.293 396.805 121.943C397.438 122.594 398.159 122.919 398.967 122.919C399.758 122.919 400.417 122.699 400.945 122.26C401.63 121.662 402.087 120.827 402.316 119.755C402.667 118.085 402.843 114.71 402.843 109.63C402.843 106.642 402.676 104.594 402.342 103.486C402.008 102.361 401.516 101.544 400.866 101.034C400.409 100.665 399.811 100.48 399.073 100.48ZM424.841 125.002L416.878 106.729C415.683 103.97 414.795 102.273 414.215 101.641C413.652 101.008 412.967 100.568 412.158 100.322V99.3467H425.263V100.322C424.401 100.357 423.795 100.524 423.443 100.823C423.092 101.122 422.916 101.482 422.916 101.904C422.916 102.572 423.355 103.891 424.234 105.859L428.453 115.51L431.327 108.048C432.364 105.394 432.883 103.548 432.883 102.511C432.883 101.86 432.663 101.342 432.224 100.955C431.802 100.568 431.046 100.357 429.956 100.322V99.3467H438.209V100.322C437.4 100.41 436.741 100.727 436.231 101.271C435.722 101.799 434.869 103.618 433.674 106.729L426.634 125.002C424.858 129.572 423.54 132.385 422.679 133.439C421.466 134.916 419.945 135.654 418.117 135.654C416.658 135.654 415.472 135.232 414.558 134.389C413.661 133.562 413.213 132.561 413.213 131.383C413.213 130.363 413.52 129.52 414.136 128.852C414.769 128.184 415.542 127.85 416.456 127.85C417.335 127.85 418.038 128.131 418.565 128.693C419.11 129.256 419.392 130.126 419.409 131.304C419.427 131.972 419.506 132.402 419.646 132.596C419.787 132.789 419.989 132.886 420.253 132.886C420.675 132.886 421.123 132.631 421.598 132.121C422.301 131.383 423.127 129.695 424.076 127.059L424.841 125.002ZM13.1309 195.002L5.16797 176.729C3.97266 173.97 3.08496 172.273 2.50488 171.641C1.94238 171.008 1.25684 170.568 0.448242 170.322V169.347H13.5527V170.322C12.6914 170.357 12.085 170.524 11.7334 170.823C11.3818 171.122 11.2061 171.482 11.2061 171.904C11.2061 172.572 11.6455 173.891 12.5244 175.859L16.7432 185.51L19.6172 178.048C20.6543 175.394 21.1729 173.548 21.1729 172.511C21.1729 171.86 20.9531 171.342 20.5137 170.955C20.0918 170.568 19.3359 170.357 18.2461 170.322V169.347H26.499V170.322C25.6904 170.41 25.0312 170.727 24.5215 171.271C24.0117 171.799 23.1592 173.618 21.9639 176.729L14.9238 195.002C13.1484 199.572 11.8301 202.385 10.9688 203.439C9.75586 204.916 8.23535 205.654 6.40723 205.654C4.94824 205.654 3.76172 205.232 2.84766 204.389C1.95117 203.562 1.50293 202.561 1.50293 201.383C1.50293 200.363 1.81055 199.52 2.42578 198.852C3.05859 198.184 3.83203 197.85 4.74609 197.85C5.625 197.85 6.32812 198.131 6.85547 198.693C7.40039 199.256 7.68164 200.126 7.69922 201.304C7.7168 201.972 7.7959 202.402 7.93652 202.596C8.07715 202.789 8.2793 202.886 8.54297 202.886C8.96484 202.886 9.41309 202.631 9.8877 202.121C10.5908 201.383 11.417 199.695 12.3662 197.059L13.1309 195.002ZM39.6373 168.608C41.7818 168.608 43.7769 169.162 45.6226 170.27C47.4683 171.377 48.8658 172.95 49.815 174.989C50.7818 177.028 51.2652 179.261 51.2652 181.687C51.2652 185.185 50.3775 188.111 48.6021 190.467C46.4576 193.314 43.4957 194.738 39.7164 194.738C36.0074 194.738 33.1509 193.438 31.147 190.836C29.1431 188.234 28.1412 185.22 28.1412 181.792C28.1412 178.259 29.1607 175.183 31.1998 172.563C33.2564 169.927 36.0689 168.608 39.6373 168.608ZM39.7427 170.48C38.8463 170.48 38.0728 170.823 37.4224 171.509C36.7896 172.177 36.3677 173.513 36.1568 175.517C35.9634 177.503 35.8668 180.271 35.8668 183.822C35.8668 185.703 35.9898 187.461 36.2359 189.096C36.4293 190.344 36.8423 191.293 37.4752 191.943C38.108 192.594 38.8287 192.919 39.6373 192.919C40.4283 192.919 41.0875 192.699 41.6148 192.26C42.3004 191.662 42.7574 190.827 42.9859 189.755C43.3375 188.085 43.5132 184.71 43.5132 179.63C43.5132 176.642 43.3463 174.594 43.0123 173.486C42.6783 172.361 42.1861 171.544 41.5357 171.034C41.0787 170.665 40.481 170.48 39.7427 170.48ZM78.0089 169.347V188.647C78.0089 190.528 78.1847 191.706 78.5363 192.181C78.8878 192.638 79.5997 192.928 80.672 193.051V194H70.6261V190.704C69.4484 192.11 68.2706 193.139 67.0929 193.789C65.9152 194.422 64.5968 194.738 63.1378 194.738C61.7491 194.738 60.5099 194.316 59.42 193.473C58.3478 192.611 57.6271 191.609 57.2579 190.467C56.8888 189.324 56.7042 187.329 56.7042 184.481V174.699C56.7042 172.836 56.5284 171.676 56.1769 171.219C55.8429 170.762 55.131 170.463 54.0411 170.322V169.347H64.087V186.195C64.087 187.953 64.1661 189.087 64.3243 189.597C64.5001 190.106 64.7638 190.493 65.1154 190.757C65.4845 191.021 65.9064 191.152 66.381 191.152C67.0138 191.152 67.5851 190.985 68.0948 190.651C68.798 190.194 69.6417 189.271 70.6261 187.883V174.699C70.6261 172.836 70.4503 171.676 70.0988 171.219C69.7648 170.762 69.0529 170.463 67.963 170.322V169.347H78.0089ZM93.6784 169.347V174.937C95.3132 172.388 96.7458 170.7 97.9762 169.874C99.2067 169.03 100.393 168.608 101.536 168.608C102.52 168.608 103.302 168.916 103.882 169.531C104.48 170.129 104.779 170.981 104.779 172.089C104.779 173.267 104.489 174.181 103.909 174.831C103.346 175.481 102.661 175.807 101.852 175.807C100.921 175.807 100.112 175.508 99.4264 174.91C98.7409 174.312 98.3366 173.979 98.2136 173.908C98.0378 173.803 97.8356 173.75 97.6071 173.75C97.0973 173.75 96.6139 173.943 96.1569 174.33C95.4362 174.928 94.8913 175.78 94.5221 176.888C93.9596 178.593 93.6784 180.474 93.6784 182.53V188.199L93.7048 189.676C93.7048 190.678 93.7663 191.319 93.8893 191.601C94.1003 192.075 94.4079 192.427 94.8122 192.655C95.2341 192.866 95.9372 192.998 96.9216 193.051V194H83.6061V193.051C84.6784 192.963 85.3991 192.673 85.7682 192.181C86.155 191.671 86.3483 190.344 86.3483 188.199V174.567C86.3483 173.161 86.278 172.265 86.1374 171.878C85.9616 171.386 85.7067 171.025 85.3727 170.797C85.0387 170.568 84.4499 170.41 83.6061 170.322V169.347H93.6784ZM128.102 160.329V169.347H133.956V171.957H128.102V187.171C128.102 188.595 128.164 189.518 128.287 189.939C128.428 190.344 128.665 190.678 128.999 190.941C129.333 191.188 129.64 191.311 129.922 191.311C131.064 191.311 132.145 190.44 133.165 188.7L133.956 189.28C132.532 192.655 130.221 194.343 127.021 194.343C125.457 194.343 124.13 193.912 123.04 193.051C121.968 192.172 121.282 191.196 120.983 190.124C120.807 189.526 120.72 187.909 120.72 185.272V171.957H117.503V171.034C119.718 169.47 121.598 167.826 123.145 166.104C124.71 164.381 126.072 162.456 127.232 160.329H128.102ZM141.425 157.402C142.568 157.402 143.535 157.807 144.326 158.615C145.117 159.406 145.512 160.364 145.512 161.489C145.512 162.614 145.108 163.572 144.299 164.363C143.508 165.154 142.55 165.55 141.425 165.55C140.3 165.55 139.342 165.154 138.551 164.363C137.76 163.572 137.365 162.614 137.365 161.489C137.365 160.364 137.76 159.406 138.551 158.615C139.342 157.807 140.3 157.402 141.425 157.402ZM145.117 169.347V188.885C145.117 190.625 145.319 191.741 145.723 192.233C146.127 192.708 146.918 192.98 148.096 193.051V194H134.781V193.051C135.87 193.016 136.679 192.699 137.206 192.102C137.558 191.697 137.734 190.625 137.734 188.885V174.488C137.734 172.748 137.532 171.641 137.127 171.166C136.723 170.674 135.941 170.393 134.781 170.322V169.347H145.117ZM159.942 169.347V172.59C161.296 171.113 162.544 170.085 163.686 169.505C164.847 168.907 166.112 168.608 167.483 168.608C169.065 168.608 170.393 168.978 171.465 169.716C172.537 170.454 173.363 171.579 173.943 173.091C175.35 171.509 176.694 170.366 177.977 169.663C179.278 168.96 180.632 168.608 182.038 168.608C183.743 168.608 185.097 169.004 186.099 169.795C187.118 170.568 187.821 171.562 188.208 172.774C188.612 173.97 188.814 175.886 188.814 178.522V188.621C188.814 190.52 188.981 191.697 189.315 192.154C189.667 192.611 190.388 192.91 191.477 193.051V194H178.742V193.051C179.744 192.963 180.482 192.576 180.957 191.891C181.273 191.416 181.432 190.326 181.432 188.621V178.021C181.432 175.824 181.344 174.427 181.168 173.829C180.992 173.231 180.711 172.792 180.324 172.511C179.955 172.212 179.516 172.062 179.006 172.062C178.25 172.062 177.485 172.344 176.712 172.906C175.938 173.451 175.156 174.277 174.365 175.385V188.621C174.365 190.396 174.515 191.513 174.813 191.97C175.218 192.62 175.991 192.98 177.134 193.051V194H164.372V193.051C165.058 193.016 165.594 192.849 165.98 192.55C166.385 192.233 166.648 191.864 166.771 191.442C166.912 191.003 166.982 190.062 166.982 188.621V178.021C166.982 175.789 166.894 174.392 166.719 173.829C166.543 173.267 166.244 172.827 165.822 172.511C165.418 172.194 164.978 172.036 164.504 172.036C163.801 172.036 163.159 172.221 162.579 172.59C161.753 173.135 160.874 174.066 159.942 175.385V188.621C159.942 190.361 160.109 191.513 160.443 192.075C160.795 192.62 161.516 192.945 162.605 193.051V194H149.896V193.051C150.934 192.945 151.672 192.611 152.111 192.049C152.41 191.662 152.559 190.52 152.559 188.621V174.699C152.559 172.836 152.384 171.676 152.032 171.219C151.698 170.762 150.986 170.463 149.896 170.322V169.347H159.942ZM214.767 180.79H201.241C201.399 184.06 202.269 186.644 203.851 188.542C205.064 190.001 206.523 190.73 208.228 190.73C209.283 190.73 210.241 190.44 211.102 189.86C211.963 189.263 212.886 188.199 213.871 186.67L214.767 187.25C213.431 189.975 211.955 191.908 210.337 193.051C208.72 194.176 206.848 194.738 204.721 194.738C201.065 194.738 198.296 193.332 196.416 190.52C194.904 188.252 194.148 185.439 194.148 182.082C194.148 177.969 195.255 174.699 197.47 172.273C199.703 169.83 202.313 168.608 205.301 168.608C207.797 168.608 209.959 169.637 211.788 171.693C213.633 173.732 214.626 176.765 214.767 180.79ZM208.281 179.023C208.281 176.193 208.123 174.251 207.806 173.196C207.507 172.142 207.033 171.342 206.382 170.797C206.013 170.48 205.521 170.322 204.906 170.322C203.992 170.322 203.245 170.771 202.665 171.667C201.627 173.231 201.109 175.376 201.109 178.101V179.023H208.281ZM254.201 194.738L247.451 176.65L240.833 194.738H239.462L232.896 176.861C231.912 174.137 231.077 172.361 230.391 171.535C229.952 170.973 229.284 170.568 228.387 170.322V169.347H240.833V170.322C239.989 170.322 239.409 170.445 239.092 170.691C238.776 170.938 238.618 171.219 238.618 171.535C238.618 171.834 238.899 172.73 239.462 174.225L243.074 183.849L246.554 174.225L246.291 173.592C245.763 172.273 245.297 171.438 244.893 171.087C244.506 170.718 243.9 170.463 243.074 170.322V169.347H255.704V170.322C254.719 170.375 254.095 170.516 253.832 170.744C253.568 170.955 253.436 171.263 253.436 171.667C253.436 172.054 253.691 172.906 254.201 174.225L257.681 183.849L260.845 174.989C261.302 173.724 261.531 172.862 261.531 172.405C261.531 171.72 261.364 171.219 261.03 170.902C260.696 170.586 260.046 170.393 259.079 170.322V169.347H266.382V170.322C265.574 170.428 264.932 170.718 264.458 171.192C263.983 171.649 263.368 172.968 262.612 175.147L255.704 194.738H254.201ZM273.904 157.402C275.047 157.402 276.014 157.807 276.805 158.615C277.596 159.406 277.991 160.364 277.991 161.489C277.991 162.614 277.587 163.572 276.778 164.363C275.987 165.154 275.029 165.55 273.904 165.55C272.779 165.55 271.821 165.154 271.03 164.363C270.239 163.572 269.844 162.614 269.844 161.489C269.844 160.364 270.239 159.406 271.03 158.615C271.821 157.807 272.779 157.402 273.904 157.402ZM277.596 169.347V188.885C277.596 190.625 277.798 191.741 278.202 192.233C278.607 192.708 279.398 192.98 280.575 193.051V194H267.26V193.051C268.35 193.016 269.158 192.699 269.686 192.102C270.037 191.697 270.213 190.625 270.213 188.885V174.488C270.213 172.748 270.011 171.641 269.607 171.166C269.202 170.674 268.42 170.393 267.26 170.322V169.347H277.596ZM291.973 160.329V169.347H297.827V171.957H291.973V187.171C291.973 188.595 292.035 189.518 292.158 189.939C292.299 190.344 292.536 190.678 292.87 190.941C293.204 191.188 293.511 191.311 293.793 191.311C294.935 191.311 296.016 190.44 297.036 188.7L297.827 189.28C296.403 192.655 294.092 194.343 290.892 194.343C289.328 194.343 288.001 193.912 286.911 193.051C285.839 192.172 285.153 191.196 284.854 190.124C284.678 189.526 284.591 187.909 284.591 185.272V171.957H281.374V171.034C283.589 169.47 285.469 167.826 287.016 166.104C288.581 164.381 289.943 162.456 291.103 160.329H291.973ZM309.436 158.246V172.511C310.789 171.087 312.029 170.085 313.154 169.505C314.279 168.907 315.448 168.608 316.66 168.608C318.207 168.608 319.526 169.048 320.616 169.927C321.723 170.806 322.452 171.843 322.804 173.038C323.173 174.216 323.358 176.211 323.358 179.023V188.647C323.358 190.528 323.533 191.706 323.885 192.181C324.237 192.638 324.949 192.928 326.021 193.051V194H313.523V193.051C314.402 192.928 315.061 192.576 315.5 191.996C315.817 191.539 315.975 190.423 315.975 188.647V177.652C315.975 175.613 315.896 174.339 315.738 173.829C315.579 173.302 315.307 172.897 314.92 172.616C314.551 172.317 314.129 172.168 313.655 172.168C312.951 172.168 312.266 172.414 311.598 172.906C310.93 173.381 310.209 174.225 309.436 175.438V188.647C309.436 190.405 309.568 191.504 309.831 191.943C310.165 192.541 310.851 192.91 311.888 193.051V194H299.39V193.051C300.427 192.945 301.165 192.611 301.605 192.049C301.904 191.662 302.053 190.528 302.053 188.647V163.599C302.053 161.735 301.877 160.575 301.526 160.118C301.192 159.661 300.48 159.362 299.39 159.222V158.246H309.436ZM351.084 160.329V169.347H356.938V171.957H351.084V187.171C351.084 188.595 351.146 189.518 351.269 189.939C351.41 190.344 351.647 190.678 351.981 190.941C352.315 191.188 352.622 191.311 352.904 191.311C354.046 191.311 355.127 190.44 356.147 188.7L356.938 189.28C355.514 192.655 353.203 194.343 350.003 194.343C348.439 194.343 347.112 193.912 346.022 193.051C344.95 192.172 344.264 191.196 343.965 190.124C343.789 189.526 343.702 187.909 343.702 185.272V171.957H340.485V171.034C342.7 169.47 344.58 167.826 346.127 166.104C347.692 164.381 349.054 162.456 350.214 160.329H351.084ZM368.547 158.246V172.511C369.9 171.087 371.14 170.085 372.265 169.505C373.39 168.907 374.559 168.608 375.771 168.608C377.318 168.608 378.637 169.048 379.727 169.927C380.834 170.806 381.563 171.843 381.915 173.038C382.284 174.216 382.469 176.211 382.469 179.023V188.647C382.469 190.528 382.645 191.706 382.996 192.181C383.348 192.638 384.06 192.928 385.132 193.051V194H372.634V193.051C373.513 192.928 374.172 192.576 374.611 191.996C374.928 191.539 375.086 190.423 375.086 188.647V177.652C375.086 175.613 375.007 174.339 374.849 173.829C374.69 173.302 374.418 172.897 374.031 172.616C373.662 172.317 373.24 172.168 372.766 172.168C372.062 172.168 371.377 172.414 370.709 172.906C370.041 173.381 369.32 174.225 368.547 175.438V188.647C368.547 190.405 368.679 191.504 368.942 191.943C369.276 192.541 369.962 192.91 370.999 193.051V194H358.501V193.051C359.538 192.945 360.276 192.611 360.716 192.049C361.015 191.662 361.164 190.528 361.164 188.647V163.599C361.164 161.735 360.988 160.575 360.637 160.118C360.303 159.661 359.591 159.362 358.501 159.222V158.246H368.547ZM408.606 180.79H395.08C395.238 184.06 396.108 186.644 397.69 188.542C398.903 190.001 400.362 190.73 402.067 190.73C403.122 190.73 404.08 190.44 404.941 189.86C405.802 189.263 406.725 188.199 407.71 186.67L408.606 187.25C407.27 189.975 405.793 191.908 404.176 193.051C402.559 194.176 400.687 194.738 398.56 194.738C394.904 194.738 392.135 193.332 390.254 190.52C388.743 188.252 387.987 185.439 387.987 182.082C387.987 177.969 389.094 174.699 391.309 172.273C393.542 169.83 396.152 168.608 399.14 168.608C401.636 168.608 403.798 169.637 405.626 171.693C407.472 173.732 408.465 176.765 408.606 180.79ZM402.12 179.023C402.12 176.193 401.961 174.251 401.645 173.196C401.346 172.142 400.872 171.342 400.221 170.797C399.852 170.48 399.36 170.322 398.745 170.322C397.831 170.322 397.084 170.771 396.503 171.667C395.466 173.231 394.948 175.376 394.948 178.101V179.023H402.12ZM437.203 190.361C434.197 193.016 431.499 194.343 429.108 194.343C427.702 194.343 426.533 193.886 425.601 192.972C424.67 192.04 424.204 190.88 424.204 189.491C424.204 187.61 425.012 185.923 426.63 184.429C428.247 182.917 431.771 180.913 437.203 178.417V175.938C437.203 174.075 437.097 172.906 436.886 172.432C436.693 171.939 436.315 171.518 435.753 171.166C435.19 170.797 434.557 170.612 433.854 170.612C432.712 170.612 431.771 170.867 431.033 171.377C430.576 171.693 430.347 172.062 430.347 172.484C430.347 172.854 430.593 173.311 431.086 173.855C431.754 174.611 432.088 175.341 432.088 176.044C432.088 176.905 431.762 177.644 431.112 178.259C430.479 178.856 429.644 179.155 428.607 179.155C427.5 179.155 426.568 178.821 425.812 178.153C425.074 177.485 424.705 176.703 424.705 175.807C424.705 174.541 425.206 173.337 426.208 172.194C427.21 171.034 428.607 170.146 430.4 169.531C432.193 168.916 434.056 168.608 435.99 168.608C438.328 168.608 440.173 169.109 441.527 170.111C442.898 171.096 443.786 172.168 444.19 173.328C444.436 174.066 444.559 175.763 444.559 178.417V187.988C444.559 189.113 444.603 189.825 444.691 190.124C444.779 190.405 444.911 190.616 445.087 190.757C445.262 190.897 445.464 190.968 445.693 190.968C446.15 190.968 446.616 190.643 447.09 189.992L447.881 190.625C447.003 191.926 446.089 192.875 445.139 193.473C444.208 194.053 443.144 194.343 441.949 194.343C440.543 194.343 439.444 194.018 438.653 193.367C437.862 192.699 437.379 191.697 437.203 190.361ZM437.203 188.437V180.184C435.076 181.432 433.494 182.768 432.457 184.191C431.771 185.141 431.428 186.099 431.428 187.065C431.428 187.874 431.718 188.586 432.298 189.201C432.738 189.676 433.353 189.913 434.144 189.913C435.023 189.913 436.043 189.421 437.203 188.437ZM459.332 191.495V200.671C459.332 201.937 459.429 202.798 459.622 203.255C459.833 203.712 460.15 204.046 460.571 204.257C460.993 204.468 461.82 204.573 463.05 204.573V205.549H448.996V204.573C450.086 204.538 450.895 204.23 451.422 203.65C451.774 203.246 451.949 202.2 451.949 200.513V174.488C451.949 172.748 451.747 171.641 451.343 171.166C450.939 170.674 450.156 170.393 448.996 170.322V169.347H459.332V172.59C460.194 171.324 461.072 170.41 461.969 169.848C463.252 169.021 464.65 168.608 466.161 168.608C467.972 168.608 469.615 169.18 471.092 170.322C472.586 171.465 473.72 173.047 474.493 175.068C475.267 177.072 475.654 179.234 475.654 181.555C475.654 184.051 475.249 186.336 474.441 188.41C473.65 190.467 472.489 192.04 470.96 193.13C469.448 194.202 467.761 194.738 465.898 194.738C464.544 194.738 463.279 194.439 462.101 193.842C461.222 193.385 460.299 192.603 459.332 191.495ZM459.332 188.832C460.844 190.977 462.461 192.049 464.184 192.049C465.133 192.049 465.915 191.548 466.53 190.546C467.445 189.069 467.902 186.257 467.902 182.108C467.902 177.854 467.401 174.945 466.399 173.381C465.731 172.344 464.834 171.825 463.709 171.825C461.934 171.825 460.475 173.108 459.332 175.675V188.832ZM488.581 191.495V200.671C488.581 201.937 488.677 202.798 488.871 203.255C489.082 203.712 489.398 204.046 489.82 204.257C490.242 204.468 491.068 204.573 492.299 204.573V205.549H478.245V204.573C479.335 204.538 480.143 204.23 480.671 203.65C481.022 203.246 481.198 202.2 481.198 200.513V174.488C481.198 172.748 480.996 171.641 480.592 171.166C480.187 170.674 479.405 170.393 478.245 170.322V169.347H488.581V172.59C489.442 171.324 490.321 170.41 491.218 169.848C492.501 169.021 493.898 168.608 495.41 168.608C497.22 168.608 498.864 169.18 500.341 170.322C501.835 171.465 502.969 173.047 503.742 175.068C504.515 177.072 504.902 179.234 504.902 181.555C504.902 184.051 504.498 186.336 503.689 188.41C502.898 190.467 501.738 192.04 500.209 193.13C498.697 194.202 497.01 194.738 495.146 194.738C493.793 194.738 492.527 194.439 491.349 193.842C490.47 193.385 489.548 192.603 488.581 191.495ZM488.581 188.832C490.093 190.977 491.71 192.049 493.432 192.049C494.382 192.049 495.164 191.548 495.779 190.546C496.693 189.069 497.15 186.257 497.15 182.108C497.15 177.854 496.649 174.945 495.647 173.381C494.979 172.344 494.083 171.825 492.958 171.825C491.182 171.825 489.723 173.108 488.581 175.675V188.832Z" fill="#3F3D56"/>
<path d="M37.4737 21.5166C36.7701 20.8278 35.6311 20.8278 34.9293 21.5166L22.5136 33.751C21.8297 34.4223 21.8279 35.5761 22.5136 36.2489L34.9275 48.4834C35.6311 49.1722 36.7701 49.1722 37.4719 48.4834C38.1754 47.793 38.1754 46.676 37.4719 45.9855L26.3246 34.9992L37.4737 24.0129C38.1754 23.324 38.1754 22.207 37.4737 21.5166Z" fill="white"/>
<path d="M872.513 199.772H643.08C640.948 199.772 639.213 198.016 639.213 195.857C639.213 193.698 640.948 191.942 643.08 191.942H872.513C874.646 191.942 876.38 193.698 876.38 195.857C876.38 198.016 874.646 199.772 872.513 199.772Z" fill="white"/>
<path d="M821.6 220H693.994C691.861 220 690.127 218.244 690.127 216.085C690.127 213.926 691.861 212.17 693.994 212.17H821.6C823.732 212.17 825.467 213.926 825.467 216.085C825.467 218.244 823.732 220 821.6 220V220Z" fill="white"/>
<path d="M668.612 63.22L683.072 57.0588L689.274 69.9316L674.079 76.2109L668.612 63.22Z" fill="#FFB6B6"/>
<path opacity="0.1" d="M668.612 63.22L683.072 57.0588L689.274 69.9316L674.079 76.2109L668.612 63.22Z" fill="black"/>
<path d="M670.667 58.3147L684.932 74.9551C684.932 74.9551 675.009 106.666 665.085 109.492C655.162 112.317 636.866 126.132 636.866 126.132L613.918 111.062L625.082 94.4211C625.082 94.4211 652.061 57.0588 659.193 57.0588C666.326 57.0588 670.667 58.3147 670.667 58.3147V58.3147Z" fill="#6379C6"/>
<path d="M651.394 166.791H618.189L616.089 163.95L607.518 152.348L605.546 149.68C605.546 149.68 598.103 135.865 599.654 123.306C601.204 110.748 617.33 107.922 617.33 107.922H617.993L637.734 125.485L636.556 141.831L642.808 152.348L651.394 166.791V166.791Z" fill="#2F2E41"/>
<path d="M624.989 166.791H616.089V153.447L624.989 166.791Z" fill="#2F2E41"/>
<path d="M869.636 73.4585L872.956 94.4223L851.983 94.6961V76.4699L869.636 73.4585Z" fill="#FFB6B6"/>
<path opacity="0.1" d="M869.636 73.4585L872.956 94.4223L851.983 94.6961V76.4699L869.636 73.4585Z" fill="black"/>
<path d="M919.593 146.534L918.486 152.348L915.738 166.791H860.543C860.974 163.554 861.563 158.895 862.193 153.865C862.255 153.363 862.32 152.857 862.382 152.348C863.96 139.705 865.688 125.397 865.688 125.397L872.944 126.289L887.023 128.016L892.759 128.719L908.122 130.606C915.781 131.545 921.05 138.86 919.593 146.534V146.534Z" fill="#F2F2F2"/>
<path d="M816.949 146.534L815.842 152.348L813.095 166.791H757.899C758.33 163.554 758.92 158.895 759.549 153.865C759.611 153.363 759.676 152.857 759.738 152.348C761.317 139.705 763.044 125.397 763.044 125.397L770.3 126.289L784.379 128.016L790.116 128.719L805.478 130.606C813.138 131.545 818.406 138.86 816.949 146.534V146.534Z" fill="#F2F2F2"/>
<path d="M895.06 166.791H865.123C865.579 166.248 865.836 165.934 865.836 165.934L874.811 164.433L893.302 161.344C893.302 161.344 894.145 163.551 895.06 166.791V166.791Z" fill="#2F2E41"/>
<path d="M853.876 166.791H808.666C809.116 165.887 809.581 164.979 810.058 164.075C810.697 162.866 811.379 161.79 812.102 160.832C812.583 160.195 813.079 159.611 813.59 159.077C815.094 157.51 816.732 156.37 818.456 155.589C824.611 152.785 831.865 154.502 838.042 157.297C840.362 158.345 842.529 159.545 844.43 160.713C847.779 162.772 850.307 164.738 851.383 165.611C851.755 165.909 851.953 166.081 851.953 166.081L853.876 166.791V166.791Z" fill="#2F2E41"/>
<path d="M818.01 166.791H811.597L813.287 164.804L814.242 163.68L814.651 164.015L818.01 166.791Z" fill="#FFB6B6"/>
<path d="M897.25 166.791H842.027L844.43 160.713L847.733 152.348L849.392 148.148L848.021 142.242C848.021 142.242 847.345 141.758 846.316 140.889C842.647 137.812 834.482 129.887 836.358 121.749C838.492 112.487 841.171 94.4369 841.738 90.5467C841.81 90.0601 841.847 89.7964 841.847 89.7964L849.817 87.8184L850.08 87.7525L850.936 87.5389H872.283L887.984 98.3049L887.981 98.418L887.023 128.016L886.613 140.678C886.613 140.678 886.12 142.505 886.238 145.344C886.316 147.29 886.678 149.711 887.683 152.348C888.747 155.152 890.536 158.198 893.473 161.171C895.69 163.416 896.766 165.306 897.25 166.791V166.791Z" fill="#6379C6"/>
<path d="M892.759 128.719C892.235 133.071 891.733 136.163 891.733 136.163L886.238 145.344L882.045 152.348L874.81 164.433L873.75 166.207L872.993 166.791H850.297L851.382 165.61L862.192 153.865L863.591 152.348L865.858 149.884L872.944 126.289L881.295 98.4807C881.295 98.4807 884.678 97.2877 887.98 98.418C889.717 99.0114 891.435 100.248 892.617 102.647C894.877 107.225 893.776 120.317 892.759 128.719V128.719Z" fill="#6379C6"/>
<path d="M852.833 127.959L846.315 140.889L840.538 152.348L838.042 157.297L837.059 159.249L828.633 166.791H809.556L812.7 162.835L813.869 161.359L818.456 155.589L821.029 152.348L828.016 143.551L829.88 103.483C830.189 96.8372 835.19 91.4649 841.699 90.5534C841.713 90.5514 841.726 90.5492 841.738 90.5467C843.853 90.1166 847.214 89.9911 849.816 92.5373C849.906 92.6221 849.993 92.7132 850.08 92.8073C850.517 93.2752 850.93 93.8246 851.308 94.4682C851.345 94.531 851.382 94.597 851.416 94.6629C851.525 94.8638 851.63 95.0836 851.726 95.3191C855.048 103.15 852.834 127.959 852.834 127.959L852.833 127.959Z" fill="#6379C6"/>
<path d="M768.075 69.4999L781.094 88.1415L758.384 88.8282L755.946 71.3094L768.075 69.4999Z" fill="#A0616A"/>
<path opacity="0.1" d="M768.075 69.4999L781.094 88.1415L758.384 88.8282L755.946 71.3094L768.075 69.4999Z" fill="black"/>
<path d="M703.869 108.124C702.199 103.245 698.358 100.163 695.292 101.24C692.225 102.316 691.094 107.144 692.766 112.025C693.407 113.984 694.503 115.758 695.96 117.201L703.296 137.783L712.763 134.092L704.526 114.193C704.789 112.146 704.564 110.065 703.869 108.124V108.124Z" fill="#A0616A"/>
<path d="M791.997 98.6252L791.979 117.623L790.233 124.641L786.642 139.074L784.028 152.348L782.081 162.238L781.386 165.771C780.862 166.125 780.341 166.465 779.82 166.791H734.461C731.884 165.224 730.442 164.006 730.442 164.006C730.442 164.006 731.156 163.328 731.971 162.238C733.348 160.399 735.013 157.385 733.993 154.505C733.779 153.903 733.723 153.168 733.788 152.348C734.204 146.942 739.804 137.799 739.804 137.799L738.645 124.229L738.136 118.283L741.722 89.2876L753.409 82.4086L755.427 82.2109L775.345 81.1215L783.578 81.6018L783.953 81.7054L791.997 98.6252L791.997 98.6252Z" fill="#CCCCCC"/>
<path d="M792.882 166.791H782.958L782.521 162.238L782.512 162.147L785.321 161.953L792.63 161.447L792.758 164.172L792.857 166.264L792.882 166.791Z" fill="#FFB6B6"/>
<path d="M795.325 103.219L799.493 127.981L796.091 152.348L795.561 156.141L794.625 162.838L794.336 164.898L794.346 165.121L794.417 166.791H782.633L782.199 162.238L782.162 161.83L781.275 152.505L781.259 152.348L779.377 132.575L783.067 118.283L783.34 117.231V117.228L784.946 92.7571L783.702 81.6363L783.69 81.5327C783.715 81.5484 783.736 81.5641 783.761 81.5798C783.826 81.6206 783.891 81.6615 783.953 81.7054C791.197 86.3585 795.514 94.5217 795.325 103.219V103.219Z" fill="#CCCCCC"/>
<path d="M745.944 94.0326L741.412 89.2872C741.412 89.2872 731.711 93.715 731.228 96.1714C730.744 98.6279 713.617 134.707 713.617 134.707L706.165 114.557L696.466 121.114C696.466 121.114 704.249 152.398 711.527 153.866C718.806 155.335 743.201 116.839 743.201 116.839L745.944 94.0326H745.944Z" fill="#CCCCCC"/>
<path d="M858.522 82.7891C866.849 82.7891 873.599 75.9545 873.599 67.5237C873.599 59.0928 866.849 52.2583 858.522 52.2583C850.195 52.2583 843.444 59.0928 843.444 67.5237C843.444 75.9545 850.195 82.7891 858.522 82.7891Z" fill="#FFB6B6"/>
<path d="M864.774 73.5253C864.774 73.5253 863.211 69.1654 862.325 66.903C861.438 64.6406 862.016 61.7047 862.016 61.7047C862.016 61.7047 850.189 59.0615 845.557 61.6813C840.926 64.3011 840.614 51.1239 845.315 47.5376C845.315 47.5376 846.574 49.7526 846.085 50.3894L845.597 51.0262C845.597 51.0262 849.154 43.4096 855.161 43.0283C855.161 43.0283 858.008 45.3283 856.935 46.0875C855.862 46.8467 864.845 41.7958 866.408 46.1558C866.408 46.1558 872.137 47.1891 871.02 49.17L871.114 50.5371C871.114 50.5371 876.306 49.9914 875.936 53.7162C875.936 53.7162 874.19 53.3638 873.073 54.1189C871.956 54.874 875.73 58.4545 875.73 58.4545C875.73 58.4545 877.998 73.3748 870.132 77.6705C870.132 77.6705 871.408 70.8806 868.405 71.9906C865.402 73.1006 864.774 73.5253 864.774 73.5253V73.5253Z" fill="#2F2E41"/>
<path d="M929.942 170.474H577.058C572.064 170.474 568 166.36 568 161.303C568 156.246 572.064 152.132 577.058 152.132H929.942C934.936 152.132 939 156.246 939 161.303C939 166.36 934.936 170.474 929.942 170.474Z" fill="white"/>
<path d="M789.932 124.177L789.246 156.592C789.179 159.73 786.648 162.238 783.548 162.238H724.653C721.626 162.238 719.127 159.843 718.962 156.783L717.212 124.368C717.033 121.062 719.633 118.283 722.902 118.283H784.234C787.429 118.283 790 120.942 789.932 124.177V124.177Z" fill="#3F3D56"/>
<path d="M917.906 124.177L917.22 156.592C917.154 159.73 914.622 162.238 911.522 162.238H852.627C849.601 162.238 847.102 159.843 846.937 156.783L845.186 124.368C845.008 121.062 847.607 118.283 850.877 118.283H912.208C915.404 118.283 917.975 120.942 917.906 124.177V124.177Z" fill="#3F3D56"/>
<path d="M694.855 71.0448C702.637 71.0448 708.946 64.6574 708.946 56.7782C708.946 48.8991 702.637 42.5117 694.855 42.5117C687.073 42.5117 680.764 48.8991 680.764 56.7782C680.764 64.6574 687.073 71.0448 694.855 71.0448Z" fill="#FFB6B6"/>
<path d="M671.287 94.1072L672.838 111.062L683.381 154.075L674.273 157.308L658.883 110.434L656.758 91.5955L671.287 94.1072Z" fill="#FFB6B6"/>
<path d="M667.093 124.177L666.407 156.592C666.341 159.73 663.809 162.238 660.709 162.238H601.814C598.788 162.238 596.289 159.843 596.124 156.783L594.373 124.368C594.195 121.062 596.794 118.283 600.064 118.283H661.395C664.591 118.283 667.162 120.942 667.093 124.177H667.093Z" fill="#3F3D56"/>
<path d="M685.06 162.458C691.206 162.458 696.189 160.226 696.189 157.474C696.189 154.722 691.206 152.491 685.06 152.491C678.914 152.491 673.932 154.722 673.932 157.474C673.932 160.226 678.914 162.458 685.06 162.458Z" fill="#FFB6B6"/>
<path d="M649.425 96.6993L655.782 62.3964C655.782 62.3964 673.458 59.8846 674.078 65.85C674.699 71.8154 673.635 100.969 673.635 100.969L649.425 96.6993V96.6993Z" fill="#6379C6"/>
<path d="M689.167 59.0214C689.167 59.0214 697.884 55.8717 701.561 54.177C705.237 52.4823 712.542 64.3027 712.704 58.06C712.867 51.8172 710.343 49.1993 710.343 49.1993C710.343 49.1993 709.713 35.5424 696.123 37.2498C696.123 37.2498 699.112 30.4171 689.3 29.3605C679.488 28.304 664.224 52.2936 665.591 55.8787C666.958 59.4638 668.596 62.4278 664.718 66.2611C660.839 70.0944 653.577 91.7285 659.102 97.55C664.628 103.372 664.991 105.898 661.205 109.52C657.419 113.141 648.47 121.016 658.146 122.384C667.822 123.751 657.261 122.73 664.474 116.305C671.688 109.881 682.214 110.143 678.284 99.8362C674.353 89.5289 681.182 74.7588 680.327 72.5181C679.473 70.2774 682.242 56.0488 682.242 56.0488C682.242 56.0488 688.685 55.0903 689.167 59.0214V59.0214Z" fill="#2F2E41"/>
<path d="M761.113 76.2472C769.585 76.2472 776.452 69.2941 776.452 60.717C776.452 52.14 769.585 45.1869 761.113 45.1869C752.642 45.1869 745.774 52.14 745.774 60.717C745.774 69.2941 752.642 76.2472 761.113 76.2472Z" fill="#A0616A"/>
<path d="M762.337 39.8379C761.894 40.1002 761.299 39.7033 761.157 39.2033C761.014 38.7033 761.18 38.1725 761.345 37.6795L762.172 35.1976C762.759 33.4375 763.382 31.6158 764.653 30.2761C766.572 28.254 769.621 27.7396 772.366 28.1122C775.891 28.5908 779.369 30.5234 781.008 33.7191C782.647 36.9149 781.949 41.3741 778.988 43.368C783.209 48.2662 784.68 53.7252 784.448 60.2214C784.216 66.7177 777.223 72.6964 772.664 77.2727C771.645 76.6478 770.72 73.7189 771.28 72.6549C771.839 71.5909 771.037 70.3582 771.731 69.3782C772.424 68.3981 773.004 69.9587 772.303 68.9842C771.861 68.3692 773.588 66.9546 772.93 66.5865C769.749 64.8064 768.691 60.7922 766.694 57.7183C764.284 54.0105 760.16 51.4996 755.795 51.083C753.391 50.8536 750.852 51.2692 748.881 52.6823C746.911 54.0955 745.635 56.6208 746.092 59.0216C744.908 57.805 744.319 56.022 744.541 54.3292C744.764 52.6365 745.792 51.0712 747.248 50.2097C746.363 47.245 747.122 43.8348 749.177 41.5406C751.232 39.2464 759.569 39.6371 762.569 40.2409L762.337 39.8379V39.8379Z" fill="#2F2E41"/>
<path d="M762.804 51.1731C766.778 51.6074 769.647 55.0927 772.07 58.3114C773.466 60.1666 774.929 62.2153 774.894 64.5476C774.859 66.9056 773.302 68.9281 772.557 71.1628C771.341 74.8154 772.527 79.1612 775.422 81.664C772.561 82.2137 769.468 80.0416 768.974 77.1358C768.399 73.7531 770.932 70.4883 770.632 67.0693C770.368 64.0572 768.023 61.7389 766.03 59.4868C764.037 57.2346 762.165 54.246 763.082 51.368L762.804 51.1731V51.1731Z" fill="#2F2E41"/>
</svg>
