<svg width="87" height="87" viewBox="0 0 87 87" fill="none" xmlns="http://www.w3.org/2000/svg">
<rect width="87" height="87" rx="18" fill="url(#paint0_linear_39_6)"/>
<path d="M46.4165 35.5417H36.7498C32.0784 35.5417 28.2915 31.7547 28.2915 27.0833C28.2915 22.4119 32.0784 18.625 36.7498 18.625H46.4165V35.5417Z" fill="#E64A19"/>
<path d="M45.2082 52.4584H36.7498C32.0784 52.4584 28.2915 48.6714 28.2915 44C28.2915 39.3286 32.0784 35.5417 36.7498 35.5417H45.2082V52.4584Z" fill="#7C4DFF"/>
<path d="M36.7498 69.375C32.0784 69.375 28.2915 65.5881 28.2915 60.9166C28.2915 56.2452 32.0784 52.4583 36.7498 52.4583H45.2082V60.9166C45.2082 65.5881 41.4213 69.375 36.7498 69.375Z" fill="#66BB6A"/>
<path d="M53.6668 35.5417H45.2085V18.625H53.6668C58.3382 18.625 62.1252 22.4119 62.1252 27.0833C62.1252 31.7547 58.3382 35.5417 53.6668 35.5417Z" fill="#FF7043"/>
<path d="M53.6668 52.4584C58.3382 52.4584 62.1252 48.6714 62.1252 44C62.1252 39.3286 58.3382 35.5417 53.6668 35.5417C48.9954 35.5417 45.2085 39.3286 45.2085 44C45.2085 48.6714 48.9954 52.4584 53.6668 52.4584Z" fill="#29B6F6"/>
<defs>
<linearGradient id="paint0_linear_39_6" x1="43.5" y1="0" x2="43.5" y2="87" gradientUnits="userSpaceOnUse">
<stop stop-color="#FFB7B7"/>
<stop offset="1" stop-color="#6379C6"/>
</linearGradient>
</defs>
</svg>
