<svg width="853" height="326" viewBox="0 0 853 326" fill="none" xmlns="http://www.w3.org/2000/svg">
<g filter="url(#filter0_d_280_119)">
<rect x="24" y="20" width="805" height="278" rx="21" fill="white"/>
</g>
<rect x="48" y="41" width="237" height="237" rx="18" fill="url(#paint0_linear_280_119)"/>
<path d="M331.24 72.192H342.792V74.944H331.24V72.192ZM331.56 84H328.36V61.6H344.168V64.384H331.56V84ZM347.745 84V67.04H350.817V84H347.745ZM349.281 63.776C348.683 63.776 348.182 63.584 347.777 63.2C347.393 62.816 347.201 62.3467 347.201 61.792C347.201 61.216 347.393 60.736 347.777 60.352C348.182 59.968 348.683 59.776 349.281 59.776C349.878 59.776 350.369 59.968 350.753 60.352C351.158 60.7147 351.361 61.1733 351.361 61.728C351.361 62.304 351.169 62.7947 350.785 63.2C350.401 63.584 349.899 63.776 349.281 63.776ZM363.626 90.4C362.069 90.4 360.554 90.176 359.082 89.728C357.631 89.3013 356.447 88.6827 355.53 87.872L357.002 85.504C357.791 86.1867 358.762 86.72 359.914 87.104C361.066 87.5093 362.271 87.712 363.53 87.712C365.535 87.712 367.007 87.2427 367.946 86.304C368.885 85.3653 369.354 83.936 369.354 82.016V78.432L369.674 75.072L369.514 71.68V67.04H372.426V81.696C372.426 84.6827 371.679 86.88 370.186 88.288C368.693 89.696 366.506 90.4 363.626 90.4ZM363.242 83.296C361.599 83.296 360.127 82.9547 358.826 82.272C357.546 81.568 356.522 80.5973 355.754 79.36C355.007 78.1227 354.634 76.6933 354.634 75.072C354.634 73.4293 355.007 72 355.754 70.784C356.522 69.5467 357.546 68.5867 358.826 67.904C360.127 67.2213 361.599 66.88 363.242 66.88C364.693 66.88 366.015 67.1787 367.21 67.776C368.405 68.352 369.354 69.248 370.058 70.464C370.783 71.68 371.146 73.216 371.146 75.072C371.146 76.9067 370.783 78.432 370.058 79.648C369.354 80.864 368.405 81.7813 367.21 82.4C366.015 82.9973 364.693 83.296 363.242 83.296ZM363.594 80.608C364.725 80.608 365.727 80.3733 366.602 79.904C367.477 79.4347 368.159 78.784 368.65 77.952C369.162 77.12 369.418 76.16 369.418 75.072C369.418 73.984 369.162 73.024 368.65 72.192C368.159 71.36 367.477 70.72 366.602 70.272C365.727 69.8027 364.725 69.568 363.594 69.568C362.463 69.568 361.45 69.8027 360.554 70.272C359.679 70.72 358.986 71.36 358.474 72.192C357.983 73.024 357.738 73.984 357.738 75.072C357.738 76.16 357.983 77.12 358.474 77.952C358.986 78.784 359.679 79.4347 360.554 79.904C361.45 80.3733 362.463 80.608 363.594 80.608ZM399.032 66.88C400.397 66.88 401.602 67.1467 402.648 67.68C403.693 68.2133 404.504 69.024 405.08 70.112C405.677 71.2 405.976 72.576 405.976 74.24V84H402.904V74.592C402.904 72.9493 402.52 71.712 401.752 70.88C400.984 70.048 399.906 69.632 398.52 69.632C397.496 69.632 396.6 69.8453 395.832 70.272C395.064 70.6987 394.466 71.328 394.04 72.16C393.634 72.992 393.432 74.0267 393.432 75.264V84H390.36V74.592C390.36 72.9493 389.976 71.712 389.208 70.88C388.461 70.048 387.384 69.632 385.976 69.632C384.973 69.632 384.088 69.8453 383.32 70.272C382.552 70.6987 381.954 71.328 381.528 72.16C381.101 72.992 380.888 74.0267 380.888 75.264V84H377.816V67.04H380.76V71.552L380.28 70.4C380.813 69.2907 381.634 68.4267 382.744 67.808C383.853 67.1893 385.144 66.88 386.616 66.88C388.237 66.88 389.634 67.2853 390.808 68.096C391.981 68.8853 392.749 70.0907 393.112 71.712L391.864 71.2C392.376 69.8987 393.272 68.8533 394.552 68.064C395.832 67.2747 397.325 66.88 399.032 66.88ZM421.676 84V80.416L421.516 79.744V73.632C421.516 72.3307 421.132 71.328 420.364 70.624C419.618 69.8987 418.487 69.536 416.972 69.536C415.97 69.536 414.988 69.7067 414.028 70.048C413.068 70.368 412.258 70.8053 411.596 71.36L410.316 69.056C411.191 68.352 412.236 67.8187 413.452 67.456C414.69 67.072 415.98 66.88 417.324 66.88C419.65 66.88 421.442 67.4453 422.7 68.576C423.959 69.7067 424.588 71.4347 424.588 73.76V84H421.676ZM416.108 84.192C414.85 84.192 413.74 83.9787 412.78 83.552C411.842 83.1253 411.116 82.5387 410.604 81.792C410.092 81.024 409.836 80.16 409.836 79.2C409.836 78.2827 410.05 77.4507 410.476 76.704C410.924 75.9573 411.639 75.36 412.62 74.912C413.623 74.464 414.967 74.24 416.652 74.24H422.028V76.448H416.78C415.244 76.448 414.21 76.704 413.676 77.216C413.143 77.728 412.876 78.3467 412.876 79.072C412.876 79.904 413.207 80.576 413.868 81.088C414.53 81.5787 415.447 81.824 416.62 81.824C417.772 81.824 418.775 81.568 419.628 81.056C420.503 80.544 421.132 79.7973 421.516 78.816L422.124 80.928C421.719 81.9307 421.004 82.7307 419.98 83.328C418.956 83.904 417.666 84.192 416.108 84.192Z" fill="#2F2E41"/>
<path d="M331.576 145V138.568L332.128 140.056L324.904 128.2H327.472L333.544 138.208H332.152L338.248 128.2H340.624L333.424 140.056L333.952 138.568V145H331.576ZM346.381 145.144C345.101 145.144 343.965 144.864 342.973 144.304C341.981 143.744 341.197 142.976 340.621 142C340.045 141.008 339.757 139.888 339.757 138.64C339.757 137.376 340.045 136.256 340.621 135.28C341.197 134.304 341.981 133.544 342.973 133C343.965 132.44 345.101 132.16 346.381 132.16C347.645 132.16 348.773 132.44 349.765 133C350.773 133.544 351.557 134.304 352.117 135.28C352.693 136.24 352.981 137.36 352.981 138.64C352.981 139.904 352.693 141.024 352.117 142C351.557 142.976 350.773 143.744 349.765 144.304C348.773 144.864 347.645 145.144 346.381 145.144ZM346.381 143.128C347.197 143.128 347.925 142.944 348.565 142.576C349.221 142.208 349.733 141.688 350.101 141.016C350.469 140.328 350.653 139.536 350.653 138.64C350.653 137.728 350.469 136.944 350.101 136.288C349.733 135.616 349.221 135.096 348.565 134.728C347.925 134.36 347.197 134.176 346.381 134.176C345.565 134.176 344.837 134.36 344.197 134.728C343.557 135.096 343.045 135.616 342.661 136.288C342.277 136.944 342.085 137.728 342.085 138.64C342.085 139.536 342.277 140.328 342.661 141.016C343.045 141.688 343.557 142.208 344.197 142.576C344.837 142.944 345.565 143.128 346.381 143.128ZM361.16 145.144C360.072 145.144 359.112 144.944 358.28 144.544C357.464 144.144 356.824 143.536 356.36 142.72C355.912 141.888 355.688 140.848 355.688 139.6V132.28H357.992V139.336C357.992 140.584 358.288 141.52 358.88 142.144C359.488 142.768 360.336 143.08 361.424 143.08C362.224 143.08 362.92 142.92 363.512 142.6C364.104 142.264 364.56 141.784 364.88 141.16C365.2 140.52 365.36 139.752 365.36 138.856V132.28H367.664V145H365.48V141.568L365.84 142.48C365.424 143.328 364.8 143.984 363.968 144.448C363.136 144.912 362.2 145.144 361.16 145.144ZM381.423 145.144C380.367 145.144 379.359 145 378.399 144.712C377.455 144.424 376.711 144.072 376.167 143.656L377.127 141.832C377.671 142.2 378.343 142.512 379.143 142.768C379.943 143.024 380.759 143.152 381.591 143.152C382.663 143.152 383.431 143 383.895 142.696C384.375 142.392 384.615 141.968 384.615 141.424C384.615 141.024 384.471 140.712 384.183 140.488C383.895 140.264 383.511 140.096 383.031 139.984C382.567 139.872 382.047 139.776 381.471 139.696C380.895 139.6 380.319 139.488 379.743 139.36C379.167 139.216 378.639 139.024 378.159 138.784C377.679 138.528 377.295 138.184 377.007 137.752C376.719 137.304 376.575 136.712 376.575 135.976C376.575 135.208 376.791 134.536 377.223 133.96C377.655 133.384 378.263 132.944 379.047 132.64C379.847 132.32 380.791 132.16 381.879 132.16C382.711 132.16 383.551 132.264 384.399 132.472C385.263 132.664 385.967 132.944 386.511 133.312L385.527 135.136C384.951 134.752 384.351 134.488 383.727 134.344C383.103 134.2 382.479 134.128 381.855 134.128C380.847 134.128 380.095 134.296 379.599 134.632C379.103 134.952 378.855 135.368 378.855 135.88C378.855 136.312 378.999 136.648 379.287 136.888C379.591 137.112 379.975 137.288 380.439 137.416C380.919 137.544 381.447 137.656 382.023 137.752C382.599 137.832 383.175 137.944 383.751 138.088C384.327 138.216 384.847 138.4 385.311 138.64C385.791 138.88 386.175 139.216 386.463 139.648C386.767 140.08 386.919 140.656 386.919 141.376C386.919 142.144 386.695 142.808 386.247 143.368C385.799 143.928 385.167 144.368 384.351 144.688C383.535 144.992 382.559 145.144 381.423 145.144ZM395.103 145.144C393.743 145.144 392.543 144.864 391.503 144.304C390.479 143.744 389.679 142.976 389.103 142C388.543 141.024 388.263 139.904 388.263 138.64C388.263 137.376 388.535 136.256 389.079 135.28C389.639 134.304 390.399 133.544 391.359 133C392.335 132.44 393.431 132.16 394.647 132.16C395.879 132.16 396.967 132.432 397.911 132.976C398.855 133.52 399.591 134.288 400.119 135.28C400.663 136.256 400.935 137.4 400.935 138.712C400.935 138.808 400.927 138.92 400.911 139.048C400.911 139.176 400.903 139.296 400.887 139.408H390.063V137.752H399.687L398.751 138.328C398.767 137.512 398.599 136.784 398.247 136.144C397.895 135.504 397.407 135.008 396.783 134.656C396.175 134.288 395.463 134.104 394.647 134.104C393.847 134.104 393.135 134.288 392.511 134.656C391.887 135.008 391.399 135.512 391.047 136.168C390.695 136.808 390.519 137.544 390.519 138.376V138.76C390.519 139.608 390.711 140.368 391.095 141.04C391.495 141.696 392.047 142.208 392.751 142.576C393.455 142.944 394.263 143.128 395.175 143.128C395.927 143.128 396.607 143 397.215 142.744C397.839 142.488 398.383 142.104 398.847 141.592L400.119 143.08C399.543 143.752 398.823 144.264 397.959 144.616C397.111 144.968 396.159 145.144 395.103 145.144ZM403.774 145V127.192H406.078V145H403.774ZM415.781 145.144C414.421 145.144 413.221 144.864 412.181 144.304C411.157 143.744 410.357 142.976 409.781 142C409.221 141.024 408.941 139.904 408.941 138.64C408.941 137.376 409.213 136.256 409.757 135.28C410.317 134.304 411.077 133.544 412.037 133C413.013 132.44 414.109 132.16 415.325 132.16C416.557 132.16 417.645 132.432 418.589 132.976C419.533 133.52 420.269 134.288 420.797 135.28C421.341 136.256 421.613 137.4 421.613 138.712C421.613 138.808 421.605 138.92 421.589 139.048C421.589 139.176 421.581 139.296 421.565 139.408H410.741V137.752H420.365L419.429 138.328C419.445 137.512 419.277 136.784 418.925 136.144C418.573 135.504 418.085 135.008 417.461 134.656C416.853 134.288 416.141 134.104 415.325 134.104C414.525 134.104 413.813 134.288 413.189 134.656C412.565 135.008 412.077 135.512 411.725 136.168C411.373 136.808 411.197 137.544 411.197 138.376V138.76C411.197 139.608 411.389 140.368 411.773 141.04C412.173 141.696 412.725 142.208 413.429 142.576C414.133 142.944 414.941 143.128 415.853 143.128C416.605 143.128 417.285 143 417.893 142.744C418.517 142.488 419.061 142.104 419.525 141.592L420.797 143.08C420.221 143.752 419.501 144.264 418.637 144.616C417.789 144.968 416.837 145.144 415.781 145.144ZM429.996 145.144C428.7 145.144 427.54 144.864 426.516 144.304C425.508 143.744 424.716 142.976 424.14 142C423.564 141.024 423.276 139.904 423.276 138.64C423.276 137.376 423.564 136.256 424.14 135.28C424.716 134.304 425.508 133.544 426.516 133C427.54 132.44 428.7 132.16 429.996 132.16C431.148 132.16 432.172 132.392 433.068 132.856C433.98 133.304 434.684 133.976 435.18 134.872L433.428 136C433.012 135.376 432.5 134.92 431.892 134.632C431.3 134.328 430.66 134.176 429.972 134.176C429.14 134.176 428.396 134.36 427.74 134.728C427.084 135.096 426.564 135.616 426.18 136.288C425.796 136.944 425.604 137.728 425.604 138.64C425.604 139.552 425.796 140.344 426.18 141.016C426.564 141.688 427.084 142.208 427.74 142.576C428.396 142.944 429.14 143.128 429.972 143.128C430.66 143.128 431.3 142.984 431.892 142.696C432.5 142.392 433.012 141.928 433.428 141.304L435.18 142.408C434.684 143.288 433.98 143.968 433.068 144.448C432.172 144.912 431.148 145.144 429.996 145.144ZM442.335 145.144C441.055 145.144 440.063 144.8 439.359 144.112C438.655 143.424 438.303 142.44 438.303 141.16V129.496H440.607V141.064C440.607 141.752 440.775 142.28 441.111 142.648C441.463 143.016 441.959 143.2 442.599 143.2C443.319 143.2 443.919 143 444.399 142.6L445.119 144.256C444.767 144.56 444.343 144.784 443.847 144.928C443.367 145.072 442.863 145.144 442.335 145.144ZM436.143 134.176V132.28H444.255V134.176H436.143ZM452.787 145.144C451.427 145.144 450.227 144.864 449.187 144.304C448.163 143.744 447.363 142.976 446.787 142C446.227 141.024 445.947 139.904 445.947 138.64C445.947 137.376 446.219 136.256 446.763 135.28C447.323 134.304 448.083 133.544 449.043 133C450.019 132.44 451.115 132.16 452.331 132.16C453.563 132.16 454.651 132.432 455.595 132.976C456.539 133.52 457.275 134.288 457.803 135.28C458.347 136.256 458.619 137.4 458.619 138.712C458.619 138.808 458.611 138.92 458.595 139.048C458.595 139.176 458.587 139.296 458.571 139.408H447.747V137.752H457.371L456.435 138.328C456.451 137.512 456.283 136.784 455.931 136.144C455.579 135.504 455.091 135.008 454.467 134.656C453.859 134.288 453.147 134.104 452.331 134.104C451.531 134.104 450.819 134.288 450.195 134.656C449.571 135.008 449.083 135.512 448.731 136.168C448.379 136.808 448.203 137.544 448.203 138.376V138.76C448.203 139.608 448.395 140.368 448.779 141.04C449.179 141.696 449.731 142.208 450.435 142.576C451.139 142.944 451.947 143.128 452.859 143.128C453.611 143.128 454.291 143 454.899 142.744C455.523 142.488 456.067 142.104 456.531 141.592L457.803 143.08C457.227 143.752 456.507 144.264 455.643 144.616C454.795 144.968 453.843 145.144 452.787 145.144ZM466.714 145.144C465.482 145.144 464.378 144.872 463.402 144.328C462.442 143.784 461.682 143.024 461.122 142.048C460.562 141.072 460.282 139.936 460.282 138.64C460.282 137.344 460.562 136.216 461.122 135.256C461.682 134.28 462.442 133.52 463.402 132.976C464.378 132.432 465.482 132.16 466.714 132.16C467.786 132.16 468.754 132.4 469.618 132.88C470.482 133.36 471.17 134.08 471.682 135.04C472.21 136 472.474 137.2 472.474 138.64C472.474 140.08 472.218 141.28 471.706 142.24C471.21 143.2 470.53 143.928 469.666 144.424C468.802 144.904 467.818 145.144 466.714 145.144ZM466.906 143.128C467.706 143.128 468.426 142.944 469.066 142.576C469.722 142.208 470.234 141.688 470.602 141.016C470.986 140.328 471.178 139.536 471.178 138.64C471.178 137.728 470.986 136.944 470.602 136.288C470.234 135.616 469.722 135.096 469.066 134.728C468.426 134.36 467.706 134.176 466.906 134.176C466.09 134.176 465.362 134.36 464.722 134.728C464.082 135.096 463.57 135.616 463.186 136.288C462.802 136.944 462.61 137.728 462.61 138.64C462.61 139.536 462.802 140.328 463.186 141.016C463.57 141.688 464.082 142.208 464.722 142.576C465.362 142.944 466.09 143.128 466.906 143.128ZM471.25 145V141.568L471.394 138.616L471.154 135.664V127.192H473.458V145H471.25ZM486.039 136.144H494.703V138.208H486.039V136.144ZM486.279 145H483.879V128.2H495.735V130.288H486.279V145ZM498.417 145V132.28H500.721V145H498.417ZM499.569 129.832C499.121 129.832 498.745 129.688 498.441 129.4C498.153 129.112 498.009 128.76 498.009 128.344C498.009 127.912 498.153 127.552 498.441 127.264C498.745 126.976 499.121 126.832 499.569 126.832C500.017 126.832 500.385 126.976 500.673 127.264C500.977 127.536 501.129 127.88 501.129 128.296C501.129 128.728 500.985 129.096 500.697 129.4C500.409 129.688 500.033 129.832 499.569 129.832ZM510.329 149.8C509.161 149.8 508.025 149.632 506.921 149.296C505.833 148.976 504.945 148.512 504.257 147.904L505.361 146.128C505.953 146.64 506.681 147.04 507.545 147.328C508.409 147.632 509.313 147.784 510.257 147.784C511.761 147.784 512.865 147.432 513.569 146.728C514.273 146.024 514.625 144.952 514.625 143.512V140.824L514.865 138.304L514.745 135.76V132.28H516.929V143.272C516.929 145.512 516.369 147.16 515.249 148.216C514.129 149.272 512.489 149.8 510.329 149.8ZM510.041 144.472C508.809 144.472 507.705 144.216 506.729 143.704C505.769 143.176 505.001 142.448 504.425 141.52C503.865 140.592 503.585 139.52 503.585 138.304C503.585 137.072 503.865 136 504.425 135.088C505.001 134.16 505.769 133.44 506.729 132.928C507.705 132.416 508.809 132.16 510.041 132.16C511.129 132.16 512.121 132.384 513.017 132.832C513.913 133.264 514.625 133.936 515.153 134.848C515.697 135.76 515.969 136.912 515.969 138.304C515.969 139.68 515.697 140.824 515.153 141.736C514.625 142.648 513.913 143.336 513.017 143.8C512.121 144.248 511.129 144.472 510.041 144.472ZM510.305 142.456C511.153 142.456 511.905 142.28 512.561 141.928C513.217 141.576 513.729 141.088 514.097 140.464C514.481 139.84 514.673 139.12 514.673 138.304C514.673 137.488 514.481 136.768 514.097 136.144C513.729 135.52 513.217 135.04 512.561 134.704C511.905 134.352 511.153 134.176 510.305 134.176C509.457 134.176 508.697 134.352 508.025 134.704C507.369 135.04 506.849 135.52 506.465 136.144C506.097 136.768 505.913 137.488 505.913 138.304C505.913 139.12 506.097 139.84 506.465 140.464C506.849 141.088 507.369 141.576 508.025 141.928C508.697 142.28 509.457 142.456 510.305 142.456ZM536.883 132.16C537.907 132.16 538.811 132.36 539.595 132.76C540.379 133.16 540.987 133.768 541.419 134.584C541.867 135.4 542.091 136.432 542.091 137.68V145H539.787V137.944C539.787 136.712 539.499 135.784 538.923 135.16C538.347 134.536 537.539 134.224 536.499 134.224C535.731 134.224 535.059 134.384 534.483 134.704C533.907 135.024 533.459 135.496 533.139 136.12C532.835 136.744 532.683 137.52 532.683 138.448V145H530.379V137.944C530.379 136.712 530.091 135.784 529.515 135.16C528.955 134.536 528.147 134.224 527.091 134.224C526.339 134.224 525.675 134.384 525.099 134.704C524.523 135.024 524.075 135.496 523.755 136.12C523.435 136.744 523.275 137.52 523.275 138.448V145H520.971V132.28H523.179V135.664L522.819 134.8C523.219 133.968 523.835 133.32 524.667 132.856C525.499 132.392 526.467 132.16 527.571 132.16C528.787 132.16 529.835 132.464 530.715 133.072C531.595 133.664 532.171 134.568 532.443 135.784L531.507 135.4C531.891 134.424 532.563 133.64 533.523 133.048C534.483 132.456 535.603 132.16 536.883 132.16ZM553.866 145V142.312L553.746 141.808V137.224C553.746 136.248 553.458 135.496 552.882 134.968C552.322 134.424 551.474 134.152 550.338 134.152C549.586 134.152 548.85 134.28 548.13 134.536C547.41 134.776 546.802 135.104 546.306 135.52L545.346 133.792C546.002 133.264 546.786 132.864 547.698 132.592C548.626 132.304 549.594 132.16 550.602 132.16C552.346 132.16 553.69 132.584 554.634 133.432C555.578 134.28 556.05 135.576 556.05 137.32V145H553.866ZM549.69 145.144C548.746 145.144 547.914 144.984 547.194 144.664C546.49 144.344 545.946 143.904 545.562 143.344C545.178 142.768 544.986 142.12 544.986 141.4C544.986 140.712 545.146 140.088 545.466 139.528C545.802 138.968 546.338 138.52 547.074 138.184C547.826 137.848 548.834 137.68 550.098 137.68H554.13V139.336H550.194C549.042 139.336 548.266 139.528 547.866 139.912C547.466 140.296 547.266 140.76 547.266 141.304C547.266 141.928 547.514 142.432 548.01 142.816C548.506 143.184 549.194 143.368 550.074 143.368C550.938 143.368 551.69 143.176 552.33 142.792C552.986 142.408 553.458 141.848 553.746 141.112L554.202 142.696C553.898 143.448 553.362 144.048 552.594 144.496C551.826 144.928 550.858 145.144 549.69 145.144ZM572.461 145V131.152C572.461 129.904 572.821 128.912 573.541 128.176C574.277 127.424 575.317 127.048 576.661 127.048C577.157 127.048 577.629 127.112 578.077 127.24C578.541 127.352 578.933 127.536 579.253 127.792L578.557 129.544C578.317 129.352 578.045 129.208 577.741 129.112C577.437 129 577.117 128.944 576.781 128.944C576.109 128.944 575.597 129.136 575.245 129.52C574.893 129.888 574.717 130.44 574.717 131.176V132.88L574.765 133.936V145H572.461ZM570.301 134.176V132.28H578.413V134.176H570.301ZM585.486 145.144C584.206 145.144 583.07 144.864 582.078 144.304C581.086 143.744 580.302 142.976 579.726 142C579.15 141.008 578.862 139.888 578.862 138.64C578.862 137.376 579.15 136.256 579.726 135.28C580.302 134.304 581.086 133.544 582.078 133C583.07 132.44 584.206 132.16 585.486 132.16C586.75 132.16 587.878 132.44 588.87 133C589.878 133.544 590.662 134.304 591.222 135.28C591.798 136.24 592.086 137.36 592.086 138.64C592.086 139.904 591.798 141.024 591.222 142C590.662 142.976 589.878 143.744 588.87 144.304C587.878 144.864 586.75 145.144 585.486 145.144ZM585.486 143.128C586.302 143.128 587.03 142.944 587.67 142.576C588.326 142.208 588.838 141.688 589.206 141.016C589.574 140.328 589.758 139.536 589.758 138.64C589.758 137.728 589.574 136.944 589.206 136.288C588.838 135.616 588.326 135.096 587.67 134.728C587.03 134.36 586.302 134.176 585.486 134.176C584.67 134.176 583.942 134.36 583.302 134.728C582.662 135.096 582.15 135.616 581.766 136.288C581.382 136.944 581.19 137.728 581.19 138.64C581.19 139.536 581.382 140.328 581.766 141.016C582.15 141.688 582.662 142.208 583.302 142.576C583.942 142.944 584.67 143.128 585.486 143.128ZM594.912 145V132.28H597.12V135.736L596.904 134.872C597.256 133.992 597.848 133.32 598.68 132.856C599.512 132.392 600.536 132.16 601.752 132.16V134.392C601.656 134.376 601.56 134.368 601.464 134.368C601.384 134.368 601.304 134.368 601.224 134.368C599.992 134.368 599.016 134.736 598.296 135.472C597.576 136.208 597.216 137.272 597.216 138.664V145H594.912ZM614.849 145.144C613.569 145.144 612.577 144.8 611.873 144.112C611.169 143.424 610.817 142.44 610.817 141.16V129.496H613.121V141.064C613.121 141.752 613.289 142.28 613.625 142.648C613.977 143.016 614.473 143.2 615.113 143.2C615.833 143.2 616.433 143 616.913 142.6L617.633 144.256C617.281 144.56 616.857 144.784 616.361 144.928C615.881 145.072 615.377 145.144 614.849 145.144ZM608.657 134.176V132.28H616.769V134.176H608.657ZM626.851 132.16C627.891 132.16 628.803 132.36 629.587 132.76C630.387 133.16 631.011 133.768 631.459 134.584C631.907 135.4 632.131 136.432 632.131 137.68V145H629.827V137.944C629.827 136.712 629.523 135.784 628.915 135.16C628.323 134.536 627.483 134.224 626.395 134.224C625.579 134.224 624.867 134.384 624.259 134.704C623.651 135.024 623.179 135.496 622.843 136.12C622.523 136.744 622.363 137.52 622.363 138.448V145H620.059V127.192H622.363V135.712L621.907 134.8C622.323 133.968 622.963 133.32 623.827 132.856C624.691 132.392 625.699 132.16 626.851 132.16ZM636.035 145V132.28H638.339V145H636.035ZM637.187 129.832C636.739 129.832 636.363 129.688 636.059 129.4C635.771 129.112 635.627 128.76 635.627 128.344C635.627 127.912 635.771 127.552 636.059 127.264C636.363 126.976 636.739 126.832 637.187 126.832C637.635 126.832 638.003 126.976 638.291 127.264C638.595 127.536 638.747 127.88 638.747 128.296C638.747 128.728 638.603 129.096 638.315 129.4C638.027 129.688 637.651 129.832 637.187 129.832ZM646.026 145.144C644.97 145.144 643.962 145 643.002 144.712C642.058 144.424 641.314 144.072 640.77 143.656L641.73 141.832C642.274 142.2 642.946 142.512 643.746 142.768C644.546 143.024 645.362 143.152 646.194 143.152C647.266 143.152 648.034 143 648.498 142.696C648.978 142.392 649.218 141.968 649.218 141.424C649.218 141.024 649.074 140.712 648.786 140.488C648.498 140.264 648.114 140.096 647.634 139.984C647.17 139.872 646.65 139.776 646.074 139.696C645.498 139.6 644.922 139.488 644.346 139.36C643.77 139.216 643.242 139.024 642.762 138.784C642.282 138.528 641.898 138.184 641.61 137.752C641.322 137.304 641.178 136.712 641.178 135.976C641.178 135.208 641.394 134.536 641.826 133.96C642.258 133.384 642.866 132.944 643.65 132.64C644.45 132.32 645.394 132.16 646.482 132.16C647.314 132.16 648.154 132.264 649.002 132.472C649.866 132.664 650.57 132.944 651.114 133.312L650.13 135.136C649.554 134.752 648.954 134.488 648.33 134.344C647.706 134.2 647.082 134.128 646.458 134.128C645.45 134.128 644.698 134.296 644.202 134.632C643.706 134.952 643.458 135.368 643.458 135.88C643.458 136.312 643.602 136.648 643.89 136.888C644.194 137.112 644.578 137.288 645.042 137.416C645.522 137.544 646.05 137.656 646.626 137.752C647.202 137.832 647.778 137.944 648.354 138.088C648.93 138.216 649.45 138.4 649.914 138.64C650.394 138.88 650.778 139.216 651.066 139.648C651.37 140.08 651.522 140.656 651.522 141.376C651.522 142.144 651.298 142.808 650.85 143.368C650.402 143.928 649.77 144.368 648.954 144.688C648.138 144.992 647.162 145.144 646.026 145.144ZM660.463 145V128.2H662.863V142.912H671.959V145H660.463ZM671.809 145L679.417 128.2H681.793L689.425 145H686.905L680.113 129.544H681.073L674.281 145H671.809ZM675.049 140.8L675.697 138.88H685.153L685.849 140.8H675.049ZM691.571 145V128.2H699.107C701.043 128.2 702.531 128.592 703.571 129.376C704.611 130.144 705.131 131.2 705.131 132.544C705.131 133.456 704.923 134.224 704.507 134.848C704.107 135.472 703.563 135.952 702.875 136.288C702.187 136.624 701.443 136.792 700.643 136.792L701.075 136.072C702.035 136.072 702.883 136.24 703.619 136.576C704.355 136.912 704.939 137.408 705.371 138.064C705.803 138.704 706.019 139.504 706.019 140.464C706.019 141.904 705.475 143.024 704.387 143.824C703.315 144.608 701.715 145 699.587 145H691.571ZM693.971 143.056H699.491C700.819 143.056 701.835 142.832 702.539 142.384C703.243 141.936 703.595 141.232 703.595 140.272C703.595 139.296 703.243 138.584 702.539 138.136C701.835 137.688 700.819 137.464 699.491 137.464H693.755V135.52H698.891C700.107 135.52 701.051 135.296 701.723 134.848C702.395 134.4 702.731 133.728 702.731 132.832C702.731 131.936 702.395 131.264 701.723 130.816C701.051 130.368 700.107 130.144 698.891 130.144H693.971V143.056ZM720.356 145.192C719.076 145.192 717.852 145 716.684 144.616C715.516 144.216 714.596 143.704 713.924 143.08L714.812 141.208C715.452 141.768 716.268 142.232 717.26 142.6C718.252 142.968 719.284 143.152 720.356 143.152C721.332 143.152 722.124 143.04 722.732 142.816C723.34 142.592 723.788 142.288 724.076 141.904C724.364 141.504 724.508 141.056 724.508 140.56C724.508 139.984 724.316 139.52 723.932 139.168C723.564 138.816 723.076 138.536 722.468 138.328C721.876 138.104 721.22 137.912 720.5 137.752C719.78 137.592 719.052 137.408 718.316 137.2C717.596 136.976 716.932 136.696 716.324 136.36C715.732 136.024 715.252 135.576 714.884 135.016C714.516 134.44 714.332 133.704 714.332 132.808C714.332 131.944 714.556 131.152 715.004 130.432C715.468 129.696 716.172 129.112 717.116 128.68C718.076 128.232 719.292 128.008 720.764 128.008C721.74 128.008 722.708 128.136 723.668 128.392C724.628 128.648 725.46 129.016 726.164 129.496L725.372 131.416C724.652 130.936 723.892 130.592 723.092 130.384C722.292 130.16 721.516 130.048 720.764 130.048C719.82 130.048 719.044 130.168 718.436 130.408C717.828 130.648 717.38 130.968 717.092 131.368C716.82 131.768 716.684 132.216 716.684 132.712C716.684 133.304 716.868 133.776 717.236 134.128C717.62 134.48 718.108 134.76 718.7 134.968C719.308 135.176 719.972 135.368 720.692 135.544C721.412 135.704 722.132 135.888 722.852 136.096C723.588 136.304 724.252 136.576 724.844 136.912C725.452 137.248 725.94 137.696 726.308 138.256C726.676 138.816 726.86 139.536 726.86 140.416C726.86 141.264 726.628 142.056 726.164 142.792C725.7 143.512 724.98 144.096 724.004 144.544C723.044 144.976 721.828 145.192 720.356 145.192ZM735.335 145.144C733.975 145.144 732.775 144.864 731.735 144.304C730.711 143.744 729.911 142.976 729.335 142C728.775 141.024 728.495 139.904 728.495 138.64C728.495 137.376 728.767 136.256 729.311 135.28C729.871 134.304 730.631 133.544 731.591 133C732.567 132.44 733.663 132.16 734.879 132.16C736.111 132.16 737.199 132.432 738.143 132.976C739.087 133.52 739.823 134.288 740.351 135.28C740.895 136.256 741.167 137.4 741.167 138.712C741.167 138.808 741.159 138.92 741.143 139.048C741.143 139.176 741.135 139.296 741.119 139.408H730.295V137.752H739.919L738.983 138.328C738.999 137.512 738.831 136.784 738.479 136.144C738.127 135.504 737.639 135.008 737.015 134.656C736.407 134.288 735.695 134.104 734.879 134.104C734.079 134.104 733.367 134.288 732.743 134.656C732.119 135.008 731.631 135.512 731.279 136.168C730.927 136.808 730.751 137.544 730.751 138.376V138.76C730.751 139.608 730.943 140.368 731.327 141.04C731.727 141.696 732.279 142.208 732.983 142.576C733.687 142.944 734.495 143.128 735.407 143.128C736.159 143.128 736.839 143 737.447 142.744C738.071 142.488 738.615 142.104 739.079 141.592L740.351 143.08C739.775 143.752 739.055 144.264 738.191 144.616C737.343 144.968 736.391 145.144 735.335 145.144ZM747.654 145.144C746.598 145.144 745.59 145 744.63 144.712C743.686 144.424 742.942 144.072 742.398 143.656L743.358 141.832C743.902 142.2 744.574 142.512 745.374 142.768C746.174 143.024 746.99 143.152 747.822 143.152C748.894 143.152 749.662 143 750.126 142.696C750.606 142.392 750.846 141.968 750.846 141.424C750.846 141.024 750.702 140.712 750.414 140.488C750.126 140.264 749.742 140.096 749.262 139.984C748.798 139.872 748.278 139.776 747.702 139.696C747.126 139.6 746.55 139.488 745.974 139.36C745.398 139.216 744.87 139.024 744.39 138.784C743.91 138.528 743.526 138.184 743.238 137.752C742.95 137.304 742.806 136.712 742.806 135.976C742.806 135.208 743.022 134.536 743.454 133.96C743.886 133.384 744.494 132.944 745.278 132.64C746.078 132.32 747.022 132.16 748.11 132.16C748.942 132.16 749.782 132.264 750.63 132.472C751.494 132.664 752.198 132.944 752.742 133.312L751.758 135.136C751.182 134.752 750.582 134.488 749.958 134.344C749.334 134.2 748.71 134.128 748.086 134.128C747.078 134.128 746.326 134.296 745.83 134.632C745.334 134.952 745.086 135.368 745.086 135.88C745.086 136.312 745.23 136.648 745.518 136.888C745.822 137.112 746.206 137.288 746.67 137.416C747.15 137.544 747.678 137.656 748.254 137.752C748.83 137.832 749.406 137.944 749.982 138.088C750.558 138.216 751.078 138.4 751.542 138.64C752.022 138.88 752.406 139.216 752.694 139.648C752.998 140.08 753.15 140.656 753.15 141.376C753.15 142.144 752.926 142.808 752.478 143.368C752.03 143.928 751.398 144.368 750.582 144.688C749.766 144.992 748.79 145.144 747.654 145.144ZM759.317 145.144C758.261 145.144 757.253 145 756.293 144.712C755.349 144.424 754.605 144.072 754.061 143.656L755.021 141.832C755.565 142.2 756.237 142.512 757.037 142.768C757.837 143.024 758.653 143.152 759.485 143.152C760.557 143.152 761.325 143 761.789 142.696C762.269 142.392 762.509 141.968 762.509 141.424C762.509 141.024 762.365 140.712 762.077 140.488C761.789 140.264 761.405 140.096 760.925 139.984C760.461 139.872 759.941 139.776 759.365 139.696C758.789 139.6 758.213 139.488 757.637 139.36C757.061 139.216 756.533 139.024 756.053 138.784C755.573 138.528 755.189 138.184 754.901 137.752C754.613 137.304 754.469 136.712 754.469 135.976C754.469 135.208 754.685 134.536 755.117 133.96C755.549 133.384 756.157 132.944 756.941 132.64C757.741 132.32 758.685 132.16 759.773 132.16C760.605 132.16 761.445 132.264 762.293 132.472C763.157 132.664 763.861 132.944 764.405 133.312L763.421 135.136C762.845 134.752 762.245 134.488 761.621 134.344C760.997 134.2 760.373 134.128 759.749 134.128C758.741 134.128 757.989 134.296 757.493 134.632C756.997 134.952 756.749 135.368 756.749 135.88C756.749 136.312 756.893 136.648 757.181 136.888C757.485 137.112 757.869 137.288 758.333 137.416C758.813 137.544 759.341 137.656 759.917 137.752C760.493 137.832 761.069 137.944 761.645 138.088C762.221 138.216 762.741 138.4 763.205 138.64C763.685 138.88 764.069 139.216 764.357 139.648C764.661 140.08 764.813 140.656 764.813 141.376C764.813 142.144 764.589 142.808 764.141 143.368C763.693 143.928 763.061 144.368 762.245 144.688C761.429 144.992 760.453 145.144 759.317 145.144ZM767.333 145V132.28H769.637V145H767.333ZM768.485 129.832C768.037 129.832 767.661 129.688 767.357 129.4C767.069 129.112 766.925 128.76 766.925 128.344C766.925 127.912 767.069 127.552 767.357 127.264C767.661 126.976 768.037 126.832 768.485 126.832C768.933 126.832 769.301 126.976 769.589 127.264C769.893 127.536 770.045 127.88 770.045 128.296C770.045 128.728 769.901 129.096 769.613 129.4C769.325 129.688 768.949 129.832 768.485 129.832ZM779.124 145.144C777.844 145.144 776.708 144.864 775.716 144.304C774.724 143.744 773.94 142.976 773.364 142C772.788 141.008 772.5 139.888 772.5 138.64C772.5 137.376 772.788 136.256 773.364 135.28C773.94 134.304 774.724 133.544 775.716 133C776.708 132.44 777.844 132.16 779.124 132.16C780.388 132.16 781.516 132.44 782.508 133C783.516 133.544 784.3 134.304 784.86 135.28C785.436 136.24 785.724 137.36 785.724 138.64C785.724 139.904 785.436 141.024 784.86 142C784.3 142.976 783.516 143.744 782.508 144.304C781.516 144.864 780.388 145.144 779.124 145.144ZM779.124 143.128C779.94 143.128 780.668 142.944 781.308 142.576C781.964 142.208 782.476 141.688 782.844 141.016C783.212 140.328 783.396 139.536 783.396 138.64C783.396 137.728 783.212 136.944 782.844 136.288C782.476 135.616 781.964 135.096 781.308 134.728C780.668 134.36 779.94 134.176 779.124 134.176C778.308 134.176 777.58 134.36 776.94 134.728C776.3 135.096 775.788 135.616 775.404 136.288C775.02 136.944 774.828 137.728 774.828 138.64C774.828 139.536 775.02 140.328 775.404 141.016C775.788 141.688 776.3 142.208 776.94 142.576C777.58 142.944 778.308 143.128 779.124 143.128ZM795.342 132.16C796.382 132.16 797.294 132.36 798.078 132.76C798.878 133.16 799.502 133.768 799.95 134.584C800.398 135.4 800.622 136.432 800.622 137.68V145H798.318V137.944C798.318 136.712 798.014 135.784 797.406 135.16C796.814 134.536 795.974 134.224 794.886 134.224C794.07 134.224 793.358 134.384 792.75 134.704C792.142 135.024 791.67 135.496 791.334 136.12C791.014 136.744 790.854 137.52 790.854 138.448V145H788.55V132.28H790.758V135.712L790.398 134.8C790.814 133.968 791.454 133.32 792.318 132.856C793.182 132.392 794.19 132.16 795.342 132.16Z" fill="#447DBF"/>
<path d="M329.576 203V196.568L330.128 198.056L322.904 186.2H325.472L331.544 196.208H330.152L336.248 186.2H338.624L331.424 198.056L331.952 196.568V203H329.576ZM344.381 203.144C343.101 203.144 341.965 202.864 340.973 202.304C339.981 201.744 339.197 200.976 338.621 200C338.045 199.008 337.757 197.888 337.757 196.64C337.757 195.376 338.045 194.256 338.621 193.28C339.197 192.304 339.981 191.544 340.973 191C341.965 190.44 343.101 190.16 344.381 190.16C345.645 190.16 346.773 190.44 347.765 191C348.773 191.544 349.557 192.304 350.117 193.28C350.693 194.24 350.981 195.36 350.981 196.64C350.981 197.904 350.693 199.024 350.117 200C349.557 200.976 348.773 201.744 347.765 202.304C346.773 202.864 345.645 203.144 344.381 203.144ZM344.381 201.128C345.197 201.128 345.925 200.944 346.565 200.576C347.221 200.208 347.733 199.688 348.101 199.016C348.469 198.328 348.653 197.536 348.653 196.64C348.653 195.728 348.469 194.944 348.101 194.288C347.733 193.616 347.221 193.096 346.565 192.728C345.925 192.36 345.197 192.176 344.381 192.176C343.565 192.176 342.837 192.36 342.197 192.728C341.557 193.096 341.045 193.616 340.661 194.288C340.277 194.944 340.085 195.728 340.085 196.64C340.085 197.536 340.277 198.328 340.661 199.016C341.045 199.688 341.557 200.208 342.197 200.576C342.837 200.944 343.565 201.128 344.381 201.128ZM359.16 203.144C358.072 203.144 357.112 202.944 356.28 202.544C355.464 202.144 354.824 201.536 354.36 200.72C353.912 199.888 353.688 198.848 353.688 197.6V190.28H355.992V197.336C355.992 198.584 356.288 199.52 356.88 200.144C357.488 200.768 358.336 201.08 359.424 201.08C360.224 201.08 360.92 200.92 361.512 200.6C362.104 200.264 362.56 199.784 362.88 199.16C363.2 198.52 363.36 197.752 363.36 196.856V190.28H365.664V203H363.48V199.568L363.84 200.48C363.424 201.328 362.8 201.984 361.968 202.448C361.136 202.912 360.2 203.144 359.16 203.144ZM369.69 203V190.28H371.898V193.736L371.682 192.872C372.034 191.992 372.626 191.32 373.458 190.856C374.29 190.392 375.314 190.16 376.53 190.16V192.392C376.434 192.376 376.338 192.368 376.242 192.368C376.162 192.368 376.082 192.368 376.002 192.368C374.77 192.368 373.794 192.736 373.074 193.472C372.354 194.208 371.994 195.272 371.994 196.664V203H369.69ZM389.627 203.144C388.347 203.144 387.355 202.8 386.651 202.112C385.947 201.424 385.595 200.44 385.595 199.16V187.496H387.899V199.064C387.899 199.752 388.067 200.28 388.403 200.648C388.755 201.016 389.251 201.2 389.891 201.2C390.611 201.2 391.211 201 391.691 200.6L392.411 202.256C392.059 202.56 391.635 202.784 391.139 202.928C390.659 203.072 390.155 203.144 389.627 203.144ZM383.435 192.176V190.28H391.547V192.176H383.435ZM394.836 203V190.28H397.14V203H394.836ZM395.988 187.832C395.54 187.832 395.164 187.688 394.86 187.4C394.572 187.112 394.428 186.76 394.428 186.344C394.428 185.912 394.572 185.552 394.86 185.264C395.164 184.976 395.54 184.832 395.988 184.832C396.436 184.832 396.804 184.976 397.092 185.264C397.396 185.536 397.548 185.88 397.548 186.296C397.548 186.728 397.404 187.096 397.116 187.4C396.828 187.688 396.452 187.832 395.988 187.832ZM417.092 190.16C418.116 190.16 419.02 190.36 419.804 190.76C420.588 191.16 421.196 191.768 421.628 192.584C422.076 193.4 422.3 194.432 422.3 195.68V203H419.996V195.944C419.996 194.712 419.708 193.784 419.132 193.16C418.556 192.536 417.748 192.224 416.708 192.224C415.94 192.224 415.268 192.384 414.692 192.704C414.116 193.024 413.668 193.496 413.348 194.12C413.044 194.744 412.892 195.52 412.892 196.448V203H410.588V195.944C410.588 194.712 410.3 193.784 409.724 193.16C409.164 192.536 408.356 192.224 407.3 192.224C406.548 192.224 405.884 192.384 405.308 192.704C404.732 193.024 404.284 193.496 403.964 194.12C403.644 194.744 403.484 195.52 403.484 196.448V203H401.18V190.28H403.388V193.664L403.028 192.8C403.428 191.968 404.044 191.32 404.876 190.856C405.708 190.392 406.676 190.16 407.78 190.16C408.996 190.16 410.044 190.464 410.924 191.072C411.804 191.664 412.38 192.568 412.652 193.784L411.716 193.4C412.1 192.424 412.772 191.64 413.732 191.048C414.692 190.456 415.812 190.16 417.092 190.16ZM431.843 203.144C430.483 203.144 429.283 202.864 428.243 202.304C427.219 201.744 426.419 200.976 425.843 200C425.283 199.024 425.003 197.904 425.003 196.64C425.003 195.376 425.275 194.256 425.819 193.28C426.379 192.304 427.139 191.544 428.099 191C429.075 190.44 430.171 190.16 431.387 190.16C432.619 190.16 433.707 190.432 434.651 190.976C435.595 191.52 436.331 192.288 436.859 193.28C437.403 194.256 437.675 195.4 437.675 196.712C437.675 196.808 437.667 196.92 437.651 197.048C437.651 197.176 437.643 197.296 437.627 197.408H426.803V195.752H436.427L435.491 196.328C435.507 195.512 435.339 194.784 434.987 194.144C434.635 193.504 434.147 193.008 433.523 192.656C432.915 192.288 432.203 192.104 431.387 192.104C430.587 192.104 429.875 192.288 429.251 192.656C428.627 193.008 428.139 193.512 427.787 194.168C427.435 194.808 427.259 195.544 427.259 196.376V196.76C427.259 197.608 427.451 198.368 427.835 199.04C428.235 199.696 428.787 200.208 429.491 200.576C430.195 200.944 431.003 201.128 431.915 201.128C432.667 201.128 433.347 201 433.955 200.744C434.579 200.488 435.123 200.104 435.587 199.592L436.859 201.08C436.283 201.752 435.563 202.264 434.699 202.616C433.851 202.968 432.899 203.144 431.843 203.144ZM446.936 203V189.152C446.936 187.904 447.296 186.912 448.016 186.176C448.752 185.424 449.792 185.048 451.136 185.048C451.632 185.048 452.104 185.112 452.552 185.24C453.016 185.352 453.408 185.536 453.728 185.792L453.032 187.544C452.792 187.352 452.52 187.208 452.216 187.112C451.912 187 451.592 186.944 451.256 186.944C450.584 186.944 450.072 187.136 449.72 187.52C449.368 187.888 449.192 188.44 449.192 189.176V190.88L449.24 191.936V203H446.936ZM444.776 192.176V190.28H452.888V192.176H444.776ZM459.961 203.144C458.681 203.144 457.545 202.864 456.553 202.304C455.561 201.744 454.777 200.976 454.201 200C453.625 199.008 453.337 197.888 453.337 196.64C453.337 195.376 453.625 194.256 454.201 193.28C454.777 192.304 455.561 191.544 456.553 191C457.545 190.44 458.681 190.16 459.961 190.16C461.225 190.16 462.353 190.44 463.345 191C464.353 191.544 465.137 192.304 465.697 193.28C466.273 194.24 466.561 195.36 466.561 196.64C466.561 197.904 466.273 199.024 465.697 200C465.137 200.976 464.353 201.744 463.345 202.304C462.353 202.864 461.225 203.144 459.961 203.144ZM459.961 201.128C460.777 201.128 461.505 200.944 462.145 200.576C462.801 200.208 463.313 199.688 463.681 199.016C464.049 198.328 464.233 197.536 464.233 196.64C464.233 195.728 464.049 194.944 463.681 194.288C463.313 193.616 462.801 193.096 462.145 192.728C461.505 192.36 460.777 192.176 459.961 192.176C459.145 192.176 458.417 192.36 457.777 192.728C457.137 193.096 456.625 193.616 456.241 194.288C455.857 194.944 455.665 195.728 455.665 196.64C455.665 197.536 455.857 198.328 456.241 199.016C456.625 199.688 457.137 200.208 457.777 200.576C458.417 200.944 459.145 201.128 459.961 201.128ZM469.387 203V190.28H471.595V193.736L471.379 192.872C471.731 191.992 472.323 191.32 473.155 190.856C473.987 190.392 475.011 190.16 476.227 190.16V192.392C476.131 192.376 476.035 192.368 475.939 192.368C475.859 192.368 475.779 192.368 475.699 192.368C474.467 192.368 473.491 192.736 472.771 193.472C472.051 194.208 471.691 195.272 471.691 196.664V203H469.387ZM487.453 194.144H496.117V196.208H487.453V194.144ZM487.693 203H485.293V186.2H497.149V188.288H487.693V203ZM499.831 203V190.28H502.135V203H499.831ZM500.983 187.832C500.535 187.832 500.159 187.688 499.855 187.4C499.567 187.112 499.423 186.76 499.423 186.344C499.423 185.912 499.567 185.552 499.855 185.264C500.159 184.976 500.535 184.832 500.983 184.832C501.431 184.832 501.799 184.976 502.087 185.264C502.391 185.536 502.543 185.88 502.543 186.296C502.543 186.728 502.399 187.096 502.111 187.4C501.823 187.688 501.447 187.832 500.983 187.832ZM511.742 207.8C510.574 207.8 509.438 207.632 508.334 207.296C507.246 206.976 506.358 206.512 505.67 205.904L506.774 204.128C507.366 204.64 508.094 205.04 508.958 205.328C509.822 205.632 510.726 205.784 511.67 205.784C513.174 205.784 514.278 205.432 514.982 204.728C515.686 204.024 516.038 202.952 516.038 201.512V198.824L516.278 196.304L516.158 193.76V190.28H518.342V201.272C518.342 203.512 517.782 205.16 516.662 206.216C515.542 207.272 513.902 207.8 511.742 207.8ZM511.454 202.472C510.222 202.472 509.118 202.216 508.142 201.704C507.182 201.176 506.414 200.448 505.838 199.52C505.278 198.592 504.998 197.52 504.998 196.304C504.998 195.072 505.278 194 505.838 193.088C506.414 192.16 507.182 191.44 508.142 190.928C509.118 190.416 510.222 190.16 511.454 190.16C512.542 190.16 513.534 190.384 514.43 190.832C515.326 191.264 516.038 191.936 516.566 192.848C517.11 193.76 517.382 194.912 517.382 196.304C517.382 197.68 517.11 198.824 516.566 199.736C516.038 200.648 515.326 201.336 514.43 201.8C513.534 202.248 512.542 202.472 511.454 202.472ZM511.718 200.456C512.566 200.456 513.318 200.28 513.974 199.928C514.63 199.576 515.142 199.088 515.51 198.464C515.894 197.84 516.086 197.12 516.086 196.304C516.086 195.488 515.894 194.768 515.51 194.144C515.142 193.52 514.63 193.04 513.974 192.704C513.318 192.352 512.566 192.176 511.718 192.176C510.87 192.176 510.11 192.352 509.438 192.704C508.782 193.04 508.262 193.52 507.878 194.144C507.51 194.768 507.326 195.488 507.326 196.304C507.326 197.12 507.51 197.84 507.878 198.464C508.262 199.088 508.782 199.576 509.438 199.928C510.11 200.28 510.87 200.456 511.718 200.456ZM538.296 190.16C539.32 190.16 540.224 190.36 541.008 190.76C541.792 191.16 542.4 191.768 542.832 192.584C543.28 193.4 543.504 194.432 543.504 195.68V203H541.2V195.944C541.2 194.712 540.912 193.784 540.336 193.16C539.76 192.536 538.952 192.224 537.912 192.224C537.144 192.224 536.472 192.384 535.896 192.704C535.32 193.024 534.872 193.496 534.552 194.12C534.248 194.744 534.096 195.52 534.096 196.448V203H531.792V195.944C531.792 194.712 531.504 193.784 530.928 193.16C530.368 192.536 529.56 192.224 528.504 192.224C527.752 192.224 527.088 192.384 526.512 192.704C525.936 193.024 525.488 193.496 525.168 194.12C524.848 194.744 524.688 195.52 524.688 196.448V203H522.384V190.28H524.592V193.664L524.232 192.8C524.632 191.968 525.248 191.32 526.08 190.856C526.912 190.392 527.88 190.16 528.984 190.16C530.2 190.16 531.248 190.464 532.128 191.072C533.008 191.664 533.584 192.568 533.856 193.784L532.92 193.4C533.304 192.424 533.976 191.64 534.936 191.048C535.896 190.456 537.016 190.16 538.296 190.16ZM555.28 203V200.312L555.16 199.808V195.224C555.16 194.248 554.872 193.496 554.296 192.968C553.736 192.424 552.888 192.152 551.752 192.152C551 192.152 550.264 192.28 549.544 192.536C548.824 192.776 548.216 193.104 547.72 193.52L546.76 191.792C547.416 191.264 548.2 190.864 549.112 190.592C550.04 190.304 551.008 190.16 552.016 190.16C553.76 190.16 555.104 190.584 556.048 191.432C556.992 192.28 557.464 193.576 557.464 195.32V203H555.28ZM551.104 203.144C550.16 203.144 549.328 202.984 548.608 202.664C547.904 202.344 547.36 201.904 546.976 201.344C546.592 200.768 546.4 200.12 546.4 199.4C546.4 198.712 546.56 198.088 546.88 197.528C547.216 196.968 547.752 196.52 548.488 196.184C549.24 195.848 550.248 195.68 551.512 195.68H555.544V197.336H551.608C550.456 197.336 549.68 197.528 549.28 197.912C548.88 198.296 548.68 198.76 548.68 199.304C548.68 199.928 548.928 200.432 549.424 200.816C549.92 201.184 550.608 201.368 551.488 201.368C552.352 201.368 553.104 201.176 553.744 200.792C554.4 200.408 554.872 199.848 555.16 199.112L555.616 200.696C555.312 201.448 554.776 202.048 554.008 202.496C553.24 202.928 552.272 203.144 551.104 203.144ZM571.101 203.144C570.045 203.144 569.037 203 568.077 202.712C567.133 202.424 566.389 202.072 565.845 201.656L566.805 199.832C567.349 200.2 568.021 200.512 568.821 200.768C569.621 201.024 570.437 201.152 571.269 201.152C572.341 201.152 573.109 201 573.573 200.696C574.053 200.392 574.293 199.968 574.293 199.424C574.293 199.024 574.149 198.712 573.861 198.488C573.573 198.264 573.189 198.096 572.709 197.984C572.245 197.872 571.725 197.776 571.149 197.696C570.573 197.6 569.997 197.488 569.421 197.36C568.845 197.216 568.317 197.024 567.837 196.784C567.357 196.528 566.973 196.184 566.685 195.752C566.397 195.304 566.253 194.712 566.253 193.976C566.253 193.208 566.469 192.536 566.901 191.96C567.333 191.384 567.941 190.944 568.725 190.64C569.525 190.32 570.469 190.16 571.557 190.16C572.389 190.16 573.229 190.264 574.077 190.472C574.941 190.664 575.645 190.944 576.189 191.312L575.205 193.136C574.629 192.752 574.029 192.488 573.405 192.344C572.781 192.2 572.157 192.128 571.533 192.128C570.525 192.128 569.773 192.296 569.277 192.632C568.781 192.952 568.533 193.368 568.533 193.88C568.533 194.312 568.677 194.648 568.965 194.888C569.269 195.112 569.653 195.288 570.117 195.416C570.597 195.544 571.125 195.656 571.701 195.752C572.277 195.832 572.853 195.944 573.429 196.088C574.005 196.216 574.525 196.4 574.989 196.64C575.469 196.88 575.853 197.216 576.141 197.648C576.445 198.08 576.597 198.656 576.597 199.376C576.597 200.144 576.373 200.808 575.925 201.368C575.477 201.928 574.845 202.368 574.029 202.688C573.213 202.992 572.237 203.144 571.101 203.144ZM583.484 203.144C582.204 203.144 581.212 202.8 580.508 202.112C579.804 201.424 579.452 200.44 579.452 199.16V187.496H581.756V199.064C581.756 199.752 581.924 200.28 582.26 200.648C582.612 201.016 583.108 201.2 583.748 201.2C584.468 201.2 585.068 201 585.548 200.6L586.268 202.256C585.916 202.56 585.492 202.784 584.996 202.928C584.516 203.072 584.012 203.144 583.484 203.144ZM577.292 192.176V190.28H585.404V192.176H577.292ZM596.59 203V200.312L596.47 199.808V195.224C596.47 194.248 596.182 193.496 595.606 192.968C595.046 192.424 594.198 192.152 593.062 192.152C592.31 192.152 591.574 192.28 590.854 192.536C590.134 192.776 589.526 193.104 589.03 193.52L588.07 191.792C588.726 191.264 589.51 190.864 590.422 190.592C591.35 190.304 592.318 190.16 593.326 190.16C595.07 190.16 596.414 190.584 597.358 191.432C598.302 192.28 598.774 193.576 598.774 195.32V203H596.59ZM592.414 203.144C591.47 203.144 590.638 202.984 589.918 202.664C589.214 202.344 588.67 201.904 588.286 201.344C587.902 200.768 587.71 200.12 587.71 199.4C587.71 198.712 587.87 198.088 588.19 197.528C588.526 196.968 589.062 196.52 589.798 196.184C590.55 195.848 591.558 195.68 592.822 195.68H596.854V197.336H592.918C591.766 197.336 590.99 197.528 590.59 197.912C590.19 198.296 589.99 198.76 589.99 199.304C589.99 199.928 590.238 200.432 590.734 200.816C591.23 201.184 591.918 201.368 592.798 201.368C593.662 201.368 594.414 201.176 595.054 200.792C595.71 200.408 596.182 199.848 596.47 199.112L596.926 200.696C596.622 201.448 596.086 202.048 595.318 202.496C594.55 202.928 593.582 203.144 592.414 203.144ZM602.677 203V190.28H604.885V193.736L604.669 192.872C605.021 191.992 605.613 191.32 606.445 190.856C607.277 190.392 608.301 190.16 609.517 190.16V192.392C609.421 192.376 609.325 192.368 609.229 192.368C609.149 192.368 609.069 192.368 608.989 192.368C607.757 192.368 606.781 192.736 606.061 193.472C605.341 194.208 604.981 195.272 604.981 196.664V203H602.677ZM616.881 203.144C615.601 203.144 614.609 202.8 613.905 202.112C613.201 201.424 612.849 200.44 612.849 199.16V187.496H615.153V199.064C615.153 199.752 615.321 200.28 615.657 200.648C616.009 201.016 616.505 201.2 617.145 201.2C617.865 201.2 618.465 201 618.945 200.6L619.665 202.256C619.313 202.56 618.889 202.784 618.393 202.928C617.913 203.072 617.409 203.144 616.881 203.144ZM610.689 192.176V190.28H618.801V192.176H610.689ZM625.738 203.144C624.682 203.144 623.674 203 622.714 202.712C621.77 202.424 621.026 202.072 620.482 201.656L621.442 199.832C621.986 200.2 622.658 200.512 623.458 200.768C624.258 201.024 625.074 201.152 625.906 201.152C626.978 201.152 627.746 201 628.21 200.696C628.69 200.392 628.93 199.968 628.93 199.424C628.93 199.024 628.786 198.712 628.498 198.488C628.21 198.264 627.826 198.096 627.346 197.984C626.882 197.872 626.362 197.776 625.786 197.696C625.21 197.6 624.634 197.488 624.058 197.36C623.482 197.216 622.954 197.024 622.474 196.784C621.994 196.528 621.61 196.184 621.322 195.752C621.034 195.304 620.89 194.712 620.89 193.976C620.89 193.208 621.106 192.536 621.538 191.96C621.97 191.384 622.578 190.944 623.362 190.64C624.162 190.32 625.106 190.16 626.194 190.16C627.026 190.16 627.866 190.264 628.714 190.472C629.578 190.664 630.282 190.944 630.826 191.312L629.842 193.136C629.266 192.752 628.666 192.488 628.042 192.344C627.418 192.2 626.794 192.128 626.17 192.128C625.162 192.128 624.41 192.296 623.914 192.632C623.418 192.952 623.17 193.368 623.17 193.88C623.17 194.312 623.314 194.648 623.602 194.888C623.906 195.112 624.29 195.288 624.754 195.416C625.234 195.544 625.762 195.656 626.338 195.752C626.914 195.832 627.49 195.944 628.066 196.088C628.642 196.216 629.162 196.4 629.626 196.64C630.106 196.88 630.49 197.216 630.778 197.648C631.082 198.08 631.234 198.656 631.234 199.376C631.234 200.144 631.01 200.808 630.562 201.368C630.114 201.928 629.482 202.368 628.666 202.688C627.85 202.992 626.874 203.144 625.738 203.144ZM634.306 203.144C633.858 203.144 633.474 202.992 633.154 202.688C632.834 202.368 632.674 201.968 632.674 201.488C632.674 201.008 632.834 200.616 633.154 200.312C633.474 200.008 633.858 199.856 634.306 199.856C634.738 199.856 635.106 200.008 635.41 200.312C635.73 200.616 635.89 201.008 635.89 201.488C635.89 201.968 635.73 202.368 635.41 202.688C635.106 202.992 634.738 203.144 634.306 203.144ZM326.984 235V219.16L328.016 220.288H323.192V218.2H329.36V235H326.984ZM340.499 222.16C341.539 222.16 342.451 222.36 343.235 222.76C344.035 223.16 344.659 223.768 345.107 224.584C345.555 225.4 345.779 226.432 345.779 227.68V235H343.475V227.944C343.475 226.712 343.171 225.784 342.563 225.16C341.971 224.536 341.131 224.224 340.043 224.224C339.227 224.224 338.515 224.384 337.907 224.704C337.299 225.024 336.827 225.496 336.491 226.12C336.171 226.744 336.011 227.52 336.011 228.448V235H333.707V217.192H336.011V225.712L335.555 224.8C335.971 223.968 336.611 223.32 337.475 222.856C338.339 222.392 339.347 222.16 340.499 222.16ZM349.683 235V222.28H351.891V225.736L351.675 224.872C352.027 223.992 352.619 223.32 353.451 222.856C354.283 222.392 355.307 222.16 356.523 222.16V224.392C356.427 224.376 356.331 224.368 356.235 224.368C356.155 224.368 356.075 224.368 355.995 224.368C354.763 224.368 353.787 224.736 353.067 225.472C352.347 226.208 351.987 227.272 351.987 228.664V235H349.683ZM369.356 235.192C368.172 235.192 367.02 235.008 365.9 234.64C364.796 234.272 363.892 233.776 363.188 233.152L364.292 231.256C364.852 231.784 365.58 232.216 366.476 232.552C367.372 232.888 368.332 233.056 369.356 233.056C370.604 233.056 371.572 232.792 372.26 232.264C372.964 231.72 373.316 230.992 373.316 230.08C373.316 229.2 372.98 228.496 372.308 227.968C371.652 227.424 370.604 227.152 369.164 227.152H367.82V225.472L372.812 219.328L373.148 220.288H363.956V218.2H375.044V219.832L370.076 225.952L368.828 225.208H369.62C371.652 225.208 373.172 225.664 374.18 226.576C375.204 227.488 375.716 228.648 375.716 230.056C375.716 231 375.484 231.864 375.02 232.648C374.556 233.432 373.852 234.056 372.908 234.52C371.98 234.968 370.796 235.192 369.356 235.192ZM384.458 235.192C383.146 235.192 381.97 234.856 380.93 234.184C379.906 233.512 379.09 232.536 378.482 231.256C377.89 229.976 377.594 228.424 377.594 226.6C377.594 224.776 377.89 223.224 378.482 221.944C379.09 220.664 379.906 219.688 380.93 219.016C381.97 218.344 383.146 218.008 384.458 218.008C385.754 218.008 386.922 218.344 387.962 219.016C389.002 219.688 389.818 220.664 390.41 221.944C391.002 223.224 391.298 224.776 391.298 226.6C391.298 228.424 391.002 229.976 390.41 231.256C389.818 232.536 389.002 233.512 387.962 234.184C386.922 234.856 385.754 235.192 384.458 235.192ZM384.458 233.056C385.338 233.056 386.106 232.816 386.762 232.336C387.434 231.856 387.954 231.136 388.322 230.176C388.706 229.216 388.898 228.024 388.898 226.6C388.898 225.176 388.706 223.984 388.322 223.024C387.954 222.064 387.434 221.344 386.762 220.864C386.106 220.384 385.338 220.144 384.458 220.144C383.578 220.144 382.802 220.384 382.13 220.864C381.458 221.344 380.93 222.064 380.546 223.024C380.178 223.984 379.994 225.176 379.994 226.6C379.994 228.024 380.178 229.216 380.546 230.176C380.93 231.136 381.458 231.856 382.13 232.336C382.802 232.816 383.578 233.056 384.458 233.056ZM400.695 235V218.2H402.663L410.199 230.896H409.143L416.583 218.2H418.551L418.575 235H416.271L416.247 221.824H416.799L410.175 232.96H409.071L402.399 221.824H402.999V235H400.695ZM422.921 235V222.28H425.225V235H422.921ZM424.073 219.832C423.625 219.832 423.249 219.688 422.945 219.4C422.657 219.112 422.513 218.76 422.513 218.344C422.513 217.912 422.657 217.552 422.945 217.264C423.249 216.976 423.625 216.832 424.073 216.832C424.521 216.832 424.889 216.976 425.177 217.264C425.481 217.536 425.633 217.88 425.633 218.296C425.633 218.728 425.489 219.096 425.201 219.4C424.913 219.688 424.537 219.832 424.073 219.832ZM436.056 222.16C437.096 222.16 438.008 222.36 438.792 222.76C439.592 223.16 440.216 223.768 440.664 224.584C441.112 225.4 441.336 226.432 441.336 227.68V235H439.032V227.944C439.032 226.712 438.728 225.784 438.12 225.16C437.528 224.536 436.688 224.224 435.6 224.224C434.784 224.224 434.072 224.384 433.464 224.704C432.856 225.024 432.384 225.496 432.048 226.12C431.728 226.744 431.568 227.52 431.568 228.448V235H429.264V222.28H431.472V225.712L431.112 224.8C431.528 223.968 432.168 223.32 433.032 222.856C433.896 222.392 434.904 222.16 436.056 222.16ZM448.888 235.144C447.832 235.144 446.824 235 445.864 234.712C444.92 234.424 444.176 234.072 443.632 233.656L444.592 231.832C445.136 232.2 445.808 232.512 446.608 232.768C447.408 233.024 448.224 233.152 449.056 233.152C450.128 233.152 450.896 233 451.36 232.696C451.84 232.392 452.08 231.968 452.08 231.424C452.08 231.024 451.936 230.712 451.648 230.488C451.36 230.264 450.976 230.096 450.496 229.984C450.032 229.872 449.512 229.776 448.936 229.696C448.36 229.6 447.784 229.488 447.208 229.36C446.632 229.216 446.104 229.024 445.624 228.784C445.144 228.528 444.76 228.184 444.472 227.752C444.184 227.304 444.04 226.712 444.04 225.976C444.04 225.208 444.256 224.536 444.688 223.96C445.12 223.384 445.728 222.944 446.512 222.64C447.312 222.32 448.256 222.16 449.344 222.16C450.176 222.16 451.016 222.264 451.864 222.472C452.728 222.664 453.432 222.944 453.976 223.312L452.992 225.136C452.416 224.752 451.816 224.488 451.192 224.344C450.568 224.2 449.944 224.128 449.32 224.128C448.312 224.128 447.56 224.296 447.064 224.632C446.568 224.952 446.32 225.368 446.32 225.88C446.32 226.312 446.464 226.648 446.752 226.888C447.056 227.112 447.44 227.288 447.904 227.416C448.384 227.544 448.912 227.656 449.488 227.752C450.064 227.832 450.64 227.944 451.216 228.088C451.792 228.216 452.312 228.4 452.776 228.64C453.256 228.88 453.64 229.216 453.928 229.648C454.232 230.08 454.384 230.656 454.384 231.376C454.384 232.144 454.16 232.808 453.712 233.368C453.264 233.928 452.632 234.368 451.816 234.688C451 234.992 450.024 235.144 448.888 235.144Z" fill="#2F2E41"/>
<path d="M173.583 135.958H147.25C134.524 135.958 124.208 125.642 124.208 112.917C124.208 100.191 134.524 89.875 147.25 89.875H173.583V135.958Z" fill="#E64A19"/>
<path d="M170.291 182.042H147.25C134.524 182.042 124.208 171.726 124.208 159C124.208 146.274 134.524 135.958 147.25 135.958H170.291V182.042Z" fill="#7C4DFF"/>
<path d="M147.25 228.125C134.524 228.125 124.208 217.809 124.208 205.083C124.208 192.358 134.524 182.042 147.25 182.042H170.291V205.083C170.291 217.809 159.975 228.125 147.25 228.125Z" fill="#66BB6A"/>
<path d="M193.334 135.958H170.292V89.875H193.334C206.059 89.875 216.375 100.191 216.375 112.917C216.375 125.642 206.059 135.958 193.334 135.958Z" fill="#FF7043"/>
<path d="M193.334 182.042C206.059 182.042 216.375 171.726 216.375 159C216.375 146.274 206.059 135.958 193.334 135.958C180.608 135.958 170.292 146.274 170.292 159C170.292 171.726 180.608 182.042 193.334 182.042Z" fill="#29B6F6"/>
<defs>
<filter id="filter0_d_280_119" x="0" y="0" width="853" height="326" filterUnits="userSpaceOnUse" color-interpolation-filters="sRGB">
<feFlood flood-opacity="0" result="BackgroundImageFix"/>
<feColorMatrix in="SourceAlpha" type="matrix" values="0 0 0 0 0 0 0 0 0 0 0 0 0 0 0 0 0 0 127 0" result="hardAlpha"/>
<feOffset dy="4"/>
<feGaussianBlur stdDeviation="12"/>
<feComposite in2="hardAlpha" operator="out"/>
<feColorMatrix type="matrix" values="0 0 0 0 0 0 0 0 0 0 0 0 0 0 0 0 0 0 0.25 0"/>
<feBlend mode="normal" in2="BackgroundImageFix" result="effect1_dropShadow_280_119"/>
<feBlend mode="normal" in="SourceGraphic" in2="effect1_dropShadow_280_119" result="shape"/>
</filter>
<linearGradient id="paint0_linear_280_119" x1="166.5" y1="41" x2="166.5" y2="278" gradientUnits="userSpaceOnUse">
<stop stop-color="#FFB7B7"/>
<stop offset="1" stop-color="#6379C6"/>
</linearGradient>
</defs>
</svg>
