<svg width="87" height="87" viewBox="0 0 87 87" fill="none" xmlns="http://www.w3.org/2000/svg">
<rect width="87" height="87" rx="18" fill="url(#paint0_linear_39_4)"/>
<path d="M32.0679 57.5188L20.3628 48.3053L26.1773 37.5052L42.8668 44L32.0679 57.5188Z" fill="#F57C00"/>
<path d="M68.1668 32.748L67.2606 60.6907L48.6825 68.1667L37.5054 60.9167L53.8179 44L68.1668 32.748Z" fill="#1E88E5"/>
<path d="M68.1667 32.748L53.4395 50.1178L46.7188 28.2917L53.1386 20.5886L68.1667 32.748Z" fill="#2962FF"/>
<path d="M56.9145 38.7136L43.0936 59.9355L23.7603 66.9584L26.8572 56.0834L30.8592 42.6406L56.9145 38.7136Z" fill="#AB47BC"/>
<path d="M30.8595 42.6406L19.8335 38.9407L26.8575 19.8333L41.9617 21.6458L56.9148 38.7135L30.8595 42.6406Z" fill="#E91E63"/>
<path d="M28.2915 28.2917H58.4998V58.5H28.2915V28.2917Z" fill="#000001"/>
<path d="M31.9165 53.0625H42.7915V54.875H31.9165V53.0625ZM39.7707 34.1823V31.9167H33.729V34.1823H35.5415V42.0365H33.729V44.3021H39.7707V42.0365H38.1503V34.1823H39.7707ZM45.6613 44.6042C43.3957 44.6042 42.1922 43.2774 41.7342 42.7337L43.4392 40.7943C43.7473 41.1351 44.604 42.0365 45.6613 42.0365C47.0207 42.0365 47.3228 40.6771 47.3228 39.9219V31.9167H50.0415V39.9219C50.0415 40.6759 50.0415 41.8854 49.1353 43.0938C48.5009 43.9396 47.0207 44.6042 45.6613 44.6042Z" fill="white"/>
<defs>
<linearGradient id="paint0_linear_39_4" x1="43.5" y1="0" x2="43.5" y2="87" gradientUnits="userSpaceOnUse">
<stop stop-color="#FFB7B7"/>
<stop offset="1" stop-color="#6379C6"/>
</linearGradient>
</defs>
</svg>
