<svg width="853" height="326" viewBox="0 0 853 326" fill="none" xmlns="http://www.w3.org/2000/svg">
<g filter="url(#filter0_d_280_92)">
<rect x="24" y="20" width="805" height="278" rx="21" fill="white"/>
</g>
<rect x="48" y="41" width="237" height="237" rx="18" fill="url(#paint0_linear_280_92)"/>
<path d="M328.36 84V61.6H331.56V84H328.36ZM346.394 66.88C347.781 66.88 348.997 67.1467 350.042 67.68C351.109 68.2133 351.941 69.024 352.538 70.112C353.136 71.2 353.434 72.576 353.434 74.24V84H350.362V74.592C350.362 72.9493 349.957 71.712 349.146 70.88C348.357 70.048 347.237 69.632 345.786 69.632C344.698 69.632 343.749 69.8453 342.938 70.272C342.128 70.6987 341.498 71.328 341.05 72.16C340.624 72.992 340.41 74.0267 340.41 75.264V84H337.338V67.04H340.282V71.616L339.802 70.4C340.357 69.2907 341.21 68.4267 342.362 67.808C343.514 67.1893 344.858 66.88 346.394 66.88ZM364.464 84.192C362.757 84.192 361.434 83.7333 360.496 82.816C359.557 81.8987 359.088 80.5867 359.088 78.88V63.328H362.16V78.752C362.16 79.6693 362.384 80.3733 362.832 80.864C363.301 81.3547 363.962 81.6 364.816 81.6C365.776 81.6 366.576 81.3333 367.216 80.8L368.176 83.008C367.706 83.4133 367.141 83.712 366.48 83.904C365.84 84.096 365.168 84.192 364.464 84.192ZM356.208 69.568V67.04H367.024V69.568H356.208ZM378.399 84.192C376.586 84.192 374.986 83.8187 373.599 83.072C372.234 82.3253 371.167 81.3013 370.399 80C369.652 78.6987 369.279 77.2053 369.279 75.52C369.279 73.8347 369.642 72.3413 370.367 71.04C371.114 69.7387 372.127 68.7253 373.407 68C374.708 67.2533 376.17 66.88 377.791 66.88C379.434 66.88 380.884 67.2427 382.143 67.968C383.402 68.6933 384.383 69.7173 385.087 71.04C385.812 72.3413 386.175 73.8667 386.175 75.616C386.175 75.744 386.164 75.8933 386.143 76.064C386.143 76.2347 386.132 76.3947 386.111 76.544H371.679V74.336H384.511L383.263 75.104C383.284 74.016 383.06 73.0453 382.591 72.192C382.122 71.3387 381.471 70.6773 380.639 70.208C379.828 69.7173 378.879 69.472 377.791 69.472C376.724 69.472 375.775 69.7173 374.943 70.208C374.111 70.6773 373.46 71.3493 372.991 72.224C372.522 73.0773 372.287 74.0587 372.287 75.168V75.68C372.287 76.8107 372.543 77.824 373.055 78.72C373.588 79.5947 374.324 80.2773 375.263 80.768C376.202 81.2587 377.279 81.504 378.495 81.504C379.498 81.504 380.404 81.3333 381.215 80.992C382.047 80.6507 382.772 80.1387 383.391 79.456L385.087 81.44C384.319 82.336 383.359 83.0187 382.207 83.488C381.076 83.9573 379.807 84.192 378.399 84.192ZM389.961 84V60.256H393.033V84H389.961ZM398.418 84V60.256H401.49V84H398.418ZM406.876 84V67.04H409.948V84H406.876ZM408.412 63.776C407.814 63.776 407.313 63.584 406.908 63.2C406.524 62.816 406.332 62.3467 406.332 61.792C406.332 61.216 406.524 60.736 406.908 60.352C407.313 59.968 407.814 59.776 408.412 59.776C409.009 59.776 409.5 59.968 409.884 60.352C410.289 60.7147 410.492 61.1733 410.492 61.728C410.492 62.304 410.3 62.7947 409.916 63.2C409.532 63.584 409.03 63.776 408.412 63.776ZM413.157 90.4C412.453 90.4 411.781 90.3147 411.141 90.144C410.48 89.9733 409.925 89.7173 409.477 89.376L410.469 87.008C411.109 87.5413 411.941 87.808 412.965 87.808C413.776 87.808 414.395 87.552 414.821 87.04C415.269 86.5493 415.493 85.8133 415.493 84.832V67.04H418.565V84.768C418.565 86.496 418.096 87.8613 417.157 88.864C416.24 89.888 414.907 90.4 413.157 90.4ZM417.029 63.776C416.432 63.776 415.931 63.584 415.525 63.2C415.141 62.816 414.949 62.3467 414.949 61.792C414.949 61.216 415.141 60.736 415.525 60.352C415.931 59.968 416.432 59.776 417.029 59.776C417.627 59.776 418.117 59.968 418.501 60.352C418.907 60.7147 419.109 61.1733 419.109 61.728C419.109 62.304 418.917 62.7947 418.533 63.2C418.149 63.584 417.648 63.776 417.029 63.776ZM432.509 84V61.6H435.709V84H432.509ZM441.935 84V61.6H451.375C453.764 61.6 455.866 62.0693 457.679 63.008C459.514 63.9467 460.932 65.2587 461.935 66.944C462.959 68.6293 463.471 70.5813 463.471 72.8C463.471 75.0187 462.959 76.9707 461.935 78.656C460.932 80.3413 459.514 81.6533 457.679 82.592C455.866 83.5307 453.764 84 451.375 84H441.935ZM445.135 81.216H451.183C453.039 81.216 454.639 80.864 455.983 80.16C457.348 79.456 458.404 78.4747 459.151 77.216C459.898 75.936 460.271 74.464 460.271 72.8C460.271 71.1147 459.898 69.6427 459.151 68.384C458.404 67.1253 457.348 66.144 455.983 65.44C454.639 64.736 453.039 64.384 451.183 64.384H445.135V81.216ZM470.805 71.264H482.325V73.984H470.805V71.264ZM471.093 81.216H484.149V84H467.893V61.6H483.701V64.384H471.093V81.216ZM485.458 84L495.602 61.6H498.77L508.946 84H505.586L496.53 63.392H497.81L488.754 84H485.458ZM489.778 78.4L490.642 75.84H503.25L504.178 78.4H489.778Z" fill="#2F2E41"/>
<path d="M331.576 145V138.568L332.128 140.056L324.904 128.2H327.472L333.544 138.208H332.152L338.248 128.2H340.624L333.424 140.056L333.952 138.568V145H331.576ZM346.381 145.144C345.101 145.144 343.965 144.864 342.973 144.304C341.981 143.744 341.197 142.976 340.621 142C340.045 141.008 339.757 139.888 339.757 138.64C339.757 137.376 340.045 136.256 340.621 135.28C341.197 134.304 341.981 133.544 342.973 133C343.965 132.44 345.101 132.16 346.381 132.16C347.645 132.16 348.773 132.44 349.765 133C350.773 133.544 351.557 134.304 352.117 135.28C352.693 136.24 352.981 137.36 352.981 138.64C352.981 139.904 352.693 141.024 352.117 142C351.557 142.976 350.773 143.744 349.765 144.304C348.773 144.864 347.645 145.144 346.381 145.144ZM346.381 143.128C347.197 143.128 347.925 142.944 348.565 142.576C349.221 142.208 349.733 141.688 350.101 141.016C350.469 140.328 350.653 139.536 350.653 138.64C350.653 137.728 350.469 136.944 350.101 136.288C349.733 135.616 349.221 135.096 348.565 134.728C347.925 134.36 347.197 134.176 346.381 134.176C345.565 134.176 344.837 134.36 344.197 134.728C343.557 135.096 343.045 135.616 342.661 136.288C342.277 136.944 342.085 137.728 342.085 138.64C342.085 139.536 342.277 140.328 342.661 141.016C343.045 141.688 343.557 142.208 344.197 142.576C344.837 142.944 345.565 143.128 346.381 143.128ZM361.16 145.144C360.072 145.144 359.112 144.944 358.28 144.544C357.464 144.144 356.824 143.536 356.36 142.72C355.912 141.888 355.688 140.848 355.688 139.6V132.28H357.992V139.336C357.992 140.584 358.288 141.52 358.88 142.144C359.488 142.768 360.336 143.08 361.424 143.08C362.224 143.08 362.92 142.92 363.512 142.6C364.104 142.264 364.56 141.784 364.88 141.16C365.2 140.52 365.36 139.752 365.36 138.856V132.28H367.664V145H365.48V141.568L365.84 142.48C365.424 143.328 364.8 143.984 363.968 144.448C363.136 144.912 362.2 145.144 361.16 145.144ZM381.423 145.144C380.367 145.144 379.359 145 378.399 144.712C377.455 144.424 376.711 144.072 376.167 143.656L377.127 141.832C377.671 142.2 378.343 142.512 379.143 142.768C379.943 143.024 380.759 143.152 381.591 143.152C382.663 143.152 383.431 143 383.895 142.696C384.375 142.392 384.615 141.968 384.615 141.424C384.615 141.024 384.471 140.712 384.183 140.488C383.895 140.264 383.511 140.096 383.031 139.984C382.567 139.872 382.047 139.776 381.471 139.696C380.895 139.6 380.319 139.488 379.743 139.36C379.167 139.216 378.639 139.024 378.159 138.784C377.679 138.528 377.295 138.184 377.007 137.752C376.719 137.304 376.575 136.712 376.575 135.976C376.575 135.208 376.791 134.536 377.223 133.96C377.655 133.384 378.263 132.944 379.047 132.64C379.847 132.32 380.791 132.16 381.879 132.16C382.711 132.16 383.551 132.264 384.399 132.472C385.263 132.664 385.967 132.944 386.511 133.312L385.527 135.136C384.951 134.752 384.351 134.488 383.727 134.344C383.103 134.2 382.479 134.128 381.855 134.128C380.847 134.128 380.095 134.296 379.599 134.632C379.103 134.952 378.855 135.368 378.855 135.88C378.855 136.312 378.999 136.648 379.287 136.888C379.591 137.112 379.975 137.288 380.439 137.416C380.919 137.544 381.447 137.656 382.023 137.752C382.599 137.832 383.175 137.944 383.751 138.088C384.327 138.216 384.847 138.4 385.311 138.64C385.791 138.88 386.175 139.216 386.463 139.648C386.767 140.08 386.919 140.656 386.919 141.376C386.919 142.144 386.695 142.808 386.247 143.368C385.799 143.928 385.167 144.368 384.351 144.688C383.535 144.992 382.559 145.144 381.423 145.144ZM395.103 145.144C393.743 145.144 392.543 144.864 391.503 144.304C390.479 143.744 389.679 142.976 389.103 142C388.543 141.024 388.263 139.904 388.263 138.64C388.263 137.376 388.535 136.256 389.079 135.28C389.639 134.304 390.399 133.544 391.359 133C392.335 132.44 393.431 132.16 394.647 132.16C395.879 132.16 396.967 132.432 397.911 132.976C398.855 133.52 399.591 134.288 400.119 135.28C400.663 136.256 400.935 137.4 400.935 138.712C400.935 138.808 400.927 138.92 400.911 139.048C400.911 139.176 400.903 139.296 400.887 139.408H390.063V137.752H399.687L398.751 138.328C398.767 137.512 398.599 136.784 398.247 136.144C397.895 135.504 397.407 135.008 396.783 134.656C396.175 134.288 395.463 134.104 394.647 134.104C393.847 134.104 393.135 134.288 392.511 134.656C391.887 135.008 391.399 135.512 391.047 136.168C390.695 136.808 390.519 137.544 390.519 138.376V138.76C390.519 139.608 390.711 140.368 391.095 141.04C391.495 141.696 392.047 142.208 392.751 142.576C393.455 142.944 394.263 143.128 395.175 143.128C395.927 143.128 396.607 143 397.215 142.744C397.839 142.488 398.383 142.104 398.847 141.592L400.119 143.08C399.543 143.752 398.823 144.264 397.959 144.616C397.111 144.968 396.159 145.144 395.103 145.144ZM403.774 145V127.192H406.078V145H403.774ZM415.781 145.144C414.421 145.144 413.221 144.864 412.181 144.304C411.157 143.744 410.357 142.976 409.781 142C409.221 141.024 408.941 139.904 408.941 138.64C408.941 137.376 409.213 136.256 409.757 135.28C410.317 134.304 411.077 133.544 412.037 133C413.013 132.44 414.109 132.16 415.325 132.16C416.557 132.16 417.645 132.432 418.589 132.976C419.533 133.52 420.269 134.288 420.797 135.28C421.341 136.256 421.613 137.4 421.613 138.712C421.613 138.808 421.605 138.92 421.589 139.048C421.589 139.176 421.581 139.296 421.565 139.408H410.741V137.752H420.365L419.429 138.328C419.445 137.512 419.277 136.784 418.925 136.144C418.573 135.504 418.085 135.008 417.461 134.656C416.853 134.288 416.141 134.104 415.325 134.104C414.525 134.104 413.813 134.288 413.189 134.656C412.565 135.008 412.077 135.512 411.725 136.168C411.373 136.808 411.197 137.544 411.197 138.376V138.76C411.197 139.608 411.389 140.368 411.773 141.04C412.173 141.696 412.725 142.208 413.429 142.576C414.133 142.944 414.941 143.128 415.853 143.128C416.605 143.128 417.285 143 417.893 142.744C418.517 142.488 419.061 142.104 419.525 141.592L420.797 143.08C420.221 143.752 419.501 144.264 418.637 144.616C417.789 144.968 416.837 145.144 415.781 145.144ZM429.996 145.144C428.7 145.144 427.54 144.864 426.516 144.304C425.508 143.744 424.716 142.976 424.14 142C423.564 141.024 423.276 139.904 423.276 138.64C423.276 137.376 423.564 136.256 424.14 135.28C424.716 134.304 425.508 133.544 426.516 133C427.54 132.44 428.7 132.16 429.996 132.16C431.148 132.16 432.172 132.392 433.068 132.856C433.98 133.304 434.684 133.976 435.18 134.872L433.428 136C433.012 135.376 432.5 134.92 431.892 134.632C431.3 134.328 430.66 134.176 429.972 134.176C429.14 134.176 428.396 134.36 427.74 134.728C427.084 135.096 426.564 135.616 426.18 136.288C425.796 136.944 425.604 137.728 425.604 138.64C425.604 139.552 425.796 140.344 426.18 141.016C426.564 141.688 427.084 142.208 427.74 142.576C428.396 142.944 429.14 143.128 429.972 143.128C430.66 143.128 431.3 142.984 431.892 142.696C432.5 142.392 433.012 141.928 433.428 141.304L435.18 142.408C434.684 143.288 433.98 143.968 433.068 144.448C432.172 144.912 431.148 145.144 429.996 145.144ZM442.335 145.144C441.055 145.144 440.063 144.8 439.359 144.112C438.655 143.424 438.303 142.44 438.303 141.16V129.496H440.607V141.064C440.607 141.752 440.775 142.28 441.111 142.648C441.463 143.016 441.959 143.2 442.599 143.2C443.319 143.2 443.919 143 444.399 142.6L445.119 144.256C444.767 144.56 444.343 144.784 443.847 144.928C443.367 145.072 442.863 145.144 442.335 145.144ZM436.143 134.176V132.28H444.255V134.176H436.143ZM452.787 145.144C451.427 145.144 450.227 144.864 449.187 144.304C448.163 143.744 447.363 142.976 446.787 142C446.227 141.024 445.947 139.904 445.947 138.64C445.947 137.376 446.219 136.256 446.763 135.28C447.323 134.304 448.083 133.544 449.043 133C450.019 132.44 451.115 132.16 452.331 132.16C453.563 132.16 454.651 132.432 455.595 132.976C456.539 133.52 457.275 134.288 457.803 135.28C458.347 136.256 458.619 137.4 458.619 138.712C458.619 138.808 458.611 138.92 458.595 139.048C458.595 139.176 458.587 139.296 458.571 139.408H447.747V137.752H457.371L456.435 138.328C456.451 137.512 456.283 136.784 455.931 136.144C455.579 135.504 455.091 135.008 454.467 134.656C453.859 134.288 453.147 134.104 452.331 134.104C451.531 134.104 450.819 134.288 450.195 134.656C449.571 135.008 449.083 135.512 448.731 136.168C448.379 136.808 448.203 137.544 448.203 138.376V138.76C448.203 139.608 448.395 140.368 448.779 141.04C449.179 141.696 449.731 142.208 450.435 142.576C451.139 142.944 451.947 143.128 452.859 143.128C453.611 143.128 454.291 143 454.899 142.744C455.523 142.488 456.067 142.104 456.531 141.592L457.803 143.08C457.227 143.752 456.507 144.264 455.643 144.616C454.795 144.968 453.843 145.144 452.787 145.144ZM466.714 145.144C465.482 145.144 464.378 144.872 463.402 144.328C462.442 143.784 461.682 143.024 461.122 142.048C460.562 141.072 460.282 139.936 460.282 138.64C460.282 137.344 460.562 136.216 461.122 135.256C461.682 134.28 462.442 133.52 463.402 132.976C464.378 132.432 465.482 132.16 466.714 132.16C467.786 132.16 468.754 132.4 469.618 132.88C470.482 133.36 471.17 134.08 471.682 135.04C472.21 136 472.474 137.2 472.474 138.64C472.474 140.08 472.218 141.28 471.706 142.24C471.21 143.2 470.53 143.928 469.666 144.424C468.802 144.904 467.818 145.144 466.714 145.144ZM466.906 143.128C467.706 143.128 468.426 142.944 469.066 142.576C469.722 142.208 470.234 141.688 470.602 141.016C470.986 140.328 471.178 139.536 471.178 138.64C471.178 137.728 470.986 136.944 470.602 136.288C470.234 135.616 469.722 135.096 469.066 134.728C468.426 134.36 467.706 134.176 466.906 134.176C466.09 134.176 465.362 134.36 464.722 134.728C464.082 135.096 463.57 135.616 463.186 136.288C462.802 136.944 462.61 137.728 462.61 138.64C462.61 139.536 462.802 140.328 463.186 141.016C463.57 141.688 464.082 142.208 464.722 142.576C465.362 142.944 466.09 143.128 466.906 143.128ZM471.25 145V141.568L471.394 138.616L471.154 135.664V127.192H473.458V145H471.25ZM483.879 145V128.2H486.279V145H483.879ZM497.405 132.16C498.445 132.16 499.357 132.36 500.141 132.76C500.941 133.16 501.565 133.768 502.013 134.584C502.461 135.4 502.685 136.432 502.685 137.68V145H500.381V137.944C500.381 136.712 500.077 135.784 499.469 135.16C498.877 134.536 498.037 134.224 496.949 134.224C496.133 134.224 495.421 134.384 494.813 134.704C494.205 135.024 493.733 135.496 493.397 136.12C493.077 136.744 492.917 137.52 492.917 138.448V145H490.613V132.28H492.821V135.712L492.461 134.8C492.877 133.968 493.517 133.32 494.381 132.856C495.245 132.392 496.253 132.16 497.405 132.16ZM510.957 145.144C509.677 145.144 508.685 144.8 507.981 144.112C507.277 143.424 506.925 142.44 506.925 141.16V129.496H509.229V141.064C509.229 141.752 509.397 142.28 509.733 142.648C510.085 143.016 510.581 143.2 511.221 143.2C511.941 143.2 512.541 143 513.021 142.6L513.741 144.256C513.389 144.56 512.965 144.784 512.469 144.928C511.989 145.072 511.485 145.144 510.957 145.144ZM504.765 134.176V132.28H512.877V134.176H504.765ZM521.408 145.144C520.048 145.144 518.848 144.864 517.808 144.304C516.784 143.744 515.984 142.976 515.408 142C514.848 141.024 514.568 139.904 514.568 138.64C514.568 137.376 514.84 136.256 515.384 135.28C515.944 134.304 516.704 133.544 517.664 133C518.64 132.44 519.736 132.16 520.952 132.16C522.184 132.16 523.272 132.432 524.216 132.976C525.16 133.52 525.896 134.288 526.424 135.28C526.968 136.256 527.24 137.4 527.24 138.712C527.24 138.808 527.232 138.92 527.216 139.048C527.216 139.176 527.208 139.296 527.192 139.408H516.368V137.752H525.992L525.056 138.328C525.072 137.512 524.904 136.784 524.552 136.144C524.2 135.504 523.712 135.008 523.088 134.656C522.48 134.288 521.768 134.104 520.952 134.104C520.152 134.104 519.44 134.288 518.816 134.656C518.192 135.008 517.704 135.512 517.352 136.168C517 136.808 516.824 137.544 516.824 138.376V138.76C516.824 139.608 517.016 140.368 517.4 141.04C517.8 141.696 518.352 142.208 519.056 142.576C519.76 142.944 520.568 143.128 521.48 143.128C522.232 143.128 522.912 143 523.52 142.744C524.144 142.488 524.688 142.104 525.152 141.592L526.424 143.08C525.848 143.752 525.128 144.264 524.264 144.616C523.416 144.968 522.464 145.144 521.408 145.144ZM530.08 145V127.192H532.384V145H530.08ZM536.423 145V127.192H538.727V145H536.423ZM542.766 145V132.28H545.07V145H542.766ZM543.918 129.832C543.47 129.832 543.094 129.688 542.79 129.4C542.502 129.112 542.358 128.76 542.358 128.344C542.358 127.912 542.502 127.552 542.79 127.264C543.094 126.976 543.47 126.832 543.918 126.832C544.366 126.832 544.734 126.976 545.022 127.264C545.326 127.536 545.478 127.88 545.478 128.296C545.478 128.728 545.334 129.096 545.046 129.4C544.758 129.688 544.382 129.832 543.918 129.832ZM547.477 149.8C546.949 149.8 546.445 149.736 545.965 149.608C545.469 149.48 545.053 149.288 544.717 149.032L545.461 147.256C545.941 147.656 546.565 147.856 547.333 147.856C547.941 147.856 548.405 147.664 548.725 147.28C549.061 146.912 549.229 146.36 549.229 145.624V132.28H551.533V145.576C551.533 146.872 551.181 147.896 550.477 148.648C549.789 149.416 548.789 149.8 547.477 149.8ZM550.381 129.832C549.933 129.832 549.557 129.688 549.253 129.4C548.965 129.112 548.821 128.76 548.821 128.344C548.821 127.912 548.965 127.552 549.253 127.264C549.557 126.976 549.933 126.832 550.381 126.832C550.829 126.832 551.197 126.976 551.485 127.264C551.789 127.536 551.941 127.88 551.941 128.296C551.941 128.728 551.797 129.096 551.509 129.4C551.221 129.688 550.845 129.832 550.381 129.832ZM561.991 145V131.152C561.991 129.904 562.351 128.912 563.071 128.176C563.807 127.424 564.847 127.048 566.191 127.048C566.687 127.048 567.159 127.112 567.607 127.24C568.071 127.352 568.463 127.536 568.783 127.792L568.087 129.544C567.847 129.352 567.575 129.208 567.271 129.112C566.967 129 566.647 128.944 566.311 128.944C565.639 128.944 565.127 129.136 564.775 129.52C564.423 129.888 564.247 130.44 564.247 131.176V132.88L564.295 133.936V145H561.991ZM559.831 134.176V132.28H567.943V134.176H559.831ZM575.016 145.144C573.736 145.144 572.6 144.864 571.608 144.304C570.616 143.744 569.832 142.976 569.256 142C568.68 141.008 568.392 139.888 568.392 138.64C568.392 137.376 568.68 136.256 569.256 135.28C569.832 134.304 570.616 133.544 571.608 133C572.6 132.44 573.736 132.16 575.016 132.16C576.28 132.16 577.408 132.44 578.4 133C579.408 133.544 580.192 134.304 580.752 135.28C581.328 136.24 581.616 137.36 581.616 138.64C581.616 139.904 581.328 141.024 580.752 142C580.192 142.976 579.408 143.744 578.4 144.304C577.408 144.864 576.28 145.144 575.016 145.144ZM575.016 143.128C575.832 143.128 576.56 142.944 577.2 142.576C577.856 142.208 578.368 141.688 578.736 141.016C579.104 140.328 579.288 139.536 579.288 138.64C579.288 137.728 579.104 136.944 578.736 136.288C578.368 135.616 577.856 135.096 577.2 134.728C576.56 134.36 575.832 134.176 575.016 134.176C574.2 134.176 573.472 134.36 572.832 134.728C572.192 135.096 571.68 135.616 571.296 136.288C570.912 136.944 570.72 137.728 570.72 138.64C570.72 139.536 570.912 140.328 571.296 141.016C571.68 141.688 572.192 142.208 572.832 142.576C573.472 142.944 574.2 143.128 575.016 143.128ZM584.442 145V132.28H586.65V135.736L586.434 134.872C586.786 133.992 587.378 133.32 588.21 132.856C589.042 132.392 590.066 132.16 591.282 132.16V134.392C591.186 134.376 591.09 134.368 590.994 134.368C590.914 134.368 590.834 134.368 590.754 134.368C589.522 134.368 588.546 134.736 587.826 135.472C587.106 136.208 586.746 137.272 586.746 138.664V145H584.442ZM604.38 145.144C603.1 145.144 602.108 144.8 601.404 144.112C600.7 143.424 600.348 142.44 600.348 141.16V129.496H602.652V141.064C602.652 141.752 602.82 142.28 603.156 142.648C603.508 143.016 604.004 143.2 604.644 143.2C605.364 143.2 605.964 143 606.444 142.6L607.164 144.256C606.812 144.56 606.388 144.784 605.892 144.928C605.412 145.072 604.908 145.144 604.38 145.144ZM598.188 134.176V132.28H606.3V134.176H598.188ZM616.381 132.16C617.421 132.16 618.333 132.36 619.117 132.76C619.917 133.16 620.541 133.768 620.989 134.584C621.437 135.4 621.661 136.432 621.661 137.68V145H619.357V137.944C619.357 136.712 619.053 135.784 618.445 135.16C617.853 134.536 617.013 134.224 615.925 134.224C615.109 134.224 614.397 134.384 613.789 134.704C613.181 135.024 612.709 135.496 612.373 136.12C612.053 136.744 611.893 137.52 611.893 138.448V145H609.589V127.192H611.893V135.712L611.437 134.8C611.853 133.968 612.493 133.32 613.357 132.856C614.221 132.392 615.229 132.16 616.381 132.16ZM625.565 145V132.28H627.869V145H625.565ZM626.717 129.832C626.269 129.832 625.893 129.688 625.589 129.4C625.301 129.112 625.157 128.76 625.157 128.344C625.157 127.912 625.301 127.552 625.589 127.264C625.893 126.976 626.269 126.832 626.717 126.832C627.165 126.832 627.533 126.976 627.821 127.264C628.125 127.536 628.277 127.88 628.277 128.296C628.277 128.728 628.133 129.096 627.845 129.4C627.557 129.688 627.181 129.832 626.717 129.832ZM635.556 145.144C634.5 145.144 633.492 145 632.532 144.712C631.588 144.424 630.844 144.072 630.3 143.656L631.26 141.832C631.804 142.2 632.476 142.512 633.276 142.768C634.076 143.024 634.892 143.152 635.724 143.152C636.796 143.152 637.564 143 638.028 142.696C638.508 142.392 638.748 141.968 638.748 141.424C638.748 141.024 638.604 140.712 638.316 140.488C638.028 140.264 637.644 140.096 637.164 139.984C636.7 139.872 636.18 139.776 635.604 139.696C635.028 139.6 634.452 139.488 633.876 139.36C633.3 139.216 632.772 139.024 632.292 138.784C631.812 138.528 631.428 138.184 631.14 137.752C630.852 137.304 630.708 136.712 630.708 135.976C630.708 135.208 630.924 134.536 631.356 133.96C631.788 133.384 632.396 132.944 633.18 132.64C633.98 132.32 634.924 132.16 636.012 132.16C636.844 132.16 637.684 132.264 638.532 132.472C639.396 132.664 640.1 132.944 640.644 133.312L639.66 135.136C639.084 134.752 638.484 134.488 637.86 134.344C637.236 134.2 636.612 134.128 635.988 134.128C634.98 134.128 634.228 134.296 633.732 134.632C633.236 134.952 632.988 135.368 632.988 135.88C632.988 136.312 633.132 136.648 633.42 136.888C633.724 137.112 634.108 137.288 634.572 137.416C635.052 137.544 635.58 137.656 636.156 137.752C636.732 137.832 637.308 137.944 637.884 138.088C638.46 138.216 638.98 138.4 639.444 138.64C639.924 138.88 640.308 139.216 640.596 139.648C640.9 140.08 641.052 140.656 641.052 141.376C641.052 142.144 640.828 142.808 640.38 143.368C639.932 143.928 639.3 144.368 638.484 144.688C637.668 144.992 636.692 145.144 635.556 145.144ZM649.993 145V128.2H652.393V142.912H661.489V145H649.993ZM661.339 145L668.947 128.2H671.323L678.955 145H676.435L669.643 129.544H670.603L663.811 145H661.339ZM664.579 140.8L665.227 138.88H674.683L675.379 140.8H664.579ZM681.101 145V128.2H688.637C690.573 128.2 692.061 128.592 693.101 129.376C694.141 130.144 694.661 131.2 694.661 132.544C694.661 133.456 694.453 134.224 694.037 134.848C693.637 135.472 693.093 135.952 692.405 136.288C691.717 136.624 690.973 136.792 690.173 136.792L690.605 136.072C691.565 136.072 692.413 136.24 693.149 136.576C693.885 136.912 694.469 137.408 694.901 138.064C695.333 138.704 695.549 139.504 695.549 140.464C695.549 141.904 695.005 143.024 693.917 143.824C692.845 144.608 691.245 145 689.117 145H681.101ZM683.501 143.056H689.021C690.349 143.056 691.365 142.832 692.069 142.384C692.773 141.936 693.125 141.232 693.125 140.272C693.125 139.296 692.773 138.584 692.069 138.136C691.365 137.688 690.349 137.464 689.021 137.464H683.285V135.52H688.421C689.637 135.52 690.581 135.296 691.253 134.848C691.925 134.4 692.261 133.728 692.261 132.832C692.261 131.936 691.925 131.264 691.253 130.816C690.581 130.368 689.637 130.144 688.421 130.144H683.501V143.056ZM709.886 145.192C708.606 145.192 707.382 145 706.214 144.616C705.046 144.216 704.126 143.704 703.454 143.08L704.342 141.208C704.982 141.768 705.798 142.232 706.79 142.6C707.782 142.968 708.814 143.152 709.886 143.152C710.862 143.152 711.654 143.04 712.262 142.816C712.87 142.592 713.318 142.288 713.606 141.904C713.894 141.504 714.038 141.056 714.038 140.56C714.038 139.984 713.846 139.52 713.462 139.168C713.094 138.816 712.606 138.536 711.998 138.328C711.406 138.104 710.75 137.912 710.03 137.752C709.31 137.592 708.582 137.408 707.846 137.2C707.126 136.976 706.462 136.696 705.854 136.36C705.262 136.024 704.782 135.576 704.414 135.016C704.046 134.44 703.862 133.704 703.862 132.808C703.862 131.944 704.086 131.152 704.534 130.432C704.998 129.696 705.702 129.112 706.646 128.68C707.606 128.232 708.822 128.008 710.294 128.008C711.27 128.008 712.238 128.136 713.198 128.392C714.158 128.648 714.99 129.016 715.694 129.496L714.902 131.416C714.182 130.936 713.422 130.592 712.622 130.384C711.822 130.16 711.046 130.048 710.294 130.048C709.35 130.048 708.574 130.168 707.966 130.408C707.358 130.648 706.91 130.968 706.622 131.368C706.35 131.768 706.214 132.216 706.214 132.712C706.214 133.304 706.398 133.776 706.766 134.128C707.15 134.48 707.638 134.76 708.23 134.968C708.838 135.176 709.502 135.368 710.222 135.544C710.942 135.704 711.662 135.888 712.382 136.096C713.118 136.304 713.782 136.576 714.374 136.912C714.982 137.248 715.47 137.696 715.838 138.256C716.206 138.816 716.39 139.536 716.39 140.416C716.39 141.264 716.158 142.056 715.694 142.792C715.23 143.512 714.51 144.096 713.534 144.544C712.574 144.976 711.358 145.192 709.886 145.192ZM724.865 145.144C723.505 145.144 722.305 144.864 721.265 144.304C720.241 143.744 719.441 142.976 718.865 142C718.305 141.024 718.025 139.904 718.025 138.64C718.025 137.376 718.297 136.256 718.841 135.28C719.401 134.304 720.161 133.544 721.121 133C722.097 132.44 723.193 132.16 724.409 132.16C725.641 132.16 726.729 132.432 727.673 132.976C728.617 133.52 729.353 134.288 729.881 135.28C730.425 136.256 730.697 137.4 730.697 138.712C730.697 138.808 730.689 138.92 730.673 139.048C730.673 139.176 730.665 139.296 730.649 139.408H719.825V137.752H729.449L728.513 138.328C728.529 137.512 728.361 136.784 728.009 136.144C727.657 135.504 727.169 135.008 726.545 134.656C725.937 134.288 725.225 134.104 724.409 134.104C723.609 134.104 722.897 134.288 722.273 134.656C721.649 135.008 721.161 135.512 720.809 136.168C720.457 136.808 720.281 137.544 720.281 138.376V138.76C720.281 139.608 720.473 140.368 720.857 141.04C721.257 141.696 721.809 142.208 722.513 142.576C723.217 142.944 724.025 143.128 724.937 143.128C725.689 143.128 726.369 143 726.977 142.744C727.601 142.488 728.145 142.104 728.609 141.592L729.881 143.08C729.305 143.752 728.585 144.264 727.721 144.616C726.873 144.968 725.921 145.144 724.865 145.144ZM737.184 145.144C736.128 145.144 735.12 145 734.16 144.712C733.216 144.424 732.472 144.072 731.928 143.656L732.888 141.832C733.432 142.2 734.104 142.512 734.904 142.768C735.704 143.024 736.52 143.152 737.352 143.152C738.424 143.152 739.192 143 739.656 142.696C740.136 142.392 740.376 141.968 740.376 141.424C740.376 141.024 740.232 140.712 739.944 140.488C739.656 140.264 739.272 140.096 738.792 139.984C738.328 139.872 737.808 139.776 737.232 139.696C736.656 139.6 736.08 139.488 735.504 139.36C734.928 139.216 734.4 139.024 733.92 138.784C733.44 138.528 733.056 138.184 732.768 137.752C732.48 137.304 732.336 136.712 732.336 135.976C732.336 135.208 732.552 134.536 732.984 133.96C733.416 133.384 734.024 132.944 734.808 132.64C735.608 132.32 736.552 132.16 737.64 132.16C738.472 132.16 739.312 132.264 740.16 132.472C741.024 132.664 741.728 132.944 742.272 133.312L741.288 135.136C740.712 134.752 740.112 134.488 739.488 134.344C738.864 134.2 738.24 134.128 737.616 134.128C736.608 134.128 735.856 134.296 735.36 134.632C734.864 134.952 734.616 135.368 734.616 135.88C734.616 136.312 734.76 136.648 735.048 136.888C735.352 137.112 735.736 137.288 736.2 137.416C736.68 137.544 737.208 137.656 737.784 137.752C738.36 137.832 738.936 137.944 739.512 138.088C740.088 138.216 740.608 138.4 741.072 138.64C741.552 138.88 741.936 139.216 742.224 139.648C742.528 140.08 742.68 140.656 742.68 141.376C742.68 142.144 742.456 142.808 742.008 143.368C741.56 143.928 740.928 144.368 740.112 144.688C739.296 144.992 738.32 145.144 737.184 145.144ZM748.847 145.144C747.791 145.144 746.783 145 745.823 144.712C744.879 144.424 744.135 144.072 743.591 143.656L744.551 141.832C745.095 142.2 745.767 142.512 746.567 142.768C747.367 143.024 748.183 143.152 749.015 143.152C750.087 143.152 750.855 143 751.319 142.696C751.799 142.392 752.039 141.968 752.039 141.424C752.039 141.024 751.895 140.712 751.607 140.488C751.319 140.264 750.935 140.096 750.455 139.984C749.991 139.872 749.471 139.776 748.895 139.696C748.319 139.6 747.743 139.488 747.167 139.36C746.591 139.216 746.063 139.024 745.583 138.784C745.103 138.528 744.719 138.184 744.431 137.752C744.143 137.304 743.999 136.712 743.999 135.976C743.999 135.208 744.215 134.536 744.647 133.96C745.079 133.384 745.687 132.944 746.471 132.64C747.271 132.32 748.215 132.16 749.303 132.16C750.135 132.16 750.975 132.264 751.823 132.472C752.687 132.664 753.391 132.944 753.935 133.312L752.951 135.136C752.375 134.752 751.775 134.488 751.151 134.344C750.527 134.2 749.903 134.128 749.279 134.128C748.271 134.128 747.519 134.296 747.023 134.632C746.527 134.952 746.279 135.368 746.279 135.88C746.279 136.312 746.423 136.648 746.711 136.888C747.015 137.112 747.399 137.288 747.863 137.416C748.343 137.544 748.871 137.656 749.447 137.752C750.023 137.832 750.599 137.944 751.175 138.088C751.751 138.216 752.271 138.4 752.735 138.64C753.215 138.88 753.599 139.216 753.887 139.648C754.191 140.08 754.343 140.656 754.343 141.376C754.343 142.144 754.119 142.808 753.671 143.368C753.223 143.928 752.591 144.368 751.775 144.688C750.959 144.992 749.983 145.144 748.847 145.144ZM756.863 145V132.28H759.167V145H756.863ZM758.015 129.832C757.567 129.832 757.191 129.688 756.887 129.4C756.599 129.112 756.455 128.76 756.455 128.344C756.455 127.912 756.599 127.552 756.887 127.264C757.191 126.976 757.567 126.832 758.015 126.832C758.463 126.832 758.831 126.976 759.119 127.264C759.423 127.536 759.575 127.88 759.575 128.296C759.575 128.728 759.431 129.096 759.143 129.4C758.855 129.688 758.479 129.832 758.015 129.832ZM768.654 145.144C767.374 145.144 766.238 144.864 765.246 144.304C764.254 143.744 763.47 142.976 762.894 142C762.318 141.008 762.03 139.888 762.03 138.64C762.03 137.376 762.318 136.256 762.894 135.28C763.47 134.304 764.254 133.544 765.246 133C766.238 132.44 767.374 132.16 768.654 132.16C769.918 132.16 771.046 132.44 772.038 133C773.046 133.544 773.83 134.304 774.39 135.28C774.966 136.24 775.254 137.36 775.254 138.64C775.254 139.904 774.966 141.024 774.39 142C773.83 142.976 773.046 143.744 772.038 144.304C771.046 144.864 769.918 145.144 768.654 145.144ZM768.654 143.128C769.47 143.128 770.198 142.944 770.838 142.576C771.494 142.208 772.006 141.688 772.374 141.016C772.742 140.328 772.926 139.536 772.926 138.64C772.926 137.728 772.742 136.944 772.374 136.288C772.006 135.616 771.494 135.096 770.838 134.728C770.198 134.36 769.47 134.176 768.654 134.176C767.838 134.176 767.11 134.36 766.47 134.728C765.83 135.096 765.318 135.616 764.934 136.288C764.55 136.944 764.358 137.728 764.358 138.64C764.358 139.536 764.55 140.328 764.934 141.016C765.318 141.688 765.83 142.208 766.47 142.576C767.11 142.944 767.838 143.128 768.654 143.128ZM784.872 132.16C785.912 132.16 786.824 132.36 787.608 132.76C788.408 133.16 789.032 133.768 789.48 134.584C789.928 135.4 790.152 136.432 790.152 137.68V145H787.848V137.944C787.848 136.712 787.544 135.784 786.936 135.16C786.344 134.536 785.504 134.224 784.416 134.224C783.6 134.224 782.888 134.384 782.28 134.704C781.672 135.024 781.2 135.496 780.864 136.12C780.544 136.744 780.384 137.52 780.384 138.448V145H778.08V132.28H780.288V135.712L779.928 134.8C780.344 133.968 780.984 133.32 781.848 132.856C782.712 132.392 783.72 132.16 784.872 132.16Z" fill="#447DBF"/>
<path d="M329.576 203V196.568L330.128 198.056L322.904 186.2H325.472L331.544 196.208H330.152L336.248 186.2H338.624L331.424 198.056L331.952 196.568V203H329.576ZM344.381 203.144C343.101 203.144 341.965 202.864 340.973 202.304C339.981 201.744 339.197 200.976 338.621 200C338.045 199.008 337.757 197.888 337.757 196.64C337.757 195.376 338.045 194.256 338.621 193.28C339.197 192.304 339.981 191.544 340.973 191C341.965 190.44 343.101 190.16 344.381 190.16C345.645 190.16 346.773 190.44 347.765 191C348.773 191.544 349.557 192.304 350.117 193.28C350.693 194.24 350.981 195.36 350.981 196.64C350.981 197.904 350.693 199.024 350.117 200C349.557 200.976 348.773 201.744 347.765 202.304C346.773 202.864 345.645 203.144 344.381 203.144ZM344.381 201.128C345.197 201.128 345.925 200.944 346.565 200.576C347.221 200.208 347.733 199.688 348.101 199.016C348.469 198.328 348.653 197.536 348.653 196.64C348.653 195.728 348.469 194.944 348.101 194.288C347.733 193.616 347.221 193.096 346.565 192.728C345.925 192.36 345.197 192.176 344.381 192.176C343.565 192.176 342.837 192.36 342.197 192.728C341.557 193.096 341.045 193.616 340.661 194.288C340.277 194.944 340.085 195.728 340.085 196.64C340.085 197.536 340.277 198.328 340.661 199.016C341.045 199.688 341.557 200.208 342.197 200.576C342.837 200.944 343.565 201.128 344.381 201.128ZM359.16 203.144C358.072 203.144 357.112 202.944 356.28 202.544C355.464 202.144 354.824 201.536 354.36 200.72C353.912 199.888 353.688 198.848 353.688 197.6V190.28H355.992V197.336C355.992 198.584 356.288 199.52 356.88 200.144C357.488 200.768 358.336 201.08 359.424 201.08C360.224 201.08 360.92 200.92 361.512 200.6C362.104 200.264 362.56 199.784 362.88 199.16C363.2 198.52 363.36 197.752 363.36 196.856V190.28H365.664V203H363.48V199.568L363.84 200.48C363.424 201.328 362.8 201.984 361.968 202.448C361.136 202.912 360.2 203.144 359.16 203.144ZM369.69 203V190.28H371.898V193.736L371.682 192.872C372.034 191.992 372.626 191.32 373.458 190.856C374.29 190.392 375.314 190.16 376.53 190.16V192.392C376.434 192.376 376.338 192.368 376.242 192.368C376.162 192.368 376.082 192.368 376.002 192.368C374.77 192.368 373.794 192.736 373.074 193.472C372.354 194.208 371.994 195.272 371.994 196.664V203H369.69ZM389.627 203.144C388.347 203.144 387.355 202.8 386.651 202.112C385.947 201.424 385.595 200.44 385.595 199.16V187.496H387.899V199.064C387.899 199.752 388.067 200.28 388.403 200.648C388.755 201.016 389.251 201.2 389.891 201.2C390.611 201.2 391.211 201 391.691 200.6L392.411 202.256C392.059 202.56 391.635 202.784 391.139 202.928C390.659 203.072 390.155 203.144 389.627 203.144ZM383.435 192.176V190.28H391.547V192.176H383.435ZM394.836 203V190.28H397.14V203H394.836ZM395.988 187.832C395.54 187.832 395.164 187.688 394.86 187.4C394.572 187.112 394.428 186.76 394.428 186.344C394.428 185.912 394.572 185.552 394.86 185.264C395.164 184.976 395.54 184.832 395.988 184.832C396.436 184.832 396.804 184.976 397.092 185.264C397.396 185.536 397.548 185.88 397.548 186.296C397.548 186.728 397.404 187.096 397.116 187.4C396.828 187.688 396.452 187.832 395.988 187.832ZM417.092 190.16C418.116 190.16 419.02 190.36 419.804 190.76C420.588 191.16 421.196 191.768 421.628 192.584C422.076 193.4 422.3 194.432 422.3 195.68V203H419.996V195.944C419.996 194.712 419.708 193.784 419.132 193.16C418.556 192.536 417.748 192.224 416.708 192.224C415.94 192.224 415.268 192.384 414.692 192.704C414.116 193.024 413.668 193.496 413.348 194.12C413.044 194.744 412.892 195.52 412.892 196.448V203H410.588V195.944C410.588 194.712 410.3 193.784 409.724 193.16C409.164 192.536 408.356 192.224 407.3 192.224C406.548 192.224 405.884 192.384 405.308 192.704C404.732 193.024 404.284 193.496 403.964 194.12C403.644 194.744 403.484 195.52 403.484 196.448V203H401.18V190.28H403.388V193.664L403.028 192.8C403.428 191.968 404.044 191.32 404.876 190.856C405.708 190.392 406.676 190.16 407.78 190.16C408.996 190.16 410.044 190.464 410.924 191.072C411.804 191.664 412.38 192.568 412.652 193.784L411.716 193.4C412.1 192.424 412.772 191.64 413.732 191.048C414.692 190.456 415.812 190.16 417.092 190.16ZM431.843 203.144C430.483 203.144 429.283 202.864 428.243 202.304C427.219 201.744 426.419 200.976 425.843 200C425.283 199.024 425.003 197.904 425.003 196.64C425.003 195.376 425.275 194.256 425.819 193.28C426.379 192.304 427.139 191.544 428.099 191C429.075 190.44 430.171 190.16 431.387 190.16C432.619 190.16 433.707 190.432 434.651 190.976C435.595 191.52 436.331 192.288 436.859 193.28C437.403 194.256 437.675 195.4 437.675 196.712C437.675 196.808 437.667 196.92 437.651 197.048C437.651 197.176 437.643 197.296 437.627 197.408H426.803V195.752H436.427L435.491 196.328C435.507 195.512 435.339 194.784 434.987 194.144C434.635 193.504 434.147 193.008 433.523 192.656C432.915 192.288 432.203 192.104 431.387 192.104C430.587 192.104 429.875 192.288 429.251 192.656C428.627 193.008 428.139 193.512 427.787 194.168C427.435 194.808 427.259 195.544 427.259 196.376V196.76C427.259 197.608 427.451 198.368 427.835 199.04C428.235 199.696 428.787 200.208 429.491 200.576C430.195 200.944 431.003 201.128 431.915 201.128C432.667 201.128 433.347 201 433.955 200.744C434.579 200.488 435.123 200.104 435.587 199.592L436.859 201.08C436.283 201.752 435.563 202.264 434.699 202.616C433.851 202.968 432.899 203.144 431.843 203.144ZM446.936 203V189.152C446.936 187.904 447.296 186.912 448.016 186.176C448.752 185.424 449.792 185.048 451.136 185.048C451.632 185.048 452.104 185.112 452.552 185.24C453.016 185.352 453.408 185.536 453.728 185.792L453.032 187.544C452.792 187.352 452.52 187.208 452.216 187.112C451.912 187 451.592 186.944 451.256 186.944C450.584 186.944 450.072 187.136 449.72 187.52C449.368 187.888 449.192 188.44 449.192 189.176V190.88L449.24 191.936V203H446.936ZM444.776 192.176V190.28H452.888V192.176H444.776ZM459.961 203.144C458.681 203.144 457.545 202.864 456.553 202.304C455.561 201.744 454.777 200.976 454.201 200C453.625 199.008 453.337 197.888 453.337 196.64C453.337 195.376 453.625 194.256 454.201 193.28C454.777 192.304 455.561 191.544 456.553 191C457.545 190.44 458.681 190.16 459.961 190.16C461.225 190.16 462.353 190.44 463.345 191C464.353 191.544 465.137 192.304 465.697 193.28C466.273 194.24 466.561 195.36 466.561 196.64C466.561 197.904 466.273 199.024 465.697 200C465.137 200.976 464.353 201.744 463.345 202.304C462.353 202.864 461.225 203.144 459.961 203.144ZM459.961 201.128C460.777 201.128 461.505 200.944 462.145 200.576C462.801 200.208 463.313 199.688 463.681 199.016C464.049 198.328 464.233 197.536 464.233 196.64C464.233 195.728 464.049 194.944 463.681 194.288C463.313 193.616 462.801 193.096 462.145 192.728C461.505 192.36 460.777 192.176 459.961 192.176C459.145 192.176 458.417 192.36 457.777 192.728C457.137 193.096 456.625 193.616 456.241 194.288C455.857 194.944 455.665 195.728 455.665 196.64C455.665 197.536 455.857 198.328 456.241 199.016C456.625 199.688 457.137 200.208 457.777 200.576C458.417 200.944 459.145 201.128 459.961 201.128ZM469.387 203V190.28H471.595V193.736L471.379 192.872C471.731 191.992 472.323 191.32 473.155 190.856C473.987 190.392 475.011 190.16 476.227 190.16V192.392C476.131 192.376 476.035 192.368 475.939 192.368C475.859 192.368 475.779 192.368 475.699 192.368C474.467 192.368 473.491 192.736 472.771 193.472C472.051 194.208 471.691 195.272 471.691 196.664V203H469.387ZM485.293 203V186.2H487.693V203H485.293ZM498.818 190.16C499.858 190.16 500.77 190.36 501.554 190.76C502.354 191.16 502.978 191.768 503.426 192.584C503.874 193.4 504.098 194.432 504.098 195.68V203H501.794V195.944C501.794 194.712 501.49 193.784 500.882 193.16C500.29 192.536 499.45 192.224 498.362 192.224C497.546 192.224 496.834 192.384 496.226 192.704C495.618 193.024 495.146 193.496 494.81 194.12C494.49 194.744 494.33 195.52 494.33 196.448V203H492.026V190.28H494.234V193.712L493.874 192.8C494.29 191.968 494.93 191.32 495.794 190.856C496.658 190.392 497.666 190.16 498.818 190.16ZM512.37 203.144C511.09 203.144 510.098 202.8 509.394 202.112C508.69 201.424 508.338 200.44 508.338 199.16V187.496H510.642V199.064C510.642 199.752 510.81 200.28 511.146 200.648C511.498 201.016 511.994 201.2 512.634 201.2C513.354 201.2 513.954 201 514.434 200.6L515.154 202.256C514.802 202.56 514.378 202.784 513.882 202.928C513.402 203.072 512.898 203.144 512.37 203.144ZM506.178 192.176V190.28H514.29V192.176H506.178ZM522.822 203.144C521.462 203.144 520.262 202.864 519.222 202.304C518.198 201.744 517.398 200.976 516.822 200C516.262 199.024 515.982 197.904 515.982 196.64C515.982 195.376 516.254 194.256 516.798 193.28C517.358 192.304 518.118 191.544 519.078 191C520.054 190.44 521.15 190.16 522.366 190.16C523.598 190.16 524.686 190.432 525.63 190.976C526.574 191.52 527.31 192.288 527.838 193.28C528.382 194.256 528.654 195.4 528.654 196.712C528.654 196.808 528.646 196.92 528.63 197.048C528.63 197.176 528.622 197.296 528.606 197.408H517.782V195.752H527.406L526.47 196.328C526.486 195.512 526.318 194.784 525.966 194.144C525.614 193.504 525.126 193.008 524.502 192.656C523.894 192.288 523.182 192.104 522.366 192.104C521.566 192.104 520.854 192.288 520.23 192.656C519.606 193.008 519.118 193.512 518.766 194.168C518.414 194.808 518.238 195.544 518.238 196.376V196.76C518.238 197.608 518.43 198.368 518.814 199.04C519.214 199.696 519.766 200.208 520.47 200.576C521.174 200.944 521.982 201.128 522.894 201.128C523.646 201.128 524.326 201 524.934 200.744C525.558 200.488 526.102 200.104 526.566 199.592L527.838 201.08C527.262 201.752 526.542 202.264 525.678 202.616C524.83 202.968 523.878 203.144 522.822 203.144ZM531.493 203V185.192H533.797V203H531.493ZM537.836 203V185.192H540.14V203H537.836ZM544.179 203V190.28H546.483V203H544.179ZM545.331 187.832C544.883 187.832 544.507 187.688 544.203 187.4C543.915 187.112 543.771 186.76 543.771 186.344C543.771 185.912 543.915 185.552 544.203 185.264C544.507 184.976 544.883 184.832 545.331 184.832C545.779 184.832 546.147 184.976 546.435 185.264C546.739 185.536 546.891 185.88 546.891 186.296C546.891 186.728 546.747 187.096 546.459 187.4C546.171 187.688 545.795 187.832 545.331 187.832ZM548.89 207.8C548.362 207.8 547.858 207.736 547.378 207.608C546.882 207.48 546.466 207.288 546.13 207.032L546.874 205.256C547.354 205.656 547.978 205.856 548.746 205.856C549.354 205.856 549.818 205.664 550.138 205.28C550.474 204.912 550.642 204.36 550.642 203.624V190.28H552.946V203.576C552.946 204.872 552.594 205.896 551.89 206.648C551.202 207.416 550.202 207.8 548.89 207.8ZM551.794 187.832C551.346 187.832 550.97 187.688 550.666 187.4C550.378 187.112 550.234 186.76 550.234 186.344C550.234 185.912 550.378 185.552 550.666 185.264C550.97 184.976 551.346 184.832 551.794 184.832C552.242 184.832 552.61 184.976 552.898 185.264C553.202 185.536 553.354 185.88 553.354 186.296C553.354 186.728 553.21 187.096 552.922 187.4C552.634 187.688 552.258 187.832 551.794 187.832ZM566.716 203.144C565.66 203.144 564.652 203 563.692 202.712C562.748 202.424 562.004 202.072 561.46 201.656L562.42 199.832C562.964 200.2 563.636 200.512 564.436 200.768C565.236 201.024 566.052 201.152 566.884 201.152C567.956 201.152 568.724 201 569.188 200.696C569.668 200.392 569.908 199.968 569.908 199.424C569.908 199.024 569.764 198.712 569.476 198.488C569.188 198.264 568.804 198.096 568.324 197.984C567.86 197.872 567.34 197.776 566.764 197.696C566.188 197.6 565.612 197.488 565.036 197.36C564.46 197.216 563.932 197.024 563.452 196.784C562.972 196.528 562.588 196.184 562.3 195.752C562.012 195.304 561.868 194.712 561.868 193.976C561.868 193.208 562.084 192.536 562.516 191.96C562.948 191.384 563.556 190.944 564.34 190.64C565.14 190.32 566.084 190.16 567.172 190.16C568.004 190.16 568.844 190.264 569.692 190.472C570.556 190.664 571.26 190.944 571.804 191.312L570.82 193.136C570.244 192.752 569.644 192.488 569.02 192.344C568.396 192.2 567.772 192.128 567.148 192.128C566.14 192.128 565.388 192.296 564.892 192.632C564.396 192.952 564.148 193.368 564.148 193.88C564.148 194.312 564.292 194.648 564.58 194.888C564.884 195.112 565.268 195.288 565.732 195.416C566.212 195.544 566.74 195.656 567.316 195.752C567.892 195.832 568.468 195.944 569.044 196.088C569.62 196.216 570.14 196.4 570.604 196.64C571.084 196.88 571.468 197.216 571.756 197.648C572.06 198.08 572.212 198.656 572.212 199.376C572.212 200.144 571.988 200.808 571.54 201.368C571.092 201.928 570.46 202.368 569.644 202.688C568.828 202.992 567.852 203.144 566.716 203.144ZM579.1 203.144C577.82 203.144 576.828 202.8 576.124 202.112C575.42 201.424 575.068 200.44 575.068 199.16V187.496H577.372V199.064C577.372 199.752 577.54 200.28 577.876 200.648C578.228 201.016 578.724 201.2 579.364 201.2C580.084 201.2 580.684 201 581.164 200.6L581.884 202.256C581.532 202.56 581.108 202.784 580.612 202.928C580.132 203.072 579.628 203.144 579.1 203.144ZM572.908 192.176V190.28H581.02V192.176H572.908ZM592.205 203V200.312L592.085 199.808V195.224C592.085 194.248 591.797 193.496 591.221 192.968C590.661 192.424 589.813 192.152 588.677 192.152C587.925 192.152 587.189 192.28 586.469 192.536C585.749 192.776 585.141 193.104 584.645 193.52L583.685 191.792C584.341 191.264 585.125 190.864 586.037 190.592C586.965 190.304 587.933 190.16 588.941 190.16C590.685 190.16 592.029 190.584 592.973 191.432C593.917 192.28 594.389 193.576 594.389 195.32V203H592.205ZM588.029 203.144C587.085 203.144 586.253 202.984 585.533 202.664C584.829 202.344 584.285 201.904 583.901 201.344C583.517 200.768 583.325 200.12 583.325 199.4C583.325 198.712 583.485 198.088 583.805 197.528C584.141 196.968 584.677 196.52 585.413 196.184C586.165 195.848 587.173 195.68 588.437 195.68H592.469V197.336H588.533C587.381 197.336 586.605 197.528 586.205 197.912C585.805 198.296 585.605 198.76 585.605 199.304C585.605 199.928 585.853 200.432 586.349 200.816C586.845 201.184 587.533 201.368 588.413 201.368C589.277 201.368 590.029 201.176 590.669 200.792C591.325 200.408 591.797 199.848 592.085 199.112L592.541 200.696C592.237 201.448 591.701 202.048 590.933 202.496C590.165 202.928 589.197 203.144 588.029 203.144ZM598.293 203V190.28H600.501V193.736L600.285 192.872C600.637 191.992 601.229 191.32 602.061 190.856C602.893 190.392 603.917 190.16 605.133 190.16V192.392C605.037 192.376 604.941 192.368 604.845 192.368C604.765 192.368 604.685 192.368 604.605 192.368C603.373 192.368 602.397 192.736 601.677 193.472C600.957 194.208 600.597 195.272 600.597 196.664V203H598.293ZM612.496 203.144C611.216 203.144 610.224 202.8 609.52 202.112C608.816 201.424 608.464 200.44 608.464 199.16V187.496H610.768V199.064C610.768 199.752 610.936 200.28 611.272 200.648C611.624 201.016 612.12 201.2 612.76 201.2C613.48 201.2 614.08 201 614.56 200.6L615.28 202.256C614.928 202.56 614.504 202.784 614.008 202.928C613.528 203.072 613.024 203.144 612.496 203.144ZM606.304 192.176V190.28H614.416V192.176H606.304ZM621.354 203.144C620.298 203.144 619.29 203 618.33 202.712C617.386 202.424 616.642 202.072 616.098 201.656L617.058 199.832C617.602 200.2 618.274 200.512 619.074 200.768C619.874 201.024 620.69 201.152 621.522 201.152C622.594 201.152 623.362 201 623.826 200.696C624.306 200.392 624.546 199.968 624.546 199.424C624.546 199.024 624.402 198.712 624.114 198.488C623.826 198.264 623.442 198.096 622.962 197.984C622.498 197.872 621.978 197.776 621.402 197.696C620.826 197.6 620.25 197.488 619.674 197.36C619.098 197.216 618.57 197.024 618.09 196.784C617.61 196.528 617.226 196.184 616.938 195.752C616.65 195.304 616.506 194.712 616.506 193.976C616.506 193.208 616.722 192.536 617.154 191.96C617.586 191.384 618.194 190.944 618.978 190.64C619.778 190.32 620.722 190.16 621.81 190.16C622.642 190.16 623.482 190.264 624.33 190.472C625.194 190.664 625.898 190.944 626.442 191.312L625.458 193.136C624.882 192.752 624.282 192.488 623.658 192.344C623.034 192.2 622.41 192.128 621.786 192.128C620.778 192.128 620.026 192.296 619.53 192.632C619.034 192.952 618.786 193.368 618.786 193.88C618.786 194.312 618.93 194.648 619.218 194.888C619.522 195.112 619.906 195.288 620.37 195.416C620.85 195.544 621.378 195.656 621.954 195.752C622.53 195.832 623.106 195.944 623.682 196.088C624.258 196.216 624.778 196.4 625.242 196.64C625.722 196.88 626.106 197.216 626.394 197.648C626.698 198.08 626.85 198.656 626.85 199.376C626.85 200.144 626.626 200.808 626.178 201.368C625.73 201.928 625.098 202.368 624.282 202.688C623.466 202.992 622.49 203.144 621.354 203.144ZM629.921 203.144C629.473 203.144 629.089 202.992 628.769 202.688C628.449 202.368 628.289 201.968 628.289 201.488C628.289 201.008 628.449 200.616 628.769 200.312C629.089 200.008 629.473 199.856 629.921 199.856C630.353 199.856 630.721 200.008 631.025 200.312C631.345 200.616 631.505 201.008 631.505 201.488C631.505 201.968 631.345 202.368 631.025 202.688C630.721 202.992 630.353 203.144 629.921 203.144ZM326.984 235V219.16L328.016 220.288H323.192V218.2H329.36V235H326.984ZM340.499 222.16C341.539 222.16 342.451 222.36 343.235 222.76C344.035 223.16 344.659 223.768 345.107 224.584C345.555 225.4 345.779 226.432 345.779 227.68V235H343.475V227.944C343.475 226.712 343.171 225.784 342.563 225.16C341.971 224.536 341.131 224.224 340.043 224.224C339.227 224.224 338.515 224.384 337.907 224.704C337.299 225.024 336.827 225.496 336.491 226.12C336.171 226.744 336.011 227.52 336.011 228.448V235H333.707V217.192H336.011V225.712L335.555 224.8C335.971 223.968 336.611 223.32 337.475 222.856C338.339 222.392 339.347 222.16 340.499 222.16ZM349.683 235V222.28H351.891V225.736L351.675 224.872C352.027 223.992 352.619 223.32 353.451 222.856C354.283 222.392 355.307 222.16 356.523 222.16V224.392C356.427 224.376 356.331 224.368 356.235 224.368C356.155 224.368 356.075 224.368 355.995 224.368C354.763 224.368 353.787 224.736 353.067 225.472C352.347 226.208 351.987 227.272 351.987 228.664V235H349.683ZM369.356 235.192C368.172 235.192 367.02 235.008 365.9 234.64C364.796 234.272 363.892 233.776 363.188 233.152L364.292 231.256C364.852 231.784 365.58 232.216 366.476 232.552C367.372 232.888 368.332 233.056 369.356 233.056C370.604 233.056 371.572 232.792 372.26 232.264C372.964 231.72 373.316 230.992 373.316 230.08C373.316 229.2 372.98 228.496 372.308 227.968C371.652 227.424 370.604 227.152 369.164 227.152H367.82V225.472L372.812 219.328L373.148 220.288H363.956V218.2H375.044V219.832L370.076 225.952L368.828 225.208H369.62C371.652 225.208 373.172 225.664 374.18 226.576C375.204 227.488 375.716 228.648 375.716 230.056C375.716 231 375.484 231.864 375.02 232.648C374.556 233.432 373.852 234.056 372.908 234.52C371.98 234.968 370.796 235.192 369.356 235.192ZM384.458 235.192C383.146 235.192 381.97 234.856 380.93 234.184C379.906 233.512 379.09 232.536 378.482 231.256C377.89 229.976 377.594 228.424 377.594 226.6C377.594 224.776 377.89 223.224 378.482 221.944C379.09 220.664 379.906 219.688 380.93 219.016C381.97 218.344 383.146 218.008 384.458 218.008C385.754 218.008 386.922 218.344 387.962 219.016C389.002 219.688 389.818 220.664 390.41 221.944C391.002 223.224 391.298 224.776 391.298 226.6C391.298 228.424 391.002 229.976 390.41 231.256C389.818 232.536 389.002 233.512 387.962 234.184C386.922 234.856 385.754 235.192 384.458 235.192ZM384.458 233.056C385.338 233.056 386.106 232.816 386.762 232.336C387.434 231.856 387.954 231.136 388.322 230.176C388.706 229.216 388.898 228.024 388.898 226.6C388.898 225.176 388.706 223.984 388.322 223.024C387.954 222.064 387.434 221.344 386.762 220.864C386.106 220.384 385.338 220.144 384.458 220.144C383.578 220.144 382.802 220.384 382.13 220.864C381.458 221.344 380.93 222.064 380.546 223.024C380.178 223.984 379.994 225.176 379.994 226.6C379.994 228.024 380.178 229.216 380.546 230.176C380.93 231.136 381.458 231.856 382.13 232.336C382.802 232.816 383.578 233.056 384.458 233.056ZM400.695 235V218.2H402.663L410.199 230.896H409.143L416.583 218.2H418.551L418.575 235H416.271L416.247 221.824H416.799L410.175 232.96H409.071L402.399 221.824H402.999V235H400.695ZM422.921 235V222.28H425.225V235H422.921ZM424.073 219.832C423.625 219.832 423.249 219.688 422.945 219.4C422.657 219.112 422.513 218.76 422.513 218.344C422.513 217.912 422.657 217.552 422.945 217.264C423.249 216.976 423.625 216.832 424.073 216.832C424.521 216.832 424.889 216.976 425.177 217.264C425.481 217.536 425.633 217.88 425.633 218.296C425.633 218.728 425.489 219.096 425.201 219.4C424.913 219.688 424.537 219.832 424.073 219.832ZM436.056 222.16C437.096 222.16 438.008 222.36 438.792 222.76C439.592 223.16 440.216 223.768 440.664 224.584C441.112 225.4 441.336 226.432 441.336 227.68V235H439.032V227.944C439.032 226.712 438.728 225.784 438.12 225.16C437.528 224.536 436.688 224.224 435.6 224.224C434.784 224.224 434.072 224.384 433.464 224.704C432.856 225.024 432.384 225.496 432.048 226.12C431.728 226.744 431.568 227.52 431.568 228.448V235H429.264V222.28H431.472V225.712L431.112 224.8C431.528 223.968 432.168 223.32 433.032 222.856C433.896 222.392 434.904 222.16 436.056 222.16ZM448.888 235.144C447.832 235.144 446.824 235 445.864 234.712C444.92 234.424 444.176 234.072 443.632 233.656L444.592 231.832C445.136 232.2 445.808 232.512 446.608 232.768C447.408 233.024 448.224 233.152 449.056 233.152C450.128 233.152 450.896 233 451.36 232.696C451.84 232.392 452.08 231.968 452.08 231.424C452.08 231.024 451.936 230.712 451.648 230.488C451.36 230.264 450.976 230.096 450.496 229.984C450.032 229.872 449.512 229.776 448.936 229.696C448.36 229.6 447.784 229.488 447.208 229.36C446.632 229.216 446.104 229.024 445.624 228.784C445.144 228.528 444.76 228.184 444.472 227.752C444.184 227.304 444.04 226.712 444.04 225.976C444.04 225.208 444.256 224.536 444.688 223.96C445.12 223.384 445.728 222.944 446.512 222.64C447.312 222.32 448.256 222.16 449.344 222.16C450.176 222.16 451.016 222.264 451.864 222.472C452.728 222.664 453.432 222.944 453.976 223.312L452.992 225.136C452.416 224.752 451.816 224.488 451.192 224.344C450.568 224.2 449.944 224.128 449.32 224.128C448.312 224.128 447.56 224.296 447.064 224.632C446.568 224.952 446.32 225.368 446.32 225.88C446.32 226.312 446.464 226.648 446.752 226.888C447.056 227.112 447.44 227.288 447.904 227.416C448.384 227.544 448.912 227.656 449.488 227.752C450.064 227.832 450.64 227.944 451.216 228.088C451.792 228.216 452.312 228.4 452.776 228.64C453.256 228.88 453.64 229.216 453.928 229.648C454.232 230.08 454.384 230.656 454.384 231.376C454.384 232.144 454.16 232.808 453.712 233.368C453.264 233.928 452.632 234.368 451.816 234.688C451 234.992 450.024 235.144 448.888 235.144Z" fill="#2F2E41"/>
<path d="M134.495 195.827L102.608 170.728L118.448 141.307L163.912 159L134.495 195.827Z" fill="#F57C00"/>
<path d="M232.834 128.348L230.365 204.468L179.756 224.833L149.308 205.083L193.745 159L232.834 128.348Z" fill="#1E88E5"/>
<path d="M232.833 128.348L192.715 175.666L174.406 116.208L191.895 95.2239L232.833 128.348Z" fill="#2962FF"/>
<path d="M202.181 144.599L164.531 202.41L111.864 221.542L120.301 191.917L131.203 155.297L202.181 144.599Z" fill="#AB47BC"/>
<path d="M131.203 155.297L101.167 145.218L120.301 93.1667L161.447 98.1042L202.182 144.599L131.203 155.297Z" fill="#E91E63"/>
<path d="M124.208 116.208H206.5V198.5H124.208V116.208Z" fill="#000001"/>
<path d="M134.083 183.687H163.708V188.625H134.083V183.687ZM155.479 132.255V126.083H139.021V132.255H143.958V153.651H139.021V159.823H155.479V153.651H151.065V132.255H155.479ZM171.526 160.646C165.354 160.646 162.075 157.032 160.828 155.55L165.472 150.267C166.312 151.195 168.646 153.651 171.526 153.651C175.229 153.651 176.052 149.948 176.052 147.891V126.083H183.458V147.891C183.458 149.945 183.458 153.24 180.989 156.531C179.261 158.835 175.229 160.646 171.526 160.646Z" fill="white"/>
<defs>
<filter id="filter0_d_280_92" x="0" y="0" width="853" height="326" filterUnits="userSpaceOnUse" color-interpolation-filters="sRGB">
<feFlood flood-opacity="0" result="BackgroundImageFix"/>
<feColorMatrix in="SourceAlpha" type="matrix" values="0 0 0 0 0 0 0 0 0 0 0 0 0 0 0 0 0 0 127 0" result="hardAlpha"/>
<feOffset dy="4"/>
<feGaussianBlur stdDeviation="12"/>
<feComposite in2="hardAlpha" operator="out"/>
<feColorMatrix type="matrix" values="0 0 0 0 0 0 0 0 0 0 0 0 0 0 0 0 0 0 0.25 0"/>
<feBlend mode="normal" in2="BackgroundImageFix" result="effect1_dropShadow_280_92"/>
<feBlend mode="normal" in="SourceGraphic" in2="effect1_dropShadow_280_92" result="shape"/>
</filter>
<linearGradient id="paint0_linear_280_92" x1="166.5" y1="41" x2="166.5" y2="278" gradientUnits="userSpaceOnUse">
<stop stop-color="#FFB7B7"/>
<stop offset="1" stop-color="#6379C6"/>
</linearGradient>
</defs>
</svg>
