<svg width="420" height="128" viewBox="0 0 420 128" fill="none" xmlns="http://www.w3.org/2000/svg">
<rect width="420" height="128" rx="21" fill="#E2EAFF"/>
<path d="M21.52 36V19.2H23.92V33.912H33.016V36H21.52ZM32.866 36L40.474 19.2H42.85L50.482 36H47.962L41.17 20.544H42.13L35.338 36H32.866ZM36.106 31.8L36.754 29.88H46.21L46.906 31.8H36.106ZM52.6281 36V19.2H60.1641C62.1001 19.2 63.5881 19.592 64.6281 20.376C65.6681 21.144 66.1881 22.2 66.1881 23.544C66.1881 24.456 65.9801 25.224 65.5641 25.848C65.1641 26.472 64.6201 26.952 63.9321 27.288C63.2441 27.624 62.5001 27.792 61.7001 27.792L62.1321 27.072C63.0921 27.072 63.9401 27.24 64.6761 27.576C65.4121 27.912 65.9961 28.408 66.4281 29.064C66.8601 29.704 67.0761 30.504 67.0761 31.464C67.0761 32.904 66.5321 34.024 65.4441 34.824C64.3721 35.608 62.7721 36 60.6441 36H52.6281ZM55.0281 34.056H60.5481C61.8761 34.056 62.8921 33.832 63.5961 33.384C64.3001 32.936 64.6521 32.232 64.6521 31.272C64.6521 30.296 64.3001 29.584 63.5961 29.136C62.8921 28.688 61.8761 28.464 60.5481 28.464H54.8121V26.52H59.9481C61.1641 26.52 62.1081 26.296 62.7801 25.848C63.4521 25.4 63.7881 24.728 63.7881 23.832C63.7881 22.936 63.4521 22.264 62.7801 21.816C62.1081 21.368 61.1641 21.144 59.9481 21.144H55.0281V34.056ZM75.3655 30.408V28.416H81.8215V30.408H75.3655ZM92.8943 36V20.16L93.9263 21.288H89.1023V19.2H95.2703V36H92.8943Z" fill="#2F2E41"/>
<path d="M25.688 64.128C24.8347 64.128 24.0453 63.9893 23.32 63.712C22.6053 63.424 21.9813 63.024 21.448 62.512C20.9253 61.9893 20.5147 61.3813 20.216 60.688C19.9173 59.9947 19.768 59.232 19.768 58.4C19.768 57.568 19.9173 56.8053 20.216 56.112C20.5147 55.4187 20.9307 54.816 21.464 54.304C21.9973 53.7813 22.6213 53.3813 23.336 53.104C24.0613 52.816 24.8507 52.672 25.704 52.672C26.568 52.672 27.3627 52.8213 28.088 53.12C28.824 53.408 29.448 53.84 29.96 54.416L28.92 55.424C28.4933 54.976 28.0133 54.6453 27.48 54.432C26.9467 54.208 26.376 54.096 25.768 54.096C25.1387 54.096 24.552 54.2027 24.008 54.416C23.4747 54.6293 23.0107 54.928 22.616 55.312C22.2213 55.696 21.912 56.1547 21.688 56.688C21.4747 57.2107 21.368 57.7813 21.368 58.4C21.368 59.0187 21.4747 59.5947 21.688 60.128C21.912 60.6507 22.2213 61.104 22.616 61.488C23.0107 61.872 23.4747 62.1707 24.008 62.384C24.552 62.5973 25.1387 62.704 25.768 62.704C26.376 62.704 26.9467 62.5973 27.48 62.384C28.0133 62.16 28.4933 61.8187 28.92 61.36L29.96 62.368C29.448 62.944 28.824 63.3813 28.088 63.68C27.3627 63.9787 26.5627 64.128 25.688 64.128ZM31.7785 64V52.128H33.3145V64H31.7785ZM36.0073 64V55.52H37.5433V64H36.0073ZM36.7753 53.888C36.4766 53.888 36.2259 53.792 36.0233 53.6C35.8313 53.408 35.7353 53.1733 35.7353 52.896C35.7353 52.608 35.8313 52.368 36.0233 52.176C36.2259 51.984 36.4766 51.888 36.7753 51.888C37.0739 51.888 37.3193 51.984 37.5113 52.176C37.7139 52.3573 37.8153 52.5867 37.8153 52.864C37.8153 53.152 37.7193 53.3973 37.5273 53.6C37.3353 53.792 37.0846 53.888 36.7753 53.888ZM43.932 64.096C43.068 64.096 42.2947 63.9093 41.612 63.536C40.94 63.1627 40.412 62.6507 40.028 62C39.644 61.3493 39.452 60.6027 39.452 59.76C39.452 58.9173 39.644 58.1707 40.028 57.52C40.412 56.8693 40.94 56.3627 41.612 56C42.2947 55.6267 43.068 55.44 43.932 55.44C44.7 55.44 45.3827 55.5947 45.98 55.904C46.588 56.2027 47.0573 56.6507 47.388 57.248L46.22 58C45.9427 57.584 45.6013 57.28 45.196 57.088C44.8013 56.8853 44.3747 56.784 43.916 56.784C43.3613 56.784 42.8653 56.9067 42.428 57.152C41.9907 57.3973 41.644 57.744 41.388 58.192C41.132 58.6293 41.004 59.152 41.004 59.76C41.004 60.368 41.132 60.896 41.388 61.344C41.644 61.792 41.9907 62.1387 42.428 62.384C42.8653 62.6293 43.3613 62.752 43.916 62.752C44.3747 62.752 44.8013 62.656 45.196 62.464C45.6013 62.2613 45.9427 61.952 46.22 61.536L47.388 62.272C47.0573 62.8587 46.588 63.312 45.98 63.632C45.3827 63.9413 44.7 64.096 43.932 64.096ZM50.2753 61.952L50.3073 59.984L55.1873 55.52H57.0433L53.2993 59.2L52.4673 59.904L50.2753 61.952ZM49.0273 64V52.128H50.5633V64H49.0273ZM55.5073 64L52.1793 59.872L53.1713 58.64L57.3953 64H55.5073ZM67.2315 55.44C67.9248 55.44 68.5328 55.5733 69.0555 55.84C69.5888 56.1067 70.0048 56.512 70.3035 57.056C70.6022 57.6 70.7515 58.288 70.7515 59.12V64H69.2155V59.296C69.2155 58.4747 69.0128 57.856 68.6075 57.44C68.2128 57.024 67.6528 56.816 66.9275 56.816C66.3835 56.816 65.9088 56.9227 65.5035 57.136C65.0982 57.3493 64.7835 57.664 64.5595 58.08C64.3462 58.496 64.2395 59.0133 64.2395 59.632V64H62.7035V52.128H64.2395V57.808L63.9355 57.2C64.2128 56.6453 64.6395 56.2133 65.2155 55.904C65.7915 55.5947 66.4635 55.44 67.2315 55.44ZM77.1301 64.096C76.2235 64.096 75.4235 63.9093 74.7301 63.536C74.0475 63.1627 73.5141 62.6507 73.1301 62C72.7568 61.3493 72.5701 60.6027 72.5701 59.76C72.5701 58.9173 72.7515 58.1707 73.1141 57.52C73.4875 56.8693 73.9941 56.3627 74.6341 56C75.2848 55.6267 76.0155 55.44 76.8261 55.44C77.6475 55.44 78.3728 55.6213 79.0021 55.984C79.6315 56.3467 80.1221 56.8587 80.4741 57.52C80.8368 58.1707 81.0181 58.9333 81.0181 59.808C81.0181 59.872 81.0128 59.9467 81.0021 60.032C81.0021 60.1173 80.9968 60.1973 80.9861 60.272H73.7701V59.168H80.1861L79.5621 59.552C79.5728 59.008 79.4608 58.5227 79.2261 58.096C78.9915 57.6693 78.6661 57.3387 78.2501 57.104C77.8448 56.8587 77.3701 56.736 76.8261 56.736C76.2928 56.736 75.8181 56.8587 75.4021 57.104C74.9861 57.3387 74.6608 57.6747 74.4261 58.112C74.1915 58.5387 74.0741 59.0293 74.0741 59.584V59.84C74.0741 60.4053 74.2021 60.912 74.4581 61.36C74.7248 61.7973 75.0928 62.1387 75.5621 62.384C76.0315 62.6293 76.5701 62.752 77.1781 62.752C77.6795 62.752 78.1328 62.6667 78.5381 62.496C78.9541 62.3253 79.3168 62.0693 79.6261 61.728L80.4741 62.72C80.0901 63.168 79.6101 63.5093 79.0341 63.744C78.4688 63.9787 77.8341 64.096 77.1301 64.096ZM82.911 64V55.52H84.383V57.824L84.239 57.248C84.4737 56.6613 84.8683 56.2133 85.423 55.904C85.9777 55.5947 86.6603 55.44 87.471 55.44V56.928C87.407 56.9173 87.343 56.912 87.279 56.912C87.2257 56.912 87.1723 56.912 87.119 56.912C86.2977 56.912 85.647 57.1573 85.167 57.648C84.687 58.1387 84.447 58.848 84.447 59.776V64H82.911ZM92.822 64.096C91.9153 64.096 91.1153 63.9093 90.422 63.536C89.7393 63.1627 89.206 62.6507 88.822 62C88.4487 61.3493 88.262 60.6027 88.262 59.76C88.262 58.9173 88.4433 58.1707 88.806 57.52C89.1793 56.8693 89.686 56.3627 90.326 56C90.9767 55.6267 91.7073 55.44 92.518 55.44C93.3393 55.44 94.0647 55.6213 94.694 55.984C95.3233 56.3467 95.814 56.8587 96.166 57.52C96.5287 58.1707 96.71 58.9333 96.71 59.808C96.71 59.872 96.7047 59.9467 96.694 60.032C96.694 60.1173 96.6887 60.1973 96.678 60.272H89.462V59.168H95.878L95.254 59.552C95.2647 59.008 95.1527 58.5227 94.918 58.096C94.6833 57.6693 94.358 57.3387 93.942 57.104C93.5367 56.8587 93.062 56.736 92.518 56.736C91.9847 56.736 91.51 56.8587 91.094 57.104C90.678 57.3387 90.3527 57.6747 90.118 58.112C89.8833 58.5387 89.766 59.0293 89.766 59.584V59.84C89.766 60.4053 89.894 60.912 90.15 61.36C90.4167 61.7973 90.7847 62.1387 91.254 62.384C91.7233 62.6293 92.262 62.752 92.87 62.752C93.3713 62.752 93.8247 62.6667 94.23 62.496C94.646 62.3253 95.0087 62.0693 95.318 61.728L96.166 62.72C95.782 63.168 95.302 63.5093 94.726 63.744C94.1607 63.9787 93.526 64.096 92.822 64.096ZM102.884 64V54.768C102.884 53.936 103.124 53.2747 103.604 52.784C104.094 52.2827 104.788 52.032 105.684 52.032C106.014 52.032 106.329 52.0747 106.628 52.16C106.937 52.2347 107.198 52.3573 107.412 52.528L106.948 53.696C106.788 53.568 106.606 53.472 106.404 53.408C106.201 53.3333 105.988 53.296 105.764 53.296C105.316 53.296 104.974 53.424 104.74 53.68C104.505 53.9253 104.388 54.2933 104.388 54.784V55.92L104.42 56.624V64H102.884ZM101.444 56.784V55.52H106.852V56.784H101.444ZM111.567 64.096C110.714 64.096 109.957 63.9093 109.295 63.536C108.634 63.1627 108.111 62.6507 107.727 62C107.343 61.3387 107.151 60.592 107.151 59.76C107.151 58.9173 107.343 58.1707 107.727 57.52C108.111 56.8693 108.634 56.3627 109.295 56C109.957 55.6267 110.714 55.44 111.567 55.44C112.41 55.44 113.162 55.6267 113.823 56C114.495 56.3627 115.018 56.8693 115.391 57.52C115.775 58.16 115.967 58.9067 115.967 59.76C115.967 60.6027 115.775 61.3493 115.391 62C115.018 62.6507 114.495 63.1627 113.823 63.536C113.162 63.9093 112.41 64.096 111.567 64.096ZM111.567 62.752C112.111 62.752 112.597 62.6293 113.023 62.384C113.461 62.1387 113.802 61.792 114.047 61.344C114.293 60.8853 114.415 60.3573 114.415 59.76C114.415 59.152 114.293 58.6293 114.047 58.192C113.802 57.744 113.461 57.3973 113.023 57.152C112.597 56.9067 112.111 56.784 111.567 56.784C111.023 56.784 110.538 56.9067 110.111 57.152C109.685 57.3973 109.343 57.744 109.087 58.192C108.831 58.6293 108.703 59.152 108.703 59.76C108.703 60.3573 108.831 60.8853 109.087 61.344C109.343 61.792 109.685 62.1387 110.111 62.384C110.538 62.6293 111.023 62.752 111.567 62.752ZM117.852 64V55.52H119.324V57.824L119.18 57.248C119.414 56.6613 119.809 56.2133 120.364 55.904C120.918 55.5947 121.601 55.44 122.412 55.44V56.928C122.348 56.9173 122.284 56.912 122.22 56.912C122.166 56.912 122.113 56.912 122.06 56.912C121.238 56.912 120.588 57.1573 120.108 57.648C119.628 58.1387 119.388 58.848 119.388 59.776V64H117.852ZM138.839 55.44C139.522 55.44 140.124 55.5733 140.647 55.84C141.17 56.1067 141.575 56.512 141.863 57.056C142.162 57.6 142.311 58.288 142.311 59.12V64H140.775V59.296C140.775 58.4747 140.583 57.856 140.199 57.44C139.815 57.024 139.276 56.816 138.583 56.816C138.071 56.816 137.623 56.9227 137.239 57.136C136.855 57.3493 136.556 57.664 136.343 58.08C136.14 58.496 136.039 59.0133 136.039 59.632V64H134.503V59.296C134.503 58.4747 134.311 57.856 133.927 57.44C133.554 57.024 133.015 56.816 132.311 56.816C131.81 56.816 131.367 56.9227 130.983 57.136C130.599 57.3493 130.3 57.664 130.087 58.08C129.874 58.496 129.767 59.0133 129.767 59.632V64H128.231V55.52H129.703V57.776L129.463 57.2C129.73 56.6453 130.14 56.2133 130.695 55.904C131.25 55.5947 131.895 55.44 132.631 55.44C133.442 55.44 134.14 55.6427 134.727 56.048C135.314 56.4427 135.698 57.0453 135.879 57.856L135.255 57.6C135.511 56.9493 135.959 56.4267 136.599 56.032C137.239 55.6373 137.986 55.44 138.839 55.44ZM148.529 64.096C147.676 64.096 146.919 63.9093 146.257 63.536C145.596 63.1627 145.073 62.6507 144.689 62C144.305 61.3387 144.113 60.592 144.113 59.76C144.113 58.9173 144.305 58.1707 144.689 57.52C145.073 56.8693 145.596 56.3627 146.257 56C146.919 55.6267 147.676 55.44 148.529 55.44C149.372 55.44 150.124 55.6267 150.785 56C151.457 56.3627 151.98 56.8693 152.353 57.52C152.737 58.16 152.929 58.9067 152.929 59.76C152.929 60.6027 152.737 61.3493 152.353 62C151.98 62.6507 151.457 63.1627 150.785 63.536C150.124 63.9093 149.372 64.096 148.529 64.096ZM148.529 62.752C149.073 62.752 149.559 62.6293 149.985 62.384C150.423 62.1387 150.764 61.792 151.009 61.344C151.255 60.8853 151.377 60.3573 151.377 59.76C151.377 59.152 151.255 58.6293 151.009 58.192C150.764 57.744 150.423 57.3973 149.985 57.152C149.559 56.9067 149.073 56.784 148.529 56.784C147.985 56.784 147.5 56.9067 147.073 57.152C146.647 57.3973 146.305 57.744 146.049 58.192C145.793 58.6293 145.665 59.152 145.665 59.76C145.665 60.3573 145.793 60.8853 146.049 61.344C146.305 61.792 146.647 62.1387 147.073 62.384C147.5 62.6293 147.985 62.752 148.529 62.752ZM154.813 64V55.52H156.285V57.824L156.141 57.248C156.376 56.6613 156.771 56.2133 157.325 55.904C157.88 55.5947 158.563 55.44 159.373 55.44V56.928C159.309 56.9173 159.245 56.912 159.181 56.912C159.128 56.912 159.075 56.912 159.021 56.912C158.2 56.912 157.549 57.1573 157.069 57.648C156.589 58.1387 156.349 58.848 156.349 59.776V64H154.813ZM164.724 64.096C163.818 64.096 163.018 63.9093 162.324 63.536C161.642 63.1627 161.108 62.6507 160.724 62C160.351 61.3493 160.164 60.6027 160.164 59.76C160.164 58.9173 160.346 58.1707 160.708 57.52C161.082 56.8693 161.588 56.3627 162.228 56C162.879 55.6267 163.61 55.44 164.42 55.44C165.242 55.44 165.967 55.6213 166.596 55.984C167.226 56.3467 167.716 56.8587 168.068 57.52C168.431 58.1707 168.612 58.9333 168.612 59.808C168.612 59.872 168.607 59.9467 168.596 60.032C168.596 60.1173 168.591 60.1973 168.58 60.272H161.364V59.168H167.78L167.156 59.552C167.167 59.008 167.055 58.5227 166.82 58.096C166.586 57.6693 166.26 57.3387 165.844 57.104C165.439 56.8587 164.964 56.736 164.42 56.736C163.887 56.736 163.412 56.8587 162.996 57.104C162.58 57.3387 162.255 57.6747 162.02 58.112C161.786 58.5387 161.668 59.0293 161.668 59.584V59.84C161.668 60.4053 161.796 60.912 162.052 61.36C162.319 61.7973 162.687 62.1387 163.156 62.384C163.626 62.6293 164.164 62.752 164.772 62.752C165.274 62.752 165.727 62.6667 166.132 62.496C166.548 62.3253 166.911 62.0693 167.22 61.728L168.068 62.72C167.684 63.168 167.204 63.5093 166.628 63.744C166.063 63.9787 165.428 64.096 164.724 64.096ZM174.562 64V55.52H176.098V64H174.562ZM175.33 53.888C175.032 53.888 174.781 53.792 174.578 53.6C174.386 53.408 174.29 53.1733 174.29 52.896C174.29 52.608 174.386 52.368 174.578 52.176C174.781 51.984 175.032 51.888 175.33 51.888C175.629 51.888 175.874 51.984 176.066 52.176C176.269 52.3573 176.37 52.5867 176.37 52.864C176.37 53.152 176.274 53.3973 176.082 53.6C175.89 53.792 175.64 53.888 175.33 53.888ZM183.319 55.44C184.012 55.44 184.62 55.5733 185.143 55.84C185.676 56.1067 186.092 56.512 186.391 57.056C186.69 57.6 186.839 58.288 186.839 59.12V64H185.303V59.296C185.303 58.4747 185.1 57.856 184.695 57.44C184.3 57.024 183.74 56.816 183.015 56.816C182.471 56.816 181.996 56.9227 181.591 57.136C181.186 57.3493 180.871 57.664 180.647 58.08C180.434 58.496 180.327 59.0133 180.327 59.632V64H178.791V55.52H180.263V57.808L180.023 57.2C180.3 56.6453 180.727 56.2133 181.303 55.904C181.879 55.5947 182.551 55.44 183.319 55.44ZM189.666 64V54.768C189.666 53.936 189.906 53.2747 190.386 52.784C190.876 52.2827 191.57 52.032 192.466 52.032C192.796 52.032 193.111 52.0747 193.41 52.16C193.719 52.2347 193.98 52.3573 194.194 52.528L193.73 53.696C193.57 53.568 193.388 53.472 193.186 53.408C192.983 53.3333 192.77 53.296 192.546 53.296C192.098 53.296 191.756 53.424 191.522 53.68C191.287 53.9253 191.17 54.2933 191.17 54.784V55.92L191.202 56.624V64H189.666ZM188.226 56.784V55.52H193.634V56.784H188.226ZM198.349 64.096C197.496 64.096 196.739 63.9093 196.077 63.536C195.416 63.1627 194.893 62.6507 194.509 62C194.125 61.3387 193.933 60.592 193.933 59.76C193.933 58.9173 194.125 58.1707 194.509 57.52C194.893 56.8693 195.416 56.3627 196.077 56C196.739 55.6267 197.496 55.44 198.349 55.44C199.192 55.44 199.944 55.6267 200.605 56C201.277 56.3627 201.8 56.8693 202.173 57.52C202.557 58.16 202.749 58.9067 202.749 59.76C202.749 60.6027 202.557 61.3493 202.173 62C201.8 62.6507 201.277 63.1627 200.605 63.536C199.944 63.9093 199.192 64.096 198.349 64.096ZM198.349 62.752C198.893 62.752 199.379 62.6293 199.805 62.384C200.243 62.1387 200.584 61.792 200.829 61.344C201.075 60.8853 201.197 60.3573 201.197 59.76C201.197 59.152 201.075 58.6293 200.829 58.192C200.584 57.744 200.243 57.3973 199.805 57.152C199.379 56.9067 198.893 56.784 198.349 56.784C197.805 56.784 197.32 56.9067 196.893 57.152C196.467 57.3973 196.125 57.744 195.869 58.192C195.613 58.6293 195.485 59.152 195.485 59.76C195.485 60.3573 195.613 60.8853 195.869 61.344C196.125 61.792 196.467 62.1387 196.893 62.384C197.32 62.6293 197.805 62.752 198.349 62.752ZM204.634 64V55.52H206.106V57.824L205.962 57.248C206.196 56.6613 206.591 56.2133 207.146 55.904C207.7 55.5947 208.383 55.44 209.194 55.44V56.928C209.13 56.9173 209.066 56.912 209.002 56.912C208.948 56.912 208.895 56.912 208.842 56.912C208.02 56.912 207.37 57.1573 206.89 57.648C206.41 58.1387 206.17 58.848 206.17 59.776V64H204.634ZM221.455 55.44C222.137 55.44 222.74 55.5733 223.263 55.84C223.785 56.1067 224.191 56.512 224.479 57.056C224.777 57.6 224.927 58.288 224.927 59.12V64H223.391V59.296C223.391 58.4747 223.199 57.856 222.815 57.44C222.431 57.024 221.892 56.816 221.199 56.816C220.687 56.816 220.239 56.9227 219.855 57.136C219.471 57.3493 219.172 57.664 218.959 58.08C218.756 58.496 218.655 59.0133 218.655 59.632V64H217.119V59.296C217.119 58.4747 216.927 57.856 216.543 57.44C216.169 57.024 215.631 56.816 214.927 56.816C214.425 56.816 213.983 56.9227 213.599 57.136C213.215 57.3493 212.916 57.664 212.703 58.08C212.489 58.496 212.383 59.0133 212.383 59.632V64H210.847V55.52H212.319V57.776L212.079 57.2C212.345 56.6453 212.756 56.2133 213.311 55.904C213.865 55.5947 214.511 55.44 215.247 55.44C216.057 55.44 216.756 55.6427 217.343 56.048C217.929 56.4427 218.313 57.0453 218.495 57.856L217.871 57.6C218.127 56.9493 218.575 56.4267 219.215 56.032C219.855 55.6373 220.601 55.44 221.455 55.44ZM232.777 64V62.208L232.697 61.872V58.816C232.697 58.1653 232.505 57.664 232.121 57.312C231.748 56.9493 231.182 56.768 230.425 56.768C229.924 56.768 229.433 56.8533 228.953 57.024C228.473 57.184 228.068 57.4027 227.737 57.68L227.097 56.528C227.534 56.176 228.057 55.9093 228.665 55.728C229.284 55.536 229.929 55.44 230.601 55.44C231.764 55.44 232.66 55.7227 233.289 56.288C233.918 56.8533 234.233 57.7173 234.233 58.88V64H232.777ZM229.993 64.096C229.364 64.096 228.809 63.9893 228.329 63.776C227.86 63.5627 227.497 63.2693 227.241 62.896C226.985 62.512 226.857 62.08 226.857 61.6C226.857 61.1413 226.964 60.7253 227.177 60.352C227.401 59.9787 227.758 59.68 228.249 59.456C228.75 59.232 229.422 59.12 230.265 59.12H232.953V60.224H230.329C229.561 60.224 229.044 60.352 228.777 60.608C228.51 60.864 228.377 61.1733 228.377 61.536C228.377 61.952 228.542 62.288 228.873 62.544C229.204 62.7893 229.662 62.912 230.249 62.912C230.825 62.912 231.326 62.784 231.753 62.528C232.19 62.272 232.505 61.8987 232.697 61.408L233.001 62.464C232.798 62.9653 232.441 63.3653 231.929 63.664C231.417 63.952 230.772 64.096 229.993 64.096ZM239.747 64.096C238.894 64.096 238.233 63.8667 237.763 63.408C237.294 62.9493 237.059 62.2933 237.059 61.44V53.664H238.595V61.376C238.595 61.8347 238.707 62.1867 238.931 62.432C239.166 62.6773 239.497 62.8 239.923 62.8C240.403 62.8 240.803 62.6667 241.123 62.4L241.603 63.504C241.369 63.7067 241.086 63.856 240.755 63.952C240.435 64.048 240.099 64.096 239.747 64.096ZM235.619 56.784V55.52H241.027V56.784H235.619ZM243.22 64V55.52H244.756V64H243.22ZM243.988 53.888C243.69 53.888 243.439 53.792 243.236 53.6C243.044 53.408 242.948 53.1733 242.948 52.896C242.948 52.608 243.044 52.368 243.236 52.176C243.439 51.984 243.69 51.888 243.988 51.888C244.287 51.888 244.532 51.984 244.724 52.176C244.927 52.3573 245.028 52.5867 245.028 52.864C245.028 53.152 244.932 53.3973 244.74 53.6C244.548 53.792 244.298 53.888 243.988 53.888ZM251.081 64.096C250.228 64.096 249.47 63.9093 248.809 63.536C248.148 63.1627 247.625 62.6507 247.241 62C246.857 61.3387 246.665 60.592 246.665 59.76C246.665 58.9173 246.857 58.1707 247.241 57.52C247.625 56.8693 248.148 56.3627 248.809 56C249.47 55.6267 250.228 55.44 251.081 55.44C251.924 55.44 252.676 55.6267 253.337 56C254.009 56.3627 254.532 56.8693 254.905 57.52C255.289 58.16 255.481 58.9067 255.481 59.76C255.481 60.6027 255.289 61.3493 254.905 62C254.532 62.6507 254.009 63.1627 253.337 63.536C252.676 63.9093 251.924 64.096 251.081 64.096ZM251.081 62.752C251.625 62.752 252.11 62.6293 252.537 62.384C252.974 62.1387 253.316 61.792 253.561 61.344C253.806 60.8853 253.929 60.3573 253.929 59.76C253.929 59.152 253.806 58.6293 253.561 58.192C253.316 57.744 252.974 57.3973 252.537 57.152C252.11 56.9067 251.625 56.784 251.081 56.784C250.537 56.784 250.052 56.9067 249.625 57.152C249.198 57.3973 248.857 57.744 248.601 58.192C248.345 58.6293 248.217 59.152 248.217 59.76C248.217 60.3573 248.345 60.8853 248.601 61.344C248.857 61.792 249.198 62.1387 249.625 62.384C250.052 62.6293 250.537 62.752 251.081 62.752ZM261.893 55.44C262.587 55.44 263.195 55.5733 263.717 55.84C264.251 56.1067 264.667 56.512 264.965 57.056C265.264 57.6 265.413 58.288 265.413 59.12V64H263.877V59.296C263.877 58.4747 263.675 57.856 263.269 57.44C262.875 57.024 262.315 56.816 261.589 56.816C261.045 56.816 260.571 56.9227 260.165 57.136C259.76 57.3493 259.445 57.664 259.221 58.08C259.008 58.496 258.901 59.0133 258.901 59.632V64H257.365V55.52H258.837V57.808L258.597 57.2C258.875 56.6453 259.301 56.2133 259.877 55.904C260.453 55.5947 261.125 55.44 261.893 55.44ZM277.337 64V62.208L277.257 61.872V58.816C277.257 58.1653 277.065 57.664 276.681 57.312C276.308 56.9493 275.742 56.768 274.985 56.768C274.484 56.768 273.993 56.8533 273.513 57.024C273.033 57.184 272.628 57.4027 272.297 57.68L271.657 56.528C272.094 56.176 272.617 55.9093 273.225 55.728C273.844 55.536 274.489 55.44 275.161 55.44C276.324 55.44 277.22 55.7227 277.849 56.288C278.478 56.8533 278.793 57.7173 278.793 58.88V64H277.337ZM274.553 64.096C273.924 64.096 273.369 63.9893 272.889 63.776C272.42 63.5627 272.057 63.2693 271.801 62.896C271.545 62.512 271.417 62.08 271.417 61.6C271.417 61.1413 271.524 60.7253 271.737 60.352C271.961 59.9787 272.318 59.68 272.809 59.456C273.31 59.232 273.982 59.12 274.825 59.12H277.513V60.224H274.889C274.121 60.224 273.604 60.352 273.337 60.608C273.07 60.864 272.937 61.1733 272.937 61.536C272.937 61.952 273.102 62.288 273.433 62.544C273.764 62.7893 274.222 62.912 274.809 62.912C275.385 62.912 275.886 62.784 276.313 62.528C276.75 62.272 277.065 61.8987 277.257 61.408L277.561 62.464C277.358 62.9653 277.001 63.3653 276.489 63.664C275.977 63.952 275.332 64.096 274.553 64.096ZM285.891 64.096C285.166 64.096 284.51 63.936 283.923 63.616C283.347 63.2853 282.889 62.8 282.547 62.16C282.217 61.52 282.051 60.72 282.051 59.76C282.051 58.8 282.222 58 282.563 57.36C282.915 56.72 283.379 56.24 283.955 55.92C284.542 55.6 285.187 55.44 285.891 55.44C286.723 55.44 287.459 55.6213 288.099 55.984C288.739 56.3467 289.246 56.8533 289.619 57.504C289.993 58.144 290.179 58.896 290.179 59.76C290.179 60.624 289.993 61.3813 289.619 62.032C289.246 62.6827 288.739 63.1893 288.099 63.552C287.459 63.9147 286.723 64.096 285.891 64.096ZM281.395 64V52.128H282.931V57.776L282.771 59.744L282.867 61.712V64H281.395ZM285.763 62.752C286.307 62.752 286.793 62.6293 287.219 62.384C287.657 62.1387 287.998 61.792 288.243 61.344C288.499 60.8853 288.627 60.3573 288.627 59.76C288.627 59.152 288.499 58.6293 288.243 58.192C287.998 57.744 287.657 57.3973 287.219 57.152C286.793 56.9067 286.307 56.784 285.763 56.784C285.23 56.784 284.745 56.9067 284.307 57.152C283.881 57.3973 283.539 57.744 283.283 58.192C283.038 58.6293 282.915 59.152 282.915 59.76C282.915 60.3573 283.038 60.8853 283.283 61.344C283.539 61.792 283.881 62.1387 284.307 62.384C284.745 62.6293 285.23 62.752 285.763 62.752ZM295.694 64.096C294.84 64.096 294.083 63.9093 293.422 63.536C292.76 63.1627 292.238 62.6507 291.854 62C291.47 61.3387 291.278 60.592 291.278 59.76C291.278 58.9173 291.47 58.1707 291.854 57.52C292.238 56.8693 292.76 56.3627 293.422 56C294.083 55.6267 294.84 55.44 295.694 55.44C296.536 55.44 297.288 55.6267 297.95 56C298.622 56.3627 299.144 56.8693 299.518 57.52C299.902 58.16 300.094 58.9067 300.094 59.76C300.094 60.6027 299.902 61.3493 299.518 62C299.144 62.6507 298.622 63.1627 297.95 63.536C297.288 63.9093 296.536 64.096 295.694 64.096ZM295.694 62.752C296.238 62.752 296.723 62.6293 297.15 62.384C297.587 62.1387 297.928 61.792 298.174 61.344C298.419 60.8853 298.542 60.3573 298.542 59.76C298.542 59.152 298.419 58.6293 298.174 58.192C297.928 57.744 297.587 57.3973 297.15 57.152C296.723 56.9067 296.238 56.784 295.694 56.784C295.15 56.784 294.664 56.9067 294.238 57.152C293.811 57.3973 293.47 57.744 293.214 58.192C292.958 58.6293 292.83 59.152 292.83 59.76C292.83 60.3573 292.958 60.8853 293.214 61.344C293.47 61.792 293.811 62.1387 294.238 62.384C294.664 62.6293 295.15 62.752 295.694 62.752ZM305.546 64.096C304.821 64.096 304.181 63.9627 303.626 63.696C303.082 63.4293 302.655 63.024 302.346 62.48C302.047 61.9253 301.898 61.232 301.898 60.4V55.52H303.434V60.224C303.434 61.056 303.631 61.68 304.026 62.096C304.431 62.512 304.997 62.72 305.722 62.72C306.255 62.72 306.719 62.6133 307.114 62.4C307.509 62.176 307.813 61.856 308.026 61.44C308.239 61.0133 308.346 60.5013 308.346 59.904V55.52H309.882V64H308.426V61.712L308.666 62.32C308.389 62.8853 307.973 63.3227 307.418 63.632C306.863 63.9413 306.239 64.096 305.546 64.096ZM315.478 64.096C314.625 64.096 313.963 63.8667 313.494 63.408C313.025 62.9493 312.79 62.2933 312.79 61.44V53.664H314.326V61.376C314.326 61.8347 314.438 62.1867 314.662 62.432C314.897 62.6773 315.227 62.8 315.654 62.8C316.134 62.8 316.534 62.6667 316.854 62.4L317.334 63.504C317.099 63.7067 316.817 63.856 316.486 63.952C316.166 64.048 315.83 64.096 315.478 64.096ZM311.35 56.784V55.52H316.758V56.784H311.35ZM323.232 64V52.8H324.832V62.608H330.896V64H323.232ZM330.796 64L335.868 52.8H337.452L342.54 64H340.86L336.332 53.696H336.972L332.444 64H330.796ZM332.956 61.2L333.388 59.92H339.692L340.156 61.2H332.956ZM343.971 64V52.8H348.995C350.285 52.8 351.277 53.0613 351.971 53.584C352.664 54.096 353.011 54.8 353.011 55.696C353.011 56.304 352.872 56.816 352.595 57.232C352.328 57.648 351.965 57.968 351.507 58.192C351.048 58.416 350.552 58.528 350.019 58.528L350.307 58.048C350.947 58.048 351.512 58.16 352.003 58.384C352.493 58.608 352.883 58.9387 353.171 59.376C353.459 59.8027 353.603 60.336 353.603 60.976C353.603 61.936 353.24 62.6827 352.515 63.216C351.8 63.7387 350.733 64 349.315 64H343.971ZM345.571 62.704H349.251C350.136 62.704 350.813 62.5547 351.283 62.256C351.752 61.9573 351.987 61.488 351.987 60.848C351.987 60.1973 351.752 59.7227 351.283 59.424C350.813 59.1253 350.136 58.976 349.251 58.976H345.427V57.68H348.851C349.661 57.68 350.291 57.5307 350.739 57.232C351.187 56.9333 351.411 56.4853 351.411 55.888C351.411 55.2907 351.187 54.8427 350.739 54.544C350.291 54.2453 349.661 54.096 348.851 54.096H345.571V62.704ZM359.129 60.272V58.944H363.433V60.272H359.129ZM370.815 64V53.44L371.503 54.192H368.287V52.8H372.399V64H370.815Z" fill="#447DBF"/>
<path d="M22.904 85V75.192H19.064V73.8H28.328V75.192H24.488V85H22.904ZM34.4175 85V83.208L34.3375 82.872V79.816C34.3375 79.1653 34.1455 78.664 33.7615 78.312C33.3882 77.9493 32.8228 77.768 32.0655 77.768C31.5642 77.768 31.0735 77.8533 30.5935 78.024C30.1135 78.184 29.7082 78.4027 29.3775 78.68L28.7375 77.528C29.1748 77.176 29.6975 76.9093 30.3055 76.728C30.9242 76.536 31.5695 76.44 32.2415 76.44C33.4042 76.44 34.3002 76.7227 34.9295 77.288C35.5588 77.8533 35.8735 78.7173 35.8735 79.88V85H34.4175ZM31.6335 85.096C31.0042 85.096 30.4495 84.9893 29.9695 84.776C29.5002 84.5627 29.1375 84.2693 28.8815 83.896C28.6255 83.512 28.4975 83.08 28.4975 82.6C28.4975 82.1413 28.6042 81.7253 28.8175 81.352C29.0415 80.9787 29.3988 80.68 29.8895 80.456C30.3908 80.232 31.0628 80.12 31.9055 80.12H34.5935V81.224H31.9695C31.2015 81.224 30.6842 81.352 30.4175 81.608C30.1508 81.864 30.0175 82.1733 30.0175 82.536C30.0175 82.952 30.1828 83.288 30.5135 83.544C30.8442 83.7893 31.3028 83.912 31.8895 83.912C32.4655 83.912 32.9668 83.784 33.3935 83.528C33.8308 83.272 34.1455 82.8987 34.3375 82.408L34.6415 83.464C34.4388 83.9653 34.0815 84.3653 33.5695 84.664C33.0575 84.952 32.4122 85.096 31.6335 85.096ZM42.972 85.096C42.2467 85.096 41.5907 84.936 41.004 84.616C40.428 84.2853 39.9693 83.8 39.628 83.16C39.2973 82.52 39.132 81.72 39.132 80.76C39.132 79.8 39.3027 79 39.644 78.36C39.996 77.72 40.46 77.24 41.036 76.92C41.6227 76.6 42.268 76.44 42.972 76.44C43.804 76.44 44.54 76.6213 45.18 76.984C45.82 77.3467 46.3267 77.8533 46.7 78.504C47.0733 79.144 47.26 79.896 47.26 80.76C47.26 81.624 47.0733 82.3813 46.7 83.032C46.3267 83.6827 45.82 84.1893 45.18 84.552C44.54 84.9147 43.804 85.096 42.972 85.096ZM38.476 85V73.128H40.012V78.776L39.852 80.744L39.948 82.712V85H38.476ZM42.844 83.752C43.388 83.752 43.8733 83.6293 44.3 83.384C44.7373 83.1387 45.0787 82.792 45.324 82.344C45.58 81.8853 45.708 81.3573 45.708 80.76C45.708 80.152 45.58 79.6293 45.324 79.192C45.0787 78.744 44.7373 78.3973 44.3 78.152C43.8733 77.9067 43.388 77.784 42.844 77.784C42.3107 77.784 41.8253 77.9067 41.388 78.152C40.9613 78.3973 40.62 78.744 40.364 79.192C40.1187 79.6293 39.996 80.152 39.996 80.76C39.996 81.3573 40.1187 81.8853 40.364 82.344C40.62 82.792 40.9613 83.1387 41.388 83.384C41.8253 83.6293 42.3107 83.752 42.844 83.752ZM52.7103 85.096C51.9849 85.096 51.3449 84.9627 50.7903 84.696C50.2463 84.4293 49.8196 84.024 49.5103 83.48C49.2116 82.9253 49.0623 82.232 49.0623 81.4V76.52H50.5983V81.224C50.5983 82.056 50.7956 82.68 51.1903 83.096C51.5956 83.512 52.1609 83.72 52.8863 83.72C53.4196 83.72 53.8836 83.6133 54.2783 83.4C54.6729 83.176 54.9769 82.856 55.1903 82.44C55.4036 82.0133 55.5103 81.5013 55.5103 80.904V76.52H57.0463V85H55.5903V82.712L55.8303 83.32C55.5529 83.8853 55.1369 84.3227 54.5823 84.632C54.0276 84.9413 53.4036 85.096 52.7103 85.096ZM59.7304 85V73.128H61.2664V85H59.7304ZM69.2231 85V83.208L69.1431 82.872V79.816C69.1431 79.1653 68.9511 78.664 68.5671 78.312C68.1938 77.9493 67.6285 77.768 66.8711 77.768C66.3698 77.768 65.8791 77.8533 65.3991 78.024C64.9191 78.184 64.5138 78.4027 64.1831 78.68L63.5431 77.528C63.9805 77.176 64.5031 76.9093 65.1111 76.728C65.7298 76.536 66.3751 76.44 67.0471 76.44C68.2098 76.44 69.1058 76.7227 69.7351 77.288C70.3645 77.8533 70.6791 78.7173 70.6791 79.88V85H69.2231ZM66.4391 85.096C65.8098 85.096 65.2551 84.9893 64.7751 84.776C64.3058 84.5627 63.9431 84.2693 63.6871 83.896C63.4311 83.512 63.3031 83.08 63.3031 82.6C63.3031 82.1413 63.4098 81.7253 63.6231 81.352C63.8471 80.9787 64.2045 80.68 64.6951 80.456C65.1965 80.232 65.8685 80.12 66.7111 80.12H69.3991V81.224H66.7751C66.0071 81.224 65.4898 81.352 65.2231 81.608C64.9565 81.864 64.8231 82.1733 64.8231 82.536C64.8231 82.952 64.9885 83.288 65.3191 83.544C65.6498 83.7893 66.1085 83.912 66.6951 83.912C67.2711 83.912 67.7725 83.784 68.1991 83.528C68.6365 83.272 68.9511 82.8987 69.1431 82.408L69.4471 83.464C69.2445 83.9653 68.8871 84.3653 68.3751 84.664C67.8631 84.952 67.2178 85.096 66.4391 85.096ZM73.2816 85V76.52H74.7536V78.824L74.6096 78.248C74.8443 77.6613 75.239 77.2133 75.7936 76.904C76.3483 76.5947 77.031 76.44 77.8416 76.44V77.928C77.7776 77.9173 77.7136 77.912 77.6496 77.912C77.5963 77.912 77.543 77.912 77.4896 77.912C76.6683 77.912 76.0176 78.1573 75.5376 78.648C75.0576 79.1387 74.8176 79.848 74.8176 80.776V85H73.2816ZM83.661 85V76.52H85.133V78.824L84.989 78.248C85.2237 77.6613 85.6183 77.2133 86.173 76.904C86.7277 76.5947 87.4103 76.44 88.221 76.44V77.928C88.157 77.9173 88.093 77.912 88.029 77.912C87.9757 77.912 87.9223 77.912 87.869 77.912C87.0477 77.912 86.397 78.1573 85.917 78.648C85.437 79.1387 85.197 79.848 85.197 80.776V85H83.661ZM93.572 85.096C92.6653 85.096 91.8653 84.9093 91.172 84.536C90.4893 84.1627 89.956 83.6507 89.572 83C89.1987 82.3493 89.012 81.6027 89.012 80.76C89.012 79.9173 89.1933 79.1707 89.556 78.52C89.9293 77.8693 90.436 77.3627 91.076 77C91.7267 76.6267 92.4573 76.44 93.268 76.44C94.0893 76.44 94.8147 76.6213 95.444 76.984C96.0733 77.3467 96.564 77.8587 96.916 78.52C97.2787 79.1707 97.46 79.9333 97.46 80.808C97.46 80.872 97.4547 80.9467 97.444 81.032C97.444 81.1173 97.4387 81.1973 97.428 81.272H90.212V80.168H96.628L96.004 80.552C96.0147 80.008 95.9027 79.5227 95.668 79.096C95.4333 78.6693 95.108 78.3387 94.692 78.104C94.2867 77.8587 93.812 77.736 93.268 77.736C92.7347 77.736 92.26 77.8587 91.844 78.104C91.428 78.3387 91.1027 78.6747 90.868 79.112C90.6333 79.5387 90.516 80.0293 90.516 80.584V80.84C90.516 81.4053 90.644 81.912 90.9 82.36C91.1667 82.7973 91.5347 83.1387 92.004 83.384C92.4733 83.6293 93.012 83.752 93.62 83.752C94.1213 83.752 94.5747 83.6667 94.98 83.496C95.396 83.3253 95.7587 83.0693 96.068 82.728L96.916 83.72C96.532 84.168 96.052 84.5093 95.476 84.744C94.9107 84.9787 94.276 85.096 93.572 85.096ZM103.849 85.096C103.145 85.096 102.5 84.936 101.913 84.616C101.337 84.2853 100.873 83.8 100.521 83.16C100.18 82.52 100.009 81.72 100.009 80.76C100.009 79.8 100.174 79 100.505 78.36C100.846 77.72 101.305 77.24 101.881 76.92C102.468 76.6 103.124 76.44 103.849 76.44C104.681 76.44 105.417 76.6213 106.057 76.984C106.697 77.3467 107.204 77.8533 107.577 78.504C107.95 79.144 108.137 79.896 108.137 80.76C108.137 81.624 107.95 82.3813 107.577 83.032C107.204 83.6827 106.697 84.1893 106.057 84.552C105.417 84.9147 104.681 85.096 103.849 85.096ZM99.3529 88.104V76.52H100.825V78.808L100.729 80.776L100.889 82.744V88.104H99.3529ZM103.721 83.752C104.265 83.752 104.75 83.6293 105.177 83.384C105.614 83.1387 105.956 82.792 106.201 82.344C106.457 81.8853 106.585 81.3573 106.585 80.76C106.585 80.152 106.457 79.6293 106.201 79.192C105.956 78.744 105.614 78.3973 105.177 78.152C104.75 77.9067 104.265 77.784 103.721 77.784C103.188 77.784 102.702 77.9067 102.265 78.152C101.838 78.3973 101.497 78.744 101.241 79.192C100.996 79.6293 100.873 80.152 100.873 80.76C100.873 81.3573 100.996 81.8853 101.241 82.344C101.497 82.792 101.838 83.1387 102.265 83.384C102.702 83.6293 103.188 83.752 103.721 83.752ZM110.019 85V76.52H111.491V78.824L111.347 78.248C111.582 77.6613 111.976 77.2133 112.531 76.904C113.086 76.5947 113.768 76.44 114.579 76.44V77.928C114.515 77.9173 114.451 77.912 114.387 77.912C114.334 77.912 114.28 77.912 114.227 77.912C113.406 77.912 112.755 78.1573 112.275 78.648C111.795 79.1387 111.555 79.848 111.555 80.776V85H110.019ZM119.93 85.096C119.023 85.096 118.223 84.9093 117.53 84.536C116.847 84.1627 116.314 83.6507 115.93 83C115.557 82.3493 115.37 81.6027 115.37 80.76C115.37 79.9173 115.551 79.1707 115.914 78.52C116.287 77.8693 116.794 77.3627 117.434 77C118.085 76.6267 118.815 76.44 119.626 76.44C120.447 76.44 121.173 76.6213 121.802 76.984C122.431 77.3467 122.922 77.8587 123.274 78.52C123.637 79.1707 123.818 79.9333 123.818 80.808C123.818 80.872 123.813 80.9467 123.802 81.032C123.802 81.1173 123.797 81.1973 123.786 81.272H116.57V80.168H122.986L122.362 80.552C122.373 80.008 122.261 79.5227 122.026 79.096C121.791 78.6693 121.466 78.3387 121.05 78.104C120.645 77.8587 120.17 77.736 119.626 77.736C119.093 77.736 118.618 77.8587 118.202 78.104C117.786 78.3387 117.461 78.6747 117.226 79.112C116.991 79.5387 116.874 80.0293 116.874 80.584V80.84C116.874 81.4053 117.002 81.912 117.258 82.36C117.525 82.7973 117.893 83.1387 118.362 83.384C118.831 83.6293 119.37 83.752 119.978 83.752C120.479 83.752 120.933 83.6667 121.338 83.496C121.754 83.3253 122.117 83.0693 122.426 82.728L123.274 83.72C122.89 84.168 122.41 84.5093 121.834 84.744C121.269 84.9787 120.634 85.096 119.93 85.096ZM128.143 85.096C127.439 85.096 126.767 85 126.127 84.808C125.498 84.616 125.002 84.3813 124.639 84.104L125.279 82.888C125.642 83.1333 126.09 83.3413 126.623 83.512C127.156 83.6827 127.7 83.768 128.255 83.768C128.97 83.768 129.482 83.6667 129.791 83.464C130.111 83.2613 130.271 82.9787 130.271 82.616C130.271 82.3493 130.175 82.1413 129.983 81.992C129.791 81.8427 129.535 81.7307 129.215 81.656C128.906 81.5813 128.559 81.5173 128.175 81.464C127.791 81.4 127.407 81.3253 127.023 81.24C126.639 81.144 126.287 81.016 125.967 80.856C125.647 80.6853 125.391 80.456 125.199 80.168C125.007 79.8693 124.911 79.4747 124.911 78.984C124.911 78.472 125.055 78.024 125.343 77.64C125.631 77.256 126.036 76.9627 126.559 76.76C127.092 76.5467 127.722 76.44 128.447 76.44C129.002 76.44 129.562 76.5093 130.127 76.648C130.703 76.776 131.172 76.9627 131.535 77.208L130.879 78.424C130.495 78.168 130.095 77.992 129.679 77.896C129.263 77.8 128.847 77.752 128.431 77.752C127.759 77.752 127.258 77.864 126.927 78.088C126.596 78.3013 126.431 78.5787 126.431 78.92C126.431 79.208 126.527 79.432 126.719 79.592C126.922 79.7413 127.178 79.8587 127.487 79.944C127.807 80.0293 128.159 80.104 128.543 80.168C128.927 80.2213 129.311 80.296 129.695 80.392C130.079 80.4773 130.426 80.6 130.735 80.76C131.055 80.92 131.311 81.144 131.503 81.432C131.706 81.72 131.807 82.104 131.807 82.584C131.807 83.096 131.658 83.5387 131.359 83.912C131.06 84.2853 130.639 84.5787 130.095 84.792C129.551 84.9947 128.9 85.096 128.143 85.096ZM137.263 85.096C136.356 85.096 135.556 84.9093 134.863 84.536C134.18 84.1627 133.647 83.6507 133.263 83C132.889 82.3493 132.703 81.6027 132.703 80.76C132.703 79.9173 132.884 79.1707 133.247 78.52C133.62 77.8693 134.127 77.3627 134.767 77C135.417 76.6267 136.148 76.44 136.959 76.44C137.78 76.44 138.505 76.6213 139.135 76.984C139.764 77.3467 140.255 77.8587 140.607 78.52C140.969 79.1707 141.151 79.9333 141.151 80.808C141.151 80.872 141.145 80.9467 141.135 81.032C141.135 81.1173 141.129 81.1973 141.119 81.272H133.903V80.168H140.319L139.695 80.552C139.705 80.008 139.593 79.5227 139.359 79.096C139.124 78.6693 138.799 78.3387 138.383 78.104C137.977 77.8587 137.503 77.736 136.959 77.736C136.425 77.736 135.951 77.8587 135.535 78.104C135.119 78.3387 134.793 78.6747 134.559 79.112C134.324 79.5387 134.207 80.0293 134.207 80.584V80.84C134.207 81.4053 134.335 81.912 134.591 82.36C134.857 82.7973 135.225 83.1387 135.695 83.384C136.164 83.6293 136.703 83.752 137.311 83.752C137.812 83.752 138.265 83.6667 138.671 83.496C139.087 83.3253 139.449 83.0693 139.759 82.728L140.607 83.72C140.223 84.168 139.743 84.5093 139.167 84.744C138.601 84.9787 137.967 85.096 137.263 85.096ZM147.572 76.44C148.265 76.44 148.873 76.5733 149.396 76.84C149.929 77.1067 150.345 77.512 150.644 78.056C150.942 78.6 151.092 79.288 151.092 80.12V85H149.556V80.296C149.556 79.4747 149.353 78.856 148.948 78.44C148.553 78.024 147.993 77.816 147.268 77.816C146.724 77.816 146.249 77.9227 145.844 78.136C145.438 78.3493 145.124 78.664 144.9 79.08C144.686 79.496 144.58 80.0133 144.58 80.632V85H143.044V76.52H144.516V78.808L144.276 78.2C144.553 77.6453 144.98 77.2133 145.556 76.904C146.132 76.5947 146.804 76.44 147.572 76.44ZM156.606 85.096C155.753 85.096 155.091 84.8667 154.622 84.408C154.153 83.9493 153.918 83.2933 153.918 82.44V74.664H155.454V82.376C155.454 82.8347 155.566 83.1867 155.79 83.432C156.025 83.6773 156.355 83.8 156.782 83.8C157.262 83.8 157.662 83.6667 157.982 83.4L158.462 84.504C158.227 84.7067 157.945 84.856 157.614 84.952C157.294 85.048 156.958 85.096 156.606 85.096ZM152.478 77.784V76.52H157.886V77.784H152.478ZM165.343 85V83.208L165.263 82.872V79.816C165.263 79.1653 165.071 78.664 164.687 78.312C164.314 77.9493 163.748 77.768 162.991 77.768C162.49 77.768 161.999 77.8533 161.519 78.024C161.039 78.184 160.634 78.4027 160.303 78.68L159.663 77.528C160.1 77.176 160.623 76.9093 161.231 76.728C161.85 76.536 162.495 76.44 163.167 76.44C164.33 76.44 165.226 76.7227 165.855 77.288C166.484 77.8533 166.799 78.7173 166.799 79.88V85H165.343ZM162.559 85.096C161.93 85.096 161.375 84.9893 160.895 84.776C160.426 84.5627 160.063 84.2693 159.807 83.896C159.551 83.512 159.423 83.08 159.423 82.6C159.423 82.1413 159.53 81.7253 159.743 81.352C159.967 80.9787 160.324 80.68 160.815 80.456C161.316 80.232 161.988 80.12 162.831 80.12H165.519V81.224H162.895C162.127 81.224 161.61 81.352 161.343 81.608C161.076 81.864 160.943 82.1733 160.943 82.536C160.943 82.952 161.108 83.288 161.439 83.544C161.77 83.7893 162.228 83.912 162.815 83.912C163.391 83.912 163.892 83.784 164.319 83.528C164.756 83.272 165.071 82.8987 165.263 82.408L165.567 83.464C165.364 83.9653 165.007 84.3653 164.495 84.664C163.983 84.952 163.338 85.096 162.559 85.096ZM172.314 85.096C171.46 85.096 170.799 84.8667 170.33 84.408C169.86 83.9493 169.626 83.2933 169.626 82.44V74.664H171.162V82.376C171.162 82.8347 171.274 83.1867 171.498 83.432C171.732 83.6773 172.063 83.8 172.49 83.8C172.97 83.8 173.37 83.6667 173.69 83.4L174.17 84.504C173.935 84.7067 173.652 84.856 173.322 84.952C173.002 85.048 172.666 85.096 172.314 85.096ZM168.186 77.784V76.52H173.594V77.784H168.186ZM175.787 85V76.52H177.323V85H175.787ZM176.555 74.888C176.256 74.888 176.005 74.792 175.803 74.6C175.611 74.408 175.515 74.1733 175.515 73.896C175.515 73.608 175.611 73.368 175.803 73.176C176.005 72.984 176.256 72.888 176.555 72.888C176.853 72.888 177.099 72.984 177.291 73.176C177.493 73.3573 177.595 73.5867 177.595 73.864C177.595 74.152 177.499 74.3973 177.307 74.6C177.115 74.792 176.864 74.888 176.555 74.888ZM183.647 85.096C182.794 85.096 182.037 84.9093 181.375 84.536C180.714 84.1627 180.191 83.6507 179.807 83C179.423 82.3387 179.231 81.592 179.231 80.76C179.231 79.9173 179.423 79.1707 179.807 78.52C180.191 77.8693 180.714 77.3627 181.375 77C182.037 76.6267 182.794 76.44 183.647 76.44C184.49 76.44 185.242 76.6267 185.903 77C186.575 77.3627 187.098 77.8693 187.471 78.52C187.855 79.16 188.047 79.9067 188.047 80.76C188.047 81.6027 187.855 82.3493 187.471 83C187.098 83.6507 186.575 84.1627 185.903 84.536C185.242 84.9093 184.49 85.096 183.647 85.096ZM183.647 83.752C184.191 83.752 184.677 83.6293 185.103 83.384C185.541 83.1387 185.882 82.792 186.127 82.344C186.373 81.8853 186.495 81.3573 186.495 80.76C186.495 80.152 186.373 79.6293 186.127 79.192C185.882 78.744 185.541 78.3973 185.103 78.152C184.677 77.9067 184.191 77.784 183.647 77.784C183.103 77.784 182.618 77.9067 182.191 78.152C181.765 78.3973 181.423 78.744 181.167 79.192C180.911 79.6293 180.783 80.152 180.783 80.76C180.783 81.3573 180.911 81.8853 181.167 82.344C181.423 82.792 181.765 83.1387 182.191 83.384C182.618 83.6293 183.103 83.752 183.647 83.752ZM194.46 76.44C195.153 76.44 195.761 76.5733 196.284 76.84C196.817 77.1067 197.233 77.512 197.532 78.056C197.83 78.6 197.98 79.288 197.98 80.12V85H196.444V80.296C196.444 79.4747 196.241 78.856 195.836 78.44C195.441 78.024 194.881 77.816 194.156 77.816C193.612 77.816 193.137 77.9227 192.732 78.136C192.326 78.3493 192.012 78.664 191.788 79.08C191.574 79.496 191.468 80.0133 191.468 80.632V85H189.932V76.52H191.404V78.808L191.164 78.2C191.441 77.6453 191.868 77.2133 192.444 76.904C193.02 76.5947 193.692 76.44 194.46 76.44ZM200.95 85.096C200.652 85.096 200.396 84.9947 200.182 84.792C199.969 84.5787 199.862 84.312 199.862 83.992C199.862 83.672 199.969 83.4107 200.182 83.208C200.396 83.0053 200.652 82.904 200.95 82.904C201.238 82.904 201.484 83.0053 201.686 83.208C201.9 83.4107 202.006 83.672 202.006 83.992C202.006 84.312 201.9 84.5787 201.686 84.792C201.484 84.9947 201.238 85.096 200.95 85.096ZM25.736 106.128C24.872 106.128 24.0773 105.989 23.352 105.712C22.6267 105.424 21.9973 105.024 21.464 104.512C20.9307 103.989 20.5147 103.381 20.216 102.688C19.9173 101.995 19.768 101.232 19.768 100.4C19.768 99.568 19.9173 98.8053 20.216 98.112C20.5147 97.4187 20.9307 96.816 21.464 96.304C22.008 95.7813 22.6427 95.3813 23.368 95.104C24.0933 94.816 24.8933 94.672 25.768 94.672C26.6533 94.672 27.464 94.816 28.2 95.104C28.936 95.392 29.56 95.824 30.072 96.4L29.08 97.392C28.6213 96.944 28.12 96.6187 27.576 96.416C27.0427 96.2027 26.4613 96.096 25.832 96.096C25.192 96.096 24.5947 96.2027 24.04 96.416C23.496 96.6293 23.0213 96.928 22.616 97.312C22.2213 97.696 21.912 98.1547 21.688 98.688C21.4747 99.2107 21.368 99.7813 21.368 100.4C21.368 101.008 21.4747 101.579 21.688 102.112C21.912 102.635 22.2213 103.093 22.616 103.488C23.0213 103.872 23.496 104.171 24.04 104.384C24.584 104.597 25.176 104.704 25.816 104.704C26.4133 104.704 26.984 104.613 27.528 104.432C28.0827 104.24 28.5947 103.925 29.064 103.488L29.976 104.704C29.4213 105.173 28.7707 105.531 28.024 105.776C27.288 106.011 26.5253 106.128 25.736 106.128ZM28.44 104.496V100.336H29.976V104.704L28.44 104.496ZM32.5754 106V97.52H34.0474V99.824L33.9034 99.248C34.138 98.6613 34.5327 98.2133 35.0874 97.904C35.642 97.5947 36.3247 97.44 37.1354 97.44V98.928C37.0714 98.9173 37.0074 98.912 36.9434 98.912C36.89 98.912 36.8367 98.912 36.7834 98.912C35.962 98.912 35.3114 99.1573 34.8314 99.648C34.3514 100.139 34.1114 100.848 34.1114 101.776V106H32.5754ZM43.4275 106V104.208L43.3475 103.872V100.816C43.3475 100.165 43.1555 99.664 42.7715 99.312C42.3982 98.9493 41.8328 98.768 41.0755 98.768C40.5742 98.768 40.0835 98.8533 39.6035 99.024C39.1235 99.184 38.7182 99.4027 38.3875 99.68L37.7475 98.528C38.1848 98.176 38.7075 97.9093 39.3155 97.728C39.9342 97.536 40.5795 97.44 41.2515 97.44C42.4142 97.44 43.3102 97.7227 43.9395 98.288C44.5688 98.8533 44.8835 99.7173 44.8835 100.88V106H43.4275ZM40.6435 106.096C40.0142 106.096 39.4595 105.989 38.9795 105.776C38.5102 105.563 38.1475 105.269 37.8915 104.896C37.6355 104.512 37.5075 104.08 37.5075 103.6C37.5075 103.141 37.6142 102.725 37.8275 102.352C38.0515 101.979 38.4088 101.68 38.8995 101.456C39.4008 101.232 40.0728 101.12 40.9155 101.12H43.6035V102.224H40.9795C40.2115 102.224 39.6942 102.352 39.4275 102.608C39.1608 102.864 39.0275 103.173 39.0275 103.536C39.0275 103.952 39.1928 104.288 39.5235 104.544C39.8542 104.789 40.3128 104.912 40.8995 104.912C41.4755 104.912 41.9768 104.784 42.4035 104.528C42.8408 104.272 43.1555 103.899 43.3475 103.408L43.6515 104.464C43.4488 104.965 43.0915 105.365 42.5795 105.664C42.0675 105.952 41.4222 106.096 40.6435 106.096ZM51.982 106.096C51.278 106.096 50.6327 105.936 50.046 105.616C49.47 105.285 49.006 104.8 48.654 104.16C48.3127 103.52 48.142 102.72 48.142 101.76C48.142 100.8 48.3073 100 48.638 99.36C48.9793 98.72 49.438 98.24 50.014 97.92C50.6007 97.6 51.2567 97.44 51.982 97.44C52.814 97.44 53.55 97.6213 54.19 97.984C54.83 98.3467 55.3367 98.8533 55.71 99.504C56.0833 100.144 56.27 100.896 56.27 101.76C56.27 102.624 56.0833 103.381 55.71 104.032C55.3367 104.683 54.83 105.189 54.19 105.552C53.55 105.915 52.814 106.096 51.982 106.096ZM47.486 109.104V97.52H48.958V99.808L48.862 101.776L49.022 103.744V109.104H47.486ZM51.854 104.752C52.398 104.752 52.8833 104.629 53.31 104.384C53.7473 104.139 54.0887 103.792 54.334 103.344C54.59 102.885 54.718 102.357 54.718 101.76C54.718 101.152 54.59 100.629 54.334 100.192C54.0887 99.744 53.7473 99.3973 53.31 99.152C52.8833 98.9067 52.398 98.784 51.854 98.784C51.3207 98.784 50.8353 98.9067 50.398 99.152C49.9713 99.3973 49.63 99.744 49.374 100.192C49.1287 100.629 49.006 101.152 49.006 101.76C49.006 102.357 49.1287 102.885 49.374 103.344C49.63 103.792 49.9713 104.139 50.398 104.384C50.8353 104.629 51.3207 104.752 51.854 104.752ZM62.6803 97.44C63.3736 97.44 63.9816 97.5733 64.5043 97.84C65.0376 98.1067 65.4536 98.512 65.7523 99.056C66.0509 99.6 66.2003 100.288 66.2003 101.12V106H64.6643V101.296C64.6643 100.475 64.4616 99.856 64.0563 99.44C63.6616 99.024 63.1016 98.816 62.3763 98.816C61.8323 98.816 61.3576 98.9227 60.9523 99.136C60.5469 99.3493 60.2323 99.664 60.0083 100.08C59.7949 100.496 59.6883 101.013 59.6883 101.632V106H58.1523V94.128H59.6883V99.808L59.3843 99.2C59.6616 98.6453 60.0883 98.2133 60.6643 97.904C61.2403 97.5947 61.9123 97.44 62.6803 97.44ZM68.8029 106V97.52H70.3389V106H68.8029ZM69.5709 95.888C69.2722 95.888 69.0215 95.792 68.8189 95.6C68.6269 95.408 68.5309 95.1733 68.5309 94.896C68.5309 94.608 68.6269 94.368 68.8189 94.176C69.0215 93.984 69.2722 93.888 69.5709 93.888C69.8695 93.888 70.1149 93.984 70.3069 94.176C70.5095 94.3573 70.6109 94.5867 70.6109 94.864C70.6109 95.152 70.5149 95.3973 70.3229 95.6C70.1309 95.792 69.8802 95.888 69.5709 95.888ZM76.7276 106.096C75.8636 106.096 75.0903 105.909 74.4076 105.536C73.7356 105.163 73.2076 104.651 72.8236 104C72.4396 103.349 72.2476 102.603 72.2476 101.76C72.2476 100.917 72.4396 100.171 72.8236 99.52C73.2076 98.8693 73.7356 98.3627 74.4076 98C75.0903 97.6267 75.8636 97.44 76.7276 97.44C77.4956 97.44 78.1783 97.5947 78.7756 97.904C79.3836 98.2027 79.853 98.6507 80.1836 99.248L79.0156 100C78.7383 99.584 78.397 99.28 77.9916 99.088C77.597 98.8853 77.1703 98.784 76.7116 98.784C76.157 98.784 75.661 98.9067 75.2236 99.152C74.7863 99.3973 74.4396 99.744 74.1836 100.192C73.9276 100.629 73.7996 101.152 73.7996 101.76C73.7996 102.368 73.9276 102.896 74.1836 103.344C74.4396 103.792 74.7863 104.139 75.2236 104.384C75.661 104.629 76.157 104.752 76.7116 104.752C77.1703 104.752 77.597 104.656 77.9916 104.464C78.397 104.261 78.7383 103.952 79.0156 103.536L80.1836 104.272C79.853 104.859 79.3836 105.312 78.7756 105.632C78.1783 105.941 77.4956 106.096 76.7276 106.096ZM87.1962 106V104.208L87.1163 103.872V100.816C87.1163 100.165 86.9242 99.664 86.5402 99.312C86.1669 98.9493 85.6016 98.768 84.8442 98.768C84.3429 98.768 83.8522 98.8533 83.3722 99.024C82.8922 99.184 82.4869 99.4027 82.1562 99.68L81.5162 98.528C81.9536 98.176 82.4762 97.9093 83.0842 97.728C83.7029 97.536 84.3482 97.44 85.0202 97.44C86.1829 97.44 87.0789 97.7227 87.7083 98.288C88.3376 98.8533 88.6523 99.7173 88.6523 100.88V106H87.1962ZM84.4122 106.096C83.7829 106.096 83.2282 105.989 82.7482 105.776C82.2789 105.563 81.9162 105.269 81.6602 104.896C81.4042 104.512 81.2762 104.08 81.2762 103.6C81.2762 103.141 81.3829 102.725 81.5962 102.352C81.8202 101.979 82.1776 101.68 82.6682 101.456C83.1696 101.232 83.8416 101.12 84.6842 101.12H87.3723V102.224H84.7483C83.9802 102.224 83.4629 102.352 83.1962 102.608C82.9296 102.864 82.7962 103.173 82.7962 103.536C82.7962 103.952 82.9616 104.288 83.2922 104.544C83.6229 104.789 84.0816 104.912 84.6683 104.912C85.2442 104.912 85.7456 104.784 86.1722 104.528C86.6096 104.272 86.9242 103.899 87.1163 103.408L87.4202 104.464C87.2176 104.965 86.8602 105.365 86.3482 105.664C85.8362 105.952 85.1909 106.096 84.4122 106.096ZM91.2548 106V94.128H92.7908V106H91.2548ZM99.5404 106V97.52H101.012V99.824L100.868 99.248C101.103 98.6613 101.498 98.2133 102.052 97.904C102.607 97.5947 103.29 97.44 104.1 97.44V98.928C104.036 98.9173 103.972 98.912 103.908 98.912C103.855 98.912 103.802 98.912 103.748 98.912C102.927 98.912 102.276 99.1573 101.796 99.648C101.316 100.139 101.076 100.848 101.076 101.776V106H99.5404ZM109.451 106.096C108.545 106.096 107.745 105.909 107.051 105.536C106.369 105.163 105.835 104.651 105.451 104C105.078 103.349 104.891 102.603 104.891 101.76C104.891 100.917 105.073 100.171 105.435 99.52C105.809 98.8693 106.315 98.3627 106.955 98C107.606 97.6267 108.337 97.44 109.147 97.44C109.969 97.44 110.694 97.6213 111.323 97.984C111.953 98.3467 112.443 98.8587 112.795 99.52C113.158 100.171 113.339 100.933 113.339 101.808C113.339 101.872 113.334 101.947 113.323 102.032C113.323 102.117 113.318 102.197 113.307 102.272H106.091V101.168H112.507L111.883 101.552C111.894 101.008 111.782 100.523 111.547 100.096C111.313 99.6693 110.987 99.3387 110.571 99.104C110.166 98.8587 109.691 98.736 109.147 98.736C108.614 98.736 108.139 98.8587 107.723 99.104C107.307 99.3387 106.982 99.6747 106.747 100.112C106.513 100.539 106.395 101.029 106.395 101.584V101.84C106.395 102.405 106.523 102.912 106.779 103.36C107.046 103.797 107.414 104.139 107.883 104.384C108.353 104.629 108.891 104.752 109.499 104.752C110.001 104.752 110.454 104.667 110.859 104.496C111.275 104.325 111.638 104.069 111.947 103.728L112.795 104.72C112.411 105.168 111.931 105.509 111.355 105.744C110.79 105.979 110.155 106.096 109.451 106.096ZM119.728 106.096C119.024 106.096 118.379 105.936 117.792 105.616C117.216 105.285 116.752 104.8 116.4 104.16C116.059 103.52 115.888 102.72 115.888 101.76C115.888 100.8 116.054 100 116.384 99.36C116.726 98.72 117.184 98.24 117.76 97.92C118.347 97.6 119.003 97.44 119.728 97.44C120.56 97.44 121.296 97.6213 121.936 97.984C122.576 98.3467 123.083 98.8533 123.456 99.504C123.83 100.144 124.016 100.896 124.016 101.76C124.016 102.624 123.83 103.381 123.456 104.032C123.083 104.683 122.576 105.189 121.936 105.552C121.296 105.915 120.56 106.096 119.728 106.096ZM115.232 109.104V97.52H116.704V99.808L116.608 101.776L116.768 103.744V109.104H115.232ZM119.6 104.752C120.144 104.752 120.63 104.629 121.056 104.384C121.494 104.139 121.835 103.792 122.08 103.344C122.336 102.885 122.464 102.357 122.464 101.76C122.464 101.152 122.336 100.629 122.08 100.192C121.835 99.744 121.494 99.3973 121.056 99.152C120.63 98.9067 120.144 98.784 119.6 98.784C119.067 98.784 118.582 98.9067 118.144 99.152C117.718 99.3973 117.376 99.744 117.12 100.192C116.875 100.629 116.752 101.152 116.752 101.76C116.752 102.357 116.875 102.885 117.12 103.344C117.376 103.792 117.718 104.139 118.144 104.384C118.582 104.629 119.067 104.752 119.6 104.752ZM125.898 106V97.52H127.37V99.824L127.226 99.248C127.461 98.6613 127.856 98.2133 128.41 97.904C128.965 97.5947 129.648 97.44 130.458 97.44V98.928C130.394 98.9173 130.33 98.912 130.266 98.912C130.213 98.912 130.16 98.912 130.106 98.912C129.285 98.912 128.634 99.1573 128.154 99.648C127.674 100.139 127.434 100.848 127.434 101.776V106H125.898ZM135.809 106.096C134.903 106.096 134.103 105.909 133.409 105.536C132.727 105.163 132.193 104.651 131.809 104C131.436 103.349 131.249 102.603 131.249 101.76C131.249 100.917 131.431 100.171 131.793 99.52C132.167 98.8693 132.673 98.3627 133.313 98C133.964 97.6267 134.695 97.44 135.505 97.44C136.327 97.44 137.052 97.6213 137.681 97.984C138.311 98.3467 138.801 98.8587 139.153 99.52C139.516 100.171 139.698 100.933 139.698 101.808C139.698 101.872 139.692 101.947 139.681 102.032C139.681 102.117 139.676 102.197 139.665 102.272H132.449V101.168H138.865L138.241 101.552C138.252 101.008 138.14 100.523 137.905 100.096C137.671 99.6693 137.345 99.3387 136.929 99.104C136.524 98.8587 136.049 98.736 135.505 98.736C134.972 98.736 134.497 98.8587 134.081 99.104C133.665 99.3387 133.34 99.6747 133.105 100.112C132.871 100.539 132.753 101.029 132.753 101.584V101.84C132.753 102.405 132.881 102.912 133.137 103.36C133.404 103.797 133.772 104.139 134.241 104.384C134.711 104.629 135.249 104.752 135.857 104.752C136.359 104.752 136.812 104.667 137.217 104.496C137.633 104.325 137.996 104.069 138.305 103.728L139.153 104.72C138.769 105.168 138.289 105.509 137.713 105.744C137.148 105.979 136.513 106.096 135.809 106.096ZM144.022 106.096C143.318 106.096 142.646 106 142.006 105.808C141.377 105.616 140.881 105.381 140.518 105.104L141.158 103.888C141.521 104.133 141.969 104.341 142.502 104.512C143.036 104.683 143.58 104.768 144.134 104.768C144.849 104.768 145.361 104.667 145.67 104.464C145.99 104.261 146.15 103.979 146.15 103.616C146.15 103.349 146.054 103.141 145.862 102.992C145.67 102.843 145.414 102.731 145.094 102.656C144.785 102.581 144.438 102.517 144.054 102.464C143.67 102.4 143.286 102.325 142.902 102.24C142.518 102.144 142.166 102.016 141.846 101.856C141.526 101.685 141.27 101.456 141.078 101.168C140.886 100.869 140.79 100.475 140.79 99.984C140.79 99.472 140.934 99.024 141.222 98.64C141.51 98.256 141.916 97.9627 142.438 97.76C142.972 97.5467 143.601 97.44 144.326 97.44C144.881 97.44 145.441 97.5093 146.006 97.648C146.582 97.776 147.052 97.9627 147.414 98.208L146.758 99.424C146.374 99.168 145.974 98.992 145.558 98.896C145.142 98.8 144.726 98.752 144.31 98.752C143.638 98.752 143.137 98.864 142.806 99.088C142.476 99.3013 142.31 99.5787 142.31 99.92C142.31 100.208 142.406 100.432 142.598 100.592C142.801 100.741 143.057 100.859 143.366 100.944C143.686 101.029 144.038 101.104 144.422 101.168C144.806 101.221 145.19 101.296 145.574 101.392C145.958 101.477 146.305 101.6 146.614 101.76C146.934 101.92 147.19 102.144 147.382 102.432C147.585 102.72 147.686 103.104 147.686 103.584C147.686 104.096 147.537 104.539 147.238 104.912C146.94 105.285 146.518 105.579 145.974 105.792C145.43 105.995 144.78 106.096 144.022 106.096ZM153.142 106.096C152.235 106.096 151.435 105.909 150.742 105.536C150.059 105.163 149.526 104.651 149.142 104C148.769 103.349 148.582 102.603 148.582 101.76C148.582 100.917 148.763 100.171 149.126 99.52C149.499 98.8693 150.006 98.3627 150.646 98C151.297 97.6267 152.027 97.44 152.838 97.44C153.659 97.44 154.385 97.6213 155.014 97.984C155.643 98.3467 156.134 98.8587 156.486 99.52C156.849 100.171 157.03 100.933 157.03 101.808C157.03 101.872 157.025 101.947 157.014 102.032C157.014 102.117 157.009 102.197 156.998 102.272H149.782V101.168H156.198L155.574 101.552C155.585 101.008 155.473 100.523 155.238 100.096C155.003 99.6693 154.678 99.3387 154.262 99.104C153.857 98.8587 153.382 98.736 152.838 98.736C152.305 98.736 151.83 98.8587 151.414 99.104C150.998 99.3387 150.673 99.6747 150.438 100.112C150.203 100.539 150.086 101.029 150.086 101.584V101.84C150.086 102.405 150.214 102.912 150.47 103.36C150.737 103.797 151.105 104.139 151.574 104.384C152.043 104.629 152.582 104.752 153.19 104.752C153.691 104.752 154.145 104.667 154.55 104.496C154.966 104.325 155.329 104.069 155.638 103.728L156.486 104.72C156.102 105.168 155.622 105.509 155.046 105.744C154.481 105.979 153.846 106.096 153.142 106.096ZM163.451 97.44C164.144 97.44 164.752 97.5733 165.275 97.84C165.808 98.1067 166.224 98.512 166.523 99.056C166.822 99.6 166.971 100.288 166.971 101.12V106H165.435V101.296C165.435 100.475 165.232 99.856 164.827 99.44C164.432 99.024 163.872 98.816 163.147 98.816C162.603 98.816 162.128 98.9227 161.723 99.136C161.318 99.3493 161.003 99.664 160.779 100.08C160.566 100.496 160.459 101.013 160.459 101.632V106H158.923V97.52H160.395V99.808L160.155 99.2C160.432 98.6453 160.859 98.2133 161.435 97.904C162.011 97.5947 162.683 97.44 163.451 97.44ZM172.485 106.096C171.632 106.096 170.971 105.867 170.501 105.408C170.032 104.949 169.797 104.293 169.797 103.44V95.664H171.333V103.376C171.333 103.835 171.445 104.187 171.669 104.432C171.904 104.677 172.235 104.8 172.661 104.8C173.141 104.8 173.541 104.667 173.861 104.4L174.341 105.504C174.107 105.707 173.824 105.856 173.493 105.952C173.173 106.048 172.837 106.096 172.485 106.096ZM168.357 98.784V97.52H173.765V98.784H168.357ZM181.223 106V104.208L181.143 103.872V100.816C181.143 100.165 180.951 99.664 180.567 99.312C180.193 98.9493 179.628 98.768 178.871 98.768C178.369 98.768 177.879 98.8533 177.399 99.024C176.919 99.184 176.513 99.4027 176.183 99.68L175.543 98.528C175.98 98.176 176.503 97.9093 177.111 97.728C177.729 97.536 178.375 97.44 179.047 97.44C180.209 97.44 181.105 97.7227 181.735 98.288C182.364 98.8533 182.679 99.7173 182.679 100.88V106H181.223ZM178.439 106.096C177.809 106.096 177.255 105.989 176.775 105.776C176.305 105.563 175.943 105.269 175.687 104.896C175.431 104.512 175.303 104.08 175.303 103.6C175.303 103.141 175.409 102.725 175.623 102.352C175.847 101.979 176.204 101.68 176.695 101.456C177.196 101.232 177.868 101.12 178.711 101.12H181.399V102.224H178.775C178.007 102.224 177.489 102.352 177.223 102.608C176.956 102.864 176.823 103.173 176.823 103.536C176.823 103.952 176.988 104.288 177.319 104.544C177.649 104.789 178.108 104.912 178.695 104.912C179.271 104.912 179.772 104.784 180.199 104.528C180.636 104.272 180.951 103.899 181.143 103.408L181.447 104.464C181.244 104.965 180.887 105.365 180.375 105.664C179.863 105.952 179.217 106.096 178.439 106.096ZM188.193 106.096C187.34 106.096 186.678 105.867 186.209 105.408C185.74 104.949 185.505 104.293 185.505 103.44V95.664H187.041V103.376C187.041 103.835 187.153 104.187 187.377 104.432C187.612 104.677 187.942 104.8 188.369 104.8C188.849 104.8 189.249 104.667 189.569 104.4L190.049 105.504C189.814 105.707 189.532 105.856 189.201 105.952C188.881 106.048 188.545 106.096 188.193 106.096ZM184.065 98.784V97.52H189.473V98.784H184.065ZM191.666 106V97.52H193.202V106H191.666ZM192.434 95.888C192.135 95.888 191.885 95.792 191.682 95.6C191.49 95.408 191.394 95.1733 191.394 94.896C191.394 94.608 191.49 94.368 191.682 94.176C191.885 93.984 192.135 93.888 192.434 93.888C192.733 93.888 192.978 93.984 193.17 94.176C193.373 94.3573 193.474 94.5867 193.474 94.864C193.474 95.152 193.378 95.3973 193.186 95.6C192.994 95.792 192.743 95.888 192.434 95.888ZM199.527 106.096C198.673 106.096 197.916 105.909 197.255 105.536C196.593 105.163 196.071 104.651 195.687 104C195.303 103.339 195.111 102.592 195.111 101.76C195.111 100.917 195.303 100.171 195.687 99.52C196.071 98.8693 196.593 98.3627 197.255 98C197.916 97.6267 198.673 97.44 199.527 97.44C200.369 97.44 201.121 97.6267 201.783 98C202.455 98.3627 202.977 98.8693 203.351 99.52C203.735 100.16 203.927 100.907 203.927 101.76C203.927 102.603 203.735 103.349 203.351 104C202.977 104.651 202.455 105.163 201.783 105.536C201.121 105.909 200.369 106.096 199.527 106.096ZM199.527 104.752C200.071 104.752 200.556 104.629 200.983 104.384C201.42 104.139 201.761 103.792 202.007 103.344C202.252 102.885 202.375 102.357 202.375 101.76C202.375 101.152 202.252 100.629 202.007 100.192C201.761 99.744 201.42 99.3973 200.983 99.152C200.556 98.9067 200.071 98.784 199.527 98.784C198.983 98.784 198.497 98.9067 198.071 99.152C197.644 99.3973 197.303 99.744 197.047 100.192C196.791 100.629 196.663 101.152 196.663 101.76C196.663 102.357 196.791 102.885 197.047 103.344C197.303 103.792 197.644 104.139 198.071 104.384C198.497 104.629 198.983 104.752 199.527 104.752ZM210.339 97.44C211.032 97.44 211.64 97.5733 212.163 97.84C212.696 98.1067 213.112 98.512 213.411 99.056C213.71 99.6 213.859 100.288 213.859 101.12V106H212.323V101.296C212.323 100.475 212.12 99.856 211.715 99.44C211.32 99.024 210.76 98.816 210.035 98.816C209.491 98.816 209.016 98.9227 208.611 99.136C208.206 99.3493 207.891 99.664 207.667 100.08C207.454 100.496 207.347 101.013 207.347 101.632V106H205.811V97.52H207.283V99.808L207.043 99.2C207.32 98.6453 207.747 98.2133 208.323 97.904C208.899 97.5947 209.571 97.44 210.339 97.44ZM216.83 106.096C216.531 106.096 216.275 105.995 216.062 105.792C215.848 105.579 215.742 105.312 215.742 104.992C215.742 104.672 215.848 104.411 216.062 104.208C216.275 104.005 216.531 103.904 216.83 103.904C217.118 103.904 217.363 104.005 217.566 104.208C217.779 104.411 217.886 104.672 217.886 104.992C217.886 105.312 217.779 105.579 217.566 105.792C217.363 105.995 217.118 106.096 216.83 106.096Z" fill="#5D2596"/>
</svg>
