<svg width="1344" height="120" viewBox="0 0 1344 120" fill="none" xmlns="http://www.w3.org/2000/svg">
<rect width="1344" height="120" rx="20" fill="url(#paint0_linear_121_39)" fill-opacity="0.15"/>
<g filter="url(#filter0_d_121_39)">
<rect x="832" y="28" width="180" height="64" rx="12" fill="white"/>
</g>
<path d="M61.192 71V51.4H69.648C71.832 51.4 73.5213 51.8387 74.716 52.716C75.9293 53.5933 76.536 54.8347 76.536 56.44C76.536 57.504 76.284 58.4 75.78 59.128C75.2947 59.856 74.6227 60.4067 73.764 60.78C72.924 61.1533 72 61.34 70.992 61.34L71.468 60.668C72.7187 60.668 73.792 60.864 74.688 61.256C75.6027 61.6293 76.312 62.1987 76.816 62.964C77.32 63.7107 77.572 64.644 77.572 65.764C77.572 67.4253 76.956 68.7133 75.724 69.628C74.5107 70.5427 72.672 71 70.208 71H61.192ZM63.264 69.292H70.18C71.8973 69.292 73.2133 69.0027 74.128 68.424C75.0427 67.8267 75.5 66.884 75.5 65.596C75.5 64.3267 75.0427 63.4027 74.128 62.824C73.2133 62.2267 71.8973 61.928 70.18 61.928H63.04V60.22H69.508C71.076 60.22 72.2893 59.9213 73.148 59.324C74.0253 58.7267 74.464 57.84 74.464 56.664C74.464 55.4693 74.0253 54.5827 73.148 54.004C72.2893 53.4067 71.076 53.108 69.508 53.108H63.264V69.292ZM90.6734 71V67.752L90.5894 67.22V61.788C90.5894 60.5373 90.2347 59.576 89.5254 58.904C88.8347 58.232 87.7987 57.896 86.4174 57.896C85.4654 57.896 84.56 58.0547 83.7014 58.372C82.8427 58.6893 82.1147 59.1093 81.5174 59.632L80.6214 58.148C81.368 57.5133 82.264 57.028 83.3094 56.692C84.3547 56.3373 85.456 56.16 86.6134 56.16C88.5174 56.16 89.9827 56.636 91.0094 57.588C92.0547 58.5213 92.5774 59.9493 92.5774 61.872V71H90.6734ZM85.6054 71.14C84.504 71.14 83.5427 70.9627 82.7214 70.608C81.9187 70.2347 81.3027 69.7307 80.8734 69.096C80.444 68.4427 80.2294 67.696 80.2294 66.856C80.2294 66.0907 80.4067 65.4 80.7614 64.784C81.1347 64.1493 81.732 63.6453 82.5534 63.272C83.3934 62.88 84.5134 62.684 85.9134 62.684H90.9814V64.168H85.9694C84.5507 64.168 83.5614 64.42 83.0014 64.924C82.46 65.428 82.1894 66.0533 82.1894 66.8C82.1894 67.64 82.516 68.312 83.1694 68.816C83.8227 69.32 84.7374 69.572 85.9134 69.572C87.0334 69.572 87.9947 69.32 88.7974 68.816C89.6187 68.2933 90.216 67.5467 90.5894 66.576L91.0374 67.948C90.664 68.9187 90.0107 69.6933 89.0774 70.272C88.1627 70.8507 87.0054 71.14 85.6054 71.14ZM103.661 71.14C102.205 71.14 100.898 70.8227 99.741 70.188C98.6023 69.5347 97.7063 68.648 97.053 67.528C96.3997 66.3893 96.073 65.092 96.073 63.636C96.073 62.1613 96.3997 60.864 97.053 59.744C97.7063 58.624 98.6023 57.7467 99.741 57.112C100.898 56.4773 102.205 56.16 103.661 56.16C104.912 56.16 106.041 56.4027 107.049 56.888C108.057 57.3733 108.85 58.1013 109.429 59.072L107.945 60.08C107.441 59.3333 106.816 58.7827 106.069 58.428C105.322 58.0733 104.51 57.896 103.633 57.896C102.588 57.896 101.645 58.1387 100.805 58.624C99.965 59.0907 99.3023 59.7533 98.817 60.612C98.3317 61.4707 98.089 62.4787 98.089 63.636C98.089 64.7933 98.3317 65.8013 98.817 66.66C99.3023 67.5187 99.965 68.1907 100.805 68.676C101.645 69.1427 102.588 69.376 103.633 69.376C104.51 69.376 105.322 69.1987 106.069 68.844C106.816 68.4893 107.441 67.948 107.945 67.22L109.429 68.228C108.85 69.18 108.057 69.908 107.049 70.412C106.041 70.8973 104.912 71.14 103.661 71.14ZM114.264 67.192L114.32 64.644L123.476 56.3H125.912L119.444 62.488L118.324 63.44L114.264 67.192ZM112.696 71V50.224H114.684V71H112.696ZM124.092 71L117.96 63.356L119.248 61.816L126.528 71H124.092Z" fill="#443752"/>
<path d="M908.192 71V51.4H910.264V69.208H921.24V71H908.192ZM921.124 71L930.084 51.4H932.128L941.088 71H938.904L930.672 52.604H931.512L923.28 71H921.124ZM924.652 65.764L925.268 64.084H936.664L937.28 65.764H924.652ZM943.911 71V51.4H952.367C954.551 51.4 956.24 51.8387 957.435 52.716C958.648 53.5933 959.255 54.8347 959.255 56.44C959.255 57.504 959.003 58.4 958.499 59.128C958.013 59.856 957.341 60.4067 956.483 60.78C955.643 61.1533 954.719 61.34 953.711 61.34L954.187 60.668C955.437 60.668 956.511 60.864 957.407 61.256C958.321 61.6293 959.031 62.1987 959.535 62.964C960.039 63.7107 960.291 64.644 960.291 65.764C960.291 67.4253 959.675 68.7133 958.443 69.628C957.229 70.5427 955.391 71 952.927 71H943.911ZM945.983 69.292H952.899C954.616 69.292 955.932 69.0027 956.847 68.424C957.761 67.8267 958.219 66.884 958.219 65.596C958.219 64.3267 957.761 63.4027 956.847 62.824C955.932 62.2267 954.616 61.928 952.899 61.928H945.759V60.22H952.227C953.795 60.22 955.008 59.9213 955.867 59.324C956.744 58.7267 957.183 57.84 957.183 56.664C957.183 55.4693 956.744 54.5827 955.867 54.004C955.008 53.4067 953.795 53.108 952.227 53.108H945.983V69.292ZM969.996 64.28V62.544H977.332V64.28H969.996ZM986.588 71V69.572L994.736 61.592C995.482 60.864 996.042 60.2293 996.416 59.688C996.789 59.128 997.041 58.6053 997.172 58.12C997.302 57.6347 997.368 57.1773 997.368 56.748C997.368 55.6093 996.976 54.7133 996.192 54.06C995.426 53.4067 994.288 53.08 992.776 53.08C991.618 53.08 990.592 53.2573 989.696 53.612C988.818 53.9667 988.062 54.5173 987.428 55.264L986 54.032C986.765 53.136 987.745 52.4453 988.94 51.96C990.134 51.4747 991.469 51.232 992.944 51.232C994.269 51.232 995.417 51.4467 996.388 51.876C997.358 52.2867 998.105 52.8933 998.628 53.696C999.169 54.4987 999.44 55.4413 999.44 56.524C999.44 57.1587 999.346 57.784 999.16 58.4C998.992 59.016 998.674 59.6693 998.208 60.36C997.76 61.032 997.097 61.7973 996.22 62.656L988.744 69.992L988.184 69.208H1000.34V71H986.588Z" fill="#2F2E41"/>
<path d="M1146.15 60.5134C1147.31 59.2671 1147.97 57.6328 1147.99 55.93C1147.99 54.0921 1147.26 52.3294 1145.96 51.0298C1144.66 49.7301 1142.89 49 1141.06 49C1139.22 49 1137.45 49.7301 1136.16 51.0298C1134.86 52.3294 1134.13 54.0921 1134.13 55.93C1134.14 57.6328 1134.8 59.2671 1135.96 60.5134C1134.34 61.3179 1132.95 62.5116 1131.91 63.9869C1130.87 65.4621 1130.22 67.1728 1130 68.965C1129.95 69.4513 1130.09 69.9388 1130.39 70.3205C1130.7 70.7021 1131.15 70.9465 1131.63 71C1132.12 71.0535 1132.61 70.9116 1132.99 70.6057C1133.37 70.2997 1133.61 69.8546 1133.67 69.3684C1133.89 67.5921 1134.75 65.9572 1136.09 64.7716C1137.43 63.5859 1139.16 62.9315 1140.95 62.9315C1142.73 62.9315 1144.46 63.5859 1145.8 64.7716C1147.14 65.9572 1148 67.5921 1148.22 69.3684C1148.27 69.8384 1148.51 70.2707 1148.87 70.5747C1149.23 70.8788 1149.7 71.0311 1150.17 71H1150.37C1150.85 70.9447 1151.29 70.7017 1151.59 70.324C1151.89 69.9462 1152.03 69.4644 1151.98 68.9834C1151.78 67.2006 1151.15 65.4946 1150.13 64.0169C1149.11 62.5393 1147.75 61.3358 1146.15 60.5134V60.5134ZM1141 59.1934C1140.35 59.1934 1139.72 59.002 1139.19 58.6434C1138.65 58.2848 1138.23 57.7751 1137.99 57.1788C1137.74 56.5825 1137.67 55.9264 1137.8 55.2934C1137.93 54.6604 1138.24 54.0789 1138.69 53.6225C1139.15 53.1661 1139.73 52.8553 1140.36 52.7294C1141 52.6035 1141.65 52.6681 1142.25 52.9151C1142.85 53.1621 1143.36 53.5804 1143.71 54.117C1144.07 54.6537 1144.26 55.2846 1144.26 55.93C1144.26 56.7955 1143.92 57.6256 1143.31 58.2375C1142.7 58.8495 1141.87 59.1934 1141 59.1934V59.1934ZM1153.83 41.6667H1128.17C1126.71 41.6667 1125.31 42.2461 1124.28 43.2776C1123.25 44.3091 1122.67 45.708 1122.67 47.1667V72.8334C1122.67 74.292 1123.25 75.691 1124.28 76.7224C1125.31 77.7539 1126.71 78.3334 1128.17 78.3334H1153.83C1155.29 78.3334 1156.69 77.7539 1157.72 76.7224C1158.75 75.691 1159.33 74.292 1159.33 72.8334V47.1667C1159.33 45.708 1158.75 44.3091 1157.72 43.2776C1156.69 42.2461 1155.29 41.6667 1153.83 41.6667ZM1155.67 72.8334C1155.67 73.3196 1155.47 73.7859 1155.13 74.1297C1154.79 74.4735 1154.32 74.6667 1153.83 74.6667H1128.17C1127.68 74.6667 1127.21 74.4735 1126.87 74.1297C1126.53 73.7859 1126.33 73.3196 1126.33 72.8334V47.1667C1126.33 46.6805 1126.53 46.2141 1126.87 45.8703C1127.21 45.5265 1127.68 45.3334 1128.17 45.3334H1153.83C1154.32 45.3334 1154.79 45.5265 1155.13 45.8703C1155.47 46.2141 1155.67 46.6805 1155.67 47.1667V72.8334Z" fill="black"/>
<path d="M1182.7 70.168C1181.23 70.168 1179.87 69.9253 1178.62 69.44C1177.37 68.936 1176.28 68.236 1175.37 67.34C1174.45 66.444 1173.73 65.3893 1173.21 64.176C1172.71 62.9627 1172.46 61.6373 1172.46 60.2C1172.46 58.7627 1172.71 57.4373 1173.21 56.224C1173.73 55.0107 1174.45 53.956 1175.37 53.06C1176.3 52.164 1177.39 51.4733 1178.64 50.988C1179.89 50.484 1181.26 50.232 1182.73 50.232C1184.15 50.232 1185.49 50.4747 1186.74 50.96C1187.99 51.4267 1189.04 52.136 1189.9 53.088L1188.58 54.404C1187.78 53.5827 1186.89 52.9947 1185.92 52.64C1184.95 52.2667 1183.91 52.08 1182.79 52.08C1181.61 52.08 1180.52 52.2853 1179.51 52.696C1178.5 53.088 1177.63 53.6573 1176.88 54.404C1176.13 55.132 1175.55 55.9907 1175.12 56.98C1174.71 57.9507 1174.5 59.024 1174.5 60.2C1174.5 61.376 1174.71 62.4587 1175.12 63.448C1175.55 64.4187 1176.13 65.2773 1176.88 66.024C1177.63 66.752 1178.5 67.3213 1179.51 67.732C1180.52 68.124 1181.61 68.32 1182.79 68.32C1183.91 68.32 1184.95 68.1333 1185.92 67.76C1186.89 67.3867 1187.78 66.7893 1188.58 65.968L1189.9 67.284C1189.04 68.236 1187.99 68.9547 1186.74 69.44C1185.49 69.9253 1184.14 70.168 1182.7 70.168ZM1198.81 70.14C1197.39 70.14 1196.12 69.8227 1194.98 69.188C1193.86 68.5347 1192.97 67.648 1192.32 66.528C1191.66 65.3893 1191.34 64.092 1191.34 62.636C1191.34 61.1613 1191.66 59.864 1192.32 58.744C1192.97 57.624 1193.86 56.7467 1194.98 56.112C1196.1 55.4773 1197.38 55.16 1198.81 55.16C1200.27 55.16 1201.56 55.4773 1202.68 56.112C1203.82 56.7467 1204.7 57.624 1205.34 58.744C1205.99 59.864 1206.32 61.1613 1206.32 62.636C1206.32 64.092 1205.99 65.3893 1205.34 66.528C1204.7 67.648 1203.82 68.5347 1202.68 69.188C1201.54 69.8227 1200.25 70.14 1198.81 70.14ZM1198.81 68.376C1199.88 68.376 1200.82 68.1427 1201.64 67.676C1202.46 67.1907 1203.11 66.5187 1203.57 65.66C1204.06 64.7827 1204.3 63.7747 1204.3 62.636C1204.3 61.4787 1204.06 60.4707 1203.57 59.612C1203.11 58.7533 1202.46 58.0907 1201.64 57.624C1200.82 57.1387 1199.89 56.896 1198.84 56.896C1197.8 56.896 1196.86 57.1387 1196.04 57.624C1195.22 58.0907 1194.57 58.7533 1194.08 59.612C1193.6 60.4707 1193.35 61.4787 1193.35 62.636C1193.35 63.7747 1193.6 64.7827 1194.08 65.66C1194.57 66.5187 1195.22 67.1907 1196.04 67.676C1196.86 68.1427 1197.79 68.376 1198.81 68.376ZM1217.46 55.16C1218.65 55.16 1219.7 55.3933 1220.6 55.86C1221.51 56.308 1222.22 56.9987 1222.72 57.932C1223.25 58.8653 1223.51 60.0413 1223.51 61.46V70H1221.52V61.656C1221.52 60.1067 1221.13 58.94 1220.34 58.156C1219.58 57.3533 1218.5 56.952 1217.1 56.952C1216.05 56.952 1215.14 57.1667 1214.35 57.596C1213.59 58.0067 1212.99 58.6133 1212.56 59.416C1212.15 60.2 1211.94 61.152 1211.94 62.272V70H1209.96V55.3H1211.86V59.332L1211.55 58.576C1212.02 57.512 1212.76 56.6813 1213.79 56.084C1214.82 55.468 1216.04 55.16 1217.46 55.16ZM1233.11 70.14C1231.72 70.14 1230.66 69.7667 1229.91 69.02C1229.17 68.2733 1228.79 67.2187 1228.79 65.856V52.052H1230.78V65.744C1230.78 66.6027 1231 67.2653 1231.43 67.732C1231.87 68.1987 1232.51 68.432 1233.33 68.432C1234.21 68.432 1234.93 68.18 1235.51 67.676L1236.21 69.104C1235.82 69.4587 1235.35 69.72 1234.79 69.888C1234.24 70.056 1233.68 70.14 1233.11 70.14ZM1226.16 56.952V55.3H1235.26V56.952H1226.16ZM1248.62 70V66.752L1248.54 66.22V60.788C1248.54 59.5373 1248.19 58.576 1247.48 57.904C1246.79 57.232 1245.75 56.896 1244.37 56.896C1243.42 56.896 1242.51 57.0547 1241.65 57.372C1240.79 57.6893 1240.07 58.1093 1239.47 58.632L1238.57 57.148C1239.32 56.5133 1240.21 56.028 1241.26 55.692C1242.31 55.3373 1243.41 55.16 1244.56 55.16C1246.47 55.16 1247.93 55.636 1248.96 56.588C1250.01 57.5213 1250.53 58.9493 1250.53 60.872V70H1248.62ZM1243.56 70.14C1242.45 70.14 1241.49 69.9627 1240.67 69.608C1239.87 69.2347 1239.25 68.7307 1238.82 68.096C1238.39 67.4427 1238.18 66.696 1238.18 65.856C1238.18 65.0907 1238.36 64.4 1238.71 63.784C1239.09 63.1493 1239.68 62.6453 1240.5 62.272C1241.34 61.88 1242.46 61.684 1243.86 61.684H1248.93V63.168H1243.92C1242.5 63.168 1241.51 63.42 1240.95 63.924C1240.41 64.428 1240.14 65.0533 1240.14 65.8C1240.14 66.64 1240.47 67.312 1241.12 67.816C1241.77 68.32 1242.69 68.572 1243.86 68.572C1244.98 68.572 1245.95 68.32 1246.75 67.816C1247.57 67.2933 1248.17 66.5467 1248.54 65.576L1248.99 66.948C1248.61 67.9187 1247.96 68.6933 1247.03 69.272C1246.11 69.8507 1244.96 70.14 1243.56 70.14ZM1261.61 70.14C1260.16 70.14 1258.85 69.8227 1257.69 69.188C1256.55 68.5347 1255.66 67.648 1255 66.528C1254.35 65.3893 1254.02 64.092 1254.02 62.636C1254.02 61.1613 1254.35 59.864 1255 58.744C1255.66 57.624 1256.55 56.7467 1257.69 56.112C1258.85 55.4773 1260.16 55.16 1261.61 55.16C1262.86 55.16 1263.99 55.4027 1265 55.888C1266.01 56.3733 1266.8 57.1013 1267.38 58.072L1265.9 59.08C1265.39 58.3333 1264.77 57.7827 1264.02 57.428C1263.27 57.0733 1262.46 56.896 1261.58 56.896C1260.54 56.896 1259.6 57.1387 1258.76 57.624C1257.92 58.0907 1257.25 58.7533 1256.77 59.612C1256.28 60.4707 1256.04 61.4787 1256.04 62.636C1256.04 63.7933 1256.28 64.8013 1256.77 65.66C1257.25 66.5187 1257.92 67.1907 1258.76 67.676C1259.6 68.1427 1260.54 68.376 1261.58 68.376C1262.46 68.376 1263.27 68.1987 1264.02 67.844C1264.77 67.4893 1265.39 66.948 1265.9 66.22L1267.38 67.228C1266.8 68.18 1266.01 68.908 1265 69.412C1263.99 69.8973 1262.86 70.14 1261.61 70.14ZM1275.68 70.14C1274.3 70.14 1273.23 69.7667 1272.49 69.02C1271.74 68.2733 1271.37 67.2187 1271.37 65.856V52.052H1273.35V65.744C1273.35 66.6027 1273.57 67.2653 1274 67.732C1274.45 68.1987 1275.08 68.432 1275.9 68.432C1276.78 68.432 1277.51 68.18 1278.09 67.676L1278.79 69.104C1278.39 69.4587 1277.92 69.72 1277.36 69.888C1276.82 70.056 1276.26 70.14 1275.68 70.14ZM1268.73 56.952V55.3H1277.83V56.952H1268.73ZM1297.21 70.168C1294.71 70.168 1292.74 69.4493 1291.3 68.012C1289.86 66.5747 1289.14 64.4467 1289.14 61.628V50.4H1291.22V61.544C1291.22 63.8587 1291.74 65.5667 1292.78 66.668C1293.83 67.7693 1295.3 68.32 1297.21 68.32C1299.13 68.32 1300.62 67.7693 1301.66 66.668C1302.71 65.5667 1303.23 63.8587 1303.23 61.544V50.4H1305.24V61.628C1305.24 64.4467 1304.53 66.5747 1303.09 68.012C1301.67 69.4493 1299.71 70.168 1297.21 70.168ZM1314.6 70.14C1313.38 70.14 1312.23 69.972 1311.15 69.636C1310.07 69.2813 1309.22 68.8427 1308.6 68.32L1309.5 66.752C1310.1 67.2 1310.86 67.592 1311.8 67.928C1312.73 68.2453 1313.71 68.404 1314.74 68.404C1316.14 68.404 1317.14 68.1893 1317.76 67.76C1318.38 67.312 1318.68 66.724 1318.68 65.996C1318.68 65.4547 1318.51 65.0347 1318.15 64.736C1317.82 64.4187 1317.37 64.1853 1316.81 64.036C1316.25 63.868 1315.62 63.728 1314.93 63.616C1314.24 63.504 1313.55 63.3733 1312.86 63.224C1312.19 63.0747 1311.57 62.86 1311.01 62.58C1310.45 62.2813 1309.99 61.88 1309.64 61.376C1309.3 60.872 1309.14 60.2 1309.14 59.36C1309.14 58.5573 1309.36 57.8387 1309.81 57.204C1310.26 56.5693 1310.91 56.0747 1311.77 55.72C1312.65 55.3467 1313.71 55.16 1314.96 55.16C1315.91 55.16 1316.86 55.2907 1317.82 55.552C1318.77 55.7947 1319.55 56.1213 1320.17 56.532L1319.3 58.128C1318.65 57.68 1317.95 57.3627 1317.2 57.176C1316.45 56.9707 1315.71 56.868 1314.96 56.868C1313.63 56.868 1312.65 57.1013 1312.02 57.568C1311.4 58.016 1311.1 58.5947 1311.1 59.304C1311.1 59.864 1311.26 60.3027 1311.6 60.62C1311.95 60.9373 1312.41 61.1893 1312.97 61.376C1313.55 61.544 1314.18 61.684 1314.85 61.796C1315.54 61.908 1316.22 62.048 1316.89 62.216C1317.58 62.3653 1318.21 62.58 1318.77 62.86C1319.35 63.1213 1319.8 63.504 1320.14 64.008C1320.49 64.4933 1320.67 65.1373 1320.67 65.94C1320.67 66.7987 1320.43 67.5453 1319.94 68.18C1319.48 68.796 1318.79 69.2813 1317.87 69.636C1316.98 69.972 1315.88 70.14 1314.6 70.14Z" fill="#443752"/>
<path fill-rule="evenodd" clip-rule="evenodd" d="M868.665 41.8292C868.876 41.7236 869.124 41.7236 869.336 41.8292L885.836 50.0792C886.09 50.2062 886.25 50.4659 886.25 50.75C886.25 51.0341 886.09 51.2938 885.836 51.4208L869.336 59.6708C869.124 59.7764 868.876 59.7764 868.665 59.6708L852.165 51.4208C851.911 51.2938 851.75 51.0341 851.75 50.75C851.75 50.4659 851.911 50.2062 852.165 50.0792L868.665 41.8292ZM854.177 50.75L869 58.1615L883.823 50.75L869 43.3385L854.177 50.75ZM851.845 67.8024C852.046 67.4403 852.502 67.3099 852.864 67.511L869 76.4754L885.136 67.511C885.498 67.3099 885.955 67.4403 886.156 67.8024C886.357 68.1645 886.226 68.6211 885.864 68.8223L869.364 77.989C869.138 78.1148 868.862 78.1148 868.636 77.989L852.136 68.8223C851.774 68.6211 851.643 68.1645 851.845 67.8024ZM852.864 58.3444C852.502 58.1432 852.046 58.2737 851.845 58.6358C851.643 58.9979 851.774 59.4545 852.136 59.6556L868.636 68.8223C868.862 68.9481 869.138 68.9481 869.364 68.8223L885.864 59.6556C886.226 59.4545 886.357 58.9979 886.156 58.6358C885.955 58.2737 885.498 58.1432 885.136 58.3444L869 67.3087L852.864 58.3444Z" fill="#18191A"/>
<path d="M299.856 69V54.288H294.096V52.2H307.992V54.288H302.232V69H299.856ZM316.702 56.16C317.742 56.16 318.654 56.36 319.438 56.76C320.238 57.16 320.862 57.768 321.31 58.584C321.758 59.4 321.982 60.432 321.982 61.68V69H319.678V61.944C319.678 60.712 319.374 59.784 318.766 59.16C318.174 58.536 317.334 58.224 316.246 58.224C315.43 58.224 314.718 58.384 314.11 58.704C313.502 59.024 313.03 59.496 312.694 60.12C312.374 60.744 312.214 61.52 312.214 62.448V69H309.91V51.192H312.214V59.712L311.758 58.8C312.174 57.968 312.814 57.32 313.678 56.856C314.542 56.392 315.55 56.16 316.702 56.16ZM325.886 69V56.28H328.19V69H325.886ZM327.038 53.832C326.59 53.832 326.214 53.688 325.91 53.4C325.622 53.112 325.478 52.76 325.478 52.344C325.478 51.912 325.622 51.552 325.91 51.264C326.214 50.976 326.59 50.832 327.038 50.832C327.486 50.832 327.854 50.976 328.142 51.264C328.446 51.536 328.598 51.88 328.598 52.296C328.598 52.728 328.454 53.096 328.166 53.4C327.878 53.688 327.502 53.832 327.038 53.832ZM335.877 69.144C334.821 69.144 333.813 69 332.853 68.712C331.909 68.424 331.165 68.072 330.621 67.656L331.581 65.832C332.125 66.2 332.797 66.512 333.597 66.768C334.397 67.024 335.213 67.152 336.045 67.152C337.117 67.152 337.885 67 338.349 66.696C338.829 66.392 339.069 65.968 339.069 65.424C339.069 65.024 338.925 64.712 338.637 64.488C338.349 64.264 337.965 64.096 337.485 63.984C337.021 63.872 336.501 63.776 335.925 63.696C335.349 63.6 334.773 63.488 334.197 63.36C333.621 63.216 333.093 63.024 332.613 62.784C332.133 62.528 331.749 62.184 331.461 61.752C331.173 61.304 331.029 60.712 331.029 59.976C331.029 59.208 331.245 58.536 331.677 57.96C332.109 57.384 332.717 56.944 333.501 56.64C334.301 56.32 335.245 56.16 336.333 56.16C337.165 56.16 338.005 56.264 338.853 56.472C339.717 56.664 340.421 56.944 340.965 57.312L339.981 59.136C339.405 58.752 338.805 58.488 338.181 58.344C337.557 58.2 336.933 58.128 336.309 58.128C335.301 58.128 334.549 58.296 334.053 58.632C333.557 58.952 333.309 59.368 333.309 59.88C333.309 60.312 333.453 60.648 333.741 60.888C334.045 61.112 334.429 61.288 334.893 61.416C335.373 61.544 335.901 61.656 336.477 61.752C337.053 61.832 337.629 61.944 338.205 62.088C338.781 62.216 339.301 62.4 339.765 62.64C340.245 62.88 340.629 63.216 340.917 63.648C341.221 64.08 341.373 64.656 341.373 65.376C341.373 66.144 341.149 66.808 340.701 67.368C340.253 67.928 339.621 68.368 338.805 68.688C337.989 68.992 337.013 69.144 335.877 69.144ZM357.874 69V66.312L357.754 65.808V61.224C357.754 60.248 357.466 59.496 356.89 58.968C356.33 58.424 355.482 58.152 354.346 58.152C353.594 58.152 352.858 58.28 352.138 58.536C351.418 58.776 350.81 59.104 350.314 59.52L349.354 57.792C350.01 57.264 350.794 56.864 351.706 56.592C352.634 56.304 353.602 56.16 354.61 56.16C356.354 56.16 357.698 56.584 358.642 57.432C359.586 58.28 360.058 59.576 360.058 61.32V69H357.874ZM353.698 69.144C352.754 69.144 351.922 68.984 351.202 68.664C350.498 68.344 349.954 67.904 349.57 67.344C349.186 66.768 348.994 66.12 348.994 65.4C348.994 64.712 349.154 64.088 349.474 63.528C349.81 62.968 350.346 62.52 351.082 62.184C351.834 61.848 352.842 61.68 354.106 61.68H358.138V63.336H354.202C353.05 63.336 352.274 63.528 351.874 63.912C351.474 64.296 351.274 64.76 351.274 65.304C351.274 65.928 351.522 66.432 352.018 66.816C352.514 67.184 353.202 67.368 354.082 67.368C354.946 67.368 355.698 67.176 356.338 66.792C356.994 66.408 357.466 65.848 357.754 65.112L358.21 66.696C357.906 67.448 357.37 68.048 356.602 68.496C355.834 68.928 354.866 69.144 353.698 69.144ZM370.383 69V52.2H372.783V66.912H381.879V69H370.383ZM381.729 69L389.337 52.2H391.713L399.345 69H396.825L390.033 53.544H390.993L384.201 69H381.729ZM384.969 64.8L385.617 62.88H395.073L395.769 64.8H384.969ZM401.491 69V52.2H409.027C410.963 52.2 412.451 52.592 413.491 53.376C414.531 54.144 415.051 55.2 415.051 56.544C415.051 57.456 414.843 58.224 414.427 58.848C414.027 59.472 413.483 59.952 412.795 60.288C412.107 60.624 411.363 60.792 410.563 60.792L410.995 60.072C411.955 60.072 412.803 60.24 413.539 60.576C414.275 60.912 414.859 61.408 415.291 62.064C415.723 62.704 415.939 63.504 415.939 64.464C415.939 65.904 415.395 67.024 414.307 67.824C413.235 68.608 411.635 69 409.507 69H401.491ZM403.891 67.056H409.411C410.739 67.056 411.755 66.832 412.459 66.384C413.163 65.936 413.515 65.232 413.515 64.272C413.515 63.296 413.163 62.584 412.459 62.136C411.755 61.688 410.739 61.464 409.411 61.464H403.675V59.52H408.811C410.027 59.52 410.971 59.296 411.643 58.848C412.315 58.4 412.651 57.728 412.651 56.832C412.651 55.936 412.315 55.264 411.643 54.816C410.971 54.368 410.027 54.144 408.811 54.144H403.891V67.056ZM424.228 63.408V61.416H430.684V63.408H424.228ZM441.757 69V53.16L442.789 54.288H437.965V52.2H444.133V69H441.757ZM454.901 69V52.2H456.869L464.405 64.896H463.349L470.789 52.2H472.757L472.781 69H470.477L470.453 55.824H471.005L464.381 66.96H463.277L456.605 55.824H457.205V69H454.901ZM482.575 69.144C481.295 69.144 480.159 68.864 479.167 68.304C478.175 67.744 477.391 66.976 476.815 66C476.239 65.008 475.951 63.888 475.951 62.64C475.951 61.376 476.239 60.256 476.815 59.28C477.391 58.304 478.175 57.544 479.167 57C480.159 56.44 481.295 56.16 482.575 56.16C483.839 56.16 484.967 56.44 485.959 57C486.967 57.544 487.751 58.304 488.311 59.28C488.887 60.24 489.175 61.36 489.175 62.64C489.175 63.904 488.887 65.024 488.311 66C487.751 66.976 486.967 67.744 485.959 68.304C484.967 68.864 483.839 69.144 482.575 69.144ZM482.575 67.128C483.391 67.128 484.119 66.944 484.759 66.576C485.415 66.208 485.927 65.688 486.295 65.016C486.663 64.328 486.847 63.536 486.847 62.64C486.847 61.728 486.663 60.944 486.295 60.288C485.927 59.616 485.415 59.096 484.759 58.728C484.119 58.36 483.391 58.176 482.575 58.176C481.759 58.176 481.031 58.36 480.391 58.728C479.751 59.096 479.239 59.616 478.855 60.288C478.471 60.944 478.279 61.728 478.279 62.64C478.279 63.536 478.471 64.328 478.855 65.016C479.239 65.688 479.751 66.208 480.391 66.576C481.031 66.944 481.759 67.128 482.575 67.128ZM498.794 56.16C499.834 56.16 500.746 56.36 501.53 56.76C502.33 57.16 502.954 57.768 503.402 58.584C503.85 59.4 504.074 60.432 504.074 61.68V69H501.77V61.944C501.77 60.712 501.466 59.784 500.858 59.16C500.266 58.536 499.426 58.224 498.338 58.224C497.522 58.224 496.81 58.384 496.202 58.704C495.594 59.024 495.122 59.496 494.786 60.12C494.466 60.744 494.306 61.52 494.306 62.448V69H492.002V56.28H494.21V59.712L493.85 58.8C494.266 57.968 494.906 57.32 495.77 56.856C496.634 56.392 497.642 56.16 498.794 56.16ZM507.977 69V56.28H510.281V69H507.977ZM509.129 53.832C508.681 53.832 508.305 53.688 508.001 53.4C507.713 53.112 507.569 52.76 507.569 52.344C507.569 51.912 507.713 51.552 508.001 51.264C508.305 50.976 508.681 50.832 509.129 50.832C509.577 50.832 509.945 50.976 510.233 51.264C510.537 51.536 510.689 51.88 510.689 52.296C510.689 52.728 510.545 53.096 510.257 53.4C509.969 53.688 509.593 53.832 509.129 53.832ZM518.689 69.144C517.409 69.144 516.417 68.8 515.713 68.112C515.009 67.424 514.657 66.44 514.657 65.16V53.496H516.961V65.064C516.961 65.752 517.129 66.28 517.465 66.648C517.817 67.016 518.313 67.2 518.953 67.2C519.673 67.2 520.273 67 520.753 66.6L521.473 68.256C521.121 68.56 520.697 68.784 520.201 68.928C519.721 69.072 519.217 69.144 518.689 69.144ZM512.497 58.176V56.28H520.609V58.176H512.497ZM528.924 69.144C527.644 69.144 526.508 68.864 525.516 68.304C524.524 67.744 523.74 66.976 523.164 66C522.588 65.008 522.3 63.888 522.3 62.64C522.3 61.376 522.588 60.256 523.164 59.28C523.74 58.304 524.524 57.544 525.516 57C526.508 56.44 527.644 56.16 528.924 56.16C530.188 56.16 531.316 56.44 532.308 57C533.316 57.544 534.1 58.304 534.66 59.28C535.236 60.24 535.524 61.36 535.524 62.64C535.524 63.904 535.236 65.024 534.66 66C534.1 66.976 533.316 67.744 532.308 68.304C531.316 68.864 530.188 69.144 528.924 69.144ZM528.924 67.128C529.74 67.128 530.468 66.944 531.108 66.576C531.764 66.208 532.276 65.688 532.644 65.016C533.012 64.328 533.196 63.536 533.196 62.64C533.196 61.728 533.012 60.944 532.644 60.288C532.276 59.616 531.764 59.096 531.108 58.728C530.468 58.36 529.74 58.176 528.924 58.176C528.108 58.176 527.38 58.36 526.74 58.728C526.1 59.096 525.588 59.616 525.204 60.288C524.82 60.944 524.628 61.728 524.628 62.64C524.628 63.536 524.82 64.328 525.204 65.016C525.588 65.688 526.1 66.208 526.74 66.576C527.38 66.944 528.108 67.128 528.924 67.128ZM538.351 69V56.28H540.559V59.736L540.343 58.872C540.695 57.992 541.287 57.32 542.119 56.856C542.951 56.392 543.975 56.16 545.191 56.16V58.392C545.095 58.376 544.999 58.368 544.903 58.368C544.823 58.368 544.743 58.368 544.663 58.368C543.431 58.368 542.455 58.736 541.735 59.472C541.015 60.208 540.655 61.272 540.655 62.664V69H538.351ZM547.67 69V56.28H549.974V69H547.67ZM548.822 53.832C548.374 53.832 547.998 53.688 547.694 53.4C547.406 53.112 547.262 52.76 547.262 52.344C547.262 51.912 547.406 51.552 547.694 51.264C547.998 50.976 548.374 50.832 548.822 50.832C549.27 50.832 549.638 50.976 549.926 51.264C550.23 51.536 550.382 51.88 550.382 52.296C550.382 52.728 550.238 53.096 549.95 53.4C549.662 53.688 549.286 53.832 548.822 53.832ZM560.805 56.16C561.845 56.16 562.757 56.36 563.541 56.76C564.341 57.16 564.965 57.768 565.413 58.584C565.861 59.4 566.085 60.432 566.085 61.68V69H563.781V61.944C563.781 60.712 563.477 59.784 562.869 59.16C562.277 58.536 561.437 58.224 560.349 58.224C559.533 58.224 558.821 58.384 558.213 58.704C557.605 59.024 557.133 59.496 556.797 60.12C556.477 60.744 556.317 61.52 556.317 62.448V69H554.013V56.28H556.221V59.712L555.861 58.8C556.277 57.968 556.917 57.32 557.781 56.856C558.645 56.392 559.653 56.16 560.805 56.16ZM575.557 73.8C574.389 73.8 573.253 73.632 572.149 73.296C571.061 72.976 570.173 72.512 569.485 71.904L570.589 70.128C571.181 70.64 571.909 71.04 572.773 71.328C573.637 71.632 574.541 71.784 575.485 71.784C576.989 71.784 578.093 71.432 578.797 70.728C579.501 70.024 579.853 68.952 579.853 67.512V64.824L580.093 62.304L579.973 59.76V56.28H582.157V67.272C582.157 69.512 581.597 71.16 580.477 72.216C579.357 73.272 577.717 73.8 575.557 73.8ZM575.269 68.472C574.037 68.472 572.933 68.216 571.957 67.704C570.997 67.176 570.229 66.448 569.653 65.52C569.093 64.592 568.813 63.52 568.813 62.304C568.813 61.072 569.093 60 569.653 59.088C570.229 58.16 570.997 57.44 571.957 56.928C572.933 56.416 574.037 56.16 575.269 56.16C576.357 56.16 577.349 56.384 578.245 56.832C579.141 57.264 579.853 57.936 580.381 58.848C580.925 59.76 581.197 60.912 581.197 62.304C581.197 63.68 580.925 64.824 580.381 65.736C579.853 66.648 579.141 67.336 578.245 67.8C577.349 68.248 576.357 68.472 575.269 68.472ZM575.533 66.456C576.381 66.456 577.133 66.28 577.789 65.928C578.445 65.576 578.957 65.088 579.325 64.464C579.709 63.84 579.901 63.12 579.901 62.304C579.901 61.488 579.709 60.768 579.325 60.144C578.957 59.52 578.445 59.04 577.789 58.704C577.133 58.352 576.381 58.176 575.533 58.176C574.685 58.176 573.925 58.352 573.253 58.704C572.597 59.04 572.077 59.52 571.693 60.144C571.325 60.768 571.141 61.488 571.141 62.304C571.141 63.12 571.325 63.84 571.693 64.464C572.077 65.088 572.597 65.576 573.253 65.928C573.925 66.28 574.685 66.456 575.533 66.456ZM600.181 69V66.312L600.061 65.808V61.224C600.061 60.248 599.773 59.496 599.197 58.968C598.637 58.424 597.789 58.152 596.653 58.152C595.901 58.152 595.165 58.28 594.445 58.536C593.725 58.776 593.117 59.104 592.621 59.52L591.661 57.792C592.317 57.264 593.101 56.864 594.013 56.592C594.941 56.304 595.909 56.16 596.917 56.16C598.661 56.16 600.005 56.584 600.949 57.432C601.893 58.28 602.365 59.576 602.365 61.32V69H600.181ZM596.005 69.144C595.061 69.144 594.229 68.984 593.509 68.664C592.805 68.344 592.261 67.904 591.877 67.344C591.493 66.768 591.301 66.12 591.301 65.4C591.301 64.712 591.461 64.088 591.781 63.528C592.117 62.968 592.653 62.52 593.389 62.184C594.141 61.848 595.149 61.68 596.413 61.68H600.445V63.336H596.509C595.357 63.336 594.581 63.528 594.181 63.912C593.781 64.296 593.581 64.76 593.581 65.304C593.581 65.928 593.829 66.432 594.325 66.816C594.821 67.184 595.509 67.368 596.389 67.368C597.253 67.368 598.005 67.176 598.645 66.792C599.301 66.408 599.773 65.848 600.061 65.112L600.517 66.696C600.213 67.448 599.677 68.048 598.909 68.496C598.141 68.928 597.173 69.144 596.005 69.144ZM613.061 56.16C614.101 56.16 615.013 56.36 615.797 56.76C616.597 57.16 617.221 57.768 617.669 58.584C618.117 59.4 618.341 60.432 618.341 61.68V69H616.037V61.944C616.037 60.712 615.733 59.784 615.125 59.16C614.533 58.536 613.693 58.224 612.605 58.224C611.789 58.224 611.077 58.384 610.469 58.704C609.861 59.024 609.389 59.496 609.053 60.12C608.733 60.744 608.573 61.52 608.573 62.448V69H606.269V56.28H608.477V59.712L608.117 58.8C608.533 57.968 609.173 57.32 610.037 56.856C610.901 56.392 611.909 56.16 613.061 56.16ZM627.501 69.144C626.269 69.144 625.165 68.872 624.189 68.328C623.229 67.784 622.469 67.024 621.909 66.048C621.349 65.072 621.069 63.936 621.069 62.64C621.069 61.344 621.349 60.216 621.909 59.256C622.469 58.28 623.229 57.52 624.189 56.976C625.165 56.432 626.269 56.16 627.501 56.16C628.573 56.16 629.541 56.4 630.405 56.88C631.269 57.36 631.957 58.08 632.469 59.04C632.997 60 633.261 61.2 633.261 62.64C633.261 64.08 633.005 65.28 632.493 66.24C631.997 67.2 631.317 67.928 630.453 68.424C629.589 68.904 628.605 69.144 627.501 69.144ZM627.693 67.128C628.493 67.128 629.213 66.944 629.853 66.576C630.509 66.208 631.021 65.688 631.389 65.016C631.773 64.328 631.965 63.536 631.965 62.64C631.965 61.728 631.773 60.944 631.389 60.288C631.021 59.616 630.509 59.096 629.853 58.728C629.213 58.36 628.493 58.176 627.693 58.176C626.877 58.176 626.149 58.36 625.509 58.728C624.869 59.096 624.357 59.616 623.973 60.288C623.589 60.944 623.397 61.728 623.397 62.64C623.397 63.536 623.589 64.328 623.973 65.016C624.357 65.688 624.869 66.208 625.509 66.576C626.149 66.944 626.877 67.128 627.693 67.128ZM632.037 69V65.568L632.181 62.616L631.941 59.664V51.192H634.245V69H632.037ZM642.121 69L649.729 52.2H652.105L659.737 69H657.217L650.425 53.544H651.385L644.593 69H642.121ZM645.361 64.8L646.009 62.88H655.465L656.161 64.8H645.361ZM668.339 56.16C669.379 56.16 670.291 56.36 671.075 56.76C671.875 57.16 672.499 57.768 672.947 58.584C673.395 59.4 673.619 60.432 673.619 61.68V69H671.315V61.944C671.315 60.712 671.011 59.784 670.403 59.16C669.811 58.536 668.971 58.224 667.883 58.224C667.067 58.224 666.355 58.384 665.747 58.704C665.139 59.024 664.667 59.496 664.331 60.12C664.011 60.744 663.851 61.52 663.851 62.448V69H661.547V56.28H663.755V59.712L663.395 58.8C663.811 57.968 664.451 57.32 665.315 56.856C666.179 56.392 667.187 56.16 668.339 56.16ZM685.419 69V66.312L685.299 65.808V61.224C685.299 60.248 685.011 59.496 684.435 58.968C683.875 58.424 683.027 58.152 681.891 58.152C681.139 58.152 680.403 58.28 679.683 58.536C678.963 58.776 678.355 59.104 677.859 59.52L676.899 57.792C677.555 57.264 678.339 56.864 679.251 56.592C680.179 56.304 681.147 56.16 682.155 56.16C683.899 56.16 685.243 56.584 686.187 57.432C687.131 58.28 687.603 59.576 687.603 61.32V69H685.419ZM681.243 69.144C680.299 69.144 679.467 68.984 678.747 68.664C678.043 68.344 677.499 67.904 677.115 67.344C676.731 66.768 676.539 66.12 676.539 65.4C676.539 64.712 676.699 64.088 677.019 63.528C677.355 62.968 677.891 62.52 678.627 62.184C679.379 61.848 680.387 61.68 681.651 61.68H685.683V63.336H681.747C680.595 63.336 679.819 63.528 679.419 63.912C679.019 64.296 678.819 64.76 678.819 65.304C678.819 65.928 679.067 66.432 679.563 66.816C680.059 67.184 680.747 67.368 681.627 67.368C682.491 67.368 683.243 67.176 683.883 66.792C684.539 66.408 685.011 65.848 685.299 65.112L685.755 66.696C685.451 67.448 684.915 68.048 684.147 68.496C683.379 68.928 682.411 69.144 681.243 69.144ZM691.507 69V51.192H693.811V69H691.507ZM698.402 73.8C697.794 73.8 697.202 73.696 696.626 73.488C696.05 73.296 695.554 73.008 695.138 72.624L696.122 70.896C696.442 71.2 696.794 71.432 697.178 71.592C697.562 71.752 697.97 71.832 698.402 71.832C698.962 71.832 699.426 71.688 699.794 71.4C700.162 71.112 700.506 70.6 700.826 69.864L701.618 68.112L701.858 67.824L706.85 56.28H709.106L702.938 70.272C702.57 71.168 702.154 71.872 701.69 72.384C701.242 72.896 700.746 73.256 700.202 73.464C699.658 73.688 699.058 73.8 698.402 73.8ZM701.426 69.408L695.618 56.28H698.018L702.962 67.608L701.426 69.408ZM714.38 69.144C713.324 69.144 712.316 69 711.356 68.712C710.412 68.424 709.668 68.072 709.124 67.656L710.084 65.832C710.628 66.2 711.3 66.512 712.1 66.768C712.9 67.024 713.716 67.152 714.548 67.152C715.62 67.152 716.388 67 716.852 66.696C717.332 66.392 717.572 65.968 717.572 65.424C717.572 65.024 717.428 64.712 717.14 64.488C716.852 64.264 716.468 64.096 715.988 63.984C715.524 63.872 715.004 63.776 714.428 63.696C713.852 63.6 713.276 63.488 712.7 63.36C712.124 63.216 711.596 63.024 711.116 62.784C710.636 62.528 710.252 62.184 709.964 61.752C709.676 61.304 709.532 60.712 709.532 59.976C709.532 59.208 709.748 58.536 710.18 57.96C710.612 57.384 711.22 56.944 712.004 56.64C712.804 56.32 713.748 56.16 714.836 56.16C715.668 56.16 716.508 56.264 717.356 56.472C718.22 56.664 718.924 56.944 719.468 57.312L718.484 59.136C717.908 58.752 717.308 58.488 716.684 58.344C716.06 58.2 715.436 58.128 714.812 58.128C713.804 58.128 713.052 58.296 712.556 58.632C712.06 58.952 711.812 59.368 711.812 59.88C711.812 60.312 711.956 60.648 712.244 60.888C712.548 61.112 712.932 61.288 713.396 61.416C713.876 61.544 714.404 61.656 714.98 61.752C715.556 61.832 716.132 61.944 716.708 62.088C717.284 62.216 717.804 62.4 718.268 62.64C718.748 62.88 719.132 63.216 719.42 63.648C719.724 64.08 719.876 64.656 719.876 65.376C719.876 66.144 719.652 66.808 719.204 67.368C718.756 67.928 718.124 68.368 717.308 68.688C716.492 68.992 715.516 69.144 714.38 69.144ZM722.396 69V56.28H724.7V69H722.396ZM723.548 53.832C723.1 53.832 722.724 53.688 722.42 53.4C722.132 53.112 721.988 52.76 721.988 52.344C721.988 51.912 722.132 51.552 722.42 51.264C722.724 50.976 723.1 50.832 723.548 50.832C723.996 50.832 724.364 50.976 724.652 51.264C724.956 51.536 725.108 51.88 725.108 52.296C725.108 52.728 724.964 53.096 724.676 53.4C724.388 53.688 724.012 53.832 723.548 53.832ZM732.387 69.144C731.331 69.144 730.323 69 729.363 68.712C728.419 68.424 727.675 68.072 727.131 67.656L728.091 65.832C728.635 66.2 729.307 66.512 730.107 66.768C730.907 67.024 731.723 67.152 732.555 67.152C733.627 67.152 734.395 67 734.859 66.696C735.339 66.392 735.579 65.968 735.579 65.424C735.579 65.024 735.435 64.712 735.147 64.488C734.859 64.264 734.475 64.096 733.995 63.984C733.531 63.872 733.011 63.776 732.435 63.696C731.859 63.6 731.283 63.488 730.707 63.36C730.131 63.216 729.603 63.024 729.123 62.784C728.643 62.528 728.259 62.184 727.971 61.752C727.683 61.304 727.539 60.712 727.539 59.976C727.539 59.208 727.755 58.536 728.187 57.96C728.619 57.384 729.227 56.944 730.011 56.64C730.811 56.32 731.755 56.16 732.843 56.16C733.675 56.16 734.515 56.264 735.363 56.472C736.227 56.664 736.931 56.944 737.475 57.312L736.491 59.136C735.915 58.752 735.315 58.488 734.691 58.344C734.067 58.2 733.443 58.128 732.819 58.128C731.811 58.128 731.059 58.296 730.563 58.632C730.067 58.952 729.819 59.368 729.819 59.88C729.819 60.312 729.963 60.648 730.251 60.888C730.555 61.112 730.939 61.288 731.403 61.416C731.883 61.544 732.411 61.656 732.987 61.752C733.563 61.832 734.139 61.944 734.715 62.088C735.291 62.216 735.811 62.4 736.275 62.64C736.755 62.88 737.139 63.216 737.427 63.648C737.731 64.08 737.883 64.656 737.883 65.376C737.883 66.144 737.659 66.808 737.211 67.368C736.763 67.928 736.131 68.368 735.315 68.688C734.499 68.992 733.523 69.144 732.387 69.144ZM753.232 69.144C752.176 69.144 751.208 68.904 750.328 68.424C749.464 67.928 748.768 67.2 748.24 66.24C747.728 65.28 747.472 64.08 747.472 62.64C747.472 61.2 747.72 60 748.216 59.04C748.728 58.08 749.416 57.36 750.28 56.88C751.16 56.4 752.144 56.16 753.232 56.16C754.48 56.16 755.584 56.432 756.544 56.976C757.504 57.52 758.264 58.28 758.824 59.256C759.384 60.216 759.664 61.344 759.664 62.64C759.664 63.936 759.384 65.072 758.824 66.048C758.264 67.024 757.504 67.784 756.544 68.328C755.584 68.872 754.48 69.144 753.232 69.144ZM746.488 73.656V56.28H748.696V59.712L748.552 62.664L748.792 65.616V73.656H746.488ZM753.04 67.128C753.856 67.128 754.584 66.944 755.224 66.576C755.88 66.208 756.392 65.688 756.76 65.016C757.144 64.328 757.336 63.536 757.336 62.64C757.336 61.728 757.144 60.944 756.76 60.288C756.392 59.616 755.88 59.096 755.224 58.728C754.584 58.36 753.856 58.176 753.04 58.176C752.24 58.176 751.512 58.36 750.856 58.728C750.216 59.096 749.704 59.616 749.32 60.288C748.952 60.944 748.768 61.728 748.768 62.64C748.768 63.536 748.952 64.328 749.32 65.016C749.704 65.688 750.216 66.208 750.856 66.576C751.512 66.944 752.24 67.128 753.04 67.128ZM770.266 69V66.312L770.146 65.808V61.224C770.146 60.248 769.858 59.496 769.282 58.968C768.722 58.424 767.874 58.152 766.738 58.152C765.986 58.152 765.25 58.28 764.53 58.536C763.81 58.776 763.202 59.104 762.706 59.52L761.746 57.792C762.402 57.264 763.186 56.864 764.098 56.592C765.026 56.304 765.994 56.16 767.002 56.16C768.746 56.16 770.09 56.584 771.034 57.432C771.978 58.28 772.45 59.576 772.45 61.32V69H770.266ZM766.09 69.144C765.146 69.144 764.314 68.984 763.594 68.664C762.89 68.344 762.346 67.904 761.962 67.344C761.578 66.768 761.386 66.12 761.386 65.4C761.386 64.712 761.546 64.088 761.866 63.528C762.202 62.968 762.738 62.52 763.474 62.184C764.226 61.848 765.234 61.68 766.498 61.68H770.53V63.336H766.594C765.442 63.336 764.666 63.528 764.266 63.912C763.866 64.296 763.666 64.76 763.666 65.304C763.666 65.928 763.914 66.432 764.41 66.816C764.906 67.184 765.594 67.368 766.474 67.368C767.338 67.368 768.09 67.176 768.73 66.792C769.386 66.408 769.858 65.848 770.146 65.112L770.602 66.696C770.298 67.448 769.762 68.048 768.994 68.496C768.226 68.928 767.258 69.144 766.09 69.144ZM781.922 73.8C780.754 73.8 779.618 73.632 778.514 73.296C777.426 72.976 776.538 72.512 775.85 71.904L776.954 70.128C777.546 70.64 778.274 71.04 779.138 71.328C780.002 71.632 780.906 71.784 781.85 71.784C783.354 71.784 784.458 71.432 785.162 70.728C785.866 70.024 786.218 68.952 786.218 67.512V64.824L786.458 62.304L786.338 59.76V56.28H788.522V67.272C788.522 69.512 787.962 71.16 786.842 72.216C785.722 73.272 784.082 73.8 781.922 73.8ZM781.634 68.472C780.402 68.472 779.298 68.216 778.322 67.704C777.362 67.176 776.594 66.448 776.018 65.52C775.458 64.592 775.178 63.52 775.178 62.304C775.178 61.072 775.458 60 776.018 59.088C776.594 58.16 777.362 57.44 778.322 56.928C779.298 56.416 780.402 56.16 781.634 56.16C782.722 56.16 783.714 56.384 784.61 56.832C785.506 57.264 786.218 57.936 786.746 58.848C787.29 59.76 787.562 60.912 787.562 62.304C787.562 63.68 787.29 64.824 786.746 65.736C786.218 66.648 785.506 67.336 784.61 67.8C783.714 68.248 782.722 68.472 781.634 68.472ZM781.898 66.456C782.746 66.456 783.498 66.28 784.154 65.928C784.81 65.576 785.322 65.088 785.69 64.464C786.074 63.84 786.266 63.12 786.266 62.304C786.266 61.488 786.074 60.768 785.69 60.144C785.322 59.52 784.81 59.04 784.154 58.704C783.498 58.352 782.746 58.176 781.898 58.176C781.05 58.176 780.29 58.352 779.618 58.704C778.962 59.04 778.442 59.52 778.058 60.144C777.69 60.768 777.506 61.488 777.506 62.304C777.506 63.12 777.69 63.84 778.058 64.464C778.442 65.088 778.962 65.576 779.618 65.928C780.29 66.28 781.05 66.456 781.898 66.456ZM798.228 69.144C796.868 69.144 795.668 68.864 794.628 68.304C793.604 67.744 792.804 66.976 792.228 66C791.668 65.024 791.388 63.904 791.388 62.64C791.388 61.376 791.66 60.256 792.204 59.28C792.764 58.304 793.524 57.544 794.484 57C795.46 56.44 796.556 56.16 797.772 56.16C799.004 56.16 800.092 56.432 801.036 56.976C801.98 57.52 802.716 58.288 803.244 59.28C803.788 60.256 804.06 61.4 804.06 62.712C804.06 62.808 804.052 62.92 804.036 63.048C804.036 63.176 804.028 63.296 804.012 63.408H793.188V61.752H802.812L801.876 62.328C801.892 61.512 801.724 60.784 801.372 60.144C801.02 59.504 800.532 59.008 799.908 58.656C799.3 58.288 798.588 58.104 797.772 58.104C796.972 58.104 796.26 58.288 795.636 58.656C795.012 59.008 794.524 59.512 794.172 60.168C793.82 60.808 793.644 61.544 793.644 62.376V62.76C793.644 63.608 793.836 64.368 794.22 65.04C794.62 65.696 795.172 66.208 795.876 66.576C796.58 66.944 797.388 67.128 798.3 67.128C799.052 67.128 799.732 67 800.34 66.744C800.964 66.488 801.508 66.104 801.972 65.592L803.244 67.08C802.668 67.752 801.948 68.264 801.084 68.616C800.236 68.968 799.284 69.144 798.228 69.144Z" fill="#447DBF"/>
<path d="M42.3092 42.6826C41.3857 41.7725 39.8908 41.7725 38.9697 42.6826L22.674 58.8496C21.7765 59.7367 21.7741 61.2612 22.674 62.1504L38.9674 78.3174C39.8908 79.2275 41.3857 79.2275 42.3068 78.3174C43.2303 77.405 43.2303 75.929 42.3068 75.0166L27.6761 60.4989L42.3092 45.9813C43.2303 45.071 43.2303 43.595 42.3092 42.6826Z" fill="black"/>
<defs>
<filter id="filter0_d_121_39" x="812" y="12" width="220" height="104" filterUnits="userSpaceOnUse" color-interpolation-filters="sRGB">
<feFlood flood-opacity="0" result="BackgroundImageFix"/>
<feColorMatrix in="SourceAlpha" type="matrix" values="0 0 0 0 0 0 0 0 0 0 0 0 0 0 0 0 0 0 127 0" result="hardAlpha"/>
<feOffset dy="4"/>
<feGaussianBlur stdDeviation="10"/>
<feComposite in2="hardAlpha" operator="out"/>
<feColorMatrix type="matrix" values="0 0 0 0 0 0 0 0 0 0 0 0 0 0 0 0 0 0 0.25 0"/>
<feBlend mode="normal" in2="BackgroundImageFix" result="effect1_dropShadow_121_39"/>
<feBlend mode="normal" in="SourceGraphic" in2="effect1_dropShadow_121_39" result="shape"/>
</filter>
<linearGradient id="paint0_linear_121_39" x1="672" y1="-14.0039" x2="672" y2="175.645" gradientUnits="userSpaceOnUse">
<stop stop-color="#C742DD"/>
<stop offset="1" stop-color="#3489D7" stop-opacity="0"/>
</linearGradient>
</defs>
</svg>
