<svg xmlns="http://www.w3.org/2000/svg" xmlns:xlink="http://www.w3.org/1999/xlink" width="500" zoomAndPan="magnify" viewBox="0 0 375 374.999991" height="500" preserveAspectRatio="xMidYMid meet" version="1.0"><defs><g/><clipPath id="id1"><path d="M 37.5 134.304688 L 112.28125 134.304688 L 112.28125 229.21875 L 37.5 229.21875 Z M 37.5 134.304688 " clip-rule="nonzero"/></clipPath></defs><g clip-path="url(#id1)"><path fill="#f83838" d="M 105.894531 168.753906 C 104.476562 166.59375 102.753906 164.429688 100.664062 162.402344 C 90.476562 152.535156 79.773438 148.167969 79.082031 135.222656 C 79.050781 134.6875 78.53125 134.324219 78.023438 134.480469 C 75.917969 135.121094 70.921875 137.171875 66.335938 143 C 62.542969 147.816406 60.304688 153.675781 59.679688 159.785156 C 59.105469 165.328125 58.496094 173.921875 59.410156 179.210938 C 59.410156 179.210938 60.132812 185.539062 54.730469 186.621094 C 54.730469 186.621094 45.90625 188.96875 47.527344 172.164062 C 47.527344 172.164062 46.25 170.25 42.640625 176.144531 C 39.457031 181.351562 37.761719 187.320312 37.53125 193.421875 C 37.402344 196.789062 37.625 200.4375 38.703125 203.242188 C 41.367188 210.199219 44.5625 221.023438 61.082031 228.25 C 61.753906 228.539062 62.449219 228.777344 63.167969 228.929688 C 64.671875 229.246094 66.582031 229.300781 64.460938 226.734375 C 63.785156 225.917969 56.101562 219.738281 58.085938 209.855469 C 58.46875 207.949219 60.972656 207.421875 62.03125 209.054688 C 62.40625 209.632812 62.800781 210.390625 63.199219 211.375 C 65.375 216.753906 83.152344 219.164062 88.371094 206.078125 C 88.90625 204.726562 89.226562 203.304688 89.40625 201.859375 C 89.667969 199.742188 90.65625 195.679688 94.179688 202.882812 C 97.929688 210.5625 93.675781 220.628906 90.90625 224.917969 C 90.160156 226.074219 91.378906 227.488281 92.621094 226.910156 C 93.199219 226.640625 93.878906 226.246094 94.675781 225.671875 C 95.3125 225.214844 95.96875 224.78125 96.628906 224.355469 C 99.828125 222.316406 109.925781 214.449219 112.019531 195.472656 C 113.054688 186.117188 111.050781 176.617188 105.894531 168.753906 Z M 103.492188 189.300781 C 100.960938 183.539062 95.027344 170.410156 90.660156 163.714844 C 90.402344 163.316406 90.898438 162.871094 91.265625 163.164062 C 95.445312 166.480469 104.601562 175.292969 104.820312 189.007812 C 104.832031 189.765625 103.792969 189.996094 103.492188 189.300781 Z M 103.492188 189.300781 " fill-opacity="1" fill-rule="nonzero"/></g><g fill="#4c090b" fill-opacity="1"><g transform="translate(143.86562, 190.247596)"><g><path d="M 25.640625 -47.039062 C 24.910156 -48.957031 23.054688 -50.285156 21 -50.285156 L 13.847656 -50.285156 L 15.832031 -44.984375 L 0.265625 -3.378906 C -0.332031 -1.722656 0.859375 0 2.582031 0 L 9.078125 0 C 7.15625 -1.921875 7.484375 -4.109375 8.546875 -7.023438 C 8.546875 -7.089844 8.546875 -7.089844 8.546875 -7.15625 L 9.671875 -10.070312 L 10.601562 -12.585938 L 20.671875 -12.585938 C 22.328125 -12.585938 23.785156 -13.582031 24.378906 -15.105469 L 25.375 -17.621094 L 12.519531 -17.621094 L 19.34375 -35.839844 L 31.667969 -3.246094 C 32.460938 -1.257812 34.316406 0 36.371094 0 L 43.527344 0 Z M 25.640625 -47.039062 "/></g></g></g><g fill="#4c090b" fill-opacity="1"><g transform="translate(193.818153, 190.247596)"><g><path d="M 42.664062 -8.8125 L 42.664062 -20.933594 C 42.664062 -22.921875 41.074219 -24.511719 39.085938 -24.511719 L 26.433594 -24.511719 C 24.710938 -24.445312 23.851562 -23.917969 21.929688 -19.476562 L 33.257812 -19.476562 L 33.257812 -15.4375 C 33.257812 -12.519531 29.8125 -5.566406 24.179688 -5.566406 C 18.484375 -5.566406 13.515625 -9.40625 13.515625 -24.511719 C 13.515625 -40.214844 19.410156 -45.910156 25.175781 -45.910156 L 25.175781 -45.84375 C 34.515625 -45.84375 34.515625 -33.722656 30.277344 -29.546875 C 30.277344 -29.546875 34.78125 -31.136719 38.953125 -32.925781 C 45.382812 -35.707031 44.585938 -50.878906 25.175781 -50.878906 C 10.070312 -50.878906 1.855469 -37.234375 1.855469 -23.851562 C 1.855469 -10.535156 7.484375 0.730469 20.800781 0.730469 C 27.230469 0.730469 31.402344 -4.042969 33.257812 -8.214844 L 33.257812 -4.96875 C 33.257812 -2.1875 35.511719 0.0664062 38.292969 0.0664062 L 44.585938 0.0664062 C 42.664062 -3.046875 42.664062 -6.292969 42.664062 -8.8125 Z M 42.664062 -8.8125 "/></g></g></g><g fill="#4c090b" fill-opacity="1"><g transform="translate(246.818198, 190.247596)"><g><path d="M 37.894531 -50.285156 L 34.117188 -50.285156 C 35.378906 -46.507812 35.378906 -40.214844 35.378906 -40.214844 L 35.378906 -13.914062 L 15.964844 -47.632812 C 14.707031 -49.621094 12.71875 -50.285156 10.335938 -50.285156 L 2.714844 -50.285156 C 3.910156 -46.507812 3.910156 -40.214844 3.910156 -40.214844 L 3.910156 -2.515625 C 3.910156 -1.125 5.035156 0 6.425781 0 L 11.460938 0 C 10.203125 -3.777344 10.203125 -10.070312 10.203125 -10.070312 L 10.203125 -37.363281 L 32.460938 0.664062 L 41.671875 -6.226562 L 41.671875 -46.507812 C 41.671875 -48.5625 39.949219 -50.285156 37.894531 -50.285156 Z M 37.894531 -50.285156 "/></g></g></g><g fill="#4c090b" fill-opacity="1"><g transform="translate(298.692, 190.247596)"><g><path d="M 14.375 -12.585938 L 14.375 -45.25 C 14.375 -48.03125 12.125 -50.285156 9.339844 -50.285156 L 1.855469 -50.285156 C 4.304688 -46.507812 4.304688 -40.214844 4.304688 -37.695312 L 4.304688 -5.035156 C 4.304688 -2.253906 6.558594 0 9.339844 0 L 16.894531 0 C 14.375 -3.777344 14.375 -10.070312 14.375 -12.585938 Z M 14.375 -12.585938 "/></g></g></g><g fill="#4c090b" fill-opacity="1"><g transform="translate(131.860143, 224.108691)"><g><path d="M 0.808594 -8.421875 C 0.808594 -8.070312 0.917969 -7.828125 1.132812 -7.613281 L 3.023438 -5.777344 C 3.210938 -5.617188 3.457031 -5.480469 3.726562 -5.480469 L 9.261719 -5.480469 C 9.449219 -5.480469 9.582031 -5.425781 9.71875 -5.292969 L 10.125 -4.804688 C 10.179688 -4.722656 10.203125 -4.644531 10.203125 -4.535156 L 10.203125 -3.886719 C 10.203125 -3.699219 10.152344 -3.5625 10.015625 -3.429688 L 9.421875 -2.886719 C 9.261719 -2.753906 9.152344 -2.671875 9.015625 -2.671875 L 1.671875 -2.671875 C 1.457031 -2.671875 1.269531 -2.484375 1.269531 -2.269531 L 1.269531 -0.40625 C 1.269531 -0.1875 1.457031 0 1.671875 0 L 9.773438 0 C 10.097656 0 10.3125 -0.0820312 10.554688 -0.324219 L 12.714844 -2.484375 C 12.878906 -2.644531 13.039062 -2.914062 13.039062 -3.1875 L 13.039062 -5.425781 C 13.039062 -5.777344 12.929688 -6.046875 12.714844 -6.234375 L 11.097656 -7.800781 C 10.90625 -7.964844 10.664062 -8.097656 10.394531 -8.097656 L 4.589844 -8.097656 C 4.402344 -8.097656 4.265625 -8.152344 4.128906 -8.289062 L 3.726562 -8.773438 C 3.671875 -8.855469 3.644531 -8.9375 3.644531 -9.042969 L 3.644531 -9.609375 C 3.644531 -9.800781 3.699219 -9.933594 3.832031 -10.070312 L 4.425781 -10.609375 C 4.589844 -10.746094 4.699219 -10.824219 4.832031 -10.824219 L 11.90625 -10.824219 C 12.121094 -10.824219 12.3125 -11.015625 12.3125 -11.230469 L 12.3125 -13.09375 C 12.3125 -13.308594 12.121094 -13.5 11.90625 -13.5 L 4.078125 -13.5 C 3.753906 -13.5 3.535156 -13.417969 3.292969 -13.175781 L 1.132812 -11.015625 C 0.972656 -10.851562 0.808594 -10.582031 0.808594 -10.3125 Z M 0.808594 -8.421875 "/></g></g></g><g fill="#4c090b" fill-opacity="1"><g transform="translate(156.501928, 224.108691)"><g><path d="M 0.808594 -3.457031 C 0.808594 -3.1875 0.917969 -2.941406 1.105469 -2.753906 L 3.484375 -0.324219 C 3.699219 -0.109375 3.941406 0 4.292969 0 L 9.558594 0 C 9.90625 0 10.152344 -0.109375 10.367188 -0.324219 L 12.742188 -2.753906 C 12.929688 -2.941406 13.039062 -3.1875 13.039062 -3.457031 L 13.039062 -10.042969 C 13.039062 -10.3125 12.929688 -10.554688 12.742188 -10.746094 L 10.367188 -13.175781 C 10.152344 -13.390625 9.90625 -13.5 9.558594 -13.5 L 4.292969 -13.5 C 3.941406 -13.5 3.699219 -13.390625 3.484375 -13.175781 L 1.105469 -10.746094 C 0.917969 -10.554688 0.808594 -10.3125 0.808594 -10.042969 Z M 3.429688 -4.15625 L 3.429688 -9.339844 C 3.429688 -9.53125 3.484375 -9.664062 3.617188 -9.800781 L 4.480469 -10.609375 L 4.644531 -10.746094 C 4.699219 -10.796875 4.777344 -10.824219 4.914062 -10.824219 L 8.9375 -10.824219 C 9.042969 -10.824219 9.125 -10.796875 9.207031 -10.746094 L 9.367188 -10.609375 L 10.230469 -9.800781 C 10.367188 -9.664062 10.421875 -9.53125 10.421875 -9.339844 L 10.421875 -4.15625 C 10.421875 -3.96875 10.367188 -3.832031 10.230469 -3.699219 L 9.367188 -2.886719 L 9.207031 -2.753906 C 9.125 -2.699219 9.042969 -2.671875 8.9375 -2.671875 L 4.914062 -2.671875 C 4.777344 -2.671875 4.699219 -2.699219 4.644531 -2.753906 L 4.480469 -2.886719 L 3.617188 -3.699219 C 3.484375 -3.832031 3.429688 -3.96875 3.429688 -4.15625 Z M 3.429688 -4.15625 "/></g></g></g><g fill="#4c090b" fill-opacity="1"><g transform="translate(181.143714, 224.108691)"><g><path d="M 12.632812 -13.5 L 4.347656 -13.5 C 4.023438 -13.5 3.804688 -13.417969 3.5625 -13.175781 L 1.132812 -10.746094 C 0.972656 -10.582031 0.808594 -10.3125 0.808594 -10.042969 L 0.808594 -0.40625 C 0.808594 -0.1875 1 0 1.214844 0 L 3.238281 0 C 3.457031 0 3.644531 -0.1875 3.644531 -0.40625 L 3.644531 -3.429688 L 10.90625 -3.429688 C 11.121094 -3.429688 11.3125 -3.617188 11.3125 -3.832031 L 11.3125 -5.695312 C 11.3125 -5.914062 11.121094 -6.101562 10.90625 -6.101562 L 3.644531 -6.101562 L 3.644531 -9.339844 C 3.644531 -9.53125 3.699219 -9.664062 3.832031 -9.800781 L 4.699219 -10.609375 C 4.859375 -10.773438 4.96875 -10.824219 5.101562 -10.824219 L 12.632812 -10.824219 C 12.851562 -10.824219 13.039062 -11.015625 13.039062 -11.230469 L 13.039062 -13.09375 C 13.039062 -13.308594 12.851562 -13.5 12.632812 -13.5 Z M 12.632812 -13.5 "/></g></g></g><g fill="#4c090b" fill-opacity="1"><g transform="translate(205.785501, 224.108691)"><g><path d="M 14.984375 -13.5 L 1.214844 -13.5 C 1 -13.5 0.808594 -13.308594 0.808594 -13.09375 L 0.808594 -11.070312 C 0.808594 -10.851562 1 -10.664062 1.214844 -10.664062 L 6.695312 -10.664062 L 6.695312 -0.40625 C 6.695312 -0.1875 6.882812 0 7.101562 0 L 9.125 0 C 9.339844 0 9.53125 -0.1875 9.53125 -0.40625 L 9.53125 -10.664062 L 14.984375 -10.664062 C 15.199219 -10.664062 15.386719 -10.851562 15.386719 -11.070312 L 15.386719 -13.09375 C 15.386719 -13.308594 15.199219 -13.5 14.984375 -13.5 Z M 14.984375 -13.5 "/></g></g></g><g fill="#4c090b" fill-opacity="1"><g transform="translate(232.773796, 224.108691)"><g><path d="M 21.839844 -13.5 L 20.03125 -13.5 C 19.816406 -13.5 19.625 -13.308594 19.625 -13.09375 L 19.625 -4.183594 C 19.625 -3.996094 19.574219 -3.832031 19.4375 -3.726562 L 18.410156 -2.753906 C 18.332031 -2.699219 18.25 -2.671875 18.140625 -2.671875 L 14.550781 -2.671875 C 14.441406 -2.671875 14.363281 -2.699219 14.28125 -2.753906 L 13.253906 -3.699219 C 13.175781 -3.753906 13.121094 -3.859375 13.09375 -3.941406 L 13.09375 -13.09375 C 13.09375 -13.308594 12.90625 -13.5 12.6875 -13.5 L 10.851562 -13.5 C 10.636719 -13.5 10.449219 -13.308594 10.449219 -13.09375 L 10.449219 -3.941406 C 10.421875 -3.859375 10.367188 -3.753906 10.285156 -3.699219 L 9.261719 -2.753906 C 9.179688 -2.699219 9.097656 -2.671875 8.988281 -2.671875 L 4.996094 -2.671875 C 4.886719 -2.671875 4.804688 -2.699219 4.722656 -2.753906 L 3.617188 -3.78125 C 3.484375 -3.914062 3.429688 -4.050781 3.429688 -4.238281 L 3.429688 -13.09375 C 3.429688 -13.308594 3.238281 -13.5 3.023438 -13.5 L 1.214844 -13.5 C 1 -13.5 0.808594 -13.308594 0.808594 -13.09375 L 0.808594 -3.457031 C 0.808594 -3.1875 0.945312 -2.941406 1.105469 -2.753906 L 3.484375 -0.324219 C 3.699219 -0.109375 3.941406 0 4.292969 0 L 9.609375 0 C 9.960938 0 10.203125 -0.109375 10.421875 -0.324219 L 11.769531 -1.699219 L 13.121094 -0.324219 C 13.335938 -0.109375 13.578125 0 13.929688 0 L 18.761719 0 C 19.113281 0 19.382812 -0.109375 19.574219 -0.324219 L 21.949219 -2.753906 C 22.136719 -2.941406 22.246094 -3.1875 22.246094 -3.457031 L 22.246094 -13.09375 C 22.246094 -13.308594 22.054688 -13.5 21.839844 -13.5 Z M 21.839844 -13.5 "/></g></g></g><g fill="#4c090b" fill-opacity="1"><g transform="translate(266.612904, 224.108691)"><g><path d="M 12.742188 -10.746094 L 10.367188 -13.175781 C 10.152344 -13.390625 9.90625 -13.5 9.558594 -13.5 L 4.292969 -13.5 C 3.941406 -13.5 3.699219 -13.390625 3.484375 -13.175781 L 1.105469 -10.746094 C 0.917969 -10.554688 0.808594 -10.3125 0.808594 -10.042969 L 0.808594 -0.40625 C 0.808594 -0.1875 1 0 1.214844 0 L 3.023438 0 C 3.238281 0 3.429688 -0.1875 3.429688 -0.40625 L 3.429688 -4.425781 L 10.421875 -4.425781 L 10.421875 -0.40625 C 10.421875 -0.1875 10.609375 0 10.824219 0 L 12.632812 0 C 12.851562 0 13.039062 -0.1875 13.039062 -0.40625 L 13.039062 -10.042969 C 13.039062 -10.3125 12.929688 -10.554688 12.742188 -10.746094 Z M 3.429688 -6.777344 L 3.429688 -9.339844 C 3.429688 -9.53125 3.484375 -9.664062 3.617188 -9.800781 L 4.480469 -10.609375 L 4.644531 -10.746094 C 4.699219 -10.796875 4.777344 -10.824219 4.914062 -10.824219 L 8.9375 -10.824219 C 9.042969 -10.824219 9.125 -10.796875 9.207031 -10.746094 L 9.367188 -10.609375 L 10.230469 -9.800781 C 10.367188 -9.664062 10.421875 -9.53125 10.421875 -9.339844 L 10.421875 -6.777344 Z M 3.429688 -6.777344 "/></g></g></g><g fill="#4c090b" fill-opacity="1"><g transform="translate(291.254688, 224.108691)"><g><path d="M 12.90625 -10.824219 L 10.476562 -13.203125 C 10.285156 -13.390625 10.042969 -13.5 9.773438 -13.5 L 1.214844 -13.5 C 1 -13.5 0.808594 -13.308594 0.808594 -13.09375 L 0.808594 -0.40625 C 0.808594 -0.1875 1 0 1.214844 0 L 3.078125 0 C 3.292969 0 3.484375 -0.1875 3.484375 -0.40625 L 3.484375 -2.96875 L 8.179688 -2.96875 L 9.855469 -0.242188 C 9.960938 -0.0820312 10.097656 0 10.257812 0 L 12.285156 0 C 12.609375 0 12.769531 -0.296875 12.609375 -0.566406 L 10.71875 -3.535156 L 12.90625 -5.722656 C 13.066406 -5.886719 13.226562 -6.15625 13.226562 -6.425781 L 13.226562 -10.015625 C 13.226562 -10.367188 13.121094 -10.609375 12.90625 -10.824219 Z M 3.484375 -10.878906 L 8.910156 -10.878906 C 9.097656 -10.878906 9.234375 -10.824219 9.367188 -10.691406 L 10.179688 -9.828125 L 10.3125 -9.664062 C 10.367188 -9.582031 10.394531 -9.503906 10.394531 -9.394531 L 10.394531 -7.128906 C 10.394531 -6.9375 10.339844 -6.804688 10.203125 -6.667969 L 9.339844 -5.859375 C 9.179688 -5.695312 9.070312 -5.640625 8.9375 -5.640625 L 3.484375 -5.640625 Z M 3.484375 -10.878906 "/></g></g></g><g fill="#4c090b" fill-opacity="1"><g transform="translate(316.085256, 224.108691)"><g><path d="M 3.832031 -9.800781 L 4.699219 -10.609375 C 4.859375 -10.773438 4.96875 -10.824219 5.101562 -10.824219 L 12.230469 -10.824219 C 12.445312 -10.824219 12.632812 -11.015625 12.632812 -11.230469 L 12.632812 -13.09375 C 12.632812 -13.308594 12.445312 -13.5 12.230469 -13.5 L 4.15625 -13.5 C 3.832031 -13.5 3.617188 -13.417969 3.375 -13.175781 L 1.132812 -10.960938 C 0.972656 -10.796875 0.808594 -10.527344 0.808594 -10.257812 L 0.808594 -3.292969 C 0.808594 -2.941406 0.917969 -2.699219 1.132812 -2.484375 L 3.375 -0.296875 C 3.5625 -0.109375 3.804688 0 4.078125 0 L 12.230469 0 C 12.445312 0 12.632812 -0.1875 12.632812 -0.40625 L 12.632812 -2.214844 C 12.632812 -2.429688 12.445312 -2.617188 12.230469 -2.617188 L 5.128906 -2.617188 C 4.941406 -2.617188 4.804688 -2.671875 4.671875 -2.808594 L 3.726562 -3.832031 C 3.671875 -3.914062 3.644531 -3.996094 3.644531 -4.105469 L 3.644531 -5.480469 L 10.90625 -5.480469 C 11.121094 -5.480469 11.3125 -5.667969 11.3125 -5.886719 L 11.3125 -7.75 C 11.3125 -7.964844 11.121094 -8.152344 10.90625 -8.152344 L 3.644531 -8.152344 L 3.644531 -9.339844 C 3.644531 -9.53125 3.699219 -9.664062 3.832031 -9.800781 Z M 3.832031 -9.800781 "/></g></g></g></svg>