<svg xmlns="http://www.w3.org/2000/svg" xmlns:xlink="http://www.w3.org/1999/xlink" width="500" zoomAndPan="magnify" viewBox="0 0 375 374.999991" height="500" preserveAspectRatio="xMidYMid meet" version="1.0"><defs><g/><clipPath id="id1"><path d="M 64.554688 148.785156 L 125.847656 148.785156 L 125.847656 226.582031 L 64.554688 226.582031 Z M 64.554688 148.785156 " clip-rule="nonzero"/></clipPath></defs><g clip-path="url(#id1)"><path fill="#f83838" d="M 120.613281 177.023438 C 119.449219 175.25 118.039062 173.480469 116.328125 171.820312 C 107.976562 163.730469 99.207031 160.148438 98.636719 149.539062 C 98.613281 149.101562 98.1875 148.800781 97.769531 148.929688 C 96.042969 149.457031 91.949219 151.136719 88.1875 155.914062 C 85.078125 159.863281 83.246094 164.664062 82.734375 169.671875 C 82.265625 174.214844 81.761719 181.257812 82.515625 185.59375 C 82.515625 185.59375 83.105469 190.78125 78.675781 191.667969 C 78.675781 191.667969 71.445312 193.59375 72.773438 179.820312 C 72.773438 179.820312 71.726562 178.25 68.769531 183.082031 C 66.160156 187.347656 64.769531 192.242188 64.582031 197.242188 C 64.476562 200 64.65625 202.992188 65.539062 205.292969 C 67.722656 210.992188 70.34375 219.863281 83.882812 225.789062 C 84.433594 226.027344 85.003906 226.21875 85.59375 226.34375 C 86.828125 226.605469 88.390625 226.652344 86.652344 224.546875 C 86.097656 223.875 79.800781 218.8125 81.425781 210.710938 C 81.742188 209.148438 83.792969 208.71875 84.660156 210.054688 C 84.96875 210.53125 85.289062 211.152344 85.617188 211.957031 C 87.402344 216.367188 101.972656 218.34375 106.25 207.617188 C 106.691406 206.507812 106.949219 205.339844 107.097656 204.15625 C 107.3125 202.421875 108.125 199.09375 111.011719 204.996094 C 114.085938 211.292969 110.597656 219.542969 108.328125 223.058594 C 107.71875 224.003906 108.714844 225.164062 109.734375 224.691406 C 110.207031 224.46875 110.765625 224.144531 111.417969 223.675781 C 111.9375 223.300781 112.476562 222.945312 113.019531 222.597656 C 115.640625 220.925781 123.917969 214.476562 125.632812 198.921875 C 126.484375 191.253906 124.839844 183.46875 120.613281 177.023438 Z M 118.644531 193.867188 C 116.566406 189.140625 111.703125 178.382812 108.128906 172.894531 C 107.917969 172.566406 108.320312 172.199219 108.621094 172.441406 C 112.046875 175.160156 119.550781 182.382812 119.734375 193.625 C 119.742188 194.246094 118.890625 194.433594 118.644531 193.867188 Z M 118.644531 193.867188 " fill-opacity="1" fill-rule="nonzero"/></g><g fill="#4c090b" fill-opacity="1"><g transform="translate(151.735797, 194.640445)"><g><path d="M 21.015625 -38.554688 C 20.417969 -40.128906 18.898438 -41.214844 17.214844 -41.214844 L 11.347656 -41.214844 L 12.976562 -36.871094 L 0.21875 -2.769531 C -0.273438 -1.410156 0.707031 0 2.117188 0 L 7.4375 0 C 5.863281 -1.574219 6.136719 -3.367188 7.003906 -5.757812 C 7.003906 -5.808594 7.003906 -5.808594 7.003906 -5.863281 L 7.929688 -8.253906 L 8.6875 -10.316406 L 16.941406 -10.316406 C 18.300781 -10.316406 19.492188 -11.132812 19.984375 -12.378906 L 20.796875 -14.445312 L 10.261719 -14.445312 L 15.855469 -29.375 L 25.957031 -2.660156 C 26.605469 -1.03125 28.128906 0 29.8125 0 L 35.675781 0 Z M 21.015625 -38.554688 "/></g></g></g><g fill="#4c090b" fill-opacity="1"><g transform="translate(192.678569, 194.640445)"><g><path d="M 34.96875 -7.222656 L 34.96875 -17.160156 C 34.96875 -18.789062 33.667969 -20.089844 32.039062 -20.089844 L 21.664062 -20.089844 C 20.253906 -20.035156 19.546875 -19.601562 17.972656 -15.964844 L 27.257812 -15.964844 L 27.257812 -12.652344 C 27.257812 -10.261719 24.433594 -4.5625 19.820312 -4.5625 C 15.148438 -4.5625 11.078125 -7.710938 11.078125 -20.089844 C 11.078125 -32.960938 15.910156 -37.628906 20.632812 -37.628906 L 20.632812 -37.574219 C 28.289062 -37.574219 28.289062 -27.640625 24.816406 -24.21875 C 24.816406 -24.21875 28.507812 -25.519531 31.929688 -26.988281 C 37.195312 -29.269531 36.542969 -41.703125 20.632812 -41.703125 C 8.253906 -41.703125 1.519531 -30.515625 1.519531 -19.546875 C 1.519531 -8.632812 6.136719 0.597656 17.050781 0.597656 C 22.316406 0.597656 25.738281 -3.3125 27.257812 -6.734375 L 27.257812 -4.074219 C 27.257812 -1.792969 29.105469 0.0546875 31.386719 0.0546875 L 36.542969 0.0546875 C 34.96875 -2.496094 34.96875 -5.160156 34.96875 -7.222656 Z M 34.96875 -7.222656 "/></g></g></g><g fill="#4c090b" fill-opacity="1"><g transform="translate(236.119183, 194.640445)"><g><path d="M 31.058594 -41.214844 L 27.964844 -41.214844 C 28.996094 -38.117188 28.996094 -32.960938 28.996094 -32.960938 L 28.996094 -11.402344 L 13.085938 -39.042969 C 12.054688 -40.671875 10.425781 -41.214844 8.472656 -41.214844 L 2.226562 -41.214844 C 3.203125 -38.117188 3.203125 -32.960938 3.203125 -32.960938 L 3.203125 -2.0625 C 3.203125 -0.921875 4.125 0 5.265625 0 L 9.394531 0 C 8.363281 -3.09375 8.363281 -8.253906 8.363281 -8.253906 L 8.363281 -30.625 L 26.605469 0.542969 L 34.15625 -5.105469 L 34.15625 -38.117188 C 34.15625 -39.800781 32.742188 -41.214844 31.058594 -41.214844 Z M 31.058594 -41.214844 "/></g></g></g><g fill="#4c090b" fill-opacity="1"><g transform="translate(278.636691, 194.640445)"><g><path d="M 11.785156 -10.316406 L 11.785156 -37.085938 C 11.785156 -39.367188 9.9375 -41.214844 7.65625 -41.214844 L 1.519531 -41.214844 C 3.53125 -38.117188 3.53125 -32.960938 3.53125 -30.898438 L 3.53125 -4.125 C 3.53125 -1.847656 5.375 0 7.65625 0 L 13.847656 0 C 11.785156 -3.09375 11.785156 -8.253906 11.785156 -10.316406 Z M 11.785156 -10.316406 "/></g></g></g><g fill="#4c090b" fill-opacity="1"><g transform="translate(141.895701, 222.394137)"><g><path d="M 0.664062 -6.902344 C 0.664062 -6.617188 0.753906 -6.417969 0.929688 -6.238281 L 2.476562 -4.734375 C 2.632812 -4.601562 2.832031 -4.492188 3.054688 -4.492188 L 7.589844 -4.492188 C 7.746094 -4.492188 7.855469 -4.449219 7.964844 -4.335938 L 8.296875 -3.9375 C 8.34375 -3.871094 8.363281 -3.804688 8.363281 -3.71875 L 8.363281 -3.1875 C 8.363281 -3.03125 8.320312 -2.921875 8.210938 -2.808594 L 7.722656 -2.367188 C 7.589844 -2.257812 7.5 -2.191406 7.390625 -2.191406 L 1.371094 -2.191406 C 1.195312 -2.191406 1.039062 -2.035156 1.039062 -1.859375 L 1.039062 -0.332031 C 1.039062 -0.15625 1.195312 0 1.371094 0 L 8.011719 0 C 8.277344 0 8.453125 -0.0664062 8.652344 -0.265625 L 10.421875 -2.035156 C 10.554688 -2.167969 10.6875 -2.390625 10.6875 -2.609375 L 10.6875 -4.449219 C 10.6875 -4.734375 10.597656 -4.957031 10.421875 -5.113281 L 9.09375 -6.394531 C 8.941406 -6.527344 8.742188 -6.636719 8.519531 -6.636719 L 3.761719 -6.636719 C 3.605469 -6.636719 3.496094 -6.683594 3.386719 -6.792969 L 3.054688 -7.191406 C 3.007812 -7.257812 2.988281 -7.324219 2.988281 -7.414062 L 2.988281 -7.878906 C 2.988281 -8.03125 3.03125 -8.144531 3.140625 -8.253906 L 3.628906 -8.695312 C 3.761719 -8.808594 3.851562 -8.875 3.960938 -8.875 L 9.757812 -8.875 C 9.933594 -8.875 10.089844 -9.027344 10.089844 -9.203125 L 10.089844 -10.730469 C 10.089844 -10.910156 9.933594 -11.0625 9.757812 -11.0625 L 3.339844 -11.0625 C 3.074219 -11.0625 2.898438 -10.996094 2.699219 -10.796875 L 0.929688 -9.027344 C 0.796875 -8.894531 0.664062 -8.675781 0.664062 -8.453125 Z M 0.664062 -6.902344 "/></g></g></g><g fill="#4c090b" fill-opacity="1"><g transform="translate(162.092935, 222.394137)"><g><path d="M 0.664062 -2.832031 C 0.664062 -2.609375 0.753906 -2.410156 0.90625 -2.257812 L 2.855469 -0.265625 C 3.03125 -0.0898438 3.230469 0 3.519531 0 L 7.832031 0 C 8.121094 0 8.320312 -0.0898438 8.496094 -0.265625 L 10.445312 -2.257812 C 10.597656 -2.410156 10.6875 -2.609375 10.6875 -2.832031 L 10.6875 -8.230469 C 10.6875 -8.453125 10.597656 -8.652344 10.445312 -8.808594 L 8.496094 -10.796875 C 8.320312 -10.976562 8.121094 -11.0625 7.832031 -11.0625 L 3.519531 -11.0625 C 3.230469 -11.0625 3.03125 -10.976562 2.855469 -10.796875 L 0.90625 -8.808594 C 0.753906 -8.652344 0.664062 -8.453125 0.664062 -8.230469 Z M 2.808594 -3.40625 L 2.808594 -7.65625 C 2.808594 -7.8125 2.855469 -7.921875 2.964844 -8.03125 L 3.671875 -8.695312 L 3.804688 -8.808594 C 3.851562 -8.851562 3.917969 -8.875 4.027344 -8.875 L 7.324219 -8.875 C 7.414062 -8.875 7.480469 -8.851562 7.546875 -8.808594 L 7.679688 -8.695312 L 8.386719 -8.03125 C 8.496094 -7.921875 8.542969 -7.8125 8.542969 -7.65625 L 8.542969 -3.40625 C 8.542969 -3.253906 8.496094 -3.140625 8.386719 -3.03125 L 7.679688 -2.367188 L 7.546875 -2.257812 C 7.480469 -2.210938 7.414062 -2.191406 7.324219 -2.191406 L 4.027344 -2.191406 C 3.917969 -2.191406 3.851562 -2.210938 3.804688 -2.257812 L 3.671875 -2.367188 L 2.964844 -3.03125 C 2.855469 -3.140625 2.808594 -3.253906 2.808594 -3.40625 Z M 2.808594 -3.40625 "/></g></g></g><g fill="#4c090b" fill-opacity="1"><g transform="translate(182.290169, 222.394137)"><g><path d="M 10.355469 -11.0625 L 3.5625 -11.0625 C 3.296875 -11.0625 3.121094 -10.996094 2.921875 -10.796875 L 0.929688 -8.808594 C 0.796875 -8.675781 0.664062 -8.453125 0.664062 -8.230469 L 0.664062 -0.332031 C 0.664062 -0.15625 0.820312 0 0.996094 0 L 2.65625 0 C 2.832031 0 2.988281 -0.15625 2.988281 -0.332031 L 2.988281 -2.808594 L 8.941406 -2.808594 C 9.117188 -2.808594 9.269531 -2.964844 9.269531 -3.140625 L 9.269531 -4.667969 C 9.269531 -4.847656 9.117188 -5 8.941406 -5 L 2.988281 -5 L 2.988281 -7.65625 C 2.988281 -7.8125 3.03125 -7.921875 3.140625 -8.03125 L 3.851562 -8.695312 C 3.984375 -8.828125 4.070312 -8.875 4.183594 -8.875 L 10.355469 -8.875 C 10.53125 -8.875 10.6875 -9.027344 10.6875 -9.203125 L 10.6875 -10.730469 C 10.6875 -10.910156 10.53125 -11.0625 10.355469 -11.0625 Z M 10.355469 -11.0625 "/></g></g></g><g fill="#4c090b" fill-opacity="1"><g transform="translate(202.487404, 222.394137)"><g><path d="M 12.28125 -11.0625 L 0.996094 -11.0625 C 0.820312 -11.0625 0.664062 -10.910156 0.664062 -10.730469 L 0.664062 -9.074219 C 0.664062 -8.894531 0.820312 -8.742188 0.996094 -8.742188 L 5.488281 -8.742188 L 5.488281 -0.332031 C 5.488281 -0.15625 5.640625 0 5.820312 0 L 7.480469 0 C 7.65625 0 7.8125 -0.15625 7.8125 -0.332031 L 7.8125 -8.742188 L 12.28125 -8.742188 C 12.457031 -8.742188 12.613281 -8.894531 12.613281 -9.074219 L 12.613281 -10.730469 C 12.613281 -10.910156 12.457031 -11.0625 12.28125 -11.0625 Z M 12.28125 -11.0625 "/></g></g></g><g fill="#4c090b" fill-opacity="1"><g transform="translate(224.607916, 222.394137)"><g><path d="M 17.902344 -11.0625 L 16.417969 -11.0625 C 16.242188 -11.0625 16.085938 -10.910156 16.085938 -10.730469 L 16.085938 -3.429688 C 16.085938 -3.273438 16.042969 -3.140625 15.933594 -3.054688 L 15.089844 -2.257812 C 15.023438 -2.210938 14.957031 -2.191406 14.871094 -2.191406 L 11.925781 -2.191406 C 11.839844 -2.191406 11.773438 -2.210938 11.707031 -2.257812 L 10.863281 -3.03125 C 10.796875 -3.074219 10.753906 -3.164062 10.730469 -3.230469 L 10.730469 -10.730469 C 10.730469 -10.910156 10.578125 -11.0625 10.398438 -11.0625 L 8.894531 -11.0625 C 8.71875 -11.0625 8.5625 -10.910156 8.5625 -10.730469 L 8.5625 -3.230469 C 8.542969 -3.164062 8.496094 -3.074219 8.429688 -3.03125 L 7.589844 -2.257812 C 7.523438 -2.210938 7.457031 -2.191406 7.367188 -2.191406 L 4.09375 -2.191406 C 4.003906 -2.191406 3.9375 -2.210938 3.871094 -2.257812 L 2.964844 -3.097656 C 2.855469 -3.207031 2.808594 -3.320312 2.808594 -3.472656 L 2.808594 -10.730469 C 2.808594 -10.910156 2.65625 -11.0625 2.476562 -11.0625 L 0.996094 -11.0625 C 0.820312 -11.0625 0.664062 -10.910156 0.664062 -10.730469 L 0.664062 -2.832031 C 0.664062 -2.609375 0.773438 -2.410156 0.90625 -2.257812 L 2.855469 -0.265625 C 3.03125 -0.0898438 3.230469 0 3.519531 0 L 7.878906 0 C 8.164062 0 8.363281 -0.0898438 8.542969 -0.265625 L 9.648438 -1.394531 L 10.753906 -0.265625 C 10.929688 -0.0898438 11.128906 0 11.417969 0 L 15.378906 0 C 15.667969 0 15.886719 -0.0898438 16.042969 -0.265625 L 17.988281 -2.257812 C 18.144531 -2.410156 18.234375 -2.609375 18.234375 -2.832031 L 18.234375 -10.730469 C 18.234375 -10.910156 18.078125 -11.0625 17.902344 -11.0625 Z M 17.902344 -11.0625 "/></g></g></g><g fill="#4c090b" fill-opacity="1"><g transform="translate(252.343584, 222.394137)"><g><path d="M 10.445312 -8.808594 L 8.496094 -10.796875 C 8.320312 -10.976562 8.121094 -11.0625 7.832031 -11.0625 L 3.519531 -11.0625 C 3.230469 -11.0625 3.03125 -10.976562 2.855469 -10.796875 L 0.90625 -8.808594 C 0.753906 -8.652344 0.664062 -8.453125 0.664062 -8.230469 L 0.664062 -0.332031 C 0.664062 -0.15625 0.820312 0 0.996094 0 L 2.476562 0 C 2.65625 0 2.808594 -0.15625 2.808594 -0.332031 L 2.808594 -3.628906 L 8.542969 -3.628906 L 8.542969 -0.332031 C 8.542969 -0.15625 8.695312 0 8.875 0 L 10.355469 0 C 10.53125 0 10.6875 -0.15625 10.6875 -0.332031 L 10.6875 -8.230469 C 10.6875 -8.453125 10.597656 -8.652344 10.445312 -8.808594 Z M 2.808594 -5.554688 L 2.808594 -7.65625 C 2.808594 -7.8125 2.855469 -7.921875 2.964844 -8.03125 L 3.671875 -8.695312 L 3.804688 -8.808594 C 3.851562 -8.851562 3.917969 -8.875 4.027344 -8.875 L 7.324219 -8.875 C 7.414062 -8.875 7.480469 -8.851562 7.546875 -8.808594 L 7.679688 -8.695312 L 8.386719 -8.03125 C 8.496094 -7.921875 8.542969 -7.8125 8.542969 -7.65625 L 8.542969 -5.554688 Z M 2.808594 -5.554688 "/></g></g></g><g fill="#4c090b" fill-opacity="1"><g transform="translate(272.540816, 222.394137)"><g><path d="M 10.578125 -8.875 L 8.585938 -10.820312 C 8.429688 -10.976562 8.230469 -11.0625 8.011719 -11.0625 L 0.996094 -11.0625 C 0.820312 -11.0625 0.664062 -10.910156 0.664062 -10.730469 L 0.664062 -0.332031 C 0.664062 -0.15625 0.820312 0 0.996094 0 L 2.523438 0 C 2.699219 0 2.855469 -0.15625 2.855469 -0.332031 L 2.855469 -2.433594 L 6.703125 -2.433594 L 8.078125 -0.199219 C 8.164062 -0.0664062 8.277344 0 8.410156 0 L 10.066406 0 C 10.332031 0 10.464844 -0.242188 10.332031 -0.464844 L 8.785156 -2.898438 L 10.578125 -4.691406 C 10.710938 -4.824219 10.84375 -5.046875 10.84375 -5.265625 L 10.84375 -8.210938 C 10.84375 -8.496094 10.753906 -8.695312 10.578125 -8.875 Z M 2.855469 -8.917969 L 7.300781 -8.917969 C 7.457031 -8.917969 7.566406 -8.875 7.679688 -8.761719 L 8.34375 -8.054688 L 8.453125 -7.921875 C 8.496094 -7.855469 8.519531 -7.789062 8.519531 -7.699219 L 8.519531 -5.839844 C 8.519531 -5.6875 8.476562 -5.574219 8.363281 -5.464844 L 7.65625 -4.800781 C 7.523438 -4.667969 7.433594 -4.625 7.324219 -4.625 L 2.855469 -4.625 Z M 2.855469 -8.917969 "/></g></g></g><g fill="#4c090b" fill-opacity="1"><g transform="translate(292.892783, 222.394137)"><g><path d="M 3.140625 -8.03125 L 3.851562 -8.695312 C 3.984375 -8.828125 4.070312 -8.875 4.183594 -8.875 L 10.023438 -8.875 C 10.199219 -8.875 10.355469 -9.027344 10.355469 -9.203125 L 10.355469 -10.730469 C 10.355469 -10.910156 10.199219 -11.0625 10.023438 -11.0625 L 3.40625 -11.0625 C 3.140625 -11.0625 2.964844 -10.996094 2.765625 -10.796875 L 0.929688 -8.984375 C 0.796875 -8.851562 0.664062 -8.628906 0.664062 -8.410156 L 0.664062 -2.699219 C 0.664062 -2.410156 0.753906 -2.210938 0.929688 -2.035156 L 2.765625 -0.242188 C 2.921875 -0.0898438 3.121094 0 3.339844 0 L 10.023438 0 C 10.199219 0 10.355469 -0.15625 10.355469 -0.332031 L 10.355469 -1.816406 C 10.355469 -1.992188 10.199219 -2.144531 10.023438 -2.144531 L 4.203125 -2.144531 C 4.050781 -2.144531 3.9375 -2.191406 3.828125 -2.300781 L 3.054688 -3.140625 C 3.007812 -3.207031 2.988281 -3.273438 2.988281 -3.363281 L 2.988281 -4.492188 L 8.941406 -4.492188 C 9.117188 -4.492188 9.269531 -4.648438 9.269531 -4.824219 L 9.269531 -6.351562 C 9.269531 -6.527344 9.117188 -6.683594 8.941406 -6.683594 L 2.988281 -6.683594 L 2.988281 -7.65625 C 2.988281 -7.8125 3.03125 -7.921875 3.140625 -8.03125 Z M 3.140625 -8.03125 "/></g></g></g></svg>