<svg width="853" height="326" viewBox="0 0 853 326" fill="none" xmlns="http://www.w3.org/2000/svg">
<g filter="url(#filter0_d_279_67)">
<rect x="24" y="20" width="805" height="278" rx="21" fill="white"/>
</g>
<rect x="48" y="41" width="237" height="237" rx="18" fill="url(#paint0_linear_279_67)"/>
<path d="M158.125 170.875L135.083 151.125C135.083 151.125 138.375 146.188 143.312 141.25C148.25 136.313 152.318 135.154 158.125 131.375C169.682 123.857 179.521 91.875 194.333 91.875L158.125 170.875Z" fill="url(#paint1_linear_279_67)"/>
<path d="M125.209 190.842L92.292 167.583L135.084 151.125L159.037 169.114L135.084 187.551L125.209 190.842Z" fill="url(#paint2_linear_279_67)"/>
<path d="M194.333 91.875C210.791 91.875 237.125 180.75 243.708 203.792C243.708 203.792 220.61 181.968 207.5 184.042C194.389 186.115 189.494 205.596 175.488 219.447C166.354 228.479 158.125 230.125 158.125 230.125C158.125 230.125 157.447 203.384 141.666 193.917C133.437 188.979 125.208 190.625 125.208 190.625C125.208 190.625 145.119 181.076 156.393 163.719C167.667 146.362 182.812 91.875 194.333 91.875Z" fill="url(#paint3_linear_279_67)"/>
<path d="M328.36 84V61.6H330.984L341.032 78.528H339.624L349.544 61.6H352.168L352.2 84H349.128L349.096 66.432H349.832L341 81.28H339.528L330.632 66.432H331.432V84H328.36ZM355.051 84L365.195 61.6H368.363L378.539 84H375.179L366.123 63.392H367.403L358.347 84H355.051ZM359.371 78.4L360.235 75.84H372.843L373.771 78.4H359.371ZM384.723 84V64.384H377.043V61.6H395.571V64.384H387.891V84H384.723ZM398.576 84V61.6H401.776V81.216H413.904V84H398.576ZM413.704 84L423.848 61.6H427.016L437.192 84H433.832L424.776 63.392H426.056L417 84H413.704ZM418.024 78.4L418.888 75.84H431.496L432.424 78.4H418.024ZM440.054 84V61.6H450.102C452.683 61.6 454.667 62.1227 456.054 63.168C457.44 64.192 458.134 65.6 458.134 67.392C458.134 68.608 457.856 69.632 457.302 70.464C456.768 71.296 456.043 71.936 455.126 72.384C454.208 72.832 453.216 73.056 452.15 73.056L452.726 72.096C454.006 72.096 455.136 72.32 456.118 72.768C457.099 73.216 457.878 73.8773 458.454 74.752C459.03 75.6053 459.318 76.672 459.318 77.952C459.318 79.872 458.592 81.3653 457.142 82.432C455.712 83.4773 453.579 84 450.742 84H440.054ZM443.254 81.408H450.614C452.384 81.408 453.739 81.1093 454.678 80.512C455.616 79.9147 456.086 78.976 456.086 77.696C456.086 76.3947 455.616 75.4453 454.678 74.848C453.739 74.2507 452.384 73.952 450.614 73.952H442.966V71.36H449.814C451.435 71.36 452.694 71.0613 453.59 70.464C454.486 69.8667 454.934 68.9707 454.934 67.776C454.934 66.5813 454.486 65.6853 453.59 65.088C452.694 64.4907 451.435 64.192 449.814 64.192H443.254V81.408Z" fill="#2F2E41"/>
<path d="M331.576 145V138.568L332.128 140.056L324.904 128.2H327.472L333.544 138.208H332.152L338.248 128.2H340.624L333.424 140.056L333.952 138.568V145H331.576ZM346.381 145.144C345.101 145.144 343.965 144.864 342.973 144.304C341.981 143.744 341.197 142.976 340.621 142C340.045 141.008 339.757 139.888 339.757 138.64C339.757 137.376 340.045 136.256 340.621 135.28C341.197 134.304 341.981 133.544 342.973 133C343.965 132.44 345.101 132.16 346.381 132.16C347.645 132.16 348.773 132.44 349.765 133C350.773 133.544 351.557 134.304 352.117 135.28C352.693 136.24 352.981 137.36 352.981 138.64C352.981 139.904 352.693 141.024 352.117 142C351.557 142.976 350.773 143.744 349.765 144.304C348.773 144.864 347.645 145.144 346.381 145.144ZM346.381 143.128C347.197 143.128 347.925 142.944 348.565 142.576C349.221 142.208 349.733 141.688 350.101 141.016C350.469 140.328 350.653 139.536 350.653 138.64C350.653 137.728 350.469 136.944 350.101 136.288C349.733 135.616 349.221 135.096 348.565 134.728C347.925 134.36 347.197 134.176 346.381 134.176C345.565 134.176 344.837 134.36 344.197 134.728C343.557 135.096 343.045 135.616 342.661 136.288C342.277 136.944 342.085 137.728 342.085 138.64C342.085 139.536 342.277 140.328 342.661 141.016C343.045 141.688 343.557 142.208 344.197 142.576C344.837 142.944 345.565 143.128 346.381 143.128ZM361.16 145.144C360.072 145.144 359.112 144.944 358.28 144.544C357.464 144.144 356.824 143.536 356.36 142.72C355.912 141.888 355.688 140.848 355.688 139.6V132.28H357.992V139.336C357.992 140.584 358.288 141.52 358.88 142.144C359.488 142.768 360.336 143.08 361.424 143.08C362.224 143.08 362.92 142.92 363.512 142.6C364.104 142.264 364.56 141.784 364.88 141.16C365.2 140.52 365.36 139.752 365.36 138.856V132.28H367.664V145H365.48V141.568L365.84 142.48C365.424 143.328 364.8 143.984 363.968 144.448C363.136 144.912 362.2 145.144 361.16 145.144ZM381.423 145.144C380.367 145.144 379.359 145 378.399 144.712C377.455 144.424 376.711 144.072 376.167 143.656L377.127 141.832C377.671 142.2 378.343 142.512 379.143 142.768C379.943 143.024 380.759 143.152 381.591 143.152C382.663 143.152 383.431 143 383.895 142.696C384.375 142.392 384.615 141.968 384.615 141.424C384.615 141.024 384.471 140.712 384.183 140.488C383.895 140.264 383.511 140.096 383.031 139.984C382.567 139.872 382.047 139.776 381.471 139.696C380.895 139.6 380.319 139.488 379.743 139.36C379.167 139.216 378.639 139.024 378.159 138.784C377.679 138.528 377.295 138.184 377.007 137.752C376.719 137.304 376.575 136.712 376.575 135.976C376.575 135.208 376.791 134.536 377.223 133.96C377.655 133.384 378.263 132.944 379.047 132.64C379.847 132.32 380.791 132.16 381.879 132.16C382.711 132.16 383.551 132.264 384.399 132.472C385.263 132.664 385.967 132.944 386.511 133.312L385.527 135.136C384.951 134.752 384.351 134.488 383.727 134.344C383.103 134.2 382.479 134.128 381.855 134.128C380.847 134.128 380.095 134.296 379.599 134.632C379.103 134.952 378.855 135.368 378.855 135.88C378.855 136.312 378.999 136.648 379.287 136.888C379.591 137.112 379.975 137.288 380.439 137.416C380.919 137.544 381.447 137.656 382.023 137.752C382.599 137.832 383.175 137.944 383.751 138.088C384.327 138.216 384.847 138.4 385.311 138.64C385.791 138.88 386.175 139.216 386.463 139.648C386.767 140.08 386.919 140.656 386.919 141.376C386.919 142.144 386.695 142.808 386.247 143.368C385.799 143.928 385.167 144.368 384.351 144.688C383.535 144.992 382.559 145.144 381.423 145.144ZM395.103 145.144C393.743 145.144 392.543 144.864 391.503 144.304C390.479 143.744 389.679 142.976 389.103 142C388.543 141.024 388.263 139.904 388.263 138.64C388.263 137.376 388.535 136.256 389.079 135.28C389.639 134.304 390.399 133.544 391.359 133C392.335 132.44 393.431 132.16 394.647 132.16C395.879 132.16 396.967 132.432 397.911 132.976C398.855 133.52 399.591 134.288 400.119 135.28C400.663 136.256 400.935 137.4 400.935 138.712C400.935 138.808 400.927 138.92 400.911 139.048C400.911 139.176 400.903 139.296 400.887 139.408H390.063V137.752H399.687L398.751 138.328C398.767 137.512 398.599 136.784 398.247 136.144C397.895 135.504 397.407 135.008 396.783 134.656C396.175 134.288 395.463 134.104 394.647 134.104C393.847 134.104 393.135 134.288 392.511 134.656C391.887 135.008 391.399 135.512 391.047 136.168C390.695 136.808 390.519 137.544 390.519 138.376V138.76C390.519 139.608 390.711 140.368 391.095 141.04C391.495 141.696 392.047 142.208 392.751 142.576C393.455 142.944 394.263 143.128 395.175 143.128C395.927 143.128 396.607 143 397.215 142.744C397.839 142.488 398.383 142.104 398.847 141.592L400.119 143.08C399.543 143.752 398.823 144.264 397.959 144.616C397.111 144.968 396.159 145.144 395.103 145.144ZM403.774 145V127.192H406.078V145H403.774ZM415.781 145.144C414.421 145.144 413.221 144.864 412.181 144.304C411.157 143.744 410.357 142.976 409.781 142C409.221 141.024 408.941 139.904 408.941 138.64C408.941 137.376 409.213 136.256 409.757 135.28C410.317 134.304 411.077 133.544 412.037 133C413.013 132.44 414.109 132.16 415.325 132.16C416.557 132.16 417.645 132.432 418.589 132.976C419.533 133.52 420.269 134.288 420.797 135.28C421.341 136.256 421.613 137.4 421.613 138.712C421.613 138.808 421.605 138.92 421.589 139.048C421.589 139.176 421.581 139.296 421.565 139.408H410.741V137.752H420.365L419.429 138.328C419.445 137.512 419.277 136.784 418.925 136.144C418.573 135.504 418.085 135.008 417.461 134.656C416.853 134.288 416.141 134.104 415.325 134.104C414.525 134.104 413.813 134.288 413.189 134.656C412.565 135.008 412.077 135.512 411.725 136.168C411.373 136.808 411.197 137.544 411.197 138.376V138.76C411.197 139.608 411.389 140.368 411.773 141.04C412.173 141.696 412.725 142.208 413.429 142.576C414.133 142.944 414.941 143.128 415.853 143.128C416.605 143.128 417.285 143 417.893 142.744C418.517 142.488 419.061 142.104 419.525 141.592L420.797 143.08C420.221 143.752 419.501 144.264 418.637 144.616C417.789 144.968 416.837 145.144 415.781 145.144ZM429.996 145.144C428.7 145.144 427.54 144.864 426.516 144.304C425.508 143.744 424.716 142.976 424.14 142C423.564 141.024 423.276 139.904 423.276 138.64C423.276 137.376 423.564 136.256 424.14 135.28C424.716 134.304 425.508 133.544 426.516 133C427.54 132.44 428.7 132.16 429.996 132.16C431.148 132.16 432.172 132.392 433.068 132.856C433.98 133.304 434.684 133.976 435.18 134.872L433.428 136C433.012 135.376 432.5 134.92 431.892 134.632C431.3 134.328 430.66 134.176 429.972 134.176C429.14 134.176 428.396 134.36 427.74 134.728C427.084 135.096 426.564 135.616 426.18 136.288C425.796 136.944 425.604 137.728 425.604 138.64C425.604 139.552 425.796 140.344 426.18 141.016C426.564 141.688 427.084 142.208 427.74 142.576C428.396 142.944 429.14 143.128 429.972 143.128C430.66 143.128 431.3 142.984 431.892 142.696C432.5 142.392 433.012 141.928 433.428 141.304L435.18 142.408C434.684 143.288 433.98 143.968 433.068 144.448C432.172 144.912 431.148 145.144 429.996 145.144ZM442.335 145.144C441.055 145.144 440.063 144.8 439.359 144.112C438.655 143.424 438.303 142.44 438.303 141.16V129.496H440.607V141.064C440.607 141.752 440.775 142.28 441.111 142.648C441.463 143.016 441.959 143.2 442.599 143.2C443.319 143.2 443.919 143 444.399 142.6L445.119 144.256C444.767 144.56 444.343 144.784 443.847 144.928C443.367 145.072 442.863 145.144 442.335 145.144ZM436.143 134.176V132.28H444.255V134.176H436.143ZM452.787 145.144C451.427 145.144 450.227 144.864 449.187 144.304C448.163 143.744 447.363 142.976 446.787 142C446.227 141.024 445.947 139.904 445.947 138.64C445.947 137.376 446.219 136.256 446.763 135.28C447.323 134.304 448.083 133.544 449.043 133C450.019 132.44 451.115 132.16 452.331 132.16C453.563 132.16 454.651 132.432 455.595 132.976C456.539 133.52 457.275 134.288 457.803 135.28C458.347 136.256 458.619 137.4 458.619 138.712C458.619 138.808 458.611 138.92 458.595 139.048C458.595 139.176 458.587 139.296 458.571 139.408H447.747V137.752H457.371L456.435 138.328C456.451 137.512 456.283 136.784 455.931 136.144C455.579 135.504 455.091 135.008 454.467 134.656C453.859 134.288 453.147 134.104 452.331 134.104C451.531 134.104 450.819 134.288 450.195 134.656C449.571 135.008 449.083 135.512 448.731 136.168C448.379 136.808 448.203 137.544 448.203 138.376V138.76C448.203 139.608 448.395 140.368 448.779 141.04C449.179 141.696 449.731 142.208 450.435 142.576C451.139 142.944 451.947 143.128 452.859 143.128C453.611 143.128 454.291 143 454.899 142.744C455.523 142.488 456.067 142.104 456.531 141.592L457.803 143.08C457.227 143.752 456.507 144.264 455.643 144.616C454.795 144.968 453.843 145.144 452.787 145.144ZM466.714 145.144C465.482 145.144 464.378 144.872 463.402 144.328C462.442 143.784 461.682 143.024 461.122 142.048C460.562 141.072 460.282 139.936 460.282 138.64C460.282 137.344 460.562 136.216 461.122 135.256C461.682 134.28 462.442 133.52 463.402 132.976C464.378 132.432 465.482 132.16 466.714 132.16C467.786 132.16 468.754 132.4 469.618 132.88C470.482 133.36 471.17 134.08 471.682 135.04C472.21 136 472.474 137.2 472.474 138.64C472.474 140.08 472.218 141.28 471.706 142.24C471.21 143.2 470.53 143.928 469.666 144.424C468.802 144.904 467.818 145.144 466.714 145.144ZM466.906 143.128C467.706 143.128 468.426 142.944 469.066 142.576C469.722 142.208 470.234 141.688 470.602 141.016C470.986 140.328 471.178 139.536 471.178 138.64C471.178 137.728 470.986 136.944 470.602 136.288C470.234 135.616 469.722 135.096 469.066 134.728C468.426 134.36 467.706 134.176 466.906 134.176C466.09 134.176 465.362 134.36 464.722 134.728C464.082 135.096 463.57 135.616 463.186 136.288C462.802 136.944 462.61 137.728 462.61 138.64C462.61 139.536 462.802 140.328 463.186 141.016C463.57 141.688 464.082 142.208 464.722 142.576C465.362 142.944 466.09 143.128 466.906 143.128ZM471.25 145V141.568L471.394 138.616L471.154 135.664V127.192H473.458V145H471.25ZM483.879 145V128.2H485.847L493.383 140.896H492.327L499.767 128.2H501.735L501.759 145H499.455L499.431 131.824H499.983L493.359 142.96H492.255L485.583 131.824H486.183V145H483.879ZM514.001 145V142.312L513.881 141.808V137.224C513.881 136.248 513.593 135.496 513.017 134.968C512.457 134.424 511.609 134.152 510.473 134.152C509.721 134.152 508.985 134.28 508.265 134.536C507.545 134.776 506.937 135.104 506.441 135.52L505.481 133.792C506.137 133.264 506.921 132.864 507.833 132.592C508.761 132.304 509.729 132.16 510.737 132.16C512.481 132.16 513.825 132.584 514.769 133.432C515.713 134.28 516.185 135.576 516.185 137.32V145H514.001ZM509.825 145.144C508.881 145.144 508.049 144.984 507.329 144.664C506.625 144.344 506.081 143.904 505.697 143.344C505.313 142.768 505.121 142.12 505.121 141.4C505.121 140.712 505.281 140.088 505.601 139.528C505.937 138.968 506.473 138.52 507.209 138.184C507.961 137.848 508.969 137.68 510.233 137.68H514.265V139.336H510.329C509.177 139.336 508.401 139.528 508.001 139.912C507.601 140.296 507.401 140.76 507.401 141.304C507.401 141.928 507.649 142.432 508.145 142.816C508.641 143.184 509.329 143.368 510.209 143.368C511.073 143.368 511.825 143.176 512.465 142.792C513.121 142.408 513.593 141.848 513.881 141.112L514.337 142.696C514.033 143.448 513.497 144.048 512.729 144.496C511.961 144.928 510.993 145.144 509.825 145.144ZM524.457 145.144C523.177 145.144 522.185 144.8 521.481 144.112C520.777 143.424 520.425 142.44 520.425 141.16V129.496H522.729V141.064C522.729 141.752 522.897 142.28 523.233 142.648C523.585 143.016 524.081 143.2 524.721 143.2C525.441 143.2 526.041 143 526.521 142.6L527.241 144.256C526.889 144.56 526.465 144.784 525.969 144.928C525.489 145.072 524.985 145.144 524.457 145.144ZM518.265 134.176V132.28H526.377V134.176H518.265ZM529.666 145V127.192H531.97V145H529.666ZM543.905 145V142.312L543.785 141.808V137.224C543.785 136.248 543.497 135.496 542.921 134.968C542.361 134.424 541.513 134.152 540.377 134.152C539.625 134.152 538.889 134.28 538.169 134.536C537.449 134.776 536.841 135.104 536.345 135.52L535.385 133.792C536.041 133.264 536.825 132.864 537.737 132.592C538.665 132.304 539.633 132.16 540.641 132.16C542.385 132.16 543.729 132.584 544.673 133.432C545.617 134.28 546.089 135.576 546.089 137.32V145H543.905ZM539.729 145.144C538.785 145.144 537.953 144.984 537.233 144.664C536.529 144.344 535.985 143.904 535.601 143.344C535.217 142.768 535.025 142.12 535.025 141.4C535.025 140.712 535.185 140.088 535.505 139.528C535.841 138.968 536.377 138.52 537.113 138.184C537.865 137.848 538.873 137.68 540.137 137.68H544.169V139.336H540.233C539.081 139.336 538.305 139.528 537.905 139.912C537.505 140.296 537.305 140.76 537.305 141.304C537.305 141.928 537.553 142.432 538.049 142.816C538.545 143.184 539.233 143.368 540.113 143.368C540.977 143.368 541.729 143.176 542.369 142.792C543.025 142.408 543.497 141.848 543.785 141.112L544.241 142.696C543.937 143.448 543.401 144.048 542.633 144.496C541.865 144.928 540.897 145.144 539.729 145.144ZM556.737 145.144C555.649 145.144 554.665 144.904 553.785 144.424C552.921 143.928 552.233 143.2 551.721 142.24C551.225 141.28 550.977 140.08 550.977 138.64C550.977 137.2 551.233 136 551.745 135.04C552.273 134.08 552.969 133.36 553.833 132.88C554.713 132.4 555.681 132.16 556.737 132.16C557.985 132.16 559.089 132.432 560.049 132.976C561.009 133.52 561.769 134.28 562.329 135.256C562.889 136.216 563.169 137.344 563.169 138.64C563.169 139.936 562.889 141.072 562.329 142.048C561.769 143.024 561.009 143.784 560.049 144.328C559.089 144.872 557.985 145.144 556.737 145.144ZM549.993 145V127.192H552.297V135.664L552.057 138.616L552.201 141.568V145H549.993ZM556.545 143.128C557.361 143.128 558.089 142.944 558.729 142.576C559.385 142.208 559.897 141.688 560.265 141.016C560.649 140.328 560.841 139.536 560.841 138.64C560.841 137.728 560.649 136.944 560.265 136.288C559.897 135.616 559.385 135.096 558.729 134.728C558.089 134.36 557.361 134.176 556.545 134.176C555.745 134.176 555.017 134.36 554.361 134.728C553.721 135.096 553.209 135.616 552.825 136.288C552.457 136.944 552.273 137.728 552.273 138.64C552.273 139.536 552.457 140.328 552.825 141.016C553.209 141.688 553.721 142.208 554.361 142.576C555.017 142.944 555.745 143.128 556.545 143.128ZM572.414 145V131.152C572.414 129.904 572.774 128.912 573.494 128.176C574.23 127.424 575.27 127.048 576.614 127.048C577.11 127.048 577.582 127.112 578.03 127.24C578.494 127.352 578.886 127.536 579.206 127.792L578.51 129.544C578.27 129.352 577.998 129.208 577.694 129.112C577.39 129 577.07 128.944 576.734 128.944C576.062 128.944 575.55 129.136 575.198 129.52C574.846 129.888 574.67 130.44 574.67 131.176V132.88L574.718 133.936V145H572.414ZM570.254 134.176V132.28H578.366V134.176H570.254ZM585.439 145.144C584.159 145.144 583.023 144.864 582.031 144.304C581.039 143.744 580.255 142.976 579.679 142C579.103 141.008 578.815 139.888 578.815 138.64C578.815 137.376 579.103 136.256 579.679 135.28C580.255 134.304 581.039 133.544 582.031 133C583.023 132.44 584.159 132.16 585.439 132.16C586.703 132.16 587.831 132.44 588.823 133C589.831 133.544 590.615 134.304 591.175 135.28C591.751 136.24 592.039 137.36 592.039 138.64C592.039 139.904 591.751 141.024 591.175 142C590.615 142.976 589.831 143.744 588.823 144.304C587.831 144.864 586.703 145.144 585.439 145.144ZM585.439 143.128C586.255 143.128 586.983 142.944 587.623 142.576C588.279 142.208 588.791 141.688 589.159 141.016C589.527 140.328 589.711 139.536 589.711 138.64C589.711 137.728 589.527 136.944 589.159 136.288C588.791 135.616 588.279 135.096 587.623 134.728C586.983 134.36 586.255 134.176 585.439 134.176C584.623 134.176 583.895 134.36 583.255 134.728C582.615 135.096 582.103 135.616 581.719 136.288C581.335 136.944 581.143 137.728 581.143 138.64C581.143 139.536 581.335 140.328 581.719 141.016C582.103 141.688 582.615 142.208 583.255 142.576C583.895 142.944 584.623 143.128 585.439 143.128ZM594.866 145V132.28H597.074V135.736L596.858 134.872C597.21 133.992 597.802 133.32 598.634 132.856C599.466 132.392 600.49 132.16 601.706 132.16V134.392C601.61 134.376 601.514 134.368 601.418 134.368C601.338 134.368 601.258 134.368 601.178 134.368C599.946 134.368 598.97 134.736 598.25 135.472C597.53 136.208 597.17 137.272 597.17 138.664V145H594.866ZM614.803 145.144C613.523 145.144 612.531 144.8 611.827 144.112C611.123 143.424 610.771 142.44 610.771 141.16V129.496H613.075V141.064C613.075 141.752 613.243 142.28 613.579 142.648C613.931 143.016 614.427 143.2 615.067 143.2C615.787 143.2 616.387 143 616.867 142.6L617.587 144.256C617.235 144.56 616.811 144.784 616.315 144.928C615.835 145.072 615.331 145.144 614.803 145.144ZM608.611 134.176V132.28H616.723V134.176H608.611ZM626.804 132.16C627.844 132.16 628.756 132.36 629.54 132.76C630.34 133.16 630.964 133.768 631.412 134.584C631.86 135.4 632.084 136.432 632.084 137.68V145H629.78V137.944C629.78 136.712 629.476 135.784 628.868 135.16C628.276 134.536 627.436 134.224 626.348 134.224C625.532 134.224 624.82 134.384 624.212 134.704C623.604 135.024 623.132 135.496 622.796 136.12C622.476 136.744 622.316 137.52 622.316 138.448V145H620.012V127.192H622.316V135.712L621.86 134.8C622.276 133.968 622.916 133.32 623.78 132.856C624.644 132.392 625.652 132.16 626.804 132.16ZM635.988 145V132.28H638.292V145H635.988ZM637.14 129.832C636.692 129.832 636.316 129.688 636.012 129.4C635.724 129.112 635.58 128.76 635.58 128.344C635.58 127.912 635.724 127.552 636.012 127.264C636.316 126.976 636.692 126.832 637.14 126.832C637.588 126.832 637.956 126.976 638.244 127.264C638.548 127.536 638.7 127.88 638.7 128.296C638.7 128.728 638.556 129.096 638.268 129.4C637.98 129.688 637.604 129.832 637.14 129.832ZM645.979 145.144C644.923 145.144 643.915 145 642.955 144.712C642.011 144.424 641.267 144.072 640.723 143.656L641.683 141.832C642.227 142.2 642.899 142.512 643.699 142.768C644.499 143.024 645.315 143.152 646.147 143.152C647.219 143.152 647.987 143 648.451 142.696C648.931 142.392 649.171 141.968 649.171 141.424C649.171 141.024 649.027 140.712 648.739 140.488C648.451 140.264 648.067 140.096 647.587 139.984C647.123 139.872 646.603 139.776 646.027 139.696C645.451 139.6 644.875 139.488 644.299 139.36C643.723 139.216 643.195 139.024 642.715 138.784C642.235 138.528 641.851 138.184 641.563 137.752C641.275 137.304 641.131 136.712 641.131 135.976C641.131 135.208 641.347 134.536 641.779 133.96C642.211 133.384 642.819 132.944 643.603 132.64C644.403 132.32 645.347 132.16 646.435 132.16C647.267 132.16 648.107 132.264 648.955 132.472C649.819 132.664 650.523 132.944 651.067 133.312L650.083 135.136C649.507 134.752 648.907 134.488 648.283 134.344C647.659 134.2 647.035 134.128 646.411 134.128C645.403 134.128 644.651 134.296 644.155 134.632C643.659 134.952 643.411 135.368 643.411 135.88C643.411 136.312 643.555 136.648 643.843 136.888C644.147 137.112 644.531 137.288 644.995 137.416C645.475 137.544 646.003 137.656 646.579 137.752C647.155 137.832 647.731 137.944 648.307 138.088C648.883 138.216 649.403 138.4 649.867 138.64C650.347 138.88 650.731 139.216 651.019 139.648C651.323 140.08 651.475 140.656 651.475 141.376C651.475 142.144 651.251 142.808 650.803 143.368C650.355 143.928 649.723 144.368 648.907 144.688C648.091 144.992 647.115 145.144 645.979 145.144ZM660.416 145V128.2H662.816V142.912H671.912V145H660.416ZM671.762 145L679.37 128.2H681.746L689.378 145H686.858L680.066 129.544H681.026L674.234 145H671.762ZM675.002 140.8L675.65 138.88H685.106L685.802 140.8H675.002ZM691.524 145V128.2H699.06C700.996 128.2 702.484 128.592 703.524 129.376C704.564 130.144 705.084 131.2 705.084 132.544C705.084 133.456 704.876 134.224 704.46 134.848C704.06 135.472 703.516 135.952 702.828 136.288C702.14 136.624 701.396 136.792 700.596 136.792L701.028 136.072C701.988 136.072 702.836 136.24 703.572 136.576C704.308 136.912 704.892 137.408 705.324 138.064C705.756 138.704 705.972 139.504 705.972 140.464C705.972 141.904 705.428 143.024 704.34 143.824C703.268 144.608 701.668 145 699.54 145H691.524ZM693.924 143.056H699.444C700.772 143.056 701.788 142.832 702.492 142.384C703.196 141.936 703.548 141.232 703.548 140.272C703.548 139.296 703.196 138.584 702.492 138.136C701.788 137.688 700.772 137.464 699.444 137.464H693.708V135.52H698.844C700.06 135.52 701.004 135.296 701.676 134.848C702.348 134.4 702.684 133.728 702.684 132.832C702.684 131.936 702.348 131.264 701.676 130.816C701.004 130.368 700.06 130.144 698.844 130.144H693.924V143.056ZM720.309 145.192C719.029 145.192 717.805 145 716.637 144.616C715.469 144.216 714.549 143.704 713.877 143.08L714.765 141.208C715.405 141.768 716.221 142.232 717.213 142.6C718.205 142.968 719.237 143.152 720.309 143.152C721.285 143.152 722.077 143.04 722.685 142.816C723.293 142.592 723.741 142.288 724.029 141.904C724.317 141.504 724.461 141.056 724.461 140.56C724.461 139.984 724.269 139.52 723.885 139.168C723.517 138.816 723.029 138.536 722.421 138.328C721.829 138.104 721.173 137.912 720.453 137.752C719.733 137.592 719.005 137.408 718.269 137.2C717.549 136.976 716.885 136.696 716.277 136.36C715.685 136.024 715.205 135.576 714.837 135.016C714.469 134.44 714.285 133.704 714.285 132.808C714.285 131.944 714.509 131.152 714.957 130.432C715.421 129.696 716.125 129.112 717.069 128.68C718.029 128.232 719.245 128.008 720.717 128.008C721.693 128.008 722.661 128.136 723.621 128.392C724.581 128.648 725.413 129.016 726.117 129.496L725.325 131.416C724.605 130.936 723.845 130.592 723.045 130.384C722.245 130.16 721.469 130.048 720.717 130.048C719.773 130.048 718.997 130.168 718.389 130.408C717.781 130.648 717.333 130.968 717.045 131.368C716.773 131.768 716.637 132.216 716.637 132.712C716.637 133.304 716.821 133.776 717.189 134.128C717.573 134.48 718.061 134.76 718.653 134.968C719.261 135.176 719.925 135.368 720.645 135.544C721.365 135.704 722.085 135.888 722.805 136.096C723.541 136.304 724.205 136.576 724.797 136.912C725.405 137.248 725.893 137.696 726.261 138.256C726.629 138.816 726.813 139.536 726.813 140.416C726.813 141.264 726.581 142.056 726.117 142.792C725.653 143.512 724.933 144.096 723.957 144.544C722.997 144.976 721.781 145.192 720.309 145.192ZM735.288 145.144C733.928 145.144 732.728 144.864 731.688 144.304C730.664 143.744 729.864 142.976 729.288 142C728.728 141.024 728.448 139.904 728.448 138.64C728.448 137.376 728.72 136.256 729.264 135.28C729.824 134.304 730.584 133.544 731.544 133C732.52 132.44 733.616 132.16 734.832 132.16C736.064 132.16 737.152 132.432 738.096 132.976C739.04 133.52 739.776 134.288 740.304 135.28C740.848 136.256 741.12 137.4 741.12 138.712C741.12 138.808 741.112 138.92 741.096 139.048C741.096 139.176 741.088 139.296 741.072 139.408H730.248V137.752H739.872L738.936 138.328C738.952 137.512 738.784 136.784 738.432 136.144C738.08 135.504 737.592 135.008 736.968 134.656C736.36 134.288 735.648 134.104 734.832 134.104C734.032 134.104 733.32 134.288 732.696 134.656C732.072 135.008 731.584 135.512 731.232 136.168C730.88 136.808 730.704 137.544 730.704 138.376V138.76C730.704 139.608 730.896 140.368 731.28 141.04C731.68 141.696 732.232 142.208 732.936 142.576C733.64 142.944 734.448 143.128 735.36 143.128C736.112 143.128 736.792 143 737.4 142.744C738.024 142.488 738.568 142.104 739.032 141.592L740.304 143.08C739.728 143.752 739.008 144.264 738.144 144.616C737.296 144.968 736.344 145.144 735.288 145.144ZM747.607 145.144C746.551 145.144 745.543 145 744.583 144.712C743.639 144.424 742.895 144.072 742.351 143.656L743.311 141.832C743.855 142.2 744.527 142.512 745.327 142.768C746.127 143.024 746.943 143.152 747.775 143.152C748.847 143.152 749.615 143 750.079 142.696C750.559 142.392 750.799 141.968 750.799 141.424C750.799 141.024 750.655 140.712 750.367 140.488C750.079 140.264 749.695 140.096 749.215 139.984C748.751 139.872 748.231 139.776 747.655 139.696C747.079 139.6 746.503 139.488 745.927 139.36C745.351 139.216 744.823 139.024 744.343 138.784C743.863 138.528 743.479 138.184 743.191 137.752C742.903 137.304 742.759 136.712 742.759 135.976C742.759 135.208 742.975 134.536 743.407 133.96C743.839 133.384 744.447 132.944 745.231 132.64C746.031 132.32 746.975 132.16 748.063 132.16C748.895 132.16 749.735 132.264 750.583 132.472C751.447 132.664 752.151 132.944 752.695 133.312L751.711 135.136C751.135 134.752 750.535 134.488 749.911 134.344C749.287 134.2 748.663 134.128 748.039 134.128C747.031 134.128 746.279 134.296 745.783 134.632C745.287 134.952 745.039 135.368 745.039 135.88C745.039 136.312 745.183 136.648 745.471 136.888C745.775 137.112 746.159 137.288 746.623 137.416C747.103 137.544 747.631 137.656 748.207 137.752C748.783 137.832 749.359 137.944 749.935 138.088C750.511 138.216 751.031 138.4 751.495 138.64C751.975 138.88 752.359 139.216 752.647 139.648C752.951 140.08 753.103 140.656 753.103 141.376C753.103 142.144 752.879 142.808 752.431 143.368C751.983 143.928 751.351 144.368 750.535 144.688C749.719 144.992 748.743 145.144 747.607 145.144ZM759.27 145.144C758.214 145.144 757.206 145 756.246 144.712C755.302 144.424 754.558 144.072 754.014 143.656L754.974 141.832C755.518 142.2 756.19 142.512 756.99 142.768C757.79 143.024 758.606 143.152 759.438 143.152C760.51 143.152 761.278 143 761.742 142.696C762.222 142.392 762.462 141.968 762.462 141.424C762.462 141.024 762.318 140.712 762.03 140.488C761.742 140.264 761.358 140.096 760.878 139.984C760.414 139.872 759.894 139.776 759.318 139.696C758.742 139.6 758.166 139.488 757.59 139.36C757.014 139.216 756.486 139.024 756.006 138.784C755.526 138.528 755.142 138.184 754.854 137.752C754.566 137.304 754.422 136.712 754.422 135.976C754.422 135.208 754.638 134.536 755.07 133.96C755.502 133.384 756.11 132.944 756.894 132.64C757.694 132.32 758.638 132.16 759.726 132.16C760.558 132.16 761.398 132.264 762.246 132.472C763.11 132.664 763.814 132.944 764.358 133.312L763.374 135.136C762.798 134.752 762.198 134.488 761.574 134.344C760.95 134.2 760.326 134.128 759.702 134.128C758.694 134.128 757.942 134.296 757.446 134.632C756.95 134.952 756.702 135.368 756.702 135.88C756.702 136.312 756.846 136.648 757.134 136.888C757.438 137.112 757.822 137.288 758.286 137.416C758.766 137.544 759.294 137.656 759.87 137.752C760.446 137.832 761.022 137.944 761.598 138.088C762.174 138.216 762.694 138.4 763.158 138.64C763.638 138.88 764.022 139.216 764.31 139.648C764.614 140.08 764.766 140.656 764.766 141.376C764.766 142.144 764.542 142.808 764.094 143.368C763.646 143.928 763.014 144.368 762.198 144.688C761.382 144.992 760.406 145.144 759.27 145.144ZM767.286 145V132.28H769.59V145H767.286ZM768.438 129.832C767.99 129.832 767.614 129.688 767.31 129.4C767.022 129.112 766.878 128.76 766.878 128.344C766.878 127.912 767.022 127.552 767.31 127.264C767.614 126.976 767.99 126.832 768.438 126.832C768.886 126.832 769.254 126.976 769.542 127.264C769.846 127.536 769.998 127.88 769.998 128.296C769.998 128.728 769.854 129.096 769.566 129.4C769.278 129.688 768.902 129.832 768.438 129.832ZM779.077 145.144C777.797 145.144 776.661 144.864 775.669 144.304C774.677 143.744 773.893 142.976 773.317 142C772.741 141.008 772.453 139.888 772.453 138.64C772.453 137.376 772.741 136.256 773.317 135.28C773.893 134.304 774.677 133.544 775.669 133C776.661 132.44 777.797 132.16 779.077 132.16C780.341 132.16 781.469 132.44 782.461 133C783.469 133.544 784.253 134.304 784.813 135.28C785.389 136.24 785.677 137.36 785.677 138.64C785.677 139.904 785.389 141.024 784.813 142C784.253 142.976 783.469 143.744 782.461 144.304C781.469 144.864 780.341 145.144 779.077 145.144ZM779.077 143.128C779.893 143.128 780.621 142.944 781.261 142.576C781.917 142.208 782.429 141.688 782.797 141.016C783.165 140.328 783.349 139.536 783.349 138.64C783.349 137.728 783.165 136.944 782.797 136.288C782.429 135.616 781.917 135.096 781.261 134.728C780.621 134.36 779.893 134.176 779.077 134.176C778.261 134.176 777.533 134.36 776.893 134.728C776.253 135.096 775.741 135.616 775.357 136.288C774.973 136.944 774.781 137.728 774.781 138.64C774.781 139.536 774.973 140.328 775.357 141.016C775.741 141.688 776.253 142.208 776.893 142.576C777.533 142.944 778.261 143.128 779.077 143.128ZM795.295 132.16C796.335 132.16 797.247 132.36 798.031 132.76C798.831 133.16 799.455 133.768 799.903 134.584C800.351 135.4 800.575 136.432 800.575 137.68V145H798.271V137.944C798.271 136.712 797.967 135.784 797.359 135.16C796.767 134.536 795.927 134.224 794.839 134.224C794.023 134.224 793.311 134.384 792.703 134.704C792.095 135.024 791.623 135.496 791.287 136.12C790.967 136.744 790.807 137.52 790.807 138.448V145H788.503V132.28H790.711V135.712L790.351 134.8C790.767 133.968 791.407 133.32 792.271 132.856C793.135 132.392 794.143 132.16 795.295 132.16Z" fill="#447DBF"/>
<path d="M329.576 203V196.568L330.128 198.056L322.904 186.2H325.472L331.544 196.208H330.152L336.248 186.2H338.624L331.424 198.056L331.952 196.568V203H329.576ZM344.381 203.144C343.101 203.144 341.965 202.864 340.973 202.304C339.981 201.744 339.197 200.976 338.621 200C338.045 199.008 337.757 197.888 337.757 196.64C337.757 195.376 338.045 194.256 338.621 193.28C339.197 192.304 339.981 191.544 340.973 191C341.965 190.44 343.101 190.16 344.381 190.16C345.645 190.16 346.773 190.44 347.765 191C348.773 191.544 349.557 192.304 350.117 193.28C350.693 194.24 350.981 195.36 350.981 196.64C350.981 197.904 350.693 199.024 350.117 200C349.557 200.976 348.773 201.744 347.765 202.304C346.773 202.864 345.645 203.144 344.381 203.144ZM344.381 201.128C345.197 201.128 345.925 200.944 346.565 200.576C347.221 200.208 347.733 199.688 348.101 199.016C348.469 198.328 348.653 197.536 348.653 196.64C348.653 195.728 348.469 194.944 348.101 194.288C347.733 193.616 347.221 193.096 346.565 192.728C345.925 192.36 345.197 192.176 344.381 192.176C343.565 192.176 342.837 192.36 342.197 192.728C341.557 193.096 341.045 193.616 340.661 194.288C340.277 194.944 340.085 195.728 340.085 196.64C340.085 197.536 340.277 198.328 340.661 199.016C341.045 199.688 341.557 200.208 342.197 200.576C342.837 200.944 343.565 201.128 344.381 201.128ZM359.16 203.144C358.072 203.144 357.112 202.944 356.28 202.544C355.464 202.144 354.824 201.536 354.36 200.72C353.912 199.888 353.688 198.848 353.688 197.6V190.28H355.992V197.336C355.992 198.584 356.288 199.52 356.88 200.144C357.488 200.768 358.336 201.08 359.424 201.08C360.224 201.08 360.92 200.92 361.512 200.6C362.104 200.264 362.56 199.784 362.88 199.16C363.2 198.52 363.36 197.752 363.36 196.856V190.28H365.664V203H363.48V199.568L363.84 200.48C363.424 201.328 362.8 201.984 361.968 202.448C361.136 202.912 360.2 203.144 359.16 203.144ZM369.69 203V190.28H371.898V193.736L371.682 192.872C372.034 191.992 372.626 191.32 373.458 190.856C374.29 190.392 375.314 190.16 376.53 190.16V192.392C376.434 192.376 376.338 192.368 376.242 192.368C376.162 192.368 376.082 192.368 376.002 192.368C374.77 192.368 373.794 192.736 373.074 193.472C372.354 194.208 371.994 195.272 371.994 196.664V203H369.69ZM389.627 203.144C388.347 203.144 387.355 202.8 386.651 202.112C385.947 201.424 385.595 200.44 385.595 199.16V187.496H387.899V199.064C387.899 199.752 388.067 200.28 388.403 200.648C388.755 201.016 389.251 201.2 389.891 201.2C390.611 201.2 391.211 201 391.691 200.6L392.411 202.256C392.059 202.56 391.635 202.784 391.139 202.928C390.659 203.072 390.155 203.144 389.627 203.144ZM383.435 192.176V190.28H391.547V192.176H383.435ZM394.836 203V190.28H397.14V203H394.836ZM395.988 187.832C395.54 187.832 395.164 187.688 394.86 187.4C394.572 187.112 394.428 186.76 394.428 186.344C394.428 185.912 394.572 185.552 394.86 185.264C395.164 184.976 395.54 184.832 395.988 184.832C396.436 184.832 396.804 184.976 397.092 185.264C397.396 185.536 397.548 185.88 397.548 186.296C397.548 186.728 397.404 187.096 397.116 187.4C396.828 187.688 396.452 187.832 395.988 187.832ZM417.092 190.16C418.116 190.16 419.02 190.36 419.804 190.76C420.588 191.16 421.196 191.768 421.628 192.584C422.076 193.4 422.3 194.432 422.3 195.68V203H419.996V195.944C419.996 194.712 419.708 193.784 419.132 193.16C418.556 192.536 417.748 192.224 416.708 192.224C415.94 192.224 415.268 192.384 414.692 192.704C414.116 193.024 413.668 193.496 413.348 194.12C413.044 194.744 412.892 195.52 412.892 196.448V203H410.588V195.944C410.588 194.712 410.3 193.784 409.724 193.16C409.164 192.536 408.356 192.224 407.3 192.224C406.548 192.224 405.884 192.384 405.308 192.704C404.732 193.024 404.284 193.496 403.964 194.12C403.644 194.744 403.484 195.52 403.484 196.448V203H401.18V190.28H403.388V193.664L403.028 192.8C403.428 191.968 404.044 191.32 404.876 190.856C405.708 190.392 406.676 190.16 407.78 190.16C408.996 190.16 410.044 190.464 410.924 191.072C411.804 191.664 412.38 192.568 412.652 193.784L411.716 193.4C412.1 192.424 412.772 191.64 413.732 191.048C414.692 190.456 415.812 190.16 417.092 190.16ZM431.843 203.144C430.483 203.144 429.283 202.864 428.243 202.304C427.219 201.744 426.419 200.976 425.843 200C425.283 199.024 425.003 197.904 425.003 196.64C425.003 195.376 425.275 194.256 425.819 193.28C426.379 192.304 427.139 191.544 428.099 191C429.075 190.44 430.171 190.16 431.387 190.16C432.619 190.16 433.707 190.432 434.651 190.976C435.595 191.52 436.331 192.288 436.859 193.28C437.403 194.256 437.675 195.4 437.675 196.712C437.675 196.808 437.667 196.92 437.651 197.048C437.651 197.176 437.643 197.296 437.627 197.408H426.803V195.752H436.427L435.491 196.328C435.507 195.512 435.339 194.784 434.987 194.144C434.635 193.504 434.147 193.008 433.523 192.656C432.915 192.288 432.203 192.104 431.387 192.104C430.587 192.104 429.875 192.288 429.251 192.656C428.627 193.008 428.139 193.512 427.787 194.168C427.435 194.808 427.259 195.544 427.259 196.376V196.76C427.259 197.608 427.451 198.368 427.835 199.04C428.235 199.696 428.787 200.208 429.491 200.576C430.195 200.944 431.003 201.128 431.915 201.128C432.667 201.128 433.347 201 433.955 200.744C434.579 200.488 435.123 200.104 435.587 199.592L436.859 201.08C436.283 201.752 435.563 202.264 434.699 202.616C433.851 202.968 432.899 203.144 431.843 203.144ZM446.936 203V189.152C446.936 187.904 447.296 186.912 448.016 186.176C448.752 185.424 449.792 185.048 451.136 185.048C451.632 185.048 452.104 185.112 452.552 185.24C453.016 185.352 453.408 185.536 453.728 185.792L453.032 187.544C452.792 187.352 452.52 187.208 452.216 187.112C451.912 187 451.592 186.944 451.256 186.944C450.584 186.944 450.072 187.136 449.72 187.52C449.368 187.888 449.192 188.44 449.192 189.176V190.88L449.24 191.936V203H446.936ZM444.776 192.176V190.28H452.888V192.176H444.776ZM459.961 203.144C458.681 203.144 457.545 202.864 456.553 202.304C455.561 201.744 454.777 200.976 454.201 200C453.625 199.008 453.337 197.888 453.337 196.64C453.337 195.376 453.625 194.256 454.201 193.28C454.777 192.304 455.561 191.544 456.553 191C457.545 190.44 458.681 190.16 459.961 190.16C461.225 190.16 462.353 190.44 463.345 191C464.353 191.544 465.137 192.304 465.697 193.28C466.273 194.24 466.561 195.36 466.561 196.64C466.561 197.904 466.273 199.024 465.697 200C465.137 200.976 464.353 201.744 463.345 202.304C462.353 202.864 461.225 203.144 459.961 203.144ZM459.961 201.128C460.777 201.128 461.505 200.944 462.145 200.576C462.801 200.208 463.313 199.688 463.681 199.016C464.049 198.328 464.233 197.536 464.233 196.64C464.233 195.728 464.049 194.944 463.681 194.288C463.313 193.616 462.801 193.096 462.145 192.728C461.505 192.36 460.777 192.176 459.961 192.176C459.145 192.176 458.417 192.36 457.777 192.728C457.137 193.096 456.625 193.616 456.241 194.288C455.857 194.944 455.665 195.728 455.665 196.64C455.665 197.536 455.857 198.328 456.241 199.016C456.625 199.688 457.137 200.208 457.777 200.576C458.417 200.944 459.145 201.128 459.961 201.128ZM469.387 203V190.28H471.595V193.736L471.379 192.872C471.731 191.992 472.323 191.32 473.155 190.856C473.987 190.392 475.011 190.16 476.227 190.16V192.392C476.131 192.376 476.035 192.368 475.939 192.368C475.859 192.368 475.779 192.368 475.699 192.368C474.467 192.368 473.491 192.736 472.771 193.472C472.051 194.208 471.691 195.272 471.691 196.664V203H469.387ZM485.293 203V186.2H487.261L494.797 198.896H493.741L501.181 186.2H503.149L503.173 203H500.869L500.845 189.824H501.397L494.773 200.96H493.669L486.997 189.824H487.597V203H485.293ZM515.414 203V200.312L515.294 199.808V195.224C515.294 194.248 515.006 193.496 514.43 192.968C513.87 192.424 513.022 192.152 511.886 192.152C511.134 192.152 510.398 192.28 509.678 192.536C508.958 192.776 508.35 193.104 507.854 193.52L506.894 191.792C507.55 191.264 508.334 190.864 509.246 190.592C510.174 190.304 511.142 190.16 512.15 190.16C513.894 190.16 515.238 190.584 516.182 191.432C517.126 192.28 517.598 193.576 517.598 195.32V203H515.414ZM511.238 203.144C510.294 203.144 509.462 202.984 508.742 202.664C508.038 202.344 507.494 201.904 507.11 201.344C506.726 200.768 506.534 200.12 506.534 199.4C506.534 198.712 506.694 198.088 507.014 197.528C507.35 196.968 507.886 196.52 508.622 196.184C509.374 195.848 510.382 195.68 511.646 195.68H515.678V197.336H511.742C510.59 197.336 509.814 197.528 509.414 197.912C509.014 198.296 508.814 198.76 508.814 199.304C508.814 199.928 509.062 200.432 509.558 200.816C510.054 201.184 510.742 201.368 511.622 201.368C512.486 201.368 513.238 201.176 513.878 200.792C514.534 200.408 515.006 199.848 515.294 199.112L515.75 200.696C515.446 201.448 514.91 202.048 514.142 202.496C513.374 202.928 512.406 203.144 511.238 203.144ZM525.87 203.144C524.59 203.144 523.598 202.8 522.894 202.112C522.19 201.424 521.838 200.44 521.838 199.16V187.496H524.142V199.064C524.142 199.752 524.31 200.28 524.646 200.648C524.998 201.016 525.494 201.2 526.134 201.2C526.854 201.2 527.454 201 527.934 200.6L528.654 202.256C528.302 202.56 527.878 202.784 527.382 202.928C526.902 203.072 526.398 203.144 525.87 203.144ZM519.678 192.176V190.28H527.79V192.176H519.678ZM531.08 203V185.192H533.384V203H531.08ZM545.319 203V200.312L545.199 199.808V195.224C545.199 194.248 544.911 193.496 544.335 192.968C543.775 192.424 542.927 192.152 541.791 192.152C541.039 192.152 540.303 192.28 539.583 192.536C538.863 192.776 538.255 193.104 537.759 193.52L536.799 191.792C537.455 191.264 538.239 190.864 539.151 190.592C540.079 190.304 541.047 190.16 542.055 190.16C543.799 190.16 545.143 190.584 546.087 191.432C547.031 192.28 547.503 193.576 547.503 195.32V203H545.319ZM541.143 203.144C540.199 203.144 539.367 202.984 538.647 202.664C537.943 202.344 537.399 201.904 537.015 201.344C536.631 200.768 536.439 200.12 536.439 199.4C536.439 198.712 536.599 198.088 536.919 197.528C537.255 196.968 537.791 196.52 538.527 196.184C539.279 195.848 540.287 195.68 541.551 195.68H545.583V197.336H541.647C540.495 197.336 539.719 197.528 539.319 197.912C538.919 198.296 538.719 198.76 538.719 199.304C538.719 199.928 538.967 200.432 539.463 200.816C539.959 201.184 540.647 201.368 541.527 201.368C542.391 201.368 543.143 201.176 543.783 200.792C544.439 200.408 544.911 199.848 545.199 199.112L545.655 200.696C545.351 201.448 544.815 202.048 544.047 202.496C543.279 202.928 542.311 203.144 541.143 203.144ZM558.151 203.144C557.063 203.144 556.079 202.904 555.199 202.424C554.335 201.928 553.647 201.2 553.135 200.24C552.639 199.28 552.391 198.08 552.391 196.64C552.391 195.2 552.647 194 553.159 193.04C553.687 192.08 554.383 191.36 555.247 190.88C556.127 190.4 557.095 190.16 558.151 190.16C559.399 190.16 560.503 190.432 561.463 190.976C562.423 191.52 563.183 192.28 563.743 193.256C564.303 194.216 564.583 195.344 564.583 196.64C564.583 197.936 564.303 199.072 563.743 200.048C563.183 201.024 562.423 201.784 561.463 202.328C560.503 202.872 559.399 203.144 558.151 203.144ZM551.407 203V185.192H553.711V193.664L553.471 196.616L553.615 199.568V203H551.407ZM557.959 201.128C558.775 201.128 559.503 200.944 560.143 200.576C560.799 200.208 561.311 199.688 561.679 199.016C562.063 198.328 562.255 197.536 562.255 196.64C562.255 195.728 562.063 194.944 561.679 194.288C561.311 193.616 560.799 193.096 560.143 192.728C559.503 192.36 558.775 192.176 557.959 192.176C557.159 192.176 556.431 192.36 555.775 192.728C555.135 193.096 554.623 193.616 554.239 194.288C553.871 194.944 553.687 195.728 553.687 196.64C553.687 197.536 553.871 198.328 554.239 199.016C554.623 199.688 555.135 200.208 555.775 200.576C556.431 200.944 557.159 201.128 557.959 201.128ZM577.139 203.144C576.083 203.144 575.075 203 574.115 202.712C573.171 202.424 572.427 202.072 571.883 201.656L572.843 199.832C573.387 200.2 574.059 200.512 574.859 200.768C575.659 201.024 576.475 201.152 577.307 201.152C578.379 201.152 579.147 201 579.611 200.696C580.091 200.392 580.331 199.968 580.331 199.424C580.331 199.024 580.187 198.712 579.899 198.488C579.611 198.264 579.227 198.096 578.747 197.984C578.283 197.872 577.763 197.776 577.187 197.696C576.611 197.6 576.035 197.488 575.459 197.36C574.883 197.216 574.355 197.024 573.875 196.784C573.395 196.528 573.011 196.184 572.723 195.752C572.435 195.304 572.291 194.712 572.291 193.976C572.291 193.208 572.507 192.536 572.939 191.96C573.371 191.384 573.979 190.944 574.763 190.64C575.563 190.32 576.507 190.16 577.595 190.16C578.427 190.16 579.267 190.264 580.115 190.472C580.979 190.664 581.683 190.944 582.227 191.312L581.243 193.136C580.667 192.752 580.067 192.488 579.443 192.344C578.819 192.2 578.195 192.128 577.571 192.128C576.563 192.128 575.811 192.296 575.315 192.632C574.819 192.952 574.571 193.368 574.571 193.88C574.571 194.312 574.715 194.648 575.003 194.888C575.307 195.112 575.691 195.288 576.155 195.416C576.635 195.544 577.163 195.656 577.739 195.752C578.315 195.832 578.891 195.944 579.467 196.088C580.043 196.216 580.563 196.4 581.027 196.64C581.507 196.88 581.891 197.216 582.179 197.648C582.483 198.08 582.635 198.656 582.635 199.376C582.635 200.144 582.411 200.808 581.963 201.368C581.515 201.928 580.883 202.368 580.067 202.688C579.251 202.992 578.275 203.144 577.139 203.144ZM589.523 203.144C588.243 203.144 587.251 202.8 586.547 202.112C585.843 201.424 585.491 200.44 585.491 199.16V187.496H587.795V199.064C587.795 199.752 587.963 200.28 588.299 200.648C588.651 201.016 589.147 201.2 589.787 201.2C590.507 201.2 591.107 201 591.587 200.6L592.307 202.256C591.955 202.56 591.531 202.784 591.035 202.928C590.555 203.072 590.051 203.144 589.523 203.144ZM583.331 192.176V190.28H591.443V192.176H583.331ZM602.628 203V200.312L602.508 199.808V195.224C602.508 194.248 602.22 193.496 601.644 192.968C601.084 192.424 600.236 192.152 599.1 192.152C598.348 192.152 597.612 192.28 596.892 192.536C596.172 192.776 595.564 193.104 595.068 193.52L594.108 191.792C594.764 191.264 595.548 190.864 596.46 190.592C597.388 190.304 598.356 190.16 599.364 190.16C601.108 190.16 602.452 190.584 603.396 191.432C604.34 192.28 604.812 193.576 604.812 195.32V203H602.628ZM598.452 203.144C597.508 203.144 596.676 202.984 595.956 202.664C595.252 202.344 594.708 201.904 594.324 201.344C593.94 200.768 593.748 200.12 593.748 199.4C593.748 198.712 593.908 198.088 594.228 197.528C594.564 196.968 595.1 196.52 595.836 196.184C596.588 195.848 597.596 195.68 598.86 195.68H602.892V197.336H598.956C597.804 197.336 597.028 197.528 596.628 197.912C596.228 198.296 596.028 198.76 596.028 199.304C596.028 199.928 596.276 200.432 596.772 200.816C597.268 201.184 597.956 201.368 598.836 201.368C599.7 201.368 600.452 201.176 601.092 200.792C601.748 200.408 602.22 199.848 602.508 199.112L602.964 200.696C602.66 201.448 602.124 202.048 601.356 202.496C600.588 202.928 599.62 203.144 598.452 203.144ZM608.716 203V190.28H610.924V193.736L610.708 192.872C611.06 191.992 611.652 191.32 612.484 190.856C613.316 190.392 614.34 190.16 615.556 190.16V192.392C615.46 192.376 615.364 192.368 615.268 192.368C615.188 192.368 615.108 192.368 615.028 192.368C613.796 192.368 612.82 192.736 612.1 193.472C611.38 194.208 611.02 195.272 611.02 196.664V203H608.716ZM622.919 203.144C621.639 203.144 620.647 202.8 619.943 202.112C619.239 201.424 618.887 200.44 618.887 199.16V187.496H621.191V199.064C621.191 199.752 621.359 200.28 621.695 200.648C622.047 201.016 622.543 201.2 623.183 201.2C623.903 201.2 624.503 201 624.983 200.6L625.703 202.256C625.351 202.56 624.927 202.784 624.431 202.928C623.951 203.072 623.447 203.144 622.919 203.144ZM616.727 192.176V190.28H624.839V192.176H616.727ZM631.777 203.144C630.721 203.144 629.713 203 628.753 202.712C627.809 202.424 627.065 202.072 626.521 201.656L627.481 199.832C628.025 200.2 628.697 200.512 629.497 200.768C630.297 201.024 631.113 201.152 631.945 201.152C633.017 201.152 633.785 201 634.249 200.696C634.729 200.392 634.969 199.968 634.969 199.424C634.969 199.024 634.825 198.712 634.537 198.488C634.249 198.264 633.865 198.096 633.385 197.984C632.921 197.872 632.401 197.776 631.825 197.696C631.249 197.6 630.673 197.488 630.097 197.36C629.521 197.216 628.993 197.024 628.513 196.784C628.033 196.528 627.649 196.184 627.361 195.752C627.073 195.304 626.929 194.712 626.929 193.976C626.929 193.208 627.145 192.536 627.577 191.96C628.009 191.384 628.617 190.944 629.401 190.64C630.201 190.32 631.145 190.16 632.233 190.16C633.065 190.16 633.905 190.264 634.753 190.472C635.617 190.664 636.321 190.944 636.865 191.312L635.881 193.136C635.305 192.752 634.705 192.488 634.081 192.344C633.457 192.2 632.833 192.128 632.209 192.128C631.201 192.128 630.449 192.296 629.953 192.632C629.457 192.952 629.209 193.368 629.209 193.88C629.209 194.312 629.353 194.648 629.641 194.888C629.945 195.112 630.329 195.288 630.793 195.416C631.273 195.544 631.801 195.656 632.377 195.752C632.953 195.832 633.529 195.944 634.105 196.088C634.681 196.216 635.201 196.4 635.665 196.64C636.145 196.88 636.529 197.216 636.817 197.648C637.121 198.08 637.273 198.656 637.273 199.376C637.273 200.144 637.049 200.808 636.601 201.368C636.153 201.928 635.521 202.368 634.705 202.688C633.889 202.992 632.913 203.144 631.777 203.144ZM640.344 203.144C639.896 203.144 639.512 202.992 639.192 202.688C638.872 202.368 638.712 201.968 638.712 201.488C638.712 201.008 638.872 200.616 639.192 200.312C639.512 200.008 639.896 199.856 640.344 199.856C640.776 199.856 641.144 200.008 641.448 200.312C641.768 200.616 641.928 201.008 641.928 201.488C641.928 201.968 641.768 202.368 641.448 202.688C641.144 202.992 640.776 203.144 640.344 203.144ZM326.984 235V219.16L328.016 220.288H323.192V218.2H329.36V235H326.984ZM340.499 222.16C341.539 222.16 342.451 222.36 343.235 222.76C344.035 223.16 344.659 223.768 345.107 224.584C345.555 225.4 345.779 226.432 345.779 227.68V235H343.475V227.944C343.475 226.712 343.171 225.784 342.563 225.16C341.971 224.536 341.131 224.224 340.043 224.224C339.227 224.224 338.515 224.384 337.907 224.704C337.299 225.024 336.827 225.496 336.491 226.12C336.171 226.744 336.011 227.52 336.011 228.448V235H333.707V217.192H336.011V225.712L335.555 224.8C335.971 223.968 336.611 223.32 337.475 222.856C338.339 222.392 339.347 222.16 340.499 222.16ZM349.683 235V222.28H351.891V225.736L351.675 224.872C352.027 223.992 352.619 223.32 353.451 222.856C354.283 222.392 355.307 222.16 356.523 222.16V224.392C356.427 224.376 356.331 224.368 356.235 224.368C356.155 224.368 356.075 224.368 355.995 224.368C354.763 224.368 353.787 224.736 353.067 225.472C352.347 226.208 351.987 227.272 351.987 228.664V235H349.683ZM369.356 235.192C368.172 235.192 367.02 235.008 365.9 234.64C364.796 234.272 363.892 233.776 363.188 233.152L364.292 231.256C364.852 231.784 365.58 232.216 366.476 232.552C367.372 232.888 368.332 233.056 369.356 233.056C370.604 233.056 371.572 232.792 372.26 232.264C372.964 231.72 373.316 230.992 373.316 230.08C373.316 229.2 372.98 228.496 372.308 227.968C371.652 227.424 370.604 227.152 369.164 227.152H367.82V225.472L372.812 219.328L373.148 220.288H363.956V218.2H375.044V219.832L370.076 225.952L368.828 225.208H369.62C371.652 225.208 373.172 225.664 374.18 226.576C375.204 227.488 375.716 228.648 375.716 230.056C375.716 231 375.484 231.864 375.02 232.648C374.556 233.432 373.852 234.056 372.908 234.52C371.98 234.968 370.796 235.192 369.356 235.192ZM384.458 235.192C383.146 235.192 381.97 234.856 380.93 234.184C379.906 233.512 379.09 232.536 378.482 231.256C377.89 229.976 377.594 228.424 377.594 226.6C377.594 224.776 377.89 223.224 378.482 221.944C379.09 220.664 379.906 219.688 380.93 219.016C381.97 218.344 383.146 218.008 384.458 218.008C385.754 218.008 386.922 218.344 387.962 219.016C389.002 219.688 389.818 220.664 390.41 221.944C391.002 223.224 391.298 224.776 391.298 226.6C391.298 228.424 391.002 229.976 390.41 231.256C389.818 232.536 389.002 233.512 387.962 234.184C386.922 234.856 385.754 235.192 384.458 235.192ZM384.458 233.056C385.338 233.056 386.106 232.816 386.762 232.336C387.434 231.856 387.954 231.136 388.322 230.176C388.706 229.216 388.898 228.024 388.898 226.6C388.898 225.176 388.706 223.984 388.322 223.024C387.954 222.064 387.434 221.344 386.762 220.864C386.106 220.384 385.338 220.144 384.458 220.144C383.578 220.144 382.802 220.384 382.13 220.864C381.458 221.344 380.93 222.064 380.546 223.024C380.178 223.984 379.994 225.176 379.994 226.6C379.994 228.024 380.178 229.216 380.546 230.176C380.93 231.136 381.458 231.856 382.13 232.336C382.802 232.816 383.578 233.056 384.458 233.056ZM400.695 235V218.2H402.663L410.199 230.896H409.143L416.583 218.2H418.551L418.575 235H416.271L416.247 221.824H416.799L410.175 232.96H409.071L402.399 221.824H402.999V235H400.695ZM422.921 235V222.28H425.225V235H422.921ZM424.073 219.832C423.625 219.832 423.249 219.688 422.945 219.4C422.657 219.112 422.513 218.76 422.513 218.344C422.513 217.912 422.657 217.552 422.945 217.264C423.249 216.976 423.625 216.832 424.073 216.832C424.521 216.832 424.889 216.976 425.177 217.264C425.481 217.536 425.633 217.88 425.633 218.296C425.633 218.728 425.489 219.096 425.201 219.4C424.913 219.688 424.537 219.832 424.073 219.832ZM436.056 222.16C437.096 222.16 438.008 222.36 438.792 222.76C439.592 223.16 440.216 223.768 440.664 224.584C441.112 225.4 441.336 226.432 441.336 227.68V235H439.032V227.944C439.032 226.712 438.728 225.784 438.12 225.16C437.528 224.536 436.688 224.224 435.6 224.224C434.784 224.224 434.072 224.384 433.464 224.704C432.856 225.024 432.384 225.496 432.048 226.12C431.728 226.744 431.568 227.52 431.568 228.448V235H429.264V222.28H431.472V225.712L431.112 224.8C431.528 223.968 432.168 223.32 433.032 222.856C433.896 222.392 434.904 222.16 436.056 222.16ZM448.888 235.144C447.832 235.144 446.824 235 445.864 234.712C444.92 234.424 444.176 234.072 443.632 233.656L444.592 231.832C445.136 232.2 445.808 232.512 446.608 232.768C447.408 233.024 448.224 233.152 449.056 233.152C450.128 233.152 450.896 233 451.36 232.696C451.84 232.392 452.08 231.968 452.08 231.424C452.08 231.024 451.936 230.712 451.648 230.488C451.36 230.264 450.976 230.096 450.496 229.984C450.032 229.872 449.512 229.776 448.936 229.696C448.36 229.6 447.784 229.488 447.208 229.36C446.632 229.216 446.104 229.024 445.624 228.784C445.144 228.528 444.76 228.184 444.472 227.752C444.184 227.304 444.04 226.712 444.04 225.976C444.04 225.208 444.256 224.536 444.688 223.96C445.12 223.384 445.728 222.944 446.512 222.64C447.312 222.32 448.256 222.16 449.344 222.16C450.176 222.16 451.016 222.264 451.864 222.472C452.728 222.664 453.432 222.944 453.976 223.312L452.992 225.136C452.416 224.752 451.816 224.488 451.192 224.344C450.568 224.2 449.944 224.128 449.32 224.128C448.312 224.128 447.56 224.296 447.064 224.632C446.568 224.952 446.32 225.368 446.32 225.88C446.32 226.312 446.464 226.648 446.752 226.888C447.056 227.112 447.44 227.288 447.904 227.416C448.384 227.544 448.912 227.656 449.488 227.752C450.064 227.832 450.64 227.944 451.216 228.088C451.792 228.216 452.312 228.4 452.776 228.64C453.256 228.88 453.64 229.216 453.928 229.648C454.232 230.08 454.384 230.656 454.384 231.376C454.384 232.144 454.16 232.808 453.712 233.368C453.264 233.928 452.632 234.368 451.816 234.688C451 234.992 450.024 235.144 448.888 235.144Z" fill="#2F2E41"/>
<defs>
<filter id="filter0_d_279_67" x="0" y="0" width="853" height="326" filterUnits="userSpaceOnUse" color-interpolation-filters="sRGB">
<feFlood flood-opacity="0" result="BackgroundImageFix"/>
<feColorMatrix in="SourceAlpha" type="matrix" values="0 0 0 0 0 0 0 0 0 0 0 0 0 0 0 0 0 0 127 0" result="hardAlpha"/>
<feOffset dy="4"/>
<feGaussianBlur stdDeviation="12"/>
<feComposite in2="hardAlpha" operator="out"/>
<feColorMatrix type="matrix" values="0 0 0 0 0 0 0 0 0 0 0 0 0 0 0 0 0 0 0.25 0"/>
<feBlend mode="normal" in2="BackgroundImageFix" result="effect1_dropShadow_279_67"/>
<feBlend mode="normal" in="SourceGraphic" in2="effect1_dropShadow_279_67" result="shape"/>
</filter>
<linearGradient id="paint0_linear_279_67" x1="166.5" y1="41" x2="166.5" y2="278" gradientUnits="userSpaceOnUse">
<stop stop-color="#FFB7B7"/>
<stop offset="1" stop-color="#6379C6"/>
</linearGradient>
<linearGradient id="paint1_linear_279_67" x1="163.539" y1="117.817" x2="177.075" y2="160.519" gradientUnits="userSpaceOnUse">
<stop stop-color="#4ADDDF"/>
<stop offset="0.699" stop-color="#3F5352"/>
<stop offset="0.863" stop-color="#442729"/>
</linearGradient>
<linearGradient id="paint2_linear_279_67" x1="92.292" y1="170.984" x2="213.343" y2="170.984" gradientUnits="userSpaceOnUse">
<stop stop-color="#4ADDDF"/>
<stop offset="0.792" stop-color="#3F5352"/>
<stop offset="1" stop-color="#442729"/>
</linearGradient>
<linearGradient id="paint3_linear_279_67" x1="125.208" y1="161" x2="243.708" y2="161" gradientUnits="userSpaceOnUse">
<stop offset="0.206" stop-color="#53140F"/>
<stop offset="0.3" stop-color="#84360F"/>
<stop offset="0.413" stop-color="#B85B10"/>
<stop offset="0.511" stop-color="#DF7610"/>
<stop offset="0.59" stop-color="#F68710"/>
<stop offset="0.639" stop-color="#FF8D10"/>
<stop offset="0.729" stop-color="#FD8A10"/>
<stop offset="0.8" stop-color="#F58010"/>
<stop offset="0.865" stop-color="#E86F10"/>
<stop offset="0.925" stop-color="#D65811"/>
<stop offset="0.982" stop-color="#C03A11"/>
<stop offset="1" stop-color="#B72F11"/>
</linearGradient>
</defs>
</svg>
