<svg width="87" height="87" viewBox="0 0 87 87" fill="none" xmlns="http://www.w3.org/2000/svg">
<rect width="87" height="87" rx="18" fill="url(#paint0_linear_35_3)"/>
<path d="M40.3748 47.625L31.9165 40.375C31.9165 40.375 33.1248 38.5625 34.9373 36.75C36.7498 34.9375 38.2433 34.5122 40.3748 33.125C44.6173 30.3652 48.229 18.625 53.6665 18.625L40.3748 47.625Z" fill="url(#paint1_linear_35_3)"/>
<path d="M28.2918 54.9548L16.2085 46.4167L31.9168 40.375L40.7099 46.9785L31.9168 53.7464L28.2918 54.9548Z" fill="url(#paint2_linear_35_3)"/>
<path d="M53.6665 18.625C59.7082 18.625 69.3748 51.25 71.7915 59.7083C71.7915 59.7083 63.3126 51.6971 58.4998 52.4583C53.687 53.2196 51.8903 60.3705 46.7488 65.4552C43.3957 68.7708 40.3748 69.375 40.3748 69.375C40.3748 69.375 40.1259 59.5585 34.3332 56.0833C31.3123 54.2708 28.2915 54.875 28.2915 54.875C28.2915 54.875 35.6007 51.3696 39.7393 44.9981C43.8778 38.6265 49.4373 18.625 53.6665 18.625Z" fill="url(#paint3_linear_35_3)"/>
<defs>
<linearGradient id="paint0_linear_35_3" x1="43.5" y1="0" x2="43.5" y2="87" gradientUnits="userSpaceOnUse">
<stop stop-color="#FFB7B7"/>
<stop offset="1" stop-color="#6379C6"/>
</linearGradient>
<linearGradient id="paint1_linear_35_3" x1="42.3625" y1="28.1479" x2="47.3312" y2="43.8236" gradientUnits="userSpaceOnUse">
<stop stop-color="#4ADDDF"/>
<stop offset="0.699" stop-color="#3F5352"/>
<stop offset="0.863" stop-color="#442729"/>
</linearGradient>
<linearGradient id="paint2_linear_35_3" x1="16.2085" y1="47.6649" x2="60.645" y2="47.6649" gradientUnits="userSpaceOnUse">
<stop stop-color="#4ADDDF"/>
<stop offset="0.792" stop-color="#3F5352"/>
<stop offset="1" stop-color="#442729"/>
</linearGradient>
<linearGradient id="paint3_linear_35_3" x1="28.2915" y1="44" x2="71.7915" y2="44" gradientUnits="userSpaceOnUse">
<stop offset="0.206" stop-color="#53140F"/>
<stop offset="0.3" stop-color="#84360F"/>
<stop offset="0.413" stop-color="#B85B10"/>
<stop offset="0.511" stop-color="#DF7610"/>
<stop offset="0.59" stop-color="#F68710"/>
<stop offset="0.639" stop-color="#FF8D10"/>
<stop offset="0.729" stop-color="#FD8A10"/>
<stop offset="0.8" stop-color="#F58010"/>
<stop offset="0.865" stop-color="#E86F10"/>
<stop offset="0.925" stop-color="#D65811"/>
<stop offset="0.982" stop-color="#C03A11"/>
<stop offset="1" stop-color="#B72F11"/>
</linearGradient>
</defs>
</svg>
