<svg width="87" height="87" viewBox="0 0 87 87" fill="none" xmlns="http://www.w3.org/2000/svg">
<rect width="87" height="87" rx="18" fill="url(#paint0_linear_39_9)"/>
<path d="M58.3588 23.8704C60.5858 24.4854 62.1252 26.4888 62.1252 28.7714V59.1755C62.1252 61.4785 60.5531 63.4892 58.2972 64.0873L44.3506 68.0011L48.8335 58.5V28.2917L45.0297 19.9723L58.3588 23.8704Z" fill="url(#paint1_linear_39_9)"/>
<path d="M48.8332 57.2917V62.0368C48.8332 66.6321 44.2126 69.5877 40.352 67.4634L31.971 62.0924C31.0019 61.5293 30.4775 60.3258 30.8061 59.1235C31.1118 58.0046 32.1607 57.2917 33.2639 57.2917H48.8332Z" fill="url(#paint2_linear_39_9)"/>
<path d="M41.5179 20.4689L27.1098 28.6686C25.5993 29.529 24.6665 31.1324 24.6665 32.87V55.1384C24.6665 56.7781 26.4295 57.8149 27.8625 57.0161L33.2662 54.0062C33.9248 53.6401 34.3332 52.9441 34.3332 52.1901V36.4394C34.3332 34.8601 35.2757 33.4428 36.7051 32.8761L48.8332 28.6638V24.9301C48.8332 21.0586 44.8082 18.6044 41.5179 20.4689Z" fill="url(#paint3_linear_39_9)"/>
<defs>
<linearGradient id="paint0_linear_39_9" x1="43.5" y1="0" x2="43.5" y2="87" gradientUnits="userSpaceOnUse">
<stop stop-color="#FFB7B7"/>
<stop offset="1" stop-color="#6379C6"/>
</linearGradient>
<linearGradient id="paint1_linear_39_9" x1="53.2379" y1="23.2638" x2="53.2379" y2="64.0765" gradientUnits="userSpaceOnUse">
<stop stop-color="#E68E00"/>
<stop offset="0.036" stop-color="#E38400"/>
<stop offset="0.171" stop-color="#DB6200"/>
<stop offset="0.299" stop-color="#D44A00"/>
<stop offset="0.417" stop-color="#D03B00"/>
<stop offset="0.515" stop-color="#CF3600"/>
<stop offset="0.878" stop-color="#D22900"/>
<stop offset="1" stop-color="#D42400"/>
</linearGradient>
<linearGradient id="paint2_linear_39_9" x1="31.8223" y1="57.2325" x2="50.1032" y2="64.6299" gradientUnits="userSpaceOnUse">
<stop stop-color="#F52537"/>
<stop offset="0.293" stop-color="#F32536"/>
<stop offset="0.465" stop-color="#EA2434"/>
<stop offset="0.605" stop-color="#DC2231"/>
<stop offset="0.729" stop-color="#C8202C"/>
<stop offset="0.841" stop-color="#AE1E25"/>
<stop offset="0.944" stop-color="#8F1A1D"/>
<stop offset="1" stop-color="#7A1818"/>
</linearGradient>
<linearGradient id="paint3_linear_39_9" x1="21.5031" y1="54.0158" x2="46.2643" y2="17.1508" gradientUnits="userSpaceOnUse">
<stop stop-color="#D96AB1"/>
<stop offset="0.137" stop-color="#D9538B"/>
<stop offset="0.495" stop-color="#D91A2A"/>
<stop offset="0.575" stop-color="#D31A29"/>
<stop offset="0.68" stop-color="#C21926"/>
<stop offset="0.8" stop-color="#A71821"/>
<stop offset="0.929" stop-color="#811619"/>
<stop offset="1" stop-color="#691515"/>
</linearGradient>
</defs>
</svg>
