<svg width="853" height="326" viewBox="0 0 853 326" fill="none" xmlns="http://www.w3.org/2000/svg">
<g filter="url(#filter0_d_280_97)">
<rect x="24" y="20" width="805" height="278" rx="21" fill="white"/>
</g>
<rect x="48" y="41" width="237" height="237" rx="18" fill="url(#paint0_linear_280_97)"/>
<path d="M328.36 84V61.6H330.984L341.032 78.528H339.624L349.544 61.6H352.168L352.2 84H349.128L349.096 66.432H349.832L341 81.28H339.528L330.632 66.432H331.432V84H328.36ZM364.971 84.256C363.264 84.256 361.632 84 360.075 83.488C358.517 82.9547 357.291 82.272 356.395 81.44L357.579 78.944C358.432 79.6907 359.52 80.3093 360.843 80.8C362.165 81.2907 363.541 81.536 364.971 81.536C366.272 81.536 367.328 81.3867 368.139 81.088C368.949 80.7893 369.547 80.384 369.931 79.872C370.315 79.3387 370.507 78.7413 370.507 78.08C370.507 77.312 370.251 76.6933 369.739 76.224C369.248 75.7547 368.597 75.3813 367.787 75.104C366.997 74.8053 366.123 74.5493 365.163 74.336C364.203 74.1227 363.232 73.8773 362.251 73.6C361.291 73.3013 360.405 72.928 359.595 72.48C358.805 72.032 358.165 71.4347 357.675 70.688C357.184 69.92 356.939 68.9387 356.939 67.744C356.939 66.592 357.237 65.536 357.835 64.576C358.453 63.5947 359.392 62.816 360.651 62.24C361.931 61.6427 363.552 61.344 365.515 61.344C366.816 61.344 368.107 61.5147 369.387 61.856C370.667 62.1973 371.776 62.688 372.715 63.328L371.659 65.888C370.699 65.248 369.685 64.7893 368.619 64.512C367.552 64.2133 366.517 64.064 365.515 64.064C364.256 64.064 363.221 64.224 362.411 64.544C361.6 64.864 361.003 65.2907 360.619 65.824C360.256 66.3573 360.075 66.9547 360.075 67.616C360.075 68.4053 360.32 69.0347 360.811 69.504C361.323 69.9733 361.973 70.3467 362.763 70.624C363.573 70.9013 364.459 71.1573 365.419 71.392C366.379 71.6053 367.339 71.8507 368.299 72.128C369.28 72.4053 370.165 72.768 370.955 73.216C371.765 73.664 372.416 74.2613 372.907 75.008C373.397 75.7547 373.643 76.7147 373.643 77.888C373.643 79.0187 373.333 80.0747 372.715 81.056C372.096 82.016 371.136 82.7947 369.835 83.392C368.555 83.968 366.933 84.256 364.971 84.256ZM396.063 84.256C394.357 84.256 392.767 83.968 391.295 83.392C389.845 82.816 388.586 82.016 387.519 80.992C386.453 79.9467 385.621 78.7307 385.023 77.344C384.426 75.9573 384.127 74.4427 384.127 72.8C384.127 71.1573 384.426 69.6427 385.023 68.256C385.621 66.8693 386.453 65.664 387.519 64.64C388.586 63.5947 389.845 62.784 391.295 62.208C392.746 61.632 394.335 61.344 396.063 61.344C397.77 61.344 399.338 61.632 400.767 62.208C402.218 62.7627 403.477 63.5627 404.543 64.608C405.631 65.632 406.463 66.8373 407.039 68.224C407.637 69.6107 407.935 71.136 407.935 72.8C407.935 74.464 407.637 75.9893 407.039 77.376C406.463 78.7627 405.631 79.9787 404.543 81.024C403.477 82.048 402.218 82.848 400.767 83.424C399.338 83.9787 397.77 84.256 396.063 84.256ZM396.063 81.408C397.301 81.408 398.442 81.1947 399.487 80.768C400.554 80.3413 401.471 79.744 402.239 78.976C403.029 78.1867 403.637 77.2693 404.063 76.224C404.511 75.1787 404.735 74.0373 404.735 72.8C404.735 71.5627 404.511 70.4213 404.063 69.376C403.637 68.3307 403.029 67.424 402.239 66.656C401.471 65.8667 400.554 65.2587 399.487 64.832C398.442 64.4053 397.301 64.192 396.063 64.192C394.805 64.192 393.642 64.4053 392.575 64.832C391.53 65.2587 390.613 65.8667 389.823 66.656C389.034 67.424 388.415 68.3307 387.967 69.376C387.541 70.4213 387.327 71.5627 387.327 72.8C387.327 74.0373 387.541 75.1787 387.967 76.224C388.415 77.2693 389.034 78.1867 389.823 78.976C390.613 79.744 391.53 80.3413 392.575 80.768C393.642 81.1947 394.805 81.408 396.063 81.408ZM415.226 72.192H426.778V74.944H415.226V72.192ZM415.546 84H412.346V61.6H428.154V64.384H415.546V84ZM435.059 72.192H446.611V74.944H435.059V72.192ZM435.379 84H432.179V61.6H447.987V64.384H435.379V84ZM452.011 84V61.6H455.211V84H452.011ZM471.453 84.256C469.747 84.256 468.168 83.9787 466.717 83.424C465.288 82.848 464.04 82.048 462.973 81.024C461.928 79.9787 461.107 78.7627 460.509 77.376C459.912 75.9893 459.613 74.464 459.613 72.8C459.613 71.136 459.912 69.6107 460.509 68.224C461.107 66.8373 461.939 65.632 463.005 64.608C464.072 63.5627 465.32 62.7627 466.75 62.208C468.2 61.632 469.779 61.344 471.486 61.344C473.213 61.344 474.803 61.6427 476.253 62.24C477.726 62.816 478.974 63.68 479.998 64.832L477.917 66.848C477.064 65.952 476.104 65.2907 475.038 64.864C473.971 64.416 472.829 64.192 471.613 64.192C470.355 64.192 469.182 64.4053 468.094 64.832C467.027 65.2587 466.099 65.856 465.309 66.624C464.52 67.392 463.901 68.3093 463.453 69.376C463.027 70.4213 462.813 71.5627 462.813 72.8C462.813 74.0373 463.027 75.1893 463.453 76.256C463.901 77.3013 464.52 78.208 465.309 78.976C466.099 79.744 467.027 80.3413 468.094 80.768C469.182 81.1947 470.355 81.408 471.613 81.408C472.829 81.408 473.971 81.1947 475.038 80.768C476.104 80.32 477.064 79.6373 477.917 78.72L479.998 80.736C478.974 81.888 477.726 82.7627 476.253 83.36C474.803 83.9573 473.203 84.256 471.453 84.256ZM486.995 71.264H498.515V73.984H486.995V71.264ZM487.283 81.216H500.339V84H484.083V61.6H499.891V64.384H487.283V81.216ZM519.682 84.256C517.975 84.256 516.343 84 514.786 83.488C513.228 82.9547 512.002 82.272 511.106 81.44L512.29 78.944C513.143 79.6907 514.231 80.3093 515.554 80.8C516.876 81.2907 518.252 81.536 519.682 81.536C520.983 81.536 522.039 81.3867 522.85 81.088C523.66 80.7893 524.258 80.384 524.642 79.872C525.026 79.3387 525.218 78.7413 525.218 78.08C525.218 77.312 524.962 76.6933 524.45 76.224C523.959 75.7547 523.308 75.3813 522.498 75.104C521.708 74.8053 520.834 74.5493 519.874 74.336C518.914 74.1227 517.943 73.8773 516.962 73.6C516.002 73.3013 515.116 72.928 514.306 72.48C513.516 72.032 512.876 71.4347 512.386 70.688C511.895 69.92 511.65 68.9387 511.65 67.744C511.65 66.592 511.948 65.536 512.546 64.576C513.164 63.5947 514.103 62.816 515.362 62.24C516.642 61.6427 518.263 61.344 520.226 61.344C521.527 61.344 522.818 61.5147 524.098 61.856C525.378 62.1973 526.487 62.688 527.426 63.328L526.37 65.888C525.41 65.248 524.396 64.7893 523.33 64.512C522.263 64.2133 521.228 64.064 520.226 64.064C518.967 64.064 517.932 64.224 517.122 64.544C516.311 64.864 515.714 65.2907 515.33 65.824C514.967 66.3573 514.786 66.9547 514.786 67.616C514.786 68.4053 515.031 69.0347 515.522 69.504C516.034 69.9733 516.684 70.3467 517.474 70.624C518.284 70.9013 519.17 71.1573 520.13 71.392C521.09 71.6053 522.05 71.8507 523.01 72.128C523.991 72.4053 524.876 72.768 525.666 73.216C526.476 73.664 527.127 74.2613 527.618 75.008C528.108 75.7547 528.354 76.7147 528.354 77.888C528.354 79.0187 528.044 80.0747 527.426 81.056C526.807 82.016 525.847 82.7947 524.546 83.392C523.266 83.968 521.644 84.256 519.682 84.256ZM541.829 84.256C538.885 84.256 536.57 83.4133 534.885 81.728C533.199 80.0427 532.357 77.5787 532.357 74.336V61.6H535.557V74.208C535.557 76.704 536.101 78.528 537.189 79.68C538.298 80.832 539.855 81.408 541.861 81.408C543.887 81.408 545.445 80.832 546.533 79.68C547.642 78.528 548.197 76.704 548.197 74.208V61.6H551.301V74.336C551.301 77.5787 550.458 80.0427 548.773 81.728C547.109 83.4133 544.794 84.256 541.829 84.256ZM557.381 84V61.6H560.581V84H557.381ZM571.255 84V64.384H563.575V61.6H582.103V64.384H574.423V84H571.255Z" fill="#2F2E41"/>
<path d="M331.576 129V122.568L332.128 124.056L324.904 112.2H327.472L333.544 122.208H332.152L338.248 112.2H340.624L333.424 124.056L333.952 122.568V129H331.576ZM346.381 129.144C345.101 129.144 343.965 128.864 342.973 128.304C341.981 127.744 341.197 126.976 340.621 126C340.045 125.008 339.757 123.888 339.757 122.64C339.757 121.376 340.045 120.256 340.621 119.28C341.197 118.304 341.981 117.544 342.973 117C343.965 116.44 345.101 116.16 346.381 116.16C347.645 116.16 348.773 116.44 349.765 117C350.773 117.544 351.557 118.304 352.117 119.28C352.693 120.24 352.981 121.36 352.981 122.64C352.981 123.904 352.693 125.024 352.117 126C351.557 126.976 350.773 127.744 349.765 128.304C348.773 128.864 347.645 129.144 346.381 129.144ZM346.381 127.128C347.197 127.128 347.925 126.944 348.565 126.576C349.221 126.208 349.733 125.688 350.101 125.016C350.469 124.328 350.653 123.536 350.653 122.64C350.653 121.728 350.469 120.944 350.101 120.288C349.733 119.616 349.221 119.096 348.565 118.728C347.925 118.36 347.197 118.176 346.381 118.176C345.565 118.176 344.837 118.36 344.197 118.728C343.557 119.096 343.045 119.616 342.661 120.288C342.277 120.944 342.085 121.728 342.085 122.64C342.085 123.536 342.277 124.328 342.661 125.016C343.045 125.688 343.557 126.208 344.197 126.576C344.837 126.944 345.565 127.128 346.381 127.128ZM361.16 129.144C360.072 129.144 359.112 128.944 358.28 128.544C357.464 128.144 356.824 127.536 356.36 126.72C355.912 125.888 355.688 124.848 355.688 123.6V116.28H357.992V123.336C357.992 124.584 358.288 125.52 358.88 126.144C359.488 126.768 360.336 127.08 361.424 127.08C362.224 127.08 362.92 126.92 363.512 126.6C364.104 126.264 364.56 125.784 364.88 125.16C365.2 124.52 365.36 123.752 365.36 122.856V116.28H367.664V129H365.48V125.568L365.84 126.48C365.424 127.328 364.8 127.984 363.968 128.448C363.136 128.912 362.2 129.144 361.16 129.144ZM381.423 129.144C380.367 129.144 379.359 129 378.399 128.712C377.455 128.424 376.711 128.072 376.167 127.656L377.127 125.832C377.671 126.2 378.343 126.512 379.143 126.768C379.943 127.024 380.759 127.152 381.591 127.152C382.663 127.152 383.431 127 383.895 126.696C384.375 126.392 384.615 125.968 384.615 125.424C384.615 125.024 384.471 124.712 384.183 124.488C383.895 124.264 383.511 124.096 383.031 123.984C382.567 123.872 382.047 123.776 381.471 123.696C380.895 123.6 380.319 123.488 379.743 123.36C379.167 123.216 378.639 123.024 378.159 122.784C377.679 122.528 377.295 122.184 377.007 121.752C376.719 121.304 376.575 120.712 376.575 119.976C376.575 119.208 376.791 118.536 377.223 117.96C377.655 117.384 378.263 116.944 379.047 116.64C379.847 116.32 380.791 116.16 381.879 116.16C382.711 116.16 383.551 116.264 384.399 116.472C385.263 116.664 385.967 116.944 386.511 117.312L385.527 119.136C384.951 118.752 384.351 118.488 383.727 118.344C383.103 118.2 382.479 118.128 381.855 118.128C380.847 118.128 380.095 118.296 379.599 118.632C379.103 118.952 378.855 119.368 378.855 119.88C378.855 120.312 378.999 120.648 379.287 120.888C379.591 121.112 379.975 121.288 380.439 121.416C380.919 121.544 381.447 121.656 382.023 121.752C382.599 121.832 383.175 121.944 383.751 122.088C384.327 122.216 384.847 122.4 385.311 122.64C385.791 122.88 386.175 123.216 386.463 123.648C386.767 124.08 386.919 124.656 386.919 125.376C386.919 126.144 386.695 126.808 386.247 127.368C385.799 127.928 385.167 128.368 384.351 128.688C383.535 128.992 382.559 129.144 381.423 129.144ZM395.103 129.144C393.743 129.144 392.543 128.864 391.503 128.304C390.479 127.744 389.679 126.976 389.103 126C388.543 125.024 388.263 123.904 388.263 122.64C388.263 121.376 388.535 120.256 389.079 119.28C389.639 118.304 390.399 117.544 391.359 117C392.335 116.44 393.431 116.16 394.647 116.16C395.879 116.16 396.967 116.432 397.911 116.976C398.855 117.52 399.591 118.288 400.119 119.28C400.663 120.256 400.935 121.4 400.935 122.712C400.935 122.808 400.927 122.92 400.911 123.048C400.911 123.176 400.903 123.296 400.887 123.408H390.063V121.752H399.687L398.751 122.328C398.767 121.512 398.599 120.784 398.247 120.144C397.895 119.504 397.407 119.008 396.783 118.656C396.175 118.288 395.463 118.104 394.647 118.104C393.847 118.104 393.135 118.288 392.511 118.656C391.887 119.008 391.399 119.512 391.047 120.168C390.695 120.808 390.519 121.544 390.519 122.376V122.76C390.519 123.608 390.711 124.368 391.095 125.04C391.495 125.696 392.047 126.208 392.751 126.576C393.455 126.944 394.263 127.128 395.175 127.128C395.927 127.128 396.607 127 397.215 126.744C397.839 126.488 398.383 126.104 398.847 125.592L400.119 127.08C399.543 127.752 398.823 128.264 397.959 128.616C397.111 128.968 396.159 129.144 395.103 129.144ZM403.774 129V111.192H406.078V129H403.774ZM415.781 129.144C414.421 129.144 413.221 128.864 412.181 128.304C411.157 127.744 410.357 126.976 409.781 126C409.221 125.024 408.941 123.904 408.941 122.64C408.941 121.376 409.213 120.256 409.757 119.28C410.317 118.304 411.077 117.544 412.037 117C413.013 116.44 414.109 116.16 415.325 116.16C416.557 116.16 417.645 116.432 418.589 116.976C419.533 117.52 420.269 118.288 420.797 119.28C421.341 120.256 421.613 121.4 421.613 122.712C421.613 122.808 421.605 122.92 421.589 123.048C421.589 123.176 421.581 123.296 421.565 123.408H410.741V121.752H420.365L419.429 122.328C419.445 121.512 419.277 120.784 418.925 120.144C418.573 119.504 418.085 119.008 417.461 118.656C416.853 118.288 416.141 118.104 415.325 118.104C414.525 118.104 413.813 118.288 413.189 118.656C412.565 119.008 412.077 119.512 411.725 120.168C411.373 120.808 411.197 121.544 411.197 122.376V122.76C411.197 123.608 411.389 124.368 411.773 125.04C412.173 125.696 412.725 126.208 413.429 126.576C414.133 126.944 414.941 127.128 415.853 127.128C416.605 127.128 417.285 127 417.893 126.744C418.517 126.488 419.061 126.104 419.525 125.592L420.797 127.08C420.221 127.752 419.501 128.264 418.637 128.616C417.789 128.968 416.837 129.144 415.781 129.144ZM429.996 129.144C428.7 129.144 427.54 128.864 426.516 128.304C425.508 127.744 424.716 126.976 424.14 126C423.564 125.024 423.276 123.904 423.276 122.64C423.276 121.376 423.564 120.256 424.14 119.28C424.716 118.304 425.508 117.544 426.516 117C427.54 116.44 428.7 116.16 429.996 116.16C431.148 116.16 432.172 116.392 433.068 116.856C433.98 117.304 434.684 117.976 435.18 118.872L433.428 120C433.012 119.376 432.5 118.92 431.892 118.632C431.3 118.328 430.66 118.176 429.972 118.176C429.14 118.176 428.396 118.36 427.74 118.728C427.084 119.096 426.564 119.616 426.18 120.288C425.796 120.944 425.604 121.728 425.604 122.64C425.604 123.552 425.796 124.344 426.18 125.016C426.564 125.688 427.084 126.208 427.74 126.576C428.396 126.944 429.14 127.128 429.972 127.128C430.66 127.128 431.3 126.984 431.892 126.696C432.5 126.392 433.012 125.928 433.428 125.304L435.18 126.408C434.684 127.288 433.98 127.968 433.068 128.448C432.172 128.912 431.148 129.144 429.996 129.144ZM442.335 129.144C441.055 129.144 440.063 128.8 439.359 128.112C438.655 127.424 438.303 126.44 438.303 125.16V113.496H440.607V125.064C440.607 125.752 440.775 126.28 441.111 126.648C441.463 127.016 441.959 127.2 442.599 127.2C443.319 127.2 443.919 127 444.399 126.6L445.119 128.256C444.767 128.56 444.343 128.784 443.847 128.928C443.367 129.072 442.863 129.144 442.335 129.144ZM436.143 118.176V116.28H444.255V118.176H436.143ZM452.787 129.144C451.427 129.144 450.227 128.864 449.187 128.304C448.163 127.744 447.363 126.976 446.787 126C446.227 125.024 445.947 123.904 445.947 122.64C445.947 121.376 446.219 120.256 446.763 119.28C447.323 118.304 448.083 117.544 449.043 117C450.019 116.44 451.115 116.16 452.331 116.16C453.563 116.16 454.651 116.432 455.595 116.976C456.539 117.52 457.275 118.288 457.803 119.28C458.347 120.256 458.619 121.4 458.619 122.712C458.619 122.808 458.611 122.92 458.595 123.048C458.595 123.176 458.587 123.296 458.571 123.408H447.747V121.752H457.371L456.435 122.328C456.451 121.512 456.283 120.784 455.931 120.144C455.579 119.504 455.091 119.008 454.467 118.656C453.859 118.288 453.147 118.104 452.331 118.104C451.531 118.104 450.819 118.288 450.195 118.656C449.571 119.008 449.083 119.512 448.731 120.168C448.379 120.808 448.203 121.544 448.203 122.376V122.76C448.203 123.608 448.395 124.368 448.779 125.04C449.179 125.696 449.731 126.208 450.435 126.576C451.139 126.944 451.947 127.128 452.859 127.128C453.611 127.128 454.291 127 454.899 126.744C455.523 126.488 456.067 126.104 456.531 125.592L457.803 127.08C457.227 127.752 456.507 128.264 455.643 128.616C454.795 128.968 453.843 129.144 452.787 129.144ZM466.714 129.144C465.482 129.144 464.378 128.872 463.402 128.328C462.442 127.784 461.682 127.024 461.122 126.048C460.562 125.072 460.282 123.936 460.282 122.64C460.282 121.344 460.562 120.216 461.122 119.256C461.682 118.28 462.442 117.52 463.402 116.976C464.378 116.432 465.482 116.16 466.714 116.16C467.786 116.16 468.754 116.4 469.618 116.88C470.482 117.36 471.17 118.08 471.682 119.04C472.21 120 472.474 121.2 472.474 122.64C472.474 124.08 472.218 125.28 471.706 126.24C471.21 127.2 470.53 127.928 469.666 128.424C468.802 128.904 467.818 129.144 466.714 129.144ZM466.906 127.128C467.706 127.128 468.426 126.944 469.066 126.576C469.722 126.208 470.234 125.688 470.602 125.016C470.986 124.328 471.178 123.536 471.178 122.64C471.178 121.728 470.986 120.944 470.602 120.288C470.234 119.616 469.722 119.096 469.066 118.728C468.426 118.36 467.706 118.176 466.906 118.176C466.09 118.176 465.362 118.36 464.722 118.728C464.082 119.096 463.57 119.616 463.186 120.288C462.802 120.944 462.61 121.728 462.61 122.64C462.61 123.536 462.802 124.328 463.186 125.016C463.57 125.688 464.082 126.208 464.722 126.576C465.362 126.944 466.09 127.128 466.906 127.128ZM471.25 129V125.568L471.394 122.616L471.154 119.664V111.192H473.458V129H471.25ZM483.879 129V112.2H485.847L493.383 124.896H492.327L499.767 112.2H501.735L501.759 129H499.455L499.431 115.824H499.983L493.359 126.96H492.255L485.583 115.824H486.183V129H483.879ZM511.337 129.192C510.057 129.192 508.833 129 507.665 128.616C506.497 128.216 505.577 127.704 504.905 127.08L505.793 125.208C506.433 125.768 507.249 126.232 508.241 126.6C509.233 126.968 510.265 127.152 511.337 127.152C512.313 127.152 513.105 127.04 513.713 126.816C514.321 126.592 514.769 126.288 515.057 125.904C515.345 125.504 515.489 125.056 515.489 124.56C515.489 123.984 515.297 123.52 514.913 123.168C514.545 122.816 514.057 122.536 513.449 122.328C512.857 122.104 512.201 121.912 511.481 121.752C510.761 121.592 510.033 121.408 509.297 121.2C508.577 120.976 507.913 120.696 507.305 120.36C506.713 120.024 506.233 119.576 505.865 119.016C505.497 118.44 505.313 117.704 505.313 116.808C505.313 115.944 505.537 115.152 505.985 114.432C506.449 113.696 507.153 113.112 508.097 112.68C509.057 112.232 510.273 112.008 511.745 112.008C512.721 112.008 513.689 112.136 514.649 112.392C515.609 112.648 516.441 113.016 517.145 113.496L516.353 115.416C515.633 114.936 514.873 114.592 514.073 114.384C513.273 114.16 512.497 114.048 511.745 114.048C510.801 114.048 510.025 114.168 509.417 114.408C508.809 114.648 508.361 114.968 508.073 115.368C507.801 115.768 507.665 116.216 507.665 116.712C507.665 117.304 507.849 117.776 508.217 118.128C508.601 118.48 509.089 118.76 509.681 118.968C510.289 119.176 510.953 119.368 511.673 119.544C512.393 119.704 513.113 119.888 513.833 120.096C514.569 120.304 515.233 120.576 515.825 120.912C516.433 121.248 516.921 121.696 517.289 122.256C517.657 122.816 517.841 123.536 517.841 124.416C517.841 125.264 517.609 126.056 517.145 126.792C516.681 127.512 515.961 128.096 514.985 128.544C514.025 128.976 512.809 129.192 511.337 129.192ZM534.657 129.192C533.377 129.192 532.185 128.976 531.081 128.544C529.993 128.112 529.049 127.512 528.249 126.744C527.449 125.96 526.825 125.048 526.377 124.008C525.929 122.968 525.705 121.832 525.705 120.6C525.705 119.368 525.929 118.232 526.377 117.192C526.825 116.152 527.449 115.248 528.249 114.48C529.049 113.696 529.993 113.088 531.081 112.656C532.169 112.224 533.361 112.008 534.657 112.008C535.937 112.008 537.113 112.224 538.185 112.656C539.273 113.072 540.217 113.672 541.017 114.456C541.833 115.224 542.457 116.128 542.889 117.168C543.337 118.208 543.561 119.352 543.561 120.6C543.561 121.848 543.337 122.992 542.889 124.032C542.457 125.072 541.833 125.984 541.017 126.768C540.217 127.536 539.273 128.136 538.185 128.568C537.113 128.984 535.937 129.192 534.657 129.192ZM534.657 127.056C535.585 127.056 536.441 126.896 537.225 126.576C538.025 126.256 538.713 125.808 539.289 125.232C539.881 124.64 540.337 123.952 540.657 123.168C540.993 122.384 541.161 121.528 541.161 120.6C541.161 119.672 540.993 118.816 540.657 118.032C540.337 117.248 539.881 116.568 539.289 115.992C538.713 115.4 538.025 114.944 537.225 114.624C536.441 114.304 535.585 114.144 534.657 114.144C533.713 114.144 532.841 114.304 532.041 114.624C531.257 114.944 530.569 115.4 529.977 115.992C529.385 116.568 528.921 117.248 528.585 118.032C528.265 118.816 528.105 119.672 528.105 120.6C528.105 121.528 528.265 122.384 528.585 123.168C528.921 123.952 529.385 124.64 529.977 125.232C530.569 125.808 531.257 126.256 532.041 126.576C532.841 126.896 533.713 127.056 534.657 127.056ZM546.869 129V115.152C546.869 113.904 547.229 112.912 547.949 112.176C548.685 111.424 549.725 111.048 551.069 111.048C551.565 111.048 552.037 111.112 552.485 111.24C552.949 111.352 553.341 111.536 553.661 111.792L552.965 113.544C552.725 113.352 552.453 113.208 552.149 113.112C551.845 113 551.525 112.944 551.189 112.944C550.517 112.944 550.005 113.136 549.653 113.52C549.301 113.888 549.125 114.44 549.125 115.176V116.88L549.173 117.936V129H546.869ZM544.709 118.176V116.28H552.821V118.176H544.709ZM554.97 129V115.152C554.97 113.904 555.33 112.912 556.05 112.176C556.786 111.424 557.826 111.048 559.17 111.048C559.666 111.048 560.138 111.112 560.586 111.24C561.05 111.352 561.442 111.536 561.762 111.792L561.066 113.544C560.826 113.352 560.554 113.208 560.25 113.112C559.946 113 559.626 112.944 559.29 112.944C558.618 112.944 558.106 113.136 557.754 113.52C557.402 113.888 557.226 114.44 557.226 115.176V116.88L557.274 117.936V129H554.97ZM552.81 118.176V116.28H560.922V118.176H552.81ZM563.106 129V116.28H565.41V129H563.106ZM564.258 113.832C563.81 113.832 563.434 113.688 563.13 113.4C562.842 113.112 562.698 112.76 562.698 112.344C562.698 111.912 562.842 111.552 563.13 111.264C563.434 110.976 563.81 110.832 564.258 110.832C564.706 110.832 565.074 110.976 565.362 111.264C565.666 111.536 565.818 111.88 565.818 112.296C565.818 112.728 565.674 113.096 565.386 113.4C565.098 113.688 564.722 113.832 564.258 113.832ZM574.982 129.144C573.686 129.144 572.526 128.864 571.502 128.304C570.494 127.744 569.702 126.976 569.126 126C568.55 125.024 568.262 123.904 568.262 122.64C568.262 121.376 568.55 120.256 569.126 119.28C569.702 118.304 570.494 117.544 571.502 117C572.526 116.44 573.686 116.16 574.982 116.16C576.134 116.16 577.158 116.392 578.054 116.856C578.966 117.304 579.67 117.976 580.166 118.872L578.414 120C577.998 119.376 577.486 118.92 576.878 118.632C576.286 118.328 575.646 118.176 574.958 118.176C574.126 118.176 573.382 118.36 572.726 118.728C572.07 119.096 571.55 119.616 571.166 120.288C570.782 120.944 570.59 121.728 570.59 122.64C570.59 123.552 570.782 124.344 571.166 125.016C571.55 125.688 572.07 126.208 572.726 126.576C573.382 126.944 574.126 127.128 574.958 127.128C575.646 127.128 576.286 126.984 576.878 126.696C577.486 126.392 577.998 125.928 578.414 125.304L580.166 126.408C579.67 127.288 578.966 127.968 578.054 128.448C577.158 128.912 576.134 129.144 574.982 129.144ZM588.265 129.144C586.905 129.144 585.705 128.864 584.665 128.304C583.641 127.744 582.841 126.976 582.265 126C581.705 125.024 581.425 123.904 581.425 122.64C581.425 121.376 581.697 120.256 582.241 119.28C582.801 118.304 583.561 117.544 584.521 117C585.497 116.44 586.593 116.16 587.809 116.16C589.041 116.16 590.129 116.432 591.073 116.976C592.017 117.52 592.753 118.288 593.281 119.28C593.825 120.256 594.097 121.4 594.097 122.712C594.097 122.808 594.089 122.92 594.073 123.048C594.073 123.176 594.065 123.296 594.049 123.408H583.225V121.752H592.849L591.913 122.328C591.929 121.512 591.761 120.784 591.409 120.144C591.057 119.504 590.569 119.008 589.945 118.656C589.337 118.288 588.625 118.104 587.809 118.104C587.009 118.104 586.297 118.288 585.673 118.656C585.049 119.008 584.561 119.512 584.209 120.168C583.857 120.808 583.681 121.544 583.681 122.376V122.76C583.681 123.608 583.873 124.368 584.257 125.04C584.657 125.696 585.209 126.208 585.913 126.576C586.617 126.944 587.425 127.128 588.337 127.128C589.089 127.128 589.769 127 590.377 126.744C591.001 126.488 591.545 126.104 592.009 125.592L593.281 127.08C592.705 127.752 591.985 128.264 591.121 128.616C590.273 128.968 589.321 129.144 588.265 129.144ZM603.358 129V115.152C603.358 113.904 603.718 112.912 604.438 112.176C605.174 111.424 606.214 111.048 607.558 111.048C608.054 111.048 608.526 111.112 608.974 111.24C609.438 111.352 609.83 111.536 610.15 111.792L609.454 113.544C609.214 113.352 608.942 113.208 608.638 113.112C608.334 113 608.014 112.944 607.678 112.944C607.006 112.944 606.494 113.136 606.142 113.52C605.79 113.888 605.614 114.44 605.614 115.176V116.88L605.662 117.936V129H603.358ZM601.198 118.176V116.28H609.31V118.176H601.198ZM616.383 129.144C615.103 129.144 613.967 128.864 612.975 128.304C611.983 127.744 611.199 126.976 610.623 126C610.047 125.008 609.759 123.888 609.759 122.64C609.759 121.376 610.047 120.256 610.623 119.28C611.199 118.304 611.983 117.544 612.975 117C613.967 116.44 615.103 116.16 616.383 116.16C617.647 116.16 618.775 116.44 619.767 117C620.775 117.544 621.559 118.304 622.119 119.28C622.695 120.24 622.983 121.36 622.983 122.64C622.983 123.904 622.695 125.024 622.119 126C621.559 126.976 620.775 127.744 619.767 128.304C618.775 128.864 617.647 129.144 616.383 129.144ZM616.383 127.128C617.199 127.128 617.927 126.944 618.567 126.576C619.223 126.208 619.735 125.688 620.103 125.016C620.471 124.328 620.655 123.536 620.655 122.64C620.655 121.728 620.471 120.944 620.103 120.288C619.735 119.616 619.223 119.096 618.567 118.728C617.927 118.36 617.199 118.176 616.383 118.176C615.567 118.176 614.839 118.36 614.199 118.728C613.559 119.096 613.047 119.616 612.663 120.288C612.279 120.944 612.087 121.728 612.087 122.64C612.087 123.536 612.279 124.328 612.663 125.016C613.047 125.688 613.559 126.208 614.199 126.576C614.839 126.944 615.567 127.128 616.383 127.128ZM625.81 129V116.28H628.018V119.736L627.802 118.872C628.154 117.992 628.746 117.32 629.578 116.856C630.41 116.392 631.434 116.16 632.65 116.16V118.392C632.554 118.376 632.458 118.368 632.362 118.368C632.282 118.368 632.202 118.368 632.122 118.368C630.89 118.368 629.914 118.736 629.194 119.472C628.474 120.208 628.114 121.272 628.114 122.664V129H625.81ZM645.747 129.144C644.467 129.144 643.475 128.8 642.771 128.112C642.067 127.424 641.715 126.44 641.715 125.16V113.496H644.019V125.064C644.019 125.752 644.187 126.28 644.523 126.648C644.875 127.016 645.371 127.2 646.011 127.2C646.731 127.2 647.331 127 647.811 126.6L648.531 128.256C648.179 128.56 647.755 128.784 647.259 128.928C646.779 129.072 646.275 129.144 645.747 129.144ZM639.555 118.176V116.28H647.667V118.176H639.555ZM657.748 116.16C658.788 116.16 659.7 116.36 660.484 116.76C661.284 117.16 661.908 117.768 662.356 118.584C662.804 119.4 663.028 120.432 663.028 121.68V129H660.724V121.944C660.724 120.712 660.42 119.784 659.812 119.16C659.22 118.536 658.38 118.224 657.292 118.224C656.476 118.224 655.764 118.384 655.156 118.704C654.548 119.024 654.076 119.496 653.74 120.12C653.42 120.744 653.26 121.52 653.26 122.448V129H650.956V111.192H653.26V119.712L652.804 118.8C653.22 117.968 653.86 117.32 654.724 116.856C655.588 116.392 656.596 116.16 657.748 116.16ZM666.932 129V116.28H669.236V129H666.932ZM668.084 113.832C667.636 113.832 667.26 113.688 666.956 113.4C666.668 113.112 666.524 112.76 666.524 112.344C666.524 111.912 666.668 111.552 666.956 111.264C667.26 110.976 667.636 110.832 668.084 110.832C668.532 110.832 668.9 110.976 669.188 111.264C669.492 111.536 669.644 111.88 669.644 112.296C669.644 112.728 669.5 113.096 669.212 113.4C668.924 113.688 668.548 113.832 668.084 113.832ZM676.923 129.144C675.867 129.144 674.859 129 673.899 128.712C672.955 128.424 672.211 128.072 671.667 127.656L672.627 125.832C673.171 126.2 673.843 126.512 674.643 126.768C675.443 127.024 676.259 127.152 677.091 127.152C678.163 127.152 678.931 127 679.395 126.696C679.875 126.392 680.115 125.968 680.115 125.424C680.115 125.024 679.971 124.712 679.683 124.488C679.395 124.264 679.011 124.096 678.531 123.984C678.067 123.872 677.547 123.776 676.971 123.696C676.395 123.6 675.819 123.488 675.243 123.36C674.667 123.216 674.139 123.024 673.659 122.784C673.179 122.528 672.795 122.184 672.507 121.752C672.219 121.304 672.075 120.712 672.075 119.976C672.075 119.208 672.291 118.536 672.723 117.96C673.155 117.384 673.763 116.944 674.547 116.64C675.347 116.32 676.291 116.16 677.379 116.16C678.211 116.16 679.051 116.264 679.899 116.472C680.763 116.664 681.467 116.944 682.011 117.312L681.027 119.136C680.451 118.752 679.851 118.488 679.227 118.344C678.603 118.2 677.979 118.128 677.355 118.128C676.347 118.128 675.595 118.296 675.099 118.632C674.603 118.952 674.355 119.368 674.355 119.88C674.355 120.312 674.499 120.648 674.787 120.888C675.091 121.112 675.475 121.288 675.939 121.416C676.419 121.544 676.947 121.656 677.523 121.752C678.099 121.832 678.675 121.944 679.251 122.088C679.827 122.216 680.347 122.4 680.811 122.64C681.291 122.88 681.675 123.216 681.963 123.648C682.267 124.08 682.419 124.656 682.419 125.376C682.419 126.144 682.195 126.808 681.747 127.368C681.299 127.928 680.667 128.368 679.851 128.688C679.035 128.992 678.059 129.144 676.923 129.144ZM691.36 129V112.2H693.76V126.912H702.856V129H691.36ZM702.706 129L710.314 112.2H712.69L720.322 129H717.802L711.01 113.544H711.97L705.178 129H702.706ZM705.946 124.8L706.594 122.88H716.05L716.746 124.8H705.946ZM722.468 129V112.2H730.004C731.94 112.2 733.428 112.592 734.468 113.376C735.508 114.144 736.028 115.2 736.028 116.544C736.028 117.456 735.82 118.224 735.404 118.848C735.004 119.472 734.46 119.952 733.772 120.288C733.084 120.624 732.34 120.792 731.54 120.792L731.972 120.072C732.932 120.072 733.78 120.24 734.516 120.576C735.252 120.912 735.836 121.408 736.268 122.064C736.7 122.704 736.916 123.504 736.916 124.464C736.916 125.904 736.372 127.024 735.284 127.824C734.212 128.608 732.612 129 730.484 129H722.468ZM724.868 127.056H730.388C731.716 127.056 732.732 126.832 733.436 126.384C734.14 125.936 734.492 125.232 734.492 124.272C734.492 123.296 734.14 122.584 733.436 122.136C732.732 121.688 731.716 121.464 730.388 121.464H724.652V119.52H729.788C731.004 119.52 731.948 119.296 732.62 118.848C733.292 118.4 733.628 117.728 733.628 116.832C733.628 115.936 733.292 115.264 732.62 114.816C731.948 114.368 731.004 114.144 729.788 114.144H724.868V127.056ZM332.416 161.192C331.136 161.192 329.912 161 328.744 160.616C327.576 160.216 326.656 159.704 325.984 159.08L326.872 157.208C327.512 157.768 328.328 158.232 329.32 158.6C330.312 158.968 331.344 159.152 332.416 159.152C333.392 159.152 334.184 159.04 334.792 158.816C335.4 158.592 335.848 158.288 336.136 157.904C336.424 157.504 336.568 157.056 336.568 156.56C336.568 155.984 336.376 155.52 335.992 155.168C335.624 154.816 335.136 154.536 334.528 154.328C333.936 154.104 333.28 153.912 332.56 153.752C331.84 153.592 331.112 153.408 330.376 153.2C329.656 152.976 328.992 152.696 328.384 152.36C327.792 152.024 327.312 151.576 326.944 151.016C326.576 150.44 326.392 149.704 326.392 148.808C326.392 147.944 326.616 147.152 327.064 146.432C327.528 145.696 328.232 145.112 329.176 144.68C330.136 144.232 331.352 144.008 332.824 144.008C333.8 144.008 334.768 144.136 335.728 144.392C336.688 144.648 337.52 145.016 338.224 145.496L337.432 147.416C336.712 146.936 335.952 146.592 335.152 146.384C334.352 146.16 333.576 146.048 332.824 146.048C331.88 146.048 331.104 146.168 330.496 146.408C329.888 146.648 329.44 146.968 329.152 147.368C328.88 147.768 328.744 148.216 328.744 148.712C328.744 149.304 328.928 149.776 329.296 150.128C329.68 150.48 330.168 150.76 330.76 150.968C331.368 151.176 332.032 151.368 332.752 151.544C333.472 151.704 334.192 151.888 334.912 152.096C335.648 152.304 336.312 152.576 336.904 152.912C337.512 153.248 338 153.696 338.368 154.256C338.736 154.816 338.92 155.536 338.92 156.416C338.92 157.264 338.688 158.056 338.224 158.792C337.76 159.512 337.04 160.096 336.064 160.544C335.104 160.976 333.888 161.192 332.416 161.192ZM347.394 161.144C346.034 161.144 344.834 160.864 343.794 160.304C342.77 159.744 341.97 158.976 341.394 158C340.834 157.024 340.554 155.904 340.554 154.64C340.554 153.376 340.826 152.256 341.37 151.28C341.93 150.304 342.69 149.544 343.65 149C344.626 148.44 345.722 148.16 346.938 148.16C348.17 148.16 349.258 148.432 350.202 148.976C351.146 149.52 351.882 150.288 352.41 151.28C352.954 152.256 353.226 153.4 353.226 154.712C353.226 154.808 353.218 154.92 353.202 155.048C353.202 155.176 353.194 155.296 353.178 155.408H342.354V153.752H351.978L351.042 154.328C351.058 153.512 350.89 152.784 350.538 152.144C350.186 151.504 349.698 151.008 349.074 150.656C348.466 150.288 347.754 150.104 346.938 150.104C346.138 150.104 345.426 150.288 344.802 150.656C344.178 151.008 343.69 151.512 343.338 152.168C342.986 152.808 342.81 153.544 342.81 154.376V154.76C342.81 155.608 343.002 156.368 343.386 157.04C343.786 157.696 344.338 158.208 345.042 158.576C345.746 158.944 346.554 159.128 347.466 159.128C348.218 159.128 348.898 159 349.506 158.744C350.13 158.488 350.674 158.104 351.138 157.592L352.41 159.08C351.834 159.752 351.114 160.264 350.25 160.616C349.402 160.968 348.45 161.144 347.394 161.144ZM359.714 161.144C358.658 161.144 357.65 161 356.69 160.712C355.746 160.424 355.002 160.072 354.458 159.656L355.418 157.832C355.962 158.2 356.634 158.512 357.434 158.768C358.234 159.024 359.05 159.152 359.882 159.152C360.954 159.152 361.722 159 362.186 158.696C362.666 158.392 362.906 157.968 362.906 157.424C362.906 157.024 362.762 156.712 362.474 156.488C362.186 156.264 361.802 156.096 361.322 155.984C360.858 155.872 360.338 155.776 359.762 155.696C359.186 155.6 358.61 155.488 358.034 155.36C357.458 155.216 356.93 155.024 356.45 154.784C355.97 154.528 355.586 154.184 355.298 153.752C355.01 153.304 354.866 152.712 354.866 151.976C354.866 151.208 355.082 150.536 355.514 149.96C355.946 149.384 356.554 148.944 357.338 148.64C358.138 148.32 359.082 148.16 360.17 148.16C361.002 148.16 361.842 148.264 362.69 148.472C363.554 148.664 364.258 148.944 364.802 149.312L363.818 151.136C363.242 150.752 362.642 150.488 362.018 150.344C361.394 150.2 360.77 150.128 360.146 150.128C359.138 150.128 358.386 150.296 357.89 150.632C357.394 150.952 357.146 151.368 357.146 151.88C357.146 152.312 357.29 152.648 357.578 152.888C357.882 153.112 358.266 153.288 358.73 153.416C359.21 153.544 359.738 153.656 360.314 153.752C360.89 153.832 361.466 153.944 362.042 154.088C362.618 154.216 363.138 154.4 363.602 154.64C364.082 154.88 364.466 155.216 364.754 155.648C365.058 156.08 365.21 156.656 365.21 157.376C365.21 158.144 364.986 158.808 364.538 159.368C364.09 159.928 363.458 160.368 362.642 160.688C361.826 160.992 360.85 161.144 359.714 161.144ZM371.377 161.144C370.321 161.144 369.313 161 368.353 160.712C367.409 160.424 366.665 160.072 366.121 159.656L367.081 157.832C367.625 158.2 368.297 158.512 369.097 158.768C369.897 159.024 370.713 159.152 371.545 159.152C372.617 159.152 373.385 159 373.849 158.696C374.329 158.392 374.569 157.968 374.569 157.424C374.569 157.024 374.425 156.712 374.137 156.488C373.849 156.264 373.465 156.096 372.985 155.984C372.521 155.872 372.001 155.776 371.425 155.696C370.849 155.6 370.273 155.488 369.697 155.36C369.121 155.216 368.593 155.024 368.113 154.784C367.633 154.528 367.249 154.184 366.961 153.752C366.673 153.304 366.529 152.712 366.529 151.976C366.529 151.208 366.745 150.536 367.177 149.96C367.609 149.384 368.217 148.944 369.001 148.64C369.801 148.32 370.745 148.16 371.833 148.16C372.665 148.16 373.505 148.264 374.353 148.472C375.217 148.664 375.921 148.944 376.465 149.312L375.481 151.136C374.905 150.752 374.305 150.488 373.681 150.344C373.057 150.2 372.433 150.128 371.809 150.128C370.801 150.128 370.049 150.296 369.553 150.632C369.057 150.952 368.809 151.368 368.809 151.88C368.809 152.312 368.953 152.648 369.241 152.888C369.545 153.112 369.929 153.288 370.393 153.416C370.873 153.544 371.401 153.656 371.977 153.752C372.553 153.832 373.129 153.944 373.705 154.088C374.281 154.216 374.801 154.4 375.265 154.64C375.745 154.88 376.129 155.216 376.417 155.648C376.721 156.08 376.873 156.656 376.873 157.376C376.873 158.144 376.649 158.808 376.201 159.368C375.753 159.928 375.121 160.368 374.305 160.688C373.489 160.992 372.513 161.144 371.377 161.144ZM379.392 161V148.28H381.696V161H379.392ZM380.544 145.832C380.096 145.832 379.72 145.688 379.416 145.4C379.128 145.112 378.984 144.76 378.984 144.344C378.984 143.912 379.128 143.552 379.416 143.264C379.72 142.976 380.096 142.832 380.544 142.832C380.992 142.832 381.36 142.976 381.648 143.264C381.952 143.536 382.104 143.88 382.104 144.296C382.104 144.728 381.96 145.096 381.672 145.4C381.384 145.688 381.008 145.832 380.544 145.832ZM391.184 161.144C389.904 161.144 388.768 160.864 387.776 160.304C386.784 159.744 386 158.976 385.424 158C384.848 157.008 384.56 155.888 384.56 154.64C384.56 153.376 384.848 152.256 385.424 151.28C386 150.304 386.784 149.544 387.776 149C388.768 148.44 389.904 148.16 391.184 148.16C392.448 148.16 393.576 148.44 394.568 149C395.576 149.544 396.36 150.304 396.92 151.28C397.496 152.24 397.784 153.36 397.784 154.64C397.784 155.904 397.496 157.024 396.92 158C396.36 158.976 395.576 159.744 394.568 160.304C393.576 160.864 392.448 161.144 391.184 161.144ZM391.184 159.128C392 159.128 392.728 158.944 393.368 158.576C394.024 158.208 394.536 157.688 394.904 157.016C395.272 156.328 395.456 155.536 395.456 154.64C395.456 153.728 395.272 152.944 394.904 152.288C394.536 151.616 394.024 151.096 393.368 150.728C392.728 150.36 392 150.176 391.184 150.176C390.368 150.176 389.64 150.36 389 150.728C388.36 151.096 387.848 151.616 387.464 152.288C387.08 152.944 386.888 153.728 386.888 154.64C386.888 155.536 387.08 156.328 387.464 157.016C387.848 157.688 388.36 158.208 389 158.576C389.64 158.944 390.368 159.128 391.184 159.128ZM407.402 148.16C408.442 148.16 409.354 148.36 410.138 148.76C410.938 149.16 411.562 149.768 412.01 150.584C412.458 151.4 412.682 152.432 412.682 153.68V161H410.378V153.944C410.378 152.712 410.074 151.784 409.466 151.16C408.874 150.536 408.034 150.224 406.946 150.224C406.13 150.224 405.418 150.384 404.81 150.704C404.202 151.024 403.73 151.496 403.394 152.12C403.074 152.744 402.914 153.52 402.914 154.448V161H400.61V148.28H402.818V151.712L402.458 150.8C402.874 149.968 403.514 149.32 404.378 148.856C405.242 148.392 406.25 148.16 407.402 148.16Z" fill="#447DBF"/>
<path d="M329.576 203V196.568L330.128 198.056L322.904 186.2H325.472L331.544 196.208H330.152L336.248 186.2H338.624L331.424 198.056L331.952 196.568V203H329.576ZM344.381 203.144C343.101 203.144 341.965 202.864 340.973 202.304C339.981 201.744 339.197 200.976 338.621 200C338.045 199.008 337.757 197.888 337.757 196.64C337.757 195.376 338.045 194.256 338.621 193.28C339.197 192.304 339.981 191.544 340.973 191C341.965 190.44 343.101 190.16 344.381 190.16C345.645 190.16 346.773 190.44 347.765 191C348.773 191.544 349.557 192.304 350.117 193.28C350.693 194.24 350.981 195.36 350.981 196.64C350.981 197.904 350.693 199.024 350.117 200C349.557 200.976 348.773 201.744 347.765 202.304C346.773 202.864 345.645 203.144 344.381 203.144ZM344.381 201.128C345.197 201.128 345.925 200.944 346.565 200.576C347.221 200.208 347.733 199.688 348.101 199.016C348.469 198.328 348.653 197.536 348.653 196.64C348.653 195.728 348.469 194.944 348.101 194.288C347.733 193.616 347.221 193.096 346.565 192.728C345.925 192.36 345.197 192.176 344.381 192.176C343.565 192.176 342.837 192.36 342.197 192.728C341.557 193.096 341.045 193.616 340.661 194.288C340.277 194.944 340.085 195.728 340.085 196.64C340.085 197.536 340.277 198.328 340.661 199.016C341.045 199.688 341.557 200.208 342.197 200.576C342.837 200.944 343.565 201.128 344.381 201.128ZM359.16 203.144C358.072 203.144 357.112 202.944 356.28 202.544C355.464 202.144 354.824 201.536 354.36 200.72C353.912 199.888 353.688 198.848 353.688 197.6V190.28H355.992V197.336C355.992 198.584 356.288 199.52 356.88 200.144C357.488 200.768 358.336 201.08 359.424 201.08C360.224 201.08 360.92 200.92 361.512 200.6C362.104 200.264 362.56 199.784 362.88 199.16C363.2 198.52 363.36 197.752 363.36 196.856V190.28H365.664V203H363.48V199.568L363.84 200.48C363.424 201.328 362.8 201.984 361.968 202.448C361.136 202.912 360.2 203.144 359.16 203.144ZM369.69 203V190.28H371.898V193.736L371.682 192.872C372.034 191.992 372.626 191.32 373.458 190.856C374.29 190.392 375.314 190.16 376.53 190.16V192.392C376.434 192.376 376.338 192.368 376.242 192.368C376.162 192.368 376.082 192.368 376.002 192.368C374.77 192.368 373.794 192.736 373.074 193.472C372.354 194.208 371.994 195.272 371.994 196.664V203H369.69ZM389.627 203.144C388.347 203.144 387.355 202.8 386.651 202.112C385.947 201.424 385.595 200.44 385.595 199.16V187.496H387.899V199.064C387.899 199.752 388.067 200.28 388.403 200.648C388.755 201.016 389.251 201.2 389.891 201.2C390.611 201.2 391.211 201 391.691 200.6L392.411 202.256C392.059 202.56 391.635 202.784 391.139 202.928C390.659 203.072 390.155 203.144 389.627 203.144ZM383.435 192.176V190.28H391.547V192.176H383.435ZM394.836 203V190.28H397.14V203H394.836ZM395.988 187.832C395.54 187.832 395.164 187.688 394.86 187.4C394.572 187.112 394.428 186.76 394.428 186.344C394.428 185.912 394.572 185.552 394.86 185.264C395.164 184.976 395.54 184.832 395.988 184.832C396.436 184.832 396.804 184.976 397.092 185.264C397.396 185.536 397.548 185.88 397.548 186.296C397.548 186.728 397.404 187.096 397.116 187.4C396.828 187.688 396.452 187.832 395.988 187.832ZM417.092 190.16C418.116 190.16 419.02 190.36 419.804 190.76C420.588 191.16 421.196 191.768 421.628 192.584C422.076 193.4 422.3 194.432 422.3 195.68V203H419.996V195.944C419.996 194.712 419.708 193.784 419.132 193.16C418.556 192.536 417.748 192.224 416.708 192.224C415.94 192.224 415.268 192.384 414.692 192.704C414.116 193.024 413.668 193.496 413.348 194.12C413.044 194.744 412.892 195.52 412.892 196.448V203H410.588V195.944C410.588 194.712 410.3 193.784 409.724 193.16C409.164 192.536 408.356 192.224 407.3 192.224C406.548 192.224 405.884 192.384 405.308 192.704C404.732 193.024 404.284 193.496 403.964 194.12C403.644 194.744 403.484 195.52 403.484 196.448V203H401.18V190.28H403.388V193.664L403.028 192.8C403.428 191.968 404.044 191.32 404.876 190.856C405.708 190.392 406.676 190.16 407.78 190.16C408.996 190.16 410.044 190.464 410.924 191.072C411.804 191.664 412.38 192.568 412.652 193.784L411.716 193.4C412.1 192.424 412.772 191.64 413.732 191.048C414.692 190.456 415.812 190.16 417.092 190.16ZM431.843 203.144C430.483 203.144 429.283 202.864 428.243 202.304C427.219 201.744 426.419 200.976 425.843 200C425.283 199.024 425.003 197.904 425.003 196.64C425.003 195.376 425.275 194.256 425.819 193.28C426.379 192.304 427.139 191.544 428.099 191C429.075 190.44 430.171 190.16 431.387 190.16C432.619 190.16 433.707 190.432 434.651 190.976C435.595 191.52 436.331 192.288 436.859 193.28C437.403 194.256 437.675 195.4 437.675 196.712C437.675 196.808 437.667 196.92 437.651 197.048C437.651 197.176 437.643 197.296 437.627 197.408H426.803V195.752H436.427L435.491 196.328C435.507 195.512 435.339 194.784 434.987 194.144C434.635 193.504 434.147 193.008 433.523 192.656C432.915 192.288 432.203 192.104 431.387 192.104C430.587 192.104 429.875 192.288 429.251 192.656C428.627 193.008 428.139 193.512 427.787 194.168C427.435 194.808 427.259 195.544 427.259 196.376V196.76C427.259 197.608 427.451 198.368 427.835 199.04C428.235 199.696 428.787 200.208 429.491 200.576C430.195 200.944 431.003 201.128 431.915 201.128C432.667 201.128 433.347 201 433.955 200.744C434.579 200.488 435.123 200.104 435.587 199.592L436.859 201.08C436.283 201.752 435.563 202.264 434.699 202.616C433.851 202.968 432.899 203.144 431.843 203.144ZM446.936 203V189.152C446.936 187.904 447.296 186.912 448.016 186.176C448.752 185.424 449.792 185.048 451.136 185.048C451.632 185.048 452.104 185.112 452.552 185.24C453.016 185.352 453.408 185.536 453.728 185.792L453.032 187.544C452.792 187.352 452.52 187.208 452.216 187.112C451.912 187 451.592 186.944 451.256 186.944C450.584 186.944 450.072 187.136 449.72 187.52C449.368 187.888 449.192 188.44 449.192 189.176V190.88L449.24 191.936V203H446.936ZM444.776 192.176V190.28H452.888V192.176H444.776ZM459.961 203.144C458.681 203.144 457.545 202.864 456.553 202.304C455.561 201.744 454.777 200.976 454.201 200C453.625 199.008 453.337 197.888 453.337 196.64C453.337 195.376 453.625 194.256 454.201 193.28C454.777 192.304 455.561 191.544 456.553 191C457.545 190.44 458.681 190.16 459.961 190.16C461.225 190.16 462.353 190.44 463.345 191C464.353 191.544 465.137 192.304 465.697 193.28C466.273 194.24 466.561 195.36 466.561 196.64C466.561 197.904 466.273 199.024 465.697 200C465.137 200.976 464.353 201.744 463.345 202.304C462.353 202.864 461.225 203.144 459.961 203.144ZM459.961 201.128C460.777 201.128 461.505 200.944 462.145 200.576C462.801 200.208 463.313 199.688 463.681 199.016C464.049 198.328 464.233 197.536 464.233 196.64C464.233 195.728 464.049 194.944 463.681 194.288C463.313 193.616 462.801 193.096 462.145 192.728C461.505 192.36 460.777 192.176 459.961 192.176C459.145 192.176 458.417 192.36 457.777 192.728C457.137 193.096 456.625 193.616 456.241 194.288C455.857 194.944 455.665 195.728 455.665 196.64C455.665 197.536 455.857 198.328 456.241 199.016C456.625 199.688 457.137 200.208 457.777 200.576C458.417 200.944 459.145 201.128 459.961 201.128ZM469.387 203V190.28H471.595V193.736L471.379 192.872C471.731 191.992 472.323 191.32 473.155 190.856C473.987 190.392 475.011 190.16 476.227 190.16V192.392C476.131 192.376 476.035 192.368 475.939 192.368C475.859 192.368 475.779 192.368 475.699 192.368C474.467 192.368 473.491 192.736 472.771 193.472C472.051 194.208 471.691 195.272 471.691 196.664V203H469.387ZM485.293 203V186.2H487.261L494.797 198.896H493.741L501.181 186.2H503.149L503.173 203H500.869L500.845 189.824H501.397L494.773 200.96H493.669L486.997 189.824H487.597V203H485.293ZM512.75 203.192C511.47 203.192 510.246 203 509.078 202.616C507.91 202.216 506.99 201.704 506.318 201.08L507.206 199.208C507.846 199.768 508.662 200.232 509.654 200.6C510.646 200.968 511.678 201.152 512.75 201.152C513.726 201.152 514.518 201.04 515.126 200.816C515.734 200.592 516.182 200.288 516.47 199.904C516.758 199.504 516.902 199.056 516.902 198.56C516.902 197.984 516.71 197.52 516.326 197.168C515.958 196.816 515.47 196.536 514.862 196.328C514.27 196.104 513.614 195.912 512.894 195.752C512.174 195.592 511.446 195.408 510.71 195.2C509.99 194.976 509.326 194.696 508.718 194.36C508.126 194.024 507.646 193.576 507.278 193.016C506.91 192.44 506.726 191.704 506.726 190.808C506.726 189.944 506.95 189.152 507.398 188.432C507.862 187.696 508.566 187.112 509.51 186.68C510.47 186.232 511.686 186.008 513.158 186.008C514.134 186.008 515.102 186.136 516.062 186.392C517.022 186.648 517.854 187.016 518.558 187.496L517.766 189.416C517.046 188.936 516.286 188.592 515.486 188.384C514.686 188.16 513.91 188.048 513.158 188.048C512.214 188.048 511.438 188.168 510.83 188.408C510.222 188.648 509.774 188.968 509.486 189.368C509.214 189.768 509.078 190.216 509.078 190.712C509.078 191.304 509.262 191.776 509.63 192.128C510.014 192.48 510.502 192.76 511.094 192.968C511.702 193.176 512.366 193.368 513.086 193.544C513.806 193.704 514.526 193.888 515.246 194.096C515.982 194.304 516.646 194.576 517.238 194.912C517.846 195.248 518.334 195.696 518.702 196.256C519.07 196.816 519.254 197.536 519.254 198.416C519.254 199.264 519.022 200.056 518.558 200.792C518.094 201.512 517.374 202.096 516.398 202.544C515.438 202.976 514.222 203.192 512.75 203.192ZM536.07 203.192C534.79 203.192 533.598 202.976 532.494 202.544C531.406 202.112 530.462 201.512 529.662 200.744C528.862 199.96 528.238 199.048 527.79 198.008C527.342 196.968 527.118 195.832 527.118 194.6C527.118 193.368 527.342 192.232 527.79 191.192C528.238 190.152 528.862 189.248 529.662 188.48C530.462 187.696 531.406 187.088 532.494 186.656C533.582 186.224 534.774 186.008 536.07 186.008C537.35 186.008 538.526 186.224 539.598 186.656C540.686 187.072 541.63 187.672 542.43 188.456C543.246 189.224 543.87 190.128 544.302 191.168C544.75 192.208 544.974 193.352 544.974 194.6C544.974 195.848 544.75 196.992 544.302 198.032C543.87 199.072 543.246 199.984 542.43 200.768C541.63 201.536 540.686 202.136 539.598 202.568C538.526 202.984 537.35 203.192 536.07 203.192ZM536.07 201.056C536.998 201.056 537.854 200.896 538.638 200.576C539.438 200.256 540.126 199.808 540.702 199.232C541.294 198.64 541.75 197.952 542.07 197.168C542.406 196.384 542.574 195.528 542.574 194.6C542.574 193.672 542.406 192.816 542.07 192.032C541.75 191.248 541.294 190.568 540.702 189.992C540.126 189.4 539.438 188.944 538.638 188.624C537.854 188.304 536.998 188.144 536.07 188.144C535.126 188.144 534.254 188.304 533.454 188.624C532.67 188.944 531.982 189.4 531.39 189.992C530.798 190.568 530.334 191.248 529.998 192.032C529.678 192.816 529.518 193.672 529.518 194.6C529.518 195.528 529.678 196.384 529.998 197.168C530.334 197.952 530.798 198.64 531.39 199.232C531.982 199.808 532.67 200.256 533.454 200.576C534.254 200.896 535.126 201.056 536.07 201.056ZM548.282 203V189.152C548.282 187.904 548.642 186.912 549.362 186.176C550.098 185.424 551.138 185.048 552.482 185.048C552.978 185.048 553.45 185.112 553.898 185.24C554.362 185.352 554.754 185.536 555.074 185.792L554.378 187.544C554.138 187.352 553.866 187.208 553.562 187.112C553.258 187 552.938 186.944 552.602 186.944C551.93 186.944 551.418 187.136 551.066 187.52C550.714 187.888 550.538 188.44 550.538 189.176V190.88L550.586 191.936V203H548.282ZM546.122 192.176V190.28H554.234V192.176H546.122ZM556.383 203V189.152C556.383 187.904 556.743 186.912 557.463 186.176C558.199 185.424 559.239 185.048 560.583 185.048C561.079 185.048 561.551 185.112 561.999 185.24C562.463 185.352 562.855 185.536 563.175 185.792L562.479 187.544C562.239 187.352 561.967 187.208 561.663 187.112C561.359 187 561.039 186.944 560.703 186.944C560.031 186.944 559.519 187.136 559.167 187.52C558.815 187.888 558.639 188.44 558.639 189.176V190.88L558.687 191.936V203H556.383ZM554.223 192.176V190.28H562.335V192.176H554.223ZM564.519 203V190.28H566.823V203H564.519ZM565.671 187.832C565.223 187.832 564.847 187.688 564.543 187.4C564.255 187.112 564.111 186.76 564.111 186.344C564.111 185.912 564.255 185.552 564.543 185.264C564.847 184.976 565.223 184.832 565.671 184.832C566.119 184.832 566.487 184.976 566.775 185.264C567.079 185.536 567.231 185.88 567.231 186.296C567.231 186.728 567.087 187.096 566.799 187.4C566.511 187.688 566.135 187.832 565.671 187.832ZM576.395 203.144C575.099 203.144 573.939 202.864 572.915 202.304C571.907 201.744 571.115 200.976 570.539 200C569.963 199.024 569.675 197.904 569.675 196.64C569.675 195.376 569.963 194.256 570.539 193.28C571.115 192.304 571.907 191.544 572.915 191C573.939 190.44 575.099 190.16 576.395 190.16C577.547 190.16 578.571 190.392 579.467 190.856C580.379 191.304 581.083 191.976 581.579 192.872L579.827 194C579.411 193.376 578.899 192.92 578.291 192.632C577.699 192.328 577.059 192.176 576.371 192.176C575.539 192.176 574.795 192.36 574.139 192.728C573.483 193.096 572.963 193.616 572.579 194.288C572.195 194.944 572.003 195.728 572.003 196.64C572.003 197.552 572.195 198.344 572.579 199.016C572.963 199.688 573.483 200.208 574.139 200.576C574.795 200.944 575.539 201.128 576.371 201.128C577.059 201.128 577.699 200.984 578.291 200.696C578.899 200.392 579.411 199.928 579.827 199.304L581.579 200.408C581.083 201.288 580.379 201.968 579.467 202.448C578.571 202.912 577.547 203.144 576.395 203.144ZM589.679 203.144C588.319 203.144 587.119 202.864 586.079 202.304C585.055 201.744 584.255 200.976 583.679 200C583.119 199.024 582.839 197.904 582.839 196.64C582.839 195.376 583.111 194.256 583.655 193.28C584.215 192.304 584.975 191.544 585.935 191C586.911 190.44 588.007 190.16 589.223 190.16C590.455 190.16 591.543 190.432 592.487 190.976C593.431 191.52 594.167 192.288 594.695 193.28C595.239 194.256 595.511 195.4 595.511 196.712C595.511 196.808 595.503 196.92 595.487 197.048C595.487 197.176 595.479 197.296 595.463 197.408H584.639V195.752H594.263L593.327 196.328C593.343 195.512 593.175 194.784 592.823 194.144C592.471 193.504 591.983 193.008 591.359 192.656C590.751 192.288 590.039 192.104 589.223 192.104C588.423 192.104 587.711 192.288 587.087 192.656C586.463 193.008 585.975 193.512 585.623 194.168C585.271 194.808 585.095 195.544 585.095 196.376V196.76C585.095 197.608 585.287 198.368 585.671 199.04C586.071 199.696 586.623 200.208 587.327 200.576C588.031 200.944 588.839 201.128 589.751 201.128C590.503 201.128 591.183 201 591.791 200.744C592.415 200.488 592.959 200.104 593.423 199.592L594.695 201.08C594.119 201.752 593.399 202.264 592.535 202.616C591.687 202.968 590.735 203.144 589.679 203.144ZM608.083 203.144C607.027 203.144 606.019 203 605.059 202.712C604.115 202.424 603.371 202.072 602.827 201.656L603.787 199.832C604.331 200.2 605.003 200.512 605.803 200.768C606.603 201.024 607.419 201.152 608.251 201.152C609.323 201.152 610.091 201 610.555 200.696C611.035 200.392 611.275 199.968 611.275 199.424C611.275 199.024 611.131 198.712 610.843 198.488C610.555 198.264 610.171 198.096 609.691 197.984C609.227 197.872 608.707 197.776 608.131 197.696C607.555 197.6 606.979 197.488 606.403 197.36C605.827 197.216 605.299 197.024 604.819 196.784C604.339 196.528 603.955 196.184 603.667 195.752C603.379 195.304 603.235 194.712 603.235 193.976C603.235 193.208 603.451 192.536 603.883 191.96C604.315 191.384 604.923 190.944 605.707 190.64C606.507 190.32 607.451 190.16 608.539 190.16C609.371 190.16 610.211 190.264 611.059 190.472C611.923 190.664 612.627 190.944 613.171 191.312L612.187 193.136C611.611 192.752 611.011 192.488 610.387 192.344C609.763 192.2 609.139 192.128 608.515 192.128C607.507 192.128 606.755 192.296 606.259 192.632C605.763 192.952 605.515 193.368 605.515 193.88C605.515 194.312 605.659 194.648 605.947 194.888C606.251 195.112 606.635 195.288 607.099 195.416C607.579 195.544 608.107 195.656 608.683 195.752C609.259 195.832 609.835 195.944 610.411 196.088C610.987 196.216 611.507 196.4 611.971 196.64C612.451 196.88 612.835 197.216 613.123 197.648C613.427 198.08 613.579 198.656 613.579 199.376C613.579 200.144 613.355 200.808 612.907 201.368C612.459 201.928 611.827 202.368 611.011 202.688C610.195 202.992 609.219 203.144 608.083 203.144ZM620.467 203.144C619.187 203.144 618.195 202.8 617.491 202.112C616.787 201.424 616.435 200.44 616.435 199.16V187.496H618.739V199.064C618.739 199.752 618.907 200.28 619.243 200.648C619.595 201.016 620.091 201.2 620.731 201.2C621.451 201.2 622.051 201 622.531 200.6L623.251 202.256C622.899 202.56 622.475 202.784 621.979 202.928C621.499 203.072 620.995 203.144 620.467 203.144ZM614.275 192.176V190.28H622.387V192.176H614.275ZM633.572 203V200.312L633.452 199.808V195.224C633.452 194.248 633.164 193.496 632.588 192.968C632.028 192.424 631.18 192.152 630.044 192.152C629.292 192.152 628.556 192.28 627.836 192.536C627.116 192.776 626.508 193.104 626.012 193.52L625.052 191.792C625.708 191.264 626.492 190.864 627.404 190.592C628.332 190.304 629.3 190.16 630.308 190.16C632.052 190.16 633.396 190.584 634.34 191.432C635.284 192.28 635.756 193.576 635.756 195.32V203H633.572ZM629.396 203.144C628.452 203.144 627.62 202.984 626.9 202.664C626.196 202.344 625.652 201.904 625.268 201.344C624.884 200.768 624.692 200.12 624.692 199.4C624.692 198.712 624.852 198.088 625.172 197.528C625.508 196.968 626.044 196.52 626.78 196.184C627.532 195.848 628.54 195.68 629.804 195.68H633.836V197.336H629.9C628.748 197.336 627.972 197.528 627.572 197.912C627.172 198.296 626.972 198.76 626.972 199.304C626.972 199.928 627.22 200.432 627.716 200.816C628.212 201.184 628.9 201.368 629.78 201.368C630.644 201.368 631.396 201.176 632.036 200.792C632.692 200.408 633.164 199.848 633.452 199.112L633.908 200.696C633.604 201.448 633.068 202.048 632.3 202.496C631.532 202.928 630.564 203.144 629.396 203.144ZM639.66 203V190.28H641.868V193.736L641.652 192.872C642.004 191.992 642.596 191.32 643.428 190.856C644.26 190.392 645.284 190.16 646.5 190.16V192.392C646.404 192.376 646.308 192.368 646.212 192.368C646.132 192.368 646.052 192.368 645.972 192.368C644.74 192.368 643.764 192.736 643.044 193.472C642.324 194.208 641.964 195.272 641.964 196.664V203H639.66ZM653.863 203.144C652.583 203.144 651.591 202.8 650.887 202.112C650.183 201.424 649.831 200.44 649.831 199.16V187.496H652.135V199.064C652.135 199.752 652.303 200.28 652.639 200.648C652.991 201.016 653.487 201.2 654.127 201.2C654.847 201.2 655.447 201 655.927 200.6L656.647 202.256C656.295 202.56 655.871 202.784 655.375 202.928C654.895 203.072 654.391 203.144 653.863 203.144ZM647.671 192.176V190.28H655.783V192.176H647.671ZM662.721 203.144C661.665 203.144 660.657 203 659.697 202.712C658.753 202.424 658.009 202.072 657.465 201.656L658.425 199.832C658.969 200.2 659.641 200.512 660.441 200.768C661.241 201.024 662.057 201.152 662.889 201.152C663.961 201.152 664.729 201 665.193 200.696C665.673 200.392 665.913 199.968 665.913 199.424C665.913 199.024 665.769 198.712 665.481 198.488C665.193 198.264 664.809 198.096 664.329 197.984C663.865 197.872 663.345 197.776 662.769 197.696C662.193 197.6 661.617 197.488 661.041 197.36C660.465 197.216 659.937 197.024 659.457 196.784C658.977 196.528 658.593 196.184 658.305 195.752C658.017 195.304 657.873 194.712 657.873 193.976C657.873 193.208 658.089 192.536 658.521 191.96C658.953 191.384 659.561 190.944 660.345 190.64C661.145 190.32 662.089 190.16 663.177 190.16C664.009 190.16 664.849 190.264 665.697 190.472C666.561 190.664 667.265 190.944 667.809 191.312L666.825 193.136C666.249 192.752 665.649 192.488 665.025 192.344C664.401 192.2 663.777 192.128 663.153 192.128C662.145 192.128 661.393 192.296 660.897 192.632C660.401 192.952 660.153 193.368 660.153 193.88C660.153 194.312 660.297 194.648 660.585 194.888C660.889 195.112 661.273 195.288 661.737 195.416C662.217 195.544 662.745 195.656 663.321 195.752C663.897 195.832 664.473 195.944 665.049 196.088C665.625 196.216 666.145 196.4 666.609 196.64C667.089 196.88 667.473 197.216 667.761 197.648C668.065 198.08 668.217 198.656 668.217 199.376C668.217 200.144 667.993 200.808 667.545 201.368C667.097 201.928 666.465 202.368 665.649 202.688C664.833 202.992 663.857 203.144 662.721 203.144ZM671.288 203.144C670.84 203.144 670.456 202.992 670.136 202.688C669.816 202.368 669.656 201.968 669.656 201.488C669.656 201.008 669.816 200.616 670.136 200.312C670.456 200.008 670.84 199.856 671.288 199.856C671.72 199.856 672.088 200.008 672.392 200.312C672.712 200.616 672.872 201.008 672.872 201.488C672.872 201.968 672.712 202.368 672.392 202.688C672.088 202.992 671.72 203.144 671.288 203.144ZM326.984 235V219.16L328.016 220.288H323.192V218.2H329.36V235H326.984ZM340.499 222.16C341.539 222.16 342.451 222.36 343.235 222.76C344.035 223.16 344.659 223.768 345.107 224.584C345.555 225.4 345.779 226.432 345.779 227.68V235H343.475V227.944C343.475 226.712 343.171 225.784 342.563 225.16C341.971 224.536 341.131 224.224 340.043 224.224C339.227 224.224 338.515 224.384 337.907 224.704C337.299 225.024 336.827 225.496 336.491 226.12C336.171 226.744 336.011 227.52 336.011 228.448V235H333.707V217.192H336.011V225.712L335.555 224.8C335.971 223.968 336.611 223.32 337.475 222.856C338.339 222.392 339.347 222.16 340.499 222.16ZM349.683 235V222.28H351.891V225.736L351.675 224.872C352.027 223.992 352.619 223.32 353.451 222.856C354.283 222.392 355.307 222.16 356.523 222.16V224.392C356.427 224.376 356.331 224.368 356.235 224.368C356.155 224.368 356.075 224.368 355.995 224.368C354.763 224.368 353.787 224.736 353.067 225.472C352.347 226.208 351.987 227.272 351.987 228.664V235H349.683ZM369.356 235.192C368.172 235.192 367.02 235.008 365.9 234.64C364.796 234.272 363.892 233.776 363.188 233.152L364.292 231.256C364.852 231.784 365.58 232.216 366.476 232.552C367.372 232.888 368.332 233.056 369.356 233.056C370.604 233.056 371.572 232.792 372.26 232.264C372.964 231.72 373.316 230.992 373.316 230.08C373.316 229.2 372.98 228.496 372.308 227.968C371.652 227.424 370.604 227.152 369.164 227.152H367.82V225.472L372.812 219.328L373.148 220.288H363.956V218.2H375.044V219.832L370.076 225.952L368.828 225.208H369.62C371.652 225.208 373.172 225.664 374.18 226.576C375.204 227.488 375.716 228.648 375.716 230.056C375.716 231 375.484 231.864 375.02 232.648C374.556 233.432 373.852 234.056 372.908 234.52C371.98 234.968 370.796 235.192 369.356 235.192ZM384.458 235.192C383.146 235.192 381.97 234.856 380.93 234.184C379.906 233.512 379.09 232.536 378.482 231.256C377.89 229.976 377.594 228.424 377.594 226.6C377.594 224.776 377.89 223.224 378.482 221.944C379.09 220.664 379.906 219.688 380.93 219.016C381.97 218.344 383.146 218.008 384.458 218.008C385.754 218.008 386.922 218.344 387.962 219.016C389.002 219.688 389.818 220.664 390.41 221.944C391.002 223.224 391.298 224.776 391.298 226.6C391.298 228.424 391.002 229.976 390.41 231.256C389.818 232.536 389.002 233.512 387.962 234.184C386.922 234.856 385.754 235.192 384.458 235.192ZM384.458 233.056C385.338 233.056 386.106 232.816 386.762 232.336C387.434 231.856 387.954 231.136 388.322 230.176C388.706 229.216 388.898 228.024 388.898 226.6C388.898 225.176 388.706 223.984 388.322 223.024C387.954 222.064 387.434 221.344 386.762 220.864C386.106 220.384 385.338 220.144 384.458 220.144C383.578 220.144 382.802 220.384 382.13 220.864C381.458 221.344 380.93 222.064 380.546 223.024C380.178 223.984 379.994 225.176 379.994 226.6C379.994 228.024 380.178 229.216 380.546 230.176C380.93 231.136 381.458 231.856 382.13 232.336C382.802 232.816 383.578 233.056 384.458 233.056ZM400.695 235V218.2H402.663L410.199 230.896H409.143L416.583 218.2H418.551L418.575 235H416.271L416.247 221.824H416.799L410.175 232.96H409.071L402.399 221.824H402.999V235H400.695ZM422.921 235V222.28H425.225V235H422.921ZM424.073 219.832C423.625 219.832 423.249 219.688 422.945 219.4C422.657 219.112 422.513 218.76 422.513 218.344C422.513 217.912 422.657 217.552 422.945 217.264C423.249 216.976 423.625 216.832 424.073 216.832C424.521 216.832 424.889 216.976 425.177 217.264C425.481 217.536 425.633 217.88 425.633 218.296C425.633 218.728 425.489 219.096 425.201 219.4C424.913 219.688 424.537 219.832 424.073 219.832ZM436.056 222.16C437.096 222.16 438.008 222.36 438.792 222.76C439.592 223.16 440.216 223.768 440.664 224.584C441.112 225.4 441.336 226.432 441.336 227.68V235H439.032V227.944C439.032 226.712 438.728 225.784 438.12 225.16C437.528 224.536 436.688 224.224 435.6 224.224C434.784 224.224 434.072 224.384 433.464 224.704C432.856 225.024 432.384 225.496 432.048 226.12C431.728 226.744 431.568 227.52 431.568 228.448V235H429.264V222.28H431.472V225.712L431.112 224.8C431.528 223.968 432.168 223.32 433.032 222.856C433.896 222.392 434.904 222.16 436.056 222.16ZM448.888 235.144C447.832 235.144 446.824 235 445.864 234.712C444.92 234.424 444.176 234.072 443.632 233.656L444.592 231.832C445.136 232.2 445.808 232.512 446.608 232.768C447.408 233.024 448.224 233.152 449.056 233.152C450.128 233.152 450.896 233 451.36 232.696C451.84 232.392 452.08 231.968 452.08 231.424C452.08 231.024 451.936 230.712 451.648 230.488C451.36 230.264 450.976 230.096 450.496 229.984C450.032 229.872 449.512 229.776 448.936 229.696C448.36 229.6 447.784 229.488 447.208 229.36C446.632 229.216 446.104 229.024 445.624 228.784C445.144 228.528 444.76 228.184 444.472 227.752C444.184 227.304 444.04 226.712 444.04 225.976C444.04 225.208 444.256 224.536 444.688 223.96C445.12 223.384 445.728 222.944 446.512 222.64C447.312 222.32 448.256 222.16 449.344 222.16C450.176 222.16 451.016 222.264 451.864 222.472C452.728 222.664 453.432 222.944 453.976 223.312L452.992 225.136C452.416 224.752 451.816 224.488 451.192 224.344C450.568 224.2 449.944 224.128 449.32 224.128C448.312 224.128 447.56 224.296 447.064 224.632C446.568 224.952 446.32 225.368 446.32 225.88C446.32 226.312 446.464 226.648 446.752 226.888C447.056 227.112 447.44 227.288 447.904 227.416C448.384 227.544 448.912 227.656 449.488 227.752C450.064 227.832 450.64 227.944 451.216 228.088C451.792 228.216 452.312 228.4 452.776 228.64C453.256 228.88 453.64 229.216 453.928 229.648C454.232 230.08 454.384 230.656 454.384 231.376C454.384 232.144 454.16 232.808 453.712 233.368C453.264 233.928 452.632 234.368 451.816 234.688C451 234.992 450.024 235.144 448.888 235.144Z" fill="#2F2E41"/>
<path d="M206.115 105.164C212.182 106.84 216.375 112.297 216.375 118.515V201.34C216.375 207.614 212.093 213.091 205.947 214.721L167.955 225.382L180.167 199.5V117.208L169.805 94.5452L206.115 105.164Z" fill="url(#paint1_linear_280_97)"/>
<path d="M180.167 196.208V209.135C180.167 221.653 167.579 229.704 157.062 223.918L134.231 209.286C131.592 207.752 130.163 204.474 131.058 201.198C131.891 198.15 134.748 196.208 137.754 196.208H180.167Z" fill="url(#paint2_linear_280_97)"/>
<path d="M160.239 95.8981L120.989 118.235C116.874 120.579 114.333 124.947 114.333 129.68V190.343C114.333 194.809 119.136 197.634 123.039 195.458L137.76 187.258C139.554 186.261 140.666 184.365 140.666 182.311V139.404C140.666 135.102 143.234 131.241 147.128 129.697L180.166 118.222V108.051C180.166 97.5044 169.202 90.819 160.239 95.8981Z" fill="url(#paint3_linear_280_97)"/>
<defs>
<filter id="filter0_d_280_97" x="0" y="0" width="853" height="326" filterUnits="userSpaceOnUse" color-interpolation-filters="sRGB">
<feFlood flood-opacity="0" result="BackgroundImageFix"/>
<feColorMatrix in="SourceAlpha" type="matrix" values="0 0 0 0 0 0 0 0 0 0 0 0 0 0 0 0 0 0 127 0" result="hardAlpha"/>
<feOffset dy="4"/>
<feGaussianBlur stdDeviation="12"/>
<feComposite in2="hardAlpha" operator="out"/>
<feColorMatrix type="matrix" values="0 0 0 0 0 0 0 0 0 0 0 0 0 0 0 0 0 0 0.25 0"/>
<feBlend mode="normal" in2="BackgroundImageFix" result="effect1_dropShadow_280_97"/>
<feBlend mode="normal" in="SourceGraphic" in2="effect1_dropShadow_280_97" result="shape"/>
</filter>
<linearGradient id="paint0_linear_280_97" x1="166.5" y1="41" x2="166.5" y2="278" gradientUnits="userSpaceOnUse">
<stop stop-color="#FFB7B7"/>
<stop offset="1" stop-color="#6379C6"/>
</linearGradient>
<linearGradient id="paint1_linear_280_97" x1="192.165" y1="103.512" x2="192.165" y2="214.691" gradientUnits="userSpaceOnUse">
<stop stop-color="#E68E00"/>
<stop offset="0.036" stop-color="#E38400"/>
<stop offset="0.171" stop-color="#DB6200"/>
<stop offset="0.299" stop-color="#D44A00"/>
<stop offset="0.417" stop-color="#D03B00"/>
<stop offset="0.515" stop-color="#CF3600"/>
<stop offset="0.878" stop-color="#D22900"/>
<stop offset="1" stop-color="#D42400"/>
</linearGradient>
<linearGradient id="paint2_linear_280_97" x1="133.827" y1="196.047" x2="183.626" y2="216.199" gradientUnits="userSpaceOnUse">
<stop stop-color="#F52537"/>
<stop offset="0.293" stop-color="#F32536"/>
<stop offset="0.465" stop-color="#EA2434"/>
<stop offset="0.605" stop-color="#DC2231"/>
<stop offset="0.729" stop-color="#C8202C"/>
<stop offset="0.841" stop-color="#AE1E25"/>
<stop offset="0.944" stop-color="#8F1A1D"/>
<stop offset="1" stop-color="#7A1818"/>
</linearGradient>
<linearGradient id="paint3_linear_280_97" x1="105.715" y1="187.285" x2="173.168" y2="86.8591" gradientUnits="userSpaceOnUse">
<stop stop-color="#D96AB1"/>
<stop offset="0.137" stop-color="#D9538B"/>
<stop offset="0.495" stop-color="#D91A2A"/>
<stop offset="0.575" stop-color="#D31A29"/>
<stop offset="0.68" stop-color="#C21926"/>
<stop offset="0.8" stop-color="#A71821"/>
<stop offset="0.929" stop-color="#811619"/>
<stop offset="1" stop-color="#691515"/>
</linearGradient>
</defs>
</svg>
