<svg width="1344" height="120" viewBox="0 0 1344 120" fill="none" xmlns="http://www.w3.org/2000/svg">
<rect width="1344" height="120" rx="20" fill="url(#paint0_linear_79_627)" fill-opacity="0.15"/>
<g filter="url(#filter0_d_79_627)">
<rect x="330" y="29" width="180" height="64" rx="12" fill="white"/>
</g>
<g filter="url(#filter1_d_79_627)">
<rect x="530" y="29" width="186" height="64" rx="12" fill="white"/>
</g>
<g filter="url(#filter2_d_79_627)">
<rect x="736" y="29" width="186" height="64" rx="12" fill="white"/>
</g>
<g filter="url(#filter3_d_79_627)">
<rect x="942" y="28" width="72" height="64" rx="12" fill="white"/>
</g>
<g clip-path="url(#clip0_79_627)">
<path d="M979.834 61.8316L988.371 61.8316C988.856 61.8285 989.319 61.6341 989.66 61.2906C990.001 60.9472 990.193 60.4826 990.193 59.9985C990.193 59.5143 990.001 59.0498 989.66 58.7063C989.319 58.3629 988.855 58.1684 988.371 58.1654L979.834 58.1653L979.833 49.6276C979.829 49.1443 979.634 48.6823 979.291 48.3421C978.947 48.0019 978.484 47.811 978 47.811C977.517 47.811 977.053 48.0019 976.71 48.3421C976.367 48.6823 976.172 49.1443 976.167 49.6276L976.167 58.1653L967.629 58.1654C967.146 58.1698 966.684 58.3648 966.344 58.7081C966.004 59.0514 965.813 59.5152 965.813 59.9985C965.813 60.4818 966.004 60.9455 966.344 61.2888C966.684 61.6321 967.146 61.8271 967.629 61.8315L976.167 61.8316L976.167 70.3694C976.17 70.8536 976.365 71.3169 976.708 71.6582C977.052 71.9995 977.516 72.191 978 72.191C978.485 72.191 978.949 71.9994 979.293 71.6581C979.636 71.3168 979.83 70.8535 979.833 70.3694L979.834 61.8316Z" fill="#6563FF"/>
<path d="M996.333 60.0001C996.333 55.138 994.401 50.475 990.963 47.037C987.525 43.5989 982.862 41.6675 978 41.6675C973.138 41.6675 968.475 43.5989 965.037 47.037C961.599 50.475 959.667 55.138 959.667 60.0001C959.667 64.8622 961.599 69.5252 965.037 72.9632C968.475 76.4013 973.138 78.3328 978 78.3328C982.862 78.3328 987.525 76.4013 990.963 72.9632C994.401 69.5252 996.333 64.8622 996.333 60.0001V60.0001ZM979.833 70.371C979.835 70.6131 979.789 70.8533 979.698 71.0776C979.607 71.3019 979.473 71.506 979.302 71.678C979.132 71.8499 978.929 71.9865 978.705 72.0796C978.482 72.1728 978.242 72.2207 978 72.2207C977.758 72.2207 977.518 72.1728 977.295 72.0796C977.071 71.9865 976.868 71.8499 976.698 71.678C976.527 71.506 976.393 71.3019 976.302 71.0776C976.211 70.8533 976.165 70.6131 976.167 70.371L976.167 61.8332L967.629 61.8332C967.146 61.8288 966.684 61.6337 966.344 61.2905C966.003 60.9472 965.813 60.4834 965.813 60.0001C965.813 59.5168 966.003 59.0531 966.344 58.7098C966.684 58.3665 967.146 58.1714 967.629 58.1671L976.167 58.167L976.167 49.6292C976.171 49.1459 976.366 48.6839 976.71 48.3437C977.053 48.0036 977.517 47.8127 978 47.8127C978.483 47.8127 978.947 48.0036 979.29 48.3437C979.634 48.6839 979.829 49.1459 979.833 49.6292L979.833 58.167H988.371C988.855 58.17 989.318 58.3645 989.66 58.708C990.001 59.0514 990.193 59.5159 990.193 60.0001C990.193 60.4843 990.001 60.9488 989.66 61.2922C989.318 61.6357 988.855 61.8301 988.371 61.8332L979.833 61.8332L979.833 70.371Z" fill="#A2A1FF"/>
</g>
<path fill-rule="evenodd" clip-rule="evenodd" d="M48.2033 45.8703C47.6663 46.4073 47.6663 47.2716 47.6663 49C47.6663 50.7285 47.6663 51.5928 48.2033 52.1297C48.7403 52.6667 49.6045 52.6667 51.333 52.6667H54.9997C56.7281 52.6667 57.5924 52.6667 58.1294 52.1297C58.6663 51.5928 58.6663 50.7285 58.6663 49C58.6663 47.2716 58.6663 46.4073 58.1294 45.8703C57.5924 45.3334 56.7281 45.3334 54.9997 45.3334H51.333C49.6045 45.3334 48.7403 45.3334 48.2033 45.8703ZM29.87 67.8704C29.333 68.4073 29.333 69.2716 29.333 71C29.333 72.7285 29.333 73.5927 29.87 74.1297C30.407 74.6667 31.2712 74.6667 32.9997 74.6667H36.6663C38.3948 74.6667 39.2591 74.6667 39.796 74.1297C40.333 73.5927 40.333 72.7285 40.333 71C40.333 69.2716 40.333 68.4073 39.796 67.8704C39.2591 67.3334 38.3948 67.3334 36.6663 67.3334H32.9997C31.2712 67.3334 30.407 67.3334 29.87 67.8704ZM47.6663 63.6667C47.6663 61.9382 47.6663 61.074 48.2033 60.537C48.7403 60 49.6045 60 51.333 60H54.9997C56.7281 60 57.5924 60 58.1294 60.537C58.6663 61.074 58.6663 61.9382 58.6663 63.6667V71C58.6663 72.7285 58.6663 73.5927 58.1294 74.1297C57.5924 74.6667 56.7281 74.6667 54.9997 74.6667H51.333C49.6045 74.6667 48.7403 74.6667 48.2033 74.1297C47.6663 73.5927 47.6663 72.7285 47.6663 71V63.6667ZM29.87 45.8703C29.333 46.4073 29.333 47.2716 29.333 49V56.3334C29.333 58.0618 29.333 58.9261 29.87 59.4631C30.407 60 31.2712 60 32.9997 60H36.6663C38.3948 60 39.2591 60 39.796 59.4631C40.333 58.9261 40.333 58.0618 40.333 56.3334V49C40.333 47.2716 40.333 46.4073 39.796 45.8703C39.2591 45.3334 38.3948 45.3334 36.6663 45.3334H32.9997C31.2712 45.3334 30.407 45.3334 29.87 45.8703Z" fill="black"/>
<path fill-rule="evenodd" clip-rule="evenodd" d="M30.8423 46.8427L30.8467 46.8401C30.8503 46.8383 30.8564 46.8353 30.8656 46.8315C30.9055 46.8151 30.9942 46.787 31.1712 46.7633C31.5576 46.7113 32.0966 46.7084 32.9997 46.7084H36.6663C37.5695 46.7084 38.1085 46.7113 38.4948 46.7633C38.6718 46.787 38.7605 46.8151 38.8004 46.8315C38.8097 46.8353 38.8157 46.8383 38.8193 46.8401L38.8237 46.8427L38.8263 46.8471C38.8281 46.8507 38.8311 46.8568 38.8349 46.866C38.8513 46.9059 38.8793 46.9946 38.9032 47.1716C38.9551 47.5579 38.958 48.0969 38.958 49.0001V56.3334C38.958 57.2365 38.9551 57.7755 38.9032 58.1618C38.8793 58.3389 38.8513 58.4276 38.8349 58.4674C38.8311 58.4767 38.8281 58.4828 38.8263 58.4863L38.8237 58.4908L38.8193 58.4932C38.8157 58.4952 38.8097 58.4982 38.8004 58.5018C38.7605 58.5183 38.6718 58.5464 38.4948 58.5702C38.1085 58.6221 37.5695 58.625 36.6663 58.625H32.9997C32.0966 58.625 31.5576 58.6221 31.1712 58.5702C30.9942 58.5464 30.9055 58.5183 30.8656 58.5018C30.8564 58.4982 30.8503 58.4952 30.8467 58.4932L30.8423 58.4908L30.8398 58.4863C30.8379 58.4828 30.8349 58.4767 30.8311 58.4674C30.8147 58.4276 30.7867 58.3389 30.7629 58.1618C30.7109 57.7755 30.708 57.2365 30.708 56.3334V49.0001C30.708 48.0969 30.7109 47.5579 30.7629 47.1716C30.7867 46.9946 30.8147 46.9059 30.8311 46.866C30.8349 46.8568 30.8379 46.8507 30.8398 46.8471L30.8423 46.8427ZM32.9176 43.9584C32.9449 43.9584 32.9723 43.9584 32.9997 43.9584H36.6663C36.6938 43.9584 36.7211 43.9584 36.7484 43.9584C37.5419 43.9583 38.2694 43.9582 38.8612 44.0378C39.5129 44.1254 40.2018 44.3316 40.7682 44.8981C41.3349 45.4646 41.541 46.1535 41.6286 46.8052C41.7082 47.397 41.7082 48.1245 41.708 48.918C41.708 48.9453 41.708 48.9726 41.708 49.0001V56.3334C41.708 56.3609 41.708 56.3882 41.708 56.4155C41.7082 57.209 41.7082 57.9364 41.6286 58.5282C41.541 59.18 41.3349 59.8688 40.7682 60.4353C40.2018 61.002 39.5129 61.208 38.8612 61.2957C38.2694 61.3752 37.5419 61.3752 36.7484 61.375C36.7211 61.375 36.6938 61.375 36.6663 61.375H32.9997C32.9723 61.375 32.9449 61.375 32.9177 61.375C32.1242 61.3752 31.3966 61.3752 30.8048 61.2957C30.1531 61.208 29.4643 61.002 28.8977 60.4353C28.3312 59.8688 28.125 59.18 28.0374 58.5282C27.9578 57.9364 27.9579 57.209 27.958 56.4155C27.958 56.3882 27.958 56.3609 27.958 56.3334V49.0001C27.958 48.9726 27.958 48.9453 27.958 48.918C27.9579 48.1245 27.9578 47.397 28.0374 46.8052C28.125 46.1535 28.3312 45.4646 28.8977 44.8981C29.4643 44.3316 30.1531 44.1254 30.8048 44.0378C31.3966 43.9582 32.1241 43.9583 32.9176 43.9584ZM49.1801 46.8401L49.1756 46.8427L49.1732 46.8471C49.1713 46.8507 49.1682 46.8568 49.1645 46.866C49.148 46.9059 49.12 46.9946 49.0962 47.1716C49.0443 47.5579 49.0414 48.0969 49.0414 49.0001C49.0414 49.9032 49.0443 50.4422 49.0962 50.8285C49.12 51.0055 49.148 51.0942 49.1645 51.1341C49.166 51.1378 49.1686 51.1438 49.1686 51.1438C49.1704 51.1478 49.1732 51.153 49.1732 51.153L49.1756 51.1575L49.1801 51.16C49.1836 51.1618 49.1897 51.1648 49.199 51.1686C49.2388 51.185 49.3275 51.2131 49.5046 51.2369C49.8909 51.2888 50.4299 51.2917 51.333 51.2917H54.9997C55.9028 51.2917 56.4418 51.2888 56.8281 51.2369C57.0052 51.2131 57.0939 51.185 57.1337 51.1686C57.143 51.1648 57.1491 51.1618 57.1526 51.16L57.1572 51.1575L57.1595 51.153C57.1614 51.1494 57.1645 51.1434 57.1682 51.1341C57.1847 51.0942 57.2127 51.0055 57.2365 50.8285C57.2884 50.4422 57.2913 49.9032 57.2913 49.0001C57.2913 48.0969 57.2884 47.5579 57.2365 47.1716C57.2127 46.9946 57.1847 46.9059 57.1682 46.866C57.1645 46.8568 57.1614 46.8507 57.1595 46.8471L57.1572 46.8427L57.1526 46.8401C57.1491 46.8383 57.143 46.8353 57.1337 46.8315C57.0939 46.8151 57.0052 46.787 56.8281 46.7633C56.4418 46.7113 55.9028 46.7084 54.9997 46.7084H51.333C50.4299 46.7084 49.8909 46.7113 49.5046 46.7633C49.3275 46.787 49.2388 46.8151 49.199 46.8315C49.1897 46.8353 49.1836 46.8383 49.1801 46.8401ZM51.2511 43.9584H55.0816C55.8753 43.9583 56.6028 43.9582 57.1946 44.0378C57.8463 44.1254 58.5351 44.3316 59.1016 44.8981C59.6683 45.4646 59.8743 46.1535 59.962 46.8052C60.0415 47.397 60.0415 48.1245 60.0413 48.918V49.0821C60.0415 49.8756 60.0415 50.6031 59.962 51.1949C59.8743 51.8467 59.6683 52.5355 59.1016 53.102C58.5351 53.6686 57.8463 53.8747 57.1946 53.9623C56.6028 54.0419 55.8753 54.0418 55.0816 54.0417H51.2511C50.4574 54.0418 49.73 54.0419 49.1382 53.9623C48.4864 53.8747 47.7976 53.6686 47.2311 53.102C46.6644 52.5355 46.4584 51.8467 46.3707 51.1949C46.2912 50.6031 46.2912 49.8756 46.2914 49.0821C46.2914 49.0548 46.2914 49.0275 46.2914 49.0001C46.2914 48.9726 46.2914 48.9453 46.2914 48.918C46.2912 48.1245 46.2912 47.397 46.3707 46.8052C46.4584 46.1535 46.6644 45.4646 47.2311 44.8981C47.7976 44.3316 48.4864 44.1254 49.1382 44.0378C49.73 43.9582 50.4574 43.9583 51.2511 43.9584ZM51.2511 58.625H55.0816C55.8753 58.625 56.6028 58.6249 57.1946 58.7044C57.8463 58.7921 58.5351 58.9981 59.1016 59.5648C59.6683 60.1313 59.8743 60.8201 59.962 61.4718C60.0415 62.0636 60.0415 62.7911 60.0413 63.5848V71.0822C60.0415 71.8756 60.0415 72.6031 59.962 73.1949C59.8743 73.8467 59.6683 74.5354 59.1016 75.1019C58.5351 75.6686 57.8463 75.8747 57.1946 75.9623C56.6028 76.0419 55.8753 76.0419 55.0816 76.0417H51.2511C50.4574 76.0419 49.73 76.0419 49.1382 75.9623C48.4864 75.8747 47.7976 75.6686 47.2311 75.1019C46.6644 74.5354 46.4584 73.8467 46.3707 73.1949C46.2912 72.6031 46.2912 71.8756 46.2914 71.0822V63.6667C46.2914 63.6394 46.2914 63.6119 46.2914 63.5848C46.2912 62.7911 46.2912 62.0636 46.3707 61.4718C46.4584 60.8201 46.6644 60.1313 47.2311 59.5648C47.7976 58.9981 48.4864 58.7921 49.1382 58.7044C49.73 58.6249 50.4574 58.625 51.2511 58.625ZM49.1801 61.5069L49.1756 61.5092L49.1732 61.5138C49.1713 61.5173 49.1682 61.5234 49.1645 61.5327C49.148 61.5727 49.12 61.6612 49.0962 61.8383C49.0443 62.2246 49.0414 62.7636 49.0414 63.6667V71C49.0414 71.9031 49.0443 72.4421 49.0962 72.8284C49.12 73.0055 49.148 73.0943 49.1645 73.134C49.1682 73.1434 49.1713 73.1494 49.1732 73.1529L49.1756 73.1575L49.1801 73.1599C49.1836 73.1619 49.1897 73.1648 49.199 73.1685C49.2388 73.185 49.3275 73.2131 49.5046 73.2369C49.8909 73.2888 50.4299 73.2917 51.333 73.2917H54.9997C55.9028 73.2917 56.4418 73.2888 56.8281 73.2369C57.0052 73.2131 57.0939 73.185 57.1337 73.1685C57.143 73.1648 57.1491 73.1619 57.1526 73.1599L57.1572 73.1575L57.1595 73.1529C57.1614 73.1494 57.1645 73.1434 57.1682 73.134C57.1847 73.0943 57.2127 73.0055 57.2365 72.8284C57.2884 72.4421 57.2913 71.9031 57.2913 71V63.6667C57.2913 62.7636 57.2884 62.2246 57.2365 61.8383C57.2127 61.6612 57.1847 61.5727 57.1682 61.5327C57.166 61.5272 57.1639 61.5228 57.1625 61.5193L57.1595 61.5138L57.1572 61.5092L57.1526 61.5069C57.1491 61.505 57.143 61.5019 57.1337 61.4982C57.0939 61.4817 57.0052 61.4537 56.8281 61.4299C56.4418 61.378 55.9028 61.375 54.9997 61.375H51.333C50.4299 61.375 49.8909 61.378 49.5046 61.4299C49.3275 61.4537 49.2388 61.4817 49.199 61.4982C49.1897 61.5019 49.1836 61.505 49.1801 61.5069ZM30.8467 68.8402L30.8423 68.8426L30.8398 68.8472C30.8379 68.8506 30.8349 68.8567 30.8311 68.866C30.8147 68.906 30.7867 68.9946 30.7629 69.1717C30.7109 69.5579 30.708 70.0969 30.708 71C30.708 71.9031 30.7109 72.4421 30.7629 72.8284C30.7867 73.0055 30.8147 73.0943 30.8311 73.134C30.8349 73.1434 30.8379 73.1494 30.8398 73.1529L30.8423 73.1575L30.8467 73.1599C30.8503 73.1619 30.8564 73.1648 30.8656 73.1685C30.9055 73.185 30.9942 73.2131 31.1712 73.2369C31.5576 73.2888 32.0966 73.2917 32.9997 73.2917H36.6663C37.5695 73.2917 38.1085 73.2888 38.4948 73.2369C38.6718 73.2131 38.7605 73.185 38.8004 73.1685C38.8051 73.1667 38.8121 73.1636 38.8121 73.1636L38.8193 73.1599L38.8237 73.1575L38.8263 73.1529L38.8289 73.1476C38.8306 73.1441 38.8326 73.1397 38.8349 73.134C38.8513 73.0943 38.8793 73.0055 38.9032 72.8284C38.9551 72.4421 38.958 71.9031 38.958 71C38.958 70.0969 38.9551 69.5579 38.9032 69.1717C38.8793 68.9946 38.8513 68.906 38.8349 68.866C38.8311 68.8567 38.8281 68.8506 38.8263 68.8472L38.8237 68.8426L38.8193 68.8402C38.8157 68.8384 38.8097 68.8352 38.8004 68.8316C38.7605 68.8151 38.6718 68.787 38.4948 68.7632C38.1085 68.7113 37.5695 68.7084 36.6663 68.7084H32.9997C32.0966 68.7084 31.5576 68.7113 31.1712 68.7632C30.9942 68.787 30.9055 68.8151 30.8656 68.8316C30.8564 68.8352 30.8503 68.8384 30.8467 68.8402ZM32.9177 65.9584H36.7484C37.5419 65.9584 38.2694 65.9582 38.8612 66.0378C39.5129 66.1254 40.2018 66.3315 40.7682 66.8981C41.3349 67.4646 41.541 68.1534 41.6286 68.8052C41.7082 69.397 41.7082 70.1244 41.708 70.9181V71.0822C41.7082 71.8756 41.7082 72.6031 41.6286 73.1949C41.541 73.8467 41.3349 74.5354 40.7682 75.1019C40.2018 75.6686 39.5129 75.8747 38.8612 75.9623C38.2694 76.0419 37.5419 76.0419 36.7484 76.0417H32.9176C32.1242 76.0419 31.3966 76.0419 30.8048 75.9623C30.1531 75.8747 29.4643 75.6686 28.8977 75.1019C28.3312 74.5354 28.125 73.8467 28.0374 73.1949C27.9578 72.6031 27.9579 71.8756 27.958 71.0822V70.9181C27.9579 70.1244 27.9578 69.397 28.0374 68.8052C28.125 68.1534 28.3312 67.4646 28.8977 66.8981C29.4643 66.3315 30.1531 66.1254 30.8048 66.0378C31.3966 65.9582 32.1242 65.9584 32.9177 65.9584Z" fill="black"/>
<path d="M75.192 70V50.4H83.172C85.2627 50.4 87.092 50.82 88.66 51.66C90.2467 52.4813 91.4787 53.6293 92.356 55.104C93.2333 56.5787 93.672 58.2773 93.672 60.2C93.672 62.1227 93.2333 63.8213 92.356 65.296C91.4787 66.7707 90.2467 67.928 88.66 68.768C87.092 69.5893 85.2627 70 83.172 70H75.192ZM77.264 68.208H83.06C84.796 68.208 86.2987 67.872 87.568 67.2C88.856 66.5093 89.8547 65.5667 90.564 64.372C91.2733 63.1587 91.628 61.768 91.628 60.2C91.628 58.6133 91.2733 57.2227 90.564 56.028C89.8547 54.8333 88.856 53.9 87.568 53.228C86.2987 52.5373 84.796 52.192 83.06 52.192H77.264V68.208ZM106.697 70V66.752L106.613 66.22V60.788C106.613 59.5373 106.258 58.576 105.549 57.904C104.858 57.232 103.822 56.896 102.441 56.896C101.489 56.896 100.583 57.0547 99.7248 57.372C98.8661 57.6893 98.1381 58.1093 97.5408 58.632L96.6448 57.148C97.3915 56.5133 98.2875 56.028 99.3328 55.692C100.378 55.3373 101.479 55.16 102.637 55.16C104.541 55.16 106.006 55.636 107.033 56.588C108.078 57.5213 108.601 58.9493 108.601 60.872V70H106.697ZM101.629 70.14C100.527 70.14 99.5661 69.9627 98.7448 69.608C97.9421 69.2347 97.3261 68.7307 96.8968 68.096C96.4675 67.4427 96.2528 66.696 96.2528 65.856C96.2528 65.0907 96.4301 64.4 96.7848 63.784C97.1581 63.1493 97.7555 62.6453 98.5768 62.272C99.4168 61.88 100.537 61.684 101.937 61.684H107.005V63.168H101.993C100.574 63.168 99.5848 63.42 99.0248 63.924C98.4835 64.428 98.2128 65.0533 98.2128 65.8C98.2128 66.64 98.5395 67.312 99.1928 67.816C99.8461 68.32 100.761 68.572 101.937 68.572C103.057 68.572 104.018 68.32 104.821 67.816C105.642 67.2933 106.239 66.5467 106.613 65.576L107.061 66.948C106.687 67.9187 106.034 68.6933 105.101 69.272C104.186 69.8507 103.029 70.14 101.629 70.14ZM117.528 70.14C116.315 70.14 115.167 69.972 114.084 69.636C113.002 69.2813 112.152 68.8427 111.536 68.32L112.432 66.752C113.03 67.2 113.795 67.592 114.728 67.928C115.662 68.2453 116.642 68.404 117.668 68.404C119.068 68.404 120.076 68.1893 120.692 67.76C121.308 67.312 121.616 66.724 121.616 65.996C121.616 65.4547 121.439 65.0347 121.084 64.736C120.748 64.4187 120.3 64.1853 119.74 64.036C119.18 63.868 118.555 63.728 117.864 63.616C117.174 63.504 116.483 63.3733 115.792 63.224C115.12 63.0747 114.504 62.86 113.944 62.58C113.384 62.2813 112.927 61.88 112.572 61.376C112.236 60.872 112.068 60.2 112.068 59.36C112.068 58.5573 112.292 57.8387 112.74 57.204C113.188 56.5693 113.842 56.0747 114.7 55.72C115.578 55.3467 116.642 55.16 117.892 55.16C118.844 55.16 119.796 55.2907 120.748 55.552C121.7 55.7947 122.484 56.1213 123.1 56.532L122.232 58.128C121.579 57.68 120.879 57.3627 120.132 57.176C119.386 56.9707 118.639 56.868 117.892 56.868C116.567 56.868 115.587 57.1013 114.952 57.568C114.336 58.016 114.028 58.5947 114.028 59.304C114.028 59.864 114.196 60.3027 114.532 60.62C114.887 60.9373 115.344 61.1893 115.904 61.376C116.483 61.544 117.108 61.684 117.78 61.796C118.471 61.908 119.152 62.048 119.824 62.216C120.515 62.3653 121.14 62.58 121.7 62.86C122.279 63.1213 122.736 63.504 123.072 64.008C123.427 64.4933 123.604 65.1373 123.604 65.94C123.604 66.7987 123.362 67.5453 122.876 68.18C122.41 68.796 121.719 69.2813 120.804 69.636C119.908 69.972 118.816 70.14 117.528 70.14ZM134.336 55.16C135.531 55.16 136.576 55.3933 137.472 55.86C138.387 56.308 139.096 56.9987 139.6 57.932C140.123 58.8653 140.384 60.0413 140.384 61.46V70H138.396V61.656C138.396 60.1067 138.004 58.94 137.22 58.156C136.455 57.3533 135.372 56.952 133.972 56.952C132.927 56.952 132.012 57.1667 131.228 57.596C130.463 58.0067 129.866 58.6133 129.436 59.416C129.026 60.2 128.82 61.152 128.82 62.272V70H126.832V49.224H128.82V59.332L128.428 58.576C128.895 57.512 129.642 56.6813 130.668 56.084C131.695 55.468 132.918 55.16 134.336 55.16ZM152.922 70.14C151.634 70.14 150.477 69.8507 149.45 69.272C148.424 68.6747 147.612 67.816 147.014 66.696C146.417 65.576 146.118 64.2227 146.118 62.636C146.118 61.0307 146.417 59.6773 147.014 58.576C147.63 57.456 148.452 56.6067 149.478 56.028C150.505 55.4493 151.653 55.16 152.922 55.16C154.322 55.16 155.573 55.4773 156.674 56.112C157.794 56.728 158.672 57.596 159.306 58.716C159.941 59.836 160.258 61.1427 160.258 62.636C160.258 64.1107 159.941 65.4173 159.306 66.556C158.672 67.676 157.794 68.5533 156.674 69.188C155.573 69.8227 154.322 70.14 152.922 70.14ZM145.334 70V49.224H147.322V59.64L147.042 62.608L147.238 65.576V70H145.334ZM152.782 68.376C153.828 68.376 154.761 68.1427 155.582 67.676C156.404 67.1907 157.057 66.5187 157.542 65.66C158.028 64.7827 158.27 63.7747 158.27 62.636C158.27 61.4787 158.028 60.4707 157.542 59.612C157.057 58.7533 156.404 58.0907 155.582 57.624C154.761 57.1387 153.828 56.896 152.782 56.896C151.737 56.896 150.794 57.1387 149.954 57.624C149.133 58.0907 148.48 58.7533 147.994 59.612C147.528 60.4707 147.294 61.4787 147.294 62.636C147.294 63.7747 147.528 64.7827 147.994 65.66C148.48 66.5187 149.133 67.1907 149.954 67.676C150.794 68.1427 151.737 68.376 152.782 68.376ZM169.883 70.14C168.464 70.14 167.185 69.8227 166.047 69.188C164.927 68.5347 164.04 67.648 163.387 66.528C162.733 65.3893 162.407 64.092 162.407 62.636C162.407 61.1613 162.733 59.864 163.387 58.744C164.04 57.624 164.927 56.7467 166.047 56.112C167.167 55.4773 168.445 55.16 169.883 55.16C171.339 55.16 172.627 55.4773 173.747 56.112C174.885 56.7467 175.772 57.624 176.407 58.744C177.06 59.864 177.387 61.1613 177.387 62.636C177.387 64.092 177.06 65.3893 176.407 66.528C175.772 67.648 174.885 68.5347 173.747 69.188C172.608 69.8227 171.32 70.14 169.883 70.14ZM169.883 68.376C170.947 68.376 171.889 68.1427 172.711 67.676C173.532 67.1907 174.176 66.5187 174.643 65.66C175.128 64.7827 175.371 63.7747 175.371 62.636C175.371 61.4787 175.128 60.4707 174.643 59.612C174.176 58.7533 173.532 58.0907 172.711 57.624C171.889 57.1387 170.956 56.896 169.911 56.896C168.865 56.896 167.932 57.1387 167.111 57.624C166.289 58.0907 165.636 58.7533 165.151 59.612C164.665 60.4707 164.423 61.4787 164.423 62.636C164.423 63.7747 164.665 64.7827 165.151 65.66C165.636 66.5187 166.289 67.1907 167.111 67.676C167.932 68.1427 168.856 68.376 169.883 68.376ZM190.155 70V66.752L190.071 66.22V60.788C190.071 59.5373 189.717 58.576 189.007 57.904C188.317 57.232 187.281 56.896 185.899 56.896C184.947 56.896 184.042 57.0547 183.183 57.372C182.325 57.6893 181.597 58.1093 180.999 58.632L180.103 57.148C180.85 56.5133 181.746 56.028 182.791 55.692C183.837 55.3373 184.938 55.16 186.095 55.16C187.999 55.16 189.465 55.636 190.491 56.588C191.537 57.5213 192.059 58.9493 192.059 60.872V70H190.155ZM185.087 70.14C183.986 70.14 183.025 69.9627 182.203 69.608C181.401 69.2347 180.785 68.7307 180.355 68.096C179.926 67.4427 179.711 66.696 179.711 65.856C179.711 65.0907 179.889 64.4 180.243 63.784C180.617 63.1493 181.214 62.6453 182.035 62.272C182.875 61.88 183.995 61.684 185.395 61.684H190.463V63.168H185.451C184.033 63.168 183.043 63.42 182.483 63.924C181.942 64.428 181.671 65.0533 181.671 65.8C181.671 66.64 181.998 67.312 182.651 67.816C183.305 68.32 184.219 68.572 185.395 68.572C186.515 68.572 187.477 68.32 188.279 67.816C189.101 67.2933 189.698 66.5467 190.071 65.576L190.519 66.948C190.146 67.9187 189.493 68.6933 188.559 69.272C187.645 69.8507 186.487 70.14 185.087 70.14ZM197.039 70V55.3H198.943V59.304L198.747 58.604C199.158 57.484 199.848 56.6347 200.819 56.056C201.79 55.4587 202.994 55.16 204.431 55.16V57.092C204.356 57.092 204.282 57.092 204.207 57.092C204.132 57.0733 204.058 57.064 203.983 57.064C202.434 57.064 201.22 57.54 200.343 58.492C199.466 59.4253 199.027 60.76 199.027 62.496V70H197.039ZM213.354 70.14C211.954 70.14 210.694 69.8227 209.574 69.188C208.473 68.5533 207.605 67.676 206.97 66.556C206.335 65.4173 206.018 64.1107 206.018 62.636C206.018 61.1427 206.335 59.836 206.97 58.716C207.605 57.596 208.473 56.728 209.574 56.112C210.694 55.4773 211.954 55.16 213.354 55.16C214.642 55.16 215.79 55.4493 216.798 56.028C217.825 56.6067 218.637 57.456 219.234 58.576C219.85 59.6773 220.158 61.0307 220.158 62.636C220.158 64.2227 219.859 65.576 219.262 66.696C218.665 67.816 217.853 68.6747 216.826 69.272C215.818 69.8507 214.661 70.14 213.354 70.14ZM213.494 68.376C214.539 68.376 215.473 68.1427 216.294 67.676C217.134 67.1907 217.787 66.5187 218.254 65.66C218.739 64.7827 218.982 63.7747 218.982 62.636C218.982 61.4787 218.739 60.4707 218.254 59.612C217.787 58.7533 217.134 58.0907 216.294 57.624C215.473 57.1387 214.539 56.896 213.494 56.896C212.467 56.896 211.543 57.1387 210.722 57.624C209.901 58.0907 209.247 58.7533 208.762 59.612C208.277 60.4707 208.034 61.4787 208.034 62.636C208.034 63.7747 208.277 64.7827 208.762 65.66C209.247 66.5187 209.901 67.1907 210.722 67.676C211.543 68.1427 212.467 68.376 213.494 68.376ZM219.038 70V65.576L219.234 62.608L218.954 59.64V49.224H220.942V70H219.038Z" fill="#443752"/>
<path d="M406.192 72V52.4H408.264V70.208H419.24V72H406.192ZM419.124 72L428.084 52.4H430.128L439.088 72H436.904L428.672 53.604H429.512L421.28 72H419.124ZM422.652 66.764L423.268 65.084H434.664L435.28 66.764H422.652ZM441.911 72V52.4H450.367C452.551 52.4 454.24 52.8387 455.435 53.716C456.648 54.5933 457.255 55.8347 457.255 57.44C457.255 58.504 457.003 59.4 456.499 60.128C456.013 60.856 455.341 61.4067 454.483 61.78C453.643 62.1533 452.719 62.34 451.711 62.34L452.187 61.668C453.437 61.668 454.511 61.864 455.407 62.256C456.321 62.6293 457.031 63.1987 457.535 63.964C458.039 64.7107 458.291 65.644 458.291 66.764C458.291 68.4253 457.675 69.7133 456.443 70.628C455.229 71.5427 453.391 72 450.927 72H441.911ZM443.983 70.292H450.899C452.616 70.292 453.932 70.0027 454.847 69.424C455.761 68.8267 456.219 67.884 456.219 66.596C456.219 65.3267 455.761 64.4027 454.847 63.824C453.932 63.2267 452.616 62.928 450.899 62.928H443.759V61.22H450.227C451.795 61.22 453.008 60.9213 453.867 60.324C454.744 59.7267 455.183 58.84 455.183 57.664C455.183 56.4693 454.744 55.5827 453.867 55.004C453.008 54.4067 451.795 54.108 450.227 54.108H443.983V70.292ZM467.996 65.28V63.544H475.332V65.28H467.996ZM488.368 72V53.24L489.264 54.192H483.748V52.4H490.384V72H488.368Z" fill="#2F2E41"/>
<path d="M606.192 72V52.4H608.264V70.208H619.24V72H606.192ZM619.124 72L628.084 52.4H630.128L639.088 72H636.904L628.672 53.604H629.512L621.28 72H619.124ZM622.652 66.764L623.268 65.084H634.664L635.28 66.764H622.652ZM641.911 72V52.4H650.367C652.551 52.4 654.24 52.8387 655.435 53.716C656.648 54.5933 657.255 55.8347 657.255 57.44C657.255 58.504 657.003 59.4 656.499 60.128C656.013 60.856 655.341 61.4067 654.483 61.78C653.643 62.1533 652.719 62.34 651.711 62.34L652.187 61.668C653.437 61.668 654.511 61.864 655.407 62.256C656.321 62.6293 657.031 63.1987 657.535 63.964C658.039 64.7107 658.291 65.644 658.291 66.764C658.291 68.4253 657.675 69.7133 656.443 70.628C655.229 71.5427 653.391 72 650.927 72H641.911ZM643.983 70.292H650.899C652.616 70.292 653.932 70.0027 654.847 69.424C655.761 68.8267 656.219 67.884 656.219 66.596C656.219 65.3267 655.761 64.4027 654.847 63.824C653.932 63.2267 652.616 62.928 650.899 62.928H643.759V61.22H650.227C651.795 61.22 653.008 60.9213 653.867 60.324C654.744 59.7267 655.183 58.84 655.183 57.664C655.183 56.4693 654.744 55.5827 653.867 55.004C653.008 54.4067 651.795 54.108 650.227 54.108H643.983V70.292ZM667.996 65.28V63.544H675.332V65.28H667.996ZM684.588 72V70.572L692.736 62.592C693.482 61.864 694.042 61.2293 694.416 60.688C694.789 60.128 695.041 59.6053 695.172 59.12C695.302 58.6347 695.368 58.1773 695.368 57.748C695.368 56.6093 694.976 55.7133 694.192 55.06C693.426 54.4067 692.288 54.08 690.776 54.08C689.618 54.08 688.592 54.2573 687.696 54.612C686.818 54.9667 686.062 55.5173 685.428 56.264L684 55.032C684.765 54.136 685.745 53.4453 686.94 52.96C688.134 52.4747 689.469 52.232 690.944 52.232C692.269 52.232 693.417 52.4467 694.388 52.876C695.358 53.2867 696.105 53.8933 696.628 54.696C697.169 55.4987 697.44 56.4413 697.44 57.524C697.44 58.1587 697.346 58.784 697.16 59.4C696.992 60.016 696.674 60.6693 696.208 61.36C695.76 62.032 695.097 62.7973 694.22 63.656L686.744 70.992L686.184 70.208H698.336V72H684.588Z" fill="#2F2E41"/>
<path d="M812.192 72V52.4H814.264V70.208H825.24V72H812.192ZM825.124 72L834.084 52.4H836.128L845.088 72H842.904L834.672 53.604H835.512L827.28 72H825.124ZM828.652 66.764L829.268 65.084H840.664L841.28 66.764H828.652ZM847.911 72V52.4H856.367C858.551 52.4 860.24 52.8387 861.435 53.716C862.648 54.5933 863.255 55.8347 863.255 57.44C863.255 58.504 863.003 59.4 862.499 60.128C862.013 60.856 861.341 61.4067 860.483 61.78C859.643 62.1533 858.719 62.34 857.711 62.34L858.187 61.668C859.437 61.668 860.511 61.864 861.407 62.256C862.321 62.6293 863.031 63.1987 863.535 63.964C864.039 64.7107 864.291 65.644 864.291 66.764C864.291 68.4253 863.675 69.7133 862.443 70.628C861.229 71.5427 859.391 72 856.927 72H847.911ZM849.983 70.292H856.899C858.616 70.292 859.932 70.0027 860.847 69.424C861.761 68.8267 862.219 67.884 862.219 66.596C862.219 65.3267 861.761 64.4027 860.847 63.824C859.932 63.2267 858.616 62.928 856.899 62.928H849.759V61.22H856.227C857.795 61.22 859.008 60.9213 859.867 60.324C860.744 59.7267 861.183 58.84 861.183 57.664C861.183 56.4693 860.744 55.5827 859.867 55.004C859.008 54.4067 857.795 54.108 856.227 54.108H849.983V70.292ZM873.996 65.28V63.544H881.332V65.28H873.996ZM896.804 72.168C895.385 72.168 894.041 71.944 892.772 71.496C891.521 71.0293 890.513 70.4133 889.748 69.648L890.728 68.052C891.362 68.7053 892.212 69.2467 893.276 69.676C894.358 70.1053 895.534 70.32 896.804 70.32C898.428 70.32 899.669 69.9653 900.528 69.256C901.405 68.5467 901.844 67.5947 901.844 66.4C901.844 65.2053 901.414 64.2533 900.556 63.544C899.716 62.8347 898.381 62.48 896.552 62.48H895.152V60.996L901.2 53.408L901.48 54.192H890.56V52.4H903.16V53.828L897.112 61.416L896.132 60.772H896.888C899.24 60.772 900.994 61.2947 902.152 62.34C903.328 63.3853 903.916 64.7293 903.916 66.372C903.916 67.4733 903.654 68.4627 903.132 69.34C902.609 70.2173 901.816 70.908 900.752 71.412C899.706 71.916 898.39 72.168 896.804 72.168Z" fill="#2F2E41"/>
<path d="M1146.15 60.5133C1147.31 59.2671 1147.97 57.6327 1147.99 55.93C1147.99 54.092 1147.26 52.3293 1145.96 51.0297C1144.66 49.7301 1142.89 49 1141.06 49C1139.22 49 1137.45 49.7301 1136.16 51.0297C1134.86 52.3293 1134.13 54.092 1134.13 55.93C1134.14 57.6327 1134.8 59.2671 1135.96 60.5133C1134.34 61.3179 1132.95 62.5115 1131.91 63.9868C1130.87 65.4621 1130.22 67.1728 1130 68.965C1129.95 69.4512 1130.09 69.9388 1130.39 70.3204C1130.7 70.702 1131.15 70.9465 1131.63 71C1132.12 71.0534 1132.61 70.9116 1132.99 70.6056C1133.37 70.2996 1133.61 69.8545 1133.67 69.3683C1133.89 67.592 1134.75 65.9571 1136.09 64.7715C1137.43 63.5859 1139.16 62.9314 1140.95 62.9314C1142.73 62.9314 1144.46 63.5859 1145.8 64.7715C1147.14 65.9571 1148 67.592 1148.22 69.3683C1148.27 69.8384 1148.51 70.2706 1148.87 70.5747C1149.23 70.8787 1149.7 71.0311 1150.17 71H1150.37C1150.85 70.9447 1151.29 70.7017 1151.59 70.3239C1151.89 69.9462 1152.03 69.4643 1151.98 68.9833C1151.78 67.2005 1151.15 65.4945 1150.13 64.0169C1149.11 62.5392 1147.75 61.3357 1146.15 60.5133V60.5133ZM1141 59.1933C1140.35 59.1933 1139.72 59.0019 1139.19 58.6433C1138.65 58.2847 1138.23 57.7751 1137.99 57.1788C1137.74 56.5825 1137.67 55.9263 1137.8 55.2933C1137.93 54.6603 1138.24 54.0788 1138.69 53.6224C1139.15 53.166 1139.73 52.8552 1140.36 52.7293C1141 52.6034 1141.65 52.668 1142.25 52.915C1142.85 53.162 1143.36 53.5803 1143.71 54.1169C1144.07 54.6536 1144.26 55.2845 1144.26 55.93C1144.26 56.7954 1143.92 57.6255 1143.31 58.2375C1142.7 58.8495 1141.87 59.1933 1141 59.1933V59.1933ZM1153.83 41.6666H1128.17C1126.71 41.6666 1125.31 42.2461 1124.28 43.2775C1123.25 44.309 1122.67 45.7079 1122.67 47.1666V72.8333C1122.67 74.292 1123.25 75.6909 1124.28 76.7224C1125.31 77.7538 1126.71 78.3333 1128.17 78.3333H1153.83C1155.29 78.3333 1156.69 77.7538 1157.72 76.7224C1158.75 75.6909 1159.33 74.292 1159.33 72.8333V47.1666C1159.33 45.7079 1158.75 44.309 1157.72 43.2775C1156.69 42.2461 1155.29 41.6666 1153.83 41.6666ZM1155.67 72.8333C1155.67 73.3195 1155.47 73.7858 1155.13 74.1297C1154.79 74.4735 1154.32 74.6666 1153.83 74.6666H1128.17C1127.68 74.6666 1127.21 74.4735 1126.87 74.1297C1126.53 73.7858 1126.33 73.3195 1126.33 72.8333V47.1666C1126.33 46.6804 1126.53 46.2141 1126.87 45.8703C1127.21 45.5264 1127.68 45.3333 1128.17 45.3333H1153.83C1154.32 45.3333 1154.79 45.5264 1155.13 45.8703C1155.47 46.2141 1155.67 46.6804 1155.67 47.1666V72.8333Z" fill="black"/>
<path d="M1182.7 70.168C1181.23 70.168 1179.87 69.9253 1178.62 69.44C1177.37 68.936 1176.28 68.236 1175.37 67.34C1174.45 66.444 1173.73 65.3893 1173.21 64.176C1172.71 62.9627 1172.46 61.6373 1172.46 60.2C1172.46 58.7627 1172.71 57.4373 1173.21 56.224C1173.73 55.0107 1174.45 53.956 1175.37 53.06C1176.3 52.164 1177.39 51.4733 1178.64 50.988C1179.89 50.484 1181.26 50.232 1182.73 50.232C1184.15 50.232 1185.49 50.4747 1186.74 50.96C1187.99 51.4267 1189.04 52.136 1189.9 53.088L1188.58 54.404C1187.78 53.5827 1186.89 52.9947 1185.92 52.64C1184.95 52.2667 1183.91 52.08 1182.79 52.08C1181.61 52.08 1180.52 52.2853 1179.51 52.696C1178.5 53.088 1177.63 53.6573 1176.88 54.404C1176.13 55.132 1175.55 55.9907 1175.12 56.98C1174.71 57.9507 1174.5 59.024 1174.5 60.2C1174.5 61.376 1174.71 62.4587 1175.12 63.448C1175.55 64.4187 1176.13 65.2773 1176.88 66.024C1177.63 66.752 1178.5 67.3213 1179.51 67.732C1180.52 68.124 1181.61 68.32 1182.79 68.32C1183.91 68.32 1184.95 68.1333 1185.92 67.76C1186.89 67.3867 1187.78 66.7893 1188.58 65.968L1189.9 67.284C1189.04 68.236 1187.99 68.9547 1186.74 69.44C1185.49 69.9253 1184.14 70.168 1182.7 70.168ZM1198.81 70.14C1197.39 70.14 1196.12 69.8227 1194.98 69.188C1193.86 68.5347 1192.97 67.648 1192.32 66.528C1191.66 65.3893 1191.34 64.092 1191.34 62.636C1191.34 61.1613 1191.66 59.864 1192.32 58.744C1192.97 57.624 1193.86 56.7467 1194.98 56.112C1196.1 55.4773 1197.38 55.16 1198.81 55.16C1200.27 55.16 1201.56 55.4773 1202.68 56.112C1203.82 56.7467 1204.7 57.624 1205.34 58.744C1205.99 59.864 1206.32 61.1613 1206.32 62.636C1206.32 64.092 1205.99 65.3893 1205.34 66.528C1204.7 67.648 1203.82 68.5347 1202.68 69.188C1201.54 69.8227 1200.25 70.14 1198.81 70.14ZM1198.81 68.376C1199.88 68.376 1200.82 68.1427 1201.64 67.676C1202.46 67.1907 1203.11 66.5187 1203.57 65.66C1204.06 64.7827 1204.3 63.7747 1204.3 62.636C1204.3 61.4787 1204.06 60.4707 1203.57 59.612C1203.11 58.7533 1202.46 58.0907 1201.64 57.624C1200.82 57.1387 1199.89 56.896 1198.84 56.896C1197.8 56.896 1196.86 57.1387 1196.04 57.624C1195.22 58.0907 1194.57 58.7533 1194.08 59.612C1193.6 60.4707 1193.35 61.4787 1193.35 62.636C1193.35 63.7747 1193.6 64.7827 1194.08 65.66C1194.57 66.5187 1195.22 67.1907 1196.04 67.676C1196.86 68.1427 1197.79 68.376 1198.81 68.376ZM1217.46 55.16C1218.65 55.16 1219.7 55.3933 1220.6 55.86C1221.51 56.308 1222.22 56.9987 1222.72 57.932C1223.25 58.8653 1223.51 60.0413 1223.51 61.46V70H1221.52V61.656C1221.52 60.1067 1221.13 58.94 1220.34 58.156C1219.58 57.3533 1218.5 56.952 1217.1 56.952C1216.05 56.952 1215.14 57.1667 1214.35 57.596C1213.59 58.0067 1212.99 58.6133 1212.56 59.416C1212.15 60.2 1211.94 61.152 1211.94 62.272V70H1209.96V55.3H1211.86V59.332L1211.55 58.576C1212.02 57.512 1212.76 56.6813 1213.79 56.084C1214.82 55.468 1216.04 55.16 1217.46 55.16ZM1233.11 70.14C1231.72 70.14 1230.66 69.7667 1229.91 69.02C1229.17 68.2733 1228.79 67.2187 1228.79 65.856V52.052H1230.78V65.744C1230.78 66.6027 1231 67.2653 1231.43 67.732C1231.87 68.1987 1232.51 68.432 1233.33 68.432C1234.21 68.432 1234.93 68.18 1235.51 67.676L1236.21 69.104C1235.82 69.4587 1235.35 69.72 1234.79 69.888C1234.24 70.056 1233.68 70.14 1233.11 70.14ZM1226.16 56.952V55.3H1235.26V56.952H1226.16ZM1248.62 70V66.752L1248.54 66.22V60.788C1248.54 59.5373 1248.19 58.576 1247.48 57.904C1246.79 57.232 1245.75 56.896 1244.37 56.896C1243.42 56.896 1242.51 57.0547 1241.65 57.372C1240.79 57.6893 1240.07 58.1093 1239.47 58.632L1238.57 57.148C1239.32 56.5133 1240.21 56.028 1241.26 55.692C1242.31 55.3373 1243.41 55.16 1244.56 55.16C1246.47 55.16 1247.93 55.636 1248.96 56.588C1250.01 57.5213 1250.53 58.9493 1250.53 60.872V70H1248.62ZM1243.56 70.14C1242.45 70.14 1241.49 69.9627 1240.67 69.608C1239.87 69.2347 1239.25 68.7307 1238.82 68.096C1238.39 67.4427 1238.18 66.696 1238.18 65.856C1238.18 65.0907 1238.36 64.4 1238.71 63.784C1239.09 63.1493 1239.68 62.6453 1240.5 62.272C1241.34 61.88 1242.46 61.684 1243.86 61.684H1248.93V63.168H1243.92C1242.5 63.168 1241.51 63.42 1240.95 63.924C1240.41 64.428 1240.14 65.0533 1240.14 65.8C1240.14 66.64 1240.47 67.312 1241.12 67.816C1241.77 68.32 1242.69 68.572 1243.86 68.572C1244.98 68.572 1245.95 68.32 1246.75 67.816C1247.57 67.2933 1248.17 66.5467 1248.54 65.576L1248.99 66.948C1248.61 67.9187 1247.96 68.6933 1247.03 69.272C1246.11 69.8507 1244.96 70.14 1243.56 70.14ZM1261.61 70.14C1260.16 70.14 1258.85 69.8227 1257.69 69.188C1256.55 68.5347 1255.66 67.648 1255 66.528C1254.35 65.3893 1254.02 64.092 1254.02 62.636C1254.02 61.1613 1254.35 59.864 1255 58.744C1255.66 57.624 1256.55 56.7467 1257.69 56.112C1258.85 55.4773 1260.16 55.16 1261.61 55.16C1262.86 55.16 1263.99 55.4027 1265 55.888C1266.01 56.3733 1266.8 57.1013 1267.38 58.072L1265.9 59.08C1265.39 58.3333 1264.77 57.7827 1264.02 57.428C1263.27 57.0733 1262.46 56.896 1261.58 56.896C1260.54 56.896 1259.6 57.1387 1258.76 57.624C1257.92 58.0907 1257.25 58.7533 1256.77 59.612C1256.28 60.4707 1256.04 61.4787 1256.04 62.636C1256.04 63.7933 1256.28 64.8013 1256.77 65.66C1257.25 66.5187 1257.92 67.1907 1258.76 67.676C1259.6 68.1427 1260.54 68.376 1261.58 68.376C1262.46 68.376 1263.27 68.1987 1264.02 67.844C1264.77 67.4893 1265.39 66.948 1265.9 66.22L1267.38 67.228C1266.8 68.18 1266.01 68.908 1265 69.412C1263.99 69.8973 1262.86 70.14 1261.61 70.14ZM1275.68 70.14C1274.3 70.14 1273.23 69.7667 1272.49 69.02C1271.74 68.2733 1271.37 67.2187 1271.37 65.856V52.052H1273.35V65.744C1273.35 66.6027 1273.57 67.2653 1274 67.732C1274.45 68.1987 1275.08 68.432 1275.9 68.432C1276.78 68.432 1277.51 68.18 1278.09 67.676L1278.79 69.104C1278.39 69.4587 1277.92 69.72 1277.36 69.888C1276.82 70.056 1276.26 70.14 1275.68 70.14ZM1268.73 56.952V55.3H1277.83V56.952H1268.73ZM1297.21 70.168C1294.71 70.168 1292.74 69.4493 1291.3 68.012C1289.86 66.5747 1289.14 64.4467 1289.14 61.628V50.4H1291.22V61.544C1291.22 63.8587 1291.74 65.5667 1292.78 66.668C1293.83 67.7693 1295.3 68.32 1297.21 68.32C1299.13 68.32 1300.62 67.7693 1301.66 66.668C1302.71 65.5667 1303.23 63.8587 1303.23 61.544V50.4H1305.24V61.628C1305.24 64.4467 1304.53 66.5747 1303.09 68.012C1301.67 69.4493 1299.71 70.168 1297.21 70.168ZM1314.6 70.14C1313.38 70.14 1312.23 69.972 1311.15 69.636C1310.07 69.2813 1309.22 68.8427 1308.6 68.32L1309.5 66.752C1310.1 67.2 1310.86 67.592 1311.8 67.928C1312.73 68.2453 1313.71 68.404 1314.74 68.404C1316.14 68.404 1317.14 68.1893 1317.76 67.76C1318.38 67.312 1318.68 66.724 1318.68 65.996C1318.68 65.4547 1318.51 65.0347 1318.15 64.736C1317.82 64.4187 1317.37 64.1853 1316.81 64.036C1316.25 63.868 1315.62 63.728 1314.93 63.616C1314.24 63.504 1313.55 63.3733 1312.86 63.224C1312.19 63.0747 1311.57 62.86 1311.01 62.58C1310.45 62.2813 1309.99 61.88 1309.64 61.376C1309.3 60.872 1309.14 60.2 1309.14 59.36C1309.14 58.5573 1309.36 57.8387 1309.81 57.204C1310.26 56.5693 1310.91 56.0747 1311.77 55.72C1312.65 55.3467 1313.71 55.16 1314.96 55.16C1315.91 55.16 1316.86 55.2907 1317.82 55.552C1318.77 55.7947 1319.55 56.1213 1320.17 56.532L1319.3 58.128C1318.65 57.68 1317.95 57.3627 1317.2 57.176C1316.45 56.9707 1315.71 56.868 1314.96 56.868C1313.63 56.868 1312.65 57.1013 1312.02 57.568C1311.4 58.016 1311.1 58.5947 1311.1 59.304C1311.1 59.864 1311.26 60.3027 1311.6 60.62C1311.95 60.9373 1312.41 61.1893 1312.97 61.376C1313.55 61.544 1314.18 61.684 1314.85 61.796C1315.54 61.908 1316.22 62.048 1316.89 62.216C1317.58 62.3653 1318.21 62.58 1318.77 62.86C1319.35 63.1213 1319.8 63.504 1320.14 64.008C1320.49 64.4933 1320.67 65.1373 1320.67 65.94C1320.67 66.7987 1320.43 67.5453 1319.94 68.18C1319.48 68.796 1318.79 69.2813 1317.87 69.636C1316.98 69.972 1315.88 70.14 1314.6 70.14Z" fill="#443752"/>
<path fill-rule="evenodd" clip-rule="evenodd" d="M366.665 42.8292C366.876 42.7236 367.124 42.7236 367.336 42.8292L383.836 51.0792C384.09 51.2062 384.25 51.4659 384.25 51.75C384.25 52.0341 384.09 52.2938 383.836 52.4208L367.336 60.6708C367.124 60.7764 366.876 60.7764 366.665 60.6708L350.165 52.4208C349.911 52.2938 349.75 52.0341 349.75 51.75C349.75 51.4659 349.911 51.2062 350.165 51.0792L366.665 42.8292ZM352.177 51.75L367 59.1615L381.823 51.75L367 44.3385L352.177 51.75ZM349.845 68.8024C350.046 68.4403 350.502 68.3099 350.864 68.511L367 77.4754L383.136 68.511C383.498 68.3099 383.955 68.4403 384.156 68.8024C384.357 69.1645 384.226 69.6211 383.864 69.8223L367.364 78.989C367.138 79.1148 366.862 79.1148 366.636 78.989L350.136 69.8223C349.774 69.6211 349.643 69.1645 349.845 68.8024ZM350.864 59.3444C350.502 59.1432 350.046 59.2737 349.845 59.6358C349.643 59.9979 349.774 60.4545 350.136 60.6556L366.636 69.8223C366.862 69.9481 367.138 69.9481 367.364 69.8223L383.864 60.6556C384.226 60.4545 384.357 59.9979 384.156 59.6358C383.955 59.2737 383.498 59.1432 383.136 59.3444L367 68.3087L350.864 59.3444Z" fill="#18191A"/>
<path fill-rule="evenodd" clip-rule="evenodd" d="M566.665 42.8292C566.876 42.7236 567.124 42.7236 567.336 42.8292L583.836 51.0792C584.09 51.2062 584.25 51.4659 584.25 51.75C584.25 52.0341 584.09 52.2938 583.836 52.4208L567.336 60.6708C567.124 60.7764 566.876 60.7764 566.665 60.6708L550.165 52.4208C549.911 52.2938 549.75 52.0341 549.75 51.75C549.75 51.4659 549.911 51.2062 550.165 51.0792L566.665 42.8292ZM552.177 51.75L567 59.1615L581.823 51.75L567 44.3385L552.177 51.75ZM549.845 68.8024C550.046 68.4403 550.502 68.3099 550.864 68.511L567 77.4754L583.136 68.511C583.498 68.3099 583.955 68.4403 584.156 68.8024C584.357 69.1645 584.226 69.6211 583.864 69.8223L567.364 78.989C567.138 79.1148 566.862 79.1148 566.636 78.989L550.136 69.8223C549.774 69.6211 549.643 69.1645 549.845 68.8024ZM550.864 59.3444C550.502 59.1432 550.046 59.2737 549.845 59.6358C549.643 59.9979 549.774 60.4545 550.136 60.6556L566.636 69.8223C566.862 69.9481 567.138 69.9481 567.364 69.8223L583.864 60.6556C584.226 60.4545 584.357 59.9979 584.156 59.6358C583.955 59.2737 583.498 59.1432 583.136 59.3444L567 68.3087L550.864 59.3444Z" fill="#18191A"/>
<path fill-rule="evenodd" clip-rule="evenodd" d="M772.665 42.8292C772.876 42.7236 773.124 42.7236 773.336 42.8292L789.836 51.0792C790.09 51.2062 790.25 51.4659 790.25 51.75C790.25 52.0341 790.09 52.2938 789.836 52.4208L773.336 60.6708C773.124 60.7764 772.876 60.7764 772.665 60.6708L756.165 52.4208C755.911 52.2938 755.75 52.0341 755.75 51.75C755.75 51.4659 755.911 51.2062 756.165 51.0792L772.665 42.8292ZM758.177 51.75L773 59.1615L787.823 51.75L773 44.3385L758.177 51.75ZM755.845 68.8024C756.046 68.4403 756.502 68.3099 756.864 68.511L773 77.4754L789.136 68.511C789.498 68.3099 789.955 68.4403 790.156 68.8024C790.357 69.1645 790.226 69.6211 789.864 69.8223L773.364 78.989C773.138 79.1148 772.862 79.1148 772.636 78.989L756.136 69.8223C755.774 69.6211 755.643 69.1645 755.845 68.8024ZM756.864 59.3444C756.502 59.1432 756.046 59.2737 755.845 59.6358C755.643 59.9979 755.774 60.4545 756.136 60.6556L772.636 69.8223C772.862 69.9481 773.138 69.9481 773.364 69.8223L789.864 60.6556C790.226 60.4545 790.357 59.9979 790.156 59.6358C789.955 59.2737 789.498 59.1432 789.136 59.3444L773 68.3087L756.864 59.3444Z" fill="#18191A"/>
<defs>
<filter id="filter0_d_79_627" x="310" y="13" width="220" height="104" filterUnits="userSpaceOnUse" color-interpolation-filters="sRGB">
<feFlood flood-opacity="0" result="BackgroundImageFix"/>
<feColorMatrix in="SourceAlpha" type="matrix" values="0 0 0 0 0 0 0 0 0 0 0 0 0 0 0 0 0 0 127 0" result="hardAlpha"/>
<feOffset dy="4"/>
<feGaussianBlur stdDeviation="10"/>
<feComposite in2="hardAlpha" operator="out"/>
<feColorMatrix type="matrix" values="0 0 0 0 0 0 0 0 0 0 0 0 0 0 0 0 0 0 0.25 0"/>
<feBlend mode="normal" in2="BackgroundImageFix" result="effect1_dropShadow_79_627"/>
<feBlend mode="normal" in="SourceGraphic" in2="effect1_dropShadow_79_627" result="shape"/>
</filter>
<filter id="filter1_d_79_627" x="510" y="13" width="226" height="104" filterUnits="userSpaceOnUse" color-interpolation-filters="sRGB">
<feFlood flood-opacity="0" result="BackgroundImageFix"/>
<feColorMatrix in="SourceAlpha" type="matrix" values="0 0 0 0 0 0 0 0 0 0 0 0 0 0 0 0 0 0 127 0" result="hardAlpha"/>
<feOffset dy="4"/>
<feGaussianBlur stdDeviation="10"/>
<feComposite in2="hardAlpha" operator="out"/>
<feColorMatrix type="matrix" values="0 0 0 0 0 0 0 0 0 0 0 0 0 0 0 0 0 0 0.25 0"/>
<feBlend mode="normal" in2="BackgroundImageFix" result="effect1_dropShadow_79_627"/>
<feBlend mode="normal" in="SourceGraphic" in2="effect1_dropShadow_79_627" result="shape"/>
</filter>
<filter id="filter2_d_79_627" x="716" y="13" width="226" height="104" filterUnits="userSpaceOnUse" color-interpolation-filters="sRGB">
<feFlood flood-opacity="0" result="BackgroundImageFix"/>
<feColorMatrix in="SourceAlpha" type="matrix" values="0 0 0 0 0 0 0 0 0 0 0 0 0 0 0 0 0 0 127 0" result="hardAlpha"/>
<feOffset dy="4"/>
<feGaussianBlur stdDeviation="10"/>
<feComposite in2="hardAlpha" operator="out"/>
<feColorMatrix type="matrix" values="0 0 0 0 0 0 0 0 0 0 0 0 0 0 0 0 0 0 0.25 0"/>
<feBlend mode="normal" in2="BackgroundImageFix" result="effect1_dropShadow_79_627"/>
<feBlend mode="normal" in="SourceGraphic" in2="effect1_dropShadow_79_627" result="shape"/>
</filter>
<filter id="filter3_d_79_627" x="922" y="12" width="112" height="104" filterUnits="userSpaceOnUse" color-interpolation-filters="sRGB">
<feFlood flood-opacity="0" result="BackgroundImageFix"/>
<feColorMatrix in="SourceAlpha" type="matrix" values="0 0 0 0 0 0 0 0 0 0 0 0 0 0 0 0 0 0 127 0" result="hardAlpha"/>
<feOffset dy="4"/>
<feGaussianBlur stdDeviation="10"/>
<feComposite in2="hardAlpha" operator="out"/>
<feColorMatrix type="matrix" values="0 0 0 0 0 0 0 0 0 0 0 0 0 0 0 0 0 0 0.25 0"/>
<feBlend mode="normal" in2="BackgroundImageFix" result="effect1_dropShadow_79_627"/>
<feBlend mode="normal" in="SourceGraphic" in2="effect1_dropShadow_79_627" result="shape"/>
</filter>
<linearGradient id="paint0_linear_79_627" x1="672" y1="-14.0039" x2="672" y2="175.645" gradientUnits="userSpaceOnUse">
<stop stop-color="#C742DD"/>
<stop offset="1" stop-color="#3489D7" stop-opacity="0"/>
</linearGradient>
<clipPath id="clip0_79_627">
<rect width="44" height="44" fill="white" transform="translate(956 38)"/>
</clipPath>
</defs>
</svg>
