<svg width="853" height="326" viewBox="0 0 853 326" fill="none" xmlns="http://www.w3.org/2000/svg">
<g filter="url(#filter0_d_280_112)">
<rect x="24" y="20" width="805" height="278" rx="21" fill="white"/>
</g>
<rect x="48" y="41" width="237" height="237" rx="18" fill="url(#paint0_linear_280_112)"/>
<path d="M328.36 84V61.6H337.096C339.059 61.6 340.733 61.9093 342.12 62.528C343.507 63.1467 344.573 64.0427 345.32 65.216C346.067 66.3893 346.44 67.7867 346.44 69.408C346.44 71.0293 346.067 72.4267 345.32 73.6C344.573 74.752 343.507 75.648 342.12 76.288C340.733 76.9067 339.059 77.216 337.096 77.216H330.12L331.56 75.712V84H328.36ZM331.56 76.032L330.12 74.432H337C339.048 74.432 340.595 73.9947 341.64 73.12C342.707 72.2453 343.24 71.008 343.24 69.408C343.24 67.808 342.707 66.5707 341.64 65.696C340.595 64.8213 339.048 64.384 337 64.384H330.12L331.56 62.784V76.032ZM351.043 90.4C350.232 90.4 349.443 90.2613 348.675 89.984C347.907 89.728 347.246 89.344 346.691 88.832L348.003 86.528C348.43 86.9333 348.899 87.2427 349.411 87.456C349.923 87.6693 350.467 87.776 351.043 87.776C351.79 87.776 352.408 87.584 352.899 87.2C353.39 86.816 353.848 86.1333 354.275 85.152L355.331 82.816L355.651 82.432L362.307 67.04H365.315L357.091 85.696C356.6 86.8907 356.046 87.8293 355.427 88.512C354.83 89.1947 354.168 89.6747 353.443 89.952C352.718 90.2507 351.918 90.4 351.043 90.4ZM355.075 84.544L347.331 67.04H350.531L357.123 82.144L355.075 84.544ZM377.947 84.256C376.241 84.256 374.662 83.9787 373.211 83.424C371.782 82.848 370.534 82.048 369.467 81.024C368.422 79.9787 367.601 78.7627 367.003 77.376C366.406 75.9893 366.107 74.464 366.107 72.8C366.107 71.136 366.406 69.6107 367.003 68.224C367.601 66.8373 368.433 65.632 369.499 64.608C370.566 63.5627 371.814 62.7627 373.243 62.208C374.694 61.632 376.273 61.344 377.979 61.344C379.707 61.344 381.297 61.6427 382.747 62.24C384.219 62.816 385.467 63.68 386.491 64.832L384.411 66.848C383.558 65.952 382.598 65.2907 381.531 64.864C380.465 64.416 379.323 64.192 378.107 64.192C376.849 64.192 375.675 64.4053 374.587 64.832C373.521 65.2587 372.593 65.856 371.803 66.624C371.014 67.392 370.395 68.3093 369.947 69.376C369.521 70.4213 369.307 71.5627 369.307 72.8C369.307 74.0373 369.521 75.1893 369.947 76.256C370.395 77.3013 371.014 78.208 371.803 78.976C372.593 79.744 373.521 80.3413 374.587 80.768C375.675 81.1947 376.849 81.408 378.107 81.408C379.323 81.408 380.465 81.1947 381.531 80.768C382.598 80.32 383.558 79.6373 384.411 78.72L386.491 80.736C385.467 81.888 384.219 82.7627 382.747 83.36C381.297 83.9573 379.697 84.256 377.947 84.256ZM399.184 66.88C400.571 66.88 401.787 67.1467 402.832 67.68C403.899 68.2133 404.731 69.024 405.328 70.112C405.926 71.2 406.224 72.576 406.224 74.24V84H403.152V74.592C403.152 72.9493 402.747 71.712 401.936 70.88C401.147 70.048 400.027 69.632 398.576 69.632C397.488 69.632 396.539 69.8453 395.728 70.272C394.918 70.6987 394.288 71.328 393.84 72.16C393.414 72.992 393.2 74.0267 393.2 75.264V84H390.128V60.256H393.2V71.616L392.592 70.4C393.147 69.2907 394 68.4267 395.152 67.808C396.304 67.1893 397.648 66.88 399.184 66.88ZM421.958 84V80.416L421.798 79.744V73.632C421.798 72.3307 421.414 71.328 420.646 70.624C419.899 69.8987 418.768 69.536 417.254 69.536C416.251 69.536 415.27 69.7067 414.31 70.048C413.35 70.368 412.539 70.8053 411.878 71.36L410.598 69.056C411.472 68.352 412.518 67.8187 413.734 67.456C414.971 67.072 416.262 66.88 417.606 66.88C419.931 66.88 421.723 67.4453 422.982 68.576C424.24 69.7067 424.87 71.4347 424.87 73.76V84H421.958ZM416.39 84.192C415.131 84.192 414.022 83.9787 413.062 83.552C412.123 83.1253 411.398 82.5387 410.886 81.792C410.374 81.024 410.118 80.16 410.118 79.2C410.118 78.2827 410.331 77.4507 410.758 76.704C411.206 75.9573 411.92 75.36 412.902 74.912C413.904 74.464 415.248 74.24 416.934 74.24H422.31V76.448H417.062C415.526 76.448 414.491 76.704 413.958 77.216C413.424 77.728 413.158 78.3467 413.158 79.072C413.158 79.904 413.488 80.576 414.15 81.088C414.811 81.5787 415.728 81.824 416.902 81.824C418.054 81.824 419.056 81.568 419.91 81.056C420.784 80.544 421.414 79.7973 421.798 78.816L422.406 80.928C422 81.9307 421.286 82.7307 420.262 83.328C419.238 83.904 417.947 84.192 416.39 84.192ZM430.074 84V67.04H433.018V71.648L432.73 70.496C433.2 69.3227 433.989 68.4267 435.098 67.808C436.208 67.1893 437.573 66.88 439.194 66.88V69.856C439.066 69.8347 438.938 69.824 438.81 69.824C438.704 69.824 438.597 69.824 438.49 69.824C436.848 69.824 435.546 70.3147 434.586 71.296C433.626 72.2773 433.146 73.696 433.146 75.552V84H430.074ZM463.717 66.88C465.082 66.88 466.287 67.1467 467.333 67.68C468.378 68.2133 469.189 69.024 469.765 70.112C470.362 71.2 470.661 72.576 470.661 74.24V84H467.589V74.592C467.589 72.9493 467.205 71.712 466.437 70.88C465.669 70.048 464.591 69.632 463.205 69.632C462.181 69.632 461.285 69.8453 460.517 70.272C459.749 70.6987 459.151 71.328 458.725 72.16C458.319 72.992 458.117 74.0267 458.117 75.264V84H455.045V74.592C455.045 72.9493 454.661 71.712 453.893 70.88C453.146 70.048 452.069 69.632 450.661 69.632C449.658 69.632 448.773 69.8453 448.005 70.272C447.237 70.6987 446.639 71.328 446.213 72.16C445.786 72.992 445.573 74.0267 445.573 75.264V84H442.501V67.04H445.445V71.552L444.965 70.4C445.498 69.2907 446.319 68.4267 447.429 67.808C448.538 67.1893 449.829 66.88 451.301 66.88C452.922 66.88 454.319 67.2853 455.493 68.096C456.666 68.8853 457.434 70.0907 457.797 71.712L456.549 71.2C457.061 69.8987 457.957 68.8533 459.237 68.064C460.517 67.2747 462.01 66.88 463.717 66.88Z" fill="#2F2E41"/>
<path d="M331.576 129V122.568L332.128 124.056L324.904 112.2H327.472L333.544 122.208H332.152L338.248 112.2H340.624L333.424 124.056L333.952 122.568V129H331.576ZM346.381 129.144C345.101 129.144 343.965 128.864 342.973 128.304C341.981 127.744 341.197 126.976 340.621 126C340.045 125.008 339.757 123.888 339.757 122.64C339.757 121.376 340.045 120.256 340.621 119.28C341.197 118.304 341.981 117.544 342.973 117C343.965 116.44 345.101 116.16 346.381 116.16C347.645 116.16 348.773 116.44 349.765 117C350.773 117.544 351.557 118.304 352.117 119.28C352.693 120.24 352.981 121.36 352.981 122.64C352.981 123.904 352.693 125.024 352.117 126C351.557 126.976 350.773 127.744 349.765 128.304C348.773 128.864 347.645 129.144 346.381 129.144ZM346.381 127.128C347.197 127.128 347.925 126.944 348.565 126.576C349.221 126.208 349.733 125.688 350.101 125.016C350.469 124.328 350.653 123.536 350.653 122.64C350.653 121.728 350.469 120.944 350.101 120.288C349.733 119.616 349.221 119.096 348.565 118.728C347.925 118.36 347.197 118.176 346.381 118.176C345.565 118.176 344.837 118.36 344.197 118.728C343.557 119.096 343.045 119.616 342.661 120.288C342.277 120.944 342.085 121.728 342.085 122.64C342.085 123.536 342.277 124.328 342.661 125.016C343.045 125.688 343.557 126.208 344.197 126.576C344.837 126.944 345.565 127.128 346.381 127.128ZM361.16 129.144C360.072 129.144 359.112 128.944 358.28 128.544C357.464 128.144 356.824 127.536 356.36 126.72C355.912 125.888 355.688 124.848 355.688 123.6V116.28H357.992V123.336C357.992 124.584 358.288 125.52 358.88 126.144C359.488 126.768 360.336 127.08 361.424 127.08C362.224 127.08 362.92 126.92 363.512 126.6C364.104 126.264 364.56 125.784 364.88 125.16C365.2 124.52 365.36 123.752 365.36 122.856V116.28H367.664V129H365.48V125.568L365.84 126.48C365.424 127.328 364.8 127.984 363.968 128.448C363.136 128.912 362.2 129.144 361.16 129.144ZM381.423 129.144C380.367 129.144 379.359 129 378.399 128.712C377.455 128.424 376.711 128.072 376.167 127.656L377.127 125.832C377.671 126.2 378.343 126.512 379.143 126.768C379.943 127.024 380.759 127.152 381.591 127.152C382.663 127.152 383.431 127 383.895 126.696C384.375 126.392 384.615 125.968 384.615 125.424C384.615 125.024 384.471 124.712 384.183 124.488C383.895 124.264 383.511 124.096 383.031 123.984C382.567 123.872 382.047 123.776 381.471 123.696C380.895 123.6 380.319 123.488 379.743 123.36C379.167 123.216 378.639 123.024 378.159 122.784C377.679 122.528 377.295 122.184 377.007 121.752C376.719 121.304 376.575 120.712 376.575 119.976C376.575 119.208 376.791 118.536 377.223 117.96C377.655 117.384 378.263 116.944 379.047 116.64C379.847 116.32 380.791 116.16 381.879 116.16C382.711 116.16 383.551 116.264 384.399 116.472C385.263 116.664 385.967 116.944 386.511 117.312L385.527 119.136C384.951 118.752 384.351 118.488 383.727 118.344C383.103 118.2 382.479 118.128 381.855 118.128C380.847 118.128 380.095 118.296 379.599 118.632C379.103 118.952 378.855 119.368 378.855 119.88C378.855 120.312 378.999 120.648 379.287 120.888C379.591 121.112 379.975 121.288 380.439 121.416C380.919 121.544 381.447 121.656 382.023 121.752C382.599 121.832 383.175 121.944 383.751 122.088C384.327 122.216 384.847 122.4 385.311 122.64C385.791 122.88 386.175 123.216 386.463 123.648C386.767 124.08 386.919 124.656 386.919 125.376C386.919 126.144 386.695 126.808 386.247 127.368C385.799 127.928 385.167 128.368 384.351 128.688C383.535 128.992 382.559 129.144 381.423 129.144ZM395.103 129.144C393.743 129.144 392.543 128.864 391.503 128.304C390.479 127.744 389.679 126.976 389.103 126C388.543 125.024 388.263 123.904 388.263 122.64C388.263 121.376 388.535 120.256 389.079 119.28C389.639 118.304 390.399 117.544 391.359 117C392.335 116.44 393.431 116.16 394.647 116.16C395.879 116.16 396.967 116.432 397.911 116.976C398.855 117.52 399.591 118.288 400.119 119.28C400.663 120.256 400.935 121.4 400.935 122.712C400.935 122.808 400.927 122.92 400.911 123.048C400.911 123.176 400.903 123.296 400.887 123.408H390.063V121.752H399.687L398.751 122.328C398.767 121.512 398.599 120.784 398.247 120.144C397.895 119.504 397.407 119.008 396.783 118.656C396.175 118.288 395.463 118.104 394.647 118.104C393.847 118.104 393.135 118.288 392.511 118.656C391.887 119.008 391.399 119.512 391.047 120.168C390.695 120.808 390.519 121.544 390.519 122.376V122.76C390.519 123.608 390.711 124.368 391.095 125.04C391.495 125.696 392.047 126.208 392.751 126.576C393.455 126.944 394.263 127.128 395.175 127.128C395.927 127.128 396.607 127 397.215 126.744C397.839 126.488 398.383 126.104 398.847 125.592L400.119 127.08C399.543 127.752 398.823 128.264 397.959 128.616C397.111 128.968 396.159 129.144 395.103 129.144ZM403.774 129V111.192H406.078V129H403.774ZM415.781 129.144C414.421 129.144 413.221 128.864 412.181 128.304C411.157 127.744 410.357 126.976 409.781 126C409.221 125.024 408.941 123.904 408.941 122.64C408.941 121.376 409.213 120.256 409.757 119.28C410.317 118.304 411.077 117.544 412.037 117C413.013 116.44 414.109 116.16 415.325 116.16C416.557 116.16 417.645 116.432 418.589 116.976C419.533 117.52 420.269 118.288 420.797 119.28C421.341 120.256 421.613 121.4 421.613 122.712C421.613 122.808 421.605 122.92 421.589 123.048C421.589 123.176 421.581 123.296 421.565 123.408H410.741V121.752H420.365L419.429 122.328C419.445 121.512 419.277 120.784 418.925 120.144C418.573 119.504 418.085 119.008 417.461 118.656C416.853 118.288 416.141 118.104 415.325 118.104C414.525 118.104 413.813 118.288 413.189 118.656C412.565 119.008 412.077 119.512 411.725 120.168C411.373 120.808 411.197 121.544 411.197 122.376V122.76C411.197 123.608 411.389 124.368 411.773 125.04C412.173 125.696 412.725 126.208 413.429 126.576C414.133 126.944 414.941 127.128 415.853 127.128C416.605 127.128 417.285 127 417.893 126.744C418.517 126.488 419.061 126.104 419.525 125.592L420.797 127.08C420.221 127.752 419.501 128.264 418.637 128.616C417.789 128.968 416.837 129.144 415.781 129.144ZM429.996 129.144C428.7 129.144 427.54 128.864 426.516 128.304C425.508 127.744 424.716 126.976 424.14 126C423.564 125.024 423.276 123.904 423.276 122.64C423.276 121.376 423.564 120.256 424.14 119.28C424.716 118.304 425.508 117.544 426.516 117C427.54 116.44 428.7 116.16 429.996 116.16C431.148 116.16 432.172 116.392 433.068 116.856C433.98 117.304 434.684 117.976 435.18 118.872L433.428 120C433.012 119.376 432.5 118.92 431.892 118.632C431.3 118.328 430.66 118.176 429.972 118.176C429.14 118.176 428.396 118.36 427.74 118.728C427.084 119.096 426.564 119.616 426.18 120.288C425.796 120.944 425.604 121.728 425.604 122.64C425.604 123.552 425.796 124.344 426.18 125.016C426.564 125.688 427.084 126.208 427.74 126.576C428.396 126.944 429.14 127.128 429.972 127.128C430.66 127.128 431.3 126.984 431.892 126.696C432.5 126.392 433.012 125.928 433.428 125.304L435.18 126.408C434.684 127.288 433.98 127.968 433.068 128.448C432.172 128.912 431.148 129.144 429.996 129.144ZM442.335 129.144C441.055 129.144 440.063 128.8 439.359 128.112C438.655 127.424 438.303 126.44 438.303 125.16V113.496H440.607V125.064C440.607 125.752 440.775 126.28 441.111 126.648C441.463 127.016 441.959 127.2 442.599 127.2C443.319 127.2 443.919 127 444.399 126.6L445.119 128.256C444.767 128.56 444.343 128.784 443.847 128.928C443.367 129.072 442.863 129.144 442.335 129.144ZM436.143 118.176V116.28H444.255V118.176H436.143ZM452.787 129.144C451.427 129.144 450.227 128.864 449.187 128.304C448.163 127.744 447.363 126.976 446.787 126C446.227 125.024 445.947 123.904 445.947 122.64C445.947 121.376 446.219 120.256 446.763 119.28C447.323 118.304 448.083 117.544 449.043 117C450.019 116.44 451.115 116.16 452.331 116.16C453.563 116.16 454.651 116.432 455.595 116.976C456.539 117.52 457.275 118.288 457.803 119.28C458.347 120.256 458.619 121.4 458.619 122.712C458.619 122.808 458.611 122.92 458.595 123.048C458.595 123.176 458.587 123.296 458.571 123.408H447.747V121.752H457.371L456.435 122.328C456.451 121.512 456.283 120.784 455.931 120.144C455.579 119.504 455.091 119.008 454.467 118.656C453.859 118.288 453.147 118.104 452.331 118.104C451.531 118.104 450.819 118.288 450.195 118.656C449.571 119.008 449.083 119.512 448.731 120.168C448.379 120.808 448.203 121.544 448.203 122.376V122.76C448.203 123.608 448.395 124.368 448.779 125.04C449.179 125.696 449.731 126.208 450.435 126.576C451.139 126.944 451.947 127.128 452.859 127.128C453.611 127.128 454.291 127 454.899 126.744C455.523 126.488 456.067 126.104 456.531 125.592L457.803 127.08C457.227 127.752 456.507 128.264 455.643 128.616C454.795 128.968 453.843 129.144 452.787 129.144ZM466.714 129.144C465.482 129.144 464.378 128.872 463.402 128.328C462.442 127.784 461.682 127.024 461.122 126.048C460.562 125.072 460.282 123.936 460.282 122.64C460.282 121.344 460.562 120.216 461.122 119.256C461.682 118.28 462.442 117.52 463.402 116.976C464.378 116.432 465.482 116.16 466.714 116.16C467.786 116.16 468.754 116.4 469.618 116.88C470.482 117.36 471.17 118.08 471.682 119.04C472.21 120 472.474 121.2 472.474 122.64C472.474 124.08 472.218 125.28 471.706 126.24C471.21 127.2 470.53 127.928 469.666 128.424C468.802 128.904 467.818 129.144 466.714 129.144ZM466.906 127.128C467.706 127.128 468.426 126.944 469.066 126.576C469.722 126.208 470.234 125.688 470.602 125.016C470.986 124.328 471.178 123.536 471.178 122.64C471.178 121.728 470.986 120.944 470.602 120.288C470.234 119.616 469.722 119.096 469.066 118.728C468.426 118.36 467.706 118.176 466.906 118.176C466.09 118.176 465.362 118.36 464.722 118.728C464.082 119.096 463.57 119.616 463.186 120.288C462.802 120.944 462.61 121.728 462.61 122.64C462.61 123.536 462.802 124.328 463.186 125.016C463.57 125.688 464.082 126.208 464.722 126.576C465.362 126.944 466.09 127.128 466.906 127.128ZM471.25 129V125.568L471.394 122.616L471.154 119.664V111.192H473.458V129H471.25ZM483.879 129V112.2H490.431C491.903 112.2 493.159 112.432 494.199 112.896C495.239 113.36 496.039 114.032 496.599 114.912C497.159 115.792 497.439 116.84 497.439 118.056C497.439 119.272 497.159 120.32 496.599 121.2C496.039 122.064 495.239 122.736 494.199 123.216C493.159 123.68 491.903 123.912 490.431 123.912H485.199L486.279 122.784V129H483.879ZM486.279 123.024L485.199 121.824H490.359C491.895 121.824 493.055 121.496 493.839 120.84C494.639 120.184 495.039 119.256 495.039 118.056C495.039 116.856 494.639 115.928 493.839 115.272C493.055 114.616 491.895 114.288 490.359 114.288H485.199L486.279 113.088V123.024ZM500.891 133.8C500.283 133.8 499.691 133.696 499.115 133.488C498.539 133.296 498.043 133.008 497.627 132.624L498.611 130.896C498.931 131.2 499.283 131.432 499.667 131.592C500.051 131.752 500.459 131.832 500.891 131.832C501.451 131.832 501.915 131.688 502.283 131.4C502.651 131.112 502.995 130.6 503.315 129.864L504.107 128.112L504.347 127.824L509.339 116.28H511.595L505.427 130.272C505.059 131.168 504.643 131.872 504.179 132.384C503.731 132.896 503.235 133.256 502.691 133.464C502.147 133.688 501.547 133.8 500.891 133.8ZM503.915 129.408L498.107 116.28H500.507L505.451 127.608L503.915 129.408ZM521.07 129.192C519.79 129.192 518.606 128.984 517.518 128.568C516.446 128.136 515.51 127.536 514.71 126.768C513.926 125.984 513.31 125.072 512.862 124.032C512.414 122.992 512.19 121.848 512.19 120.6C512.19 119.352 512.414 118.208 512.862 117.168C513.31 116.128 513.934 115.224 514.734 114.456C515.534 113.672 516.47 113.072 517.542 112.656C518.63 112.224 519.814 112.008 521.094 112.008C522.39 112.008 523.582 112.232 524.67 112.68C525.774 113.112 526.71 113.76 527.478 114.624L525.918 116.136C525.278 115.464 524.558 114.968 523.758 114.648C522.958 114.312 522.102 114.144 521.19 114.144C520.246 114.144 519.366 114.304 518.55 114.624C517.75 114.944 517.054 115.392 516.462 115.968C515.87 116.544 515.406 117.232 515.07 118.032C514.75 118.816 514.59 119.672 514.59 120.6C514.59 121.528 514.75 122.392 515.07 123.192C515.406 123.976 515.87 124.656 516.462 125.232C517.054 125.808 517.75 126.256 518.55 126.576C519.366 126.896 520.246 127.056 521.19 127.056C522.102 127.056 522.958 126.896 523.758 126.576C524.558 126.24 525.278 125.728 525.918 125.04L527.478 126.552C526.71 127.416 525.774 128.072 524.67 128.52C523.582 128.968 522.382 129.192 521.07 129.192ZM536.997 116.16C538.037 116.16 538.949 116.36 539.733 116.76C540.533 117.16 541.157 117.768 541.605 118.584C542.053 119.4 542.277 120.432 542.277 121.68V129H539.973V121.944C539.973 120.712 539.669 119.784 539.061 119.16C538.469 118.536 537.629 118.224 536.541 118.224C535.725 118.224 535.013 118.384 534.405 118.704C533.797 119.024 533.325 119.496 532.989 120.12C532.669 120.744 532.509 121.52 532.509 122.448V129H530.205V111.192H532.509V119.712L532.053 118.8C532.469 117.968 533.109 117.32 533.973 116.856C534.837 116.392 535.845 116.16 536.997 116.16ZM554.077 129V126.312L553.957 125.808V121.224C553.957 120.248 553.669 119.496 553.093 118.968C552.533 118.424 551.685 118.152 550.549 118.152C549.797 118.152 549.061 118.28 548.341 118.536C547.621 118.776 547.013 119.104 546.517 119.52L545.557 117.792C546.213 117.264 546.997 116.864 547.909 116.592C548.837 116.304 549.805 116.16 550.813 116.16C552.557 116.16 553.901 116.584 554.845 117.432C555.789 118.28 556.261 119.576 556.261 121.32V129H554.077ZM549.901 129.144C548.957 129.144 548.125 128.984 547.405 128.664C546.701 128.344 546.157 127.904 545.773 127.344C545.389 126.768 545.197 126.12 545.197 125.4C545.197 124.712 545.357 124.088 545.677 123.528C546.013 122.968 546.549 122.52 547.285 122.184C548.037 121.848 549.045 121.68 550.309 121.68H554.341V123.336H550.405C549.253 123.336 548.477 123.528 548.077 123.912C547.677 124.296 547.477 124.76 547.477 125.304C547.477 125.928 547.725 126.432 548.221 126.816C548.717 127.184 549.405 127.368 550.285 127.368C551.149 127.368 551.901 127.176 552.541 126.792C553.197 126.408 553.669 125.848 553.957 125.112L554.413 126.696C554.109 127.448 553.573 128.048 552.805 128.496C552.037 128.928 551.069 129.144 549.901 129.144ZM560.165 129V116.28H562.373V119.736L562.157 118.872C562.509 117.992 563.101 117.32 563.933 116.856C564.765 116.392 565.789 116.16 567.005 116.16V118.392C566.909 118.376 566.813 118.368 566.717 118.368C566.637 118.368 566.557 118.368 566.477 118.368C565.245 118.368 564.269 118.736 563.549 119.472C562.829 120.208 562.469 121.272 562.469 122.664V129H560.165ZM585.397 116.16C586.421 116.16 587.325 116.36 588.109 116.76C588.893 117.16 589.501 117.768 589.933 118.584C590.381 119.4 590.605 120.432 590.605 121.68V129H588.301V121.944C588.301 120.712 588.013 119.784 587.437 119.16C586.861 118.536 586.053 118.224 585.013 118.224C584.245 118.224 583.573 118.384 582.997 118.704C582.421 119.024 581.973 119.496 581.653 120.12C581.349 120.744 581.197 121.52 581.197 122.448V129H578.893V121.944C578.893 120.712 578.605 119.784 578.029 119.16C577.469 118.536 576.661 118.224 575.605 118.224C574.853 118.224 574.189 118.384 573.613 118.704C573.037 119.024 572.589 119.496 572.269 120.12C571.949 120.744 571.789 121.52 571.789 122.448V129H569.485V116.28H571.693V119.664L571.333 118.8C571.733 117.968 572.349 117.32 573.181 116.856C574.013 116.392 574.981 116.16 576.085 116.16C577.301 116.16 578.349 116.464 579.229 117.072C580.109 117.664 580.685 118.568 580.957 119.784L580.021 119.4C580.405 118.424 581.077 117.64 582.037 117.048C582.997 116.456 584.117 116.16 585.397 116.16ZM606.991 129V115.152C606.991 113.904 607.351 112.912 608.071 112.176C608.807 111.424 609.847 111.048 611.191 111.048C611.687 111.048 612.159 111.112 612.607 111.24C613.071 111.352 613.463 111.536 613.783 111.792L613.087 113.544C612.847 113.352 612.575 113.208 612.271 113.112C611.967 113 611.647 112.944 611.311 112.944C610.639 112.944 610.127 113.136 609.775 113.52C609.423 113.888 609.247 114.44 609.247 115.176V116.88L609.295 117.936V129H606.991ZM604.831 118.176V116.28H612.943V118.176H604.831ZM620.016 129.144C618.736 129.144 617.6 128.864 616.608 128.304C615.616 127.744 614.832 126.976 614.256 126C613.68 125.008 613.392 123.888 613.392 122.64C613.392 121.376 613.68 120.256 614.256 119.28C614.832 118.304 615.616 117.544 616.608 117C617.6 116.44 618.736 116.16 620.016 116.16C621.28 116.16 622.408 116.44 623.4 117C624.408 117.544 625.192 118.304 625.752 119.28C626.328 120.24 626.616 121.36 626.616 122.64C626.616 123.904 626.328 125.024 625.752 126C625.192 126.976 624.408 127.744 623.4 128.304C622.408 128.864 621.28 129.144 620.016 129.144ZM620.016 127.128C620.832 127.128 621.56 126.944 622.2 126.576C622.856 126.208 623.368 125.688 623.736 125.016C624.104 124.328 624.288 123.536 624.288 122.64C624.288 121.728 624.104 120.944 623.736 120.288C623.368 119.616 622.856 119.096 622.2 118.728C621.56 118.36 620.832 118.176 620.016 118.176C619.2 118.176 618.472 118.36 617.832 118.728C617.192 119.096 616.68 119.616 616.296 120.288C615.912 120.944 615.72 121.728 615.72 122.64C615.72 123.536 615.912 124.328 616.296 125.016C616.68 125.688 617.192 126.208 617.832 126.576C618.472 126.944 619.2 127.128 620.016 127.128ZM629.442 129V116.28H631.65V119.736L631.434 118.872C631.786 117.992 632.378 117.32 633.21 116.856C634.042 116.392 635.066 116.16 636.282 116.16V118.392C636.186 118.376 636.09 118.368 635.994 118.368C635.914 118.368 635.834 118.368 635.754 118.368C634.522 118.368 633.546 118.736 632.826 119.472C632.106 120.208 631.746 121.272 631.746 122.664V129H629.442ZM649.38 129.144C648.1 129.144 647.108 128.8 646.404 128.112C645.7 127.424 645.348 126.44 645.348 125.16V113.496H647.652V125.064C647.652 125.752 647.82 126.28 648.156 126.648C648.508 127.016 649.004 127.2 649.644 127.2C650.364 127.2 650.964 127 651.444 126.6L652.164 128.256C651.812 128.56 651.388 128.784 650.892 128.928C650.412 129.072 649.908 129.144 649.38 129.144ZM643.188 118.176V116.28H651.3V118.176H643.188ZM661.381 116.16C662.421 116.16 663.333 116.36 664.117 116.76C664.917 117.16 665.541 117.768 665.989 118.584C666.437 119.4 666.661 120.432 666.661 121.68V129H664.357V121.944C664.357 120.712 664.053 119.784 663.445 119.16C662.853 118.536 662.013 118.224 660.925 118.224C660.109 118.224 659.397 118.384 658.789 118.704C658.181 119.024 657.709 119.496 657.373 120.12C657.053 120.744 656.893 121.52 656.893 122.448V129H654.589V111.192H656.893V119.712L656.437 118.8C656.853 117.968 657.493 117.32 658.357 116.856C659.221 116.392 660.229 116.16 661.381 116.16ZM670.565 129V116.28H672.869V129H670.565ZM671.717 113.832C671.269 113.832 670.893 113.688 670.589 113.4C670.301 113.112 670.157 112.76 670.157 112.344C670.157 111.912 670.301 111.552 670.589 111.264C670.893 110.976 671.269 110.832 671.717 110.832C672.165 110.832 672.533 110.976 672.821 111.264C673.125 111.536 673.277 111.88 673.277 112.296C673.277 112.728 673.133 113.096 672.845 113.4C672.557 113.688 672.181 113.832 671.717 113.832ZM680.556 129.144C679.5 129.144 678.492 129 677.532 128.712C676.588 128.424 675.844 128.072 675.3 127.656L676.26 125.832C676.804 126.2 677.476 126.512 678.276 126.768C679.076 127.024 679.892 127.152 680.724 127.152C681.796 127.152 682.564 127 683.028 126.696C683.508 126.392 683.748 125.968 683.748 125.424C683.748 125.024 683.604 124.712 683.316 124.488C683.028 124.264 682.644 124.096 682.164 123.984C681.7 123.872 681.18 123.776 680.604 123.696C680.028 123.6 679.452 123.488 678.876 123.36C678.3 123.216 677.772 123.024 677.292 122.784C676.812 122.528 676.428 122.184 676.14 121.752C675.852 121.304 675.708 120.712 675.708 119.976C675.708 119.208 675.924 118.536 676.356 117.96C676.788 117.384 677.396 116.944 678.18 116.64C678.98 116.32 679.924 116.16 681.012 116.16C681.844 116.16 682.684 116.264 683.532 116.472C684.396 116.664 685.1 116.944 685.644 117.312L684.66 119.136C684.084 118.752 683.484 118.488 682.86 118.344C682.236 118.2 681.612 118.128 680.988 118.128C679.98 118.128 679.228 118.296 678.732 118.632C678.236 118.952 677.988 119.368 677.988 119.88C677.988 120.312 678.132 120.648 678.42 120.888C678.724 121.112 679.108 121.288 679.572 121.416C680.052 121.544 680.58 121.656 681.156 121.752C681.732 121.832 682.308 121.944 682.884 122.088C683.46 122.216 683.98 122.4 684.444 122.64C684.924 122.88 685.308 123.216 685.596 123.648C685.9 124.08 686.052 124.656 686.052 125.376C686.052 126.144 685.828 126.808 685.38 127.368C684.932 127.928 684.3 128.368 683.484 128.688C682.668 128.992 681.692 129.144 680.556 129.144ZM694.993 129V112.2H697.393V126.912H706.489V129H694.993ZM706.339 129L713.947 112.2H716.323L723.955 129H721.435L714.643 113.544H715.603L708.811 129H706.339ZM709.579 124.8L710.227 122.88H719.683L720.379 124.8H709.579ZM726.101 129V112.2H733.637C735.573 112.2 737.061 112.592 738.101 113.376C739.141 114.144 739.661 115.2 739.661 116.544C739.661 117.456 739.453 118.224 739.037 118.848C738.637 119.472 738.093 119.952 737.405 120.288C736.717 120.624 735.973 120.792 735.173 120.792L735.605 120.072C736.565 120.072 737.413 120.24 738.149 120.576C738.885 120.912 739.469 121.408 739.901 122.064C740.333 122.704 740.549 123.504 740.549 124.464C740.549 125.904 740.005 127.024 738.917 127.824C737.845 128.608 736.245 129 734.117 129H726.101ZM728.501 127.056H734.021C735.349 127.056 736.365 126.832 737.069 126.384C737.773 125.936 738.125 125.232 738.125 124.272C738.125 123.296 737.773 122.584 737.069 122.136C736.365 121.688 735.349 121.464 734.021 121.464H728.285V119.52H733.421C734.637 119.52 735.581 119.296 736.253 118.848C736.925 118.4 737.261 117.728 737.261 116.832C737.261 115.936 736.925 115.264 736.253 114.816C735.581 114.368 734.637 114.144 733.421 114.144H728.501V127.056ZM332.416 161.192C331.136 161.192 329.912 161 328.744 160.616C327.576 160.216 326.656 159.704 325.984 159.08L326.872 157.208C327.512 157.768 328.328 158.232 329.32 158.6C330.312 158.968 331.344 159.152 332.416 159.152C333.392 159.152 334.184 159.04 334.792 158.816C335.4 158.592 335.848 158.288 336.136 157.904C336.424 157.504 336.568 157.056 336.568 156.56C336.568 155.984 336.376 155.52 335.992 155.168C335.624 154.816 335.136 154.536 334.528 154.328C333.936 154.104 333.28 153.912 332.56 153.752C331.84 153.592 331.112 153.408 330.376 153.2C329.656 152.976 328.992 152.696 328.384 152.36C327.792 152.024 327.312 151.576 326.944 151.016C326.576 150.44 326.392 149.704 326.392 148.808C326.392 147.944 326.616 147.152 327.064 146.432C327.528 145.696 328.232 145.112 329.176 144.68C330.136 144.232 331.352 144.008 332.824 144.008C333.8 144.008 334.768 144.136 335.728 144.392C336.688 144.648 337.52 145.016 338.224 145.496L337.432 147.416C336.712 146.936 335.952 146.592 335.152 146.384C334.352 146.16 333.576 146.048 332.824 146.048C331.88 146.048 331.104 146.168 330.496 146.408C329.888 146.648 329.44 146.968 329.152 147.368C328.88 147.768 328.744 148.216 328.744 148.712C328.744 149.304 328.928 149.776 329.296 150.128C329.68 150.48 330.168 150.76 330.76 150.968C331.368 151.176 332.032 151.368 332.752 151.544C333.472 151.704 334.192 151.888 334.912 152.096C335.648 152.304 336.312 152.576 336.904 152.912C337.512 153.248 338 153.696 338.368 154.256C338.736 154.816 338.92 155.536 338.92 156.416C338.92 157.264 338.688 158.056 338.224 158.792C337.76 159.512 337.04 160.096 336.064 160.544C335.104 160.976 333.888 161.192 332.416 161.192ZM347.394 161.144C346.034 161.144 344.834 160.864 343.794 160.304C342.77 159.744 341.97 158.976 341.394 158C340.834 157.024 340.554 155.904 340.554 154.64C340.554 153.376 340.826 152.256 341.37 151.28C341.93 150.304 342.69 149.544 343.65 149C344.626 148.44 345.722 148.16 346.938 148.16C348.17 148.16 349.258 148.432 350.202 148.976C351.146 149.52 351.882 150.288 352.41 151.28C352.954 152.256 353.226 153.4 353.226 154.712C353.226 154.808 353.218 154.92 353.202 155.048C353.202 155.176 353.194 155.296 353.178 155.408H342.354V153.752H351.978L351.042 154.328C351.058 153.512 350.89 152.784 350.538 152.144C350.186 151.504 349.698 151.008 349.074 150.656C348.466 150.288 347.754 150.104 346.938 150.104C346.138 150.104 345.426 150.288 344.802 150.656C344.178 151.008 343.69 151.512 343.338 152.168C342.986 152.808 342.81 153.544 342.81 154.376V154.76C342.81 155.608 343.002 156.368 343.386 157.04C343.786 157.696 344.338 158.208 345.042 158.576C345.746 158.944 346.554 159.128 347.466 159.128C348.218 159.128 348.898 159 349.506 158.744C350.13 158.488 350.674 158.104 351.138 157.592L352.41 159.08C351.834 159.752 351.114 160.264 350.25 160.616C349.402 160.968 348.45 161.144 347.394 161.144ZM359.714 161.144C358.658 161.144 357.65 161 356.69 160.712C355.746 160.424 355.002 160.072 354.458 159.656L355.418 157.832C355.962 158.2 356.634 158.512 357.434 158.768C358.234 159.024 359.05 159.152 359.882 159.152C360.954 159.152 361.722 159 362.186 158.696C362.666 158.392 362.906 157.968 362.906 157.424C362.906 157.024 362.762 156.712 362.474 156.488C362.186 156.264 361.802 156.096 361.322 155.984C360.858 155.872 360.338 155.776 359.762 155.696C359.186 155.6 358.61 155.488 358.034 155.36C357.458 155.216 356.93 155.024 356.45 154.784C355.97 154.528 355.586 154.184 355.298 153.752C355.01 153.304 354.866 152.712 354.866 151.976C354.866 151.208 355.082 150.536 355.514 149.96C355.946 149.384 356.554 148.944 357.338 148.64C358.138 148.32 359.082 148.16 360.17 148.16C361.002 148.16 361.842 148.264 362.69 148.472C363.554 148.664 364.258 148.944 364.802 149.312L363.818 151.136C363.242 150.752 362.642 150.488 362.018 150.344C361.394 150.2 360.77 150.128 360.146 150.128C359.138 150.128 358.386 150.296 357.89 150.632C357.394 150.952 357.146 151.368 357.146 151.88C357.146 152.312 357.29 152.648 357.578 152.888C357.882 153.112 358.266 153.288 358.73 153.416C359.21 153.544 359.738 153.656 360.314 153.752C360.89 153.832 361.466 153.944 362.042 154.088C362.618 154.216 363.138 154.4 363.602 154.64C364.082 154.88 364.466 155.216 364.754 155.648C365.058 156.08 365.21 156.656 365.21 157.376C365.21 158.144 364.986 158.808 364.538 159.368C364.09 159.928 363.458 160.368 362.642 160.688C361.826 160.992 360.85 161.144 359.714 161.144ZM371.377 161.144C370.321 161.144 369.313 161 368.353 160.712C367.409 160.424 366.665 160.072 366.121 159.656L367.081 157.832C367.625 158.2 368.297 158.512 369.097 158.768C369.897 159.024 370.713 159.152 371.545 159.152C372.617 159.152 373.385 159 373.849 158.696C374.329 158.392 374.569 157.968 374.569 157.424C374.569 157.024 374.425 156.712 374.137 156.488C373.849 156.264 373.465 156.096 372.985 155.984C372.521 155.872 372.001 155.776 371.425 155.696C370.849 155.6 370.273 155.488 369.697 155.36C369.121 155.216 368.593 155.024 368.113 154.784C367.633 154.528 367.249 154.184 366.961 153.752C366.673 153.304 366.529 152.712 366.529 151.976C366.529 151.208 366.745 150.536 367.177 149.96C367.609 149.384 368.217 148.944 369.001 148.64C369.801 148.32 370.745 148.16 371.833 148.16C372.665 148.16 373.505 148.264 374.353 148.472C375.217 148.664 375.921 148.944 376.465 149.312L375.481 151.136C374.905 150.752 374.305 150.488 373.681 150.344C373.057 150.2 372.433 150.128 371.809 150.128C370.801 150.128 370.049 150.296 369.553 150.632C369.057 150.952 368.809 151.368 368.809 151.88C368.809 152.312 368.953 152.648 369.241 152.888C369.545 153.112 369.929 153.288 370.393 153.416C370.873 153.544 371.401 153.656 371.977 153.752C372.553 153.832 373.129 153.944 373.705 154.088C374.281 154.216 374.801 154.4 375.265 154.64C375.745 154.88 376.129 155.216 376.417 155.648C376.721 156.08 376.873 156.656 376.873 157.376C376.873 158.144 376.649 158.808 376.201 159.368C375.753 159.928 375.121 160.368 374.305 160.688C373.489 160.992 372.513 161.144 371.377 161.144ZM379.392 161V148.28H381.696V161H379.392ZM380.544 145.832C380.096 145.832 379.72 145.688 379.416 145.4C379.128 145.112 378.984 144.76 378.984 144.344C378.984 143.912 379.128 143.552 379.416 143.264C379.72 142.976 380.096 142.832 380.544 142.832C380.992 142.832 381.36 142.976 381.648 143.264C381.952 143.536 382.104 143.88 382.104 144.296C382.104 144.728 381.96 145.096 381.672 145.4C381.384 145.688 381.008 145.832 380.544 145.832ZM391.184 161.144C389.904 161.144 388.768 160.864 387.776 160.304C386.784 159.744 386 158.976 385.424 158C384.848 157.008 384.56 155.888 384.56 154.64C384.56 153.376 384.848 152.256 385.424 151.28C386 150.304 386.784 149.544 387.776 149C388.768 148.44 389.904 148.16 391.184 148.16C392.448 148.16 393.576 148.44 394.568 149C395.576 149.544 396.36 150.304 396.92 151.28C397.496 152.24 397.784 153.36 397.784 154.64C397.784 155.904 397.496 157.024 396.92 158C396.36 158.976 395.576 159.744 394.568 160.304C393.576 160.864 392.448 161.144 391.184 161.144ZM391.184 159.128C392 159.128 392.728 158.944 393.368 158.576C394.024 158.208 394.536 157.688 394.904 157.016C395.272 156.328 395.456 155.536 395.456 154.64C395.456 153.728 395.272 152.944 394.904 152.288C394.536 151.616 394.024 151.096 393.368 150.728C392.728 150.36 392 150.176 391.184 150.176C390.368 150.176 389.64 150.36 389 150.728C388.36 151.096 387.848 151.616 387.464 152.288C387.08 152.944 386.888 153.728 386.888 154.64C386.888 155.536 387.08 156.328 387.464 157.016C387.848 157.688 388.36 158.208 389 158.576C389.64 158.944 390.368 159.128 391.184 159.128ZM407.402 148.16C408.442 148.16 409.354 148.36 410.138 148.76C410.938 149.16 411.562 149.768 412.01 150.584C412.458 151.4 412.682 152.432 412.682 153.68V161H410.378V153.944C410.378 152.712 410.074 151.784 409.466 151.16C408.874 150.536 408.034 150.224 406.946 150.224C406.13 150.224 405.418 150.384 404.81 150.704C404.202 151.024 403.73 151.496 403.394 152.12C403.074 152.744 402.914 153.52 402.914 154.448V161H400.61V148.28H402.818V151.712L402.458 150.8C402.874 149.968 403.514 149.32 404.378 148.856C405.242 148.392 406.25 148.16 407.402 148.16Z" fill="#447DBF"/>
<path d="M329.576 203V196.568L330.128 198.056L322.904 186.2H325.472L331.544 196.208H330.152L336.248 186.2H338.624L331.424 198.056L331.952 196.568V203H329.576ZM344.381 203.144C343.101 203.144 341.965 202.864 340.973 202.304C339.981 201.744 339.197 200.976 338.621 200C338.045 199.008 337.757 197.888 337.757 196.64C337.757 195.376 338.045 194.256 338.621 193.28C339.197 192.304 339.981 191.544 340.973 191C341.965 190.44 343.101 190.16 344.381 190.16C345.645 190.16 346.773 190.44 347.765 191C348.773 191.544 349.557 192.304 350.117 193.28C350.693 194.24 350.981 195.36 350.981 196.64C350.981 197.904 350.693 199.024 350.117 200C349.557 200.976 348.773 201.744 347.765 202.304C346.773 202.864 345.645 203.144 344.381 203.144ZM344.381 201.128C345.197 201.128 345.925 200.944 346.565 200.576C347.221 200.208 347.733 199.688 348.101 199.016C348.469 198.328 348.653 197.536 348.653 196.64C348.653 195.728 348.469 194.944 348.101 194.288C347.733 193.616 347.221 193.096 346.565 192.728C345.925 192.36 345.197 192.176 344.381 192.176C343.565 192.176 342.837 192.36 342.197 192.728C341.557 193.096 341.045 193.616 340.661 194.288C340.277 194.944 340.085 195.728 340.085 196.64C340.085 197.536 340.277 198.328 340.661 199.016C341.045 199.688 341.557 200.208 342.197 200.576C342.837 200.944 343.565 201.128 344.381 201.128ZM359.16 203.144C358.072 203.144 357.112 202.944 356.28 202.544C355.464 202.144 354.824 201.536 354.36 200.72C353.912 199.888 353.688 198.848 353.688 197.6V190.28H355.992V197.336C355.992 198.584 356.288 199.52 356.88 200.144C357.488 200.768 358.336 201.08 359.424 201.08C360.224 201.08 360.92 200.92 361.512 200.6C362.104 200.264 362.56 199.784 362.88 199.16C363.2 198.52 363.36 197.752 363.36 196.856V190.28H365.664V203H363.48V199.568L363.84 200.48C363.424 201.328 362.8 201.984 361.968 202.448C361.136 202.912 360.2 203.144 359.16 203.144ZM369.69 203V190.28H371.898V193.736L371.682 192.872C372.034 191.992 372.626 191.32 373.458 190.856C374.29 190.392 375.314 190.16 376.53 190.16V192.392C376.434 192.376 376.338 192.368 376.242 192.368C376.162 192.368 376.082 192.368 376.002 192.368C374.77 192.368 373.794 192.736 373.074 193.472C372.354 194.208 371.994 195.272 371.994 196.664V203H369.69ZM389.627 203.144C388.347 203.144 387.355 202.8 386.651 202.112C385.947 201.424 385.595 200.44 385.595 199.16V187.496H387.899V199.064C387.899 199.752 388.067 200.28 388.403 200.648C388.755 201.016 389.251 201.2 389.891 201.2C390.611 201.2 391.211 201 391.691 200.6L392.411 202.256C392.059 202.56 391.635 202.784 391.139 202.928C390.659 203.072 390.155 203.144 389.627 203.144ZM383.435 192.176V190.28H391.547V192.176H383.435ZM394.836 203V190.28H397.14V203H394.836ZM395.988 187.832C395.54 187.832 395.164 187.688 394.86 187.4C394.572 187.112 394.428 186.76 394.428 186.344C394.428 185.912 394.572 185.552 394.86 185.264C395.164 184.976 395.54 184.832 395.988 184.832C396.436 184.832 396.804 184.976 397.092 185.264C397.396 185.536 397.548 185.88 397.548 186.296C397.548 186.728 397.404 187.096 397.116 187.4C396.828 187.688 396.452 187.832 395.988 187.832ZM417.092 190.16C418.116 190.16 419.02 190.36 419.804 190.76C420.588 191.16 421.196 191.768 421.628 192.584C422.076 193.4 422.3 194.432 422.3 195.68V203H419.996V195.944C419.996 194.712 419.708 193.784 419.132 193.16C418.556 192.536 417.748 192.224 416.708 192.224C415.94 192.224 415.268 192.384 414.692 192.704C414.116 193.024 413.668 193.496 413.348 194.12C413.044 194.744 412.892 195.52 412.892 196.448V203H410.588V195.944C410.588 194.712 410.3 193.784 409.724 193.16C409.164 192.536 408.356 192.224 407.3 192.224C406.548 192.224 405.884 192.384 405.308 192.704C404.732 193.024 404.284 193.496 403.964 194.12C403.644 194.744 403.484 195.52 403.484 196.448V203H401.18V190.28H403.388V193.664L403.028 192.8C403.428 191.968 404.044 191.32 404.876 190.856C405.708 190.392 406.676 190.16 407.78 190.16C408.996 190.16 410.044 190.464 410.924 191.072C411.804 191.664 412.38 192.568 412.652 193.784L411.716 193.4C412.1 192.424 412.772 191.64 413.732 191.048C414.692 190.456 415.812 190.16 417.092 190.16ZM431.843 203.144C430.483 203.144 429.283 202.864 428.243 202.304C427.219 201.744 426.419 200.976 425.843 200C425.283 199.024 425.003 197.904 425.003 196.64C425.003 195.376 425.275 194.256 425.819 193.28C426.379 192.304 427.139 191.544 428.099 191C429.075 190.44 430.171 190.16 431.387 190.16C432.619 190.16 433.707 190.432 434.651 190.976C435.595 191.52 436.331 192.288 436.859 193.28C437.403 194.256 437.675 195.4 437.675 196.712C437.675 196.808 437.667 196.92 437.651 197.048C437.651 197.176 437.643 197.296 437.627 197.408H426.803V195.752H436.427L435.491 196.328C435.507 195.512 435.339 194.784 434.987 194.144C434.635 193.504 434.147 193.008 433.523 192.656C432.915 192.288 432.203 192.104 431.387 192.104C430.587 192.104 429.875 192.288 429.251 192.656C428.627 193.008 428.139 193.512 427.787 194.168C427.435 194.808 427.259 195.544 427.259 196.376V196.76C427.259 197.608 427.451 198.368 427.835 199.04C428.235 199.696 428.787 200.208 429.491 200.576C430.195 200.944 431.003 201.128 431.915 201.128C432.667 201.128 433.347 201 433.955 200.744C434.579 200.488 435.123 200.104 435.587 199.592L436.859 201.08C436.283 201.752 435.563 202.264 434.699 202.616C433.851 202.968 432.899 203.144 431.843 203.144ZM446.936 203V189.152C446.936 187.904 447.296 186.912 448.016 186.176C448.752 185.424 449.792 185.048 451.136 185.048C451.632 185.048 452.104 185.112 452.552 185.24C453.016 185.352 453.408 185.536 453.728 185.792L453.032 187.544C452.792 187.352 452.52 187.208 452.216 187.112C451.912 187 451.592 186.944 451.256 186.944C450.584 186.944 450.072 187.136 449.72 187.52C449.368 187.888 449.192 188.44 449.192 189.176V190.88L449.24 191.936V203H446.936ZM444.776 192.176V190.28H452.888V192.176H444.776ZM459.961 203.144C458.681 203.144 457.545 202.864 456.553 202.304C455.561 201.744 454.777 200.976 454.201 200C453.625 199.008 453.337 197.888 453.337 196.64C453.337 195.376 453.625 194.256 454.201 193.28C454.777 192.304 455.561 191.544 456.553 191C457.545 190.44 458.681 190.16 459.961 190.16C461.225 190.16 462.353 190.44 463.345 191C464.353 191.544 465.137 192.304 465.697 193.28C466.273 194.24 466.561 195.36 466.561 196.64C466.561 197.904 466.273 199.024 465.697 200C465.137 200.976 464.353 201.744 463.345 202.304C462.353 202.864 461.225 203.144 459.961 203.144ZM459.961 201.128C460.777 201.128 461.505 200.944 462.145 200.576C462.801 200.208 463.313 199.688 463.681 199.016C464.049 198.328 464.233 197.536 464.233 196.64C464.233 195.728 464.049 194.944 463.681 194.288C463.313 193.616 462.801 193.096 462.145 192.728C461.505 192.36 460.777 192.176 459.961 192.176C459.145 192.176 458.417 192.36 457.777 192.728C457.137 193.096 456.625 193.616 456.241 194.288C455.857 194.944 455.665 195.728 455.665 196.64C455.665 197.536 455.857 198.328 456.241 199.016C456.625 199.688 457.137 200.208 457.777 200.576C458.417 200.944 459.145 201.128 459.961 201.128ZM469.387 203V190.28H471.595V193.736L471.379 192.872C471.731 191.992 472.323 191.32 473.155 190.856C473.987 190.392 475.011 190.16 476.227 190.16V192.392C476.131 192.376 476.035 192.368 475.939 192.368C475.859 192.368 475.779 192.368 475.699 192.368C474.467 192.368 473.491 192.736 472.771 193.472C472.051 194.208 471.691 195.272 471.691 196.664V203H469.387ZM485.293 203V186.2H491.845C493.317 186.2 494.573 186.432 495.613 186.896C496.653 187.36 497.453 188.032 498.013 188.912C498.573 189.792 498.853 190.84 498.853 192.056C498.853 193.272 498.573 194.32 498.013 195.2C497.453 196.064 496.653 196.736 495.613 197.216C494.573 197.68 493.317 197.912 491.845 197.912H486.613L487.693 196.784V203H485.293ZM487.693 197.024L486.613 195.824H491.773C493.309 195.824 494.469 195.496 495.253 194.84C496.053 194.184 496.453 193.256 496.453 192.056C496.453 190.856 496.053 189.928 495.253 189.272C494.469 188.616 493.309 188.288 491.773 188.288H486.613L487.693 187.088V197.024ZM502.305 207.8C501.697 207.8 501.105 207.696 500.529 207.488C499.953 207.296 499.457 207.008 499.041 206.624L500.025 204.896C500.345 205.2 500.697 205.432 501.081 205.592C501.465 205.752 501.873 205.832 502.305 205.832C502.865 205.832 503.329 205.688 503.697 205.4C504.065 205.112 504.409 204.6 504.729 203.864L505.521 202.112L505.761 201.824L510.753 190.28H513.009L506.841 204.272C506.473 205.168 506.057 205.872 505.593 206.384C505.145 206.896 504.649 207.256 504.105 207.464C503.561 207.688 502.961 207.8 502.305 207.8ZM505.329 203.408L499.521 190.28H501.921L506.865 201.608L505.329 203.408ZM522.483 203.192C521.203 203.192 520.019 202.984 518.931 202.568C517.859 202.136 516.923 201.536 516.123 200.768C515.339 199.984 514.723 199.072 514.275 198.032C513.827 196.992 513.603 195.848 513.603 194.6C513.603 193.352 513.827 192.208 514.275 191.168C514.723 190.128 515.347 189.224 516.147 188.456C516.947 187.672 517.883 187.072 518.955 186.656C520.043 186.224 521.227 186.008 522.507 186.008C523.803 186.008 524.995 186.232 526.083 186.68C527.187 187.112 528.123 187.76 528.891 188.624L527.331 190.136C526.691 189.464 525.971 188.968 525.171 188.648C524.371 188.312 523.515 188.144 522.603 188.144C521.659 188.144 520.779 188.304 519.963 188.624C519.163 188.944 518.467 189.392 517.875 189.968C517.283 190.544 516.819 191.232 516.483 192.032C516.163 192.816 516.003 193.672 516.003 194.6C516.003 195.528 516.163 196.392 516.483 197.192C516.819 197.976 517.283 198.656 517.875 199.232C518.467 199.808 519.163 200.256 519.963 200.576C520.779 200.896 521.659 201.056 522.603 201.056C523.515 201.056 524.371 200.896 525.171 200.576C525.971 200.24 526.691 199.728 527.331 199.04L528.891 200.552C528.123 201.416 527.187 202.072 526.083 202.52C524.995 202.968 523.795 203.192 522.483 203.192ZM538.411 190.16C539.451 190.16 540.363 190.36 541.147 190.76C541.947 191.16 542.571 191.768 543.019 192.584C543.467 193.4 543.691 194.432 543.691 195.68V203H541.387V195.944C541.387 194.712 541.083 193.784 540.475 193.16C539.883 192.536 539.043 192.224 537.955 192.224C537.139 192.224 536.427 192.384 535.819 192.704C535.211 193.024 534.739 193.496 534.403 194.12C534.083 194.744 533.923 195.52 533.923 196.448V203H531.619V185.192H533.923V193.712L533.467 192.8C533.883 191.968 534.523 191.32 535.387 190.856C536.251 190.392 537.259 190.16 538.411 190.16ZM555.491 203V200.312L555.371 199.808V195.224C555.371 194.248 555.083 193.496 554.507 192.968C553.947 192.424 553.099 192.152 551.963 192.152C551.211 192.152 550.475 192.28 549.755 192.536C549.035 192.776 548.427 193.104 547.931 193.52L546.971 191.792C547.627 191.264 548.411 190.864 549.323 190.592C550.251 190.304 551.219 190.16 552.227 190.16C553.971 190.16 555.315 190.584 556.259 191.432C557.203 192.28 557.675 193.576 557.675 195.32V203H555.491ZM551.315 203.144C550.371 203.144 549.539 202.984 548.819 202.664C548.115 202.344 547.571 201.904 547.187 201.344C546.803 200.768 546.611 200.12 546.611 199.4C546.611 198.712 546.771 198.088 547.091 197.528C547.427 196.968 547.963 196.52 548.699 196.184C549.451 195.848 550.459 195.68 551.723 195.68H555.755V197.336H551.819C550.667 197.336 549.891 197.528 549.491 197.912C549.091 198.296 548.891 198.76 548.891 199.304C548.891 199.928 549.139 200.432 549.635 200.816C550.131 201.184 550.819 201.368 551.699 201.368C552.563 201.368 553.315 201.176 553.955 200.792C554.611 200.408 555.083 199.848 555.371 199.112L555.827 200.696C555.523 201.448 554.987 202.048 554.219 202.496C553.451 202.928 552.483 203.144 551.315 203.144ZM561.578 203V190.28H563.786V193.736L563.57 192.872C563.922 191.992 564.514 191.32 565.346 190.856C566.178 190.392 567.202 190.16 568.418 190.16V192.392C568.322 192.376 568.226 192.368 568.13 192.368C568.05 192.368 567.97 192.368 567.89 192.368C566.658 192.368 565.682 192.736 564.962 193.472C564.242 194.208 563.882 195.272 563.882 196.664V203H561.578ZM586.81 190.16C587.834 190.16 588.738 190.36 589.522 190.76C590.306 191.16 590.914 191.768 591.346 192.584C591.794 193.4 592.018 194.432 592.018 195.68V203H589.714V195.944C589.714 194.712 589.426 193.784 588.85 193.16C588.274 192.536 587.466 192.224 586.426 192.224C585.658 192.224 584.986 192.384 584.41 192.704C583.834 193.024 583.386 193.496 583.066 194.12C582.762 194.744 582.61 195.52 582.61 196.448V203H580.306V195.944C580.306 194.712 580.018 193.784 579.442 193.16C578.882 192.536 578.074 192.224 577.018 192.224C576.266 192.224 575.602 192.384 575.026 192.704C574.45 193.024 574.002 193.496 573.682 194.12C573.362 194.744 573.202 195.52 573.202 196.448V203H570.898V190.28H573.106V193.664L572.746 192.8C573.146 191.968 573.762 191.32 574.594 190.856C575.426 190.392 576.394 190.16 577.498 190.16C578.714 190.16 579.762 190.464 580.642 191.072C581.522 191.664 582.098 192.568 582.37 193.784L581.434 193.4C581.818 192.424 582.49 191.64 583.45 191.048C584.41 190.456 585.53 190.16 586.81 190.16ZM605.631 203.144C604.575 203.144 603.567 203 602.607 202.712C601.663 202.424 600.919 202.072 600.375 201.656L601.335 199.832C601.879 200.2 602.551 200.512 603.351 200.768C604.151 201.024 604.967 201.152 605.799 201.152C606.871 201.152 607.639 201 608.103 200.696C608.583 200.392 608.823 199.968 608.823 199.424C608.823 199.024 608.679 198.712 608.391 198.488C608.103 198.264 607.719 198.096 607.239 197.984C606.775 197.872 606.255 197.776 605.679 197.696C605.103 197.6 604.527 197.488 603.951 197.36C603.375 197.216 602.847 197.024 602.367 196.784C601.887 196.528 601.503 196.184 601.215 195.752C600.927 195.304 600.783 194.712 600.783 193.976C600.783 193.208 600.999 192.536 601.431 191.96C601.863 191.384 602.471 190.944 603.255 190.64C604.055 190.32 604.999 190.16 606.087 190.16C606.919 190.16 607.759 190.264 608.607 190.472C609.471 190.664 610.175 190.944 610.719 191.312L609.735 193.136C609.159 192.752 608.559 192.488 607.935 192.344C607.311 192.2 606.687 192.128 606.063 192.128C605.055 192.128 604.303 192.296 603.807 192.632C603.311 192.952 603.063 193.368 603.063 193.88C603.063 194.312 603.207 194.648 603.495 194.888C603.799 195.112 604.183 195.288 604.647 195.416C605.127 195.544 605.655 195.656 606.231 195.752C606.807 195.832 607.383 195.944 607.959 196.088C608.535 196.216 609.055 196.4 609.519 196.64C609.999 196.88 610.383 197.216 610.671 197.648C610.975 198.08 611.127 198.656 611.127 199.376C611.127 200.144 610.903 200.808 610.455 201.368C610.007 201.928 609.375 202.368 608.559 202.688C607.743 202.992 606.767 203.144 605.631 203.144ZM618.014 203.144C616.734 203.144 615.742 202.8 615.038 202.112C614.334 201.424 613.982 200.44 613.982 199.16V187.496H616.286V199.064C616.286 199.752 616.454 200.28 616.79 200.648C617.142 201.016 617.638 201.2 618.278 201.2C618.998 201.2 619.598 201 620.078 200.6L620.798 202.256C620.446 202.56 620.022 202.784 619.526 202.928C619.046 203.072 618.542 203.144 618.014 203.144ZM611.822 192.176V190.28H619.934V192.176H611.822ZM631.12 203V200.312L631 199.808V195.224C631 194.248 630.712 193.496 630.136 192.968C629.576 192.424 628.728 192.152 627.592 192.152C626.84 192.152 626.104 192.28 625.384 192.536C624.664 192.776 624.056 193.104 623.56 193.52L622.6 191.792C623.256 191.264 624.04 190.864 624.952 190.592C625.88 190.304 626.848 190.16 627.856 190.16C629.6 190.16 630.944 190.584 631.888 191.432C632.832 192.28 633.304 193.576 633.304 195.32V203H631.12ZM626.944 203.144C626 203.144 625.168 202.984 624.448 202.664C623.744 202.344 623.2 201.904 622.816 201.344C622.432 200.768 622.24 200.12 622.24 199.4C622.24 198.712 622.4 198.088 622.72 197.528C623.056 196.968 623.592 196.52 624.328 196.184C625.08 195.848 626.088 195.68 627.352 195.68H631.384V197.336H627.448C626.296 197.336 625.52 197.528 625.12 197.912C624.72 198.296 624.52 198.76 624.52 199.304C624.52 199.928 624.768 200.432 625.264 200.816C625.76 201.184 626.448 201.368 627.328 201.368C628.192 201.368 628.944 201.176 629.584 200.792C630.24 200.408 630.712 199.848 631 199.112L631.456 200.696C631.152 201.448 630.616 202.048 629.848 202.496C629.08 202.928 628.112 203.144 626.944 203.144ZM637.207 203V190.28H639.415V193.736L639.199 192.872C639.551 191.992 640.143 191.32 640.975 190.856C641.807 190.392 642.831 190.16 644.047 190.16V192.392C643.951 192.376 643.855 192.368 643.759 192.368C643.679 192.368 643.599 192.368 643.519 192.368C642.287 192.368 641.311 192.736 640.591 193.472C639.871 194.208 639.511 195.272 639.511 196.664V203H637.207ZM651.411 203.144C650.131 203.144 649.139 202.8 648.435 202.112C647.731 201.424 647.379 200.44 647.379 199.16V187.496H649.683V199.064C649.683 199.752 649.851 200.28 650.187 200.648C650.539 201.016 651.035 201.2 651.675 201.2C652.395 201.2 652.995 201 653.475 200.6L654.195 202.256C653.843 202.56 653.419 202.784 652.923 202.928C652.443 203.072 651.939 203.144 651.411 203.144ZM645.219 192.176V190.28H653.331V192.176H645.219ZM660.268 203.144C659.212 203.144 658.204 203 657.244 202.712C656.3 202.424 655.556 202.072 655.012 201.656L655.972 199.832C656.516 200.2 657.188 200.512 657.988 200.768C658.788 201.024 659.604 201.152 660.436 201.152C661.508 201.152 662.276 201 662.74 200.696C663.22 200.392 663.46 199.968 663.46 199.424C663.46 199.024 663.316 198.712 663.028 198.488C662.74 198.264 662.356 198.096 661.876 197.984C661.412 197.872 660.892 197.776 660.316 197.696C659.74 197.6 659.164 197.488 658.588 197.36C658.012 197.216 657.484 197.024 657.004 196.784C656.524 196.528 656.14 196.184 655.852 195.752C655.564 195.304 655.42 194.712 655.42 193.976C655.42 193.208 655.636 192.536 656.068 191.96C656.5 191.384 657.108 190.944 657.892 190.64C658.692 190.32 659.636 190.16 660.724 190.16C661.556 190.16 662.396 190.264 663.244 190.472C664.108 190.664 664.812 190.944 665.356 191.312L664.372 193.136C663.796 192.752 663.196 192.488 662.572 192.344C661.948 192.2 661.324 192.128 660.7 192.128C659.692 192.128 658.94 192.296 658.444 192.632C657.948 192.952 657.7 193.368 657.7 193.88C657.7 194.312 657.844 194.648 658.132 194.888C658.436 195.112 658.82 195.288 659.284 195.416C659.764 195.544 660.292 195.656 660.868 195.752C661.444 195.832 662.02 195.944 662.596 196.088C663.172 196.216 663.692 196.4 664.156 196.64C664.636 196.88 665.02 197.216 665.308 197.648C665.612 198.08 665.764 198.656 665.764 199.376C665.764 200.144 665.54 200.808 665.092 201.368C664.644 201.928 664.012 202.368 663.196 202.688C662.38 202.992 661.404 203.144 660.268 203.144ZM668.836 203.144C668.388 203.144 668.004 202.992 667.684 202.688C667.364 202.368 667.204 201.968 667.204 201.488C667.204 201.008 667.364 200.616 667.684 200.312C668.004 200.008 668.388 199.856 668.836 199.856C669.268 199.856 669.636 200.008 669.94 200.312C670.26 200.616 670.42 201.008 670.42 201.488C670.42 201.968 670.26 202.368 669.94 202.688C669.636 202.992 669.268 203.144 668.836 203.144ZM326.984 235V219.16L328.016 220.288H323.192V218.2H329.36V235H326.984ZM340.499 222.16C341.539 222.16 342.451 222.36 343.235 222.76C344.035 223.16 344.659 223.768 345.107 224.584C345.555 225.4 345.779 226.432 345.779 227.68V235H343.475V227.944C343.475 226.712 343.171 225.784 342.563 225.16C341.971 224.536 341.131 224.224 340.043 224.224C339.227 224.224 338.515 224.384 337.907 224.704C337.299 225.024 336.827 225.496 336.491 226.12C336.171 226.744 336.011 227.52 336.011 228.448V235H333.707V217.192H336.011V225.712L335.555 224.8C335.971 223.968 336.611 223.32 337.475 222.856C338.339 222.392 339.347 222.16 340.499 222.16ZM349.683 235V222.28H351.891V225.736L351.675 224.872C352.027 223.992 352.619 223.32 353.451 222.856C354.283 222.392 355.307 222.16 356.523 222.16V224.392C356.427 224.376 356.331 224.368 356.235 224.368C356.155 224.368 356.075 224.368 355.995 224.368C354.763 224.368 353.787 224.736 353.067 225.472C352.347 226.208 351.987 227.272 351.987 228.664V235H349.683ZM369.356 235.192C368.172 235.192 367.02 235.008 365.9 234.64C364.796 234.272 363.892 233.776 363.188 233.152L364.292 231.256C364.852 231.784 365.58 232.216 366.476 232.552C367.372 232.888 368.332 233.056 369.356 233.056C370.604 233.056 371.572 232.792 372.26 232.264C372.964 231.72 373.316 230.992 373.316 230.08C373.316 229.2 372.98 228.496 372.308 227.968C371.652 227.424 370.604 227.152 369.164 227.152H367.82V225.472L372.812 219.328L373.148 220.288H363.956V218.2H375.044V219.832L370.076 225.952L368.828 225.208H369.62C371.652 225.208 373.172 225.664 374.18 226.576C375.204 227.488 375.716 228.648 375.716 230.056C375.716 231 375.484 231.864 375.02 232.648C374.556 233.432 373.852 234.056 372.908 234.52C371.98 234.968 370.796 235.192 369.356 235.192ZM384.458 235.192C383.146 235.192 381.97 234.856 380.93 234.184C379.906 233.512 379.09 232.536 378.482 231.256C377.89 229.976 377.594 228.424 377.594 226.6C377.594 224.776 377.89 223.224 378.482 221.944C379.09 220.664 379.906 219.688 380.93 219.016C381.97 218.344 383.146 218.008 384.458 218.008C385.754 218.008 386.922 218.344 387.962 219.016C389.002 219.688 389.818 220.664 390.41 221.944C391.002 223.224 391.298 224.776 391.298 226.6C391.298 228.424 391.002 229.976 390.41 231.256C389.818 232.536 389.002 233.512 387.962 234.184C386.922 234.856 385.754 235.192 384.458 235.192ZM384.458 233.056C385.338 233.056 386.106 232.816 386.762 232.336C387.434 231.856 387.954 231.136 388.322 230.176C388.706 229.216 388.898 228.024 388.898 226.6C388.898 225.176 388.706 223.984 388.322 223.024C387.954 222.064 387.434 221.344 386.762 220.864C386.106 220.384 385.338 220.144 384.458 220.144C383.578 220.144 382.802 220.384 382.13 220.864C381.458 221.344 380.93 222.064 380.546 223.024C380.178 223.984 379.994 225.176 379.994 226.6C379.994 228.024 380.178 229.216 380.546 230.176C380.93 231.136 381.458 231.856 382.13 232.336C382.802 232.816 383.578 233.056 384.458 233.056ZM400.695 235V218.2H402.663L410.199 230.896H409.143L416.583 218.2H418.551L418.575 235H416.271L416.247 221.824H416.799L410.175 232.96H409.071L402.399 221.824H402.999V235H400.695ZM422.921 235V222.28H425.225V235H422.921ZM424.073 219.832C423.625 219.832 423.249 219.688 422.945 219.4C422.657 219.112 422.513 218.76 422.513 218.344C422.513 217.912 422.657 217.552 422.945 217.264C423.249 216.976 423.625 216.832 424.073 216.832C424.521 216.832 424.889 216.976 425.177 217.264C425.481 217.536 425.633 217.88 425.633 218.296C425.633 218.728 425.489 219.096 425.201 219.4C424.913 219.688 424.537 219.832 424.073 219.832ZM436.056 222.16C437.096 222.16 438.008 222.36 438.792 222.76C439.592 223.16 440.216 223.768 440.664 224.584C441.112 225.4 441.336 226.432 441.336 227.68V235H439.032V227.944C439.032 226.712 438.728 225.784 438.12 225.16C437.528 224.536 436.688 224.224 435.6 224.224C434.784 224.224 434.072 224.384 433.464 224.704C432.856 225.024 432.384 225.496 432.048 226.12C431.728 226.744 431.568 227.52 431.568 228.448V235H429.264V222.28H431.472V225.712L431.112 224.8C431.528 223.968 432.168 223.32 433.032 222.856C433.896 222.392 434.904 222.16 436.056 222.16ZM448.888 235.144C447.832 235.144 446.824 235 445.864 234.712C444.92 234.424 444.176 234.072 443.632 233.656L444.592 231.832C445.136 232.2 445.808 232.512 446.608 232.768C447.408 233.024 448.224 233.152 449.056 233.152C450.128 233.152 450.896 233 451.36 232.696C451.84 232.392 452.08 231.968 452.08 231.424C452.08 231.024 451.936 230.712 451.648 230.488C451.36 230.264 450.976 230.096 450.496 229.984C450.032 229.872 449.512 229.776 448.936 229.696C448.36 229.6 447.784 229.488 447.208 229.36C446.632 229.216 446.104 229.024 445.624 228.784C445.144 228.528 444.76 228.184 444.472 227.752C444.184 227.304 444.04 226.712 444.04 225.976C444.04 225.208 444.256 224.536 444.688 223.96C445.12 223.384 445.728 222.944 446.512 222.64C447.312 222.32 448.256 222.16 449.344 222.16C450.176 222.16 451.016 222.264 451.864 222.472C452.728 222.664 453.432 222.944 453.976 223.312L452.992 225.136C452.416 224.752 451.816 224.488 451.192 224.344C450.568 224.2 449.944 224.128 449.32 224.128C448.312 224.128 447.56 224.296 447.064 224.632C446.568 224.952 446.32 225.368 446.32 225.88C446.32 226.312 446.464 226.648 446.752 226.888C447.056 227.112 447.44 227.288 447.904 227.416C448.384 227.544 448.912 227.656 449.488 227.752C450.064 227.832 450.64 227.944 451.216 228.088C451.792 228.216 452.312 228.4 452.776 228.64C453.256 228.88 453.64 229.216 453.928 229.648C454.232 230.08 454.384 230.656 454.384 231.376C454.384 232.144 454.16 232.808 453.712 233.368C453.264 233.928 452.632 234.368 451.816 234.688C451 234.992 450.024 235.144 448.888 235.144Z" fill="#2F2E41"/>
<path fill-rule="evenodd" clip-rule="evenodd" d="M194.867 111.692L235.259 145.175L220.571 174.77L196.378 168.072H175.209L194.867 111.692Z" fill="#26C6DA"/>
<path fill-rule="evenodd" clip-rule="evenodd" d="M188.169 110.395L157.062 89.875L106.298 111.044L97.875 200.475L145.183 228.125L157.928 213.22L154.037 133.509L188.169 110.395Z" fill="#66BB6A"/>
<path fill-rule="evenodd" clip-rule="evenodd" d="M206.316 127.677H158.359L200.697 89.875L206.316 127.677Z" fill="#9CCC65"/>
<path fill-rule="evenodd" clip-rule="evenodd" d="M236.125 213.434L194.001 227.908L137.839 212.141L154.04 133.509L160.518 127.677L194.867 124.438L191.625 158.783L218.843 148.2L236.125 213.434Z" fill="#FFEE58"/>
<path fill-rule="evenodd" clip-rule="evenodd" d="M124.208 116.208H209.791V201.792H124.208V116.208Z" fill="#212121"/>
<path fill-rule="evenodd" clip-rule="evenodd" d="M134.083 188.625H167V195.208H134.083V188.625ZM134.33 126.083H149.58C158.55 126.083 163.708 131.129 163.708 138.592C163.708 146.929 156.98 151.321 148.682 151.321H142.401V162.292H134.327V126.083H134.33ZM155.41 139.029C155.41 135.517 152.944 133.542 148.682 133.542H142.401V144.734H148.905C153.313 144.737 155.41 142.104 155.41 139.029ZM169.696 144.191C169.587 139.359 171.46 134.691 174.88 131.271C178.297 127.854 182.964 125.981 187.8 126.087C194.324 126.087 198.323 128.19 201.48 131.561L196.638 137.245C193.902 134.721 191.164 133.246 187.796 133.246C181.904 133.246 177.694 138.088 177.694 144.191C177.694 150.083 181.904 155.136 187.796 155.136C191.796 155.136 194.321 153.45 197.059 151.136L201.901 155.978C198.32 159.767 194.321 162.292 187.586 162.292C182.803 162.292 178.221 160.379 174.86 156.976C171.499 153.575 169.64 148.97 169.696 144.191Z" fill="white"/>
<defs>
<filter id="filter0_d_280_112" x="0" y="0" width="853" height="326" filterUnits="userSpaceOnUse" color-interpolation-filters="sRGB">
<feFlood flood-opacity="0" result="BackgroundImageFix"/>
<feColorMatrix in="SourceAlpha" type="matrix" values="0 0 0 0 0 0 0 0 0 0 0 0 0 0 0 0 0 0 127 0" result="hardAlpha"/>
<feOffset dy="4"/>
<feGaussianBlur stdDeviation="12"/>
<feComposite in2="hardAlpha" operator="out"/>
<feColorMatrix type="matrix" values="0 0 0 0 0 0 0 0 0 0 0 0 0 0 0 0 0 0 0.25 0"/>
<feBlend mode="normal" in2="BackgroundImageFix" result="effect1_dropShadow_280_112"/>
<feBlend mode="normal" in="SourceGraphic" in2="effect1_dropShadow_280_112" result="shape"/>
</filter>
<linearGradient id="paint0_linear_280_112" x1="166.5" y1="41" x2="166.5" y2="278" gradientUnits="userSpaceOnUse">
<stop stop-color="#FFB7B7"/>
<stop offset="1" stop-color="#6379C6"/>
</linearGradient>
</defs>
</svg>
