<svg width="87" height="87" viewBox="0 0 87 87" fill="none" xmlns="http://www.w3.org/2000/svg">
<rect width="87" height="87" rx="18" fill="url(#paint0_linear_39_8)"/>
<path fill-rule="evenodd" clip-rule="evenodd" d="M54.2298 26.6339L69.0573 38.925L63.6657 49.7891L54.7845 47.3302H47.0137L54.2298 26.6339Z" fill="#26C6DA"/>
<path fill-rule="evenodd" clip-rule="evenodd" d="M51.7708 26.1578L40.352 18.625L21.7171 26.3958L18.625 59.225L35.9912 69.375L40.6698 63.9037L39.2416 34.6427L51.7708 26.1578Z" fill="#66BB6A"/>
<path fill-rule="evenodd" clip-rule="evenodd" d="M58.4323 32.5015H40.8281L56.3697 18.625L58.4323 32.5015Z" fill="#9CCC65"/>
<path fill-rule="evenodd" clip-rule="evenodd" d="M69.375 63.9822L53.912 69.2952L33.2954 63.5073L39.2428 34.6427L41.6208 32.5015L54.2298 31.3125L53.0396 43.9202L63.0313 40.0355L69.375 63.9822Z" fill="#FFEE58"/>
<path fill-rule="evenodd" clip-rule="evenodd" d="M28.2915 28.2917H59.7082V59.7084H28.2915V28.2917Z" fill="#212121"/>
<path fill-rule="evenodd" clip-rule="evenodd" d="M31.9165 54.875H43.9998V57.2917H31.9165V54.875ZM32.0071 31.9167H37.6053C40.898 31.9167 42.7915 33.769 42.7915 36.5083C42.7915 39.569 40.3217 41.181 37.2755 41.181H34.97V45.2083H32.0059V31.9167H32.0071ZM39.7453 36.669C39.7453 35.3797 38.8403 34.6547 37.2755 34.6547H34.97V38.7631H37.3576C38.9756 38.7643 39.7453 37.7976 39.7453 36.669ZM44.9895 38.5637C44.9496 36.7899 45.6371 35.0765 46.8926 33.821C48.1468 32.5667 49.8603 31.8792 51.6353 31.9179C54.0302 31.9179 55.4983 32.69 56.6571 33.9273L54.8797 36.0141C53.8755 35.0873 52.8702 34.546 51.6341 34.546C49.4712 34.546 47.9257 36.3235 47.9257 38.5637C47.9257 40.7266 49.4712 42.5814 51.6341 42.5814C53.1022 42.5814 54.029 41.9627 55.0343 41.1133L56.8118 42.8907C55.4971 44.2815 54.029 45.2083 51.5568 45.2083C49.801 45.2083 48.119 44.5063 46.8853 43.2569C45.6516 42.0087 44.9689 40.3182 44.9895 38.5637Z" fill="white"/>
<defs>
<linearGradient id="paint0_linear_39_8" x1="43.5" y1="0" x2="43.5" y2="87" gradientUnits="userSpaceOnUse">
<stop stop-color="#FFB7B7"/>
<stop offset="1" stop-color="#6379C6"/>
</linearGradient>
</defs>
</svg>
