<svg width="304" height="202" viewBox="0 0 304 202" fill="none" xmlns="http://www.w3.org/2000/svg">
<g clip-path="url(#clip0_1_303)">
<path d="M292.117 135.183C289.922 137.589 287.2 139.38 284.246 140.771H284.242C283.964 140.903 283.686 141.032 283.405 141.153H283.401L283.398 141.157L283.394 141.153H283.391C283.391 141.154 283.39 141.154 283.39 141.155C283.39 141.155 283.39 141.156 283.389 141.156C283.389 141.156 283.389 141.156 283.388 141.157C283.388 141.157 283.387 141.157 283.387 141.157H283.383L283.38 141.153C283.376 141.157 283.376 141.157 283.373 141.153L283.369 141.157L283.365 141.153H283.362C283.358 141.157 283.358 141.157 283.355 141.153H283.351C281.374 142.011 279.343 142.74 277.272 143.334C265.092 146.801 252.291 147.472 239.817 145.297C239.578 145.254 239.343 145.211 239.104 145.168V116.17C239.34 116.07 239.578 115.969 239.817 115.873C241.374 115.226 242.951 114.631 244.546 114.089C246.841 113.302 249.168 112.628 251.526 112.065C259.223 110.196 267.164 109.552 275.059 110.156C276.495 110.263 277.928 110.418 279.357 110.621C282.346 111.039 285.482 111.769 288.24 113.034H288.244C288.647 113.224 289.042 113.42 289.434 113.631C291.886 114.965 293.952 116.799 295.214 119.312C295.667 120.215 295.993 121.176 296.183 122.169V122.176C296.254 122.519 296.304 122.866 296.343 123.209C296.792 127.442 295.043 131.972 292.117 135.183Z" fill="#F2F2F2"/>
<path d="M296.343 123.209C296.308 123.218 296.273 123.223 296.237 123.224C290.132 123.492 284.037 123.89 277.949 124.418H277.938C277.914 124.421 277.892 124.421 277.867 124.425C271.617 124.968 265.38 125.649 259.156 126.466C258.892 126.502 258.632 126.538 258.372 126.57C254.067 127.146 249.771 127.784 245.483 128.486C243.591 128.797 241.702 129.121 239.817 129.459C239.578 129.502 239.343 129.541 239.104 129.587V128.504C239.343 128.458 239.582 128.418 239.817 128.375C246.096 127.26 252.396 126.286 258.717 125.455C260.307 125.24 261.898 125.037 263.492 124.847C268.096 124.289 272.707 123.808 277.325 123.402C277.664 123.374 277.999 123.345 278.338 123.317C284.249 122.812 290.169 122.43 296.097 122.169C296.126 122.168 296.155 122.17 296.183 122.176C296.753 122.226 296.874 123.084 296.343 123.209Z" fill="white"/>
<path d="M283.667 140.1C276.062 140.156 268.571 136.921 263.192 131.566C261.674 130.049 260.337 128.361 259.207 126.536C258.844 125.952 257.996 126.596 258.355 127.174C262.533 133.895 269.491 138.684 277.163 140.444C279.341 140.939 281.57 141.179 283.803 141.157C284.485 141.152 284.344 140.095 283.667 140.1V140.1Z" fill="white"/>
<path d="M251.526 112.065C251.494 112.166 251.436 112.256 251.357 112.327C251.279 112.398 251.184 112.447 251.081 112.469C249.338 112.927 247.655 113.587 246.064 114.436C243.741 115.667 241.631 117.266 239.817 119.173C239.721 119.269 239.628 119.366 239.539 119.466C239.389 119.623 239.247 119.784 239.104 119.949V118.39C239.333 118.147 239.571 117.907 239.817 117.678C241.25 116.302 242.836 115.098 244.546 114.089C246.841 113.302 249.168 112.628 251.526 112.065Z" fill="white"/>
<path d="M288.871 112.752C284.033 114.838 279.986 118.419 277.317 122.972C277.263 123.103 277.263 123.249 277.316 123.38C277.368 123.511 277.471 123.615 277.6 123.671C277.73 123.722 277.875 123.722 278.004 123.669C278.134 123.616 278.239 123.515 278.296 123.388C280.843 119.087 284.686 115.709 289.27 113.74C289.899 113.471 289.501 112.482 288.871 112.752L288.871 112.752Z" fill="white"/>
<path d="M303.452 82.3874C302.626 85.5408 301.04 88.3974 299.07 91.0037L299.066 91.0073C298.884 91.2504 298.695 91.4971 298.499 91.733V91.7366C297.131 93.4277 295.654 95.0269 294.077 96.5238C288.409 101.943 282.006 106.533 275.059 110.156C264.13 115.884 251.915 119.269 239.817 119.462C239.725 119.466 239.632 119.466 239.539 119.466C239.393 119.47 239.247 119.47 239.104 119.47V103.22C239.336 102.777 239.575 102.334 239.817 101.894C242.961 96.218 246.795 90.9556 251.231 86.2272C251.338 86.1092 251.448 85.9912 251.559 85.8768C253.226 84.1107 254.975 82.4291 256.804 80.8322C263.841 74.6243 271.974 69.792 280.782 66.5849C283.622 65.5624 286.736 64.7437 289.765 64.5828C290.211 64.5578 290.653 64.5471 291.098 64.5506C293.888 64.59 296.564 65.2514 298.849 66.8888C299.666 67.4782 300.4 68.1771 301.029 68.966C301.25 69.2413 301.453 69.5238 301.649 69.8134V69.8169C304.008 73.3564 304.557 78.1794 303.452 82.3874Z" fill="#F2F2F2"/>
<path d="M301.649 69.8133V69.8169C301.623 69.84 301.594 69.8604 301.564 69.8777C296.29 72.956 291.083 76.1463 285.942 79.4486C285.935 79.4521 285.931 79.4557 285.924 79.4593C285.903 79.4737 285.882 79.4868 285.86 79.4986C280.575 82.8951 275.366 86.4059 270.231 90.0312C270.017 90.1814 269.8 90.3351 269.582 90.4888C266.037 93.0022 262.528 95.5692 259.056 98.1899C252.499 103.145 246.086 108.284 239.817 113.606C239.578 113.806 239.343 114.01 239.104 114.214V112.823C239.34 112.619 239.578 112.416 239.817 112.215C242.219 110.181 244.642 108.175 247.086 106.198C247.817 105.608 248.551 105.019 249.285 104.436C255.806 99.2267 262.473 94.2118 269.287 89.3913H269.29C270.63 88.4438 271.972 87.5047 273.317 86.574C277.137 83.9355 280.999 81.3601 284.905 78.8479C285.186 78.6656 285.472 78.4833 285.757 78.3009C290.756 75.0975 295.821 71.999 300.951 69.0053C300.976 68.9901 301.002 68.9769 301.029 68.966C301.564 68.7515 302.066 69.4594 301.649 69.8133Z" fill="white"/>
<path d="M298.245 90.6796C291.537 94.2733 283.405 94.8999 276.163 92.6648C274.117 92.0289 272.151 91.1574 270.305 90.0675C269.713 89.7199 269.26 90.6849 269.846 91.0295C276.658 95.035 285.036 96.0323 292.645 94.0159C294.804 93.4392 296.888 92.6124 298.856 91.5523C299.458 91.23 298.843 90.3595 298.245 90.6795V90.6796Z" fill="white"/>
<path d="M248.056 103.761C247.724 101.889 247.61 99.9851 247.716 98.0871C247.956 93.7585 249.277 89.5599 251.558 85.8775C253.228 84.1119 254.976 82.4301 256.804 80.8321C256.822 80.9366 256.812 81.0438 256.775 81.1432C256.738 81.2425 256.677 81.3306 256.596 81.3987C255.265 82.6168 254.08 83.9854 253.064 85.4771C249.433 90.7935 248.016 97.3226 249.115 103.672C249.132 103.744 249.131 103.82 249.112 103.891C249.092 103.963 249.055 104.028 249.003 104.081C248.927 104.147 248.834 104.193 248.735 104.213C248.636 104.232 248.534 104.226 248.438 104.193C248.342 104.161 248.256 104.104 248.189 104.028C248.122 103.952 248.076 103.86 248.056 103.761Z" fill="white"/>
<path d="M290.192 64.0366C286.874 68.1383 284.947 73.1952 284.692 78.4715C284.705 78.6121 284.772 78.7421 284.879 78.8332C284.987 78.9244 285.126 78.9694 285.266 78.9585C285.405 78.9435 285.533 78.8754 285.623 78.7683C285.714 78.6611 285.76 78.5232 285.751 78.3831C286.016 73.3873 287.855 68.6048 291.003 64.7253C291.435 64.1934 290.625 63.5036 290.192 64.0366Z" fill="white"/>
<path d="M253.29 75.784V75.7875C253.266 76.095 253.237 76.3989 253.205 76.7028V76.7099C252.957 78.8731 252.57 81.018 252.047 83.131C251.797 84.1679 251.526 85.1975 251.231 86.2272C251.195 86.3595 251.156 86.4918 251.117 86.6205V86.624C250.246 89.6187 249.207 92.5611 248.002 95.437C245.787 100.732 243.044 105.789 239.817 110.532C239.586 110.878 239.347 111.225 239.104 111.568V55.5804C239.343 55.5661 239.578 55.5661 239.817 55.5732C239.931 55.5732 240.045 55.5768 240.159 55.584C241.165 55.637 242.158 55.8307 243.11 56.1596C243.445 56.2704 243.769 56.3956 244.09 56.535C247.977 58.2439 251.031 62.0122 252.357 66.1559C253.351 69.2592 253.551 72.5234 253.29 75.784Z" fill="#F2F2F2"/>
<path d="M244.09 56.535C244.081 56.57 244.068 56.6037 244.05 56.6351C242.607 59.4488 241.196 62.2768 239.817 65.1191C239.578 65.6089 239.34 66.1023 239.104 66.5921V64.1609C239.34 63.6747 239.577 63.1884 239.817 62.7022C240.883 60.5356 241.966 58.3786 243.067 56.2311C243.079 56.206 243.093 56.1821 243.11 56.1596C243.438 55.6876 244.25 56.0094 244.09 56.535Z" fill="white"/>
<path d="M253.404 76.3596C253.34 76.474 253.276 76.5884 253.205 76.7028C252.158 78.5323 250.913 80.2398 249.492 81.7939C246.762 84.7656 243.474 87.1676 239.817 88.8621C239.582 88.9765 239.343 89.0838 239.104 89.1839V88.022C239.343 87.9147 239.582 87.8039 239.817 87.6894C245.111 85.1562 249.508 81.0626 252.421 75.9556C252.463 75.8827 252.52 75.8196 252.589 75.7708C252.657 75.722 252.735 75.6885 252.817 75.6725C252.9 75.6566 252.985 75.6586 253.066 75.6785C253.148 75.6983 253.224 75.7355 253.29 75.7875C253.335 75.8176 253.374 75.8562 253.404 75.9012C253.434 75.9462 253.455 75.9967 253.466 76.0498C253.476 76.103 253.476 76.1577 253.466 76.2108C253.455 76.264 253.434 76.3145 253.404 76.3596Z" fill="white"/>
<path d="M239.817 11.7982V38.9699H239.104V38.6803H0.71268V38.9699H0V11.7982C0.00306038 8.67009 1.24296 5.67094 3.44758 3.45901C5.65219 1.24708 8.64142 0.00307053 11.7592 0H228.058C231.175 0.00307053 234.165 1.24708 236.369 3.45901C238.574 5.67094 239.814 8.67009 239.817 11.7982Z" fill="#6379C6"/>
<path d="M228.058 0H11.7592C8.64142 0.00307053 5.65219 1.24708 3.44758 3.45901C1.24296 5.67094 0.00306038 8.67009 0 11.7982V166.963C0.00306038 170.091 1.24296 173.09 3.44758 175.302C5.65219 177.514 8.64142 178.758 11.7592 178.761H228.058C231.175 178.758 234.165 177.514 236.369 175.302C238.574 173.09 239.814 170.091 239.817 166.963V11.7982C239.814 8.67009 238.574 5.67094 236.369 3.45901C234.165 1.24708 231.175 0.00307053 228.058 0ZM239.104 166.963C239.1 169.901 237.935 172.718 235.865 174.796C233.794 176.873 230.986 178.042 228.058 178.046H11.7592C8.83065 178.042 6.02308 176.873 3.95226 174.796C1.88144 172.718 0.716417 169.901 0.71268 166.963V11.7982C0.716417 8.85994 1.88144 6.04307 3.95226 3.96538C6.02308 1.88769 8.83065 0.718793 11.7592 0.715044H228.058C230.986 0.718794 233.794 1.88769 235.865 3.96538C237.935 6.04307 239.1 8.85994 239.104 11.7982V166.963Z" fill="#3F3D56"/>
<path d="M48.4623 26.6354C52.3983 26.6354 55.5891 23.434 55.5891 19.4849C55.5891 15.5359 52.3983 12.3345 48.4623 12.3345C44.5262 12.3345 41.3354 15.5359 41.3354 19.4849C41.3354 23.434 44.5262 26.6354 48.4623 26.6354Z" fill="white"/>
<path d="M191.355 26.6354C195.291 26.6354 198.482 23.434 198.482 19.4849C198.482 15.5359 195.291 12.3345 191.355 12.3345C187.419 12.3345 184.228 15.5359 184.228 19.4849C184.228 23.434 187.419 26.6354 191.355 26.6354Z" fill="white"/>
<path d="M69.0534 99.2131H26.6574C24.8613 99.211 23.1393 98.4943 21.8693 97.22C20.5992 95.9458 19.8848 94.2181 19.8828 92.4161V72.3117C19.8848 70.5096 20.5992 68.7819 21.8693 67.5077C23.1393 66.2335 24.8613 65.5167 26.6574 65.5146H69.0534C70.8495 65.5167 72.5714 66.2335 73.8414 67.5077C75.1115 68.7819 75.8259 70.5096 75.8279 72.3117V92.4161C75.8259 94.2181 75.1115 95.9458 73.8414 97.22C72.5714 98.4943 70.8495 99.211 69.0534 99.2131Z" fill="#6379C6"/>
<path d="M141.176 99.2131H98.7799C96.9838 99.211 95.2619 98.4943 93.9918 97.22C92.7218 95.9458 92.0074 94.2181 92.0054 92.4161V72.3117C92.0074 70.5096 92.7218 68.7819 93.9918 67.5077C95.2619 66.2335 96.9838 65.5167 98.7799 65.5146H141.176C142.972 65.5167 144.694 66.2335 145.964 67.5077C147.234 68.7819 147.948 70.5096 147.95 72.3117V92.4161C147.948 94.2181 147.234 95.9458 145.964 97.22C144.694 98.4943 142.972 99.211 141.176 99.2131Z" fill="#6379C6"/>
<path d="M141.176 151.158H98.7801C96.9296 151.156 95.1555 150.417 93.8469 149.105C92.5384 147.792 91.8024 146.012 91.8003 144.155V124.05C91.8024 122.194 92.5384 120.414 93.8469 119.101C95.1555 117.788 96.9296 117.049 98.7801 117.047H141.176C143.027 117.049 144.801 117.788 146.109 119.101C147.418 120.414 148.154 122.194 148.156 124.05V144.155C148.154 146.012 147.418 147.792 146.109 149.104C144.801 150.417 143.027 151.156 141.176 151.158Z" fill="#F2F2F2"/>
<path d="M68.9144 151.158H26.5184C24.6679 151.156 22.8937 150.417 21.5852 149.104C20.2767 147.792 19.5407 146.012 19.5386 144.155V124.05C19.5407 122.194 20.2767 120.414 21.5852 119.101C22.8937 117.788 24.6679 117.049 26.5184 117.047H68.9144C70.7649 117.049 72.5391 117.788 73.8476 119.101C75.1561 120.414 75.8922 122.194 75.8942 124.05V144.155C75.8922 146.012 75.1561 147.792 73.8476 149.104C72.5391 150.417 70.7649 151.156 68.9144 151.158Z" fill="#F2F2F2"/>
<path d="M213.299 151.158H170.903C169.052 151.156 167.278 150.417 165.969 149.104C164.661 147.792 163.925 146.012 163.923 144.155V124.05C163.925 122.194 164.661 120.414 165.969 119.101C167.278 117.788 169.052 117.049 170.903 117.047H213.299C215.149 117.049 216.923 117.788 218.232 119.101C219.54 120.414 220.276 122.194 220.278 124.05V144.155C220.276 146.012 219.54 147.792 218.232 149.104C216.923 150.417 215.149 151.156 213.299 151.158Z" fill="#F2F2F2"/>
<path d="M213.299 99.2535H170.903C169.052 99.2514 167.278 98.5129 165.969 97.2001C164.661 95.8872 163.925 94.1072 163.923 92.2505V72.1459C163.925 70.2892 164.661 68.5092 165.969 67.1964C167.278 65.8835 169.052 65.145 170.903 65.1429H213.299C215.149 65.145 216.923 65.8835 218.232 67.1964C219.54 68.5092 220.276 70.2892 220.278 72.1459V92.2505C220.276 94.1072 219.54 95.8872 218.232 97.2001C216.923 98.5129 215.149 99.2514 213.299 99.2535Z" fill="#F2F2F2"/>
<path d="M47.8551 93.8982C54.2042 93.8982 59.3513 88.7341 59.3513 82.3639C59.3513 75.9936 54.2042 70.8295 47.8551 70.8295C41.5059 70.8295 36.3589 75.9936 36.3589 82.3639C36.3589 88.7341 41.5059 93.8982 47.8551 93.8982Z" fill="white"/>
<path d="M46.7156 86.764C46.457 86.7644 46.2052 86.6805 45.9982 86.5249L45.9854 86.5152L43.2837 84.4398C43.1584 84.3437 43.0532 84.2238 42.9742 84.0868C42.8951 83.9499 42.8437 83.7987 42.823 83.6418C42.8022 83.4849 42.8124 83.3255 42.8531 83.1726C42.8938 83.0197 42.9641 82.8764 43.06 82.7507C43.1559 82.6251 43.2756 82.5197 43.4122 82.4405C43.5487 82.3613 43.6995 82.3099 43.8559 82.2892C44.0122 82.2685 44.1711 82.279 44.3235 82.3199C44.4758 82.3609 44.6187 82.4316 44.7438 82.528L46.4937 83.8743L50.6291 78.4632C50.725 78.3377 50.8446 78.2324 50.9811 78.1533C51.1176 78.0741 51.2683 78.0228 51.4245 78.0021C51.5808 77.9814 51.7396 77.9917 51.8919 78.0326C52.0441 78.0735 52.1869 78.1441 52.312 78.2403L52.2863 78.2754L52.3126 78.2408C52.5649 78.4354 52.73 78.7224 52.7717 79.039C52.8133 79.3555 52.7281 79.6757 52.5348 79.9293L47.6706 86.294C47.5581 86.4406 47.4134 86.5593 47.2478 86.6408C47.0822 86.7223 46.9001 86.7645 46.7156 86.764Z" fill="#6379C6"/>
<path d="M120.183 93.7325C126.532 93.7325 131.679 88.5684 131.679 82.1982C131.679 75.828 126.532 70.6639 120.183 70.6639C113.834 70.6639 108.687 75.828 108.687 82.1982C108.687 88.5684 113.834 93.7325 120.183 93.7325Z" fill="white"/>
<path d="M119.044 86.5983C118.785 86.5988 118.533 86.5149 118.326 86.3592L118.314 86.3496L115.612 84.2742C115.359 84.0799 115.194 83.7929 115.152 83.4763C115.11 83.1597 115.196 82.8393 115.389 82.5858C115.583 82.3323 115.869 82.1663 116.184 82.1244C116.5 82.0825 116.819 82.1681 117.072 82.3623L118.822 83.7086L122.957 78.2975C123.053 78.172 123.173 78.0667 123.309 77.9876C123.446 77.9085 123.596 77.8571 123.753 77.8364C123.909 77.8157 124.068 77.8261 124.22 77.867C124.372 77.9079 124.515 77.9784 124.64 78.0747L124.614 78.1097L124.641 78.0752C124.893 78.2698 125.058 78.5568 125.1 78.8733C125.141 79.1899 125.056 79.5101 124.863 79.7636L119.999 86.1283C119.886 86.275 119.742 86.3937 119.576 86.4752C119.41 86.5567 119.228 86.5988 119.044 86.5983Z" fill="#6379C6"/>
<path d="M197.88 136.627C198.258 136.213 198.54 135.72 198.707 135.184C198.875 134.649 198.923 134.083 198.849 133.526C198.775 132.97 198.58 132.436 198.278 131.963C197.976 131.491 197.575 131.09 197.102 130.79L190.684 96.4057L182.878 99.3097L191.642 132.195C191.191 133.025 191.061 133.993 191.274 134.913C191.487 135.834 192.03 136.645 192.799 137.191C193.568 137.737 194.509 137.982 195.446 137.878C196.383 137.774 197.248 137.329 197.88 136.627Z" fill="#A0616A"/>
<path d="M135.597 84.1609C135.617 84.3744 135.619 84.5891 135.605 84.803L150.781 96.5224L155.085 94.7492L158.601 100.916L151.286 104.798C150.695 105.112 150.019 105.225 149.359 105.12C148.698 105.015 148.09 104.698 147.624 104.216L132.455 88.5249C131.652 88.7066 130.813 88.6387 130.049 88.3302C129.285 88.0218 128.633 87.4874 128.18 86.7982C127.726 86.1089 127.493 85.2975 127.51 84.4718C127.528 83.646 127.795 82.8452 128.277 82.1757C128.759 81.5063 129.433 80.9999 130.209 80.7241C130.985 80.4482 131.826 80.4158 132.621 80.6313C133.415 80.8468 134.126 81.3 134.657 81.9305C135.189 82.5609 135.517 83.3389 135.597 84.1609H135.597Z" fill="#A0616A"/>
<path d="M171.053 197.656H166.685L164.606 184.324L171.054 184.325L171.053 197.656Z" fill="#A0616A"/>
<path d="M172.167 201.905L158.081 201.904V201.725C158.081 201.003 158.223 200.288 158.498 199.62C158.774 198.953 159.178 198.346 159.687 197.836C160.196 197.325 160.8 196.92 161.466 196.643C162.131 196.367 162.844 196.224 163.564 196.224H163.564L172.168 196.225L172.167 201.905Z" fill="#2F2E41"/>
<path d="M187.445 197.656H183.077L180.998 184.324L187.446 184.325L187.445 197.656Z" fill="#A0616A"/>
<path d="M188.559 201.905L174.473 201.904V201.725C174.473 201.003 174.614 200.288 174.89 199.62C175.166 198.953 175.569 198.346 176.079 197.836C176.588 197.325 177.192 196.92 177.857 196.643C178.522 196.367 179.235 196.224 179.955 196.224H179.956L188.559 196.225L188.559 201.905Z" fill="#2F2E41"/>
<path d="M165.778 195.021C165.379 195.021 164.994 194.872 164.699 194.603C164.404 194.334 164.22 193.963 164.183 193.565L160.376 142.193L160.556 142.178L186.754 140.018L186.761 140.204L188.844 193.422C188.852 193.638 188.817 193.854 188.74 194.056C188.663 194.258 188.546 194.442 188.396 194.598C188.247 194.754 188.067 194.878 187.869 194.963C187.671 195.047 187.457 195.091 187.242 195.091H182.105C181.721 195.093 181.35 194.956 181.059 194.705C180.768 194.455 180.576 194.107 180.52 193.727L173.544 150.736C173.537 150.692 173.514 150.652 173.479 150.624C173.444 150.596 173.4 150.582 173.355 150.585C173.31 150.589 173.269 150.609 173.238 150.641C173.207 150.674 173.19 150.717 173.19 150.762L172.873 193.209C172.87 193.618 172.711 194.012 172.429 194.308C172.147 194.605 171.762 194.782 171.354 194.804L165.864 195.018C165.835 195.02 165.806 195.021 165.778 195.021Z" fill="#2F2E41"/>
<path d="M170.249 77.2696C175.083 77.2696 179.001 73.3382 179.001 68.4885C179.001 63.6388 175.083 59.7074 170.249 59.7074C165.416 59.7074 161.497 63.6388 161.497 68.4885C161.497 73.3382 165.416 77.2696 170.249 77.2696Z" fill="#A0616A"/>
<path d="M171.943 145.469C168.118 145.458 164.311 144.936 160.623 143.917C160.268 143.813 159.96 143.59 159.75 143.285C159.54 142.98 159.441 142.611 159.47 142.241C160.648 124.475 160.925 110.688 158.448 101.148C157.392 97.0824 157.871 92.8003 159.763 89.4C162.61 84.2828 167.843 81.1683 173.425 81.2758C173.692 81.2809 173.961 81.2904 174.233 81.3044C182.705 81.7421 189.306 89.4311 188.948 98.4447L187.244 141.408C187.238 141.721 187.139 142.026 186.961 142.283C186.782 142.54 186.532 142.739 186.241 142.853C181.67 144.579 176.827 145.465 171.943 145.469Z" fill="#3F3D56"/>
<path d="M159.888 104.447L153.333 96.3867C153.146 96.1573 153.011 95.8904 152.936 95.6039C152.862 95.3175 152.85 95.0183 152.901 94.7268C152.952 94.4353 153.066 94.1583 153.233 93.9146C153.401 93.671 153.619 93.4664 153.872 93.3149L162.753 88.0057C163.927 87.0546 165.43 86.6098 166.932 86.7688C168.433 86.9278 169.81 87.6776 170.761 88.8539C171.712 90.0302 172.159 91.5368 172.005 93.0435C171.85 94.5501 171.106 95.9338 169.937 96.891L162.996 104.532C162.797 104.751 162.554 104.924 162.282 105.04C162.011 105.156 161.718 105.212 161.423 105.204C161.128 105.195 160.838 105.124 160.573 104.993C160.308 104.862 160.075 104.676 159.888 104.447Z" fill="#3F3D56"/>
<path d="M180.511 103.435C180.242 103.315 180.002 103.137 179.807 102.914C179.612 102.692 179.468 102.43 179.384 102.146L176.432 92.2409C175.792 90.8693 175.719 89.2987 176.231 87.8737C176.743 86.4487 177.797 85.2855 179.163 84.6394C180.528 83.9932 182.094 83.9167 183.515 84.4268C184.937 84.9368 186.099 85.9918 186.746 87.3601L192.453 96.0081C192.616 96.2549 192.724 96.534 192.77 96.8264C192.815 97.1189 192.798 97.4178 192.718 97.7027C192.638 97.9877 192.498 98.252 192.307 98.4777C192.116 98.7034 191.879 98.8852 191.612 99.0107L182.221 103.421C181.954 103.547 181.663 103.613 181.367 103.616C181.072 103.618 180.78 103.557 180.511 103.435Z" fill="#3F3D56"/>
<path d="M174.574 75.6936L168.086 74.2038C167.417 74.0501 166.613 73.7569 166.52 73.0745C166.396 72.1574 167.711 71.5185 167.59 70.6009C167.472 69.7122 166.274 69.5977 165.42 69.3353C164.624 69.0553 163.968 68.4756 163.591 67.7188C163.213 66.9621 163.144 66.0878 163.398 65.281C162.474 66.5881 160.362 66.7 159.163 65.641C157.964 64.582 157.734 62.6607 158.454 61.23C158.843 60.5273 159.392 59.9266 160.056 59.4768C160.72 59.027 161.48 58.7407 162.275 58.6414C163.874 58.4595 165.49 58.7618 166.916 59.5094C167.011 58.4964 168.271 58.0857 169.285 58.0767C171.392 58.1013 173.438 58.7842 175.14 60.0303C176.842 61.2764 178.114 63.0237 178.779 65.0291C180.024 69.052 179.191 73.4618 175.71 75.8156L174.574 75.6936Z" fill="#2F2E41"/>
<path d="M239.919 202H104.154C104.059 202 103.969 201.962 103.902 201.895C103.835 201.828 103.797 201.737 103.797 201.642C103.797 201.548 103.835 201.457 103.902 201.39C103.969 201.323 104.059 201.285 104.154 201.285H239.919C240.014 201.285 240.104 201.323 240.171 201.39C240.238 201.457 240.276 201.548 240.276 201.642C240.276 201.737 240.238 201.828 240.171 201.895C240.104 201.962 240.014 202 239.919 202Z" fill="#3F3D56"/>
</g>
<defs>
<clipPath id="clip0_1_303">
<rect width="304" height="202" fill="white"/>
</clipPath>
</defs>
</svg>
