<svg width="1331" height="240" viewBox="0 0 1331 240" fill="none" xmlns="http://www.w3.org/2000/svg">
<rect width="1331" height="240" rx="21" fill="#F8F0F0"/>
<path d="M31.36 97V74.6H33.984L48.8 93H47.424V74.6H50.624V97H48L33.184 78.6H34.56V97H31.36ZM63.6648 97.192C61.9581 97.192 60.4434 96.8187 59.1208 96.072C57.7981 95.3253 56.7528 94.3013 55.9848 93C55.2168 91.6773 54.8328 90.184 54.8328 88.52C54.8328 86.8347 55.2168 85.3413 55.9848 84.04C56.7528 82.7387 57.7981 81.7253 59.1208 81C60.4434 80.2533 61.9581 79.88 63.6648 79.88C65.3501 79.88 66.8541 80.2533 68.1768 81C69.5208 81.7253 70.5661 82.7387 71.3128 84.04C72.0808 85.32 72.4648 86.8133 72.4648 88.52C72.4648 90.2053 72.0808 91.6987 71.3128 93C70.5661 94.3013 69.5208 95.3253 68.1768 96.072C66.8541 96.8187 65.3501 97.192 63.6648 97.192ZM63.6648 94.504C64.7528 94.504 65.7234 94.2587 66.5768 93.768C67.4514 93.2773 68.1341 92.584 68.6248 91.688C69.1154 90.7707 69.3608 89.7147 69.3608 88.52C69.3608 87.304 69.1154 86.2587 68.6248 85.384C68.1341 84.488 67.4514 83.7947 66.5768 83.304C65.7234 82.8133 64.7528 82.568 63.6648 82.568C62.5768 82.568 61.6061 82.8133 60.7528 83.304C59.8994 83.7947 59.2168 84.488 58.7048 85.384C58.1928 86.2587 57.9368 87.304 57.9368 88.52C57.9368 89.7147 58.1928 90.7707 58.7048 91.688C59.2168 92.584 59.8994 93.2773 60.7528 93.768C61.6061 94.2587 62.5768 94.504 63.6648 94.504ZM76.5943 97.192C75.9969 97.192 75.4849 96.9893 75.0583 96.584C74.6316 96.1573 74.4183 95.624 74.4183 94.984C74.4183 94.344 74.6316 93.8213 75.0583 93.416C75.4849 93.0107 75.9969 92.808 76.5943 92.808C77.1703 92.808 77.6609 93.0107 78.0663 93.416C78.4929 93.8213 78.7063 94.344 78.7063 94.984C78.7063 95.624 78.4929 96.1573 78.0663 96.584C77.6609 96.9893 77.1703 97.192 76.5943 97.192ZM98.006 97.192C96.2993 97.192 94.7847 96.8187 93.462 96.072C92.1393 95.3253 91.094 94.3013 90.326 93C89.558 91.6773 89.174 90.184 89.174 88.52C89.174 86.8347 89.558 85.3413 90.326 84.04C91.094 82.7387 92.1393 81.7253 93.462 81C94.7847 80.2533 96.2993 79.88 98.006 79.88C99.6913 79.88 101.195 80.2533 102.518 81C103.862 81.7253 104.907 82.7387 105.654 84.04C106.422 85.32 106.806 86.8133 106.806 88.52C106.806 90.2053 106.422 91.6987 105.654 93C104.907 94.3013 103.862 95.3253 102.518 96.072C101.195 96.8187 99.6913 97.192 98.006 97.192ZM98.006 94.504C99.094 94.504 100.065 94.2587 100.918 93.768C101.793 93.2773 102.475 92.584 102.966 91.688C103.457 90.7707 103.702 89.7147 103.702 88.52C103.702 87.304 103.457 86.2587 102.966 85.384C102.475 84.488 101.793 83.7947 100.918 83.304C100.065 82.8133 99.094 82.568 98.006 82.568C96.918 82.568 95.9473 82.8133 95.094 83.304C94.2407 83.7947 93.558 84.488 93.046 85.384C92.534 86.2587 92.278 87.304 92.278 88.52C92.278 89.7147 92.534 90.7707 93.046 91.688C93.558 92.584 94.2407 93.2773 95.094 93.768C95.9473 94.2587 96.918 94.504 98.006 94.504ZM111.022 97V78.536C111.022 76.872 111.502 75.5493 112.462 74.568C113.444 73.5653 114.83 73.064 116.622 73.064C117.284 73.064 117.913 73.1493 118.51 73.32C119.129 73.4693 119.652 73.7147 120.078 74.056L119.15 76.392C118.83 76.136 118.468 75.944 118.062 75.816C117.657 75.6667 117.23 75.592 116.782 75.592C115.886 75.592 115.204 75.848 114.734 76.36C114.265 76.8507 114.03 77.5867 114.03 78.568V80.84L114.094 82.248V97H111.022ZM108.142 82.568V80.04H118.958V82.568H108.142ZM140.017 97V93.416L139.858 92.744V86.632C139.858 85.3307 139.473 84.328 138.705 83.624C137.959 82.8987 136.828 82.536 135.313 82.536C134.311 82.536 133.329 82.7067 132.369 83.048C131.409 83.368 130.599 83.8053 129.937 84.36L128.657 82.056C129.532 81.352 130.577 80.8187 131.793 80.456C133.031 80.072 134.321 79.88 135.665 79.88C137.991 79.88 139.783 80.4453 141.042 81.576C142.3 82.7067 142.93 84.4347 142.93 86.76V97H140.017ZM134.449 97.192C133.191 97.192 132.081 96.9787 131.121 96.552C130.183 96.1253 129.457 95.5387 128.945 94.792C128.433 94.024 128.177 93.16 128.177 92.2C128.177 91.2827 128.391 90.4507 128.817 89.704C129.265 88.9573 129.98 88.36 130.961 87.912C131.964 87.464 133.308 87.24 134.993 87.24H140.37V89.448H135.122C133.585 89.448 132.551 89.704 132.017 90.216C131.484 90.728 131.217 91.3467 131.217 92.072C131.217 92.904 131.548 93.576 132.209 94.088C132.871 94.5787 133.788 94.824 134.962 94.824C136.113 94.824 137.116 94.568 137.969 94.056C138.844 93.544 139.473 92.7973 139.858 91.816L140.465 93.928C140.06 94.9307 139.345 95.7307 138.321 96.328C137.297 96.904 136.007 97.192 134.449 97.192ZM157.127 97.192C155.719 97.192 154.428 96.872 153.255 96.232C152.103 95.5707 151.175 94.6 150.471 93.32C149.788 92.04 149.447 90.44 149.447 88.52C149.447 86.6 149.777 85 150.439 83.72C151.121 82.44 152.039 81.48 153.191 80.84C154.364 80.2 155.676 79.88 157.127 79.88C158.791 79.88 160.263 80.2427 161.543 80.968C162.823 81.6933 163.836 82.7067 164.583 84.008C165.329 85.288 165.703 86.792 165.703 88.52C165.703 90.248 165.329 91.7627 164.583 93.064C163.836 94.3653 162.823 95.3787 161.543 96.104C160.263 96.8293 158.791 97.192 157.127 97.192ZM148.135 103.208V80.04H151.079V84.616L150.887 88.552L151.207 92.488V103.208H148.135ZM156.871 94.504C157.959 94.504 158.929 94.2587 159.783 93.768C160.657 93.2773 161.34 92.584 161.831 91.688C162.343 90.7707 162.599 89.7147 162.599 88.52C162.599 87.304 162.343 86.2587 161.831 85.384C161.34 84.488 160.657 83.7947 159.783 83.304C158.929 82.8133 157.959 82.568 156.871 82.568C155.804 82.568 154.833 82.8133 153.959 83.304C153.105 83.7947 152.423 84.488 151.911 85.384C151.42 86.2587 151.175 87.304 151.175 88.52C151.175 89.7147 151.42 90.7707 151.911 91.688C152.423 92.584 153.105 93.2773 153.959 93.768C154.833 94.2587 155.804 94.504 156.871 94.504ZM178.459 97.192C177.051 97.192 175.76 96.872 174.587 96.232C173.435 95.5707 172.507 94.6 171.803 93.32C171.12 92.04 170.779 90.44 170.779 88.52C170.779 86.6 171.11 85 171.771 83.72C172.454 82.44 173.371 81.48 174.523 80.84C175.696 80.2 177.008 79.88 178.459 79.88C180.123 79.88 181.595 80.2427 182.875 80.968C184.155 81.6933 185.168 82.7067 185.915 84.008C186.662 85.288 187.035 86.792 187.035 88.52C187.035 90.248 186.662 91.7627 185.915 93.064C185.168 94.3653 184.155 95.3787 182.875 96.104C181.595 96.8293 180.123 97.192 178.459 97.192ZM169.467 103.208V80.04H172.411V84.616L172.219 88.552L172.539 92.488V103.208H169.467ZM178.203 94.504C179.291 94.504 180.262 94.2587 181.115 93.768C181.99 93.2773 182.672 92.584 183.163 91.688C183.675 90.7707 183.931 89.7147 183.931 88.52C183.931 87.304 183.675 86.2587 183.163 85.384C182.672 84.488 181.99 83.7947 181.115 83.304C180.262 82.8133 179.291 82.568 178.203 82.568C177.136 82.568 176.166 82.8133 175.291 83.304C174.438 83.7947 173.755 84.488 173.243 85.384C172.752 86.2587 172.507 87.304 172.507 88.52C172.507 89.7147 172.752 90.7707 173.243 91.688C173.755 92.584 174.438 93.2773 175.291 93.768C176.166 94.2587 177.136 94.504 178.203 94.504ZM195.663 97.192C194.255 97.192 192.911 97 191.631 96.616C190.373 96.232 189.381 95.7627 188.655 95.208L189.935 92.776C190.661 93.2667 191.557 93.6827 192.623 94.024C193.69 94.3653 194.778 94.536 195.887 94.536C197.317 94.536 198.341 94.3333 198.959 93.928C199.599 93.5227 199.919 92.9573 199.919 92.232C199.919 91.6987 199.727 91.2827 199.343 90.984C198.959 90.6853 198.447 90.4613 197.807 90.312C197.189 90.1627 196.495 90.0347 195.727 89.928C194.959 89.8 194.191 89.6507 193.423 89.48C192.655 89.288 191.951 89.032 191.311 88.712C190.671 88.3707 190.159 87.912 189.775 87.336C189.391 86.7387 189.199 85.9493 189.199 84.968C189.199 83.944 189.487 83.048 190.063 82.28C190.639 81.512 191.45 80.9253 192.495 80.52C193.562 80.0933 194.821 79.88 196.271 79.88C197.381 79.88 198.501 80.0187 199.631 80.296C200.783 80.552 201.722 80.9253 202.447 81.416L201.135 83.848C200.367 83.336 199.567 82.984 198.735 82.792C197.903 82.6 197.071 82.504 196.239 82.504C194.895 82.504 193.893 82.728 193.231 83.176C192.57 83.6027 192.239 84.1573 192.239 84.84C192.239 85.416 192.431 85.864 192.815 86.184C193.221 86.4827 193.733 86.7173 194.351 86.888C194.991 87.0587 195.695 87.208 196.463 87.336C197.231 87.4427 197.999 87.592 198.767 87.784C199.535 87.9547 200.229 88.2 200.847 88.52C201.487 88.84 201.999 89.288 202.383 89.864C202.789 90.44 202.991 91.208 202.991 92.168C202.991 93.192 202.693 94.0773 202.095 94.824C201.498 95.5707 200.655 96.1573 199.567 96.584C198.479 96.9893 197.178 97.192 195.663 97.192ZM221.601 97.192C220.15 97.192 218.87 96.9253 217.761 96.392C216.673 95.8587 215.819 95.048 215.201 93.96C214.603 92.8507 214.305 91.464 214.305 89.8V80.04H217.377V89.448C217.377 91.112 217.771 92.36 218.561 93.192C219.371 94.024 220.502 94.44 221.953 94.44C223.019 94.44 223.947 94.2267 224.737 93.8C225.526 93.352 226.134 92.712 226.561 91.88C226.987 91.0267 227.201 90.0027 227.201 88.808V80.04H230.273V97H227.361V92.424L227.841 93.64C227.286 94.7707 226.454 95.6453 225.345 96.264C224.235 96.8827 222.987 97.192 221.601 97.192ZM240.505 97.192C239.097 97.192 237.753 97 236.473 96.616C235.214 96.232 234.222 95.7627 233.497 95.208L234.777 92.776C235.502 93.2667 236.398 93.6827 237.465 94.024C238.531 94.3653 239.619 94.536 240.729 94.536C242.158 94.536 243.182 94.3333 243.801 93.928C244.441 93.5227 244.761 92.9573 244.761 92.232C244.761 91.6987 244.569 91.2827 244.185 90.984C243.801 90.6853 243.289 90.4613 242.649 90.312C242.03 90.1627 241.337 90.0347 240.569 89.928C239.801 89.8 239.033 89.6507 238.265 89.48C237.497 89.288 236.793 89.032 236.153 88.712C235.513 88.3707 235.001 87.912 234.617 87.336C234.233 86.7387 234.041 85.9493 234.041 84.968C234.041 83.944 234.329 83.048 234.905 82.28C235.481 81.512 236.291 80.9253 237.337 80.52C238.403 80.0933 239.662 79.88 241.113 79.88C242.222 79.88 243.342 80.0187 244.473 80.296C245.625 80.552 246.563 80.9253 247.289 81.416L245.977 83.848C245.209 83.336 244.409 82.984 243.577 82.792C242.745 82.6 241.913 82.504 241.081 82.504C239.737 82.504 238.734 82.728 238.073 83.176C237.411 83.6027 237.081 84.1573 237.081 84.84C237.081 85.416 237.273 85.864 237.657 86.184C238.062 86.4827 238.574 86.7173 239.193 86.888C239.833 87.0587 240.537 87.208 241.305 87.336C242.073 87.4427 242.841 87.592 243.609 87.784C244.377 87.9547 245.07 88.2 245.689 88.52C246.329 88.84 246.841 89.288 247.225 89.864C247.63 90.44 247.833 91.208 247.833 92.168C247.833 93.192 247.534 94.0773 246.937 94.824C246.339 95.5707 245.497 96.1573 244.409 96.584C243.321 96.9893 242.019 97.192 240.505 97.192ZM258.744 97.192C256.931 97.192 255.331 96.8187 253.944 96.072C252.579 95.3253 251.512 94.3013 250.744 93C249.997 91.6987 249.624 90.2053 249.624 88.52C249.624 86.8347 249.987 85.3413 250.712 84.04C251.459 82.7387 252.472 81.7253 253.752 81C255.053 80.2533 256.515 79.88 258.136 79.88C259.779 79.88 261.229 80.2427 262.488 80.968C263.747 81.6933 264.728 82.7173 265.432 84.04C266.157 85.3413 266.52 86.8667 266.52 88.616C266.52 88.744 266.509 88.8933 266.488 89.064C266.488 89.2347 266.477 89.3947 266.456 89.544H252.024V87.336H264.856L263.608 88.104C263.629 87.016 263.405 86.0453 262.936 85.192C262.467 84.3387 261.816 83.6773 260.984 83.208C260.173 82.7173 259.224 82.472 258.136 82.472C257.069 82.472 256.12 82.7173 255.288 83.208C254.456 83.6773 253.805 84.3493 253.336 85.224C252.867 86.0773 252.632 87.0587 252.632 88.168V88.68C252.632 89.8107 252.888 90.824 253.4 91.72C253.933 92.5947 254.669 93.2773 255.608 93.768C256.547 94.2587 257.624 94.504 258.84 94.504C259.843 94.504 260.749 94.3333 261.56 93.992C262.392 93.6507 263.117 93.1387 263.736 92.456L265.432 94.44C264.664 95.336 263.704 96.0187 262.552 96.488C261.421 96.9573 260.152 97.192 258.744 97.192ZM277.314 97.192C275.671 97.192 274.199 96.8293 272.898 96.104C271.618 95.3787 270.604 94.3653 269.858 93.064C269.111 91.7627 268.738 90.248 268.738 88.52C268.738 86.792 269.111 85.288 269.858 84.008C270.604 82.7067 271.618 81.6933 272.898 80.968C274.199 80.2427 275.671 79.88 277.314 79.88C278.743 79.88 280.034 80.2 281.186 80.84C282.338 81.48 283.255 82.44 283.938 83.72C284.642 85 284.994 86.6 284.994 88.52C284.994 90.44 284.652 92.04 283.97 93.32C283.308 94.6 282.402 95.5707 281.25 96.232C280.098 96.872 278.786 97.192 277.314 97.192ZM277.57 94.504C278.636 94.504 279.596 94.2587 280.45 93.768C281.324 93.2773 282.007 92.584 282.498 91.688C283.01 90.7707 283.266 89.7147 283.266 88.52C283.266 87.304 283.01 86.2587 282.498 85.384C282.007 84.488 281.324 83.7947 280.45 83.304C279.596 82.8133 278.636 82.568 277.57 82.568C276.482 82.568 275.511 82.8133 274.658 83.304C273.804 83.7947 273.122 84.488 272.61 85.384C272.098 86.2587 271.842 87.304 271.842 88.52C271.842 89.7147 272.098 90.7707 272.61 91.688C273.122 92.584 273.804 93.2773 274.658 93.768C275.511 94.2587 276.482 94.504 277.57 94.504ZM283.362 97V92.424L283.554 88.488L283.234 84.552V73.256H286.306V97H283.362ZM308.744 97.192C307.293 97.192 305.981 96.872 304.808 96.232C303.656 95.5707 302.739 94.6 302.056 93.32C301.395 92.04 301.064 90.44 301.064 88.52C301.064 86.6 301.405 85 302.088 83.72C302.792 82.44 303.72 81.48 304.872 80.84C306.045 80.2 307.336 79.88 308.744 79.88C310.408 79.88 311.88 80.2427 313.16 80.968C314.44 81.6933 315.453 82.7067 316.2 84.008C316.947 85.288 317.32 86.792 317.32 88.52C317.32 90.248 316.947 91.7627 316.2 93.064C315.453 94.3653 314.44 95.3787 313.16 96.104C311.88 96.8293 310.408 97.192 308.744 97.192ZM299.752 97V73.256H302.824V84.552L302.504 88.488L302.696 92.424V97H299.752ZM308.488 94.504C309.576 94.504 310.547 94.2587 311.4 93.768C312.275 93.2773 312.957 92.584 313.448 91.688C313.96 90.7707 314.216 89.7147 314.216 88.52C314.216 87.304 313.96 86.2587 313.448 85.384C312.957 84.488 312.275 83.7947 311.4 83.304C310.547 82.8133 309.576 82.568 308.488 82.568C307.421 82.568 306.451 82.8133 305.576 83.304C304.723 83.7947 304.04 84.488 303.528 85.384C303.037 86.2587 302.792 87.304 302.792 88.52C302.792 89.7147 303.037 90.7707 303.528 91.688C304.04 92.584 304.723 93.2773 305.576 93.768C306.451 94.2587 307.421 94.504 308.488 94.504ZM321.352 103.4C320.541 103.4 319.752 103.261 318.984 102.984C318.216 102.728 317.554 102.344 317 101.832L318.312 99.528C318.738 99.9333 319.208 100.243 319.72 100.456C320.232 100.669 320.776 100.776 321.352 100.776C322.098 100.776 322.717 100.584 323.208 100.2C323.698 99.816 324.157 99.1333 324.584 98.152L325.64 95.816L325.96 95.432L332.616 80.04H335.624L327.4 98.696C326.909 99.8907 326.354 100.829 325.736 101.512C325.138 102.195 324.477 102.675 323.752 102.952C323.026 103.251 322.226 103.4 321.352 103.4ZM325.384 97.544L317.64 80.04H320.84L327.432 95.144L325.384 97.544ZM351.948 97.192C350.242 97.192 348.919 96.7333 347.98 95.816C347.042 94.8987 346.572 93.5867 346.572 91.88V76.328H349.644V91.752C349.644 92.6693 349.868 93.3733 350.316 93.864C350.786 94.3547 351.447 94.6 352.3 94.6C353.26 94.6 354.06 94.3333 354.7 93.8L355.66 96.008C355.191 96.4133 354.626 96.712 353.964 96.904C353.324 97.096 352.652 97.192 351.948 97.192ZM343.692 82.568V80.04H354.508V82.568H343.692ZM367.951 79.88C369.337 79.88 370.553 80.1467 371.599 80.68C372.665 81.2133 373.497 82.024 374.095 83.112C374.692 84.2 374.991 85.576 374.991 87.24V97H371.919V87.592C371.919 85.9493 371.513 84.712 370.703 83.88C369.913 83.048 368.793 82.632 367.343 82.632C366.255 82.632 365.305 82.8453 364.495 83.272C363.684 83.6987 363.055 84.328 362.607 85.16C362.18 85.992 361.967 87.0267 361.967 88.264V97H358.895V73.256H361.967V84.616L361.359 83.4C361.913 82.2907 362.767 81.4267 363.919 80.808C365.071 80.1893 366.415 79.88 367.951 79.88ZM387.748 97.192C385.934 97.192 384.334 96.8187 382.948 96.072C381.582 95.3253 380.516 94.3013 379.748 93C379.001 91.6987 378.628 90.2053 378.628 88.52C378.628 86.8347 378.99 85.3413 379.716 84.04C380.462 82.7387 381.476 81.7253 382.756 81C384.057 80.2533 385.518 79.88 387.14 79.88C388.782 79.88 390.233 80.2427 391.492 80.968C392.75 81.6933 393.732 82.7173 394.436 84.04C395.161 85.3413 395.524 86.8667 395.524 88.616C395.524 88.744 395.513 88.8933 395.492 89.064C395.492 89.2347 395.481 89.3947 395.46 89.544H381.028V87.336H393.86L392.612 88.104C392.633 87.016 392.409 86.0453 391.94 85.192C391.47 84.3387 390.82 83.6773 389.988 83.208C389.177 82.7173 388.228 82.472 387.14 82.472C386.073 82.472 385.124 82.7173 384.292 83.208C383.46 83.6773 382.809 84.3493 382.34 85.224C381.87 86.0773 381.636 87.0587 381.636 88.168V88.68C381.636 89.8107 381.892 90.824 382.404 91.72C382.937 92.5947 383.673 93.2773 384.612 93.768C385.55 94.2587 386.628 94.504 387.844 94.504C388.846 94.504 389.753 94.3333 390.564 93.992C391.396 93.6507 392.121 93.1387 392.74 92.456L394.436 94.44C393.668 95.336 392.708 96.0187 391.556 96.488C390.425 96.9573 389.156 97.192 387.748 97.192ZM412.287 97.192C410.879 97.192 409.535 97 408.255 96.616C406.997 96.232 406.005 95.7627 405.279 95.208L406.559 92.776C407.285 93.2667 408.181 93.6827 409.247 94.024C410.314 94.3653 411.402 94.536 412.511 94.536C413.941 94.536 414.965 94.3333 415.583 93.928C416.223 93.5227 416.543 92.9573 416.543 92.232C416.543 91.6987 416.351 91.2827 415.967 90.984C415.583 90.6853 415.071 90.4613 414.431 90.312C413.813 90.1627 413.119 90.0347 412.351 89.928C411.583 89.8 410.815 89.6507 410.047 89.48C409.279 89.288 408.575 89.032 407.935 88.712C407.295 88.3707 406.783 87.912 406.399 87.336C406.015 86.7387 405.823 85.9493 405.823 84.968C405.823 83.944 406.111 83.048 406.687 82.28C407.263 81.512 408.074 80.9253 409.119 80.52C410.186 80.0933 411.445 79.88 412.895 79.88C414.005 79.88 415.125 80.0187 416.255 80.296C417.407 80.552 418.346 80.9253 419.071 81.416L417.759 83.848C416.991 83.336 416.191 82.984 415.359 82.792C414.527 82.6 413.695 82.504 412.863 82.504C411.519 82.504 410.517 82.728 409.855 83.176C409.194 83.6027 408.863 84.1573 408.863 84.84C408.863 85.416 409.055 85.864 409.439 86.184C409.845 86.4827 410.357 86.7173 410.975 86.888C411.615 87.0587 412.319 87.208 413.087 87.336C413.855 87.4427 414.623 87.592 415.391 87.784C416.159 87.9547 416.853 88.2 417.471 88.52C418.111 88.84 418.623 89.288 419.007 89.864C419.413 90.44 419.615 91.208 419.615 92.168C419.615 93.192 419.317 94.0773 418.719 94.824C418.122 95.5707 417.279 96.1573 416.191 96.584C415.103 96.9893 413.802 97.192 412.287 97.192ZM428.799 97.192C427.092 97.192 425.769 96.7333 424.831 95.816C423.892 94.8987 423.423 93.5867 423.423 91.88V76.328H426.495V91.752C426.495 92.6693 426.719 93.3733 427.167 93.864C427.636 94.3547 428.297 94.6 429.151 94.6C430.111 94.6 430.911 94.3333 431.551 93.8L432.511 96.008C432.041 96.4133 431.476 96.712 430.815 96.904C430.175 97.096 429.503 97.192 428.799 97.192ZM420.543 82.568V80.04H431.359V82.568H420.543ZM442.88 97.192C441.43 97.192 440.15 96.9253 439.04 96.392C437.952 95.8587 437.099 95.048 436.48 93.96C435.883 92.8507 435.584 91.464 435.584 89.8V80.04H438.656V89.448C438.656 91.112 439.051 92.36 439.84 93.192C440.651 94.024 441.782 94.44 443.232 94.44C444.299 94.44 445.227 94.2267 446.016 93.8C446.806 93.352 447.414 92.712 447.84 91.88C448.267 91.0267 448.48 90.0027 448.48 88.808V80.04H451.552V97H448.64V92.424L449.12 93.64C448.566 94.7707 447.734 95.6453 446.624 96.264C445.515 96.8827 444.267 97.192 442.88 97.192ZM463.929 97.192C462.286 97.192 460.814 96.8293 459.513 96.104C458.233 95.3787 457.219 94.3653 456.473 93.064C455.726 91.7627 455.353 90.248 455.353 88.52C455.353 86.792 455.726 85.288 456.473 84.008C457.219 82.7067 458.233 81.6933 459.513 80.968C460.814 80.2427 462.286 79.88 463.929 79.88C465.358 79.88 466.649 80.2 467.801 80.84C468.953 81.48 469.87 82.44 470.553 83.72C471.257 85 471.609 86.6 471.609 88.52C471.609 90.44 471.267 92.04 470.585 93.32C469.923 94.6 469.017 95.5707 467.865 96.232C466.713 96.872 465.401 97.192 463.929 97.192ZM464.185 94.504C465.251 94.504 466.211 94.2587 467.065 93.768C467.939 93.2773 468.622 92.584 469.113 91.688C469.625 90.7707 469.881 89.7147 469.881 88.52C469.881 87.304 469.625 86.2587 469.113 85.384C468.622 84.488 467.939 83.7947 467.065 83.304C466.211 82.8133 465.251 82.568 464.185 82.568C463.097 82.568 462.126 82.8133 461.273 83.304C460.419 83.7947 459.737 84.488 459.225 85.384C458.713 86.2587 458.457 87.304 458.457 88.52C458.457 89.7147 458.713 90.7707 459.225 91.688C459.737 92.584 460.419 93.2773 461.273 93.768C462.126 94.2587 463.097 94.504 464.185 94.504ZM469.977 97V92.424L470.169 88.488L469.849 84.552V73.256H472.921V97H469.977ZM485.805 97.192C483.992 97.192 482.392 96.8187 481.005 96.072C479.64 95.3253 478.573 94.3013 477.805 93C477.059 91.6987 476.685 90.2053 476.685 88.52C476.685 86.8347 477.048 85.3413 477.773 84.04C478.52 82.7387 479.533 81.7253 480.813 81C482.115 80.2533 483.576 79.88 485.197 79.88C486.84 79.88 488.291 80.2427 489.549 80.968C490.808 81.6933 491.789 82.7173 492.493 84.04C493.219 85.3413 493.581 86.8667 493.581 88.616C493.581 88.744 493.571 88.8933 493.549 89.064C493.549 89.2347 493.539 89.3947 493.517 89.544H479.085V87.336H491.917L490.669 88.104C490.691 87.016 490.467 86.0453 489.997 85.192C489.528 84.3387 488.877 83.6773 488.045 83.208C487.235 82.7173 486.285 82.472 485.197 82.472C484.131 82.472 483.181 82.7173 482.349 83.208C481.517 83.6773 480.867 84.3493 480.397 85.224C479.928 86.0773 479.693 87.0587 479.693 88.168V88.68C479.693 89.8107 479.949 90.824 480.461 91.72C480.995 92.5947 481.731 93.2773 482.669 93.768C483.608 94.2587 484.685 94.504 485.901 94.504C486.904 94.504 487.811 94.3333 488.621 93.992C489.453 93.6507 490.179 93.1387 490.797 92.456L492.493 94.44C491.725 95.336 490.765 96.0187 489.613 96.488C488.483 96.9573 487.213 97.192 485.805 97.192ZM506.423 79.88C507.81 79.88 509.026 80.1467 510.071 80.68C511.138 81.2133 511.97 82.024 512.567 83.112C513.164 84.2 513.463 85.576 513.463 87.24V97H510.391V87.592C510.391 85.9493 509.986 84.712 509.175 83.88C508.386 83.048 507.266 82.632 505.815 82.632C504.727 82.632 503.778 82.8453 502.967 83.272C502.156 83.6987 501.527 84.328 501.079 85.16C500.652 85.992 500.439 87.0267 500.439 88.264V97H497.367V80.04H500.311V84.616L499.831 83.4C500.386 82.2907 501.239 81.4267 502.391 80.808C503.543 80.1893 504.887 79.88 506.423 79.88ZM524.492 97.192C522.786 97.192 521.463 96.7333 520.524 95.816C519.586 94.8987 519.116 93.5867 519.116 91.88V76.328H522.188V91.752C522.188 92.6693 522.412 93.3733 522.86 93.864C523.33 94.3547 523.991 94.6 524.844 94.6C525.804 94.6 526.604 94.3333 527.244 93.8L528.204 96.008C527.735 96.4133 527.17 96.712 526.508 96.904C525.868 97.096 525.196 97.192 524.492 97.192ZM516.236 82.568V80.04H527.052V82.568H516.236ZM547.666 97V80.04H550.738V97H547.666ZM549.202 76.776C548.604 76.776 548.103 76.584 547.698 76.2C547.314 75.816 547.122 75.3467 547.122 74.792C547.122 74.216 547.314 73.736 547.698 73.352C548.103 72.968 548.604 72.776 549.202 72.776C549.799 72.776 550.29 72.968 550.674 73.352C551.079 73.7147 551.282 74.1733 551.282 74.728C551.282 75.304 551.09 75.7947 550.706 76.2C550.322 76.584 549.82 76.776 549.202 76.776ZM565.179 79.88C566.566 79.88 567.782 80.1467 568.827 80.68C569.894 81.2133 570.726 82.024 571.323 83.112C571.921 84.2 572.219 85.576 572.219 87.24V97H569.147V87.592C569.147 85.9493 568.742 84.712 567.931 83.88C567.142 83.048 566.022 82.632 564.571 82.632C563.483 82.632 562.534 82.8453 561.723 83.272C560.913 83.6987 560.283 84.328 559.835 85.16C559.409 85.992 559.195 87.0267 559.195 88.264V97H556.123V80.04H559.067V84.616L558.587 83.4C559.142 82.2907 559.995 81.4267 561.147 80.808C562.299 80.1893 563.643 79.88 565.179 79.88ZM591.362 97.192C589.656 97.192 588.333 96.7333 587.394 95.816C586.456 94.8987 585.986 93.5867 585.986 91.88V76.328H589.058V91.752C589.058 92.6693 589.282 93.3733 589.73 93.864C590.2 94.3547 590.861 94.6 591.714 94.6C592.674 94.6 593.474 94.3333 594.114 93.8L595.074 96.008C594.605 96.4133 594.04 96.712 593.378 96.904C592.738 97.096 592.066 97.192 591.362 97.192ZM583.106 82.568V80.04H593.922V82.568H583.106ZM605.01 97.192C603.303 97.192 601.788 96.8187 600.466 96.072C599.143 95.3253 598.098 94.3013 597.33 93C596.562 91.6773 596.178 90.184 596.178 88.52C596.178 86.8347 596.562 85.3413 597.33 84.04C598.098 82.7387 599.143 81.7253 600.466 81C601.788 80.2533 603.303 79.88 605.01 79.88C606.695 79.88 608.199 80.2533 609.522 81C610.866 81.7253 611.911 82.7387 612.658 84.04C613.426 85.32 613.81 86.8133 613.81 88.52C613.81 90.2053 613.426 91.6987 612.658 93C611.911 94.3013 610.866 95.3253 609.522 96.072C608.199 96.8187 606.695 97.192 605.01 97.192ZM605.01 94.504C606.098 94.504 607.068 94.2587 607.922 93.768C608.796 93.2773 609.479 92.584 609.97 91.688C610.46 90.7707 610.706 89.7147 610.706 88.52C610.706 87.304 610.46 86.2587 609.97 85.384C609.479 84.488 608.796 83.7947 607.922 83.304C607.068 82.8133 606.098 82.568 605.01 82.568C603.922 82.568 602.951 82.8133 602.098 83.304C601.244 83.7947 600.562 84.488 600.05 85.384C599.538 86.2587 599.282 87.304 599.282 88.52C599.282 89.7147 599.538 90.7707 600.05 91.688C600.562 92.584 601.244 93.2773 602.098 93.768C602.951 94.2587 603.922 94.504 605.01 94.504ZM623.402 97.192C621.696 97.192 620.373 96.7333 619.434 95.816C618.496 94.8987 618.026 93.5867 618.026 91.88V76.328H621.098V91.752C621.098 92.6693 621.322 93.3733 621.77 93.864C622.24 94.3547 622.901 94.6 623.754 94.6C624.714 94.6 625.514 94.3333 626.154 93.8L627.114 96.008C626.645 96.4133 626.08 96.712 625.418 96.904C624.778 97.096 624.106 97.192 623.402 97.192ZM615.146 82.568V80.04H625.962V82.568H615.146ZM640.876 97V93.416L640.716 92.744V86.632C640.716 85.3307 640.332 84.328 639.564 83.624C638.818 82.8987 637.687 82.536 636.172 82.536C635.17 82.536 634.188 82.7067 633.228 83.048C632.268 83.368 631.458 83.8053 630.796 84.36L629.516 82.056C630.391 81.352 631.436 80.8187 632.652 80.456C633.89 80.072 635.18 79.88 636.524 79.88C638.85 79.88 640.642 80.4453 641.9 81.576C643.159 82.7067 643.788 84.4347 643.788 86.76V97H640.876ZM635.308 97.192C634.05 97.192 632.94 96.9787 631.98 96.552C631.042 96.1253 630.316 95.5387 629.804 94.792C629.292 94.024 629.036 93.16 629.036 92.2C629.036 91.2827 629.25 90.4507 629.676 89.704C630.124 88.9573 630.839 88.36 631.82 87.912C632.823 87.464 634.167 87.24 635.852 87.24H641.228V89.448H635.98C634.444 89.448 633.41 89.704 632.876 90.216C632.343 90.728 632.076 91.3467 632.076 92.072C632.076 92.904 632.407 93.576 633.068 94.088C633.73 94.5787 634.647 94.824 635.82 94.824C636.972 94.824 637.975 94.568 638.828 94.056C639.703 93.544 640.332 92.7973 640.716 91.816L641.324 93.928C640.919 94.9307 640.204 95.7307 639.18 96.328C638.156 96.904 636.866 97.192 635.308 97.192ZM648.993 97V73.256H652.065V97H648.993ZM672.957 97.192C671.229 97.192 669.682 96.8187 668.317 96.072C666.973 95.3253 665.917 94.3013 665.149 93C664.381 91.6987 663.997 90.2053 663.997 88.52C663.997 86.8347 664.381 85.3413 665.149 84.04C665.917 82.7387 666.973 81.7253 668.317 81C669.682 80.2533 671.229 79.88 672.957 79.88C674.493 79.88 675.858 80.1893 677.053 80.808C678.269 81.4053 679.207 82.3013 679.869 83.496L677.533 85C676.978 84.168 676.295 83.56 675.485 83.176C674.695 82.7707 673.842 82.568 672.925 82.568C671.815 82.568 670.823 82.8133 669.949 83.304C669.074 83.7947 668.381 84.488 667.869 85.384C667.357 86.2587 667.101 87.304 667.101 88.52C667.101 89.736 667.357 90.792 667.869 91.688C668.381 92.584 669.074 93.2773 669.949 93.768C670.823 94.2587 671.815 94.504 672.925 94.504C673.842 94.504 674.695 94.312 675.485 93.928C676.295 93.5227 676.978 92.904 677.533 92.072L679.869 93.544C679.207 94.7173 678.269 95.624 677.053 96.264C675.858 96.8827 674.493 97.192 672.957 97.192ZM690.38 97.192C688.673 97.192 687.158 96.8187 685.836 96.072C684.513 95.3253 683.468 94.3013 682.7 93C681.932 91.6773 681.548 90.184 681.548 88.52C681.548 86.8347 681.932 85.3413 682.7 84.04C683.468 82.7387 684.513 81.7253 685.836 81C687.158 80.2533 688.673 79.88 690.38 79.88C692.065 79.88 693.569 80.2533 694.892 81C696.236 81.7253 697.281 82.7387 698.028 84.04C698.796 85.32 699.18 86.8133 699.18 88.52C699.18 90.2053 698.796 91.6987 698.028 93C697.281 94.3013 696.236 95.3253 694.892 96.072C693.569 96.8187 692.065 97.192 690.38 97.192ZM690.38 94.504C691.468 94.504 692.438 94.2587 693.292 93.768C694.166 93.2773 694.849 92.584 695.34 91.688C695.83 90.7707 696.076 89.7147 696.076 88.52C696.076 87.304 695.83 86.2587 695.34 85.384C694.849 84.488 694.166 83.7947 693.292 83.304C692.438 82.8133 691.468 82.568 690.38 82.568C689.292 82.568 688.321 82.8133 687.468 83.304C686.614 83.7947 685.932 84.488 685.42 85.384C684.908 86.2587 684.652 87.304 684.652 88.52C684.652 89.7147 684.908 90.7707 685.42 91.688C685.932 92.584 686.614 93.2773 687.468 93.768C688.321 94.2587 689.292 94.504 690.38 94.504ZM724.164 79.88C725.53 79.88 726.735 80.1467 727.78 80.68C728.826 81.2133 729.636 82.024 730.212 83.112C730.81 84.2 731.108 85.576 731.108 87.24V97H728.036V87.592C728.036 85.9493 727.652 84.712 726.884 83.88C726.116 83.048 725.039 82.632 723.652 82.632C722.628 82.632 721.732 82.8453 720.964 83.272C720.196 83.6987 719.599 84.328 719.172 85.16C718.767 85.992 718.564 87.0267 718.564 88.264V97H715.492V87.592C715.492 85.9493 715.108 84.712 714.34 83.88C713.594 83.048 712.516 82.632 711.108 82.632C710.106 82.632 709.22 82.8453 708.452 83.272C707.684 83.6987 707.087 84.328 706.66 85.16C706.234 85.992 706.02 87.0267 706.02 88.264V97H702.948V80.04H705.892V84.552L705.412 83.4C705.946 82.2907 706.767 81.4267 707.876 80.808C708.986 80.1893 710.276 79.88 711.748 79.88C713.37 79.88 714.767 80.2853 715.94 81.096C717.114 81.8853 717.882 83.0907 718.244 84.712L716.996 84.2C717.508 82.8987 718.404 81.8533 719.684 81.064C720.964 80.2747 722.458 79.88 724.164 79.88ZM745.273 97.192C743.822 97.192 742.51 96.872 741.337 96.232C740.185 95.5707 739.267 94.6 738.585 93.32C737.923 92.04 737.593 90.44 737.593 88.52C737.593 86.6 737.934 85 738.617 83.72C739.321 82.44 740.249 81.48 741.401 80.84C742.574 80.2 743.865 79.88 745.273 79.88C746.937 79.88 748.409 80.2427 749.689 80.968C750.969 81.6933 751.982 82.7067 752.729 84.008C753.475 85.288 753.849 86.792 753.849 88.52C753.849 90.248 753.475 91.7627 752.729 93.064C751.982 94.3653 750.969 95.3787 749.689 96.104C748.409 96.8293 746.937 97.192 745.273 97.192ZM736.281 97V73.256H739.353V84.552L739.033 88.488L739.225 92.424V97H736.281ZM745.017 94.504C746.105 94.504 747.075 94.2587 747.929 93.768C748.803 93.2773 749.486 92.584 749.977 91.688C750.489 90.7707 750.745 89.7147 750.745 88.52C750.745 87.304 750.489 86.2587 749.977 85.384C749.486 84.488 748.803 83.7947 747.929 83.304C747.075 82.8133 746.105 82.568 745.017 82.568C743.95 82.568 742.979 82.8133 742.105 83.304C741.251 83.7947 740.569 84.488 740.057 85.384C739.566 86.2587 739.321 87.304 739.321 88.52C739.321 89.7147 739.566 90.7707 740.057 91.688C740.569 92.584 741.251 93.2773 742.105 93.768C742.979 94.2587 743.95 94.504 745.017 94.504ZM757.613 97V80.04H760.685V97H757.613ZM759.149 76.776C758.552 76.776 758.051 76.584 757.645 76.2C757.261 75.816 757.069 75.3467 757.069 74.792C757.069 74.216 757.261 73.736 757.645 73.352C758.051 72.968 758.552 72.776 759.149 72.776C759.747 72.776 760.237 72.968 760.621 73.352C761.027 73.7147 761.229 74.1733 761.229 74.728C761.229 75.304 761.037 75.7947 760.653 76.2C760.269 76.584 759.768 76.776 759.149 76.776ZM775.127 79.88C776.513 79.88 777.729 80.1467 778.775 80.68C779.841 81.2133 780.673 82.024 781.271 83.112C781.868 84.2 782.167 85.576 782.167 87.24V97H779.095V87.592C779.095 85.9493 778.689 84.712 777.879 83.88C777.089 83.048 775.969 82.632 774.519 82.632C773.431 82.632 772.481 82.8453 771.671 83.272C770.86 83.6987 770.231 84.328 769.783 85.16C769.356 85.992 769.143 87.0267 769.143 88.264V97H766.071V80.04H769.015V84.616L768.535 83.4C769.089 82.2907 769.943 81.4267 771.095 80.808C772.247 80.1893 773.591 79.88 775.127 79.88ZM794.924 97.192C793.111 97.192 791.511 96.8187 790.124 96.072C788.759 95.3253 787.692 94.3013 786.924 93C786.177 91.6987 785.804 90.2053 785.804 88.52C785.804 86.8347 786.167 85.3413 786.892 84.04C787.639 82.7387 788.652 81.7253 789.932 81C791.233 80.2533 792.695 79.88 794.316 79.88C795.959 79.88 797.409 80.2427 798.668 80.968C799.927 81.6933 800.908 82.7173 801.612 84.04C802.337 85.3413 802.7 86.8667 802.7 88.616C802.7 88.744 802.689 88.8933 802.668 89.064C802.668 89.2347 802.657 89.3947 802.636 89.544H788.204V87.336H801.036L799.788 88.104C799.809 87.016 799.585 86.0453 799.116 85.192C798.647 84.3387 797.996 83.6773 797.164 83.208C796.353 82.7173 795.404 82.472 794.316 82.472C793.249 82.472 792.3 82.7173 791.468 83.208C790.636 83.6773 789.985 84.3493 789.516 85.224C789.047 86.0773 788.812 87.0587 788.812 88.168V88.68C788.812 89.8107 789.068 90.824 789.58 91.72C790.113 92.5947 790.849 93.2773 791.788 93.768C792.727 94.2587 793.804 94.504 795.02 94.504C796.023 94.504 796.929 94.3333 797.74 93.992C798.572 93.6507 799.297 93.1387 799.916 92.456L801.612 94.44C800.844 95.336 799.884 96.0187 798.732 96.488C797.601 96.9573 796.332 97.192 794.924 97.192ZM813.494 97.192C811.851 97.192 810.379 96.8293 809.078 96.104C807.798 95.3787 806.784 94.3653 806.038 93.064C805.291 91.7627 804.918 90.248 804.918 88.52C804.918 86.792 805.291 85.288 806.038 84.008C806.784 82.7067 807.798 81.6933 809.078 80.968C810.379 80.2427 811.851 79.88 813.494 79.88C814.923 79.88 816.214 80.2 817.366 80.84C818.518 81.48 819.435 82.44 820.118 83.72C820.822 85 821.174 86.6 821.174 88.52C821.174 90.44 820.832 92.04 820.15 93.32C819.488 94.6 818.582 95.5707 817.43 96.232C816.278 96.872 814.966 97.192 813.494 97.192ZM813.75 94.504C814.816 94.504 815.776 94.2587 816.63 93.768C817.504 93.2773 818.187 92.584 818.678 91.688C819.19 90.7707 819.446 89.7147 819.446 88.52C819.446 87.304 819.19 86.2587 818.678 85.384C818.187 84.488 817.504 83.7947 816.63 83.304C815.776 82.8133 814.816 82.568 813.75 82.568C812.662 82.568 811.691 82.8133 810.838 83.304C809.984 83.7947 809.302 84.488 808.79 85.384C808.278 86.2587 808.022 87.304 808.022 88.52C808.022 89.7147 808.278 90.7707 808.79 91.688C809.302 92.584 809.984 93.2773 810.838 93.768C811.691 94.2587 812.662 94.504 813.75 94.504ZM819.542 97V92.424L819.734 88.488L819.414 84.552V73.256H822.486V97H819.542ZM846.46 97V93.416L846.3 92.744V86.632C846.3 85.3307 845.916 84.328 845.148 83.624C844.401 82.8987 843.271 82.536 841.756 82.536C840.753 82.536 839.772 82.7067 838.812 83.048C837.852 83.368 837.041 83.8053 836.38 84.36L835.1 82.056C835.975 81.352 837.02 80.8187 838.236 80.456C839.473 80.072 840.764 79.88 842.108 79.88C844.433 79.88 846.225 80.4453 847.484 81.576C848.743 82.7067 849.372 84.4347 849.372 86.76V97H846.46ZM840.892 97.192C839.633 97.192 838.524 96.9787 837.564 96.552C836.625 96.1253 835.9 95.5387 835.388 94.792C834.876 94.024 834.62 93.16 834.62 92.2C834.62 91.2827 834.833 90.4507 835.26 89.704C835.708 88.9573 836.423 88.36 837.404 87.912C838.407 87.464 839.751 87.24 841.436 87.24H846.812V89.448H841.564C840.028 89.448 838.993 89.704 838.46 90.216C837.927 90.728 837.66 91.3467 837.66 92.072C837.66 92.904 837.991 93.576 838.652 94.088C839.313 94.5787 840.231 94.824 841.404 94.824C842.556 94.824 843.559 94.568 844.412 94.056C845.287 93.544 845.916 92.7973 846.3 91.816L846.908 93.928C846.503 94.9307 845.788 95.7307 844.764 96.328C843.74 96.904 842.449 97.192 840.892 97.192ZM854.577 97V73.256H857.649V97H854.577ZM863.034 97V73.256H866.106V97H863.034ZM885.43 97.192C883.723 97.192 882.4 96.7333 881.462 95.816C880.523 94.8987 880.054 93.5867 880.054 91.88V76.328H883.126V91.752C883.126 92.6693 883.35 93.3733 883.798 93.864C884.267 94.3547 884.928 94.6 885.782 94.6C886.742 94.6 887.542 94.3333 888.182 93.8L889.142 96.008C888.672 96.4133 888.107 96.712 887.446 96.904C886.806 97.096 886.134 97.192 885.43 97.192ZM877.174 82.568V80.04H887.99V82.568H877.174ZM901.432 79.88C902.818 79.88 904.034 80.1467 905.08 80.68C906.146 81.2133 906.978 82.024 907.576 83.112C908.173 84.2 908.472 85.576 908.472 87.24V97H905.4V87.592C905.4 85.9493 904.994 84.712 904.184 83.88C903.394 83.048 902.274 82.632 900.824 82.632C899.736 82.632 898.786 82.8453 897.976 83.272C897.165 83.6987 896.536 84.328 896.088 85.16C895.661 85.992 895.448 87.0267 895.448 88.264V97H892.376V73.256H895.448V84.616L894.84 83.4C895.394 82.2907 896.248 81.4267 897.4 80.808C898.552 80.1893 899.896 79.88 901.432 79.88ZM921.229 97.192C919.416 97.192 917.816 96.8187 916.429 96.072C915.064 95.3253 913.997 94.3013 913.229 93C912.482 91.6987 912.109 90.2053 912.109 88.52C912.109 86.8347 912.472 85.3413 913.197 84.04C913.944 82.7387 914.957 81.7253 916.237 81C917.538 80.2533 919 79.88 920.621 79.88C922.264 79.88 923.714 80.2427 924.973 80.968C926.232 81.6933 927.213 82.7173 927.917 84.04C928.642 85.3413 929.005 86.8667 929.005 88.616C929.005 88.744 928.994 88.8933 928.973 89.064C928.973 89.2347 928.962 89.3947 928.941 89.544H914.509V87.336H927.341L926.093 88.104C926.114 87.016 925.89 86.0453 925.421 85.192C924.952 84.3387 924.301 83.6773 923.469 83.208C922.658 82.7173 921.709 82.472 920.621 82.472C919.554 82.472 918.605 82.7173 917.773 83.208C916.941 83.6773 916.29 84.3493 915.821 85.224C915.352 86.0773 915.117 87.0587 915.117 88.168V88.68C915.117 89.8107 915.373 90.824 915.885 91.72C916.418 92.5947 917.154 93.2773 918.093 93.768C919.032 94.2587 920.109 94.504 921.325 94.504C922.328 94.504 923.234 94.3333 924.045 93.992C924.877 93.6507 925.602 93.1387 926.221 92.456L927.917 94.44C927.149 95.336 926.189 96.0187 925.037 96.488C923.906 96.9573 922.637 97.192 921.229 97.192ZM940.904 97V73.256H943.976V97H940.904ZM959.89 97V93.416L959.73 92.744V86.632C959.73 85.3307 959.346 84.328 958.578 83.624C957.831 82.8987 956.701 82.536 955.186 82.536C954.183 82.536 953.202 82.7067 952.242 83.048C951.282 83.368 950.471 83.8053 949.81 84.36L948.53 82.056C949.405 81.352 950.45 80.8187 951.666 80.456C952.903 80.072 954.194 79.88 955.538 79.88C957.863 79.88 959.655 80.4453 960.914 81.576C962.173 82.7067 962.802 84.4347 962.802 86.76V97H959.89ZM954.322 97.192C953.063 97.192 951.954 96.9787 950.994 96.552C950.055 96.1253 949.33 95.5387 948.818 94.792C948.306 94.024 948.05 93.16 948.05 92.2C948.05 91.2827 948.263 90.4507 948.69 89.704C949.138 88.9573 949.853 88.36 950.834 87.912C951.837 87.464 953.181 87.24 954.866 87.24H960.242V89.448H954.994C953.458 89.448 952.423 89.704 951.89 90.216C951.357 90.728 951.09 91.3467 951.09 92.072C951.09 92.904 951.421 93.576 952.082 94.088C952.743 94.5787 953.661 94.824 954.834 94.824C955.986 94.824 956.989 94.568 957.842 94.056C958.717 93.544 959.346 92.7973 959.73 91.816L960.338 93.928C959.933 94.9307 959.218 95.7307 958.194 96.328C957.17 96.904 955.879 97.192 954.322 97.192ZM976.999 97.192C975.548 97.192 974.236 96.872 973.063 96.232C971.911 95.5707 970.994 94.6 970.311 93.32C969.65 92.04 969.319 90.44 969.319 88.52C969.319 86.6 969.66 85 970.343 83.72C971.047 82.44 971.975 81.48 973.127 80.84C974.3 80.2 975.591 79.88 976.999 79.88C978.663 79.88 980.135 80.2427 981.415 80.968C982.695 81.6933 983.708 82.7067 984.455 84.008C985.202 85.288 985.575 86.792 985.575 88.52C985.575 90.248 985.202 91.7627 984.455 93.064C983.708 94.3653 982.695 95.3787 981.415 96.104C980.135 96.8293 978.663 97.192 976.999 97.192ZM968.007 97V73.256H971.079V84.552L970.759 88.488L970.951 92.424V97H968.007ZM976.743 94.504C977.831 94.504 978.802 94.2587 979.655 93.768C980.53 93.2773 981.212 92.584 981.703 91.688C982.215 90.7707 982.471 89.7147 982.471 88.52C982.471 87.304 982.215 86.2587 981.703 85.384C981.212 84.488 980.53 83.7947 979.655 83.304C978.802 82.8133 977.831 82.568 976.743 82.568C975.676 82.568 974.706 82.8133 973.831 83.304C972.978 83.7947 972.295 84.488 971.783 85.384C971.292 86.2587 971.047 87.304 971.047 88.52C971.047 89.7147 971.292 90.7707 971.783 91.688C972.295 92.584 972.978 93.2773 973.831 93.768C974.706 94.2587 975.676 94.504 976.743 94.504ZM994.203 97.192C992.795 97.192 991.451 97 990.171 96.616C988.913 96.232 987.921 95.7627 987.195 95.208L988.475 92.776C989.201 93.2667 990.097 93.6827 991.163 94.024C992.23 94.3653 993.318 94.536 994.427 94.536C995.857 94.536 996.881 94.3333 997.499 93.928C998.139 93.5227 998.459 92.9573 998.459 92.232C998.459 91.6987 998.267 91.2827 997.883 90.984C997.499 90.6853 996.987 90.4613 996.347 90.312C995.729 90.1627 995.035 90.0347 994.267 89.928C993.499 89.8 992.731 89.6507 991.963 89.48C991.195 89.288 990.491 89.032 989.851 88.712C989.211 88.3707 988.699 87.912 988.315 87.336C987.931 86.7387 987.739 85.9493 987.739 84.968C987.739 83.944 988.027 83.048 988.603 82.28C989.179 81.512 989.99 80.9253 991.035 80.52C992.102 80.0933 993.361 79.88 994.811 79.88C995.921 79.88 997.041 80.0187 998.171 80.296C999.323 80.552 1000.26 80.9253 1000.99 81.416L999.675 83.848C998.907 83.336 998.107 82.984 997.275 82.792C996.443 82.6 995.611 82.504 994.779 82.504C993.435 82.504 992.433 82.728 991.771 83.176C991.11 83.6027 990.779 84.1573 990.779 84.84C990.779 85.416 990.971 85.864 991.355 86.184C991.761 86.4827 992.273 86.7173 992.891 86.888C993.531 87.0587 994.235 87.208 995.003 87.336C995.771 87.4427 996.539 87.592 997.307 87.784C998.075 87.9547 998.769 88.2 999.387 88.52C1000.03 88.84 1000.54 89.288 1000.92 89.864C1001.33 90.44 1001.53 91.208 1001.53 92.168C1001.53 93.192 1001.23 94.0773 1000.64 94.824C1000.04 95.5707 999.195 96.1573 998.107 96.584C997.019 96.9893 995.718 97.192 994.203 97.192ZM1013.74 84.264C1013.14 84.264 1012.63 84.0613 1012.2 83.656C1011.78 83.2293 1011.56 82.696 1011.56 82.056C1011.56 81.416 1011.78 80.8933 1012.2 80.488C1012.63 80.0827 1013.14 79.88 1013.74 79.88C1014.32 79.88 1014.81 80.0827 1015.21 80.488C1015.64 80.8933 1015.85 81.416 1015.85 82.056C1015.85 82.696 1015.64 83.2293 1015.21 83.656C1014.81 84.0613 1014.32 84.264 1013.74 84.264ZM1013.74 97.192C1013.14 97.192 1012.63 96.9893 1012.2 96.584C1011.78 96.1573 1011.56 95.624 1011.56 94.984C1011.56 94.344 1011.78 93.8213 1012.2 93.416C1012.63 93.0107 1013.14 92.808 1013.74 92.808C1014.32 92.808 1014.81 93.0107 1015.21 93.416C1015.64 93.8213 1015.85 94.344 1015.85 94.984C1015.85 95.624 1015.64 96.1573 1015.21 96.584C1014.81 96.9893 1014.32 97.192 1013.74 97.192Z" fill="#447DBF"/>
<path d="M33.968 55L44.112 32.6H47.28L57.456 55H54.096L45.04 34.392H46.32L37.264 55H33.968ZM38.288 49.4L39.152 46.84H51.76L52.688 49.4H38.288ZM60.3175 55V32.6H63.5175V52.216H75.6455V55H60.3175ZM78.8375 55V32.6H82.0375V52.216H94.1655V55H78.8375ZM102.079 55L112.223 32.6H115.391L125.567 55H122.207L113.151 34.392H114.431L105.375 55H102.079ZM106.399 49.4L107.263 46.84H119.871L120.799 49.4H106.399ZM128.429 55V32.6H137.165C139.127 32.6 140.802 32.9093 142.189 33.528C143.575 34.1467 144.642 35.0427 145.389 36.216C146.135 37.3893 146.509 38.7867 146.509 40.408C146.509 42.0293 146.135 43.4267 145.389 44.6C144.642 45.752 143.575 46.648 142.189 47.288C140.802 47.9067 139.127 48.216 137.165 48.216H130.189L131.629 46.712V55H128.429ZM131.629 47.032L130.189 45.432H137.069C139.117 45.432 140.663 44.9947 141.709 44.12C142.775 43.2453 143.309 42.008 143.309 40.408C143.309 38.808 142.775 37.5707 141.709 36.696C140.663 35.8213 139.117 35.384 137.069 35.384H130.189L131.629 33.784V47.032ZM150.73 55V32.6H159.466C161.429 32.6 163.103 32.9093 164.49 33.528C165.877 34.1467 166.943 35.0427 167.69 36.216C168.437 37.3893 168.81 38.7867 168.81 40.408C168.81 42.0293 168.437 43.4267 167.69 44.6C166.943 45.752 165.877 46.648 164.49 47.288C163.103 47.9067 161.429 48.216 159.466 48.216H152.49L153.93 46.712V55H150.73ZM153.93 47.032L152.49 45.432H159.37C161.418 45.432 162.965 44.9947 164.01 44.12C165.077 43.2453 165.61 42.008 165.61 40.408C165.61 38.808 165.077 37.5707 164.01 36.696C162.965 35.8213 161.418 35.384 159.37 35.384H152.49L153.93 33.784V47.032ZM179.872 55.256C178.165 55.256 176.533 55 174.976 54.488C173.418 53.9547 172.192 53.272 171.296 52.44L172.48 49.944C173.333 50.6907 174.421 51.3093 175.744 51.8C177.066 52.2907 178.442 52.536 179.872 52.536C181.173 52.536 182.229 52.3867 183.04 52.088C183.85 51.7893 184.448 51.384 184.832 50.872C185.216 50.3387 185.408 49.7413 185.408 49.08C185.408 48.312 185.152 47.6933 184.64 47.224C184.149 46.7547 183.498 46.3813 182.688 46.104C181.898 45.8053 181.024 45.5493 180.064 45.336C179.104 45.1227 178.133 44.8773 177.152 44.6C176.192 44.3013 175.306 43.928 174.496 43.48C173.706 43.032 173.066 42.4347 172.576 41.688C172.085 40.92 171.84 39.9387 171.84 38.744C171.84 37.592 172.138 36.536 172.736 35.576C173.354 34.5947 174.293 33.816 175.552 33.24C176.832 32.6427 178.453 32.344 180.416 32.344C181.717 32.344 183.008 32.5147 184.288 32.856C185.568 33.1973 186.677 33.688 187.616 34.328L186.56 36.888C185.6 36.248 184.586 35.7893 183.52 35.512C182.453 35.2133 181.418 35.064 180.416 35.064C179.157 35.064 178.122 35.224 177.312 35.544C176.501 35.864 175.904 36.2907 175.52 36.824C175.157 37.3573 174.976 37.9547 174.976 38.616C174.976 39.4053 175.221 40.0347 175.712 40.504C176.224 40.9733 176.874 41.3467 177.664 41.624C178.474 41.9013 179.36 42.1573 180.32 42.392C181.28 42.6053 182.24 42.8507 183.2 43.128C184.181 43.4053 185.066 43.768 185.856 44.216C186.666 44.664 187.317 45.2613 187.808 46.008C188.298 46.7547 188.544 47.7147 188.544 48.888C188.544 50.0187 188.234 51.0747 187.616 52.056C186.997 53.016 186.037 53.7947 184.736 54.392C183.456 54.968 181.834 55.256 179.872 55.256ZM200.852 55V32.6H204.052V55H200.852ZM210.279 55V32.6H212.903L227.719 51H226.343V32.6H229.543V55H226.919L212.103 36.6H213.479V55H210.279ZM248.329 55V35.384H240.649V32.6H259.177V35.384H251.497V55H248.329ZM271.982 55.256C270.275 55.256 268.686 54.968 267.214 54.392C265.763 53.816 264.505 53.016 263.438 51.992C262.371 50.9467 261.539 49.7307 260.942 48.344C260.345 46.9573 260.046 45.4427 260.046 43.8C260.046 42.1573 260.345 40.6427 260.942 39.256C261.539 37.8693 262.371 36.664 263.438 35.64C264.505 34.5947 265.763 33.784 267.214 33.208C268.665 32.632 270.254 32.344 271.982 32.344C273.689 32.344 275.257 32.632 276.686 33.208C278.137 33.7627 279.395 34.5627 280.462 35.608C281.55 36.632 282.382 37.8373 282.958 39.224C283.555 40.6107 283.854 42.136 283.854 43.8C283.854 45.464 283.555 46.9893 282.958 48.376C282.382 49.7627 281.55 50.9787 280.462 52.024C279.395 53.048 278.137 53.848 276.686 54.424C275.257 54.9787 273.689 55.256 271.982 55.256ZM271.982 52.408C273.219 52.408 274.361 52.1947 275.406 51.768C276.473 51.3413 277.39 50.744 278.158 49.976C278.947 49.1867 279.555 48.2693 279.982 47.224C280.43 46.1787 280.654 45.0373 280.654 43.8C280.654 42.5627 280.43 41.4213 279.982 40.376C279.555 39.3307 278.947 38.424 278.158 37.656C277.39 36.8667 276.473 36.2587 275.406 35.832C274.361 35.4053 273.219 35.192 271.982 35.192C270.723 35.192 269.561 35.4053 268.494 35.832C267.449 36.2587 266.531 36.8667 265.742 37.656C264.953 38.424 264.334 39.3307 263.886 40.376C263.459 41.4213 263.246 42.5627 263.246 43.8C263.246 45.0373 263.459 46.1787 263.886 47.224C264.334 48.2693 264.953 49.1867 265.742 49.976C266.531 50.744 267.449 51.3413 268.494 51.768C269.561 52.1947 270.723 52.408 271.982 52.408ZM292.4 55V35.384H284.72V32.6H303.248V35.384H295.568V55H292.4ZM301.737 55L311.881 32.6H315.049L325.225 55H321.865L312.809 34.392H314.089L305.033 55H301.737ZM306.057 49.4L306.921 46.84H319.529L320.457 49.4H306.057ZM328.086 55V32.6H331.286V52.216H343.414V55H328.086Z" fill="#2F2E41"/>
<rect x="529" y="129" width="87" height="87" rx="18" fill="url(#paint0_linear_79_663)"/>
<path d="M575.417 164.542H565.75C561.079 164.542 557.292 160.755 557.292 156.083C557.292 151.412 561.079 147.625 565.75 147.625H575.417V164.542Z" fill="#E64A19"/>
<path d="M574.209 181.458H565.75C561.079 181.458 557.292 177.671 557.292 173C557.292 168.329 561.079 164.542 565.75 164.542H574.209V181.458Z" fill="#7C4DFF"/>
<path d="M565.75 198.375C561.079 198.375 557.292 194.588 557.292 189.917C557.292 185.245 561.079 181.458 565.75 181.458H574.209V189.917C574.209 194.588 570.422 198.375 565.75 198.375Z" fill="#66BB6A"/>
<path d="M582.666 164.542H574.208V147.625H582.666C587.338 147.625 591.125 151.412 591.125 156.083C591.125 160.755 587.338 164.542 582.666 164.542Z" fill="#FF7043"/>
<path d="M582.666 181.458C587.338 181.458 591.125 177.671 591.125 173C591.125 168.329 587.338 164.542 582.666 164.542C577.995 164.542 574.208 168.329 574.208 173C574.208 177.671 577.995 181.458 582.666 181.458Z" fill="#29B6F6"/>
<rect x="34" y="124" width="87" height="87" rx="18" fill="url(#paint1_linear_79_663)"/>
<path d="M74.3753 171.625L65.917 164.375C65.917 164.375 67.1253 162.563 68.9378 160.75C70.7503 158.938 72.2438 158.512 74.3753 157.125C78.6178 154.365 82.2295 142.625 87.667 142.625L74.3753 171.625Z" fill="url(#paint2_linear_79_663)"/>
<path d="M62.2913 178.955L50.208 170.417L65.9163 164.375L74.7094 170.979L65.9163 177.746L62.2913 178.955Z" fill="url(#paint3_linear_79_663)"/>
<path d="M87.667 142.625C93.7087 142.625 103.375 175.25 105.792 183.708C105.792 183.708 97.3131 175.697 92.5003 176.458C87.6875 177.22 85.8907 184.371 80.7493 189.455C77.3962 192.771 74.3753 193.375 74.3753 193.375C74.3753 193.375 74.1264 183.559 68.3337 180.083C65.3128 178.271 62.292 178.875 62.292 178.875C62.292 178.875 69.6012 175.37 73.7397 168.998C77.8783 162.627 83.4378 142.625 87.667 142.625Z" fill="url(#paint4_linear_79_663)"/>
<rect x="133" y="125" width="87" height="87" rx="18" fill="url(#paint5_linear_79_663)"/>
<path d="M164.067 182.519L152.362 173.305L158.177 162.505L174.866 169L164.067 182.519Z" fill="#F57C00"/>
<path d="M200.166 157.748L199.26 185.691L180.682 193.167L169.505 185.917L185.817 169L200.166 157.748Z" fill="#1E88E5"/>
<path d="M200.167 157.748L185.44 175.118L178.719 153.292L185.139 145.589L200.167 157.748Z" fill="#2962FF"/>
<path d="M188.915 163.714L175.094 184.936L155.761 191.958L158.858 181.083L162.86 167.641L188.915 163.714Z" fill="#AB47BC"/>
<path d="M162.859 167.641L151.833 163.941L158.857 144.833L173.961 146.646L188.914 163.714L162.859 167.641Z" fill="#E91E63"/>
<path d="M160.292 153.292H190.5V183.5H160.292V153.292Z" fill="#000001"/>
<path d="M163.917 178.063H174.792V179.875H163.917V178.063ZM171.771 159.182V156.917H165.729V159.182H167.542V167.036H165.729V169.302H171.771V167.036H170.151V159.182H171.771ZM177.662 169.604C175.396 169.604 174.193 168.277 173.735 167.734L175.44 165.794C175.748 166.135 176.604 167.036 177.662 167.036C179.021 167.036 179.323 165.677 179.323 164.922V156.917H182.042V164.922C182.042 165.676 182.042 166.885 181.136 168.094C180.501 168.94 179.021 169.604 177.662 169.604Z" fill="white"/>
<rect x="232" y="128" width="87" height="87" rx="18" fill="url(#paint6_linear_79_663)"/>
<path d="M290.359 151.87C292.586 152.485 294.125 154.489 294.125 156.771V187.175C294.125 189.479 292.553 191.489 290.297 192.087L276.351 196.001L280.834 186.5V156.292L277.03 147.972L290.359 151.87Z" fill="url(#paint7_linear_79_663)"/>
<path d="M280.833 185.292V190.037C280.833 194.632 276.213 197.588 272.352 195.463L263.971 190.092C263.002 189.529 262.477 188.326 262.806 187.124C263.112 186.005 264.161 185.292 265.264 185.292H280.833Z" fill="url(#paint8_linear_79_663)"/>
<path d="M273.518 148.469L259.11 156.669C257.6 157.529 256.667 159.132 256.667 160.87V183.138C256.667 184.778 258.43 185.815 259.863 185.016L265.267 182.006C265.925 181.64 266.334 180.944 266.334 180.19V164.439C266.334 162.86 267.276 161.443 268.706 160.876L280.834 156.664V152.93C280.834 149.059 276.809 146.604 273.518 148.469Z" fill="url(#paint9_linear_79_663)"/>
<rect x="331" y="128" width="87" height="87" rx="18" fill="url(#paint10_linear_79_663)"/>
<path fill-rule="evenodd" clip-rule="evenodd" d="M385.23 153.634L400.057 165.925L394.666 176.789L385.784 174.33H378.014L385.23 153.634Z" fill="#26C6DA"/>
<path fill-rule="evenodd" clip-rule="evenodd" d="M382.771 153.158L371.352 145.625L352.717 153.396L349.625 186.225L366.991 196.375L371.67 190.904L370.242 161.643L382.771 153.158Z" fill="#66BB6A"/>
<path fill-rule="evenodd" clip-rule="evenodd" d="M389.432 159.502H371.828L387.37 145.625L389.432 159.502Z" fill="#9CCC65"/>
<path fill-rule="evenodd" clip-rule="evenodd" d="M400.375 190.982L384.912 196.295L364.295 190.507L370.242 161.643L372.62 159.502L385.229 158.312L384.039 170.92L394.031 167.035L400.375 190.982Z" fill="#FFEE58"/>
<path fill-rule="evenodd" clip-rule="evenodd" d="M359.292 155.292H390.709V186.708H359.292V155.292Z" fill="#212121"/>
<path fill-rule="evenodd" clip-rule="evenodd" d="M362.917 181.875H375V184.292H362.917V181.875ZM363.008 158.917H368.606C371.899 158.917 373.792 160.769 373.792 163.508C373.792 166.569 371.322 168.181 368.276 168.181H365.97V172.208H363.006V158.917H363.008ZM370.746 163.669C370.746 162.38 369.841 161.655 368.276 161.655H365.97V165.763H368.358C369.976 165.764 370.746 164.798 370.746 163.669ZM375.99 165.564C375.95 163.79 376.638 162.076 377.893 160.821C379.147 159.567 380.861 158.879 382.636 158.918C385.031 158.918 386.499 159.69 387.658 160.927L385.88 163.014C384.876 162.087 383.871 161.546 382.635 161.546C380.472 161.546 378.926 163.323 378.926 165.564C378.926 167.727 380.472 169.581 382.635 169.581C384.103 169.581 385.029 168.963 386.035 168.113L387.812 169.891C386.498 171.282 385.029 172.208 382.557 172.208C380.802 172.208 379.12 171.506 377.886 170.257C376.652 169.009 375.969 167.318 375.99 165.564Z" fill="white"/>
<rect x="430" y="129" width="87" height="87" rx="18" fill="url(#paint11_linear_79_663)"/>
<path d="M497.25 156.802V188.156C497.25 189.518 496.475 190.76 495.251 191.357C492.462 192.716 487.66 195.054 486.879 195.41C485.767 195.919 485.069 196.25 484.196 196.25C483.323 196.25 482.746 195.681 482.345 195.257C481.944 194.832 485.375 183.187 485.375 183.187V151.398C485.375 151.398 481.597 150.607 482.312 149.81C483.028 149.014 483.626 148.743 484.373 148.743C485.234 148.743 485.93 149.126 486.714 149.504C487.269 149.771 492.333 152.201 495.233 153.593C496.469 154.185 497.25 155.432 497.25 156.802Z" fill="url(#paint12_linear_79_663)"/>
<path d="M449.75 182C449.75 184.29 450.06 184.629 452.284 185.596C454.013 186.347 454.702 186.75 455.164 186.75C455.721 186.75 456.244 186.366 456.74 185.962C457.235 185.557 485.375 162.436 485.375 162.436V150.586C485.375 149.163 483.387 148.596 482.445 149.662C482.445 149.662 453.006 182.355 452.125 183.202C451.244 184.048 451.848 180.954 449.75 182Z" fill="url(#paint13_linear_79_663)"/>
<path d="M450.486 160.246C450.863 160.066 453.97 158.676 454.353 158.509C454.802 158.313 454.963 158.25 455.294 158.25C455.66 158.25 455.91 158.389 456.483 158.86C457.285 159.518 485.375 182.574 485.375 182.574V194.162C485.375 196.151 483.304 196.356 482.135 195.042C481.307 194.111 452.587 162.328 452.587 162.328C452.587 162.328 449.75 163.761 449.75 162.51C449.75 160.822 450.078 160.443 450.486 160.246Z" fill="url(#paint14_linear_79_663)"/>
<path d="M455.688 165.759V179.31C455.688 179.31 452.446 182.872 451.721 183.655C451.078 184.352 449.75 184.134 449.75 182.176V162.321C449.75 160.835 451.093 160.684 452.241 161.937C452.449 162.164 455.688 165.759 455.688 165.759Z" fill="url(#paint15_linear_79_663)"/>
<rect x="1115" y="37" width="179" height="166" rx="21" fill="white"/>
<rect x="632" y="129" width="87" height="87" rx="18" fill="white"/>
<g clip-path="url(#clip0_79_663)">
<path d="M677.251 174.248L687.729 174.248C688.323 174.244 688.892 174.006 689.31 173.584C689.729 173.162 689.964 172.592 689.964 171.998C689.964 171.404 689.729 170.834 689.31 170.412C688.892 169.991 688.323 169.752 687.729 169.749L677.251 169.748L677.25 159.27C677.245 158.677 677.006 158.11 676.584 157.693C676.163 157.275 675.594 157.041 675.001 157.041C674.408 157.041 673.839 157.275 673.417 157.693C672.996 158.11 672.757 158.677 672.751 159.27L672.751 169.748L662.273 169.749C661.68 169.754 661.113 169.993 660.695 170.415C660.278 170.836 660.044 171.405 660.044 171.998C660.044 172.591 660.278 173.16 660.695 173.582C661.113 174.003 661.68 174.242 662.273 174.248L672.751 174.248L672.751 184.726C672.755 185.32 672.993 185.889 673.415 186.308C673.836 186.727 674.407 186.962 675.001 186.962C675.595 186.962 676.165 186.727 676.587 186.308C677.008 185.889 677.247 185.32 677.25 184.726L677.251 174.248Z" fill="#6563FF"/>
<path d="M697.499 172C697.499 166.033 695.129 160.31 690.909 156.091C686.69 151.871 680.967 149.501 675 149.501C669.033 149.501 663.31 151.871 659.091 156.091C654.871 160.31 652.501 166.033 652.501 172C652.501 177.967 654.871 183.69 659.091 187.909C663.31 192.129 669.033 194.499 675 194.499C680.967 194.499 686.69 192.129 690.909 187.909C695.129 183.69 697.499 177.967 697.499 172V172ZM677.25 184.728C677.252 185.025 677.196 185.32 677.084 185.595C676.972 185.871 676.807 186.121 676.598 186.332C676.389 186.543 676.14 186.711 675.866 186.825C675.591 186.939 675.297 186.998 675 186.998C674.703 186.998 674.409 186.939 674.134 186.825C673.86 186.711 673.611 186.543 673.402 186.332C673.193 186.121 673.028 185.871 672.916 185.595C672.804 185.32 672.748 185.025 672.75 184.728L672.75 174.25L662.272 174.25C661.679 174.244 661.112 174.005 660.694 173.584C660.277 173.162 660.043 172.593 660.043 172C660.043 171.407 660.277 170.838 660.694 170.417C661.112 169.995 661.679 169.756 662.272 169.75L672.75 169.75L672.75 159.272C672.756 158.679 672.995 158.112 673.416 157.695C673.838 157.277 674.407 157.043 675 157.043C675.593 157.043 676.162 157.277 676.584 157.695C677.005 158.112 677.244 158.679 677.25 159.272L677.25 169.75H687.728C688.322 169.754 688.891 169.993 689.31 170.414C689.729 170.836 689.964 171.406 689.964 172C689.964 172.594 689.728 173.164 689.31 173.586C688.891 174.007 688.322 174.246 687.728 174.25L677.25 174.25L677.25 184.728Z" fill="#A2A1FF"/>
</g>
<defs>
<linearGradient id="paint0_linear_79_663" x1="572.5" y1="129" x2="572.5" y2="216" gradientUnits="userSpaceOnUse">
<stop stop-color="#FFB7B7"/>
<stop offset="1" stop-color="#6379C6"/>
</linearGradient>
<linearGradient id="paint1_linear_79_663" x1="77.5" y1="124" x2="77.5" y2="211" gradientUnits="userSpaceOnUse">
<stop stop-color="#FFB7B7"/>
<stop offset="1" stop-color="#6379C6"/>
</linearGradient>
<linearGradient id="paint2_linear_79_663" x1="76.363" y1="152.148" x2="81.3317" y2="167.824" gradientUnits="userSpaceOnUse">
<stop stop-color="#4ADDDF"/>
<stop offset="0.699" stop-color="#3F5352"/>
<stop offset="0.863" stop-color="#442729"/>
</linearGradient>
<linearGradient id="paint3_linear_79_663" x1="50.208" y1="171.665" x2="94.6445" y2="171.665" gradientUnits="userSpaceOnUse">
<stop stop-color="#4ADDDF"/>
<stop offset="0.792" stop-color="#3F5352"/>
<stop offset="1" stop-color="#442729"/>
</linearGradient>
<linearGradient id="paint4_linear_79_663" x1="62.292" y1="168" x2="105.792" y2="168" gradientUnits="userSpaceOnUse">
<stop offset="0.206" stop-color="#53140F"/>
<stop offset="0.3" stop-color="#84360F"/>
<stop offset="0.413" stop-color="#B85B10"/>
<stop offset="0.511" stop-color="#DF7610"/>
<stop offset="0.59" stop-color="#F68710"/>
<stop offset="0.639" stop-color="#FF8D10"/>
<stop offset="0.729" stop-color="#FD8A10"/>
<stop offset="0.8" stop-color="#F58010"/>
<stop offset="0.865" stop-color="#E86F10"/>
<stop offset="0.925" stop-color="#D65811"/>
<stop offset="0.982" stop-color="#C03A11"/>
<stop offset="1" stop-color="#B72F11"/>
</linearGradient>
<linearGradient id="paint5_linear_79_663" x1="176.5" y1="125" x2="176.5" y2="212" gradientUnits="userSpaceOnUse">
<stop stop-color="#FFB7B7"/>
<stop offset="1" stop-color="#6379C6"/>
</linearGradient>
<linearGradient id="paint6_linear_79_663" x1="275.5" y1="128" x2="275.5" y2="215" gradientUnits="userSpaceOnUse">
<stop stop-color="#FFB7B7"/>
<stop offset="1" stop-color="#6379C6"/>
</linearGradient>
<linearGradient id="paint7_linear_79_663" x1="285.238" y1="151.264" x2="285.238" y2="192.076" gradientUnits="userSpaceOnUse">
<stop stop-color="#E68E00"/>
<stop offset="0.036" stop-color="#E38400"/>
<stop offset="0.171" stop-color="#DB6200"/>
<stop offset="0.299" stop-color="#D44A00"/>
<stop offset="0.417" stop-color="#D03B00"/>
<stop offset="0.515" stop-color="#CF3600"/>
<stop offset="0.878" stop-color="#D22900"/>
<stop offset="1" stop-color="#D42400"/>
</linearGradient>
<linearGradient id="paint8_linear_79_663" x1="263.822" y1="185.232" x2="282.103" y2="192.63" gradientUnits="userSpaceOnUse">
<stop stop-color="#F52537"/>
<stop offset="0.293" stop-color="#F32536"/>
<stop offset="0.465" stop-color="#EA2434"/>
<stop offset="0.605" stop-color="#DC2231"/>
<stop offset="0.729" stop-color="#C8202C"/>
<stop offset="0.841" stop-color="#AE1E25"/>
<stop offset="0.944" stop-color="#8F1A1D"/>
<stop offset="1" stop-color="#7A1818"/>
</linearGradient>
<linearGradient id="paint9_linear_79_663" x1="253.504" y1="182.016" x2="278.265" y2="145.151" gradientUnits="userSpaceOnUse">
<stop stop-color="#D96AB1"/>
<stop offset="0.137" stop-color="#D9538B"/>
<stop offset="0.495" stop-color="#D91A2A"/>
<stop offset="0.575" stop-color="#D31A29"/>
<stop offset="0.68" stop-color="#C21926"/>
<stop offset="0.8" stop-color="#A71821"/>
<stop offset="0.929" stop-color="#811619"/>
<stop offset="1" stop-color="#691515"/>
</linearGradient>
<linearGradient id="paint10_linear_79_663" x1="374.5" y1="128" x2="374.5" y2="215" gradientUnits="userSpaceOnUse">
<stop stop-color="#FFB7B7"/>
<stop offset="1" stop-color="#6379C6"/>
</linearGradient>
<linearGradient id="paint11_linear_79_663" x1="473.5" y1="129" x2="473.5" y2="216" gradientUnits="userSpaceOnUse">
<stop stop-color="#FFB7B7"/>
<stop offset="1" stop-color="#6379C6"/>
</linearGradient>
<linearGradient id="paint12_linear_79_663" x1="489.736" y1="148.37" x2="489.736" y2="196.828" gradientUnits="userSpaceOnUse">
<stop stop-color="#C391F7"/>
<stop offset="1" stop-color="#B579F4"/>
</linearGradient>
<linearGradient id="paint13_linear_79_663" x1="450.46" y1="189.32" x2="490.03" y2="149.75" gradientUnits="userSpaceOnUse">
<stop offset="0.019" stop-color="#742FB6"/>
<stop offset="0.32" stop-color="#702DB5"/>
<stop offset="0.364" stop-color="#5D2596"/>
<stop offset="0.38" stop-color="#5D2596"/>
<stop offset="0.48" stop-color="#5D2596"/>
<stop offset="0.485" stop-color="#60279A"/>
<stop offset="0.517" stop-color="#6F2DAB"/>
<stop offset="0.556" stop-color="#7932B6"/>
<stop offset="0.61" stop-color="#7E34BD"/>
<stop offset="0.762" stop-color="#8035BF"/>
<stop offset="0.806" stop-color="#7D34BB"/>
<stop offset="0.851" stop-color="#7530AE"/>
<stop offset="0.897" stop-color="#66299A"/>
<stop offset="0.943" stop-color="#52207D"/>
<stop offset="0.963" stop-color="#481B6E"/>
</linearGradient>
<linearGradient id="paint14_linear_79_663" x1="450.231" y1="174.178" x2="487.615" y2="179.758" gradientUnits="userSpaceOnUse">
<stop offset="0.002" stop-color="#9C55D4"/>
<stop offset="0.003" stop-color="#9C55D4"/>
<stop offset="0.337" stop-color="#9751D2"/>
<stop offset="0.737" stop-color="#8847CB"/>
<stop offset="0.848" stop-color="#8343C8"/>
<stop offset="0.89" stop-color="#8042C3"/>
<stop offset="0.938" stop-color="#773DB6"/>
<stop offset="0.988" stop-color="#68369F"/>
<stop offset="1" stop-color="#643499"/>
</linearGradient>
<linearGradient id="paint15_linear_79_663" x1="452.719" y1="184.561" x2="452.719" y2="161.574" gradientUnits="userSpaceOnUse">
<stop stop-color="#5C1D9C"/>
<stop offset="1" stop-color="#561B90"/>
</linearGradient>
<clipPath id="clip0_79_663">
<rect width="54" height="54" fill="white" transform="translate(648 145)"/>
</clipPath>
</defs>
</svg>
