<svg width="87" height="87" viewBox="0 0 87 87" fill="none" xmlns="http://www.w3.org/2000/svg">
<rect width="87" height="87" rx="18" fill="url(#paint0_linear_39_7)"/>
<path d="M67.2499 27.8024V59.156C67.2499 60.518 66.4745 61.7602 65.2502 62.3575C62.4619 63.716 57.6597 66.0542 56.8783 66.4104C55.7668 66.9187 55.0686 67.25 54.1958 67.25C53.3229 67.25 52.7458 66.6812 52.3444 66.2572C51.9431 65.8321 55.3749 54.1875 55.3749 54.1875V22.3981C55.3749 22.3981 51.5963 21.6072 52.3112 20.8104C53.0273 20.0136 53.6258 19.7429 54.3727 19.7429C55.2336 19.7429 55.9295 20.1264 56.7133 20.504C57.269 20.7712 62.3325 23.2009 65.2324 24.5926C66.4686 25.1852 67.2499 26.432 67.2499 27.8024Z" fill="url(#paint1_linear_39_7)"/>
<path d="M19.75 53C19.75 55.2895 20.0599 55.6292 22.2841 56.5958C24.0131 57.3475 24.7019 57.75 25.1638 57.75C25.7207 57.75 26.2444 57.3665 26.7396 56.9615C27.2348 56.5566 55.375 33.436 55.375 33.436V21.5859C55.375 20.1633 53.3871 19.5957 52.4454 20.662C52.4454 20.662 23.0061 53.3551 22.125 54.2018C21.2439 55.0485 21.8483 51.9538 19.75 53Z" fill="url(#paint2_linear_39_7)"/>
<path d="M20.4862 31.2462C20.8627 31.0657 23.9704 29.6763 24.3527 29.5089C24.8016 29.3129 24.9631 29.25 25.2944 29.25C25.6602 29.25 25.9096 29.3889 26.4831 29.8604C27.2847 30.5182 55.375 53.5736 55.375 53.5736V65.1624C55.375 67.1514 53.304 67.3557 52.1355 66.0423C51.3066 65.1113 22.5869 33.3279 22.5869 33.3279C22.5869 33.3279 19.75 34.7612 19.75 33.5096C19.75 31.8221 20.0777 31.4433 20.4862 31.2462Z" fill="url(#paint3_linear_39_7)"/>
<path d="M25.6875 36.7585V50.3103C25.6875 50.3103 22.4456 53.8716 21.7212 54.6554C21.0776 55.3524 19.75 55.1339 19.75 53.1757V33.3207C19.75 31.8352 21.0931 31.6843 22.2414 32.9372C22.4492 33.164 25.6875 36.7585 25.6875 36.7585Z" fill="url(#paint4_linear_39_7)"/>
<defs>
<linearGradient id="paint0_linear_39_7" x1="43.5" y1="0" x2="43.5" y2="87" gradientUnits="userSpaceOnUse">
<stop stop-color="#FFB7B7"/>
<stop offset="1" stop-color="#6379C6"/>
</linearGradient>
<linearGradient id="paint1_linear_39_7" x1="59.7354" y1="19.37" x2="59.7354" y2="67.8283" gradientUnits="userSpaceOnUse">
<stop stop-color="#C391F7"/>
<stop offset="1" stop-color="#B579F4"/>
</linearGradient>
<linearGradient id="paint2_linear_39_7" x1="20.4601" y1="60.3198" x2="60.03" y2="20.7499" gradientUnits="userSpaceOnUse">
<stop offset="0.019" stop-color="#742FB6"/>
<stop offset="0.32" stop-color="#702DB5"/>
<stop offset="0.364" stop-color="#5D2596"/>
<stop offset="0.38" stop-color="#5D2596"/>
<stop offset="0.48" stop-color="#5D2596"/>
<stop offset="0.485" stop-color="#60279A"/>
<stop offset="0.517" stop-color="#6F2DAB"/>
<stop offset="0.556" stop-color="#7932B6"/>
<stop offset="0.61" stop-color="#7E34BD"/>
<stop offset="0.762" stop-color="#8035BF"/>
<stop offset="0.806" stop-color="#7D34BB"/>
<stop offset="0.851" stop-color="#7530AE"/>
<stop offset="0.897" stop-color="#66299A"/>
<stop offset="0.943" stop-color="#52207D"/>
<stop offset="0.963" stop-color="#481B6E"/>
</linearGradient>
<linearGradient id="paint3_linear_39_7" x1="20.2309" y1="45.1779" x2="57.6146" y2="50.758" gradientUnits="userSpaceOnUse">
<stop offset="0.002" stop-color="#9C55D4"/>
<stop offset="0.003" stop-color="#9C55D4"/>
<stop offset="0.337" stop-color="#9751D2"/>
<stop offset="0.737" stop-color="#8847CB"/>
<stop offset="0.848" stop-color="#8343C8"/>
<stop offset="0.89" stop-color="#8042C3"/>
<stop offset="0.938" stop-color="#773DB6"/>
<stop offset="0.988" stop-color="#68369F"/>
<stop offset="1" stop-color="#643499"/>
</linearGradient>
<linearGradient id="paint4_linear_39_7" x1="22.7187" y1="55.5614" x2="22.7187" y2="32.5738" gradientUnits="userSpaceOnUse">
<stop stop-color="#5C1D9C"/>
<stop offset="1" stop-color="#561B90"/>
</linearGradient>
</defs>
</svg>
