<svg width="853" height="326" viewBox="0 0 853 326" fill="none" xmlns="http://www.w3.org/2000/svg">
<g filter="url(#filter0_d_280_103)">
<rect x="24" y="20" width="805" height="278" rx="21" fill="white"/>
</g>
<rect x="48" y="41" width="237" height="237" rx="18" fill="url(#paint0_linear_280_103)"/>
<path d="M334.824 84L324.968 61.6H328.424L337.48 82.272H335.496L344.616 61.6H347.816L337.992 84H334.824ZM349.745 84V67.04H352.817V84H349.745ZM351.281 63.776C350.683 63.776 350.182 63.584 349.777 63.2C349.393 62.816 349.201 62.3467 349.201 61.792C349.201 61.216 349.393 60.736 349.777 60.352C350.182 59.968 350.683 59.776 351.281 59.776C351.878 59.776 352.369 59.968 352.753 60.352C353.158 60.7147 353.361 61.1733 353.361 61.728C353.361 62.304 353.169 62.7947 352.785 63.2C352.401 63.584 351.899 63.776 351.281 63.776ZM363.066 84.192C361.658 84.192 360.314 84 359.034 83.616C357.775 83.232 356.783 82.7627 356.058 82.208L357.338 79.776C358.063 80.2667 358.959 80.6827 360.026 81.024C361.093 81.3653 362.181 81.536 363.29 81.536C364.719 81.536 365.743 81.3333 366.362 80.928C367.002 80.5227 367.322 79.9573 367.322 79.232C367.322 78.6987 367.13 78.2827 366.746 77.984C366.362 77.6853 365.85 77.4613 365.21 77.312C364.591 77.1627 363.898 77.0347 363.13 76.928C362.362 76.8 361.594 76.6507 360.826 76.48C360.058 76.288 359.354 76.032 358.714 75.712C358.074 75.3707 357.562 74.912 357.178 74.336C356.794 73.7387 356.602 72.9493 356.602 71.968C356.602 70.944 356.89 70.048 357.466 69.28C358.042 68.512 358.853 67.9253 359.898 67.52C360.965 67.0933 362.223 66.88 363.674 66.88C364.783 66.88 365.903 67.0187 367.034 67.296C368.186 67.552 369.125 67.9253 369.85 68.416L368.538 70.848C367.77 70.336 366.97 69.984 366.138 69.792C365.306 69.6 364.474 69.504 363.642 69.504C362.298 69.504 361.295 69.728 360.634 70.176C359.973 70.6027 359.642 71.1573 359.642 71.84C359.642 72.416 359.834 72.864 360.218 73.184C360.623 73.4827 361.135 73.7173 361.754 73.888C362.394 74.0587 363.098 74.208 363.866 74.336C364.634 74.4427 365.402 74.592 366.17 74.784C366.938 74.9547 367.631 75.2 368.25 75.52C368.89 75.84 369.402 76.288 369.786 76.864C370.191 77.44 370.394 78.208 370.394 79.168C370.394 80.192 370.095 81.0773 369.498 81.824C368.901 82.5707 368.058 83.1573 366.97 83.584C365.882 83.9893 364.581 84.192 363.066 84.192ZM380.889 84.192C379.439 84.192 378.159 83.9253 377.049 83.392C375.961 82.8587 375.108 82.048 374.489 80.96C373.892 79.8507 373.593 78.464 373.593 76.8V67.04H376.665V76.448C376.665 78.112 377.06 79.36 377.849 80.192C378.66 81.024 379.791 81.44 381.241 81.44C382.308 81.44 383.236 81.2267 384.025 80.8C384.815 80.352 385.423 79.712 385.849 78.88C386.276 78.0267 386.489 77.0027 386.489 75.808V67.04H389.561V84H386.649V79.424L387.129 80.64C386.575 81.7707 385.743 82.6453 384.633 83.264C383.524 83.8827 382.276 84.192 380.889 84.192ZM405.458 84V80.416L405.298 79.744V73.632C405.298 72.3307 404.914 71.328 404.146 70.624C403.399 69.8987 402.268 69.536 400.754 69.536C399.751 69.536 398.77 69.7067 397.81 70.048C396.85 70.368 396.039 70.8053 395.378 71.36L394.098 69.056C394.972 68.352 396.018 67.8187 397.234 67.456C398.471 67.072 399.762 66.88 401.106 66.88C403.431 66.88 405.223 67.4453 406.482 68.576C407.74 69.7067 408.37 71.4347 408.37 73.76V84H405.458ZM399.89 84.192C398.631 84.192 397.522 83.9787 396.562 83.552C395.623 83.1253 394.898 82.5387 394.386 81.792C393.874 81.024 393.618 80.16 393.618 79.2C393.618 78.2827 393.831 77.4507 394.258 76.704C394.706 75.9573 395.42 75.36 396.402 74.912C397.404 74.464 398.748 74.24 400.434 74.24H405.81V76.448H400.562C399.026 76.448 397.991 76.704 397.458 77.216C396.924 77.728 396.658 78.3467 396.658 79.072C396.658 79.904 396.988 80.576 397.65 81.088C398.311 81.5787 399.228 81.824 400.402 81.824C401.554 81.824 402.556 81.568 403.41 81.056C404.284 80.544 404.914 79.7973 405.298 78.816L405.906 80.928C405.5 81.9307 404.786 82.7307 403.762 83.328C402.738 83.904 401.447 84.192 399.89 84.192ZM413.574 84V60.256H416.646V84H413.574ZM437.122 84.256C435.415 84.256 433.783 84 432.226 83.488C430.668 82.9547 429.442 82.272 428.546 81.44L429.73 78.944C430.583 79.6907 431.671 80.3093 432.994 80.8C434.316 81.2907 435.692 81.536 437.122 81.536C438.423 81.536 439.479 81.3867 440.29 81.088C441.1 80.7893 441.698 80.384 442.082 79.872C442.466 79.3387 442.658 78.7413 442.658 78.08C442.658 77.312 442.402 76.6933 441.89 76.224C441.399 75.7547 440.748 75.3813 439.938 75.104C439.148 74.8053 438.274 74.5493 437.314 74.336C436.354 74.1227 435.383 73.8773 434.402 73.6C433.442 73.3013 432.556 72.928 431.746 72.48C430.956 72.032 430.316 71.4347 429.826 70.688C429.335 69.92 429.09 68.9387 429.09 67.744C429.09 66.592 429.388 65.536 429.986 64.576C430.604 63.5947 431.543 62.816 432.802 62.24C434.082 61.6427 435.703 61.344 437.666 61.344C438.967 61.344 440.258 61.5147 441.538 61.856C442.818 62.1973 443.927 62.688 444.866 63.328L443.81 65.888C442.85 65.248 441.836 64.7893 440.77 64.512C439.703 64.2133 438.668 64.064 437.666 64.064C436.407 64.064 435.372 64.224 434.562 64.544C433.751 64.864 433.154 65.2907 432.77 65.824C432.407 66.3573 432.226 66.9547 432.226 67.616C432.226 68.4053 432.471 69.0347 432.962 69.504C433.474 69.9733 434.124 70.3467 434.914 70.624C435.724 70.9013 436.61 71.1573 437.57 71.392C438.53 71.6053 439.49 71.8507 440.45 72.128C441.431 72.4053 442.316 72.768 443.106 73.216C443.916 73.664 444.567 74.2613 445.058 75.008C445.548 75.7547 445.794 76.7147 445.794 77.888C445.794 79.0187 445.484 80.0747 444.866 81.056C444.247 82.016 443.287 82.7947 441.986 83.392C440.706 83.968 439.084 84.256 437.122 84.256ZM455.365 84.192C453.658 84.192 452.335 83.7333 451.397 82.816C450.458 81.8987 449.989 80.5867 449.989 78.88V63.328H453.061V78.752C453.061 79.6693 453.285 80.3733 453.733 80.864C454.202 81.3547 454.863 81.6 455.717 81.6C456.677 81.6 457.477 81.3333 458.117 80.8L459.077 83.008C458.607 83.4133 458.042 83.712 457.381 83.904C456.741 84.096 456.069 84.192 455.365 84.192ZM447.109 69.568V67.04H457.925V69.568H447.109ZM469.447 84.192C467.996 84.192 466.716 83.9253 465.607 83.392C464.519 82.8587 463.665 82.048 463.047 80.96C462.449 79.8507 462.151 78.464 462.151 76.8V67.04H465.223V76.448C465.223 78.112 465.617 79.36 466.407 80.192C467.217 81.024 468.348 81.44 469.799 81.44C470.865 81.44 471.793 81.2267 472.583 80.8C473.372 80.352 473.98 79.712 474.407 78.88C474.833 78.0267 475.047 77.0027 475.047 75.808V67.04H478.119V84H475.207V79.424L475.687 80.64C475.132 81.7707 474.3 82.6453 473.191 83.264C472.081 83.8827 470.833 84.192 469.447 84.192ZM490.495 84.192C488.852 84.192 487.38 83.8293 486.079 83.104C484.799 82.3787 483.786 81.3653 483.039 80.064C482.292 78.7627 481.919 77.248 481.919 75.52C481.919 73.792 482.292 72.288 483.039 71.008C483.786 69.7067 484.799 68.6933 486.079 67.968C487.38 67.2427 488.852 66.88 490.495 66.88C491.924 66.88 493.215 67.2 494.367 67.84C495.519 68.48 496.436 69.44 497.119 70.72C497.823 72 498.175 73.6 498.175 75.52C498.175 77.44 497.834 79.04 497.151 80.32C496.49 81.6 495.583 82.5707 494.431 83.232C493.279 83.872 491.967 84.192 490.495 84.192ZM490.751 81.504C491.818 81.504 492.778 81.2587 493.631 80.768C494.506 80.2773 495.188 79.584 495.679 78.688C496.191 77.7707 496.447 76.7147 496.447 75.52C496.447 74.304 496.191 73.2587 495.679 72.384C495.188 71.488 494.506 70.7947 493.631 70.304C492.778 69.8133 491.818 69.568 490.751 69.568C489.663 69.568 488.692 69.8133 487.839 70.304C486.986 70.7947 486.303 71.488 485.791 72.384C485.279 73.2587 485.023 74.304 485.023 75.52C485.023 76.7147 485.279 77.7707 485.791 78.688C486.303 79.584 486.986 80.2773 487.839 80.768C488.692 81.2587 489.663 81.504 490.751 81.504ZM496.543 84V79.424L496.735 75.488L496.415 71.552V60.256H499.487V84H496.543ZM504.82 84V67.04H507.892V84H504.82ZM506.356 63.776C505.758 63.776 505.257 63.584 504.852 63.2C504.468 62.816 504.276 62.3467 504.276 61.792C504.276 61.216 504.468 60.736 504.852 60.352C505.257 59.968 505.758 59.776 506.356 59.776C506.953 59.776 507.444 59.968 507.828 60.352C508.233 60.7147 508.436 61.1733 508.436 61.728C508.436 62.304 508.244 62.7947 507.86 63.2C507.476 63.584 506.974 63.776 506.356 63.776ZM520.541 84.192C518.834 84.192 517.32 83.8187 515.997 83.072C514.674 82.3253 513.629 81.3013 512.861 80C512.093 78.6773 511.709 77.184 511.709 75.52C511.709 73.8347 512.093 72.3413 512.861 71.04C513.629 69.7387 514.674 68.7253 515.997 68C517.32 67.2533 518.834 66.88 520.541 66.88C522.226 66.88 523.73 67.2533 525.053 68C526.397 68.7253 527.442 69.7387 528.189 71.04C528.957 72.32 529.341 73.8133 529.341 75.52C529.341 77.2053 528.957 78.6987 528.189 80C527.442 81.3013 526.397 82.3253 525.053 83.072C523.73 83.8187 522.226 84.192 520.541 84.192ZM520.541 81.504C521.629 81.504 522.6 81.2587 523.453 80.768C524.328 80.2773 525.01 79.584 525.501 78.688C525.992 77.7707 526.237 76.7147 526.237 75.52C526.237 74.304 525.992 73.2587 525.501 72.384C525.01 71.488 524.328 70.7947 523.453 70.304C522.6 69.8133 521.629 69.568 520.541 69.568C519.453 69.568 518.482 69.8133 517.629 70.304C516.776 70.7947 516.093 71.488 515.581 72.384C515.069 73.2587 514.813 74.304 514.813 75.52C514.813 76.7147 515.069 77.7707 515.581 78.688C516.093 79.584 516.776 80.2773 517.629 80.768C518.482 81.2587 519.453 81.504 520.541 81.504ZM539.495 84V81.824L548.615 73.024C549.426 72.256 550.023 71.584 550.407 71.008C550.813 70.4107 551.079 69.8667 551.207 69.376C551.357 68.864 551.431 68.3733 551.431 67.904C551.431 66.752 551.026 65.8453 550.215 65.184C549.405 64.5227 548.221 64.192 546.663 64.192C545.469 64.192 544.391 64.3947 543.431 64.8C542.471 65.184 541.639 65.792 540.935 66.624L538.759 64.736C539.613 63.648 540.754 62.816 542.183 62.24C543.634 61.6427 545.223 61.344 546.951 61.344C548.509 61.344 549.863 61.6 551.015 62.112C552.167 62.6027 553.053 63.3173 553.671 64.256C554.311 65.1947 554.631 66.304 554.631 67.584C554.631 68.3093 554.535 69.024 554.343 69.728C554.151 70.432 553.789 71.1787 553.255 71.968C552.722 72.7573 551.954 73.6427 550.951 74.624L542.823 82.464L542.055 81.216H555.591V84H539.495ZM566.863 84.256C565.114 84.256 563.546 83.808 562.159 82.912C560.794 82.016 559.706 80.7147 558.895 79.008C558.106 77.3013 557.711 75.232 557.711 72.8C557.711 70.368 558.106 68.2987 558.895 66.592C559.706 64.8853 560.794 63.584 562.159 62.688C563.546 61.792 565.114 61.344 566.863 61.344C568.591 61.344 570.148 61.792 571.535 62.688C572.922 63.584 574.01 64.8853 574.799 66.592C575.588 68.2987 575.983 70.368 575.983 72.8C575.983 75.232 575.588 77.3013 574.799 79.008C574.01 80.7147 572.922 82.016 571.535 82.912C570.148 83.808 568.591 84.256 566.863 84.256ZM566.863 81.408C568.036 81.408 569.06 81.088 569.935 80.448C570.831 79.808 571.524 78.848 572.015 77.568C572.527 76.288 572.783 74.6987 572.783 72.8C572.783 70.9013 572.527 69.312 572.015 68.032C571.524 66.752 570.831 65.792 569.935 65.152C569.06 64.512 568.036 64.192 566.863 64.192C565.69 64.192 564.655 64.512 563.759 65.152C562.863 65.792 562.159 66.752 561.647 68.032C561.156 69.312 560.911 70.9013 560.911 72.8C560.911 74.6987 561.156 76.288 561.647 77.568C562.159 78.848 562.863 79.808 563.759 80.448C564.655 81.088 565.69 81.408 566.863 81.408ZM578.223 84V81.824L587.343 73.024C588.153 72.256 588.751 71.584 589.135 71.008C589.54 70.4107 589.807 69.8667 589.935 69.376C590.084 68.864 590.159 68.3733 590.159 67.904C590.159 66.752 589.753 65.8453 588.943 65.184C588.132 64.5227 586.948 64.192 585.391 64.192C584.196 64.192 583.119 64.3947 582.159 64.8C581.199 65.184 580.367 65.792 579.663 66.624L577.487 64.736C578.34 63.648 579.481 62.816 580.911 62.24C582.361 61.6427 583.951 61.344 585.679 61.344C587.236 61.344 588.591 61.6 589.743 62.112C590.895 62.6027 591.78 63.3173 592.399 64.256C593.039 65.1947 593.359 66.304 593.359 67.584C593.359 68.3093 593.263 69.024 593.071 69.728C592.879 70.432 592.516 71.1787 591.983 71.968C591.449 72.7573 590.681 73.6427 589.679 74.624L581.551 82.464L580.783 81.216H594.319V84H578.223ZM596.118 84V81.824L605.238 73.024C606.048 72.256 606.646 71.584 607.03 71.008C607.435 70.4107 607.702 69.8667 607.83 69.376C607.979 68.864 608.054 68.3733 608.054 67.904C608.054 66.752 607.648 65.8453 606.838 65.184C606.027 64.5227 604.843 64.192 603.286 64.192C602.091 64.192 601.014 64.3947 600.054 64.8C599.094 65.184 598.262 65.792 597.558 66.624L595.382 64.736C596.235 63.648 597.376 62.816 598.806 62.24C600.256 61.6427 601.846 61.344 603.574 61.344C605.131 61.344 606.486 61.6 607.638 62.112C608.79 62.6027 609.675 63.3173 610.294 64.256C610.934 65.1947 611.254 66.304 611.254 67.584C611.254 68.3093 611.158 69.024 610.966 69.728C610.774 70.432 610.411 71.1787 609.878 71.968C609.344 72.7573 608.576 73.6427 607.574 74.624L599.446 82.464L598.678 81.216H612.214V84H596.118Z" fill="#2F2E41"/>
<path d="M331.576 145V138.568L332.128 140.056L324.904 128.2H327.472L333.544 138.208H332.152L338.248 128.2H340.624L333.424 140.056L333.952 138.568V145H331.576ZM346.381 145.144C345.101 145.144 343.965 144.864 342.973 144.304C341.981 143.744 341.197 142.976 340.621 142C340.045 141.008 339.757 139.888 339.757 138.64C339.757 137.376 340.045 136.256 340.621 135.28C341.197 134.304 341.981 133.544 342.973 133C343.965 132.44 345.101 132.16 346.381 132.16C347.645 132.16 348.773 132.44 349.765 133C350.773 133.544 351.557 134.304 352.117 135.28C352.693 136.24 352.981 137.36 352.981 138.64C352.981 139.904 352.693 141.024 352.117 142C351.557 142.976 350.773 143.744 349.765 144.304C348.773 144.864 347.645 145.144 346.381 145.144ZM346.381 143.128C347.197 143.128 347.925 142.944 348.565 142.576C349.221 142.208 349.733 141.688 350.101 141.016C350.469 140.328 350.653 139.536 350.653 138.64C350.653 137.728 350.469 136.944 350.101 136.288C349.733 135.616 349.221 135.096 348.565 134.728C347.925 134.36 347.197 134.176 346.381 134.176C345.565 134.176 344.837 134.36 344.197 134.728C343.557 135.096 343.045 135.616 342.661 136.288C342.277 136.944 342.085 137.728 342.085 138.64C342.085 139.536 342.277 140.328 342.661 141.016C343.045 141.688 343.557 142.208 344.197 142.576C344.837 142.944 345.565 143.128 346.381 143.128ZM361.16 145.144C360.072 145.144 359.112 144.944 358.28 144.544C357.464 144.144 356.824 143.536 356.36 142.72C355.912 141.888 355.688 140.848 355.688 139.6V132.28H357.992V139.336C357.992 140.584 358.288 141.52 358.88 142.144C359.488 142.768 360.336 143.08 361.424 143.08C362.224 143.08 362.92 142.92 363.512 142.6C364.104 142.264 364.56 141.784 364.88 141.16C365.2 140.52 365.36 139.752 365.36 138.856V132.28H367.664V145H365.48V141.568L365.84 142.48C365.424 143.328 364.8 143.984 363.968 144.448C363.136 144.912 362.2 145.144 361.16 145.144ZM381.423 145.144C380.367 145.144 379.359 145 378.399 144.712C377.455 144.424 376.711 144.072 376.167 143.656L377.127 141.832C377.671 142.2 378.343 142.512 379.143 142.768C379.943 143.024 380.759 143.152 381.591 143.152C382.663 143.152 383.431 143 383.895 142.696C384.375 142.392 384.615 141.968 384.615 141.424C384.615 141.024 384.471 140.712 384.183 140.488C383.895 140.264 383.511 140.096 383.031 139.984C382.567 139.872 382.047 139.776 381.471 139.696C380.895 139.6 380.319 139.488 379.743 139.36C379.167 139.216 378.639 139.024 378.159 138.784C377.679 138.528 377.295 138.184 377.007 137.752C376.719 137.304 376.575 136.712 376.575 135.976C376.575 135.208 376.791 134.536 377.223 133.96C377.655 133.384 378.263 132.944 379.047 132.64C379.847 132.32 380.791 132.16 381.879 132.16C382.711 132.16 383.551 132.264 384.399 132.472C385.263 132.664 385.967 132.944 386.511 133.312L385.527 135.136C384.951 134.752 384.351 134.488 383.727 134.344C383.103 134.2 382.479 134.128 381.855 134.128C380.847 134.128 380.095 134.296 379.599 134.632C379.103 134.952 378.855 135.368 378.855 135.88C378.855 136.312 378.999 136.648 379.287 136.888C379.591 137.112 379.975 137.288 380.439 137.416C380.919 137.544 381.447 137.656 382.023 137.752C382.599 137.832 383.175 137.944 383.751 138.088C384.327 138.216 384.847 138.4 385.311 138.64C385.791 138.88 386.175 139.216 386.463 139.648C386.767 140.08 386.919 140.656 386.919 141.376C386.919 142.144 386.695 142.808 386.247 143.368C385.799 143.928 385.167 144.368 384.351 144.688C383.535 144.992 382.559 145.144 381.423 145.144ZM395.103 145.144C393.743 145.144 392.543 144.864 391.503 144.304C390.479 143.744 389.679 142.976 389.103 142C388.543 141.024 388.263 139.904 388.263 138.64C388.263 137.376 388.535 136.256 389.079 135.28C389.639 134.304 390.399 133.544 391.359 133C392.335 132.44 393.431 132.16 394.647 132.16C395.879 132.16 396.967 132.432 397.911 132.976C398.855 133.52 399.591 134.288 400.119 135.28C400.663 136.256 400.935 137.4 400.935 138.712C400.935 138.808 400.927 138.92 400.911 139.048C400.911 139.176 400.903 139.296 400.887 139.408H390.063V137.752H399.687L398.751 138.328C398.767 137.512 398.599 136.784 398.247 136.144C397.895 135.504 397.407 135.008 396.783 134.656C396.175 134.288 395.463 134.104 394.647 134.104C393.847 134.104 393.135 134.288 392.511 134.656C391.887 135.008 391.399 135.512 391.047 136.168C390.695 136.808 390.519 137.544 390.519 138.376V138.76C390.519 139.608 390.711 140.368 391.095 141.04C391.495 141.696 392.047 142.208 392.751 142.576C393.455 142.944 394.263 143.128 395.175 143.128C395.927 143.128 396.607 143 397.215 142.744C397.839 142.488 398.383 142.104 398.847 141.592L400.119 143.08C399.543 143.752 398.823 144.264 397.959 144.616C397.111 144.968 396.159 145.144 395.103 145.144ZM403.774 145V127.192H406.078V145H403.774ZM415.781 145.144C414.421 145.144 413.221 144.864 412.181 144.304C411.157 143.744 410.357 142.976 409.781 142C409.221 141.024 408.941 139.904 408.941 138.64C408.941 137.376 409.213 136.256 409.757 135.28C410.317 134.304 411.077 133.544 412.037 133C413.013 132.44 414.109 132.16 415.325 132.16C416.557 132.16 417.645 132.432 418.589 132.976C419.533 133.52 420.269 134.288 420.797 135.28C421.341 136.256 421.613 137.4 421.613 138.712C421.613 138.808 421.605 138.92 421.589 139.048C421.589 139.176 421.581 139.296 421.565 139.408H410.741V137.752H420.365L419.429 138.328C419.445 137.512 419.277 136.784 418.925 136.144C418.573 135.504 418.085 135.008 417.461 134.656C416.853 134.288 416.141 134.104 415.325 134.104C414.525 134.104 413.813 134.288 413.189 134.656C412.565 135.008 412.077 135.512 411.725 136.168C411.373 136.808 411.197 137.544 411.197 138.376V138.76C411.197 139.608 411.389 140.368 411.773 141.04C412.173 141.696 412.725 142.208 413.429 142.576C414.133 142.944 414.941 143.128 415.853 143.128C416.605 143.128 417.285 143 417.893 142.744C418.517 142.488 419.061 142.104 419.525 141.592L420.797 143.08C420.221 143.752 419.501 144.264 418.637 144.616C417.789 144.968 416.837 145.144 415.781 145.144ZM429.996 145.144C428.7 145.144 427.54 144.864 426.516 144.304C425.508 143.744 424.716 142.976 424.14 142C423.564 141.024 423.276 139.904 423.276 138.64C423.276 137.376 423.564 136.256 424.14 135.28C424.716 134.304 425.508 133.544 426.516 133C427.54 132.44 428.7 132.16 429.996 132.16C431.148 132.16 432.172 132.392 433.068 132.856C433.98 133.304 434.684 133.976 435.18 134.872L433.428 136C433.012 135.376 432.5 134.92 431.892 134.632C431.3 134.328 430.66 134.176 429.972 134.176C429.14 134.176 428.396 134.36 427.74 134.728C427.084 135.096 426.564 135.616 426.18 136.288C425.796 136.944 425.604 137.728 425.604 138.64C425.604 139.552 425.796 140.344 426.18 141.016C426.564 141.688 427.084 142.208 427.74 142.576C428.396 142.944 429.14 143.128 429.972 143.128C430.66 143.128 431.3 142.984 431.892 142.696C432.5 142.392 433.012 141.928 433.428 141.304L435.18 142.408C434.684 143.288 433.98 143.968 433.068 144.448C432.172 144.912 431.148 145.144 429.996 145.144ZM442.335 145.144C441.055 145.144 440.063 144.8 439.359 144.112C438.655 143.424 438.303 142.44 438.303 141.16V129.496H440.607V141.064C440.607 141.752 440.775 142.28 441.111 142.648C441.463 143.016 441.959 143.2 442.599 143.2C443.319 143.2 443.919 143 444.399 142.6L445.119 144.256C444.767 144.56 444.343 144.784 443.847 144.928C443.367 145.072 442.863 145.144 442.335 145.144ZM436.143 134.176V132.28H444.255V134.176H436.143ZM452.787 145.144C451.427 145.144 450.227 144.864 449.187 144.304C448.163 143.744 447.363 142.976 446.787 142C446.227 141.024 445.947 139.904 445.947 138.64C445.947 137.376 446.219 136.256 446.763 135.28C447.323 134.304 448.083 133.544 449.043 133C450.019 132.44 451.115 132.16 452.331 132.16C453.563 132.16 454.651 132.432 455.595 132.976C456.539 133.52 457.275 134.288 457.803 135.28C458.347 136.256 458.619 137.4 458.619 138.712C458.619 138.808 458.611 138.92 458.595 139.048C458.595 139.176 458.587 139.296 458.571 139.408H447.747V137.752H457.371L456.435 138.328C456.451 137.512 456.283 136.784 455.931 136.144C455.579 135.504 455.091 135.008 454.467 134.656C453.859 134.288 453.147 134.104 452.331 134.104C451.531 134.104 450.819 134.288 450.195 134.656C449.571 135.008 449.083 135.512 448.731 136.168C448.379 136.808 448.203 137.544 448.203 138.376V138.76C448.203 139.608 448.395 140.368 448.779 141.04C449.179 141.696 449.731 142.208 450.435 142.576C451.139 142.944 451.947 143.128 452.859 143.128C453.611 143.128 454.291 143 454.899 142.744C455.523 142.488 456.067 142.104 456.531 141.592L457.803 143.08C457.227 143.752 456.507 144.264 455.643 144.616C454.795 144.968 453.843 145.144 452.787 145.144ZM466.714 145.144C465.482 145.144 464.378 144.872 463.402 144.328C462.442 143.784 461.682 143.024 461.122 142.048C460.562 141.072 460.282 139.936 460.282 138.64C460.282 137.344 460.562 136.216 461.122 135.256C461.682 134.28 462.442 133.52 463.402 132.976C464.378 132.432 465.482 132.16 466.714 132.16C467.786 132.16 468.754 132.4 469.618 132.88C470.482 133.36 471.17 134.08 471.682 135.04C472.21 136 472.474 137.2 472.474 138.64C472.474 140.08 472.218 141.28 471.706 142.24C471.21 143.2 470.53 143.928 469.666 144.424C468.802 144.904 467.818 145.144 466.714 145.144ZM466.906 143.128C467.706 143.128 468.426 142.944 469.066 142.576C469.722 142.208 470.234 141.688 470.602 141.016C470.986 140.328 471.178 139.536 471.178 138.64C471.178 137.728 470.986 136.944 470.602 136.288C470.234 135.616 469.722 135.096 469.066 134.728C468.426 134.36 467.706 134.176 466.906 134.176C466.09 134.176 465.362 134.36 464.722 134.728C464.082 135.096 463.57 135.616 463.186 136.288C462.802 136.944 462.61 137.728 462.61 138.64C462.61 139.536 462.802 140.328 463.186 141.016C463.57 141.688 464.082 142.208 464.722 142.576C465.362 142.944 466.09 143.128 466.906 143.128ZM471.25 145V141.568L471.394 138.616L471.154 135.664V127.192H473.458V145H471.25ZM488.727 145L481.335 128.2H483.927L490.719 143.704H489.231L496.071 128.2H498.471L491.103 145H488.727ZM505.149 145.192C503.869 145.192 502.645 145 501.477 144.616C500.309 144.216 499.389 143.704 498.717 143.08L499.605 141.208C500.245 141.768 501.061 142.232 502.053 142.6C503.045 142.968 504.077 143.152 505.149 143.152C506.125 143.152 506.917 143.04 507.525 142.816C508.133 142.592 508.581 142.288 508.869 141.904C509.157 141.504 509.301 141.056 509.301 140.56C509.301 139.984 509.109 139.52 508.725 139.168C508.357 138.816 507.869 138.536 507.261 138.328C506.669 138.104 506.013 137.912 505.293 137.752C504.573 137.592 503.845 137.408 503.109 137.2C502.389 136.976 501.725 136.696 501.117 136.36C500.525 136.024 500.045 135.576 499.677 135.016C499.309 134.44 499.125 133.704 499.125 132.808C499.125 131.944 499.349 131.152 499.797 130.432C500.261 129.696 500.965 129.112 501.909 128.68C502.869 128.232 504.085 128.008 505.557 128.008C506.533 128.008 507.501 128.136 508.461 128.392C509.421 128.648 510.253 129.016 510.957 129.496L510.165 131.416C509.445 130.936 508.685 130.592 507.885 130.384C507.085 130.16 506.309 130.048 505.557 130.048C504.613 130.048 503.837 130.168 503.229 130.408C502.621 130.648 502.173 130.968 501.885 131.368C501.613 131.768 501.477 132.216 501.477 132.712C501.477 133.304 501.661 133.776 502.029 134.128C502.413 134.48 502.901 134.76 503.493 134.968C504.101 135.176 504.765 135.368 505.485 135.544C506.205 135.704 506.925 135.888 507.645 136.096C508.381 136.304 509.045 136.576 509.637 136.912C510.245 137.248 510.733 137.696 511.101 138.256C511.469 138.816 511.653 139.536 511.653 140.416C511.653 141.264 511.421 142.056 510.957 142.792C510.493 143.512 509.773 144.096 508.797 144.544C507.837 144.976 506.621 145.192 505.149 145.192ZM526.97 145V131.152C526.97 129.904 527.33 128.912 528.05 128.176C528.786 127.424 529.826 127.048 531.17 127.048C531.666 127.048 532.138 127.112 532.586 127.24C533.05 127.352 533.442 127.536 533.762 127.792L533.066 129.544C532.826 129.352 532.554 129.208 532.25 129.112C531.946 129 531.626 128.944 531.29 128.944C530.618 128.944 530.106 129.136 529.754 129.52C529.402 129.888 529.226 130.44 529.226 131.176V132.88L529.274 133.936V145H526.97ZM524.81 134.176V132.28H532.922V134.176H524.81ZM539.996 145.144C538.716 145.144 537.58 144.864 536.588 144.304C535.596 143.744 534.812 142.976 534.236 142C533.66 141.008 533.372 139.888 533.372 138.64C533.372 137.376 533.66 136.256 534.236 135.28C534.812 134.304 535.596 133.544 536.588 133C537.58 132.44 538.716 132.16 539.996 132.16C541.26 132.16 542.388 132.44 543.38 133C544.388 133.544 545.172 134.304 545.732 135.28C546.308 136.24 546.596 137.36 546.596 138.64C546.596 139.904 546.308 141.024 545.732 142C545.172 142.976 544.388 143.744 543.38 144.304C542.388 144.864 541.26 145.144 539.996 145.144ZM539.996 143.128C540.812 143.128 541.54 142.944 542.18 142.576C542.836 142.208 543.348 141.688 543.716 141.016C544.084 140.328 544.268 139.536 544.268 138.64C544.268 137.728 544.084 136.944 543.716 136.288C543.348 135.616 542.836 135.096 542.18 134.728C541.54 134.36 540.812 134.176 539.996 134.176C539.18 134.176 538.452 134.36 537.812 134.728C537.172 135.096 536.66 135.616 536.276 136.288C535.892 136.944 535.7 137.728 535.7 138.64C535.7 139.536 535.892 140.328 536.276 141.016C536.66 141.688 537.172 142.208 537.812 142.576C538.452 142.944 539.18 143.128 539.996 143.128ZM549.422 145V132.28H551.63V135.736L551.414 134.872C551.766 133.992 552.358 133.32 553.19 132.856C554.022 132.392 555.046 132.16 556.262 132.16V134.392C556.166 134.376 556.07 134.368 555.974 134.368C555.894 134.368 555.814 134.368 555.734 134.368C554.502 134.368 553.526 134.736 552.806 135.472C552.086 136.208 551.726 137.272 551.726 138.664V145H549.422ZM569.359 145.144C568.079 145.144 567.087 144.8 566.383 144.112C565.679 143.424 565.327 142.44 565.327 141.16V129.496H567.631V141.064C567.631 141.752 567.799 142.28 568.135 142.648C568.487 143.016 568.983 143.2 569.623 143.2C570.343 143.2 570.943 143 571.423 142.6L572.143 144.256C571.791 144.56 571.367 144.784 570.871 144.928C570.391 145.072 569.887 145.144 569.359 145.144ZM563.167 134.176V132.28H571.279V134.176H563.167ZM581.361 132.16C582.401 132.16 583.313 132.36 584.097 132.76C584.897 133.16 585.521 133.768 585.969 134.584C586.417 135.4 586.641 136.432 586.641 137.68V145H584.337V137.944C584.337 136.712 584.033 135.784 583.425 135.16C582.833 134.536 581.993 134.224 580.905 134.224C580.089 134.224 579.377 134.384 578.769 134.704C578.161 135.024 577.689 135.496 577.353 136.12C577.033 136.744 576.873 137.52 576.873 138.448V145H574.569V127.192H576.873V135.712L576.417 134.8C576.833 133.968 577.473 133.32 578.337 132.856C579.201 132.392 580.209 132.16 581.361 132.16ZM590.545 145V132.28H592.849V145H590.545ZM591.697 129.832C591.249 129.832 590.873 129.688 590.569 129.4C590.281 129.112 590.137 128.76 590.137 128.344C590.137 127.912 590.281 127.552 590.569 127.264C590.873 126.976 591.249 126.832 591.697 126.832C592.145 126.832 592.513 126.976 592.801 127.264C593.105 127.536 593.257 127.88 593.257 128.296C593.257 128.728 593.113 129.096 592.825 129.4C592.537 129.688 592.161 129.832 591.697 129.832ZM600.536 145.144C599.48 145.144 598.472 145 597.512 144.712C596.568 144.424 595.824 144.072 595.28 143.656L596.24 141.832C596.784 142.2 597.456 142.512 598.256 142.768C599.056 143.024 599.872 143.152 600.704 143.152C601.776 143.152 602.544 143 603.008 142.696C603.488 142.392 603.728 141.968 603.728 141.424C603.728 141.024 603.584 140.712 603.296 140.488C603.008 140.264 602.624 140.096 602.144 139.984C601.68 139.872 601.16 139.776 600.584 139.696C600.008 139.6 599.432 139.488 598.856 139.36C598.28 139.216 597.752 139.024 597.272 138.784C596.792 138.528 596.408 138.184 596.12 137.752C595.832 137.304 595.688 136.712 595.688 135.976C595.688 135.208 595.904 134.536 596.336 133.96C596.768 133.384 597.376 132.944 598.16 132.64C598.96 132.32 599.904 132.16 600.992 132.16C601.824 132.16 602.664 132.264 603.512 132.472C604.376 132.664 605.08 132.944 605.624 133.312L604.64 135.136C604.064 134.752 603.464 134.488 602.84 134.344C602.216 134.2 601.592 134.128 600.968 134.128C599.96 134.128 599.208 134.296 598.712 134.632C598.216 134.952 597.968 135.368 597.968 135.88C597.968 136.312 598.112 136.648 598.4 136.888C598.704 137.112 599.088 137.288 599.552 137.416C600.032 137.544 600.56 137.656 601.136 137.752C601.712 137.832 602.288 137.944 602.864 138.088C603.44 138.216 603.96 138.4 604.424 138.64C604.904 138.88 605.288 139.216 605.576 139.648C605.88 140.08 606.032 140.656 606.032 141.376C606.032 142.144 605.808 142.808 605.36 143.368C604.912 143.928 604.28 144.368 603.464 144.688C602.648 144.992 601.672 145.144 600.536 145.144ZM614.973 145V128.2H617.373V142.912H626.469V145H614.973ZM626.318 145L633.926 128.2H636.302L643.934 145H641.414L634.622 129.544H635.582L628.79 145H626.318ZM629.558 140.8L630.206 138.88H639.662L640.359 140.8H629.558ZM646.081 145V128.2H653.617C655.553 128.2 657.041 128.592 658.081 129.376C659.121 130.144 659.641 131.2 659.641 132.544C659.641 133.456 659.433 134.224 659.017 134.848C658.617 135.472 658.073 135.952 657.385 136.288C656.697 136.624 655.953 136.792 655.153 136.792L655.585 136.072C656.545 136.072 657.393 136.24 658.129 136.576C658.865 136.912 659.449 137.408 659.881 138.064C660.313 138.704 660.529 139.504 660.529 140.464C660.529 141.904 659.985 143.024 658.897 143.824C657.825 144.608 656.225 145 654.097 145H646.081ZM648.481 143.056H654.001C655.329 143.056 656.345 142.832 657.049 142.384C657.753 141.936 658.105 141.232 658.105 140.272C658.105 139.296 657.753 138.584 657.049 138.136C656.345 137.688 655.329 137.464 654.001 137.464H648.265V135.52H653.401C654.617 135.52 655.561 135.296 656.233 134.848C656.905 134.4 657.241 133.728 657.241 132.832C657.241 131.936 656.905 131.264 656.233 130.816C655.561 130.368 654.617 130.144 653.401 130.144H648.481V143.056ZM674.866 145.192C673.586 145.192 672.362 145 671.194 144.616C670.026 144.216 669.106 143.704 668.434 143.08L669.322 141.208C669.962 141.768 670.778 142.232 671.77 142.6C672.762 142.968 673.794 143.152 674.866 143.152C675.842 143.152 676.634 143.04 677.242 142.816C677.85 142.592 678.298 142.288 678.586 141.904C678.874 141.504 679.018 141.056 679.018 140.56C679.018 139.984 678.826 139.52 678.442 139.168C678.074 138.816 677.586 138.536 676.978 138.328C676.386 138.104 675.73 137.912 675.01 137.752C674.29 137.592 673.562 137.408 672.826 137.2C672.106 136.976 671.442 136.696 670.834 136.36C670.242 136.024 669.762 135.576 669.394 135.016C669.026 134.44 668.842 133.704 668.842 132.808C668.842 131.944 669.066 131.152 669.514 130.432C669.978 129.696 670.682 129.112 671.626 128.68C672.586 128.232 673.802 128.008 675.274 128.008C676.25 128.008 677.218 128.136 678.178 128.392C679.138 128.648 679.97 129.016 680.674 129.496L679.882 131.416C679.162 130.936 678.402 130.592 677.602 130.384C676.802 130.16 676.026 130.048 675.274 130.048C674.33 130.048 673.554 130.168 672.946 130.408C672.338 130.648 671.89 130.968 671.602 131.368C671.33 131.768 671.194 132.216 671.194 132.712C671.194 133.304 671.378 133.776 671.746 134.128C672.13 134.48 672.618 134.76 673.21 134.968C673.818 135.176 674.482 135.368 675.202 135.544C675.922 135.704 676.642 135.888 677.362 136.096C678.098 136.304 678.762 136.576 679.354 136.912C679.962 137.248 680.45 137.696 680.818 138.256C681.186 138.816 681.37 139.536 681.37 140.416C681.37 141.264 681.138 142.056 680.674 142.792C680.21 143.512 679.49 144.096 678.514 144.544C677.554 144.976 676.338 145.192 674.866 145.192ZM689.844 145.144C688.484 145.144 687.284 144.864 686.244 144.304C685.22 143.744 684.42 142.976 683.844 142C683.284 141.024 683.004 139.904 683.004 138.64C683.004 137.376 683.276 136.256 683.82 135.28C684.38 134.304 685.14 133.544 686.1 133C687.076 132.44 688.172 132.16 689.388 132.16C690.62 132.16 691.708 132.432 692.652 132.976C693.596 133.52 694.332 134.288 694.86 135.28C695.404 136.256 695.676 137.4 695.676 138.712C695.676 138.808 695.668 138.92 695.652 139.048C695.652 139.176 695.644 139.296 695.628 139.408H684.804V137.752H694.428L693.492 138.328C693.508 137.512 693.34 136.784 692.988 136.144C692.636 135.504 692.148 135.008 691.524 134.656C690.916 134.288 690.204 134.104 689.388 134.104C688.588 134.104 687.876 134.288 687.252 134.656C686.628 135.008 686.14 135.512 685.788 136.168C685.436 136.808 685.26 137.544 685.26 138.376V138.76C685.26 139.608 685.452 140.368 685.836 141.04C686.236 141.696 686.788 142.208 687.492 142.576C688.196 142.944 689.004 143.128 689.916 143.128C690.668 143.128 691.348 143 691.956 142.744C692.58 142.488 693.124 142.104 693.588 141.592L694.86 143.08C694.284 143.752 693.564 144.264 692.7 144.616C691.852 144.968 690.9 145.144 689.844 145.144ZM702.164 145.144C701.108 145.144 700.1 145 699.14 144.712C698.196 144.424 697.452 144.072 696.908 143.656L697.868 141.832C698.412 142.2 699.084 142.512 699.884 142.768C700.684 143.024 701.5 143.152 702.332 143.152C703.404 143.152 704.172 143 704.636 142.696C705.116 142.392 705.356 141.968 705.356 141.424C705.356 141.024 705.212 140.712 704.924 140.488C704.636 140.264 704.252 140.096 703.772 139.984C703.308 139.872 702.788 139.776 702.212 139.696C701.636 139.6 701.06 139.488 700.484 139.36C699.908 139.216 699.38 139.024 698.9 138.784C698.42 138.528 698.036 138.184 697.748 137.752C697.46 137.304 697.316 136.712 697.316 135.976C697.316 135.208 697.532 134.536 697.964 133.96C698.396 133.384 699.004 132.944 699.788 132.64C700.588 132.32 701.532 132.16 702.62 132.16C703.452 132.16 704.292 132.264 705.14 132.472C706.004 132.664 706.708 132.944 707.252 133.312L706.268 135.136C705.692 134.752 705.092 134.488 704.468 134.344C703.844 134.2 703.22 134.128 702.596 134.128C701.588 134.128 700.836 134.296 700.34 134.632C699.844 134.952 699.596 135.368 699.596 135.88C699.596 136.312 699.74 136.648 700.028 136.888C700.332 137.112 700.716 137.288 701.18 137.416C701.66 137.544 702.188 137.656 702.764 137.752C703.34 137.832 703.916 137.944 704.492 138.088C705.068 138.216 705.588 138.4 706.052 138.64C706.532 138.88 706.916 139.216 707.204 139.648C707.508 140.08 707.66 140.656 707.66 141.376C707.66 142.144 707.436 142.808 706.988 143.368C706.54 143.928 705.908 144.368 705.092 144.688C704.276 144.992 703.3 145.144 702.164 145.144ZM713.827 145.144C712.771 145.144 711.763 145 710.803 144.712C709.859 144.424 709.115 144.072 708.571 143.656L709.531 141.832C710.075 142.2 710.747 142.512 711.547 142.768C712.347 143.024 713.163 143.152 713.995 143.152C715.067 143.152 715.835 143 716.299 142.696C716.779 142.392 717.019 141.968 717.019 141.424C717.019 141.024 716.875 140.712 716.587 140.488C716.299 140.264 715.915 140.096 715.435 139.984C714.971 139.872 714.451 139.776 713.875 139.696C713.299 139.6 712.723 139.488 712.147 139.36C711.571 139.216 711.043 139.024 710.563 138.784C710.083 138.528 709.699 138.184 709.411 137.752C709.123 137.304 708.979 136.712 708.979 135.976C708.979 135.208 709.195 134.536 709.627 133.96C710.059 133.384 710.667 132.944 711.451 132.64C712.251 132.32 713.195 132.16 714.283 132.16C715.115 132.16 715.955 132.264 716.803 132.472C717.667 132.664 718.371 132.944 718.915 133.312L717.931 135.136C717.355 134.752 716.755 134.488 716.131 134.344C715.507 134.2 714.883 134.128 714.259 134.128C713.251 134.128 712.499 134.296 712.003 134.632C711.507 134.952 711.259 135.368 711.259 135.88C711.259 136.312 711.403 136.648 711.691 136.888C711.995 137.112 712.379 137.288 712.843 137.416C713.323 137.544 713.851 137.656 714.427 137.752C715.003 137.832 715.579 137.944 716.155 138.088C716.731 138.216 717.251 138.4 717.715 138.64C718.195 138.88 718.579 139.216 718.867 139.648C719.171 140.08 719.323 140.656 719.323 141.376C719.323 142.144 719.099 142.808 718.651 143.368C718.203 143.928 717.571 144.368 716.755 144.688C715.939 144.992 714.963 145.144 713.827 145.144ZM721.842 145V132.28H724.146V145H721.842ZM722.994 129.832C722.546 129.832 722.17 129.688 721.866 129.4C721.578 129.112 721.434 128.76 721.434 128.344C721.434 127.912 721.578 127.552 721.866 127.264C722.17 126.976 722.546 126.832 722.994 126.832C723.442 126.832 723.81 126.976 724.098 127.264C724.402 127.536 724.554 127.88 724.554 128.296C724.554 128.728 724.41 129.096 724.122 129.4C723.834 129.688 723.458 129.832 722.994 129.832ZM733.634 145.144C732.354 145.144 731.218 144.864 730.226 144.304C729.234 143.744 728.45 142.976 727.874 142C727.298 141.008 727.01 139.888 727.01 138.64C727.01 137.376 727.298 136.256 727.874 135.28C728.45 134.304 729.234 133.544 730.226 133C731.218 132.44 732.354 132.16 733.634 132.16C734.898 132.16 736.026 132.44 737.018 133C738.026 133.544 738.81 134.304 739.37 135.28C739.946 136.24 740.234 137.36 740.234 138.64C740.234 139.904 739.946 141.024 739.37 142C738.81 142.976 738.026 143.744 737.018 144.304C736.026 144.864 734.898 145.144 733.634 145.144ZM733.634 143.128C734.45 143.128 735.178 142.944 735.818 142.576C736.474 142.208 736.986 141.688 737.354 141.016C737.722 140.328 737.906 139.536 737.906 138.64C737.906 137.728 737.722 136.944 737.354 136.288C736.986 135.616 736.474 135.096 735.818 134.728C735.178 134.36 734.45 134.176 733.634 134.176C732.818 134.176 732.09 134.36 731.45 134.728C730.81 135.096 730.298 135.616 729.914 136.288C729.53 136.944 729.338 137.728 729.338 138.64C729.338 139.536 729.53 140.328 729.914 141.016C730.298 141.688 730.81 142.208 731.45 142.576C732.09 142.944 732.818 143.128 733.634 143.128ZM749.852 132.16C750.892 132.16 751.804 132.36 752.588 132.76C753.388 133.16 754.012 133.768 754.46 134.584C754.908 135.4 755.132 136.432 755.132 137.68V145H752.828V137.944C752.828 136.712 752.524 135.784 751.916 135.16C751.324 134.536 750.484 134.224 749.396 134.224C748.58 134.224 747.868 134.384 747.26 134.704C746.652 135.024 746.18 135.496 745.844 136.12C745.524 136.744 745.364 137.52 745.364 138.448V145H743.06V132.28H745.268V135.712L744.908 134.8C745.324 133.968 745.964 133.32 746.828 132.856C747.692 132.392 748.7 132.16 749.852 132.16Z" fill="#447DBF"/>
<path d="M329.576 203V196.568L330.128 198.056L322.904 186.2H325.472L331.544 196.208H330.152L336.248 186.2H338.624L331.424 198.056L331.952 196.568V203H329.576ZM344.381 203.144C343.101 203.144 341.965 202.864 340.973 202.304C339.981 201.744 339.197 200.976 338.621 200C338.045 199.008 337.757 197.888 337.757 196.64C337.757 195.376 338.045 194.256 338.621 193.28C339.197 192.304 339.981 191.544 340.973 191C341.965 190.44 343.101 190.16 344.381 190.16C345.645 190.16 346.773 190.44 347.765 191C348.773 191.544 349.557 192.304 350.117 193.28C350.693 194.24 350.981 195.36 350.981 196.64C350.981 197.904 350.693 199.024 350.117 200C349.557 200.976 348.773 201.744 347.765 202.304C346.773 202.864 345.645 203.144 344.381 203.144ZM344.381 201.128C345.197 201.128 345.925 200.944 346.565 200.576C347.221 200.208 347.733 199.688 348.101 199.016C348.469 198.328 348.653 197.536 348.653 196.64C348.653 195.728 348.469 194.944 348.101 194.288C347.733 193.616 347.221 193.096 346.565 192.728C345.925 192.36 345.197 192.176 344.381 192.176C343.565 192.176 342.837 192.36 342.197 192.728C341.557 193.096 341.045 193.616 340.661 194.288C340.277 194.944 340.085 195.728 340.085 196.64C340.085 197.536 340.277 198.328 340.661 199.016C341.045 199.688 341.557 200.208 342.197 200.576C342.837 200.944 343.565 201.128 344.381 201.128ZM359.16 203.144C358.072 203.144 357.112 202.944 356.28 202.544C355.464 202.144 354.824 201.536 354.36 200.72C353.912 199.888 353.688 198.848 353.688 197.6V190.28H355.992V197.336C355.992 198.584 356.288 199.52 356.88 200.144C357.488 200.768 358.336 201.08 359.424 201.08C360.224 201.08 360.92 200.92 361.512 200.6C362.104 200.264 362.56 199.784 362.88 199.16C363.2 198.52 363.36 197.752 363.36 196.856V190.28H365.664V203H363.48V199.568L363.84 200.48C363.424 201.328 362.8 201.984 361.968 202.448C361.136 202.912 360.2 203.144 359.16 203.144ZM369.69 203V190.28H371.898V193.736L371.682 192.872C372.034 191.992 372.626 191.32 373.458 190.856C374.29 190.392 375.314 190.16 376.53 190.16V192.392C376.434 192.376 376.338 192.368 376.242 192.368C376.162 192.368 376.082 192.368 376.002 192.368C374.77 192.368 373.794 192.736 373.074 193.472C372.354 194.208 371.994 195.272 371.994 196.664V203H369.69ZM389.627 203.144C388.347 203.144 387.355 202.8 386.651 202.112C385.947 201.424 385.595 200.44 385.595 199.16V187.496H387.899V199.064C387.899 199.752 388.067 200.28 388.403 200.648C388.755 201.016 389.251 201.2 389.891 201.2C390.611 201.2 391.211 201 391.691 200.6L392.411 202.256C392.059 202.56 391.635 202.784 391.139 202.928C390.659 203.072 390.155 203.144 389.627 203.144ZM383.435 192.176V190.28H391.547V192.176H383.435ZM394.836 203V190.28H397.14V203H394.836ZM395.988 187.832C395.54 187.832 395.164 187.688 394.86 187.4C394.572 187.112 394.428 186.76 394.428 186.344C394.428 185.912 394.572 185.552 394.86 185.264C395.164 184.976 395.54 184.832 395.988 184.832C396.436 184.832 396.804 184.976 397.092 185.264C397.396 185.536 397.548 185.88 397.548 186.296C397.548 186.728 397.404 187.096 397.116 187.4C396.828 187.688 396.452 187.832 395.988 187.832ZM417.092 190.16C418.116 190.16 419.02 190.36 419.804 190.76C420.588 191.16 421.196 191.768 421.628 192.584C422.076 193.4 422.3 194.432 422.3 195.68V203H419.996V195.944C419.996 194.712 419.708 193.784 419.132 193.16C418.556 192.536 417.748 192.224 416.708 192.224C415.94 192.224 415.268 192.384 414.692 192.704C414.116 193.024 413.668 193.496 413.348 194.12C413.044 194.744 412.892 195.52 412.892 196.448V203H410.588V195.944C410.588 194.712 410.3 193.784 409.724 193.16C409.164 192.536 408.356 192.224 407.3 192.224C406.548 192.224 405.884 192.384 405.308 192.704C404.732 193.024 404.284 193.496 403.964 194.12C403.644 194.744 403.484 195.52 403.484 196.448V203H401.18V190.28H403.388V193.664L403.028 192.8C403.428 191.968 404.044 191.32 404.876 190.856C405.708 190.392 406.676 190.16 407.78 190.16C408.996 190.16 410.044 190.464 410.924 191.072C411.804 191.664 412.38 192.568 412.652 193.784L411.716 193.4C412.1 192.424 412.772 191.64 413.732 191.048C414.692 190.456 415.812 190.16 417.092 190.16ZM431.843 203.144C430.483 203.144 429.283 202.864 428.243 202.304C427.219 201.744 426.419 200.976 425.843 200C425.283 199.024 425.003 197.904 425.003 196.64C425.003 195.376 425.275 194.256 425.819 193.28C426.379 192.304 427.139 191.544 428.099 191C429.075 190.44 430.171 190.16 431.387 190.16C432.619 190.16 433.707 190.432 434.651 190.976C435.595 191.52 436.331 192.288 436.859 193.28C437.403 194.256 437.675 195.4 437.675 196.712C437.675 196.808 437.667 196.92 437.651 197.048C437.651 197.176 437.643 197.296 437.627 197.408H426.803V195.752H436.427L435.491 196.328C435.507 195.512 435.339 194.784 434.987 194.144C434.635 193.504 434.147 193.008 433.523 192.656C432.915 192.288 432.203 192.104 431.387 192.104C430.587 192.104 429.875 192.288 429.251 192.656C428.627 193.008 428.139 193.512 427.787 194.168C427.435 194.808 427.259 195.544 427.259 196.376V196.76C427.259 197.608 427.451 198.368 427.835 199.04C428.235 199.696 428.787 200.208 429.491 200.576C430.195 200.944 431.003 201.128 431.915 201.128C432.667 201.128 433.347 201 433.955 200.744C434.579 200.488 435.123 200.104 435.587 199.592L436.859 201.08C436.283 201.752 435.563 202.264 434.699 202.616C433.851 202.968 432.899 203.144 431.843 203.144ZM446.936 203V189.152C446.936 187.904 447.296 186.912 448.016 186.176C448.752 185.424 449.792 185.048 451.136 185.048C451.632 185.048 452.104 185.112 452.552 185.24C453.016 185.352 453.408 185.536 453.728 185.792L453.032 187.544C452.792 187.352 452.52 187.208 452.216 187.112C451.912 187 451.592 186.944 451.256 186.944C450.584 186.944 450.072 187.136 449.72 187.52C449.368 187.888 449.192 188.44 449.192 189.176V190.88L449.24 191.936V203H446.936ZM444.776 192.176V190.28H452.888V192.176H444.776ZM459.961 203.144C458.681 203.144 457.545 202.864 456.553 202.304C455.561 201.744 454.777 200.976 454.201 200C453.625 199.008 453.337 197.888 453.337 196.64C453.337 195.376 453.625 194.256 454.201 193.28C454.777 192.304 455.561 191.544 456.553 191C457.545 190.44 458.681 190.16 459.961 190.16C461.225 190.16 462.353 190.44 463.345 191C464.353 191.544 465.137 192.304 465.697 193.28C466.273 194.24 466.561 195.36 466.561 196.64C466.561 197.904 466.273 199.024 465.697 200C465.137 200.976 464.353 201.744 463.345 202.304C462.353 202.864 461.225 203.144 459.961 203.144ZM459.961 201.128C460.777 201.128 461.505 200.944 462.145 200.576C462.801 200.208 463.313 199.688 463.681 199.016C464.049 198.328 464.233 197.536 464.233 196.64C464.233 195.728 464.049 194.944 463.681 194.288C463.313 193.616 462.801 193.096 462.145 192.728C461.505 192.36 460.777 192.176 459.961 192.176C459.145 192.176 458.417 192.36 457.777 192.728C457.137 193.096 456.625 193.616 456.241 194.288C455.857 194.944 455.665 195.728 455.665 196.64C455.665 197.536 455.857 198.328 456.241 199.016C456.625 199.688 457.137 200.208 457.777 200.576C458.417 200.944 459.145 201.128 459.961 201.128ZM469.387 203V190.28H471.595V193.736L471.379 192.872C471.731 191.992 472.323 191.32 473.155 190.856C473.987 190.392 475.011 190.16 476.227 190.16V192.392C476.131 192.376 476.035 192.368 475.939 192.368C475.859 192.368 475.779 192.368 475.699 192.368C474.467 192.368 473.491 192.736 472.771 193.472C472.051 194.208 471.691 195.272 471.691 196.664V203H469.387ZM490.141 203L482.749 186.2H485.341L492.133 201.704H490.645L497.485 186.2H499.885L492.517 203H490.141ZM506.563 203.192C505.283 203.192 504.059 203 502.891 202.616C501.723 202.216 500.803 201.704 500.131 201.08L501.019 199.208C501.659 199.768 502.475 200.232 503.467 200.6C504.459 200.968 505.491 201.152 506.563 201.152C507.539 201.152 508.331 201.04 508.939 200.816C509.547 200.592 509.995 200.288 510.283 199.904C510.571 199.504 510.715 199.056 510.715 198.56C510.715 197.984 510.523 197.52 510.139 197.168C509.771 196.816 509.283 196.536 508.675 196.328C508.083 196.104 507.427 195.912 506.707 195.752C505.987 195.592 505.259 195.408 504.523 195.2C503.803 194.976 503.139 194.696 502.531 194.36C501.939 194.024 501.459 193.576 501.091 193.016C500.723 192.44 500.539 191.704 500.539 190.808C500.539 189.944 500.763 189.152 501.211 188.432C501.675 187.696 502.379 187.112 503.323 186.68C504.283 186.232 505.499 186.008 506.971 186.008C507.947 186.008 508.915 186.136 509.875 186.392C510.835 186.648 511.667 187.016 512.371 187.496L511.579 189.416C510.859 188.936 510.099 188.592 509.299 188.384C508.499 188.16 507.723 188.048 506.971 188.048C506.027 188.048 505.251 188.168 504.643 188.408C504.035 188.648 503.587 188.968 503.299 189.368C503.027 189.768 502.891 190.216 502.891 190.712C502.891 191.304 503.075 191.776 503.443 192.128C503.827 192.48 504.315 192.76 504.907 192.968C505.515 193.176 506.179 193.368 506.899 193.544C507.619 193.704 508.339 193.888 509.059 194.096C509.795 194.304 510.459 194.576 511.051 194.912C511.659 195.248 512.147 195.696 512.515 196.256C512.883 196.816 513.067 197.536 513.067 198.416C513.067 199.264 512.835 200.056 512.371 200.792C511.907 201.512 511.187 202.096 510.211 202.544C509.251 202.976 508.035 203.192 506.563 203.192ZM520.666 203V201.368L527.506 194.768C528.114 194.192 528.562 193.688 528.85 193.256C529.154 192.808 529.354 192.4 529.45 192.032C529.562 191.648 529.618 191.28 529.618 190.928C529.618 190.064 529.314 189.384 528.706 188.888C528.098 188.392 527.21 188.144 526.042 188.144C525.146 188.144 524.338 188.296 523.618 188.6C522.898 188.888 522.274 189.344 521.746 189.968L520.114 188.552C520.754 187.736 521.61 187.112 522.682 186.68C523.77 186.232 524.962 186.008 526.258 186.008C527.426 186.008 528.442 186.2 529.306 186.584C530.17 186.952 530.834 187.488 531.298 188.192C531.778 188.896 532.018 189.728 532.018 190.688C532.018 191.232 531.946 191.768 531.802 192.296C531.658 192.824 531.386 193.384 530.986 193.976C530.586 194.568 530.01 195.232 529.258 195.968L523.162 201.848L522.586 200.912H532.738V203H520.666ZM541.192 203.192C539.88 203.192 538.704 202.856 537.664 202.184C536.64 201.512 535.824 200.536 535.216 199.256C534.624 197.976 534.328 196.424 534.328 194.6C534.328 192.776 534.624 191.224 535.216 189.944C535.824 188.664 536.64 187.688 537.664 187.016C538.704 186.344 539.88 186.008 541.192 186.008C542.488 186.008 543.656 186.344 544.696 187.016C545.736 187.688 546.552 188.664 547.144 189.944C547.736 191.224 548.032 192.776 548.032 194.6C548.032 196.424 547.736 197.976 547.144 199.256C546.552 200.536 545.736 201.512 544.696 202.184C543.656 202.856 542.488 203.192 541.192 203.192ZM541.192 201.056C542.072 201.056 542.84 200.816 543.496 200.336C544.168 199.856 544.688 199.136 545.056 198.176C545.44 197.216 545.632 196.024 545.632 194.6C545.632 193.176 545.44 191.984 545.056 191.024C544.688 190.064 544.168 189.344 543.496 188.864C542.84 188.384 542.072 188.144 541.192 188.144C540.312 188.144 539.536 188.384 538.864 188.864C538.192 189.344 537.664 190.064 537.28 191.024C536.912 191.984 536.728 193.176 536.728 194.6C536.728 196.024 536.912 197.216 537.28 198.176C537.664 199.136 538.192 199.856 538.864 200.336C539.536 200.816 540.312 201.056 541.192 201.056ZM549.712 203V201.368L556.552 194.768C557.16 194.192 557.608 193.688 557.896 193.256C558.2 192.808 558.4 192.4 558.496 192.032C558.608 191.648 558.664 191.28 558.664 190.928C558.664 190.064 558.36 189.384 557.752 188.888C557.144 188.392 556.256 188.144 555.088 188.144C554.192 188.144 553.384 188.296 552.664 188.6C551.944 188.888 551.32 189.344 550.792 189.968L549.16 188.552C549.8 187.736 550.656 187.112 551.728 186.68C552.816 186.232 554.008 186.008 555.304 186.008C556.472 186.008 557.488 186.2 558.352 186.584C559.216 186.952 559.88 187.488 560.344 188.192C560.824 188.896 561.064 189.728 561.064 190.688C561.064 191.232 560.992 191.768 560.848 192.296C560.704 192.824 560.432 193.384 560.032 193.976C559.632 194.568 559.056 195.232 558.304 195.968L552.208 201.848L551.632 200.912H561.784V203H549.712ZM563.133 203V201.368L569.973 194.768C570.581 194.192 571.029 193.688 571.317 193.256C571.621 192.808 571.821 192.4 571.917 192.032C572.029 191.648 572.085 191.28 572.085 190.928C572.085 190.064 571.781 189.384 571.173 188.888C570.565 188.392 569.677 188.144 568.509 188.144C567.613 188.144 566.805 188.296 566.085 188.6C565.365 188.888 564.741 189.344 564.213 189.968L562.581 188.552C563.221 187.736 564.077 187.112 565.149 186.68C566.237 186.232 567.429 186.008 568.725 186.008C569.893 186.008 570.909 186.2 571.773 186.584C572.637 186.952 573.301 187.488 573.765 188.192C574.245 188.896 574.485 189.728 574.485 190.688C574.485 191.232 574.413 191.768 574.269 192.296C574.125 192.824 573.853 193.384 573.453 193.976C573.053 194.568 572.477 195.232 571.725 195.968L565.629 201.848L565.053 200.912H575.205V203H563.133ZM587.584 203.144C586.528 203.144 585.52 203 584.56 202.712C583.616 202.424 582.872 202.072 582.328 201.656L583.288 199.832C583.832 200.2 584.504 200.512 585.304 200.768C586.104 201.024 586.92 201.152 587.752 201.152C588.824 201.152 589.592 201 590.056 200.696C590.536 200.392 590.776 199.968 590.776 199.424C590.776 199.024 590.632 198.712 590.344 198.488C590.056 198.264 589.672 198.096 589.192 197.984C588.728 197.872 588.208 197.776 587.632 197.696C587.056 197.6 586.48 197.488 585.904 197.36C585.328 197.216 584.8 197.024 584.32 196.784C583.84 196.528 583.456 196.184 583.168 195.752C582.88 195.304 582.736 194.712 582.736 193.976C582.736 193.208 582.952 192.536 583.384 191.96C583.816 191.384 584.424 190.944 585.208 190.64C586.008 190.32 586.952 190.16 588.04 190.16C588.872 190.16 589.712 190.264 590.56 190.472C591.424 190.664 592.128 190.944 592.672 191.312L591.688 193.136C591.112 192.752 590.512 192.488 589.888 192.344C589.264 192.2 588.64 192.128 588.016 192.128C587.008 192.128 586.256 192.296 585.76 192.632C585.264 192.952 585.016 193.368 585.016 193.88C585.016 194.312 585.16 194.648 585.448 194.888C585.752 195.112 586.136 195.288 586.6 195.416C587.08 195.544 587.608 195.656 588.184 195.752C588.76 195.832 589.336 195.944 589.912 196.088C590.488 196.216 591.008 196.4 591.472 196.64C591.952 196.88 592.336 197.216 592.624 197.648C592.928 198.08 593.08 198.656 593.08 199.376C593.08 200.144 592.856 200.808 592.408 201.368C591.96 201.928 591.328 202.368 590.512 202.688C589.696 202.992 588.72 203.144 587.584 203.144ZM599.967 203.144C598.687 203.144 597.695 202.8 596.991 202.112C596.287 201.424 595.935 200.44 595.935 199.16V187.496H598.239V199.064C598.239 199.752 598.407 200.28 598.743 200.648C599.095 201.016 599.591 201.2 600.231 201.2C600.951 201.2 601.551 201 602.031 200.6L602.751 202.256C602.399 202.56 601.975 202.784 601.479 202.928C600.999 203.072 600.495 203.144 599.967 203.144ZM593.775 192.176V190.28H601.887V192.176H593.775ZM613.073 203V200.312L612.953 199.808V195.224C612.953 194.248 612.665 193.496 612.089 192.968C611.529 192.424 610.681 192.152 609.545 192.152C608.793 192.152 608.057 192.28 607.337 192.536C606.617 192.776 606.009 193.104 605.513 193.52L604.553 191.792C605.209 191.264 605.993 190.864 606.905 190.592C607.833 190.304 608.801 190.16 609.809 190.16C611.553 190.16 612.897 190.584 613.841 191.432C614.785 192.28 615.257 193.576 615.257 195.32V203H613.073ZM608.897 203.144C607.953 203.144 607.121 202.984 606.401 202.664C605.697 202.344 605.153 201.904 604.769 201.344C604.385 200.768 604.193 200.12 604.193 199.4C604.193 198.712 604.353 198.088 604.673 197.528C605.009 196.968 605.545 196.52 606.281 196.184C607.033 195.848 608.041 195.68 609.305 195.68H613.337V197.336H609.401C608.249 197.336 607.473 197.528 607.073 197.912C606.673 198.296 606.473 198.76 606.473 199.304C606.473 199.928 606.721 200.432 607.217 200.816C607.713 201.184 608.401 201.368 609.281 201.368C610.145 201.368 610.897 201.176 611.537 200.792C612.193 200.408 612.665 199.848 612.953 199.112L613.409 200.696C613.105 201.448 612.569 202.048 611.801 202.496C611.033 202.928 610.065 203.144 608.897 203.144ZM619.161 203V190.28H621.369V193.736L621.153 192.872C621.505 191.992 622.097 191.32 622.929 190.856C623.761 190.392 624.785 190.16 626.001 190.16V192.392C625.905 192.376 625.809 192.368 625.713 192.368C625.633 192.368 625.553 192.368 625.473 192.368C624.241 192.368 623.265 192.736 622.545 193.472C621.825 194.208 621.465 195.272 621.465 196.664V203H619.161ZM633.364 203.144C632.084 203.144 631.092 202.8 630.388 202.112C629.684 201.424 629.332 200.44 629.332 199.16V187.496H631.636V199.064C631.636 199.752 631.804 200.28 632.14 200.648C632.492 201.016 632.988 201.2 633.628 201.2C634.348 201.2 634.948 201 635.428 200.6L636.148 202.256C635.796 202.56 635.372 202.784 634.876 202.928C634.396 203.072 633.892 203.144 633.364 203.144ZM627.172 192.176V190.28H635.284V192.176H627.172ZM642.221 203.144C641.165 203.144 640.157 203 639.197 202.712C638.253 202.424 637.509 202.072 636.965 201.656L637.925 199.832C638.469 200.2 639.141 200.512 639.941 200.768C640.741 201.024 641.557 201.152 642.389 201.152C643.461 201.152 644.229 201 644.693 200.696C645.173 200.392 645.413 199.968 645.413 199.424C645.413 199.024 645.269 198.712 644.981 198.488C644.693 198.264 644.309 198.096 643.829 197.984C643.365 197.872 642.845 197.776 642.269 197.696C641.693 197.6 641.117 197.488 640.541 197.36C639.965 197.216 639.437 197.024 638.957 196.784C638.477 196.528 638.093 196.184 637.805 195.752C637.517 195.304 637.373 194.712 637.373 193.976C637.373 193.208 637.589 192.536 638.021 191.96C638.453 191.384 639.061 190.944 639.845 190.64C640.645 190.32 641.589 190.16 642.677 190.16C643.509 190.16 644.349 190.264 645.197 190.472C646.061 190.664 646.765 190.944 647.309 191.312L646.325 193.136C645.749 192.752 645.149 192.488 644.525 192.344C643.901 192.2 643.277 192.128 642.653 192.128C641.645 192.128 640.893 192.296 640.397 192.632C639.901 192.952 639.653 193.368 639.653 193.88C639.653 194.312 639.797 194.648 640.085 194.888C640.389 195.112 640.773 195.288 641.237 195.416C641.717 195.544 642.245 195.656 642.821 195.752C643.397 195.832 643.973 195.944 644.549 196.088C645.125 196.216 645.645 196.4 646.109 196.64C646.589 196.88 646.973 197.216 647.261 197.648C647.565 198.08 647.717 198.656 647.717 199.376C647.717 200.144 647.493 200.808 647.045 201.368C646.597 201.928 645.965 202.368 645.149 202.688C644.333 202.992 643.357 203.144 642.221 203.144ZM650.789 203.144C650.341 203.144 649.957 202.992 649.637 202.688C649.317 202.368 649.157 201.968 649.157 201.488C649.157 201.008 649.317 200.616 649.637 200.312C649.957 200.008 650.341 199.856 650.789 199.856C651.221 199.856 651.589 200.008 651.893 200.312C652.213 200.616 652.373 201.008 652.373 201.488C652.373 201.968 652.213 202.368 651.893 202.688C651.589 202.992 651.221 203.144 650.789 203.144ZM326.984 235V219.16L328.016 220.288H323.192V218.2H329.36V235H326.984ZM340.499 222.16C341.539 222.16 342.451 222.36 343.235 222.76C344.035 223.16 344.659 223.768 345.107 224.584C345.555 225.4 345.779 226.432 345.779 227.68V235H343.475V227.944C343.475 226.712 343.171 225.784 342.563 225.16C341.971 224.536 341.131 224.224 340.043 224.224C339.227 224.224 338.515 224.384 337.907 224.704C337.299 225.024 336.827 225.496 336.491 226.12C336.171 226.744 336.011 227.52 336.011 228.448V235H333.707V217.192H336.011V225.712L335.555 224.8C335.971 223.968 336.611 223.32 337.475 222.856C338.339 222.392 339.347 222.16 340.499 222.16ZM349.683 235V222.28H351.891V225.736L351.675 224.872C352.027 223.992 352.619 223.32 353.451 222.856C354.283 222.392 355.307 222.16 356.523 222.16V224.392C356.427 224.376 356.331 224.368 356.235 224.368C356.155 224.368 356.075 224.368 355.995 224.368C354.763 224.368 353.787 224.736 353.067 225.472C352.347 226.208 351.987 227.272 351.987 228.664V235H349.683ZM369.356 235.192C368.172 235.192 367.02 235.008 365.9 234.64C364.796 234.272 363.892 233.776 363.188 233.152L364.292 231.256C364.852 231.784 365.58 232.216 366.476 232.552C367.372 232.888 368.332 233.056 369.356 233.056C370.604 233.056 371.572 232.792 372.26 232.264C372.964 231.72 373.316 230.992 373.316 230.08C373.316 229.2 372.98 228.496 372.308 227.968C371.652 227.424 370.604 227.152 369.164 227.152H367.82V225.472L372.812 219.328L373.148 220.288H363.956V218.2H375.044V219.832L370.076 225.952L368.828 225.208H369.62C371.652 225.208 373.172 225.664 374.18 226.576C375.204 227.488 375.716 228.648 375.716 230.056C375.716 231 375.484 231.864 375.02 232.648C374.556 233.432 373.852 234.056 372.908 234.52C371.98 234.968 370.796 235.192 369.356 235.192ZM384.458 235.192C383.146 235.192 381.97 234.856 380.93 234.184C379.906 233.512 379.09 232.536 378.482 231.256C377.89 229.976 377.594 228.424 377.594 226.6C377.594 224.776 377.89 223.224 378.482 221.944C379.09 220.664 379.906 219.688 380.93 219.016C381.97 218.344 383.146 218.008 384.458 218.008C385.754 218.008 386.922 218.344 387.962 219.016C389.002 219.688 389.818 220.664 390.41 221.944C391.002 223.224 391.298 224.776 391.298 226.6C391.298 228.424 391.002 229.976 390.41 231.256C389.818 232.536 389.002 233.512 387.962 234.184C386.922 234.856 385.754 235.192 384.458 235.192ZM384.458 233.056C385.338 233.056 386.106 232.816 386.762 232.336C387.434 231.856 387.954 231.136 388.322 230.176C388.706 229.216 388.898 228.024 388.898 226.6C388.898 225.176 388.706 223.984 388.322 223.024C387.954 222.064 387.434 221.344 386.762 220.864C386.106 220.384 385.338 220.144 384.458 220.144C383.578 220.144 382.802 220.384 382.13 220.864C381.458 221.344 380.93 222.064 380.546 223.024C380.178 223.984 379.994 225.176 379.994 226.6C379.994 228.024 380.178 229.216 380.546 230.176C380.93 231.136 381.458 231.856 382.13 232.336C382.802 232.816 383.578 233.056 384.458 233.056ZM400.695 235V218.2H402.663L410.199 230.896H409.143L416.583 218.2H418.551L418.575 235H416.271L416.247 221.824H416.799L410.175 232.96H409.071L402.399 221.824H402.999V235H400.695ZM422.921 235V222.28H425.225V235H422.921ZM424.073 219.832C423.625 219.832 423.249 219.688 422.945 219.4C422.657 219.112 422.513 218.76 422.513 218.344C422.513 217.912 422.657 217.552 422.945 217.264C423.249 216.976 423.625 216.832 424.073 216.832C424.521 216.832 424.889 216.976 425.177 217.264C425.481 217.536 425.633 217.88 425.633 218.296C425.633 218.728 425.489 219.096 425.201 219.4C424.913 219.688 424.537 219.832 424.073 219.832ZM436.056 222.16C437.096 222.16 438.008 222.36 438.792 222.76C439.592 223.16 440.216 223.768 440.664 224.584C441.112 225.4 441.336 226.432 441.336 227.68V235H439.032V227.944C439.032 226.712 438.728 225.784 438.12 225.16C437.528 224.536 436.688 224.224 435.6 224.224C434.784 224.224 434.072 224.384 433.464 224.704C432.856 225.024 432.384 225.496 432.048 226.12C431.728 226.744 431.568 227.52 431.568 228.448V235H429.264V222.28H431.472V225.712L431.112 224.8C431.528 223.968 432.168 223.32 433.032 222.856C433.896 222.392 434.904 222.16 436.056 222.16ZM448.888 235.144C447.832 235.144 446.824 235 445.864 234.712C444.92 234.424 444.176 234.072 443.632 233.656L444.592 231.832C445.136 232.2 445.808 232.512 446.608 232.768C447.408 233.024 448.224 233.152 449.056 233.152C450.128 233.152 450.896 233 451.36 232.696C451.84 232.392 452.08 231.968 452.08 231.424C452.08 231.024 451.936 230.712 451.648 230.488C451.36 230.264 450.976 230.096 450.496 229.984C450.032 229.872 449.512 229.776 448.936 229.696C448.36 229.6 447.784 229.488 447.208 229.36C446.632 229.216 446.104 229.024 445.624 228.784C445.144 228.528 444.76 228.184 444.472 227.752C444.184 227.304 444.04 226.712 444.04 225.976C444.04 225.208 444.256 224.536 444.688 223.96C445.12 223.384 445.728 222.944 446.512 222.64C447.312 222.32 448.256 222.16 449.344 222.16C450.176 222.16 451.016 222.264 451.864 222.472C452.728 222.664 453.432 222.944 453.976 223.312L452.992 225.136C452.416 224.752 451.816 224.488 451.192 224.344C450.568 224.2 449.944 224.128 449.32 224.128C448.312 224.128 447.56 224.296 447.064 224.632C446.568 224.952 446.32 225.368 446.32 225.88C446.32 226.312 446.464 226.648 446.752 226.888C447.056 227.112 447.44 227.288 447.904 227.416C448.384 227.544 448.912 227.656 449.488 227.752C450.064 227.832 450.64 227.944 451.216 228.088C451.792 228.216 452.312 228.4 452.776 228.64C453.256 228.88 453.64 229.216 453.928 229.648C454.232 230.08 454.384 230.656 454.384 231.376C454.384 232.144 454.16 232.808 453.712 233.368C453.264 233.928 452.632 234.368 451.816 234.688C451 234.992 450.024 235.144 448.888 235.144Z" fill="#2F2E41"/>
<path d="M232.833 115.487V202.397C232.833 206.173 230.684 209.616 227.29 211.272C219.561 215.037 206.25 221.519 204.084 222.506C201.003 223.915 199.068 224.833 196.648 224.833C194.229 224.833 192.629 223.257 191.516 222.081C190.404 220.903 199.917 188.625 199.917 188.625V100.507C199.917 100.507 189.443 98.3148 191.424 96.1061C193.409 93.8974 195.068 93.1469 197.139 93.1469C199.525 93.1469 201.454 94.2101 203.626 95.2569C205.167 95.9975 219.203 102.732 227.241 106.59C230.668 108.233 232.833 111.689 232.833 115.487Z" fill="url(#paint1_linear_280_103)"/>
<path d="M101.167 185.333C101.167 191.68 102.026 192.621 108.191 195.301C112.984 197.384 114.893 198.5 116.174 198.5C117.717 198.5 119.169 197.437 120.542 196.314C121.914 195.192 199.917 131.103 199.917 131.103V98.2556C199.917 94.3122 194.407 92.7388 191.796 95.6947C191.796 95.6947 110.193 186.318 107.75 188.665C105.308 191.011 106.983 182.433 101.167 185.333Z" fill="url(#paint2_linear_280_103)"/>
<path d="M103.208 125.033C104.251 124.533 112.866 120.682 113.925 120.218C115.17 119.674 115.617 119.5 116.536 119.5C117.55 119.5 118.241 119.885 119.831 121.192C122.053 123.015 199.917 186.923 199.917 186.923V219.047C199.917 224.56 194.176 225.126 190.937 221.486C188.64 218.905 109.031 130.804 109.031 130.804C109.031 130.804 101.167 134.777 101.167 131.307C101.167 126.63 102.075 125.58 103.208 125.033Z" fill="url(#paint3_linear_280_103)"/>
<path d="M117.625 140.313V177.878C117.625 177.878 108.639 187.749 106.631 189.922C104.847 191.854 101.167 191.248 101.167 185.82V130.784C101.167 126.666 104.89 126.248 108.073 129.721C108.649 130.349 117.625 140.313 117.625 140.313Z" fill="url(#paint4_linear_280_103)"/>
<defs>
<filter id="filter0_d_280_103" x="0" y="0" width="853" height="326" filterUnits="userSpaceOnUse" color-interpolation-filters="sRGB">
<feFlood flood-opacity="0" result="BackgroundImageFix"/>
<feColorMatrix in="SourceAlpha" type="matrix" values="0 0 0 0 0 0 0 0 0 0 0 0 0 0 0 0 0 0 127 0" result="hardAlpha"/>
<feOffset dy="4"/>
<feGaussianBlur stdDeviation="12"/>
<feComposite in2="hardAlpha" operator="out"/>
<feColorMatrix type="matrix" values="0 0 0 0 0 0 0 0 0 0 0 0 0 0 0 0 0 0 0.25 0"/>
<feBlend mode="normal" in2="BackgroundImageFix" result="effect1_dropShadow_280_103"/>
<feBlend mode="normal" in="SourceGraphic" in2="effect1_dropShadow_280_103" result="shape"/>
</filter>
<linearGradient id="paint0_linear_280_103" x1="166.5" y1="41" x2="166.5" y2="278" gradientUnits="userSpaceOnUse">
<stop stop-color="#FFB7B7"/>
<stop offset="1" stop-color="#6379C6"/>
</linearGradient>
<linearGradient id="paint1_linear_280_103" x1="212.004" y1="92.1133" x2="212.004" y2="226.436" gradientUnits="userSpaceOnUse">
<stop stop-color="#C391F7"/>
<stop offset="1" stop-color="#B579F4"/>
</linearGradient>
<linearGradient id="paint2_linear_280_103" x1="103.135" y1="205.623" x2="212.82" y2="95.9383" gradientUnits="userSpaceOnUse">
<stop offset="0.019" stop-color="#742FB6"/>
<stop offset="0.32" stop-color="#702DB5"/>
<stop offset="0.364" stop-color="#5D2596"/>
<stop offset="0.38" stop-color="#5D2596"/>
<stop offset="0.48" stop-color="#5D2596"/>
<stop offset="0.485" stop-color="#60279A"/>
<stop offset="0.517" stop-color="#6F2DAB"/>
<stop offset="0.556" stop-color="#7932B6"/>
<stop offset="0.61" stop-color="#7E34BD"/>
<stop offset="0.762" stop-color="#8035BF"/>
<stop offset="0.806" stop-color="#7D34BB"/>
<stop offset="0.851" stop-color="#7530AE"/>
<stop offset="0.897" stop-color="#66299A"/>
<stop offset="0.943" stop-color="#52207D"/>
<stop offset="0.963" stop-color="#481B6E"/>
</linearGradient>
<linearGradient id="paint3_linear_280_103" x1="102.5" y1="163.651" x2="206.125" y2="179.119" gradientUnits="userSpaceOnUse">
<stop offset="0.002" stop-color="#9C55D4"/>
<stop offset="0.003" stop-color="#9C55D4"/>
<stop offset="0.337" stop-color="#9751D2"/>
<stop offset="0.737" stop-color="#8847CB"/>
<stop offset="0.848" stop-color="#8343C8"/>
<stop offset="0.89" stop-color="#8042C3"/>
<stop offset="0.938" stop-color="#773DB6"/>
<stop offset="0.988" stop-color="#68369F"/>
<stop offset="1" stop-color="#643499"/>
</linearGradient>
<linearGradient id="paint4_linear_280_103" x1="109.396" y1="192.433" x2="109.396" y2="128.713" gradientUnits="userSpaceOnUse">
<stop stop-color="#5C1D9C"/>
<stop offset="1" stop-color="#561B90"/>
</linearGradient>
</defs>
</svg>
